<svg width="1440" height="614" viewBox="0 0 1440 614" fill="none" xmlns="http://www.w3.org/2000/svg">
<path d="M267.277 604.097V497.862H0V421.337L156.586 9.90321H267.277L101.691 410.534H267.277V235.877H368.068V410.534H432.862V497.862H368.068V604.097H267.277Z" fill="#1C314D"/>
<path d="M550.365 72.9237C588.161 24.3079 644.557 0 719.55 0C794.543 0 850.638 24.0078 887.835 72.0234C925.032 120.039 943.63 199.565 943.63 310.601C943.63 421.037 924.732 499.363 886.935 545.578C849.739 591.193 793.643 614 718.65 614C644.257 614 588.161 591.193 550.365 545.578C513.168 499.963 494.57 421.937 494.57 311.501C494.57 200.465 513.168 120.939 550.365 72.9237ZM812.242 136.845C793.643 103.834 762.746 87.3284 719.55 87.3284C676.354 87.3284 645.157 103.834 625.958 136.845C607.36 169.255 598.061 226.574 598.061 308.801C598.061 391.027 607.66 448.046 626.858 479.856C646.656 511.066 677.554 526.672 719.55 526.672C762.146 526.672 792.744 511.066 811.342 479.856C830.54 448.046 840.139 391.027 840.139 308.801C840.139 226.574 830.84 169.255 812.242 136.845Z" fill="#1C314D"/>
<path d="M1274.41 604.097V497.862H1007.14V421.337L1163.72 9.90321H1274.41L1108.83 410.534H1274.41V235.877H1375.21V410.534H1440V497.862H1375.21V604.097H1274.41Z" fill="#1C314D"/>
</svg>
