<?xml version="1.0" encoding="UTF-8"?>
<svg width="1200pt" height="1200pt" version="1.1" viewBox="0 0 1200 1200" xmlns="http://www.w3.org/2000/svg">
 <path d="m285.52 1162.5c147.32-70.031 217.78-162.56 217.74-451.78-74.859-14.953-151.13-41.906-217.74-81.609-66.562 39.703-142.87 66.656-217.74 81.609-0.046875 289.22 70.453 381.74 217.74 451.78zm-0.70312-47.016h1.4062c1.4531-0.09375 2.9531-0.42188 4.3594-1.125 47.812-22.734 85.547-48.562 113.72-86.203 41.766-55.641 62.766-137.76 62.766-276.66 0-5.625-3.9844-10.453-9.4688-11.531-57.094-11.391-115.27-31.922-166.03-62.25-3.75-2.2031-8.3438-2.2031-12.047 0-50.766 30.328-108.98 50.859-166.08 62.25-5.4844 1.0781-9.4219 5.9062-9.4219 11.531-0.046875 138.89 21 221.02 62.719 276.66 28.219 37.641 65.906 63.469 113.77 86.203 1.4062 0.70312 2.8594 1.0312 4.3125 1.125zm334.03-48.422c249.24-17.203 446.39-225.1 446.39-478.64 0-12.281-0.46875-24.375-1.3594-36.375-0.46875-6.4688 4.3594-12.094 10.828-12.562 6.4688-0.51562 12.094 4.3594 12.562 10.781 0.9375 12.562 1.4531 25.312 1.4531 38.156 0 266.68-207.89 485.16-470.29 502.18l-0.46875 24.422-69.75-36.469 71.062-33.938zm-333.32 23.672c41.719-20.344 75.047-43.312 100.03-76.641 38.578-51.516 57.141-127.13 57.984-253.08-54.328-11.766-109.22-31.5-158.02-59.625-48.75 28.125-103.69 47.859-158.02 59.625 0.84375 125.95 19.406 201.56 58.031 253.08 24.984 33.328 58.312 56.297 99.984 76.641zm-58.781-173.16 54.422 21.75c4.7812 1.9219 10.266 0.51562 13.5-3.5156l92.531-114.28c4.0781-5.0625 3.2812-12.422-1.7344-16.5-5.0625-4.0781-12.422-3.3281-16.5 1.7344l-87.094 107.58-46.406-18.562c-6-2.3906-12.844 0.51562-15.234 6.5625-2.4375 6 0.51562 12.844 6.5156 15.234zm308.86-830.02-0.375-24.422 70.922 34.172-69.891 36.234-0.32812-22.406c-241.55 24.797-430.31 229.13-430.31 477.28 0 6.75 0.14062 13.5 0.42188 20.203 0.28125 6.4688-4.7344 11.953-11.203 12.234-6.4688 0.23438-11.953-4.7812-12.234-11.25-0.28125-7.0312-0.42188-14.109-0.42188-21.188 0-260.95 198.98-475.78 453.42-500.86zm347.81-48.75c-17.719-1.7344-35.578-1.7344-53.297 0l-8.7656 42.703c-16.969 2.5781-33.609 7.0312-49.641 13.312l-28.969-32.625c-16.172 7.3594-31.641 16.312-46.125 26.625l13.734 41.391c-13.406 10.734-25.547 22.922-36.328 36.375l-41.391-13.781c-10.312 14.484-19.266 29.953-26.625 46.125l32.625 28.969c-6.2344 15.984-10.688 32.625-13.312 49.641l-42.703 8.7656c-1.7344 17.719-1.7344 35.578 0 53.297l42.703 8.7656c2.625 16.969 7.0781 33.609 13.312 49.641l-32.625 28.922c7.3594 16.219 16.312 31.688 26.625 46.172l41.391-13.781c10.781 13.406 22.922 25.594 36.328 36.375l-13.734 41.344c14.484 10.359 29.953 19.266 46.125 26.625l28.969-32.578c16.031 6.2344 32.672 10.688 49.641 13.312l8.7656 42.703c17.719 1.7344 35.578 1.7344 53.297 0l8.7656-42.703c16.969-2.625 33.609-7.0781 49.641-13.312l28.969 32.578c16.172-7.3594 31.641-16.266 46.125-26.625l-13.781-41.344c13.406-10.781 25.594-22.969 36.375-36.375l41.391 13.781c10.312-14.484 19.266-29.953 26.578-46.172l-32.578-28.922c6.2344-16.031 10.688-32.672 13.312-49.641l42.703-8.7656c1.7344-17.719 1.7344-35.578 0-53.297l-42.703-8.7656c-2.625-17.016-7.0781-33.656-13.312-49.641l32.578-28.969c-7.3125-16.172-16.266-31.641-26.578-46.125l-41.391 13.781c-10.781-13.453-22.969-25.641-36.375-36.375l13.781-41.391c-14.484-10.312-29.953-19.266-46.125-26.625l-28.969 32.625c-16.031-6.2812-32.672-10.734-49.641-13.312zm-26.672 91.641c-100.69 0-182.48 81.797-182.48 182.48 0 100.73 81.797 182.53 182.48 182.53 100.73 0 182.53-81.797 182.53-182.53 0-100.69-81.797-182.48-182.53-182.48zm0 23.484c87.797 0 159.05 71.25 159.05 159 0 87.797-71.25 159.05-159.05 159.05-87.75 0-159-71.25-159-159.05 0-87.75 71.25-159 159-159zm11.766 75.141v-16.312c0-6.4688-5.25-11.719-11.766-11.719-6.4688 0-11.719 5.25-11.719 11.719v16.312h-16.781c-17.438 0-31.734 14.391-31.734 32.25v31.078c0 17.906 14.297 32.297 31.734 32.297h57.047c4.6406 0 8.25 3.9844 8.25 8.7656v31.078c0 4.7812-3.6094 8.8125-8.25 8.8125h-57.047c-4.6406 0-8.25-4.0312-8.25-8.8125v-19.406c0-6.5156-5.25-11.766-11.719-11.766-6.5156 0-11.766 5.25-11.766 11.766v19.406c0 17.906 14.297 32.297 31.734 32.297h16.781v16.266c0 6.5156 5.25 11.766 11.719 11.766 6.5156 0 11.766-5.25 11.766-11.766v-16.266h16.781c17.391 0 31.734-14.391 31.734-32.297v-31.078c0-17.859-14.344-32.25-31.734-32.25h-57.047c-4.6406 0-8.25-4.0312-8.25-8.8125v-31.078c0-4.7344 3.6094-8.8125 8.25-8.8125h57.047c4.6406 0 8.25 4.0781 8.25 8.8125v19.453c0 6.4688 5.25 11.719 11.719 11.719s11.766-5.25 11.766-11.719v-19.453c0-17.859-14.344-32.25-31.734-32.25z" fill="#ffb216" fill-rule="evenodd"/>
</svg>
