<svg width="40" height="40" viewBox="0 0 40 40" fill="none" xmlns="http://www.w3.org/2000/svg">
<path d="M38.3012 1.6642C39.2395 2.5679 39.8568 3.76296 40 5.06173C40 5.60494 39.8568 5.96543 39.5309 6.65185C39.2049 7.33827 35.1901 14.2815 33.9951 16.1975C33.3086 17.3185 32.9482 18.6568 32.9482 19.9605C32.9482 21.2642 33.3086 22.6025 33.9951 23.7235C35.1901 25.6395 39.2049 32.6222 39.5309 33.3086C39.8568 33.9951 40 34.321 40 34.8642C39.8568 36.1679 39.279 37.358 38.3358 38.2272C37.4321 39.1654 36.237 39.7827 34.9728 39.8914C34.4296 39.8914 34.0691 39.7481 33.4173 39.4222C32.7654 39.0963 25.679 35.1901 23.763 33.9951C23.6198 33.921 23.4716 33.8123 23.2938 33.7432L13.8173 28.1383C14.0346 29.9457 14.8296 31.684 16.1333 32.9482C16.3852 33.2 16.642 33.4173 16.9284 33.6346C16.7111 33.7432 16.4593 33.8518 16.242 33.9951C14.3259 35.1901 7.34321 39.2049 6.65679 39.5309C5.97037 39.8568 5.64444 40 5.06667 40C3.76296 39.8568 2.57284 39.279 1.7037 38.3358C0.765432 37.4321 0.148148 36.237 0.00493827 34.9383C0.0395062 34.3951 0.187654 33.8519 0.474074 33.3827C0.8 32.6963 4.81482 25.7136 6.00988 23.7975C6.6963 22.6765 7.05679 21.3728 7.05679 20.0346C7.05679 18.6963 6.6963 17.3926 6.00988 16.2716C4.80988 14.2864 0.760494 7.3037 0.469136 6.61728C0.177778 6.14815 0.0345679 5.60494 0 5.06173C0.14321 3.76296 0.720988 2.5679 1.6642 1.6642C2.5679 0.720988 3.76296 0.14321 5.06173 0C5.60494 0.0345679 6.14815 0.182716 6.65185 0.469136C7.22963 0.720988 12.3309 3.68889 15.042 5.27901L15.6593 5.63951C15.8765 5.78272 16.0593 5.89136 16.2025 5.96543L16.4938 6.14815L26.1481 11.8617C25.9309 9.69383 24.8099 7.7037 23.0716 6.36543C23.2889 6.25679 23.5407 6.14815 23.758 6.00494C25.6741 4.80988 32.6568 0.760494 33.3432 0.469136C33.8123 0.177778 34.3556 0.0345679 34.9333 0C36.1975 0.14321 37.3926 0.720988 38.2963 1.6642H38.3012ZM20.5086 22.5679L22.5679 20.5086C22.8593 20.2173 22.8593 19.7877 22.5679 19.4963L20.5086 17.437C20.2173 17.1457 19.7877 17.1457 19.4963 17.437L17.437 19.4963C17.1457 19.7877 17.1457 20.2173 17.437 20.5086L19.4963 22.5679C19.7481 22.8198 20.2173 22.8198 20.5086 22.5679ZM38.3012 1.6642C39.2395 2.5679 39.8568 3.76296 40 5.06173C40 5.60494 39.8568 5.96543 39.5309 6.65185C39.2049 7.33827 35.1901 14.2815 33.9951 16.1975C33.3086 17.3185 32.9482 18.6568 32.9482 19.9605C32.9482 21.2642 33.3086 22.6025 33.9951 23.7235C35.1901 25.6395 39.2049 32.6222 39.5309 33.3086C39.8568 33.9951 40 34.321 40 34.8642C39.8568 36.1679 39.279 37.358 38.3358 38.2272C37.4321 39.1654 36.237 39.7827 34.9728 39.8914C34.4296 39.8914 34.0691 39.7481 33.4173 39.4222C32.7654 39.0963 25.679 35.1901 23.763 33.9951C23.6198 33.921 23.4716 33.8123 23.2938 33.7432L13.8173 28.1383C14.0346 29.9457 14.8296 31.684 16.1333 32.9482C16.3852 33.2 16.642 33.4173 16.9284 33.6346C16.7111 33.7432 16.4593 33.8518 16.242 33.9951C14.3259 35.1901 7.34321 39.2049 6.65679 39.5309C5.97037 39.8568 5.64444 40 5.06667 40C3.76296 39.8568 2.57284 39.279 1.7037 38.3358C0.765432 37.4321 0.148148 36.237 0.00493827 34.9383C0.0395062 34.3951 0.187654 33.8519 0.474074 33.3827C0.8 32.6963 4.81482 25.7136 6.00988 23.7975C6.6963 22.6765 7.05679 21.3728 7.05679 20.0346C7.05679 18.6963 6.6963 17.3926 6.00988 16.2716C4.80988 14.2864 0.760494 7.3037 0.469136 6.61728C0.177778 6.14815 0.0345679 5.60494 0 5.06173C0.14321 3.76296 0.720988 2.5679 1.6642 1.6642C2.5679 0.720988 3.76296 0.14321 5.06173 0C5.60494 0.0345679 6.14815 0.182716 6.65185 0.469136C7.22963 0.720988 12.3309 3.68889 15.042 5.27901L15.6593 5.63951C15.8765 5.78272 16.0593 5.89136 16.2025 5.96543L16.4938 6.14815L26.1481 11.8617C25.9309 9.69383 24.8099 7.7037 23.0716 6.36543C23.2889 6.25679 23.5407 6.14815 23.758 6.00494C25.6741 4.80988 32.6568 0.760494 33.3432 0.469136C33.8123 0.177778 34.3556 0.0345679 34.9333 0C36.1975 0.14321 37.3926 0.720988 38.2963 1.6642H38.3012ZM20.5086 22.5679L22.5679 20.5086C22.8593 20.2173 22.8593 19.7877 22.5679 19.4963L20.5086 17.437C20.2173 17.1457 19.7877 17.1457 19.4963 17.437L17.437 19.4963C17.1457 19.7877 17.1457 20.2173 17.437 20.5086L19.4963 22.5679C19.7481 22.8198 20.2173 22.8198 20.5086 22.5679Z" fill="#FF694A"/>
</svg>
