<svg width="116" height="66" viewBox="0 0 116 66" fill="none" xmlns="http://www.w3.org/2000/svg">
<path d="M73.2497 15.531L58.1746 24.0812L42.1382 14.9712L41.3794 15.3783V21.9946L58.1746 31.5627L73.2497 23.0124V26.5241L58.1746 35.0744L42.1382 25.9642L41.3794 26.3715V27.4911L58.1746 37.0591L75.0204 27.4911V20.8749L74.2616 20.4677L58.1746 29.5778L43.1499 21.0275V17.5667L58.1746 26.0661L75.0204 16.498V9.98351L74.1603 9.52547L58.1746 18.5846L43.9593 10.4925L58.1746 2.45118L69.9109 9.06742L70.9733 8.50758V7.69327L58.1746 0.466309L41.3794 9.98351V11.0014L58.1746 20.5695L73.2497 12.0193V15.531Z" fill="#FF3621"/>
<path d="M32.2232 60.9533V55.1005C32.2232 54.9477 32.122 54.846 31.9703 54.846H30.0479V52.5557H31.9703C32.122 52.5557 32.2232 52.4539 32.2232 52.3013V48.637H34.9549V52.3013C34.9549 52.4539 35.0562 52.5557 35.2079 52.5557H37.8891V54.846H35.2079C35.0562 54.846 34.9549 54.9477 34.9549 55.1005V60.2917C34.9549 62.7346 35.815 62.9382 36.9279 62.9382C37.3326 62.9382 37.9396 62.8872 38.2938 62.8363V65.2283C37.8385 65.2792 37.0797 65.3811 36.2197 65.3811C35.1573 65.3302 32.2232 65.3302 32.2232 60.9533ZM106.486 62.3783L108.712 61.2077C109.218 62.3783 110.179 63.1417 111.292 63.1417C112.152 63.1417 113.113 62.7854 113.113 61.7166C113.113 61.0042 112.658 60.597 111.596 60.2408L110.078 59.7319C107.953 59.0702 106.891 57.8488 106.891 56.1183C106.891 53.9299 108.712 52.3013 111.191 52.3013C113.164 52.3013 114.833 53.37 115.643 55.0496L113.417 56.271C112.911 55.2022 112.102 54.5916 111.14 54.5916C110.179 54.5916 109.522 55.1005 109.522 55.8639C109.522 56.5254 110.028 57.0345 111.039 57.3397L112.557 57.8488C114.783 58.5613 115.845 59.7827 115.845 61.4622C115.845 64.1088 113.569 65.4829 111.292 65.4829C109.016 65.432 107.194 64.2614 106.486 62.3783ZM98.0887 60.088C98.0381 60.1389 97.9876 60.1899 97.9876 60.2408V65.1266H95.2052V47.0591H97.9876V56.9326C97.9876 57.0345 98.0381 57.1362 98.1393 57.1362C98.2405 57.1871 98.3416 57.1362 98.3923 57.0853L102.895 52.5048H106.284L101.023 57.8488C100.922 57.9505 100.922 58.0523 101.023 58.154L106.739 65.1266H103.35L98.9487 59.63C98.8981 59.5791 98.8475 59.5282 98.797 59.5282C98.7464 59.5282 98.6957 59.5282 98.6452 59.5791L98.0887 60.088ZM93.8393 54.2353L92.0687 55.9148C91.057 55.1514 90.0452 54.7951 88.9323 54.7951C86.6053 54.7951 84.8853 56.5254 84.8853 58.8666C84.8853 61.2077 86.6053 62.9382 88.9323 62.9382C89.9441 62.9382 91.0063 62.5819 92.1193 61.8185L93.6876 63.498C91.4112 65.1775 90.197 65.4829 88.6288 65.4829C86.757 65.4829 85.0876 64.8212 83.8734 63.5997C82.7099 62.4292 82.0524 60.6988 82.0524 58.8666C82.0524 55.0496 84.8347 52.2504 88.6794 52.2504C89.9441 52.2504 91.8158 52.4539 93.8393 54.2353ZM80.7876 48.7896C80.7876 49.7057 80.0288 50.4691 79.1182 50.4691C78.2076 50.4691 77.4488 49.7057 77.4488 48.7896C77.4488 47.8734 78.2076 47.1101 79.1182 47.1101C80.0288 47.1101 80.7876 47.8734 80.7876 48.7896ZM80.5347 65.1266H77.7524V52.5557H80.5347V65.1266ZM71.6819 59.63V65.1775H68.8995V52.6067H71.6312V54.1334C71.6312 54.2353 71.6819 54.3371 71.783 54.3879C71.8842 54.4388 71.9853 54.3879 72.036 54.2862C72.7441 53.1156 74.0594 52.3522 75.4759 52.3522C75.6783 52.3522 75.8301 52.3522 75.9312 52.4031V55.2531C75.7794 55.2022 75.5265 55.2022 75.2736 55.2022C73.0477 55.1514 71.6819 56.8817 71.6819 59.63ZM56.7583 58.8666C56.7583 56.5763 58.4784 54.7951 60.7042 54.7951C62.9301 54.7951 64.6501 56.5763 64.6501 58.8666C64.6501 61.1568 62.9301 62.9382 60.7042 62.9382C58.4784 62.9382 56.7583 61.1568 56.7583 58.8666ZM57.0113 63.6506C57.0619 63.6506 57.0619 63.6506 57.1125 63.6506C57.163 63.6506 57.2642 63.7015 57.3148 63.7525C58.276 64.8722 59.6925 65.4829 61.3113 65.4829C64.7513 65.4829 67.3819 62.5819 67.3819 58.8666C67.3819 57.0345 66.7748 55.4059 65.6112 54.1334C64.4984 52.912 62.9301 52.2504 61.2607 52.2504C59.6925 52.2504 58.2254 52.912 57.2642 54.0825C57.2137 54.1334 57.1125 54.1843 57.0113 54.1334C56.9101 54.0825 56.8596 54.0317 56.8596 53.9299V47.1101H54.0772V65.1775H56.8596V63.9051C56.8596 63.7525 56.9101 63.7015 57.0113 63.6506ZM45.4772 62.9382C43.302 62.9382 41.5314 61.1568 41.5314 58.8666C41.5314 56.5763 43.2515 54.7951 45.4772 54.7951C47.7031 54.7951 49.4231 56.5763 49.4231 58.8666C49.4231 61.1568 47.6526 62.9382 45.4772 62.9382ZM52.0031 65.1266V52.5557H49.2714V53.828C49.2714 53.9299 49.2207 54.0317 49.1196 54.0317C49.0184 54.0825 48.9173 54.0317 48.8666 53.9808C47.9561 52.8611 46.5396 52.2504 44.8702 52.2504C41.4302 52.2504 38.7997 55.1514 38.7997 58.8666C38.7997 62.5819 41.4808 65.4829 44.8702 65.4829C46.4384 65.4829 47.9055 64.8212 48.8666 63.6506C48.9173 63.5489 49.0184 63.5489 49.1196 63.5997C49.2207 63.6506 49.2714 63.7015 49.2714 63.8034V65.1775H52.0031V65.1266ZM22.0551 62.9382C19.8797 62.9382 18.1092 61.1568 18.1092 58.8666C18.1092 56.5763 19.8292 54.7951 22.0551 54.7951C24.2303 54.7951 26.0009 56.5763 26.0009 58.8666C26.0009 61.1568 24.2303 62.9382 22.0551 62.9382ZM28.5809 65.1266V52.5557H25.8491V53.828C25.8491 53.9299 25.7986 54.0317 25.6974 54.0317C25.5962 54.0825 25.495 54.0317 25.4445 53.9808C24.5339 52.8611 23.1173 52.2504 21.448 52.2504C18.008 52.2504 15.3774 55.1514 15.3774 58.8666C15.3774 62.5819 18.0587 65.4829 21.448 65.4829C23.0162 65.4829 24.4833 64.8212 25.4445 63.6506C25.495 63.5489 25.5962 63.5489 25.6974 63.5997C25.7986 63.6506 25.8491 63.7015 25.8491 63.8034V65.1775H28.5809V65.1266ZM7.28337 62.9382C5.0575 62.9382 3.33751 61.1568 3.33751 58.8666C3.33751 56.5763 5.0575 54.7951 7.28337 54.7951C9.45865 54.7951 11.2292 56.5763 11.2292 58.8666C11.2292 61.1568 9.45865 62.9382 7.28337 62.9382ZM13.8092 65.1266V47.1101H11.0269V53.879C11.0269 53.9808 10.9763 54.0825 10.8751 54.0825C10.7739 54.1334 10.6728 54.0825 10.6222 54.0317C9.661 52.912 8.24454 52.3013 6.62573 52.3013C3.18575 52.3013 0.555176 55.2022 0.555176 58.9176C0.555176 60.7497 1.16223 62.3783 2.32575 63.6506C3.43868 64.8722 5.00692 65.5337 6.67631 65.5337C8.24454 65.5337 9.71159 64.8722 10.6728 63.7016C10.7234 63.6506 10.8245 63.5997 10.9257 63.6506C11.0269 63.7015 11.0775 63.7525 11.0775 63.8543V65.1775H13.8092V65.1266Z" fill="white"/>
</svg>
