<svg xmlns="http://www.w3.org/2000/svg" width="35.987" height="35.986" viewBox="0 0 35.987 35.986">
  <g id="noun-credibility-3631097" transform="translate(-1 -1)">
    <g id="Group_3155" data-name="Group 3155" transform="translate(1 1)">
      <path id="Path_29673" data-name="Path 29673" d="M32.343,1a4.648,4.648,0,0,0-4.491,3.483H9.706a2.905,2.905,0,0,0-2.9,2.9V22.476a2.905,2.905,0,0,0,2.9,2.9h1.712a4.1,4.1,0,0,0-.681.356l-1.206.8H1v9.287H9.57l1.464.731a4.077,4.077,0,0,0,1.817.43h7.3a1.734,1.734,0,0,0,1.289-2.9,1.715,1.715,0,0,0,0-2.322,1.715,1.715,0,0,0,0-2.322,1.734,1.734,0,0,0-1.289-2.9H18l.29-1.16h4.771v2.146a1.337,1.337,0,0,0,2.449.742l1.925-2.888h4.333a2.905,2.905,0,0,0,2.9-2.9V9.659A4.64,4.64,0,0,0,32.343,1ZM9.126,34.665H7.965V30.022H6.8v4.643H2.161V27.7H6.8v1.161H7.965V27.7H9.126Zm6.257-5.224a1.715,1.715,0,0,0,0,2.322,1.715,1.715,0,0,0,0,2.322,1.688,1.688,0,0,0-.346,1.741H12.85a2.916,2.916,0,0,1-1.3-.306l-1.266-.633V27.43l1.095-.73a2.9,2.9,0,0,1,.692-.339l.659-.219a4.059,4.059,0,0,0,2.778-3.855v-.972a.581.581,0,0,1,.58-.58h.255a1.487,1.487,0,0,1,1.442,1.847L16.8,26.538h-.128a1.734,1.734,0,0,0-1.289,2.9Zm4.771,6.385H16.671a.58.58,0,0,1,0-1.161h3.483a.58.58,0,0,1,0,1.161Zm0-2.322H16.672a.58.58,0,0,1,0-1.161h3.483a.58.58,0,0,1,0,1.161Zm0-2.322H16.672a.58.58,0,0,1,0-1.161h3.483a.58.58,0,0,1,0,1.161Zm0-3.483a.58.58,0,0,1,0,1.161H16.672a.58.58,0,0,1,0-1.161Zm4.385-.077a.183.183,0,0,1-.322-.1V25.378h1.818Zm2-3.4H18.576l.339-1.355a2.7,2.7,0,0,0,.078-.641,2.576,2.576,0,0,0-1.333-2.286c.068-.021.135-.045.205-.063l.851-.212,2.018,3.363,2.018-3.363.856.214a3.864,3.864,0,0,1,2.931,3.761ZM16.114,11.758A1.735,1.735,0,0,1,17.4,10.349l.447-.114-.01-.461a.2.2,0,0,0-.008-.068h0a1.743,1.743,0,0,1,1.741-1.741,1.71,1.71,0,0,1,.869.243l.293.169.292-.169a1.71,1.71,0,0,1,.869-.243,1.739,1.739,0,0,1,1.743,1.7l-.029.564.456.117a1.737,1.737,0,0,1,1.289,1.409,2.289,2.289,0,0,0-1.138-.311h-.58a9.354,9.354,0,0,1-4.185-1,1.516,1.516,0,0,0-2.152,1h-.048A2.292,2.292,0,0,0,16.114,11.758Zm1.138.85V14.93a1.161,1.161,0,1,1,0-2.322Zm8.126,1.161a1.162,1.162,0,0,1-1.161,1.161V12.609A1.162,1.162,0,0,1,25.378,13.77Zm-6.965-1.963a.359.359,0,0,1,.359-.359.436.436,0,0,1,.207.061,10.474,10.474,0,0,0,4.078,1.083v2.919a1.743,1.743,0,0,1-1.741,1.741H20.154a1.743,1.743,0,0,1-1.741-1.741v-3.7ZM21.855,18.9l-1.12,1.867L19.614,18.9l.132-.529a2.867,2.867,0,0,0,.407.041h1.161a2.867,2.867,0,0,0,.407-.041ZM33.5,22.476a1.743,1.743,0,0,1-1.741,1.741H27.7v-.58a5.022,5.022,0,0,0-3.809-4.888l-.936-.234-.134-.535a2.9,2.9,0,0,0,1.338-1.889h.059a2.324,2.324,0,0,0,2.322-2.322,2.291,2.291,0,0,0-.161-.834,2.836,2.836,0,0,0-1.6-3.568A2.906,2.906,0,0,0,21.9,6.8a2.814,2.814,0,0,0-1.161.251A2.814,2.814,0,0,0,19.574,6.8a2.906,2.906,0,0,0-2.882,2.563,2.836,2.836,0,0,0-1.6,3.568,2.291,2.291,0,0,0-.161.834,2.324,2.324,0,0,0,2.322,2.322h.059a2.9,2.9,0,0,0,1.338,1.888l-.134.535-.929.231a4.989,4.989,0,0,0-1.8.858,1.744,1.744,0,0,0-1.439,1.712v.972a2.892,2.892,0,0,1-.744,1.93h-3.9a1.743,1.743,0,0,1-1.741-1.741V7.385A1.743,1.743,0,0,1,9.706,5.643H27.7a4.626,4.626,0,0,0,5.8,4.491ZM32.343,9.126a3.483,3.483,0,1,1,3.483-3.483A3.486,3.486,0,0,1,32.343,9.126Z" transform="translate(-1 -1)" fill="#ffb216"/>
      <path id="Path_29674" data-name="Path 29674" d="M51.864,8.785l-.75-.75-.821.821,1.571,1.571,3.313-3.313-.821-.821Z" transform="translate(-21.682 -3.221)" fill="#ffb216"/>
      <path id="Path_29675" data-name="Path 29675" d="M15,14.483h4.643V11H15Zm1.161-2.322h2.322v1.161H16.161Z" transform="translate(-6.874 -5.196)" fill="#ffb216"/>
      <rect id="Rectangle_302" data-name="Rectangle 302" width="5" height="2" transform="translate(8 10)" fill="#ffb216"/>
      <rect id="Rectangle_303" data-name="Rectangle 303" width="5" height="1" transform="translate(8 15)" fill="#ffb216"/>
      <rect id="Rectangle_304" data-name="Rectangle 304" width="1" height="1" transform="translate(12 13)" fill="#ffb216"/>
      <rect id="Rectangle_305" data-name="Rectangle 305" width="2" height="1" transform="translate(8 13)" fill="#ffb216"/>
      <path id="Path_29676" data-name="Path 29676" d="M17.322,31a2.322,2.322,0,1,0,2.322,2.322A2.324,2.324,0,0,0,17.322,31Zm0,3.483a1.161,1.161,0,1,1,1.161-1.161A1.162,1.162,0,0,1,17.322,34.483Z" transform="translate(-6.874 -13.587)" fill="#ffb216"/>
    </g>
  </g>
</svg>
