<svg xmlns="http://www.w3.org/2000/svg" width="36" height="36.009" viewBox="0 0 36 36.009">
  <g id="noun-hospitality-6546093" transform="translate(-30 -29.95)">
    <path id="Path_29663" data-name="Path 29663" d="M56.064,63.119h4.624a1.972,1.972,0,0,1,3.457-.147,1.967,1.967,0,0,0,1.219-1.81v-13a1.964,1.964,0,0,0-1.958-1.958H53.346a1.965,1.965,0,0,0-1.958,1.958v13a1.967,1.967,0,0,0,1.219,1.81,1.973,1.973,0,0,1,3.457.147Zm-6.143.8a.318.318,0,0,1,0,.636h-8.2a.318.318,0,0,1,0-.636Zm-9.6,0a.318.318,0,0,1,0,.636h-.8a.318.318,0,0,1,0-.636Zm21.941-19.9v1.549h1.142A2.6,2.6,0,0,1,66,48.165v13a2.6,2.6,0,0,1-1.618,2.4,1.972,1.972,0,1,1-3.884.192H56.254a1.972,1.972,0,1,1-3.884-.192,2.619,2.619,0,0,1-1.461-1.51H30.319A.32.32,0,0,1,30,61.732V59.244a.319.319,0,0,1,.319-.319h2.971v-1.7a4.56,4.56,0,0,1,.937-8.918V31.662a1.717,1.717,0,0,1,1.712-1.712H54.619a1.717,1.717,0,0,1,1.712,1.712v8.527A4.122,4.122,0,0,1,62.587,43.7a.319.319,0,0,1-.323.318Zm-.636,1.549V44.022h-.409v1.549Zm-1.048,0V44.022a.319.319,0,0,1-.357-.319,1.755,1.755,0,0,0-3.511,0c0,.23-.178.319-.382.319v1.549Zm-5.294-1.549v1.549h.409V44.022Zm-.636,1.549V44.022a.317.317,0,0,1-.3-.319,4.1,4.1,0,0,1,1.344-3.037v-9a1.08,1.08,0,0,0-1.074-1.074H35.939a1.08,1.08,0,0,0-1.074,1.074V48.306a4.561,4.561,0,0,1,1.016,8.925v1.7h4.444V50.195a.32.32,0,0,1,.319-.32h9.275a.32.32,0,0,1,.319.32v8.731h.517v-10.7H49.343a.319.319,0,0,1-.319-.319V44.4a.319.319,0,0,1,.319-.319H53.42a.319.319,0,0,1,.319.319v1.172ZM54.062,48.5a.318.318,0,0,1,.636,0V60.827a.318.318,0,0,1-.636,0Zm2.663,0a.318.318,0,0,1,.636,0V60.827a.318.318,0,0,1-.636,0Zm2.664,0a.318.318,0,0,1,.636,0V60.827a.318.318,0,0,1-.636,0Zm2.664,0a.318.318,0,0,1,.636,0V60.827a.318.318,0,0,1-.636,0Zm-1.215-5.114h1.1a3.481,3.481,0,0,0-6.933,0h1.1a2.393,2.393,0,0,1,4.743,0Zm-5.6,19.658a1.334,1.334,0,1,0,0,1.885,1.336,1.336,0,0,0,0-1.885Zm8.16,0a1.334,1.334,0,1,0,0,1.885,1.336,1.336,0,0,0,0-1.885Zm-12.635-1.63a2.413,2.413,0,0,1-.014-.252v-1.6H30.637v1.851Zm.052-13.828a2.6,2.6,0,0,1,2.285-2v-.865H49.661v2.867ZM35.241,58.926V54.679a.657.657,0,0,0-1.314,0v4.247Zm.639-4.247v1.883a3.923,3.923,0,1,0-2.589,0V54.679a1.3,1.3,0,0,1,2.589,0ZM45.6,50.513v8.412h4V50.513Zm-.637,8.412V50.513h-4v8.412Zm1.314-4.888a.319.319,0,0,1,.639,0V55.4a.319.319,0,0,1-.639,0Zm-2.63,0a.318.318,0,0,1,.636,0V55.4a.318.318,0,0,1-.636,0Zm-6.507-9.957h4.077a.318.318,0,0,1,.319.319v3.5a.318.318,0,0,1-.319.319H37.137a.319.319,0,0,1-.319-.319V44.4a.319.319,0,0,1,.319-.319Zm3.759.637H37.456v2.867H40.9Zm2.343-.637h4.077a.319.319,0,0,1,.319.319v3.5a.319.319,0,0,1-.319.319H43.24a.319.319,0,0,1-.319-.319V44.4a.319.319,0,0,1,.319-.319ZM47,44.718H43.558v2.867H47Zm-9.862-6.432h4.077a.32.32,0,0,1,.319.321v3.5a.318.318,0,0,1-.319.319H37.137a.319.319,0,0,1-.319-.319v-3.5a.32.32,0,0,1,.319-.321Zm3.759.639H37.456v2.867H40.9Zm2.343-.639h4.077a.32.32,0,0,1,.319.321v3.5a.319.319,0,0,1-.319.319H43.24a.319.319,0,0,1-.319-.319v-3.5a.32.32,0,0,1,.319-.321ZM47,38.925H43.558v2.867H47Zm2.343-.639H53.42a.32.32,0,0,1,.319.321v3.5a.318.318,0,0,1-.319.319H49.342a.319.319,0,0,1-.319-.319v-3.5a.321.321,0,0,1,.319-.321Zm3.759.639H49.661v2.867H53.1ZM37.137,32.492h4.077a.319.319,0,0,1,.319.319v3.5a.321.321,0,0,1-.319.321H37.137a.32.32,0,0,1-.319-.321v-3.5a.319.319,0,0,1,.319-.319Zm3.759.636H37.456V36H40.9Zm2.343-.636h4.077a.319.319,0,0,1,.319.319v3.5a.321.321,0,0,1-.319.321H43.24a.32.32,0,0,1-.319-.321v-3.5a.319.319,0,0,1,.319-.319ZM47,33.129H43.558V36H47Zm2.343-.636H53.42a.318.318,0,0,1,.319.319v3.5a.321.321,0,0,1-.319.321H49.342a.32.32,0,0,1-.319-.321v-3.5a.319.319,0,0,1,.319-.319Zm3.759.636H49.661V36H53.1Z" transform="translate(0 0)" fill="#ffb216"/>
  </g>
</svg>
