<svg xmlns="http://www.w3.org/2000/svg" width="30.185" height="36" viewBox="0 0 30.185 36">
  <g id="noun-insurance-6740724" transform="translate(-9.386 -1.563)">
    <path id="Path_29664" data-name="Path 29664" d="M39.168,15.251a.489.489,0,0,0-.449-.386,4.249,4.249,0,0,1-3.128-1.8h0a.488.488,0,0,0-.363-.161h-.173V8.687a1.943,1.943,0,0,0-1.939-1.939H29.5v-.9a1.4,1.4,0,0,0-1.4-1.4H25.563a3.377,3.377,0,0,0-6.683,0H16.338a1.4,1.4,0,0,0-1.4,1.4v.9H11.326A1.943,1.943,0,0,0,9.386,8.689V35.623a1.943,1.943,0,0,0,1.939,1.939H33.115a1.943,1.943,0,0,0,1.939-1.939V26.19a7.4,7.4,0,0,0,3.9-4,11.9,11.9,0,0,0,.212-6.942Zm-5.1-6.564v4.22H32.8V9.536a.49.49,0,0,0-.491-.489H30.153V7.73h2.961a.96.96,0,0,1,.958.957ZM27.7,15.251a16.363,16.363,0,0,0-.4,3.34H14.45a.49.49,0,0,0,0,.98H27.33a9.722,9.722,0,0,0,.173,1.247H22.846a.491.491,0,1,0,0,.981h4.919c.045.134.091.264.144.393.075.187.157.37.245.547h-8.2a.49.49,0,0,0,0,.98h8.791a6.883,6.883,0,0,0,.719.845H22.846a.491.491,0,1,0,0,.981h7.145a.488.488,0,0,0,.39-.2,8.751,8.751,0,0,0,1.433.84v8.094H12.627V10.027h1.668a1.4,1.4,0,0,0,1.392,1.263h4.3a.487.487,0,0,0,.379-.18,2.4,2.4,0,0,1,3.707,0,.491.491,0,0,0,.379.18h4.3a1.4,1.4,0,0,0,1.392-1.263h1.668v2.88H31.64a.488.488,0,0,0-.363.161,4.243,4.243,0,0,1-3.128,1.8.491.491,0,0,0-.45.386ZM15.92,5.847a.418.418,0,0,1,.418-.418h2.995a.49.49,0,0,0,.491-.491,2.4,2.4,0,1,1,4.793,0,.49.49,0,0,0,.491.491H28.1a.418.418,0,0,1,.418.418v.9H21.127a.491.491,0,0,0,0,.981h8.045V9.893h0a.418.418,0,0,1-.418.418H24.672a3.376,3.376,0,0,0-4.906,0H15.686a.418.418,0,0,1-.418-.418V7.729h2.25a.491.491,0,0,0,0-.981h-1.6ZM34.076,35.623h0a.96.96,0,0,1-.958.96H11.326a.96.96,0,0,1-.958-.96V8.687a.959.959,0,0,1,.958-.958h2.961V9.045H12.136a.491.491,0,0,0-.489.492V34.775a.485.485,0,0,0,.144.347.49.49,0,0,0,.345.144H32.3a.49.49,0,0,0,.345-.144.485.485,0,0,0,.144-.347V26.6c.161.058.327.113.495.164a.5.5,0,0,0,.29,0c.168-.052.332-.106.495-.164Zm.331-10.211h0a.472.472,0,0,0-.062.026c-.287.123-.591.235-.907.338-4.323-1.4-5.911-4.661-4.853-9.97a5.112,5.112,0,0,0,3.273-1.922h3.153a5.118,5.118,0,0,0,3.273,1.922c.977,4.89-.293,8.046-3.879,9.605ZM18.5,7.238a.492.492,0,0,1,.491-.489h.357a.491.491,0,0,1,0,.981h-.357a.491.491,0,0,1-.491-.492Zm3.716-.829A1.471,1.471,0,1,0,20.75,4.939,1.469,1.469,0,0,0,22.22,6.409Zm0-1.96a.491.491,0,1,1-.489.489.489.489,0,0,1,.489-.489Zm4.539,12.326a.49.49,0,0,1-.491.491H14.45a.491.491,0,0,1,0-.981H26.269a.491.491,0,0,1,.491.491ZM15.638,14.47a.492.492,0,0,1,.491-.491h6.93a.491.491,0,0,1,0,.981h-6.93a.5.5,0,0,1-.347-.144.491.491,0,0,1-.144-.347Zm-1.68,0h0a.491.491,0,0,1,.489-.491h.361a.491.491,0,1,1,0,.981H14.45a.49.49,0,0,1-.345-.144.485.485,0,0,1-.144-.347Zm5.5,10.585a.491.491,0,0,1,.489-.491h1.491a.491.491,0,0,1,0,.981H19.952a.49.49,0,0,1-.489-.491Zm0-3.747a.491.491,0,0,1,.489-.491h1.491a.491.491,0,0,1,0,.981H19.952a.49.49,0,0,1-.489-.491Zm-3.995,1.412a.49.49,0,1,1,.692-.694l.382.382,1.321-1.321h0a.491.491,0,0,1,.694.694L16.891,23.45a.489.489,0,0,1-.692,0Zm0,3.747a.49.49,0,0,1,.692-.694l.382.382,1.321-1.321h0a.49.49,0,1,1,.694.692L16.891,27.2a.489.489,0,0,1-.692,0Zm3.995.51h0a.489.489,0,0,1,.489-.489H29.991a.49.49,0,0,1,0,.98H19.952a.491.491,0,0,1-.489-.491Zm-3.995,3.237a.49.49,0,0,1,.692-.694l.382.382,1.322-1.321a.491.491,0,1,1,.694.694l-1.668,1.668a.489.489,0,0,1-.692,0ZM19.463,28.8a.488.488,0,0,1,.489-.491h1.491a.49.49,0,0,1,0,.98H19.952a.489.489,0,0,1-.489-.489Zm11.017,0a.49.49,0,0,1-.489.491H22.846a.491.491,0,1,1,0-.981h7.145a.49.49,0,0,1,.488.491ZM19.463,30.722h0a.49.49,0,0,1,.489-.491H29.991a.49.49,0,0,1,0,.98H19.952a.491.491,0,0,1-.489-.489Zm13.97-14.61a3.5,3.5,0,1,0,3.494,3.5,3.493,3.493,0,0,0-3.494-3.5Zm0,6.008h0a2.514,2.514,0,1,1,2.516-2.514,2.513,2.513,0,0,1-2.516,2.514ZM34.951,18.6h0a.491.491,0,0,1,.144.347.5.5,0,0,1-.144.347l-1.527,1.527a.493.493,0,0,1-.694,0L31.7,19.8A.491.491,0,0,1,32.4,19.1l.681.681,1.18-1.18a.491.491,0,0,1,.347-.144.5.5,0,0,1,.347.144Z" fill="#ffb216"/>
  </g>
</svg>
