<svg width="84" height="84" viewBox="0 0 84 84" fill="none" xmlns="http://www.w3.org/2000/svg">
<path fill-rule="evenodd" clip-rule="evenodd" d="M63.2954 26.3774H74.2075C76.2375 26.3774 78.0838 27.2078 79.4208 28.5448C80.7569 29.8818 81.5881 31.728 81.5881 33.758V66.1803C81.5881 68.2094 80.7578 70.0556 79.4208 71.3926C78.0838 72.7296 76.2375 73.56 74.2075 73.56H9.79176C7.76176 73.56 5.91551 72.7305 4.57938 71.3926C3.24151 70.0556 2.41113 68.2094 2.41113 66.1803V33.758C2.41113 31.728 3.24063 29.8818 4.57938 28.5448C5.91551 27.2086 7.76176 26.3774 9.79176 26.3774H20.7039V13.808C20.7039 12.9934 21.0478 12.2549 21.6016 11.7194C22.1476 11.1918 22.8975 10.8645 23.7209 10.8645H32.5549V9.79963C32.5549 9.35338 32.9163 8.992 33.3625 8.992H36.6044V7.74512C36.6044 7.29887 36.9658 6.9375 37.4129 6.9375H46.5864C47.0326 6.9375 47.394 7.29887 47.394 7.74512V8.99375H50.6359C51.0821 8.99375 51.4444 9.35513 51.4444 9.80138V10.8663H60.2775C61.1009 10.8663 61.8516 11.1935 62.3968 11.7211C62.9515 12.2558 63.2954 12.9951 63.2954 13.8098V26.3774ZM58.5336 59.8846L61.9575 62.8666C62.2935 63.1598 62.8036 63.1248 63.0968 62.7879C63.1283 62.752 63.1554 62.7135 63.1799 62.6741L68.4553 54.9811C68.7055 54.6128 68.6119 54.1114 68.2435 53.8603C67.876 53.61 67.3746 53.7045 67.1235 54.072L62.3355 61.0536L59.5933 58.6657C59.2573 58.3726 58.7471 58.4085 58.454 58.7445C58.1618 59.0823 58.1968 59.5924 58.5336 59.8846ZM63.6585 48.4186C66.6878 48.4186 69.43 49.6463 71.4154 51.6316C73.4008 53.617 74.6284 56.3584 74.6284 59.3876C74.6284 62.4169 73.4008 65.1591 71.4154 67.1436C69.4291 69.129 66.6878 70.3566 63.6585 70.3566C60.6293 70.3566 57.887 69.129 55.9025 67.1436C55.332 66.5731 54.8245 65.9388 54.3896 65.2545H23.7209C22.8984 65.2545 22.1476 64.9272 21.6016 64.4005C21.0469 63.865 20.7039 63.1256 20.7039 62.3119V27.9935H9.79176C8.20713 27.9935 6.76601 28.6419 5.72126 29.6875C4.67651 30.7331 4.02726 32.1743 4.02726 33.758V66.1803C4.02726 67.7649 4.67563 69.2051 5.72126 70.2499C6.76688 71.2946 8.20801 71.9439 9.79176 71.9439H74.2066C75.7913 71.9439 77.2315 71.2955 78.2771 70.2499C79.321 69.2051 79.9711 67.764 79.9711 66.1803V33.758C79.9711 32.1734 79.3219 30.7323 78.2771 29.6875C77.2315 28.6428 75.7904 27.9935 74.2066 27.9935H63.2954V48.4248C63.4161 48.4204 63.5369 48.4186 63.6585 48.4186ZM53.5435 63.6384C52.9931 62.3311 52.6886 60.8944 52.6886 59.3876C52.6886 57.8363 53.0106 56.3601 53.5916 55.0223H35.5736C35.1274 55.0223 34.7651 54.6609 34.7651 54.2146C34.7651 53.7684 35.1274 53.4061 35.5736 53.4061H54.4623C54.8805 52.7656 55.3635 52.1706 55.9025 51.6316C57.4451 50.089 59.4436 49.004 61.6801 48.5971V27.1859V13.808C61.6801 13.4475 61.5261 13.1194 61.2803 12.8805C61.0248 12.6338 60.6704 12.4806 60.2775 12.4806H51.4444V15.1721C51.4444 15.6184 51.0821 15.9806 50.6359 15.9806H33.3625C32.9163 15.9806 32.5549 15.6184 32.5549 15.1721V12.4806H23.7209C23.3289 12.4806 22.9736 12.6338 22.7181 12.8805C22.4723 13.1185 22.3191 13.4466 22.3191 13.808V27.1859V62.3128C22.3191 62.6733 22.4723 63.0014 22.7181 63.2394C22.9736 63.4861 23.328 63.6393 23.7209 63.6393L53.5435 63.6384ZM70.2726 52.7735C68.5804 51.0804 66.2424 50.0339 63.6585 50.0339C61.0764 50.0339 58.7375 51.0804 57.0444 52.7735C56.4896 53.3283 56.004 53.953 55.6015 54.6329C54.7781 56.0259 54.3056 57.6516 54.3056 59.3876C54.3056 61.0816 54.7563 62.6706 55.5438 64.0409L55.5473 64.047C55.9603 64.7628 56.4643 65.4199 57.0453 66.0009C58.7384 67.694 61.0755 68.7405 63.6594 68.7405C66.2433 68.7405 68.5813 67.694 70.2735 66.0009C71.9675 64.3078 73.014 61.9706 73.014 59.3868C73.014 56.8029 71.9658 54.4658 70.2726 52.7735ZM35.5736 52.4804H52.6659C53.113 52.4804 53.4744 52.119 53.4744 51.6728C53.4744 51.2265 53.113 50.8643 52.6659 50.8643H35.5736C35.1274 50.8643 34.7651 51.2265 34.7651 51.6728C34.7651 52.119 35.1274 52.4804 35.5736 52.4804ZM27.8185 49.7583C27.3723 49.7583 27.0109 50.1196 27.0109 50.5659V55.3215C27.0109 55.7678 27.3723 56.1291 27.8185 56.1291H32.5741C33.0204 56.1291 33.3818 55.7678 33.3818 55.3215V50.5659C33.3818 50.1196 33.0204 49.7583 32.5741 49.7583H27.8185ZM31.7656 51.3744H28.627V54.513H31.7656V51.3744ZM35.5736 45.7368H56.1799C56.6261 45.7368 56.9884 45.3754 56.9884 44.9291C56.9884 44.4829 56.6261 44.1206 56.1799 44.1206H35.5736C35.1274 44.1206 34.7651 44.4829 34.7651 44.9291C34.7651 45.3754 35.1274 45.7368 35.5736 45.7368ZM35.5736 43.1949H52.6659C53.113 43.1949 53.4744 42.8335 53.4744 42.3873C53.4744 41.9401 53.113 41.5788 52.6659 41.5788H35.5736C35.1274 41.5788 34.7651 41.9401 34.7651 42.3873C34.7651 42.8335 35.1274 43.1949 35.5736 43.1949ZM27.8185 40.4736C27.3723 40.4736 27.0109 40.835 27.0109 41.2813V46.036C27.0109 46.4831 27.3723 46.8445 27.8185 46.8445H32.5741C33.0204 46.8445 33.3818 46.4831 33.3818 46.036V41.2813C33.3818 40.835 33.0204 40.4736 32.5741 40.4736H27.8185ZM31.7656 42.0889H28.627V45.2284H31.7656V42.0889ZM35.5736 36.4521H56.1799C56.6261 36.4521 56.9884 36.0908 56.9884 35.6445C56.9884 35.1982 56.6261 34.836 56.1799 34.836H35.5736C35.1274 34.836 34.7651 35.1982 34.7651 35.6445C34.7651 36.0908 35.1274 36.4521 35.5736 36.4521ZM35.5736 33.9103H52.6659C53.113 33.9103 53.4744 33.5489 53.4744 33.1026C53.4744 32.6564 53.113 32.2941 52.6659 32.2941H35.5736C35.1274 32.2941 34.7651 32.6564 34.7651 33.1026C34.7651 33.5489 35.1274 33.9103 35.5736 33.9103ZM35.5736 27.1675H56.1799C56.6261 27.1675 56.9884 26.8061 56.9884 26.3599C56.9884 25.9136 56.6261 25.5514 56.1799 25.5514H35.5736C35.1274 25.5514 34.7651 25.9136 34.7651 26.3599C34.7651 26.8061 35.1274 27.1675 35.5736 27.1675ZM35.5736 24.6256H52.6659C53.113 24.6256 53.4744 24.2643 53.4744 23.818C53.4744 23.3709 53.113 23.0095 52.6659 23.0095H35.5736C35.1274 23.0095 34.7651 23.3709 34.7651 23.818C34.7651 24.2634 35.1274 24.6256 35.5736 24.6256ZM27.8185 31.1881C27.3723 31.1881 27.0109 31.5504 27.0109 31.9966V36.7523C27.0109 37.1985 27.3723 37.5599 27.8185 37.5599H32.5741C33.0204 37.5599 33.3818 37.1985 33.3818 36.7523V31.9966C33.3818 31.5504 33.0204 31.1881 32.5741 31.1881H27.8185ZM31.7656 32.8043H28.627V35.9429H31.7656V32.8043ZM27.8185 21.9026C27.3723 21.9026 27.0109 22.2649 27.0109 22.7111V27.4659C27.0109 27.913 27.3723 28.2744 27.8185 28.2744H32.5741C33.0204 28.2744 33.3818 27.913 33.3818 27.4659V22.7111C33.3818 22.2649 33.0204 21.9026 32.5741 21.9026H27.8185ZM31.7656 23.5187H28.627V26.6583H31.7656V23.5187ZM34.171 11.6704V11.6739V11.6774V14.3654H49.8291V11.6739V11.4324V10.6099H46.5873C46.141 10.6099 45.7788 10.2476 45.7788 9.80138V8.55275H38.2205V9.8005C38.2205 10.2468 37.8591 10.609 37.4129 10.609H34.171V11.6704ZM18.5076 77.935C18.0614 77.935 17.6991 77.5736 17.6991 77.1265C17.6991 76.6803 18.0614 76.3189 18.5076 76.3189H65.4899C65.937 76.3189 66.2984 76.6803 66.2984 77.1265C66.2984 77.5736 65.937 77.935 65.4899 77.935H18.5076Z" fill="#FFB216"/>
</svg>
