<svg width="84" height="84" viewBox="0 0 84 84" fill="none" xmlns="http://www.w3.org/2000/svg">
<path d="M45.3326 50.9116V53.7466C45.3326 54.2187 45.7081 54.6017 46.1726 54.6017C46.6371 54.6017 47.0126 54.2187 47.0126 53.7466V50.9116H48.9975C50.255 50.9116 51.279 49.8692 51.279 48.5882V46.5713H54.0627C54.5272 46.5713 54.9027 46.1883 54.9027 45.7162C54.9027 45.2441 54.5272 44.8611 54.0627 44.8611H51.279V42.9325H54.0627C54.5272 42.9325 54.9027 42.5494 54.9027 42.0773C54.9027 41.6052 54.5272 41.2222 54.0627 41.2222H51.279V39.2944H54.0627C54.5272 39.2944 54.9027 38.9114 54.9027 38.4393C54.9027 37.9672 54.5272 37.5842 54.0627 37.5842H51.279V35.6698C51.279 34.3888 50.255 33.3464 48.9975 33.3464H47.0126V30.5114C47.0126 30.0393 46.6371 29.6562 46.1726 29.6562C45.7081 29.6562 45.3326 30.0393 45.3326 30.5114V33.3472H43.4384V30.5122C43.4384 30.0401 43.0629 29.6571 42.5984 29.6571C42.1339 29.6571 41.7584 30.0401 41.7584 30.5122V33.3472H39.865V30.5122C39.865 30.0401 39.4896 29.6571 39.025 29.6571C38.5605 29.6571 38.185 30.0401 38.185 30.5122V33.3472H36.201C34.9426 33.3472 33.9187 34.3896 33.9187 35.6707V38.0529H31.1349C30.6704 38.0529 30.2949 38.4359 30.2949 38.908C30.2949 39.3801 30.6704 39.7631 31.1349 39.7631H33.9187V41.6901H31.1349C30.6704 41.6901 30.2949 42.0731 30.2949 42.5452C30.2949 43.0173 30.6704 43.4003 31.1349 43.4003H33.9187V45.329H31.1349C30.6704 45.329 30.2949 45.712 30.2949 46.1841C30.2949 46.6562 30.6704 47.0392 31.1349 47.0392H33.9187V48.5873C33.9187 49.8683 34.9426 50.9108 36.201 50.9108H38.185V53.7458C38.185 54.2179 38.5605 54.6009 39.025 54.6009C39.4896 54.6009 39.865 54.2179 39.865 53.7458V50.9116H41.7584V53.7466C41.7584 54.2187 42.1339 54.6017 42.5984 54.6017C43.0629 54.6017 43.4384 54.2187 43.4384 53.7466V50.9116H45.3326ZM35.5987 48.5882V35.6698C35.5987 35.3321 35.8683 35.0566 36.201 35.0566H48.9975C49.3293 35.0566 49.599 35.3321 49.599 35.6698V48.5882C49.599 48.9259 49.3293 49.2014 48.9975 49.2014H36.201C35.8683 49.2014 35.5987 48.9267 35.5987 48.5882Z" fill="#FFB216"/>
<path d="M48.2393 47.1051V37.3317C48.2393 36.8596 47.8639 36.4766 47.3993 36.4766H37.799C37.3345 36.4766 36.959 36.8596 36.959 37.3317V47.1051C36.959 47.5772 37.3345 47.9602 37.799 47.9602H47.3993C47.863 47.9602 48.2393 47.5772 48.2393 47.1051ZM46.5593 46.2491H38.639V38.186H46.5593V46.2491Z" fill="#FFB216"/>
<path d="M76.1464 54.4994L76.1388 43.9557C76.1388 43.4837 75.7625 43.1015 75.2988 43.1015H70.5646C70.6436 42.6512 70.6872 42.1875 70.6872 41.7138C70.6872 41.6743 70.683 41.6348 70.6822 41.5953C70.6822 41.5869 70.6872 41.5794 70.6872 41.5701C70.6872 38.4546 68.8485 35.7867 66.2537 34.6905C65.8362 34.5041 65.4003 34.3537 64.9467 34.2529C66.1311 32.8761 66.8006 31.0836 66.8006 29.1591C66.8006 28.6459 66.7502 28.1444 66.6578 27.6589H71.9733C72.4378 27.6589 72.8133 27.2759 72.8133 26.8038V15.258C74.2161 14.8808 75.2627 13.5914 75.2694 12.0467C75.2762 10.2029 73.807 8.6959 71.9842 8.6875C70.179 8.6875 68.7032 10.1827 68.6956 12.0215C68.6897 13.5696 69.7288 14.8674 71.1333 15.2529V25.9478H66.1176C65.244 23.9789 63.6002 22.4652 61.59 21.8436L61.58 15.3857C62.9836 15.0085 64.0302 13.7191 64.037 12.1752C64.0437 10.3305 62.5745 8.82274 60.7509 8.81518C58.9449 8.81518 57.4707 10.3112 57.464 12.1491C57.4598 13.0429 57.7983 13.8846 58.4165 14.5179C58.8323 14.9447 59.3447 15.2303 59.9008 15.3806L59.9109 21.5487C59.7899 21.5429 59.6715 21.5294 59.5488 21.5294C59.1095 21.5294 58.6702 21.5773 58.2368 21.663C57.9806 17.8158 54.9305 14.7649 51.2093 14.7649C51.1892 14.7649 51.1707 14.7758 51.1514 14.7767C51.0707 14.7741 50.9926 14.7649 50.912 14.7649C47.048 14.7649 43.6594 18.5625 43.6594 22.8919V27.6077C43.6594 28.0797 44.0349 28.4628 44.4994 28.4628C44.9639 28.4628 45.3394 28.0797 45.3394 27.6077V22.8919C45.3394 19.4731 47.9434 16.4751 50.912 16.4751C53.9847 16.4751 56.4854 19.1295 56.4854 22.3921C56.4854 22.487 56.4778 22.5803 56.4719 22.6727L56.4652 22.7617C56.4576 22.8709 56.4778 22.9759 56.5097 23.0767C56.104 25.7975 53.8847 27.8874 51.2093 27.8874C50.7448 27.8874 50.3693 28.2704 50.3693 28.7425C50.3693 29.2146 50.7448 29.5976 51.2093 29.5976C54.6844 29.5976 57.5732 26.939 58.1511 23.4564C58.6139 23.327 59.0801 23.2388 59.5497 23.2388C62.6216 23.2388 65.1214 25.8941 65.1214 29.1566C65.1214 31.2625 64.0974 33.1643 62.3822 34.2428C62.3645 34.2537 62.3536 34.2714 62.3368 34.284C59.0658 34.9274 56.582 37.9455 56.582 41.5676C56.582 42.0397 56.9574 42.4227 57.422 42.4227C57.8865 42.4227 58.262 42.0397 58.262 41.5676C58.262 38.4218 60.6719 35.8623 63.6346 35.8623C64.3427 35.8623 65.0172 36.0119 65.6355 36.2773C67.6162 37.1862 69.0072 39.2795 69.0072 41.7121C69.0072 44.9738 66.5074 47.6282 63.4347 47.6282C63.286 47.6282 63.1398 47.6173 62.9954 47.6047C62.6157 47.5635 62.2528 47.8071 62.1276 48.1801C62.0033 48.5514 62.1436 48.9621 62.4678 49.1755C64.0865 50.2364 65.0618 52.0508 65.1105 54.0509C65.0937 54.1181 65.0702 54.1827 65.0702 54.2558C65.0702 57.4033 62.6594 59.9628 59.6967 59.9628C56.7348 59.9628 54.3249 57.4025 54.3249 54.2558C54.3249 53.7837 53.9494 53.4007 53.4849 53.4007C53.0204 53.4007 52.6449 53.7837 52.6449 54.2558C52.6449 57.027 54.0989 59.4445 56.2451 60.7171C56.2863 60.8565 56.3241 60.9758 56.3577 61.0775C56.4568 61.3841 56.4837 61.4664 56.4837 61.8603C56.4837 65.1229 53.983 67.7781 50.9103 67.7781C47.8376 67.7781 45.3377 65.1229 45.3377 61.8603C45.3377 61.8158 45.3201 61.778 45.3134 61.736C45.3201 61.694 45.3377 61.6562 45.3377 61.6117V57.1093C45.3377 56.6372 44.9622 56.2542 44.4977 56.2542C44.0332 56.2542 43.6577 56.6372 43.6577 57.1093V61.6117C43.6577 61.6562 43.6754 61.694 43.6821 61.736C43.6754 61.778 43.6577 61.8158 43.6577 61.8603C43.6577 65.5152 46.1156 68.5745 49.3823 69.3153V72.1075C49.3823 72.5796 49.7578 72.9626 50.2215 72.9626L63.176 72.971C63.554 74.3957 64.8249 75.4541 66.3402 75.4541H66.3512C68.163 75.4457 69.6322 73.9387 69.6255 72.0941C69.6179 70.2561 68.1429 68.7618 66.326 68.7618C64.8072 68.7685 63.5422 69.8328 63.1718 71.2616L51.0623 71.2532V69.4808C54.991 69.3943 58.1628 66.0133 58.1628 61.8612C58.1628 61.8041 58.162 61.7495 58.1612 61.6974C58.6148 61.7898 59.0784 61.836 59.5472 61.836C63.5456 61.836 66.7989 58.4155 66.7989 54.2096C66.7989 52.3146 66.1437 50.5363 64.9836 49.1637C67.255 48.6413 69.129 46.9949 70.0564 44.8109H74.458L74.4647 54.491C73.0628 54.8682 72.017 56.1567 72.0102 57.7007C72.0035 59.5453 73.4718 61.0531 75.2829 61.0607H75.2955C77.1006 61.0607 78.5765 59.5646 78.5841 57.725C78.5916 56.1819 77.5551 54.8867 76.1464 54.4994ZM70.3756 12.029C70.3798 11.1302 71.1005 10.3986 71.9884 10.3986C72.8746 10.4019 73.5928 11.1395 73.5894 12.0408C73.5852 12.9396 72.8654 13.6704 71.9825 13.6704V13.9955L71.9792 13.9946L71.9766 13.6704C71.0913 13.6662 70.3722 12.9303 70.3756 12.029ZM59.1448 12.1559C59.1482 11.2571 59.8689 10.5254 60.7559 10.5254C61.643 10.5288 62.3612 11.2663 62.3578 12.1685C62.3536 13.0664 61.6329 13.7972 60.7492 13.7972V13.7989C60.7475 13.7989 60.745 13.7981 60.7433 13.7981V13.7972C60.3141 13.7955 59.9117 13.6242 59.6093 13.3142C59.3078 13.0043 59.1431 12.5927 59.1448 12.1559ZM66.3402 70.4712C67.2231 70.4712 67.943 71.2028 67.9472 72.0999C67.9505 73.0021 67.2315 73.7396 66.347 73.743L66.3419 74.5981V73.743C65.4582 73.743 64.7375 73.0113 64.7333 72.1134C64.73 71.2121 65.4482 70.4754 66.3402 70.4712ZM75.298 59.3513V60.2064L75.2921 59.3513C74.4068 59.3479 73.6894 58.6104 73.6928 57.7082C73.697 56.8103 74.416 56.0803 75.3047 56.0803C76.1909 56.0837 76.9091 56.8195 76.9066 57.72C76.9024 58.6196 76.1808 59.3513 75.298 59.3513Z" fill="#FFB216"/>
<path d="M41.4571 56.2295C40.9925 56.2295 40.6171 56.6125 40.6171 57.0846V61.587C40.6171 61.6307 40.6347 61.6693 40.6414 61.7113C40.6347 61.7533 40.6171 61.792 40.6171 61.8356C40.6171 65.0982 38.1172 67.7534 35.0445 67.7534C31.9718 67.7534 29.4711 65.0982 29.4711 61.8356C29.4711 61.4425 29.498 61.3602 29.5971 61.0527C29.6307 60.9511 29.6685 60.8318 29.7097 60.6924C31.8559 59.419 33.3099 57.0023 33.3099 54.2311C33.3099 53.759 32.9344 53.376 32.4699 53.376C32.0054 53.376 31.6299 53.759 31.6299 54.2311C31.6299 57.3786 29.2208 59.9381 26.2581 59.9381C23.2954 59.9381 20.8846 57.3778 20.8846 54.2311C20.8846 54.1589 20.8611 54.0934 20.8443 54.0262C20.8939 52.0261 21.8691 50.2117 23.4869 49.1508C23.812 48.9383 23.9523 48.5275 23.8271 48.1554C23.7028 47.7824 23.3416 47.5439 22.9594 47.58C22.8141 47.5926 22.6679 47.6035 22.5201 47.6035C19.4474 47.6035 16.9475 44.9491 16.9475 41.6874C16.9475 39.2547 18.3377 37.1615 20.3193 36.2526C20.9375 35.988 21.6129 35.8376 22.3202 35.8376C25.2829 35.8376 27.6928 38.3971 27.6928 41.5429C27.6928 42.015 28.0683 42.398 28.5328 42.398C28.9973 42.398 29.3728 42.015 29.3728 41.5429C29.3728 37.9208 26.8881 34.9019 23.618 34.2584C23.6012 34.2467 23.5903 34.229 23.5726 34.2181C21.8573 33.1387 20.8334 31.2378 20.8334 29.1319C20.8334 25.8694 23.3332 23.2141 26.4051 23.2141C26.8747 23.2141 27.3409 23.3023 27.8037 23.4317C28.3816 26.9143 31.2704 29.5729 34.7455 29.5729C35.21 29.5729 35.5855 29.1899 35.5855 28.7178C35.5855 28.2457 35.21 27.8627 34.7455 27.8627C32.0692 27.8627 29.8516 25.7736 29.4451 23.052C29.477 22.9512 29.4971 22.8462 29.4896 22.737L29.4829 22.648C29.477 22.5555 29.4694 22.4623 29.4694 22.3674C29.4694 19.1048 31.9701 16.4504 35.0428 16.4504C38.0114 16.4504 40.6154 19.4484 40.6154 22.8672V27.583C40.6154 28.055 40.9909 28.4381 41.4554 28.4381C41.9199 28.4381 42.2954 28.055 42.2954 27.583V22.8672C42.2954 19.1208 39.7577 15.7784 36.5708 14.9435V11.8153C36.5708 11.3432 36.1953 10.9602 35.7316 10.9602L26.1363 10.9518C25.7583 9.52715 24.4865 8.46875 22.9628 8.46875C21.1509 8.47631 19.6817 9.98327 19.6885 11.8288C19.696 13.6667 21.1711 15.161 22.9754 15.161H22.988C24.5067 15.1543 25.7717 14.09 26.1422 12.6612L34.8916 12.6688V14.7469C34.8631 14.7469 34.8345 14.7503 34.8043 14.7511C34.7841 14.7503 34.7665 14.7394 34.7463 14.7394C31.0243 14.7394 27.9742 17.7902 27.7189 21.6374C27.2846 21.5509 26.8461 21.5039 26.4068 21.5039C22.4084 21.5039 19.1551 24.926 19.1551 29.1319C19.1551 29.3066 19.1668 29.4805 19.1777 29.6527H12.4451V20.1372C13.8496 19.7516 14.8887 18.4538 14.8828 16.9049C14.8753 15.0669 13.3994 13.5718 11.5833 13.5718C9.77141 13.5802 8.30225 15.0871 8.30897 16.9318C8.31569 18.4757 9.36233 19.7659 10.7651 20.1422V30.5087C10.7651 30.9808 11.1406 31.3638 11.6051 31.3638H19.4717C19.7783 32.4256 20.2983 33.4016 21.0081 34.2265C20.5562 34.3273 20.1211 34.4768 19.7044 34.6625C17.108 35.7578 15.2675 38.4265 15.2675 41.5438C15.2675 41.553 15.2726 41.5606 15.2726 41.569C15.2717 41.6084 15.2675 41.6479 15.2675 41.6874C15.2675 41.9511 15.2843 42.2115 15.3095 42.4694H13.5733C13.2364 40.9927 11.9428 39.8831 10.3804 39.8764C8.57525 39.8764 7.09937 41.3716 7.09181 43.212C7.08593 45.0558 8.55593 46.5619 10.367 46.5686H10.3813C11.8613 46.5686 13.1045 45.5564 13.5128 44.1805H15.6691C16.4889 46.6644 18.4923 48.5695 20.9703 49.139C19.8103 50.5116 19.1551 52.2899 19.1551 54.1849C19.1551 58.39 22.4084 61.8113 26.4068 61.8113C26.8763 61.8113 27.3392 61.7651 27.7928 61.6727C27.7919 61.7248 27.7911 61.7785 27.7911 61.8365C27.7911 62.0154 27.8054 62.191 27.8163 62.3665L22.4512 62.3632C22.4403 62.3632 22.4319 62.3573 22.421 62.3573C22.4101 62.3573 22.4017 62.3632 22.3907 62.3632L13.9555 62.3573C13.5775 60.9343 12.3065 59.8776 10.7828 59.8776C8.97173 59.8843 7.50173 61.3896 7.50761 63.2351C7.51517 65.073 8.99105 66.569 10.7962 66.569H10.8088C12.3275 66.5623 13.5909 65.4972 13.9613 64.0675L21.5818 64.0726V68.9992C20.132 69.3427 19.0417 70.6598 19.0349 72.2374C19.0282 74.082 20.4974 75.5898 22.3109 75.5974H22.321C24.127 75.5974 25.6012 74.1013 25.6079 72.2634C25.6121 71.3696 25.2736 70.528 24.6554 69.8946C24.2631 69.4922 23.7835 69.2192 23.2618 69.0605V64.0734L28.112 64.0768C29.0242 67.1923 31.787 69.4637 35.0445 69.4637C39.0437 69.4637 42.2971 66.0415 42.2971 61.8356C42.2971 61.792 42.2794 61.7533 42.2727 61.7113C42.2794 61.6693 42.2971 61.6307 42.2971 61.587V57.0846C42.2971 56.6125 41.9207 56.2295 41.4571 56.2295ZM22.9813 13.4516L22.9754 14.3068V13.4516C22.0925 13.4516 21.3727 12.7208 21.3685 11.8229C21.3651 10.9207 22.0841 10.1832 22.9737 10.1798C23.8574 10.1798 24.5781 10.9115 24.5823 11.8094C24.5865 12.7116 23.8675 13.4483 22.9813 13.4516ZM9.98981 16.925C9.98645 16.0229 10.7055 15.2854 11.5951 15.282C12.4787 15.282 13.1995 16.0136 13.2037 16.9116C13.207 17.8138 12.488 18.5504 11.6026 18.5538C11.6009 18.5538 11.5984 18.5555 11.5967 18.5555V18.5538C10.7139 18.5546 9.99317 17.823 9.98981 16.925ZM10.3813 44.8576V45.7127L10.3737 44.8576C9.48749 44.8542 8.76929 44.1184 8.77181 43.2179C8.77601 42.3182 9.49673 41.5866 10.3863 41.5866C11.2717 41.59 11.989 42.3275 11.9857 43.2296C11.9823 44.1276 11.2624 44.8576 10.3813 44.8576ZM23.9271 72.2567C23.9237 73.1555 23.203 73.8871 22.3202 73.8871V74.7422L22.316 73.8871C21.4289 73.8838 20.7107 73.1462 20.7141 72.2441C20.7183 71.3461 21.439 70.6153 22.3286 70.6153C22.7578 70.617 23.1602 70.7884 23.4626 71.0983C23.7641 71.4083 23.9288 71.819 23.9271 72.2567ZM10.8013 64.858L10.7954 65.7131V64.858C9.91169 64.858 9.19097 64.1255 9.18677 63.2284C9.18425 62.327 9.90329 61.5904 10.7962 61.587C11.6774 61.587 12.3964 62.317 12.4006 63.2141C12.4048 64.1162 11.6866 64.8538 10.8013 64.858Z" fill="#FFB216"/>
</svg>
