<svg width="84" height="84" viewBox="0 0 84 84" fill="none" xmlns="http://www.w3.org/2000/svg">
<path d="M53.5181 46.9178V40.0155C53.5181 38.4447 52.2405 37.1671 50.6697 37.1671H48.8099V33.3493C48.8099 29.6281 45.7825 26.6016 42.0605 26.6016C38.3384 26.6016 35.3103 29.6289 35.3103 33.3493V37.1671H33.4505C31.8805 37.1671 30.6021 38.4447 30.6021 40.0155V46.9178C30.6021 53.1624 35.6824 58.2418 41.9261 58.2418H42.1924C48.4378 58.241 53.5181 53.1615 53.5181 46.9178ZM36.9903 33.3493C36.9903 30.5546 39.265 28.2816 42.0605 28.2816C44.856 28.2816 47.1299 30.5554 47.1299 33.3493V37.1671H36.9903V33.3493ZM32.2829 46.9178V40.0155C32.2829 39.3712 32.8071 38.8471 33.4513 38.8471H50.6705C51.3148 38.8471 51.8389 39.3712 51.8389 40.0155V46.9178C51.8389 52.2358 47.5129 56.5618 42.1949 56.5618H41.9286C36.6089 56.561 32.2829 52.235 32.2829 46.9178Z" fill="#FFB216"/>
<path d="M42.9004 52.3721V48.6778C44.4821 48.2973 45.6648 46.8794 45.6648 45.1826C45.6648 43.1951 44.0478 41.5781 42.0604 41.5781C40.0729 41.5781 38.4551 43.1951 38.4551 45.1826C38.4551 46.8794 39.6386 48.2973 41.2204 48.6778V52.3721C41.2204 52.8358 41.5958 53.2121 42.0604 53.2121C42.5249 53.2121 42.9004 52.8358 42.9004 52.3721ZM40.1351 45.1834C40.1351 44.1225 40.9986 43.259 42.0604 43.259C43.1221 43.259 43.9848 44.1216 43.9848 45.1834C43.9848 46.2452 43.1221 47.1078 42.0604 47.1078C40.9986 47.1078 40.1351 46.2443 40.1351 45.1834Z" fill="#FFB216"/>
<path d="M17.2239 70.7661C16.83 68.7283 15.0357 67.1827 12.8845 67.1827C10.4451 67.1827 8.46021 69.1668 8.46021 71.6061C8.46021 74.0455 10.4443 76.0296 12.8845 76.0296C15.0366 76.0296 16.83 74.484 17.2239 72.4461H26.9746C27.2216 72.4461 27.456 72.3378 27.6164 72.1488L34.9017 63.5413C37.1512 64.3023 39.557 64.7215 42.061 64.7215C44.5642 64.7215 46.97 64.3023 49.2195 63.5413L56.5048 72.1479C56.6644 72.3369 56.8996 72.4453 57.1466 72.4453H66.8973C67.2913 74.4831 69.0855 76.0287 71.2368 76.0287C73.6761 76.0287 75.6619 74.0446 75.6619 71.6053C75.6619 69.1659 73.677 67.1818 71.2368 67.1818C69.0847 67.1818 67.2913 68.7274 66.8973 70.7653H57.5347L50.8836 62.9071C58.5914 59.5908 64.0741 52.0694 64.4302 43.2486H66.8872C67.2493 45.3259 69.0553 46.9143 71.2351 46.9143C73.6744 46.9143 75.6602 44.9302 75.6602 42.4909C75.6602 40.0515 73.6753 38.0674 71.2351 38.0674C69.1124 38.0674 67.3366 39.571 66.9108 41.5677H64.4336C64.1354 32.7771 58.7443 25.2591 51.1204 21.8731L57.7128 14.0838H66.8956C67.2896 16.1216 69.0838 17.6672 71.2351 17.6672C73.6744 17.6672 75.6602 15.6831 75.6602 13.2438C75.6602 10.8044 73.6753 8.82031 71.2359 8.82031C69.0838 8.82031 67.2904 10.3659 66.8965 12.4038H57.323C57.076 12.4038 56.8417 12.5121 56.6812 12.7011L49.4732 21.2179C47.1514 20.4014 44.6575 19.952 42.0602 19.952C39.4621 19.952 36.9681 20.4014 34.6464 21.2187L27.4383 12.7011C27.2787 12.5121 27.0435 12.4038 26.7966 12.4038H17.2239C16.83 10.3659 15.0366 8.82031 12.8845 8.82031C10.4451 8.82031 8.46021 10.8044 8.46021 13.2438C8.46021 15.6831 10.4443 17.6672 12.8845 17.6672C15.0366 17.6672 16.83 16.1216 17.2239 14.0838H26.4068L32.9991 21.8731C25.3761 25.2591 19.9858 32.7771 19.6868 41.5686H17.2088C16.7821 39.5719 15.0072 38.0683 12.8845 38.0683C10.4451 38.0683 8.46021 40.0524 8.46021 42.4917C8.46021 44.9311 10.4443 46.9152 12.8845 46.9152C15.0651 46.9152 16.8711 45.3267 17.2323 43.2494H19.6902C20.0463 52.0702 25.529 59.5916 33.236 62.9079L26.584 70.767L17.2239 70.7661ZM12.8845 74.3487C11.3716 74.3487 10.1402 73.1181 10.1402 71.6053C10.1402 70.0924 11.3716 68.8618 12.8845 68.8618C14.3982 68.8618 15.6296 70.0924 15.6296 71.6053C15.6296 73.1181 14.3982 74.3487 12.8845 74.3487ZM71.2359 68.8627C72.7496 68.8627 73.981 70.0933 73.981 71.6061C73.981 73.119 72.7496 74.3496 71.2359 74.3496C69.7222 74.3496 68.4908 73.119 68.4908 71.6061C68.4908 70.0933 69.7222 68.8627 71.2359 68.8627ZM71.2359 39.7483C72.7496 39.7483 73.981 40.9789 73.981 42.4917C73.981 44.0046 72.7496 45.2352 71.2359 45.2352C69.7222 45.2352 68.4908 44.0046 68.4908 42.4917C68.4908 40.9789 69.7222 39.7483 71.2359 39.7483ZM71.2359 10.5003C72.7496 10.5003 73.981 11.7309 73.981 13.2438C73.981 14.7566 72.7496 15.9872 71.2359 15.9872C69.7222 15.9872 68.4908 14.7566 68.4908 13.2438C68.4908 11.7309 69.7222 10.5003 71.2359 10.5003ZM12.8845 15.9864C11.3716 15.9864 10.1402 14.7558 10.1402 13.2429C10.1402 11.7301 11.3716 10.5003 12.8845 10.5003C14.3982 10.5003 15.6296 11.7309 15.6296 13.2438C15.6296 14.7566 14.3982 15.9864 12.8845 15.9864ZM12.8845 45.2343C11.3716 45.2343 10.1402 44.0037 10.1402 42.4909C10.1402 40.978 11.3716 39.7474 12.8845 39.7474C14.3982 39.7474 15.6296 40.978 15.6296 42.4909C15.6296 44.0037 14.3982 45.2343 12.8845 45.2343ZM21.3475 42.3363C21.3475 30.9199 30.6396 21.632 42.0602 21.632C53.4808 21.632 62.7729 30.9199 62.7729 42.3363C62.7729 53.7528 53.4817 63.0415 42.0602 63.0415C30.6387 63.0415 21.3475 53.7528 21.3475 42.3363Z" fill="#FFB216"/>
</svg>
