<svg width="84" height="84" viewBox="0 0 84 84" fill="none" xmlns="http://www.w3.org/2000/svg">
<path d="M21.2807 65.6048C21.9037 65.6048 22.4086 66.1096 22.4086 66.7326C22.4086 67.3556 21.9037 67.8605 21.2807 67.8605H13.1546C12.5316 67.8605 12.0267 67.3556 12.0267 66.7326C12.0267 66.1096 12.5316 65.6048 13.1546 65.6048H21.2807ZM21.2807 69.8704H13.1546C12.5316 69.8704 12.0267 70.3753 12.0267 70.9983C12.0267 71.6213 12.5316 72.1261 13.1546 72.1261H21.2807C21.9037 72.1261 22.4086 71.6213 22.4086 70.9983C22.4086 70.3753 21.9037 69.8704 21.2807 69.8704ZM21.2807 74.136H13.1546C12.5316 74.136 12.0267 74.6409 12.0267 75.2639C12.0267 75.8869 12.5316 76.3917 13.1546 76.3917H21.2807C21.9037 76.3917 22.4086 75.8869 22.4086 75.2639C22.4086 74.6409 21.9037 74.136 21.2807 74.136ZM38.2583 65.6048C37.6353 65.6048 37.1305 66.1096 37.1305 66.7326C37.1305 67.3556 37.6353 67.8605 38.2583 67.8605H46.3845C47.0075 67.8605 47.5123 67.3556 47.5123 66.7326C47.5123 66.1096 47.0075 65.6048 46.3845 65.6048H38.2583ZM46.3845 69.8704H38.2583C37.6353 69.8704 37.1305 70.3753 37.1305 70.9983C37.1305 71.6213 37.6353 72.1261 38.2583 72.1261H46.3845C47.0075 72.1261 47.5123 71.6213 47.5123 70.9983C47.5123 70.3753 47.0075 69.8704 46.3845 69.8704ZM46.3845 74.136H38.2583C37.6353 74.136 37.1305 74.6409 37.1305 75.2639C37.1305 75.8869 37.6353 76.3917 38.2583 76.3917H46.3845C47.0075 76.3917 47.5123 75.8869 47.5123 75.2639C47.5123 74.6409 47.0075 74.136 46.3845 74.136ZM76.117 57.8916V79.5208C76.117 80.6399 75.207 81.5499 74.0878 81.5499H59.303C58.1838 81.5499 57.2738 80.6399 57.2738 79.5208V61.907C57.2738 61.3575 57.4795 60.8605 57.868 60.472L61.8842 56.4566C62.2727 56.0681 62.7688 55.8625 63.3192 55.8625H67.6172V52.9216H47.6287C47.2892 53.8727 46.5358 54.627 45.5847 54.9656V56.1014H49.8005C50.9196 56.1014 51.8296 57.0114 51.8296 58.1305V79.7596C51.8296 80.8787 50.9196 81.7887 49.8005 81.7887H35.0147C33.8956 81.7887 32.9856 80.8787 32.9856 79.7596V62.1459C32.9856 61.5955 33.1912 61.0994 33.5806 60.7109L37.596 56.6955C37.9845 56.307 38.4806 56.1014 39.031 56.1014H43.329V54.9656C42.3778 54.6261 41.6236 53.8727 41.285 52.9216H20.481V56.1023H24.6967C25.8158 56.1023 26.7258 57.0123 26.7258 58.1314V79.7605C26.7258 80.8796 25.8158 81.7896 24.6967 81.7896H9.91096C8.79184 81.7896 7.88184 80.8796 7.88184 79.7605V62.1467C7.88184 61.5972 8.08746 61.1011 8.47596 60.7126L12.4922 56.6964C12.8807 56.3079 13.3768 56.1023 13.9272 56.1023H18.2252V51.7946C18.2252 51.1716 18.7301 50.6668 19.3531 50.6668H41.2841C41.6236 49.7156 42.377 48.9614 43.329 48.6219V46.7756H42.0226C41.4696 46.7756 40.998 46.374 40.9096 45.828L40.1291 40.9989C38.6232 40.606 37.1882 40.011 35.8442 39.2226L31.877 42.0865C31.4281 42.4103 30.8112 42.3613 30.4192 41.9693L26.977 38.527C26.5858 38.1359 26.536 37.5181 26.8597 37.0693L29.7236 33.102C28.9352 31.758 28.3402 30.3221 27.9473 28.8171L23.1182 28.0366C22.5722 27.9482 22.1706 27.4766 22.1706 26.9236V22.0542C22.1706 21.5004 22.5722 21.0296 23.1182 20.9412L27.9473 20.1616C28.3402 18.6558 28.9352 17.2199 29.7236 15.8767L26.8597 11.9095C26.536 11.4606 26.5858 10.8438 26.977 10.4517L30.4192 7.0095C30.8103 6.61837 31.4281 6.5685 31.877 6.89225L35.8442 9.75612C37.1882 8.96775 38.6241 8.37275 40.1291 7.97988L40.9096 3.15075C40.998 2.60475 41.4696 2.20312 42.0226 2.20312H46.8911C47.4441 2.20312 47.9166 2.60475 48.0041 3.15075L48.7837 7.97988C50.2887 8.37275 51.7246 8.96775 53.0686 9.75612L57.0358 6.89225C57.4847 6.5685 58.1016 6.6175 58.4936 7.0095L61.9358 10.4517C62.327 10.8429 62.3768 11.4606 62.0531 11.9095L59.1892 15.8767C59.9767 17.2207 60.5726 18.6566 60.9655 20.1616L65.7946 20.9412C66.3406 21.0296 66.7422 21.5012 66.7422 22.0542V26.9227C66.7422 27.4757 66.3406 27.9474 65.7946 28.0358L60.9655 28.8162C60.5726 30.3221 59.9776 31.7571 59.1892 33.1011L62.0531 37.0684C62.3768 37.5173 62.327 38.1341 61.9358 38.5261L58.4936 41.9684C58.1025 42.3595 57.4847 42.4094 57.0358 42.0856L53.0686 39.2218C51.7237 40.0101 50.2887 40.6051 48.7837 40.998L48.0041 45.8271C47.9157 46.3731 47.4441 46.7748 46.8911 46.7748H45.5847V48.621C46.5358 48.9605 47.2901 49.7139 47.6296 50.6659H68.746C69.369 50.6659 69.8738 51.1708 69.8738 51.7938V55.8625H74.0896C75.207 55.8625 76.117 56.7725 76.117 57.8916ZM42.9825 44.519H45.9303L46.6776 39.8946C46.752 39.4352 47.1011 39.0686 47.5561 38.9715C49.321 38.5961 50.9861 37.9058 52.5051 36.9205C52.8953 36.6676 53.4011 36.6799 53.7791 36.952L57.5783 39.6943L59.6626 37.61L56.9195 33.8108C56.6473 33.4336 56.6342 32.927 56.888 32.5368C57.8723 31.0195 58.5627 29.3544 58.939 27.5886C59.0361 27.1336 59.4027 26.7845 59.8621 26.7101L64.4873 25.9629V23.015L59.8621 22.2677C59.4027 22.1934 59.0361 21.8451 58.939 21.3892C58.5627 19.6235 57.8732 17.9584 56.888 16.4411C56.6342 16.0509 56.6473 15.5443 56.9195 15.1671L59.6626 11.3679L57.5783 9.28363L53.7791 12.0259C53.402 12.298 52.8953 12.3111 52.5051 12.0574C50.987 11.0721 49.3218 10.3826 47.5561 10.0064C47.1011 9.90925 46.752 9.54262 46.6776 9.08325L45.9303 4.458H42.9825L42.2352 9.08238C42.1608 9.54175 41.8117 9.90837 41.3567 10.0055C39.5918 10.3809 37.9267 11.0713 36.4086 12.0565C36.0183 12.3103 35.5117 12.2971 35.1346 12.025L31.3353 9.28275L29.2511 11.367L31.9942 15.1662C32.2663 15.5434 32.2795 16.05 32.0257 16.4403C31.0413 17.9575 30.351 19.6226 29.9747 21.3884C29.8776 21.8434 29.511 22.1925 29.0516 22.2669L24.4272 23.0141V25.962L29.0516 26.7092C29.511 26.7836 29.8776 27.1327 29.9747 27.5877C30.351 29.3526 31.0405 31.0177 32.0257 32.5368C32.2786 32.927 32.2663 33.4336 31.9942 33.8108L29.2511 37.61L31.3353 39.6943L35.1346 36.952C35.5117 36.6799 36.0183 36.6676 36.4086 36.9205C37.9258 37.9049 39.591 38.5952 41.3567 38.9715C41.8117 39.0686 42.1608 39.4352 42.2352 39.8946L42.9825 44.519ZM11.7327 60.6452H12.4266V59.9514L11.7327 60.6452ZM24.4701 58.3571H14.6815V60.8719C14.6815 61.991 13.7715 62.901 12.6523 62.901H10.1376V79.533H24.4701V58.3571ZM36.8356 60.6452H37.5295V59.9514L36.8356 60.6452ZM49.5738 58.3571H39.7852V60.8719C39.7852 61.991 38.8752 62.901 37.7561 62.901H35.2413V79.533H49.5738V58.3571ZM45.5716 51.7938C45.5716 51.1786 45.0711 50.679 44.4568 50.679C43.8426 50.679 43.3421 51.1795 43.3421 51.7938C43.3421 52.408 43.8426 52.9085 44.4568 52.9085C45.0711 52.9085 45.5716 52.408 45.5716 51.7938ZM61.1238 60.4064H61.8177V59.7125L61.1238 60.4064ZM73.8621 58.1183H64.0735V60.633C64.0735 61.7521 63.1635 62.6621 62.0443 62.6621H59.5296V79.2941H73.8621V58.1183ZM62.5466 65.3659C61.9236 65.3659 61.4187 65.8708 61.4187 66.4938C61.4187 67.1167 61.9236 67.6216 62.5466 67.6216H70.6727C71.2957 67.6216 71.8006 67.1167 71.8006 66.4938C71.8006 65.8708 71.2957 65.3659 70.6727 65.3659H62.5466ZM70.6727 69.6315H62.5466C61.9236 69.6315 61.4187 70.1364 61.4187 70.7594C61.4187 71.3824 61.9236 71.8873 62.5466 71.8873H70.6727C71.2957 71.8873 71.8006 71.3824 71.8006 70.7594C71.8006 70.1364 71.2957 69.6315 70.6727 69.6315ZM70.6727 73.8971H62.5466C61.9236 73.8971 61.4187 74.402 61.4187 75.025C61.4187 75.648 61.9236 76.1529 62.5466 76.1529H70.6727C71.2957 76.1529 71.8006 75.648 71.8006 75.025C71.8006 74.402 71.2957 73.8971 70.6727 73.8971ZM44.456 35.846C38.1936 35.846 33.0985 30.7509 33.0985 24.4885C33.0985 18.2261 38.1936 13.131 44.456 13.131C50.7183 13.131 55.8135 18.2261 55.8135 24.4885C55.8135 30.7509 50.7192 35.846 44.456 35.846ZM47.8825 16.0579L45.926 23.3606H53.486C53.0747 20.0452 50.8741 17.2785 47.8825 16.0579ZM44.456 33.5911C44.8795 33.5911 45.296 33.5596 45.7037 33.5036L43.3666 24.7808C43.3631 24.7694 43.3622 24.7571 43.3596 24.7457C43.3543 24.7239 43.35 24.702 43.3465 24.6801C43.343 24.6591 43.3403 24.6381 43.3377 24.6171C43.3351 24.5952 43.3333 24.5742 43.3316 24.5524C43.3307 24.5314 43.3298 24.5095 43.3298 24.4885C43.3298 24.4675 43.3307 24.4456 43.3316 24.4246C43.3325 24.4028 43.3351 24.3817 43.3377 24.3599C43.3403 24.3389 43.343 24.3179 43.3465 24.2969C43.35 24.275 43.3552 24.2531 43.3596 24.2312C43.3622 24.2199 43.364 24.2076 43.3666 24.1963L45.7037 15.4734C45.2951 15.4174 44.8795 15.3859 44.456 15.3859C39.437 15.3859 35.3533 19.4695 35.3533 24.4885C35.3533 29.5075 39.437 33.5911 44.456 33.5911ZM53.486 25.6164H45.926L47.8825 32.9191C50.8741 31.6985 53.0747 28.9317 53.486 25.6164Z" fill="#FFB216"/>
</svg>
