<svg width="32" height="32" viewBox="0 0 32 32" fill="none" xmlns="http://www.w3.org/2000/svg">
<path d="M29.6598 3.4643L17.0106 0.0748897C16.8214 0.024213 16.6314 0 16.4445 0C15.4808 6.82056e-05 14.5989 0.643178 14.3376 1.61824L13.1968 5.87604H1.81327C1.21061 5.87604 0.721985 6.3646 0.721985 6.96733V28.7931C0.721985 29.3958 1.21061 29.8844 1.81327 29.8844H14.4177L22.0338 31.9251C22.223 31.9758 22.4129 32 22.6 32C23.5637 32 24.4455 31.3568 24.7069 30.3818L31.2032 6.13734C31.5152 4.97307 30.8241 3.77627 29.6598 3.4643ZM1.81327 28.7931V6.96733H18.1826C18.7845 6.96733 19.2739 7.45691 19.2739 8.05862V27.7018C19.2739 28.3035 18.7845 28.7931 18.1826 28.7931H1.81327ZM30.1492 5.8549L23.6529 30.0993C23.525 30.5759 23.0921 30.9088 22.5999 30.9088C22.5051 30.9088 22.4097 30.8961 22.3162 30.871L18.5108 29.8513C19.5591 29.6921 20.3651 28.7948 20.3651 27.7019V19.0504L20.9241 19.2002L21.4891 17.092L20.4349 16.8095L20.3651 17.0703V8.39808C20.7053 8.48927 21.0981 8.59451 21.4788 8.69655L22.7694 12.9159L23.6728 13.158L23.5873 9.26149C24.1806 9.42055 24.7865 9.58281 25.1834 9.68921L25.8849 10.9263L26.4873 11.0876L26.3837 9.36524L27.3346 7.92535L26.7322 7.76397L25.5064 8.48457C25.1092 8.37823 24.5036 8.2159 23.91 8.05685L25.9324 4.72528L25.0289 4.48315L21.8017 7.49197C21.167 7.32193 20.4746 7.13628 20.0995 7.03588C19.7318 6.34878 19.0159 5.87611 18.1825 5.87611H14.3263L15.3914 1.90082C15.5193 1.42427 15.9523 1.09143 16.4444 1.09136C16.5392 1.09136 16.6346 1.10404 16.7281 1.12914L29.3773 4.51855C29.6589 4.59399 29.8942 4.77459 30.0399 5.02702C30.1858 5.27938 30.2246 5.57342 30.1492 5.8549Z" fill="#FFB216"/>
</svg>
