<?xml version="1.0" encoding="utf-8"?>
<!-- Generator: Adobe Illustrator 23.0.5, SVG Export Plug-In . SVG Version: 6.00 Build 0)  -->
<svg version="1.1" id="Layer_1" xmlns="http://www.w3.org/2000/svg" xmlns:xlink="http://www.w3.org/1999/xlink" x="0px" y="0px"
	 width="100px" height="100px" viewBox="0 0 100 100" style="enable-background:new 0 0 100 100;" xml:space="preserve">
<style type="text/css">
	.st0{fill:#262626;}
	.st1{fill:#BFBFBF;}
</style>
<g>
	<rect class="st0" width="100" height="100"/>
	<g>
		<polygon class="st1" points="47.7,51 41.5,65.6 18.6,12.7 31.6,12.7 		"/>
		<polygon class="st1" points="55.4,69.4 50,85.1 44.6,69.4 50,56.6 		"/>
		<polygon class="st1" points="47.7,51 41.5,65.6 18.6,12.7 31.6,12.7 		"/>
		<polygon class="st1" points="55.4,69.4 50,85.1 44.6,69.4 50,56.6 		"/>
		<polygon class="st1" points="50,56.6 55.4,69.4 50,85.1 44.6,69.4 		"/>
		<polygon class="st1" points="81.4,12.7 58.5,65.6 52.3,51 68.4,12.7 		"/>
		<polygon class="st1" points="50,56.6 55.4,69.4 50,85.1 44.6,69.4 		"/>
		<polygon class="st1" points="81.4,12.7 58.5,65.6 52.3,51 68.4,12.7 		"/>
	</g>
</g>
</svg>
