<?xml version="1.0" encoding="UTF-8"?>
<svg width="1200pt" height="1200pt" version="1.1" viewBox="0 0 1200 1200" xmlns="http://www.w3.org/2000/svg">
 <path d="m855.71 629.68h73.312c5.4375 0 9.9844 3.7969 11.156 8.9062l10.969 35.344 3.5625 11.484-0.046875-346.13h-140.06v355.4c2.4844-0.98438 5.0156-1.875 7.5469-2.7656l0.046875-0.046875 0.28125-0.09375 0.046875-0.046875 0.1875-0.046875 0.046875-0.046875 0.28125-0.09375 0.046875-0.046875 0.1875-0.09375h0.046875l0.28125-0.09375 0.046875-0.046875 0.1875-0.09375h0.046875l0.28125-0.09375 0.046875-0.046875 0.1875-0.09375h0.046875l0.28125-0.09375 0.046875-0.046875 0.375-0.14062 0.14062-0.046875 0.046875-0.046875 0.1875-0.09375h0.046875l0.28125-0.09375 0.09375-0.046875 0.51562-0.1875 0.09375-0.046875 0.1875-0.046875v-0.046875l0.1875-0.046875 0.1875-0.09375 0.1875-0.046875 0.1875-0.09375c0.32812-0.09375 0.65625-0.1875 0.98438-0.32812l15.891-51.141c1.3125-4.7344 5.9062-8.5781 11.344-8.5781zm-742.45-251.29c17.531 0 33.516 6.3281 45.891 16.922l152.02-128.58c-6.375-10.641-10.031-23.062-10.031-36.328 0-19.5 7.9219-37.172 20.719-49.969 12.797-12.75 30.469-20.719 49.969-20.719s37.172 7.9219 49.969 20.719c12.797 12.797 20.719 30.469 20.719 49.969 0 3.9375-0.32812 7.7812-0.9375 11.531l126.32 42.609c3.3281-6.2344 7.5469-11.906 12.469-16.875 12.797-12.797 30.469-20.719 49.969-20.719 18.234 0 34.828 6.8906 47.344 18.234l149.58-119.67c-5.7656-10.219-9.0938-22.078-9.0938-34.688 0-19.5 7.9219-37.172 20.719-49.969 12.797-12.797 30.469-20.719 49.969-20.719s37.172 7.9219 49.969 20.719c12.797 12.75 20.719 30.469 20.719 49.969s-7.9219 37.172-20.719 49.969c-12.797 12.797-30.469 20.719-49.969 20.719-18.234 0-34.828-6.8906-47.344-18.234l-149.58 119.67c5.7656 10.266 9.0938 22.078 9.0938 34.734 0 19.5-7.9219 37.172-20.719 49.969-12.797 12.797-30.469 20.719-49.969 20.719s-37.172-7.9219-49.969-20.719c-12.797-12.75-20.719-30.469-20.719-49.969 0-3.9375 0.32812-7.7812 0.9375-11.531l-126.32-42.609c-3.3281 6.2344-7.5469 11.906-12.469 16.875-12.797 12.75-30.469 20.719-49.969 20.719-17.531 0-33.516-6.4219-45.891-16.922l-152.02 128.58c6.375 10.641 10.031 23.062 10.031 36.328 0 19.5-7.9219 37.172-20.719 49.969-12.797 12.797-30.469 20.672-49.969 20.672s-37.172-7.875-49.969-20.672c-12.797-12.797-20.719-30.469-20.719-49.969s7.9219-37.172 20.719-49.969c12.797-12.844 30.469-20.766 49.969-20.766zm33.797 36.844c-8.6719-8.625-20.578-14.016-33.797-14.016s-25.172 5.3906-33.797 14.016c-8.6719 8.625-14.016 20.578-14.016 33.797s5.3438 25.172 14.016 33.797 20.578 14.016 33.797 14.016 25.172-5.3906 33.797-14.016c8.6719-8.625 14.016-20.578 14.016-33.797s-5.3438-25.172-14.016-33.797zm258.52-218.68c-8.6719-8.625-20.625-14.016-33.797-14.016-13.219 0-25.172 5.3906-33.797 14.016-8.6719 8.625-14.016 20.578-14.016 33.797s5.3438 25.172 14.016 33.797 20.578 14.016 33.797 14.016 25.172-5.3906 33.797-14.016c8.6719-8.625 14.016-20.578 14.016-33.797 0-13.172-5.3438-25.125-14.016-33.797zm258.52 87.281c-8.6719-8.6719-20.578-14.016-33.797-14.016s-25.172 5.3438-33.797 14.016c-8.6719 8.625-14.016 20.578-14.016 33.797s5.3438 25.172 14.016 33.797 20.578 13.969 33.797 13.969 25.172-5.3438 33.797-13.969c8.6719-8.6719 14.016-20.578 14.016-33.797s-5.3906-25.172-14.016-33.797zm258.52-206.81c-8.6719-8.625-20.625-13.969-33.797-13.969-13.219 0-25.172 5.3438-33.797 13.969-8.6719 8.6719-14.016 20.578-14.016 33.797s5.3438 25.172 14.016 33.797 20.578 14.016 33.797 14.016 25.172-5.3906 33.797-14.016c8.6719-8.625 14.016-20.578 14.016-33.797-0.046875-13.219-5.3906-25.125-14.016-33.797zm-863.06 619.5h162.89c6.2812 0 11.438 5.1094 11.438 11.391v257.95c0 6.3281-5.1094 11.438-11.438 11.438h-162.89c-6.2812 0-11.438-5.1094-11.438-11.438v-257.9c0-6.3281 5.1094-11.438 11.438-11.438zm151.5 22.875h-140.06v235.08h140.06zm96.375-251.39c-6.2812 0-11.438 5.1094-11.438 11.438v486.42c0 6.3281 5.1094 11.438 11.438 11.438h162.89c6.2812 0 11.438-5.1094 11.438-11.438v-486.42c0-6.2812-5.1094-11.438-11.438-11.438zm151.5 22.828h-140.06v463.6h140.06zm96.375 108.38h162.89c6.3281 0 11.438 5.1094 11.438 11.438v71.953l1.1719-1.1719c3.8438-3.8438 9.6562-4.3594 14.109-1.6406l46.875 24.703v-376.64c0-6.2812 5.1094-11.438 11.438-11.438h162.89c6.2812 0 11.438 5.1094 11.438 11.438v369.89c4.9219 2.1562 9.8438 4.5 14.719 7.0781l48.234-25.406c4.5469-2.3438 9.9375-1.4062 13.359 2.0156l51.844 51.844c3.8438 3.7969 4.3594 9.6562 1.6406 14.109l-25.031 47.531c3.0938 5.9062 5.9062 11.812 8.3906 17.766 2.4844 6 4.7344 12.141 6.6562 18.469l51.984 16.125c4.9219 1.5 8.0625 6.0469 8.0625 10.875h0.046875v73.312c0 5.4375-3.7969 9.9844-8.9062 11.156l-51.188 15.891c-1.9688 6.2812-4.1719 12.469-6.6562 18.469-2.4844 5.9531-5.25 11.859-8.3906 17.766l25.406 48.234c2.3906 4.5469 1.4062 9.9375-2.0156 13.359l-51.844 51.844c-3.8438 3.7969-9.6562 4.3594-14.109 1.6406l-47.531-25.031c-5.9062 3.0938-11.812 5.9062-17.766 8.3906-6 2.4844-12.141 4.7344-18.469 6.6562l-16.125 51.984c-1.5 4.9219-6 8.0625-10.875 8.0625v0.046875h-73.312c-5.4375 0-9.9844-3.7969-11.156-8.9062l-15.891-51.188c-6.2812-1.9688-12.469-4.1719-18.469-6.6562-5.9531-2.4844-11.859-5.2969-17.766-8.3906l-48.234 25.406c-4.5469 2.3906-9.9375 1.4062-13.359-2.0156v0.046875l-51.844-51.844c-3.8438-3.7969-4.3594-9.6562-1.6406-14.062l25.031-47.578c-3.0469-5.7188-5.7656-11.531-8.2031-17.344l-138.84-0.09375c-6.3281 0-11.438-5.1094-11.438-11.438l0.046875-355.22c0-6.2812 5.1094-11.438 11.391-11.438zm170.11 190.45-24.281-46.172 25.266-25.266 14.719-14.766 46.172 24.328c3.7969 2.0156 8.25 1.6406 11.578-0.60938 6.375-3.5625 13.078-6.7969 20.156-9.75 3.6094-1.5 7.2188-2.8594 10.828-4.0781v-0.046875l0.23437-0.09375 0.09375-0.046875 0.14063-0.09375 0.51562-0.1875 0.23438-0.09375 0.09375-0.046875 0.32812-0.09375 0.046876-0.046875 0.23437-0.09375h0.046876l0.23437-0.09375 0.09375-0.046875 0.23438 0.14062 0.1875-0.046875 0.046874-0.046875 0.28125-0.09375h0.046876l0.23437-0.09375 0.28125-0.09375 0.23438-0.09375 0.046874-0.046875 0.28125-0.09375 0.046876-0.046875 0.23437-0.046875 0.28125-0.09375 0.23438-0.09375h0.046874l0.28125-0.09375 0.046876-0.046875 0.23437-0.09375 0.28125-0.09375 0.23438-0.09375h0.046874l0.28125-0.09375 0.046876-0.046875 0.23437-0.09375 0.14063-0.046875 0.09375-0.046875 0.23437-0.09375h0.046876l0.28125-0.09375 0.046874-0.046875 0.1875-0.046875 0.14063-0.046875 0.09375-0.046875 0.23437-0.046875v-0.046875l0.28125-0.09375h0.09375l0.1875-0.09375 0.14063-0.046875 0.09375-0.046875 0.23437-0.09375 0.28125-0.09375 0.09375-0.046875 0.1875-0.046875 0.14063-0.046875 0.09375-0.046875 0.5625-0.1875 0.09375-0.046875 0.375-0.09375 0.09375-0.046875c0.70312-0.1875 1.3594-0.42188 1.9688-0.70312l0.14062-0.09375v-0.046875l0.42188-0.28125v-0.046875l0.42187-0.28125v-0.046875l0.14063-0.09375v-0.046875l0.28125-0.1875v-0.046875l0.14062-0.09375v-0.046875l0.42188-0.28125c1.8281-1.4062 3.2344-3.3281 3.9375-5.6719l15.469-49.781h56.531l15.469 49.781c0.70312 2.2969 2.0625 4.2188 3.7969 5.5781l0.14063 0.09375v0.046875l0.42187 0.28125v0.046875l0.14063 0.09375v0.046875l0.14062 0.09375v0.046875l0.14063 0.09375v0.046875l0.5625 0.375v0.046875l0.28125 0.1875h0.046874l0.14063 0.09375 0.046874 0.046875 0.14063 0.046875 0.046874 0.046875c0.65625 0.28125 1.3125 0.51562 2.0156 0.70312l0.046874 0.046875 0.5625 0.1875 0.046876 0.046875 0.14062 0.046875c5.1562 1.5 10.312 3.1875 15.422 5.1094l0.046874 0.046875 0.28125 0.09375v0.046875l0.28125 0.09375 0.046876 0.046875 0.09375 0.046875 0.14062 0.046875c0.42188 0.23438 0.89063 0.375 1.3594 0.51562l3.0938 1.2656c7.3125 3.0469 14.297 6.4219 20.859 10.125 3.4688 1.9688 7.5938 1.9219 10.875 0.1875v0.046875l46.172-24.328 39.984 39.984-24.281 46.172c-2.0156 3.7969-1.6406 8.2031 0.5625 11.578 3.5625 6.3281 6.7969 13.078 9.7031 20.156 3 7.1719 5.4844 14.438 7.5469 21.797 1.0781 3.8906 4.0312 6.75 7.6406 7.875l49.781 15.469v56.531l-49.781 15.422c-3.9375 1.2188-6.75 4.4062-7.6875 8.1094-2.0156 7.2656-4.5469 14.438-7.4531 21.562-3.0469 7.3125-6.4219 14.25-10.125 20.859-1.9688 3.4688-1.875 7.5469-0.14062 10.875v0.046875l24.281 46.172-39.984 39.984-46.172-24.281c-3.7969-2.0156-8.25-1.6406-11.578 0.5625-6.375 3.5625-13.078 6.7969-20.156 9.75-7.1719 2.9531-14.484 5.4844-21.797 7.5469-3.8906 1.0781-6.75 4.0312-7.8281 7.6406l-15.469 49.734h-56.531l-15.469-49.734c-1.2188-3.9375-4.3594-6.75-8.1094-7.7344-7.2656-2.0156-14.484-4.5469-21.562-7.4531-7.3125-3.0469-14.297-6.4219-20.859-10.125-3.4688-1.9688-7.5938-1.875-10.875-0.14062v-0.046875l-46.172 24.281-39.984-39.984 24.281-46.172c2.0156-3.7969 1.6406-8.25-0.5625-11.578-3.5625-6.375-6.7969-13.125-9.7031-20.156-1.5-3.6094-2.8594-7.2188-4.125-10.875l-0.046876-0.14062c-0.32812-0.98438-0.65625-1.9688-1.0312-3.0469-0.84375-2.5781-1.5469-4.9688-2.2031-7.2188l-0.046876-0.09375-0.046874-0.14062v-0.046875l-0.046876-0.09375c-0.1875-0.70312-0.42187-1.3594-0.70312-2.0156v-0.046875l-0.046876-0.14062v-0.046875l-0.14062-0.28125v-0.046875l-0.09375-0.14062v-0.046875l-0.09375-0.14062-0.375 0.42188v-0.046875l-0.375-0.5625v-0.046875l-0.09375-0.14062v-0.046875l-0.09375-0.14062v-0.046875l-0.09375-0.14062v-0.046875c-1.4062-1.8281-3.375-3.3281-5.7656-4.0781l-49.781-15.422v-56.438l49.781-15.469c2.2031-0.70312 4.0781-2.0156 5.4844-3.7031l0.09375-0.09375v-0.046875l0.09375-0.14062v-0.046875l0.09375-0.14062v-0.046875l0.09375-0.14062v-0.046875l0.09375-0.14062v-0.046875l0.09375-0.14062v-0.046875l0.09375-0.14062v-0.046875l0.28125-0.42188v-0.046875l0.09375-0.14062v-0.046875l0.09375-0.14062v-0.046875l0.09375-0.14062v-0.046875l0.09375-0.28125v-0.046875c0.32812-0.70312 0.60937-1.4062 0.79687-2.1562l0.046876-0.09375 0.1875-0.60938 0.046874-0.09375 0.09375-0.23438 0.046876-0.09375 0.046874-0.23438 0.046876-0.09375 0.09375-0.23438 0.046874-0.09375 0.09375-0.23438 0.28125-1.0312 0.046876-0.14062 0.046874-0.23438 0.046876-0.14062 0.046874-0.23438 0.09375-0.32812 0.046876-0.14062 0.046874-0.1875 0.046876-0.14062 0.046874-0.1875 0.09375-0.32812 0.046876-0.14062 0.046874 0.23438 0.046876-0.14062 0.046874-0.1875 0.046876-0.14062 0.046874-0.1875 0.046876-0.14062 0.046874-0.1875 0.046876-0.14062 0.42187-1.6875 0.09375-0.32812 0.046876-0.1875 0.046874-0.14062 0.046876-0.1875 0.046874-0.14062 0.046876-0.1875 0.046874-0.14062 0.046876-0.1875 0.046874-0.14062 0.046876-0.1875 0.046874-0.14062 0.046876-0.1875 0.046874-0.14062 0.046876-0.1875 0.046874-0.14062 0.09375-0.23438 0.046876-0.14062 0.09375-0.23438 0.046874-0.14062 0.09375-0.23438 0.046876-0.14062 0.09375-0.23438 0.046874-0.14062 0.09375-0.23438 0.046876-0.09375 0.09375-0.23438 0.046874-0.09375 0.09375-0.23438 0.046876-0.09375 0.09375-0.23438 0.046874-0.09375 0.09375-0.23438 0.046876-0.09375 0.09375-0.28125 0.046874-0.09375 0.09375-0.28125 0.046876-0.09375 0.09375-0.23438 0.046874-0.09375 0.09375-0.23438 0.046876-0.09375 0.09375-0.28125 0.046874-0.09375 0.09375-0.28125 0.046876-0.09375 0.09375-0.28125 0.046874-0.09375 0.09375-0.28125 0.046876-0.046875 0.09375-0.28125v-0.046875l0.09375-0.28125v-0.046875l0.09375-0.28125v-0.09375l0.09375-0.28125v-0.046875l0.09375-0.28125v-0.046875l0.09375-0.28125v-0.046875l0.14062-0.28125v-0.046875l0.14063-0.32812v-0.046875l0.14062-0.32812v-0.046875l0.14063-0.28125v-0.046875l0.14062-0.32812v-0.046875l0.14063-0.32812v-0.046875l0.5625-1.3125v-0.046875l0.14062-0.32812v-0.046875l0.14063-0.28125v-0.046875l0.14062-0.32812v-0.046875l0.09375-0.28125 0.046876-0.046875 0.09375-0.28125 0.046874-0.09375 0.09375-0.28125 0.046876-0.09375 0.09375-0.23438 0.046874-0.09375 0.09375-0.23438 0.046876-0.14062 0.09375-0.23438 0.046874-0.14062 0.09375-0.1875 0.046876-0.14062 0.09375-0.1875 0.046874-0.14062 0.09375-0.1875 0.046876-0.14062 0.1875-0.375 0.09375-0.14062 0.09375-0.1875 0.046874-0.14062 0.09375-0.1875 0.046876-0.14062 0.09375-0.1875 0.046874-0.14062 0.09375-0.23438 0.046876-0.09375 0.09375-0.23438 0.046874-0.09375 0.09375-0.23438 0.046876-0.09375 0.14062-0.23438 0.1875-0.375 0.046876-0.046875 0.14062-0.28125v-0.046875l0.14063-0.28125v-0.046875l0.14062-0.32812v-0.046875l0.14063-0.28125-0.046876 0.75 0.28125-0.65625 0.14063-0.28125v-0.046875l0.14062-0.32812 0.14063-0.28125 0.046874-0.046875 0.1875-0.375 0.14063-0.23438 0.046874-0.09375 0.09375-0.23438 0.046876-0.09375 0.09375-0.23438 0.046874-0.09375 0.09375-0.23438 0.046876-0.14062 0.09375-0.1875 0.046874-0.14062 0.09375-0.1875 0.046876-0.14062 0.09375-0.1875 0.09375-0.14062 0.09375-0.1875 0.09375-0.14062 0.14062-0.32812 0.09375-0.14062 0.09375-0.1875 0.046876-0.14062 0.09375-0.1875 0.046874-0.14062 0.28125-0.51562 0.046876-0.09375 0.09375-0.23438 0.046874-0.09375 0.28125-0.51562 0.046876-0.09375 0.14062-0.23438 0.046876-0.09375 0.14062-0.23438 0.046876-0.046875 0.14062-0.28125v-0.046875l0.14063-0.28125v-0.046875l0.14062-0.28125 0.14063-0.32812 0.32812-0.60938v-0.046875l0.14063-0.28125 0.046874-0.046875 0.14063-0.28125 0.046874-0.046875 0.14063-0.28125 0.046874-0.046875 0.14063-0.23438 0.046874-0.09375 0.14063-0.23438 0.046874-0.09375 0.09375-0.23438c2.4375-3 2.7656-7.4062 0.79688-11.203zm-18.609-167.58h-140.06v332.39h107.72l-38.297-11.906c-5.1094-1.1719-8.9062-5.6719-8.9062-11.156v-73.312c0-5.4375 3.7969-9.9844 8.9062-11.156l51.188-15.891c1.9688-6.2812 4.1719-12.469 6.6562-18.469 2.4844-5.9531 5.25-11.859 8.3438-17.766l-25.031-47.531c-2.7188-4.4062-2.1562-10.266 1.6406-14.109l27.797-27.797zm97.312 215.76c15.703-24.469 39.844-40.312 66.234-46.078 26.156-5.7188 54.516-1.5469 78.891 13.875l1.125 0.70312c24.188 15.703 39.797 39.703 45.469 65.859 5.7188 26.156 1.5469 54.469-13.875 78.891-0.28125 0.32813-0.51562 0.75-0.75 1.125-15.703 24.188-39.703 39.797-65.812 45.469-26.203 5.7188-54.516 1.5469-78.891-13.875-0.375-0.28125-0.75-0.51562-1.1719-0.75-19.641-12.75-33.609-30.938-41.203-51.281-4.9219-13.172-7.2188-27.234-6.6562-41.344l6.1406 8.3906c3.7031 5.0625 10.875 6.1875 15.938 2.4844 5.0625-3.75 6.1875-10.875 2.4844-15.938l-21.984-29.906-0.046874-0.046874c-3.6094-5.1562-10.734-6.4219-15.891-2.7656l-30.562 21.562c-5.1562 3.6094-6.375 10.734-2.7656 15.891 3.6094 5.1562 10.734 6.375 15.891 2.7656l8.1562-5.7656c-1.0312 17.953 1.6875 35.906 7.9688 52.641 9.375 25.031 26.625 47.344 50.766 62.906l0.046874 0.046876c29.812 19.125 64.547 24.328 96.562 17.344 32.062-7.0312 61.453-26.203 80.531-56.016l0.046876-0.046874c19.125-29.812 24.328-64.547 17.344-96.609-7.0312-32.062-26.25-61.453-56.016-80.578h-0.046874c-29.812-19.125-64.547-24.375-96.562-17.344-32.062 7.0312-61.453 26.25-80.578 56.062-3.4219 5.2969-1.875 12.328 3.4219 15.797 5.3438 3.375 12.422 1.8281 15.797-3.4688zm77.625-14.766v74.016c0 4.3594 2.4375 8.1094 6 10.078l42.188 27.469c5.2969 3.4219 12.328 1.9219 15.75-3.3281 3.4219-5.2969 1.9219-12.328-3.3281-15.75l-37.781-24.609v-67.875c0-6.2812-5.1094-11.438-11.438-11.438-6.2812 0.046874-11.391 5.1562-11.391 11.438z" fill="#ffb216" fill-rule="evenodd"/>
</svg>
