<svg width="631" height="392" viewBox="0 0 631 392" fill="none" xmlns="http://www.w3.org/2000/svg">
<g clip-path="url(#clip0_3876_27278)">
<rect width="631" height="392" fill="white"/>
<path fill-rule="evenodd" clip-rule="evenodd" d="M271.502 142H155.766L213.634 43L271.502 142Z" fill="url(#paint0_linear_3876_27278)"/>
<path fill-rule="evenodd" clip-rule="evenodd" d="M99.4648 238.32L150.691 150.684H276.579L327.806 238.32H99.4648Z" fill="url(#paint1_linear_3876_27278)"/>
<path fill-rule="evenodd" clip-rule="evenodd" d="M37 345.184L94.3889 247.004H332.881L390.27 345.184H37Z" fill="url(#paint2_linear_3876_27278)"/>
<rect x="348.625" y="237" width="242.375" height="1" fill="#FFB216"/>
<rect x="411.271" y="344" width="177.729" height="1" fill="#FFB216"/>
<rect x="292.738" y="141" width="298.262" height="1" fill="#FFB216"/>
<path d="M460.697 107H457.491V97.48H460.697C461.518 97.48 462.195 97.5687 462.727 97.746C463.259 97.914 463.67 98.1987 463.959 98.6C464.258 98.992 464.463 99.4587 464.575 100C464.687 100.532 464.743 101.227 464.743 102.086C464.743 102.945 464.692 103.659 464.589 104.228C464.486 104.788 464.29 105.292 464.001 105.74C463.721 106.179 463.31 106.501 462.769 106.706C462.228 106.902 461.537 107 460.697 107ZM462.727 103.22C462.746 102.921 462.755 102.511 462.755 101.988C462.755 101.456 462.736 101.031 462.699 100.714C462.662 100.397 462.573 100.107 462.433 99.846C462.293 99.5847 462.083 99.4073 461.803 99.314C461.532 99.2113 461.164 99.16 460.697 99.16H459.423V105.32H460.697C461.397 105.32 461.906 105.143 462.223 104.788C462.494 104.499 462.662 103.976 462.727 103.22ZM471.613 102.184V105.096C471.631 105.32 471.669 105.479 471.725 105.572C471.781 105.656 471.897 105.717 472.075 105.754L472.019 107.168C471.543 107.168 471.16 107.135 470.871 107.07C470.591 107.005 470.306 106.874 470.017 106.678C469.345 107.005 468.659 107.168 467.959 107.168C466.512 107.168 465.789 106.403 465.789 104.872C465.789 104.125 465.989 103.598 466.391 103.29C466.792 102.973 467.408 102.786 468.239 102.73L469.737 102.618V102.184C469.737 101.895 469.671 101.699 469.541 101.596C469.41 101.484 469.2 101.428 468.911 101.428L466.279 101.54L466.223 100.238C467.221 99.9673 468.169 99.832 469.065 99.832C469.97 99.832 470.619 100.019 471.011 100.392C471.412 100.765 471.613 101.363 471.613 102.184ZM468.463 104.032C467.94 104.079 467.679 104.359 467.679 104.872C467.679 105.385 467.907 105.642 468.365 105.642C468.719 105.642 469.107 105.586 469.527 105.474L469.737 105.418V103.92L468.463 104.032ZM477.279 101.596H475.557V104.466C475.557 104.746 475.562 104.947 475.571 105.068C475.59 105.18 475.641 105.278 475.725 105.362C475.819 105.446 475.959 105.488 476.145 105.488L477.209 105.46L477.293 106.958C476.668 107.098 476.192 107.168 475.865 107.168C475.025 107.168 474.451 106.981 474.143 106.608C473.835 106.225 473.681 105.525 473.681 104.508V101.596H472.855V100H473.681V98.054H475.557V100H477.279V101.596ZM483.863 102.184V105.096C483.881 105.32 483.919 105.479 483.975 105.572C484.031 105.656 484.147 105.717 484.325 105.754L484.269 107.168C483.793 107.168 483.41 107.135 483.121 107.07C482.841 107.005 482.556 106.874 482.267 106.678C481.595 107.005 480.909 107.168 480.209 107.168C478.762 107.168 478.039 106.403 478.039 104.872C478.039 104.125 478.239 103.598 478.641 103.29C479.042 102.973 479.658 102.786 480.489 102.73L481.987 102.618V102.184C481.987 101.895 481.921 101.699 481.791 101.596C481.66 101.484 481.45 101.428 481.161 101.428L478.529 101.54L478.473 100.238C479.471 99.9673 480.419 99.832 481.315 99.832C482.22 99.832 482.869 100.019 483.261 100.392C483.662 100.765 483.863 101.363 483.863 102.184ZM480.713 104.032C480.19 104.079 479.929 104.359 479.929 104.872C479.929 105.385 480.157 105.642 480.615 105.642C480.969 105.642 481.357 105.586 481.777 105.474L481.987 105.418V103.92L480.713 104.032ZM485.567 104.13V102.422H489.711V104.13H485.567ZM494.74 107H491.534V97.48H494.74C495.561 97.48 496.238 97.5687 496.77 97.746C497.302 97.914 497.713 98.1987 498.002 98.6C498.301 98.992 498.506 99.4587 498.618 100C498.73 100.532 498.786 101.227 498.786 102.086C498.786 102.945 498.735 103.659 498.632 104.228C498.529 104.788 498.333 105.292 498.044 105.74C497.764 106.179 497.353 106.501 496.812 106.706C496.271 106.902 495.58 107 494.74 107ZM496.77 103.22C496.789 102.921 496.798 102.511 496.798 101.988C496.798 101.456 496.779 101.031 496.742 100.714C496.705 100.397 496.616 100.107 496.476 99.846C496.336 99.5847 496.126 99.4073 495.846 99.314C495.575 99.2113 495.207 99.16 494.74 99.16H493.466V105.32H494.74C495.44 105.32 495.949 105.143 496.266 104.788C496.537 104.499 496.705 103.976 496.77 103.22ZM500.294 107V100H502.156V100.742C502.94 100.275 503.686 99.972 504.396 99.832V101.722C503.64 101.881 502.991 102.044 502.45 102.212L502.17 102.31V107H500.294ZM505.503 107V100H507.379V107H505.503ZM505.503 99.104V97.2H507.379V99.104H505.503ZM508.454 100H510.414L511.534 105.404H511.926L513.102 100H515.006L513.326 107H510.134L508.454 100ZM517.529 104.298C517.538 104.727 517.65 105.04 517.865 105.236C518.089 105.423 518.406 105.516 518.817 105.516C519.685 105.516 520.46 105.488 521.141 105.432L521.533 105.39L521.561 106.776C520.488 107.037 519.517 107.168 518.649 107.168C517.594 107.168 516.829 106.888 516.353 106.328C515.877 105.768 515.639 104.858 515.639 103.598C515.639 101.087 516.67 99.832 518.733 99.832C520.768 99.832 521.785 100.887 521.785 102.996L521.645 104.298H517.529ZM519.937 102.87C519.937 102.31 519.848 101.923 519.671 101.708C519.494 101.484 519.181 101.372 518.733 101.372C518.294 101.372 517.982 101.489 517.795 101.722C517.618 101.946 517.524 102.329 517.515 102.87H519.937ZM525.002 107H523.126V100H524.988V100.392C525.622 100.019 526.206 99.832 526.738 99.832C527.671 99.832 528.315 100.107 528.67 100.658C529.024 101.209 529.202 102.058 529.202 103.206V107H527.326V103.262C527.326 102.665 527.256 102.226 527.116 101.946C526.976 101.657 526.696 101.512 526.276 101.512C525.893 101.512 525.524 101.577 525.17 101.708L525.002 101.764V107ZM537.314 107H534.108V97.48H537.314C538.136 97.48 538.812 97.5687 539.344 97.746C539.876 97.914 540.287 98.1987 540.576 98.6C540.875 98.992 541.08 99.4587 541.192 100C541.304 100.532 541.36 101.227 541.36 102.086C541.36 102.945 541.309 103.659 541.206 104.228C541.104 104.788 540.908 105.292 540.618 105.74C540.338 106.179 539.928 106.501 539.386 106.706C538.845 106.902 538.154 107 537.314 107ZM539.344 103.22C539.363 102.921 539.372 102.511 539.372 101.988C539.372 101.456 539.354 101.031 539.316 100.714C539.279 100.397 539.19 100.107 539.05 99.846C538.91 99.5847 538.7 99.4073 538.42 99.314C538.15 99.2113 537.781 99.16 537.314 99.16H536.04V105.32H537.314C538.014 105.32 538.523 105.143 538.84 104.788C539.111 104.499 539.279 103.976 539.344 103.22ZM544.408 104.298C544.417 104.727 544.529 105.04 544.744 105.236C544.968 105.423 545.285 105.516 545.696 105.516C546.564 105.516 547.339 105.488 548.02 105.432L548.412 105.39L548.44 106.776C547.367 107.037 546.396 107.168 545.528 107.168C544.473 107.168 543.708 106.888 543.232 106.328C542.756 105.768 542.518 104.858 542.518 103.598C542.518 101.087 543.549 99.832 545.612 99.832C547.647 99.832 548.664 100.887 548.664 102.996L548.524 104.298H544.408ZM546.816 102.87C546.816 102.31 546.727 101.923 546.55 101.708C546.373 101.484 546.06 101.372 545.612 101.372C545.173 101.372 544.861 101.489 544.674 101.722C544.497 101.946 544.403 102.329 544.394 102.87H546.816ZM552.623 99.832C553.108 99.832 553.729 99.9067 554.485 100.056L554.863 100.14L554.807 101.624C554.069 101.549 553.523 101.512 553.169 101.512C552.525 101.512 552.095 101.652 551.881 101.932C551.675 102.203 551.573 102.721 551.573 103.486C551.573 104.251 551.675 104.779 551.881 105.068C552.095 105.348 552.529 105.488 553.183 105.488L554.807 105.376L554.863 106.874C553.864 107.07 553.103 107.168 552.581 107.168C551.545 107.168 550.798 106.879 550.341 106.3C549.893 105.712 549.669 104.774 549.669 103.486C549.669 102.198 549.902 101.269 550.369 100.7C550.835 100.121 551.587 99.832 552.623 99.832ZM556.253 107V100H558.129V107H556.253ZM556.253 99.104V97.2H558.129V99.104H556.253ZM564.888 101.75C563.731 101.601 562.919 101.526 562.452 101.526C561.995 101.526 561.696 101.568 561.556 101.652C561.425 101.736 561.36 101.871 561.36 102.058C561.36 102.235 561.449 102.361 561.626 102.436C561.813 102.501 562.279 102.604 563.026 102.744C563.782 102.875 564.319 103.094 564.636 103.402C564.953 103.71 565.112 104.209 565.112 104.9C565.112 106.412 564.174 107.168 562.298 107.168C561.682 107.168 560.935 107.084 560.058 106.916L559.61 106.832L559.666 105.264C560.823 105.413 561.626 105.488 562.074 105.488C562.531 105.488 562.839 105.446 562.998 105.362C563.166 105.269 563.25 105.133 563.25 104.956C563.25 104.779 563.161 104.648 562.984 104.564C562.816 104.48 562.368 104.377 561.64 104.256C560.921 104.135 560.385 103.929 560.03 103.64C559.675 103.351 559.498 102.837 559.498 102.1C559.498 101.353 559.75 100.793 560.254 100.42C560.758 100.037 561.407 99.846 562.2 99.846C562.751 99.846 563.502 99.9347 564.454 100.112L564.916 100.196L564.888 101.75ZM566.466 107V100H568.342V107H566.466ZM566.466 99.104V97.2H568.342V99.104H566.466ZM570.453 100.798C570.948 100.154 571.774 99.832 572.931 99.832C574.088 99.832 574.914 100.154 575.409 100.798C575.904 101.433 576.151 102.329 576.151 103.486C576.151 105.941 575.078 107.168 572.931 107.168C570.784 107.168 569.711 105.941 569.711 103.486C569.711 102.329 569.958 101.433 570.453 100.798ZM571.895 105.068C572.091 105.404 572.436 105.572 572.931 105.572C573.426 105.572 573.766 105.404 573.953 105.068C574.149 104.732 574.247 104.205 574.247 103.486C574.247 102.767 574.149 102.245 573.953 101.918C573.766 101.591 573.426 101.428 572.931 101.428C572.436 101.428 572.091 101.591 571.895 101.918C571.708 102.245 571.615 102.767 571.615 103.486C571.615 104.205 571.708 104.732 571.895 105.068ZM579.402 107H577.526V100H579.388V100.392C580.023 100.019 580.606 99.832 581.138 99.832C582.072 99.832 582.716 100.107 583.07 100.658C583.425 101.209 583.602 102.058 583.602 103.206V107H581.726V103.262C581.726 102.665 581.656 102.226 581.516 101.946C581.376 101.657 581.096 101.512 580.676 101.512C580.294 101.512 579.925 101.577 579.57 101.708L579.402 101.764V107ZM590.29 101.75C589.133 101.601 588.321 101.526 587.854 101.526C587.397 101.526 587.098 101.568 586.958 101.652C586.828 101.736 586.762 101.871 586.762 102.058C586.762 102.235 586.851 102.361 587.028 102.436C587.215 102.501 587.682 102.604 588.428 102.744C589.184 102.875 589.721 103.094 590.038 103.402C590.356 103.71 590.514 104.209 590.514 104.9C590.514 106.412 589.576 107.168 587.7 107.168C587.084 107.168 586.338 107.084 585.46 106.916L585.012 106.832L585.068 105.264C586.226 105.413 587.028 105.488 587.476 105.488C587.934 105.488 588.242 105.446 588.4 105.362C588.568 105.269 588.652 105.133 588.652 104.956C588.652 104.779 588.564 104.648 588.386 104.564C588.218 104.48 587.77 104.377 587.042 104.256C586.324 104.135 585.787 103.929 585.432 103.64C585.078 103.351 584.9 102.837 584.9 102.1C584.9 101.353 585.152 100.793 585.656 100.42C586.16 100.037 586.809 99.846 587.602 99.846C588.153 99.846 588.904 99.9347 589.856 100.112L590.318 100.196L590.29 101.75Z" fill="black"/>
<path d="M365.627 128L368.287 118.312H370.639L373.299 128H372.235L371.535 125.508H367.391L366.691 128H365.627ZM369.099 119.236L367.629 124.542H371.297L369.827 119.236H369.099ZM377.175 120.86C377.483 120.86 378.005 120.916 378.743 121.028L379.079 121.07L379.037 121.924C378.29 121.84 377.739 121.798 377.385 121.798C376.591 121.798 376.05 121.989 375.761 122.372C375.481 122.745 375.341 123.445 375.341 124.472C375.341 125.489 375.471 126.199 375.733 126.6C376.003 127.001 376.559 127.202 377.399 127.202L379.051 127.076L379.093 127.944C378.225 128.075 377.576 128.14 377.147 128.14C376.055 128.14 375.299 127.86 374.879 127.3C374.468 126.74 374.263 125.797 374.263 124.472C374.263 123.137 374.487 122.204 374.935 121.672C375.383 121.131 376.129 120.86 377.175 120.86ZM380.654 128V121H381.69V121.952C382.502 121.392 383.356 121.023 384.252 120.846V121.91C383.86 121.985 383.45 122.101 383.02 122.26C382.6 122.419 382.278 122.559 382.054 122.68L381.704 122.862V128H380.654ZM385.05 124.486C385.05 123.207 385.278 122.283 385.736 121.714C386.193 121.145 386.963 120.86 388.046 120.86C389.138 120.86 389.908 121.145 390.356 121.714C390.813 122.283 391.042 123.207 391.042 124.486C391.042 125.765 390.827 126.693 390.398 127.272C389.968 127.851 389.184 128.14 388.046 128.14C386.907 128.14 386.123 127.851 385.694 127.272C385.264 126.693 385.05 125.765 385.05 124.486ZM386.128 124.472C386.128 125.489 386.249 126.203 386.492 126.614C386.744 127.025 387.262 127.23 388.046 127.23C388.839 127.23 389.357 127.029 389.6 126.628C389.842 126.217 389.964 125.499 389.964 124.472C389.964 123.445 389.828 122.741 389.558 122.358C389.287 121.966 388.783 121.77 388.046 121.77C387.318 121.77 386.814 121.966 386.534 122.358C386.263 122.741 386.128 123.445 386.128 124.472ZM394.952 121.798C393.935 121.798 393.426 122.153 393.426 122.862C393.426 123.189 393.543 123.422 393.776 123.562C394.009 123.693 394.541 123.833 395.372 123.982C396.203 124.122 396.791 124.323 397.136 124.584C397.481 124.845 397.654 125.335 397.654 126.054C397.654 126.773 397.421 127.3 396.954 127.636C396.497 127.972 395.825 128.14 394.938 128.14C394.359 128.14 393.678 128.075 392.894 127.944L392.474 127.874L392.53 126.964C393.594 127.123 394.397 127.202 394.938 127.202C395.479 127.202 395.89 127.118 396.17 126.95C396.459 126.773 396.604 126.483 396.604 126.082C396.604 125.671 396.483 125.396 396.24 125.256C395.997 125.107 395.465 124.967 394.644 124.836C393.823 124.705 393.239 124.514 392.894 124.262C392.549 124.01 392.376 123.543 392.376 122.862C392.376 122.181 392.614 121.677 393.09 121.35C393.575 121.023 394.177 120.86 394.896 120.86C395.465 120.86 396.179 120.925 397.038 121.056L397.43 121.126L397.402 122.022C396.366 121.873 395.549 121.798 394.952 121.798ZM401.46 121.798C400.443 121.798 399.934 122.153 399.934 122.862C399.934 123.189 400.051 123.422 400.284 123.562C400.517 123.693 401.049 123.833 401.88 123.982C402.711 124.122 403.299 124.323 403.644 124.584C403.989 124.845 404.162 125.335 404.162 126.054C404.162 126.773 403.929 127.3 403.462 127.636C403.005 127.972 402.333 128.14 401.446 128.14C400.867 128.14 400.186 128.075 399.402 127.944L398.982 127.874L399.038 126.964C400.102 127.123 400.905 127.202 401.446 127.202C401.987 127.202 402.398 127.118 402.678 126.95C402.967 126.773 403.112 126.483 403.112 126.082C403.112 125.671 402.991 125.396 402.748 125.256C402.505 125.107 401.973 124.967 401.152 124.836C400.331 124.705 399.747 124.514 399.402 124.262C399.057 124.01 398.884 123.543 398.884 122.862C398.884 122.181 399.122 121.677 399.598 121.35C400.083 121.023 400.685 120.86 401.404 120.86C401.973 120.86 402.687 120.925 403.546 121.056L403.938 121.126L403.91 122.022C402.874 121.873 402.057 121.798 401.46 121.798ZM409.028 128V118.312H414.824V119.264H410.106V123.044H414.096V123.996H410.106V128H409.028ZM419.939 124.738H417.475V128H416.397V118.312H419.939C420.994 118.312 421.773 118.569 422.277 119.082C422.781 119.595 423.033 120.379 423.033 121.434C423.033 123.637 422.002 124.738 419.939 124.738ZM417.475 123.786H419.925C421.26 123.786 421.927 123.002 421.927 121.434C421.927 120.687 421.768 120.141 421.451 119.796C421.134 119.441 420.625 119.264 419.925 119.264H417.475V123.786ZM425.466 120.244C425.466 119.619 425.681 119.119 426.11 118.746C426.539 118.373 427.146 118.186 427.93 118.186C428.714 118.186 429.307 118.373 429.708 118.746C430.119 119.119 430.324 119.637 430.324 120.3C430.324 120.953 430.161 121.471 429.834 121.854C429.507 122.227 428.952 122.596 428.168 122.96L430.296 125.06C430.501 124.463 430.632 123.707 430.688 122.792L431.71 122.806C431.589 123.973 431.374 124.943 431.066 125.718L432.872 127.426L432.242 128.126L430.548 126.544C429.904 127.608 428.929 128.14 427.622 128.14C426.315 128.14 425.401 127.888 424.878 127.384C424.355 126.88 424.094 126.185 424.094 125.298C424.094 124.402 424.262 123.749 424.598 123.338C424.943 122.918 425.499 122.582 426.264 122.33C425.937 121.957 425.723 121.625 425.62 121.336C425.517 121.047 425.466 120.683 425.466 120.244ZM427.454 127.188C428.602 127.188 429.391 126.768 429.82 125.928L426.866 122.988C426.25 123.184 425.811 123.436 425.55 123.744C425.289 124.052 425.158 124.528 425.158 125.172C425.158 126.516 425.923 127.188 427.454 127.188ZM426.516 120.412C426.516 120.981 426.726 121.49 427.146 121.938L427.552 122.33C428.196 122.05 428.644 121.775 428.896 121.504C429.148 121.233 429.274 120.86 429.274 120.384C429.274 119.525 428.812 119.096 427.888 119.096C426.973 119.096 426.516 119.535 426.516 120.412ZM433.481 128L436.141 118.312H438.493L441.153 128H440.089L439.389 125.508H435.245L434.545 128H433.481ZM436.953 119.236L435.483 124.542H439.151L437.681 119.236H436.953ZM441.96 129.722L442.604 126.502H443.766L442.828 129.722H441.96ZM453.628 123.114V126.698C453.656 127.043 453.926 127.249 454.44 127.314L454.398 128.14C453.66 128.14 453.105 127.953 452.732 127.58C451.892 127.953 451.052 128.14 450.212 128.14C449.568 128.14 449.078 127.958 448.742 127.594C448.406 127.23 448.238 126.707 448.238 126.026C448.238 125.345 448.41 124.845 448.756 124.528C449.101 124.201 449.642 124.001 450.38 123.926L452.578 123.716V123.114C452.578 122.638 452.475 122.297 452.27 122.092C452.064 121.887 451.784 121.784 451.43 121.784C450.683 121.784 449.908 121.831 449.106 121.924L448.672 121.966L448.63 121.168C449.656 120.963 450.566 120.86 451.36 120.86C452.153 120.86 452.727 121.042 453.082 121.406C453.446 121.77 453.628 122.339 453.628 123.114ZM449.316 125.97C449.316 126.829 449.67 127.258 450.38 127.258C451.014 127.258 451.64 127.151 452.256 126.936L452.578 126.824V124.514L450.506 124.71C450.086 124.747 449.782 124.869 449.596 125.074C449.409 125.279 449.316 125.578 449.316 125.97ZM456.749 128H455.699V121H456.735V121.49C457.491 121.07 458.215 120.86 458.905 120.86C459.839 120.86 460.464 121.112 460.781 121.616C461.108 122.12 461.271 123.016 461.271 124.304V128H460.235V124.332C460.235 123.361 460.137 122.699 459.941 122.344C459.755 121.98 459.349 121.798 458.723 121.798C458.425 121.798 458.107 121.845 457.771 121.938C457.445 122.022 457.193 122.106 457.015 122.19L456.749 122.316V128ZM468.161 123.114V126.698C468.189 127.043 468.46 127.249 468.973 127.314L468.931 128.14C468.194 128.14 467.638 127.953 467.265 127.58C466.425 127.953 465.585 128.14 464.745 128.14C464.101 128.14 463.611 127.958 463.275 127.594C462.939 127.23 462.771 126.707 462.771 126.026C462.771 125.345 462.944 124.845 463.289 124.528C463.634 124.201 464.176 124.001 464.913 123.926L467.111 123.716V123.114C467.111 122.638 467.008 122.297 466.803 122.092C466.598 121.887 466.318 121.784 465.963 121.784C465.216 121.784 464.442 121.831 463.639 121.924L463.205 121.966L463.163 121.168C464.19 120.963 465.1 120.86 465.893 120.86C466.686 120.86 467.26 121.042 467.615 121.406C467.979 121.77 468.161 122.339 468.161 123.114ZM463.849 125.97C463.849 126.829 464.204 127.258 464.913 127.258C465.548 127.258 466.173 127.151 466.789 126.936L467.111 126.824V124.514L465.039 124.71C464.619 124.747 464.316 124.869 464.129 125.074C463.942 125.279 463.849 125.578 463.849 125.97ZM470.317 128V117.948H471.367V128H470.317ZM472.815 121H473.865L475.615 127.09H476.077L477.841 121H478.891L475.979 131.108H474.929L475.839 128H474.803L472.815 121ZM483.866 121.91H481.64V125.256C481.64 126.059 481.696 126.586 481.808 126.838C481.93 127.09 482.21 127.216 482.648 127.216L483.894 127.132L483.964 128C483.339 128.103 482.863 128.154 482.536 128.154C481.808 128.154 481.304 127.977 481.024 127.622C480.744 127.267 480.604 126.591 480.604 125.592V121.91H479.61V121H480.604V118.858H481.64V121H483.866V121.91ZM485.149 128V121H486.199V128H485.149ZM485.149 119.418V118.2H486.199V119.418H485.149ZM490.829 120.86C491.137 120.86 491.66 120.916 492.397 121.028L492.733 121.07L492.691 121.924C491.944 121.84 491.394 121.798 491.039 121.798C490.246 121.798 489.704 121.989 489.415 122.372C489.135 122.745 488.995 123.445 488.995 124.472C488.995 125.489 489.126 126.199 489.387 126.6C489.658 127.001 490.213 127.202 491.053 127.202L492.705 127.076L492.747 127.944C491.879 128.075 491.23 128.14 490.801 128.14C489.709 128.14 488.953 127.86 488.533 127.3C488.122 126.74 487.917 125.797 487.917 124.472C487.917 123.137 488.141 122.204 488.589 121.672C489.037 121.131 489.784 120.86 490.829 120.86ZM496.507 121.798C495.489 121.798 494.981 122.153 494.981 122.862C494.981 123.189 495.097 123.422 495.331 123.562C495.564 123.693 496.096 123.833 496.927 123.982C497.757 124.122 498.345 124.323 498.691 124.584C499.036 124.845 499.209 125.335 499.209 126.054C499.209 126.773 498.975 127.3 498.509 127.636C498.051 127.972 497.379 128.14 496.493 128.14C495.914 128.14 495.233 128.075 494.449 127.944L494.029 127.874L494.085 126.964C495.149 127.123 495.951 127.202 496.493 127.202C497.034 127.202 497.445 127.118 497.725 126.95C498.014 126.773 498.159 126.483 498.159 126.082C498.159 125.671 498.037 125.396 497.795 125.256C497.552 125.107 497.02 124.967 496.199 124.836C495.377 124.705 494.794 124.514 494.449 124.262C494.103 124.01 493.931 123.543 493.931 122.862C493.931 122.181 494.169 121.677 494.645 121.35C495.13 121.023 495.732 120.86 496.451 120.86C497.02 120.86 497.734 120.925 498.593 121.056L498.985 121.126L498.957 122.022C497.921 121.873 497.104 121.798 496.507 121.798ZM508.835 123.114V126.698C508.863 127.043 509.133 127.249 509.647 127.314L509.605 128.14C508.867 128.14 508.312 127.953 507.939 127.58C507.099 127.953 506.259 128.14 505.419 128.14C504.775 128.14 504.285 127.958 503.949 127.594C503.613 127.23 503.445 126.707 503.445 126.026C503.445 125.345 503.617 124.845 503.963 124.528C504.308 124.201 504.849 124.001 505.587 123.926L507.785 123.716V123.114C507.785 122.638 507.682 122.297 507.477 122.092C507.271 121.887 506.991 121.784 506.637 121.784C505.89 121.784 505.115 121.831 504.313 121.924L503.879 121.966L503.837 121.168C504.863 120.963 505.773 120.86 506.567 120.86C507.36 120.86 507.934 121.042 508.289 121.406C508.653 121.77 508.835 122.339 508.835 123.114ZM504.523 125.97C504.523 126.829 504.877 127.258 505.587 127.258C506.221 127.258 506.847 127.151 507.463 126.936L507.785 126.824V124.514L505.713 124.71C505.293 124.747 504.989 124.869 504.803 125.074C504.616 125.279 504.523 125.578 504.523 125.97ZM511.956 128H510.906V121H511.942V121.49C512.698 121.07 513.422 120.86 514.112 120.86C515.046 120.86 515.671 121.112 515.988 121.616C516.315 122.12 516.478 123.016 516.478 124.304V128H515.442V124.332C515.442 123.361 515.344 122.699 515.148 122.344C514.962 121.98 514.556 121.798 513.93 121.798C513.632 121.798 513.314 121.845 512.978 121.938C512.652 122.022 512.4 122.106 512.222 122.19L511.956 122.316V128ZM523.802 117.948V128H522.766V127.524C522.047 127.935 521.338 128.14 520.638 128.14C520.265 128.14 519.938 128.093 519.658 128C519.378 127.907 519.117 127.739 518.874 127.496C518.37 126.992 518.118 126.063 518.118 124.71C518.118 123.347 518.342 122.367 518.79 121.77C519.247 121.163 519.999 120.86 521.044 120.86C521.585 120.86 522.159 120.921 522.766 121.042V117.948H523.802ZM519.686 126.74C519.835 126.917 519.994 127.039 520.162 127.104C520.33 127.169 520.545 127.202 520.806 127.202C521.077 127.202 521.375 127.16 521.702 127.076C522.038 126.983 522.299 126.894 522.486 126.81L522.766 126.684V121.938C522.169 121.826 521.613 121.77 521.1 121.77C520.391 121.77 519.896 121.999 519.616 122.456C519.336 122.904 519.196 123.604 519.196 124.556C519.196 125.639 519.359 126.367 519.686 126.74ZM528.604 124.486C528.604 123.207 528.833 122.283 529.29 121.714C529.748 121.145 530.518 120.86 531.6 120.86C532.692 120.86 533.462 121.145 533.91 121.714C534.368 122.283 534.596 123.207 534.596 124.486C534.596 125.765 534.382 126.693 533.952 127.272C533.523 127.851 532.739 128.14 531.6 128.14C530.462 128.14 529.678 127.851 529.248 127.272C528.819 126.693 528.604 125.765 528.604 124.486ZM529.682 124.472C529.682 125.489 529.804 126.203 530.046 126.614C530.298 127.025 530.816 127.23 531.6 127.23C532.394 127.23 532.912 127.029 533.154 126.628C533.397 126.217 533.518 125.499 533.518 124.472C533.518 123.445 533.383 122.741 533.112 122.358C532.842 121.966 532.338 121.77 531.6 121.77C530.872 121.77 530.368 121.966 530.088 122.358C529.818 122.741 529.682 123.445 529.682 124.472ZM536.309 131.108V121H537.345V121.504C538.054 121.075 538.754 120.86 539.445 120.86C540.331 120.86 540.975 121.145 541.377 121.714C541.778 122.274 541.979 123.203 541.979 124.5C541.979 125.797 541.741 126.731 541.265 127.3C540.798 127.86 540.019 128.14 538.927 128.14C538.357 128.14 537.835 128.089 537.359 127.986V131.108H536.309ZM539.291 121.798C539.011 121.798 538.707 121.845 538.381 121.938C538.063 122.031 537.811 122.125 537.625 122.218L537.359 122.358V127.076C538.021 127.179 538.525 127.23 538.871 127.23C539.627 127.23 540.154 127.015 540.453 126.586C540.761 126.157 540.915 125.457 540.915 124.486C540.915 123.515 540.775 122.825 540.495 122.414C540.224 122.003 539.823 121.798 539.291 121.798ZM548.452 127.132L548.858 127.09L548.886 127.916C547.822 128.065 546.912 128.14 546.156 128.14C545.148 128.14 544.434 127.851 544.014 127.272C543.594 126.684 543.384 125.774 543.384 124.542C543.384 122.087 544.359 120.86 546.31 120.86C547.252 120.86 547.957 121.126 548.424 121.658C548.89 122.181 549.124 123.007 549.124 124.136L549.068 124.934H544.448C544.448 125.709 544.588 126.283 544.868 126.656C545.148 127.029 545.633 127.216 546.324 127.216C547.024 127.216 547.733 127.188 548.452 127.132ZM548.074 124.094C548.074 123.235 547.934 122.629 547.654 122.274C547.383 121.919 546.935 121.742 546.31 121.742C545.694 121.742 545.227 121.929 544.91 122.302C544.602 122.675 544.443 123.273 544.434 124.094H548.074ZM550.76 128V121H551.796V121.952C552.608 121.392 553.462 121.023 554.358 120.846V121.91C553.966 121.985 553.555 122.101 553.126 122.26C552.706 122.419 552.384 122.559 552.16 122.68L551.81 122.862V128H550.76ZM560.542 123.114V126.698C560.57 127.043 560.84 127.249 561.354 127.314L561.312 128.14C560.574 128.14 560.019 127.953 559.646 127.58C558.806 127.953 557.966 128.14 557.126 128.14C556.482 128.14 555.992 127.958 555.656 127.594C555.32 127.23 555.152 126.707 555.152 126.026C555.152 125.345 555.324 124.845 555.67 124.528C556.015 124.201 556.556 124.001 557.294 123.926L559.492 123.716V123.114C559.492 122.638 559.389 122.297 559.184 122.092C558.978 121.887 558.698 121.784 558.344 121.784C557.597 121.784 556.822 121.831 556.02 121.924L555.586 121.966L555.544 121.168C556.57 120.963 557.48 120.86 558.274 120.86C559.067 120.86 559.641 121.042 559.996 121.406C560.36 121.77 560.542 122.339 560.542 123.114ZM556.23 125.97C556.23 126.829 556.584 127.258 557.294 127.258C557.928 127.258 558.554 127.151 559.17 126.936L559.492 126.824V124.514L557.42 124.71C557 124.747 556.696 124.869 556.51 125.074C556.323 125.279 556.23 125.578 556.23 125.97ZM566.239 121.91H564.013V125.256C564.013 126.059 564.069 126.586 564.181 126.838C564.303 127.09 564.583 127.216 565.021 127.216L566.267 127.132L566.337 128C565.712 128.103 565.236 128.154 564.909 128.154C564.181 128.154 563.677 127.977 563.397 127.622C563.117 127.267 562.977 126.591 562.977 125.592V121.91H561.983V121H562.977V118.858H564.013V121H566.239V121.91ZM567.522 128V121H568.572V128H567.522ZM567.522 119.418V118.2H568.572V119.418H567.522ZM570.276 124.486C570.276 123.207 570.505 122.283 570.962 121.714C571.42 121.145 572.19 120.86 573.272 120.86C574.364 120.86 575.134 121.145 575.582 121.714C576.04 122.283 576.268 123.207 576.268 124.486C576.268 125.765 576.054 126.693 575.624 127.272C575.195 127.851 574.411 128.14 573.272 128.14C572.134 128.14 571.35 127.851 570.92 127.272C570.491 126.693 570.276 125.765 570.276 124.486ZM571.354 124.472C571.354 125.489 571.476 126.203 571.718 126.614C571.97 127.025 572.488 127.23 573.272 127.23C574.066 127.23 574.584 127.029 574.826 126.628C575.069 126.217 575.19 125.499 575.19 124.472C575.19 123.445 575.055 122.741 574.784 122.358C574.514 121.966 574.01 121.77 573.272 121.77C572.544 121.77 572.04 121.966 571.76 122.358C571.49 122.741 571.354 123.445 571.354 124.472ZM579.031 128H577.981V121H579.017V121.49C579.773 121.07 580.496 120.86 581.187 120.86C582.12 120.86 582.745 121.112 583.063 121.616C583.389 122.12 583.553 123.016 583.553 124.304V128H582.517V124.332C582.517 123.361 582.419 122.699 582.223 122.344C582.036 121.98 581.63 121.798 581.005 121.798C580.706 121.798 580.389 121.845 580.053 121.938C579.726 122.022 579.474 122.106 579.297 122.19L579.031 122.316V128ZM587.698 121.798C586.681 121.798 586.172 122.153 586.172 122.862C586.172 123.189 586.289 123.422 586.522 123.562C586.756 123.693 587.288 123.833 588.118 123.982C588.949 124.122 589.537 124.323 589.882 124.584C590.228 124.845 590.4 125.335 590.4 126.054C590.4 126.773 590.167 127.3 589.7 127.636C589.243 127.972 588.571 128.14 587.684 128.14C587.106 128.14 586.424 128.075 585.64 127.944L585.22 127.874L585.276 126.964C586.34 127.123 587.143 127.202 587.684 127.202C588.226 127.202 588.636 127.118 588.916 126.95C589.206 126.773 589.35 126.483 589.35 126.082C589.35 125.671 589.229 125.396 588.986 125.256C588.744 125.107 588.212 124.967 587.39 124.836C586.569 124.705 585.986 124.514 585.64 124.262C585.295 124.01 585.122 123.543 585.122 122.862C585.122 122.181 585.36 121.677 585.836 121.35C586.322 121.023 586.924 120.86 587.642 120.86C588.212 120.86 588.926 120.925 589.784 121.056L590.176 121.126L590.148 122.022C589.112 121.873 588.296 121.798 587.698 121.798Z" fill="black"/>
<path d="M456.192 194.992C455.175 194.992 454.666 195.328 454.666 196C454.666 196.299 454.792 196.527 455.044 196.686C455.296 196.845 455.884 197.073 456.808 197.372C457.742 197.671 458.395 198.011 458.768 198.394C459.142 198.767 459.328 199.346 459.328 200.13C459.328 201.129 459.025 201.885 458.418 202.398C457.812 202.911 457.018 203.168 456.038 203.168C455.31 203.168 454.419 203.056 453.364 202.832L452.86 202.734L453.056 201.236C454.307 201.404 455.264 201.488 455.926 201.488C456.916 201.488 457.41 201.077 457.41 200.256C457.41 199.957 457.294 199.724 457.06 199.556C456.836 199.388 456.384 199.206 455.702 199.01C454.62 198.702 453.854 198.338 453.406 197.918C452.968 197.489 452.748 196.896 452.748 196.14C452.748 195.188 453.038 194.479 453.616 194.012C454.195 193.545 454.988 193.312 455.996 193.312C456.687 193.312 457.564 193.405 458.628 193.592L459.132 193.69L458.978 195.216C457.662 195.067 456.734 194.992 456.192 194.992ZM464.523 197.596H462.801V200.466C462.801 200.746 462.806 200.947 462.815 201.068C462.834 201.18 462.885 201.278 462.969 201.362C463.063 201.446 463.203 201.488 463.389 201.488L464.453 201.46L464.537 202.958C463.912 203.098 463.436 203.168 463.109 203.168C462.269 203.168 461.695 202.981 461.387 202.608C461.079 202.225 460.925 201.525 460.925 200.508V197.596H460.099V196H460.925V194.054H462.801V196H464.523V197.596ZM471.107 198.184V201.096C471.126 201.32 471.163 201.479 471.219 201.572C471.275 201.656 471.392 201.717 471.569 201.754L471.513 203.168C471.037 203.168 470.654 203.135 470.365 203.07C470.085 203.005 469.8 202.874 469.511 202.678C468.839 203.005 468.153 203.168 467.453 203.168C466.006 203.168 465.283 202.403 465.283 200.872C465.283 200.125 465.484 199.598 465.885 199.29C466.286 198.973 466.902 198.786 467.733 198.73L469.231 198.618V198.184C469.231 197.895 469.166 197.699 469.035 197.596C468.904 197.484 468.694 197.428 468.405 197.428L465.773 197.54L465.717 196.238C466.716 195.967 467.663 195.832 468.559 195.832C469.464 195.832 470.113 196.019 470.505 196.392C470.906 196.765 471.107 197.363 471.107 198.184ZM467.957 200.032C467.434 200.079 467.173 200.359 467.173 200.872C467.173 201.385 467.402 201.642 467.859 201.642C468.214 201.642 468.601 201.586 469.021 201.474L469.231 201.418V199.92L467.957 200.032ZM474.771 203H472.895V196H474.757V196.392C475.392 196.019 475.975 195.832 476.507 195.832C477.441 195.832 478.085 196.107 478.439 196.658C478.794 197.209 478.971 198.058 478.971 199.206V203H477.095V199.262C477.095 198.665 477.025 198.226 476.885 197.946C476.745 197.657 476.465 197.512 476.045 197.512C475.663 197.512 475.294 197.577 474.939 197.708L474.771 197.764V203ZM486.584 193.2V203H484.722V202.706C484.068 203.014 483.504 203.168 483.028 203.168C482.01 203.168 481.301 202.874 480.9 202.286C480.498 201.698 480.298 200.769 480.298 199.5C480.298 198.221 480.536 197.293 481.012 196.714C481.497 196.126 482.225 195.832 483.196 195.832C483.494 195.832 483.91 195.879 484.442 195.972L484.708 196.028V193.2H486.584ZM484.512 201.32L484.708 201.278V197.596C484.194 197.503 483.737 197.456 483.336 197.456C482.58 197.456 482.202 198.128 482.202 199.472C482.202 200.2 482.286 200.718 482.454 201.026C482.622 201.334 482.897 201.488 483.28 201.488C483.672 201.488 484.082 201.432 484.512 201.32ZM493.679 198.184V201.096C493.698 201.32 493.735 201.479 493.791 201.572C493.847 201.656 493.964 201.717 494.141 201.754L494.085 203.168C493.609 203.168 493.227 203.135 492.937 203.07C492.657 203.005 492.373 202.874 492.083 202.678C491.411 203.005 490.725 203.168 490.025 203.168C488.579 203.168 487.855 202.403 487.855 200.872C487.855 200.125 488.056 199.598 488.457 199.29C488.859 198.973 489.475 198.786 490.305 198.73L491.803 198.618V198.184C491.803 197.895 491.738 197.699 491.607 197.596C491.477 197.484 491.267 197.428 490.977 197.428L488.345 197.54L488.289 196.238C489.288 195.967 490.235 195.832 491.131 195.832C492.037 195.832 492.685 196.019 493.077 196.392C493.479 196.765 493.679 197.363 493.679 198.184ZM490.529 200.032C490.007 200.079 489.745 200.359 489.745 200.872C489.745 201.385 489.974 201.642 490.431 201.642C490.786 201.642 491.173 201.586 491.593 201.474L491.803 201.418V199.92L490.529 200.032ZM495.468 203V196H497.33V196.742C498.114 196.275 498.86 195.972 499.57 195.832V197.722C498.814 197.881 498.165 198.044 497.624 198.212L497.344 198.31V203H495.468ZM506.627 193.2V203H504.765V202.706C504.111 203.014 503.547 203.168 503.071 203.168C502.053 203.168 501.344 202.874 500.943 202.286C500.541 201.698 500.341 200.769 500.341 199.5C500.341 198.221 500.579 197.293 501.055 196.714C501.54 196.126 502.268 195.832 503.239 195.832C503.537 195.832 503.953 195.879 504.485 195.972L504.751 196.028V193.2H506.627ZM504.555 201.32L504.751 201.278V197.596C504.237 197.503 503.78 197.456 503.379 197.456C502.623 197.456 502.245 198.128 502.245 199.472C502.245 200.2 502.329 200.718 502.497 201.026C502.665 201.334 502.94 201.488 503.323 201.488C503.715 201.488 504.125 201.432 504.555 201.32ZM508.36 203V196H510.236V203H508.36ZM508.36 195.104V193.2H510.236V195.104H508.36ZM511.676 197.68V196H516.87V197.68L513.93 201.32H516.87V203H511.676V201.32L514.616 197.68H511.676ZM519.867 200.298C519.876 200.727 519.988 201.04 520.203 201.236C520.427 201.423 520.744 201.516 521.155 201.516C522.023 201.516 522.798 201.488 523.479 201.432L523.871 201.39L523.899 202.776C522.826 203.037 521.855 203.168 520.987 203.168C519.932 203.168 519.167 202.888 518.691 202.328C518.215 201.768 517.977 200.858 517.977 199.598C517.977 197.087 519.008 195.832 521.071 195.832C523.106 195.832 524.123 196.887 524.123 198.996L523.983 200.298H519.867ZM522.275 198.87C522.275 198.31 522.186 197.923 522.009 197.708C521.832 197.484 521.519 197.372 521.071 197.372C520.632 197.372 520.32 197.489 520.133 197.722C519.956 197.946 519.862 198.329 519.853 198.87H522.275ZM531.414 193.2V203H529.552V202.706C528.898 203.014 528.334 203.168 527.858 203.168C526.84 203.168 526.131 202.874 525.73 202.286C525.328 201.698 525.128 200.769 525.128 199.5C525.128 198.221 525.366 197.293 525.842 196.714C526.327 196.126 527.055 195.832 528.026 195.832C528.324 195.832 528.74 195.879 529.272 195.972L529.538 196.028V193.2H531.414ZM529.342 201.32L529.538 201.278V197.596C529.024 197.503 528.567 197.456 528.166 197.456C527.41 197.456 527.032 198.128 527.032 199.472C527.032 200.2 527.116 200.718 527.284 201.026C527.452 201.334 527.727 201.488 528.11 201.488C528.502 201.488 528.912 201.432 529.342 201.32ZM535.593 203L537.735 193.48H541.403L543.545 203H541.613L541.235 201.278H537.903L537.525 203H535.593ZM539.233 195.076L538.267 199.598H540.871L539.905 195.076H539.233ZM546.521 203H544.645V196H546.507V196.392C547.142 196.019 547.725 195.832 548.257 195.832C549.191 195.832 549.835 196.107 550.189 196.658C550.544 197.209 550.721 198.058 550.721 199.206V203H548.845V199.262C548.845 198.665 548.775 198.226 548.635 197.946C548.495 197.657 548.215 197.512 547.795 197.512C547.413 197.512 547.044 197.577 546.689 197.708L546.521 197.764V203ZM557.746 198.184V201.096C557.764 201.32 557.802 201.479 557.858 201.572C557.914 201.656 558.03 201.717 558.208 201.754L558.152 203.168C557.676 203.168 557.293 203.135 557.004 203.07C556.724 203.005 556.439 202.874 556.15 202.678C555.478 203.005 554.792 203.168 554.092 203.168C552.645 203.168 551.922 202.403 551.922 200.872C551.922 200.125 552.122 199.598 552.524 199.29C552.925 198.973 553.541 198.786 554.372 198.73L555.87 198.618V198.184C555.87 197.895 555.804 197.699 555.674 197.596C555.543 197.484 555.333 197.428 555.044 197.428L552.412 197.54L552.356 196.238C553.354 195.967 554.302 195.832 555.198 195.832C556.103 195.832 556.752 196.019 557.144 196.392C557.545 196.765 557.746 197.363 557.746 198.184ZM554.596 200.032C554.073 200.079 553.812 200.359 553.812 200.872C553.812 201.385 554.04 201.642 554.498 201.642C554.852 201.642 555.24 201.586 555.66 201.474L555.87 201.418V199.92L554.596 200.032ZM559.618 203V193.2H561.494V203H559.618ZM562.663 196H564.511L565.785 201.404H566.107L567.381 196H569.229L566.765 205.94H564.931L565.701 203H564.385L562.663 196ZM574.185 197.596H572.463V200.466C572.463 200.746 572.468 200.947 572.477 201.068C572.496 201.18 572.547 201.278 572.631 201.362C572.725 201.446 572.865 201.488 573.051 201.488L574.115 201.46L574.199 202.958C573.574 203.098 573.098 203.168 572.771 203.168C571.931 203.168 571.357 202.981 571.049 202.608C570.741 202.225 570.587 201.525 570.587 200.508V197.596H569.761V196H570.587V194.054H572.463V196H574.185V197.596ZM575.407 203V196H577.283V203H575.407ZM575.407 195.104V193.2H577.283V195.104H575.407ZM581.634 195.832C582.12 195.832 582.74 195.907 583.496 196.056L583.874 196.14L583.818 197.624C583.081 197.549 582.535 197.512 582.18 197.512C581.536 197.512 581.107 197.652 580.892 197.932C580.687 198.203 580.584 198.721 580.584 199.486C580.584 200.251 580.687 200.779 580.892 201.068C581.107 201.348 581.541 201.488 582.194 201.488L583.818 201.376L583.874 202.874C582.876 203.07 582.115 203.168 581.592 203.168C580.556 203.168 579.81 202.879 579.352 202.3C578.904 201.712 578.68 200.774 578.68 199.486C578.68 198.198 578.914 197.269 579.38 196.7C579.847 196.121 580.598 195.832 581.634 195.832ZM590.29 197.75C589.133 197.601 588.321 197.526 587.854 197.526C587.397 197.526 587.098 197.568 586.958 197.652C586.828 197.736 586.762 197.871 586.762 198.058C586.762 198.235 586.851 198.361 587.028 198.436C587.215 198.501 587.682 198.604 588.428 198.744C589.184 198.875 589.721 199.094 590.038 199.402C590.356 199.71 590.514 200.209 590.514 200.9C590.514 202.412 589.576 203.168 587.7 203.168C587.084 203.168 586.338 203.084 585.46 202.916L585.012 202.832L585.068 201.264C586.226 201.413 587.028 201.488 587.476 201.488C587.934 201.488 588.242 201.446 588.4 201.362C588.568 201.269 588.652 201.133 588.652 200.956C588.652 200.779 588.564 200.648 588.386 200.564C588.218 200.48 587.77 200.377 587.042 200.256C586.324 200.135 585.787 199.929 585.432 199.64C585.078 199.351 584.9 198.837 584.9 198.1C584.9 197.353 585.152 196.793 585.656 196.42C586.16 196.037 586.809 195.846 587.602 195.846C588.153 195.846 588.904 195.935 589.856 196.112L590.318 196.196L590.29 197.75Z" fill="black"/>
<path d="M423.739 223.846C422.778 224.042 421.915 224.14 421.149 224.14C420.384 224.14 419.763 224.037 419.287 223.832C418.821 223.617 418.457 223.291 418.195 222.852C417.943 222.404 417.766 221.895 417.663 221.326C417.57 220.747 417.523 220.029 417.523 219.17C417.523 218.311 417.57 217.593 417.663 217.014C417.766 216.426 417.943 215.908 418.195 215.46C418.457 215.012 418.821 214.685 419.287 214.48C419.754 214.275 420.361 214.172 421.107 214.172C421.854 214.172 422.731 214.275 423.739 214.48L423.697 215.39C422.755 215.222 421.915 215.138 421.177 215.138C420.151 215.138 419.469 215.446 419.133 216.062C418.807 216.669 418.643 217.709 418.643 219.184C418.643 219.921 418.671 220.514 418.727 220.962C418.793 221.41 418.914 221.816 419.091 222.18C419.269 222.535 419.525 222.791 419.861 222.95C420.207 223.099 420.706 223.174 421.359 223.174C422.022 223.174 422.801 223.09 423.697 222.922L423.739 223.846ZM424.876 220.486C424.876 219.207 425.104 218.283 425.562 217.714C426.019 217.145 426.789 216.86 427.872 216.86C428.964 216.86 429.734 217.145 430.182 217.714C430.639 218.283 430.868 219.207 430.868 220.486C430.868 221.765 430.653 222.693 430.224 223.272C429.794 223.851 429.01 224.14 427.872 224.14C426.733 224.14 425.949 223.851 425.52 223.272C425.09 222.693 424.876 221.765 424.876 220.486ZM425.954 220.472C425.954 221.489 426.075 222.203 426.318 222.614C426.57 223.025 427.088 223.23 427.872 223.23C428.665 223.23 429.183 223.029 429.426 222.628C429.668 222.217 429.79 221.499 429.79 220.472C429.79 219.445 429.654 218.741 429.384 218.358C429.113 217.966 428.609 217.77 427.872 217.77C427.144 217.77 426.64 217.966 426.36 218.358C426.089 218.741 425.954 219.445 425.954 220.472ZM433.63 224H432.58V217H433.616V217.49C434.372 217.07 435.096 216.86 435.786 216.86C436.72 216.86 437.345 217.112 437.662 217.616C437.989 218.12 438.152 219.016 438.152 220.304V224H437.116V220.332C437.116 219.361 437.018 218.699 436.822 218.344C436.636 217.98 436.23 217.798 435.604 217.798C435.306 217.798 434.988 217.845 434.652 217.938C434.326 218.022 434.074 218.106 433.896 218.19L433.63 218.316V224ZM442.298 217.798C441.28 217.798 440.772 218.153 440.772 218.862C440.772 219.189 440.888 219.422 441.122 219.562C441.355 219.693 441.887 219.833 442.718 219.982C443.548 220.122 444.136 220.323 444.482 220.584C444.827 220.845 445 221.335 445 222.054C445 222.773 444.766 223.3 444.3 223.636C443.842 223.972 443.17 224.14 442.284 224.14C441.705 224.14 441.024 224.075 440.24 223.944L439.82 223.874L439.876 222.964C440.94 223.123 441.742 223.202 442.284 223.202C442.825 223.202 443.236 223.118 443.516 222.95C443.805 222.773 443.95 222.483 443.95 222.082C443.95 221.671 443.828 221.396 443.586 221.256C443.343 221.107 442.811 220.967 441.99 220.836C441.168 220.705 440.585 220.514 440.24 220.262C439.894 220.01 439.722 219.543 439.722 218.862C439.722 218.181 439.96 217.677 440.436 217.35C440.921 217.023 441.523 216.86 442.242 216.86C442.811 216.86 443.525 216.925 444.384 217.056L444.776 217.126L444.748 218.022C443.712 217.873 442.895 217.798 442.298 217.798ZM446.608 224V217H447.658V224H446.608ZM446.608 215.418V214.2H447.658V215.418H446.608ZM451.868 217.798C450.851 217.798 450.342 218.153 450.342 218.862C450.342 219.189 450.459 219.422 450.692 219.562C450.925 219.693 451.457 219.833 452.288 219.982C453.119 220.122 453.707 220.323 454.052 220.584C454.397 220.845 454.57 221.335 454.57 222.054C454.57 222.773 454.337 223.3 453.87 223.636C453.413 223.972 452.741 224.14 451.854 224.14C451.275 224.14 450.594 224.075 449.81 223.944L449.39 223.874L449.446 222.964C450.51 223.123 451.313 223.202 451.854 223.202C452.395 223.202 452.806 223.118 453.086 222.95C453.375 222.773 453.52 222.483 453.52 222.082C453.52 221.671 453.399 221.396 453.156 221.256C452.913 221.107 452.381 220.967 451.56 220.836C450.739 220.705 450.155 220.514 449.81 220.262C449.465 220.01 449.292 219.543 449.292 218.862C449.292 218.181 449.53 217.677 450.006 217.35C450.491 217.023 451.093 216.86 451.812 216.86C452.381 216.86 453.095 216.925 453.954 217.056L454.346 217.126L454.318 218.022C453.282 217.873 452.465 217.798 451.868 217.798ZM459.804 217.91H457.578V221.256C457.578 222.059 457.634 222.586 457.746 222.838C457.867 223.09 458.147 223.216 458.586 223.216L459.832 223.132L459.902 224C459.277 224.103 458.801 224.154 458.474 224.154C457.746 224.154 457.242 223.977 456.962 223.622C456.682 223.267 456.542 222.591 456.542 221.592V217.91H455.548V217H456.542V214.858H457.578V217H459.804V217.91ZM465.846 223.132L466.252 223.09L466.28 223.916C465.216 224.065 464.306 224.14 463.55 224.14C462.542 224.14 461.828 223.851 461.408 223.272C460.988 222.684 460.778 221.774 460.778 220.542C460.778 218.087 461.753 216.86 463.704 216.86C464.647 216.86 465.351 217.126 465.818 217.658C466.285 218.181 466.518 219.007 466.518 220.136L466.462 220.934H461.842C461.842 221.709 461.982 222.283 462.262 222.656C462.542 223.029 463.027 223.216 463.718 223.216C464.418 223.216 465.127 223.188 465.846 223.132ZM465.468 220.094C465.468 219.235 465.328 218.629 465.048 218.274C464.777 217.919 464.329 217.742 463.704 217.742C463.088 217.742 462.621 217.929 462.304 218.302C461.996 218.675 461.837 219.273 461.828 220.094H465.468ZM469.204 224H468.154V217H469.19V217.49C469.946 217.07 470.67 216.86 471.36 216.86C472.294 216.86 472.919 217.112 473.236 217.616C473.563 218.12 473.726 219.016 473.726 220.304V224H472.69V220.332C472.69 219.361 472.592 218.699 472.396 218.344C472.21 217.98 471.804 217.798 471.178 217.798C470.88 217.798 470.562 217.845 470.226 217.938C469.9 218.022 469.648 218.106 469.47 218.19L469.204 218.316V224ZM479.259 217.91H477.033V221.256C477.033 222.059 477.089 222.586 477.201 222.838C477.322 223.09 477.602 223.216 478.041 223.216L479.287 223.132L479.357 224C478.732 224.103 478.256 224.154 477.929 224.154C477.201 224.154 476.697 223.977 476.417 223.622C476.137 223.267 475.997 222.591 475.997 221.592V217.91H475.003V217H475.997V214.858H477.033V217H479.259V217.91ZM483.617 224V217H484.653V217.952C485.465 217.392 486.319 217.023 487.215 216.846V217.91C486.823 217.985 486.413 218.101 485.983 218.26C485.563 218.419 485.241 218.559 485.017 218.68L484.667 218.862V224H483.617ZM493.081 223.132L493.487 223.09L493.515 223.916C492.451 224.065 491.541 224.14 490.785 224.14C489.777 224.14 489.063 223.851 488.643 223.272C488.223 222.684 488.013 221.774 488.013 220.542C488.013 218.087 488.988 216.86 490.939 216.86C491.881 216.86 492.586 217.126 493.053 217.658C493.519 218.181 493.753 219.007 493.753 220.136L493.697 220.934H489.077C489.077 221.709 489.217 222.283 489.497 222.656C489.777 223.029 490.262 223.216 490.953 223.216C491.653 223.216 492.362 223.188 493.081 223.132ZM492.703 220.094C492.703 219.235 492.563 218.629 492.283 218.274C492.012 217.919 491.564 217.742 490.939 217.742C490.323 217.742 489.856 217.929 489.539 218.302C489.231 218.675 489.072 219.273 489.062 220.094H492.703ZM495.389 227.108V217H496.425V217.504C497.134 217.075 497.834 216.86 498.525 216.86C499.412 216.86 500.056 217.145 500.457 217.714C500.858 218.274 501.059 219.203 501.059 220.5C501.059 221.797 500.821 222.731 500.345 223.3C499.878 223.86 499.099 224.14 498.007 224.14C497.438 224.14 496.915 224.089 496.439 223.986V227.108H495.389ZM498.371 217.798C498.091 217.798 497.788 217.845 497.461 217.938C497.144 218.031 496.892 218.125 496.705 218.218L496.439 218.358V223.076C497.102 223.179 497.606 223.23 497.951 223.23C498.707 223.23 499.234 223.015 499.533 222.586C499.841 222.157 499.995 221.457 499.995 220.486C499.995 219.515 499.855 218.825 499.575 218.414C499.304 218.003 498.903 217.798 498.371 217.798ZM502.464 220.486C502.464 219.207 502.692 218.283 503.15 217.714C503.607 217.145 504.377 216.86 505.46 216.86C506.552 216.86 507.322 217.145 507.77 217.714C508.227 218.283 508.456 219.207 508.456 220.486C508.456 221.765 508.241 222.693 507.812 223.272C507.382 223.851 506.598 224.14 505.46 224.14C504.321 224.14 503.537 223.851 503.108 223.272C502.678 222.693 502.464 221.765 502.464 220.486ZM503.542 220.472C503.542 221.489 503.663 222.203 503.906 222.614C504.158 223.025 504.676 223.23 505.46 223.23C506.253 223.23 506.771 223.029 507.014 222.628C507.256 222.217 507.378 221.499 507.378 220.472C507.378 219.445 507.242 218.741 506.972 218.358C506.701 217.966 506.197 217.77 505.46 217.77C504.732 217.77 504.228 217.966 503.948 218.358C503.677 218.741 503.542 219.445 503.542 220.472ZM510.168 224V217H511.204V217.952C512.016 217.392 512.87 217.023 513.766 216.846V217.91C513.374 217.985 512.963 218.101 512.534 218.26C512.114 218.419 511.792 218.559 511.568 218.68L511.218 218.862V224H510.168ZM518.634 217.91H516.408V221.256C516.408 222.059 516.464 222.586 516.576 222.838C516.697 223.09 516.977 223.216 517.416 223.216L518.662 223.132L518.732 224C518.107 224.103 517.631 224.154 517.304 224.154C516.576 224.154 516.072 223.977 515.792 223.622C515.512 223.267 515.372 222.591 515.372 221.592V217.91H514.378V217H515.372V214.858H516.408V217H518.634V217.91ZM519.916 224V217H520.966V224H519.916ZM519.916 215.418V214.2H520.966V215.418H519.916ZM524.029 224H522.979V217H524.015V217.49C524.771 217.07 525.494 216.86 526.185 216.86C527.118 216.86 527.743 217.112 528.061 217.616C528.387 218.12 528.551 219.016 528.551 220.304V224H527.515V220.332C527.515 219.361 527.417 218.699 527.221 218.344C527.034 217.98 526.628 217.798 526.003 217.798C525.704 217.798 525.387 217.845 525.051 217.938C524.724 218.022 524.472 218.106 524.295 218.19L524.029 218.316V224ZM533.2 227.29C532.08 227.29 531.296 227.136 530.848 226.828C530.41 226.529 530.19 225.979 530.19 225.176C530.19 224.793 530.274 224.481 530.442 224.238C530.61 224.005 530.895 223.739 531.296 223.44C531.035 223.263 530.904 222.941 530.904 222.474C530.904 222.315 531.021 222.021 531.254 221.592L531.38 221.368C530.643 221.032 530.274 220.327 530.274 219.254C530.274 217.658 531.147 216.86 532.892 216.86C533.34 216.86 533.756 216.907 534.138 217L534.348 217.042L536.42 216.986V217.882L535.09 217.854C535.398 218.162 535.552 218.629 535.552 219.254C535.552 220.131 535.333 220.747 534.894 221.102C534.465 221.447 533.784 221.62 532.85 221.62C532.598 221.62 532.37 221.601 532.164 221.564C531.996 221.975 531.912 222.241 531.912 222.362C531.912 222.651 532.001 222.833 532.178 222.908C532.356 222.973 532.892 223.006 533.788 223.006C534.684 223.006 535.328 223.146 535.72 223.426C536.112 223.706 536.308 224.252 536.308 225.064C536.308 226.548 535.272 227.29 533.2 227.29ZM531.226 225.092C531.226 225.587 531.362 225.927 531.632 226.114C531.912 226.31 532.421 226.408 533.158 226.408C533.905 226.408 534.437 226.305 534.754 226.1C535.081 225.895 535.244 225.549 535.244 225.064C535.244 224.588 535.128 224.28 534.894 224.14C534.661 224 534.204 223.93 533.522 223.93L532.01 223.86C531.702 224.084 531.492 224.28 531.38 224.448C531.278 224.616 531.226 224.831 531.226 225.092ZM531.324 219.254C531.324 219.805 531.446 220.197 531.688 220.43C531.94 220.663 532.351 220.78 532.92 220.78C533.49 220.78 533.896 220.663 534.138 220.43C534.381 220.197 534.502 219.805 534.502 219.254C534.502 218.694 534.381 218.297 534.138 218.064C533.896 217.831 533.49 217.714 532.92 217.714C532.351 217.714 531.94 217.835 531.688 218.078C531.446 218.311 531.324 218.703 531.324 219.254ZM545.708 219.114V222.698C545.736 223.043 546.006 223.249 546.52 223.314L546.478 224.14C545.74 224.14 545.185 223.953 544.812 223.58C543.972 223.953 543.132 224.14 542.292 224.14C541.648 224.14 541.158 223.958 540.822 223.594C540.486 223.23 540.318 222.707 540.318 222.026C540.318 221.345 540.49 220.845 540.836 220.528C541.181 220.201 541.722 220.001 542.46 219.926L544.658 219.716V219.114C544.658 218.638 544.555 218.297 544.35 218.092C544.144 217.887 543.864 217.784 543.51 217.784C542.763 217.784 541.988 217.831 541.186 217.924L540.752 217.966L540.71 217.168C541.736 216.963 542.646 216.86 543.44 216.86C544.233 216.86 544.807 217.042 545.162 217.406C545.526 217.77 545.708 218.339 545.708 219.114ZM541.396 221.97C541.396 222.829 541.75 223.258 542.46 223.258C543.094 223.258 543.72 223.151 544.336 222.936L544.658 222.824V220.514L542.586 220.71C542.166 220.747 541.862 220.869 541.676 221.074C541.489 221.279 541.396 221.578 541.396 221.97ZM548.829 224H547.779V217H548.815V217.49C549.571 217.07 550.295 216.86 550.985 216.86C551.919 216.86 552.544 217.112 552.861 217.616C553.188 218.12 553.351 219.016 553.351 220.304V224H552.315V220.332C552.315 219.361 552.217 218.699 552.021 218.344C551.835 217.98 551.429 217.798 550.803 217.798C550.505 217.798 550.187 217.845 549.851 217.938C549.525 218.022 549.273 218.106 549.095 218.19L548.829 218.316V224ZM560.675 213.948V224H559.639V223.524C558.92 223.935 558.211 224.14 557.511 224.14C557.138 224.14 556.811 224.093 556.531 224C556.251 223.907 555.99 223.739 555.747 223.496C555.243 222.992 554.991 222.063 554.991 220.71C554.991 219.347 555.215 218.367 555.663 217.77C556.12 217.163 556.872 216.86 557.917 216.86C558.458 216.86 559.032 216.921 559.639 217.042V213.948H560.675ZM556.559 222.74C556.708 222.917 556.867 223.039 557.035 223.104C557.203 223.169 557.418 223.202 557.679 223.202C557.95 223.202 558.248 223.16 558.575 223.076C558.911 222.983 559.172 222.894 559.359 222.81L559.639 222.684V217.938C559.042 217.826 558.486 217.77 557.973 217.77C557.264 217.77 556.769 217.999 556.489 218.456C556.209 218.904 556.069 219.604 556.069 220.556C556.069 221.639 556.232 222.367 556.559 222.74ZM567.045 224H565.967V214.312H567.045V218.82L568.641 218.764L571.119 214.312H572.351L569.579 219.184L572.505 224H571.231L568.655 219.716L567.045 219.772V224ZM577.48 220.738H575.016V224H573.938V214.312H577.48C578.535 214.312 579.314 214.569 579.818 215.082C580.322 215.595 580.574 216.379 580.574 217.434C580.574 219.637 579.543 220.738 577.48 220.738ZM575.016 219.786H577.466C578.801 219.786 579.468 219.002 579.468 217.434C579.468 216.687 579.309 216.141 578.992 215.796C578.675 215.441 578.166 215.264 577.466 215.264H575.016V219.786ZM582.237 224V214.312H583.315V224H582.237ZM587.698 217.798C586.681 217.798 586.172 218.153 586.172 218.862C586.172 219.189 586.289 219.422 586.522 219.562C586.756 219.693 587.288 219.833 588.118 219.982C588.949 220.122 589.537 220.323 589.882 220.584C590.228 220.845 590.4 221.335 590.4 222.054C590.4 222.773 590.167 223.3 589.7 223.636C589.243 223.972 588.571 224.14 587.684 224.14C587.106 224.14 586.424 224.075 585.64 223.944L585.22 223.874L585.276 222.964C586.34 223.123 587.143 223.202 587.684 223.202C588.226 223.202 588.636 223.118 588.916 222.95C589.206 222.773 589.35 222.483 589.35 222.082C589.35 221.671 589.229 221.396 588.986 221.256C588.744 221.107 588.212 220.967 587.39 220.836C586.569 220.705 585.986 220.514 585.64 220.262C585.295 220.01 585.122 219.543 585.122 218.862C585.122 218.181 585.36 217.677 585.836 217.35C586.322 217.023 586.924 216.86 587.642 216.86C588.212 216.86 588.926 216.925 589.784 217.056L590.176 217.126L590.148 218.022C589.112 217.873 588.296 217.798 587.698 217.798Z" fill="black"/>
<path d="M435.396 307.822C435.396 308.933 435.96 309.488 437.09 309.488C438.219 309.488 438.784 308.933 438.784 307.822V301.48H440.716V307.78C440.716 308.947 440.412 309.805 439.806 310.356C439.208 310.897 438.303 311.168 437.09 311.168C435.876 311.168 434.966 310.897 434.36 310.356C433.762 309.805 433.464 308.947 433.464 307.78V301.48H435.396V307.822ZM444.348 311H442.472V304H444.334V304.392C444.968 304.019 445.552 303.832 446.084 303.832C447.017 303.832 447.661 304.107 448.016 304.658C448.37 305.209 448.548 306.058 448.548 307.206V311H446.672V307.262C446.672 306.665 446.602 306.226 446.462 305.946C446.322 305.657 446.042 305.512 445.622 305.512C445.239 305.512 444.87 305.577 444.516 305.708L444.348 305.764V311ZM450.21 311V304H452.086V311H450.21ZM450.21 303.104V301.2H452.086V303.104H450.21ZM456.031 305.596V311H454.155V305.596H453.399V304H454.155V303.692C454.155 302.684 454.305 301.989 454.603 301.606C454.902 301.223 455.434 301.032 456.199 301.032C456.535 301.032 456.969 301.079 457.501 301.172L457.795 301.214L457.767 302.74C457.357 302.721 457.011 302.712 456.731 302.712C456.451 302.712 456.265 302.787 456.171 302.936C456.078 303.085 456.031 303.342 456.031 303.706V304H457.725V305.596H456.031ZM458.823 311V304H460.699V311H458.823ZM458.823 303.104V301.2H460.699V303.104H458.823ZM463.972 308.298C463.982 308.727 464.094 309.04 464.308 309.236C464.532 309.423 464.85 309.516 465.26 309.516C466.128 309.516 466.903 309.488 467.584 309.432L467.976 309.39L468.004 310.776C466.931 311.037 465.96 311.168 465.092 311.168C464.038 311.168 463.272 310.888 462.796 310.328C462.32 309.768 462.082 308.858 462.082 307.598C462.082 305.087 463.114 303.832 465.176 303.832C467.211 303.832 468.228 304.887 468.228 306.996L468.088 308.298H463.972ZM466.38 306.87C466.38 306.31 466.292 305.923 466.114 305.708C465.937 305.484 465.624 305.372 465.176 305.372C464.738 305.372 464.425 305.489 464.238 305.722C464.061 305.946 463.968 306.329 463.958 306.87H466.38ZM475.519 301.2V311H473.657V310.706C473.004 311.014 472.439 311.168 471.963 311.168C470.946 311.168 470.237 310.874 469.835 310.286C469.434 309.698 469.233 308.769 469.233 307.5C469.233 306.221 469.471 305.293 469.947 304.714C470.433 304.126 471.161 303.832 472.131 303.832C472.43 303.832 472.845 303.879 473.377 303.972L473.643 304.028V301.2H475.519ZM473.447 309.32L473.643 309.278V305.596C473.13 305.503 472.673 305.456 472.271 305.456C471.515 305.456 471.137 306.128 471.137 307.472C471.137 308.2 471.221 308.718 471.389 309.026C471.557 309.334 471.833 309.488 472.215 309.488C472.607 309.488 473.018 309.432 473.447 309.32ZM483.703 311H480.497V301.48H483.703C484.524 301.48 485.201 301.569 485.733 301.746C486.265 301.914 486.676 302.199 486.965 302.6C487.264 302.992 487.469 303.459 487.581 304C487.693 304.532 487.749 305.227 487.749 306.086C487.749 306.945 487.698 307.659 487.595 308.228C487.492 308.788 487.296 309.292 487.007 309.74C486.727 310.179 486.316 310.501 485.775 310.706C485.234 310.902 484.543 311 483.703 311ZM485.733 307.22C485.752 306.921 485.761 306.511 485.761 305.988C485.761 305.456 485.742 305.031 485.705 304.714C485.668 304.397 485.579 304.107 485.439 303.846C485.299 303.585 485.089 303.407 484.809 303.314C484.538 303.211 484.17 303.16 483.703 303.16H482.429V309.32H483.703C484.403 309.32 484.912 309.143 485.229 308.788C485.5 308.499 485.668 307.976 485.733 307.22ZM494.619 306.184V309.096C494.637 309.32 494.675 309.479 494.731 309.572C494.787 309.656 494.903 309.717 495.081 309.754L495.025 311.168C494.549 311.168 494.166 311.135 493.877 311.07C493.597 311.005 493.312 310.874 493.023 310.678C492.351 311.005 491.665 311.168 490.965 311.168C489.518 311.168 488.795 310.403 488.795 308.872C488.795 308.125 488.995 307.598 489.397 307.29C489.798 306.973 490.414 306.786 491.245 306.73L492.743 306.618V306.184C492.743 305.895 492.677 305.699 492.547 305.596C492.416 305.484 492.206 305.428 491.917 305.428L489.285 305.54L489.229 304.238C490.227 303.967 491.175 303.832 492.071 303.832C492.976 303.832 493.625 304.019 494.017 304.392C494.418 304.765 494.619 305.363 494.619 306.184ZM491.469 308.032C490.946 308.079 490.685 308.359 490.685 308.872C490.685 309.385 490.913 309.642 491.371 309.642C491.725 309.642 492.113 309.586 492.533 309.474L492.743 309.418V307.92L491.469 308.032ZM500.285 305.596H498.563V308.466C498.563 308.746 498.568 308.947 498.577 309.068C498.596 309.18 498.647 309.278 498.731 309.362C498.824 309.446 498.964 309.488 499.151 309.488L500.215 309.46L500.299 310.958C499.674 311.098 499.198 311.168 498.871 311.168C498.031 311.168 497.457 310.981 497.149 310.608C496.841 310.225 496.687 309.525 496.687 308.508V305.596H495.861V304H496.687V302.054H498.563V304H500.285V305.596ZM506.869 306.184V309.096C506.887 309.32 506.925 309.479 506.981 309.572C507.037 309.656 507.153 309.717 507.331 309.754L507.275 311.168C506.799 311.168 506.416 311.135 506.127 311.07C505.847 311.005 505.562 310.874 505.273 310.678C504.601 311.005 503.915 311.168 503.215 311.168C501.768 311.168 501.045 310.403 501.045 308.872C501.045 308.125 501.245 307.598 501.647 307.29C502.048 306.973 502.664 306.786 503.495 306.73L504.993 306.618V306.184C504.993 305.895 504.927 305.699 504.797 305.596C504.666 305.484 504.456 305.428 504.167 305.428L501.535 305.54L501.479 304.238C502.477 303.967 503.425 303.832 504.321 303.832C505.226 303.832 505.875 304.019 506.267 304.392C506.668 304.765 506.869 305.363 506.869 306.184ZM503.719 308.032C503.196 308.079 502.935 308.359 502.935 308.872C502.935 309.385 503.163 309.642 503.621 309.642C503.975 309.642 504.363 309.586 504.783 309.474L504.993 309.418V307.92L503.719 308.032ZM511.901 311V301.48H518.061V303.16H513.833V305.386H517.221V307.038H513.833V309.32H518.061V311H511.901ZM521.361 311H519.485V304H521.347V304.392C521.982 304.019 522.565 303.832 523.097 303.832C524.031 303.832 524.675 304.107 525.029 304.658C525.384 305.209 525.561 306.058 525.561 307.206V311H523.685V307.262C523.685 306.665 523.615 306.226 523.475 305.946C523.335 305.657 523.055 305.512 522.635 305.512C522.253 305.512 521.884 305.577 521.529 305.708L521.361 305.764V311ZM526.511 304H528.471L529.591 309.404H529.983L531.159 304H533.063L531.383 311H528.191L526.511 304ZM534.141 311V304H536.017V311H534.141ZM534.141 303.104V301.2H536.017V303.104H534.141ZM537.751 311V304H539.613V304.742C540.397 304.275 541.143 303.972 541.853 303.832V305.722C541.097 305.881 540.448 306.044 539.907 306.212L539.627 306.31V311H537.751ZM543.338 304.798C543.832 304.154 544.658 303.832 545.816 303.832C546.973 303.832 547.799 304.154 548.294 304.798C548.788 305.433 549.036 306.329 549.036 307.486C549.036 309.941 547.962 311.168 545.816 311.168C543.669 311.168 542.596 309.941 542.596 307.486C542.596 306.329 542.843 305.433 543.338 304.798ZM544.78 309.068C544.976 309.404 545.321 309.572 545.816 309.572C546.31 309.572 546.651 309.404 546.838 309.068C547.034 308.732 547.132 308.205 547.132 307.486C547.132 306.767 547.034 306.245 546.838 305.918C546.651 305.591 546.31 305.428 545.816 305.428C545.321 305.428 544.976 305.591 544.78 305.918C544.593 306.245 544.5 306.767 544.5 307.486C544.5 308.205 544.593 308.732 544.78 309.068ZM552.287 311H550.411V304H552.273V304.392C552.908 304.019 553.491 303.832 554.023 303.832C554.956 303.832 555.6 304.107 555.955 304.658C556.31 305.209 556.487 306.058 556.487 307.206V311H554.611V307.262C554.611 306.665 554.541 306.226 554.401 305.946C554.261 305.657 553.981 305.512 553.561 305.512C553.178 305.512 552.81 305.577 552.455 305.708L552.287 305.764V311ZM560.025 311H558.149V304H560.011V304.392C560.655 304.019 561.206 303.832 561.663 303.832C562.419 303.832 563.003 304.051 563.413 304.49C564.272 304.051 565.056 303.832 565.765 303.832C566.689 303.832 567.329 304.103 567.683 304.644C568.047 305.176 568.229 306.03 568.229 307.206V311H566.353V307.262C566.353 306.665 566.288 306.226 566.157 305.946C566.027 305.657 565.765 305.512 565.373 305.512C565.075 305.512 564.711 305.577 564.281 305.708L564.071 305.778C564.109 306.478 564.127 307.01 564.127 307.374V311H562.251V307.402C562.251 306.711 562.191 306.226 562.069 305.946C561.948 305.657 561.682 305.512 561.271 305.512C560.907 305.512 560.548 305.577 560.193 305.708L560.025 305.764V311ZM571.433 308.298C571.443 308.727 571.555 309.04 571.769 309.236C571.993 309.423 572.311 309.516 572.721 309.516C573.589 309.516 574.364 309.488 575.045 309.432L575.437 309.39L575.465 310.776C574.392 311.037 573.421 311.168 572.553 311.168C571.499 311.168 570.733 310.888 570.257 310.328C569.781 309.768 569.543 308.858 569.543 307.598C569.543 305.087 570.575 303.832 572.637 303.832C574.672 303.832 575.689 304.887 575.689 306.996L575.549 308.298H571.433ZM573.841 306.87C573.841 306.31 573.753 305.923 573.575 305.708C573.398 305.484 573.085 305.372 572.637 305.372C572.199 305.372 571.886 305.489 571.699 305.722C571.522 305.946 571.429 306.329 571.419 306.87H573.841ZM578.906 311H577.03V304H578.892V304.392C579.527 304.019 580.11 303.832 580.642 303.832C581.575 303.832 582.219 304.107 582.574 304.658C582.929 305.209 583.106 306.058 583.106 307.206V311H581.23V307.262C581.23 306.665 581.16 306.226 581.02 305.946C580.88 305.657 580.6 305.512 580.18 305.512C579.797 305.512 579.429 305.577 579.074 305.708L578.906 305.764V311ZM588.646 305.596H586.924V308.466C586.924 308.746 586.929 308.947 586.938 309.068C586.957 309.18 587.008 309.278 587.092 309.362C587.186 309.446 587.326 309.488 587.512 309.488L588.576 309.46L588.66 310.958C588.035 311.098 587.559 311.168 587.232 311.168C586.392 311.168 585.818 310.981 585.51 310.608C585.202 310.225 585.048 309.525 585.048 308.508V305.596H584.222V304H585.048V302.054H586.924V304H588.646V305.596Z" fill="black"/>
<path d="M467.192 323.11C465.792 323.11 465.092 323.637 465.092 324.692C465.092 325.28 465.251 325.686 465.568 325.91C465.895 326.125 466.548 326.344 467.528 326.568C468.517 326.783 469.217 327.067 469.628 327.422C470.039 327.767 470.244 328.341 470.244 329.144C470.244 331.132 469.213 332.126 467.15 332.126C466.469 332.126 465.615 332.047 464.588 331.888L464.084 331.818L464.196 330.922C465.465 331.09 466.431 331.174 467.094 331.174C468.475 331.174 469.166 330.525 469.166 329.228C469.166 328.705 469.012 328.332 468.704 328.108C468.405 327.875 467.841 327.679 467.01 327.52C465.918 327.287 465.143 326.988 464.686 326.624C464.229 326.251 464 325.63 464 324.762C464 323.026 465.041 322.158 467.122 322.158C467.803 322.158 468.62 322.228 469.572 322.368L470.048 322.438L469.95 323.348C468.653 323.189 467.733 323.11 467.192 323.11ZM471.924 332V325H472.974V332H471.924ZM471.924 323.418V322.2H472.974V323.418H471.924ZM476.037 332H474.987V325H476.023V325.49C476.779 325.07 477.502 324.86 478.193 324.86C479.126 324.86 479.751 325.112 480.069 325.616C480.395 326.12 480.559 327.016 480.559 328.304V332H479.523V328.332C479.523 327.361 479.425 326.699 479.229 326.344C479.042 325.98 478.636 325.798 478.011 325.798C477.712 325.798 477.395 325.845 477.059 325.938C476.732 326.022 476.48 326.106 476.303 326.19L476.037 326.316V332ZM485.208 335.29C484.088 335.29 483.304 335.136 482.856 334.828C482.417 334.529 482.198 333.979 482.198 333.176C482.198 332.793 482.282 332.481 482.45 332.238C482.618 332.005 482.903 331.739 483.304 331.44C483.043 331.263 482.912 330.941 482.912 330.474C482.912 330.315 483.029 330.021 483.262 329.592L483.388 329.368C482.651 329.032 482.282 328.327 482.282 327.254C482.282 325.658 483.155 324.86 484.9 324.86C485.348 324.86 485.763 324.907 486.146 325L486.356 325.042L488.428 324.986V325.882L487.098 325.854C487.406 326.162 487.56 326.629 487.56 327.254C487.56 328.131 487.341 328.747 486.902 329.102C486.473 329.447 485.791 329.62 484.858 329.62C484.606 329.62 484.377 329.601 484.172 329.564C484.004 329.975 483.92 330.241 483.92 330.362C483.92 330.651 484.009 330.833 484.186 330.908C484.363 330.973 484.9 331.006 485.796 331.006C486.692 331.006 487.336 331.146 487.728 331.426C488.12 331.706 488.316 332.252 488.316 333.064C488.316 334.548 487.28 335.29 485.208 335.29ZM483.234 333.092C483.234 333.587 483.369 333.927 483.64 334.114C483.92 334.31 484.429 334.408 485.166 334.408C485.913 334.408 486.445 334.305 486.762 334.1C487.089 333.895 487.252 333.549 487.252 333.064C487.252 332.588 487.135 332.28 486.902 332.14C486.669 332 486.211 331.93 485.53 331.93L484.018 331.86C483.71 332.084 483.5 332.28 483.388 332.448C483.285 332.616 483.234 332.831 483.234 333.092ZM483.332 327.254C483.332 327.805 483.453 328.197 483.696 328.43C483.948 328.663 484.359 328.78 484.928 328.78C485.497 328.78 485.903 328.663 486.146 328.43C486.389 328.197 486.51 327.805 486.51 327.254C486.51 326.694 486.389 326.297 486.146 326.064C485.903 325.831 485.497 325.714 484.928 325.714C484.359 325.714 483.948 325.835 483.696 326.078C483.453 326.311 483.332 326.703 483.332 327.254ZM489.781 332V321.948H490.831V332H489.781ZM497.698 331.132L498.104 331.09L498.132 331.916C497.068 332.065 496.158 332.14 495.402 332.14C494.394 332.14 493.68 331.851 493.26 331.272C492.84 330.684 492.63 329.774 492.63 328.542C492.63 326.087 493.605 324.86 495.556 324.86C496.498 324.86 497.203 325.126 497.67 325.658C498.136 326.181 498.37 327.007 498.37 328.136L498.314 328.934H493.694C493.694 329.709 493.834 330.283 494.114 330.656C494.394 331.029 494.879 331.216 495.57 331.216C496.27 331.216 496.979 331.188 497.698 331.132ZM497.32 328.094C497.32 327.235 497.18 326.629 496.9 326.274C496.629 325.919 496.181 325.742 495.556 325.742C494.94 325.742 494.473 325.929 494.156 326.302C493.848 326.675 493.689 327.273 493.68 328.094H497.32ZM505.28 325.798C504.263 325.798 503.754 326.153 503.754 326.862C503.754 327.189 503.871 327.422 504.104 327.562C504.338 327.693 504.87 327.833 505.7 327.982C506.531 328.122 507.119 328.323 507.464 328.584C507.81 328.845 507.982 329.335 507.982 330.054C507.982 330.773 507.749 331.3 507.282 331.636C506.825 331.972 506.153 332.14 505.266 332.14C504.688 332.14 504.006 332.075 503.222 331.944L502.802 331.874L502.858 330.964C503.922 331.123 504.725 331.202 505.266 331.202C505.808 331.202 506.218 331.118 506.498 330.95C506.788 330.773 506.932 330.483 506.932 330.082C506.932 329.671 506.811 329.396 506.568 329.256C506.326 329.107 505.794 328.967 504.972 328.836C504.151 328.705 503.568 328.514 503.222 328.262C502.877 328.01 502.704 327.543 502.704 326.862C502.704 326.181 502.942 325.677 503.418 325.35C503.904 325.023 504.506 324.86 505.224 324.86C505.794 324.86 506.508 324.925 507.366 325.056L507.758 325.126L507.73 326.022C506.694 325.873 505.878 325.798 505.28 325.798ZM509.282 328.486C509.282 327.207 509.511 326.283 509.968 325.714C510.425 325.145 511.195 324.86 512.278 324.86C513.37 324.86 514.14 325.145 514.588 325.714C515.045 326.283 515.274 327.207 515.274 328.486C515.274 329.765 515.059 330.693 514.63 331.272C514.201 331.851 513.417 332.14 512.278 332.14C511.139 332.14 510.355 331.851 509.926 331.272C509.497 330.693 509.282 329.765 509.282 328.486ZM510.36 328.472C510.36 329.489 510.481 330.203 510.724 330.614C510.976 331.025 511.494 331.23 512.278 331.23C513.071 331.23 513.589 331.029 513.832 330.628C514.075 330.217 514.196 329.499 514.196 328.472C514.196 327.445 514.061 326.741 513.79 326.358C513.519 325.966 513.015 325.77 512.278 325.77C511.55 325.77 511.046 325.966 510.766 326.358C510.495 326.741 510.36 327.445 510.36 328.472ZM521.355 325H522.405V332H521.355V331.51C520.655 331.93 519.964 332.14 519.283 332.14C518.331 332.14 517.696 331.893 517.379 331.398C517.071 330.903 516.917 329.989 516.917 328.654V325H517.967V328.64C517.967 329.657 518.055 330.339 518.233 330.684C518.41 331.029 518.811 331.202 519.437 331.202C519.745 331.202 520.057 331.16 520.375 331.076C520.692 330.983 520.935 330.894 521.103 330.81L521.355 330.684V325ZM524.424 332V325H525.46V325.952C526.272 325.392 527.126 325.023 528.022 324.846V325.91C527.63 325.985 527.219 326.101 526.79 326.26C526.37 326.419 526.048 326.559 525.824 326.68L525.474 326.862V332H524.424ZM531.745 324.86C532.053 324.86 532.576 324.916 533.313 325.028L533.649 325.07L533.607 325.924C532.86 325.84 532.31 325.798 531.955 325.798C531.162 325.798 530.62 325.989 530.331 326.372C530.051 326.745 529.911 327.445 529.911 328.472C529.911 329.489 530.042 330.199 530.303 330.6C530.574 331.001 531.129 331.202 531.969 331.202L533.621 331.076L533.663 331.944C532.795 332.075 532.146 332.14 531.717 332.14C530.625 332.14 529.869 331.86 529.449 331.3C529.038 330.74 528.833 329.797 528.833 328.472C528.833 327.137 529.057 326.204 529.505 325.672C529.953 325.131 530.7 324.86 531.745 324.86ZM539.903 331.132L540.309 331.09L540.337 331.916C539.273 332.065 538.363 332.14 537.607 332.14C536.599 332.14 535.885 331.851 535.465 331.272C535.045 330.684 534.835 329.774 534.835 328.542C534.835 326.087 535.81 324.86 537.761 324.86C538.703 324.86 539.408 325.126 539.875 325.658C540.341 326.181 540.575 327.007 540.575 328.136L540.519 328.934H535.899C535.899 329.709 536.039 330.283 536.319 330.656C536.599 331.029 537.084 331.216 537.775 331.216C538.475 331.216 539.184 331.188 539.903 331.132ZM539.525 328.094C539.525 327.235 539.385 326.629 539.105 326.274C538.834 325.919 538.386 325.742 537.761 325.742C537.145 325.742 536.678 325.929 536.361 326.302C536.053 326.675 535.894 327.273 535.885 328.094H539.525ZM544.979 328.486C544.979 327.207 545.208 326.283 545.665 325.714C546.123 325.145 546.893 324.86 547.975 324.86C549.067 324.86 549.837 325.145 550.285 325.714C550.743 326.283 550.971 327.207 550.971 328.486C550.971 329.765 550.757 330.693 550.327 331.272C549.898 331.851 549.114 332.14 547.975 332.14C546.837 332.14 546.053 331.851 545.623 331.272C545.194 330.693 544.979 329.765 544.979 328.486ZM546.057 328.472C546.057 329.489 546.179 330.203 546.421 330.614C546.673 331.025 547.191 331.23 547.975 331.23C548.769 331.23 549.287 331.029 549.529 330.628C549.772 330.217 549.893 329.499 549.893 328.472C549.893 327.445 549.758 326.741 549.487 326.358C549.217 325.966 548.713 325.77 547.975 325.77C547.247 325.77 546.743 325.966 546.463 326.358C546.193 326.741 546.057 327.445 546.057 328.472ZM554.028 325.91V332H552.978V325.91H552.096V325H552.978V324.37C552.978 323.381 553.118 322.709 553.398 322.354C553.678 321.99 554.168 321.808 554.868 321.808L556.282 321.906L556.268 322.774C555.745 322.755 555.311 322.746 554.966 322.746C554.63 322.746 554.387 322.858 554.238 323.082C554.098 323.306 554.028 323.74 554.028 324.384V325H556.058V325.91H554.028ZM564.021 325.91H561.795V329.256C561.795 330.059 561.851 330.586 561.963 330.838C562.084 331.09 562.364 331.216 562.803 331.216L564.049 331.132L564.119 332C563.493 332.103 563.017 332.154 562.691 332.154C561.963 332.154 561.459 331.977 561.179 331.622C560.899 331.267 560.759 330.591 560.759 329.592V325.91H559.765V325H560.759V322.858H561.795V325H564.021V325.91ZM565.303 332V325H566.339V325.952C567.151 325.392 568.005 325.023 568.901 324.846V325.91C568.509 325.985 568.098 326.101 567.669 326.26C567.249 326.419 566.927 326.559 566.703 326.68L566.353 326.862V332H565.303ZM574.511 325H575.561V332H574.511V331.51C573.811 331.93 573.12 332.14 572.439 332.14C571.487 332.14 570.852 331.893 570.535 331.398C570.227 330.903 570.073 329.989 570.073 328.654V325H571.123V328.64C571.123 329.657 571.211 330.339 571.389 330.684C571.566 331.029 571.967 331.202 572.593 331.202C572.901 331.202 573.213 331.16 573.531 331.076C573.848 330.983 574.091 330.894 574.259 330.81L574.511 330.684V325ZM581.206 325.91H578.98V329.256C578.98 330.059 579.036 330.586 579.148 330.838C579.27 331.09 579.55 331.216 579.988 331.216L581.234 331.132L581.304 332C580.679 332.103 580.203 332.154 579.876 332.154C579.148 332.154 578.644 331.977 578.364 331.622C578.084 331.267 577.944 330.591 577.944 329.592V325.91H576.95V325H577.944V322.858H578.98V325H581.206V325.91ZM583.538 332H582.488V321.948H583.538V325.392C584.285 325.037 585.004 324.86 585.694 324.86C586.628 324.86 587.253 325.112 587.57 325.616C587.897 326.12 588.06 327.016 588.06 328.304V332H587.01V328.332C587.01 327.361 586.912 326.699 586.716 326.344C586.53 325.98 586.128 325.798 585.512 325.798C584.924 325.798 584.355 325.905 583.804 326.12L583.538 326.218V332Z" fill="black"/>
<path d="M217.018 102.76V112H215.086V104.944L213.084 106.232L212.202 104.79L215.254 102.76H217.018Z" fill="black"/>
<path d="M218.068 202H212.076V200.362L214.05 198.36C214.75 197.641 215.235 197.091 215.506 196.708C215.786 196.325 215.926 195.919 215.926 195.49C215.926 195.051 215.809 194.743 215.576 194.566C215.352 194.389 215.03 194.3 214.61 194.3C213.985 194.3 213.303 194.356 212.566 194.468L212.23 194.51L212.132 193.012C213.047 192.732 213.994 192.592 214.974 192.592C216.934 192.592 217.914 193.474 217.914 195.238C217.914 195.929 217.765 196.526 217.466 197.03C217.167 197.534 216.626 198.145 215.842 198.864L214.232 200.32H218.068V202Z" fill="black"/>
<path d="M212.034 292.096C212.893 291.76 213.849 291.592 214.904 291.592C215.968 291.592 216.743 291.797 217.228 292.208C217.713 292.609 217.956 293.258 217.956 294.154C217.956 295.05 217.597 295.736 216.878 296.212C217.326 296.455 217.643 296.707 217.83 296.968C218.026 297.229 218.124 297.645 218.124 298.214C218.124 299.213 217.872 299.955 217.368 300.44C216.873 300.925 216.075 301.168 214.974 301.168C214.162 301.168 213.308 301.047 212.412 300.804L211.964 300.692L212.062 299.222C213.107 299.399 213.985 299.488 214.694 299.488C215.655 299.488 216.136 299.077 216.136 298.256C216.136 297.911 216.01 297.635 215.758 297.43C215.515 297.225 215.193 297.122 214.792 297.122H212.93V295.526H214.792C215.1 295.526 215.371 295.395 215.604 295.134C215.847 294.873 215.968 294.583 215.968 294.266C215.968 293.603 215.506 293.272 214.582 293.272C213.938 293.272 213.252 293.337 212.524 293.468L212.16 293.524L212.034 292.096Z" fill="black"/>
</g>
<defs>
<linearGradient id="paint0_linear_3876_27278" x1="213.635" y1="43" x2="213.635" y2="345.184" gradientUnits="userSpaceOnUse">
<stop stop-color="#FFE09F"/>
<stop offset="1" stop-color="#FFB216"/>
</linearGradient>
<linearGradient id="paint1_linear_3876_27278" x1="213.635" y1="43" x2="213.635" y2="345.184" gradientUnits="userSpaceOnUse">
<stop stop-color="#FFE09F"/>
<stop offset="1" stop-color="#FFB216"/>
</linearGradient>
<linearGradient id="paint2_linear_3876_27278" x1="213.635" y1="43" x2="213.635" y2="345.184" gradientUnits="userSpaceOnUse">
<stop stop-color="#FFE09F"/>
<stop offset="1" stop-color="#FFB216"/>
</linearGradient>
<clipPath id="clip0_3876_27278">
<rect width="631" height="392" fill="white"/>
</clipPath>
</defs>
</svg>
