<svg width="623" height="321" viewBox="0 0 623 321" fill="none" xmlns="http://www.w3.org/2000/svg">
<path d="M622.672 222.302H620.74V225.382C620.74 225.952 620.782 226.33 620.866 226.516C620.95 226.703 621.165 226.796 621.51 226.796L622.658 226.754L622.728 227.972C622.103 228.094 621.627 228.154 621.3 228.154C620.507 228.154 619.961 227.972 619.662 227.608C619.373 227.244 619.228 226.558 619.228 225.55V222.302H618.332V221H619.228V218.97H620.74V221H622.672V222.302Z" fill="black"/>
<path d="M612.79 228H611.264V221H612.776V221.434C613.457 221.042 614.101 220.846 614.708 220.846C615.641 220.846 616.276 221.112 616.612 221.644C616.957 222.167 617.13 223.035 617.13 224.248V228H615.618V224.29C615.618 223.534 615.534 222.998 615.366 222.68C615.207 222.363 614.876 222.204 614.372 222.204C613.896 222.204 613.438 222.298 613 222.484L612.79 222.568V228Z" fill="black"/>
<path d="M609.138 226.74L609.53 226.698L609.558 227.832C608.494 228.047 607.552 228.154 606.73 228.154C605.694 228.154 604.948 227.87 604.49 227.3C604.042 226.731 603.818 225.821 603.818 224.57C603.818 222.088 604.831 220.846 606.856 220.846C608.816 220.846 609.796 221.915 609.796 224.052L609.698 225.144H605.358C605.368 225.723 605.494 226.148 605.736 226.418C605.979 226.689 606.432 226.824 607.094 226.824C607.757 226.824 608.438 226.796 609.138 226.74ZM608.298 223.968C608.298 223.278 608.186 222.797 607.962 222.526C607.748 222.246 607.379 222.106 606.856 222.106C606.334 222.106 605.951 222.251 605.708 222.54C605.475 222.83 605.354 223.306 605.344 223.968H608.298Z" fill="black"/>
<path d="M593.95 228H592.424V221H593.936V221.434C594.598 221.042 595.205 220.846 595.756 220.846C596.568 220.846 597.16 221.075 597.534 221.532C598.383 221.075 599.228 220.846 600.068 220.846C600.908 220.846 601.5 221.108 601.846 221.63C602.191 222.144 602.364 223.016 602.364 224.248V228H600.852V224.29C600.852 223.534 600.772 222.998 600.614 222.68C600.464 222.363 600.147 222.204 599.662 222.204C599.242 222.204 598.789 222.298 598.304 222.484L598.066 222.582C598.14 222.769 598.178 223.366 598.178 224.374V228H596.666V224.402C596.666 223.572 596.591 222.998 596.442 222.68C596.292 222.363 595.966 222.204 595.462 222.204C594.995 222.204 594.561 222.298 594.16 222.484L593.95 222.568V228Z" fill="black"/>
<path d="M586.307 228H584.781V221H586.293V221.434C586.975 221.042 587.619 220.846 588.225 220.846C589.159 220.846 589.793 221.112 590.129 221.644C590.475 222.167 590.647 223.035 590.647 224.248V228H589.135V224.29C589.135 223.534 589.051 222.998 588.883 222.68C588.725 222.363 588.393 222.204 587.889 222.204C587.413 222.204 586.956 222.298 586.517 222.484L586.307 222.568V228Z" fill="black"/>
<path d="M577.735 221.756C578.221 221.15 579.023 220.846 580.143 220.846C581.263 220.846 582.061 221.15 582.537 221.756C583.023 222.363 583.265 223.273 583.265 224.486C583.265 225.7 583.032 226.614 582.565 227.23C582.099 227.846 581.291 228.154 580.143 228.154C578.995 228.154 578.188 227.846 577.721 227.23C577.255 226.614 577.021 225.7 577.021 224.486C577.021 223.273 577.259 222.363 577.735 221.756ZM578.883 226.306C579.098 226.68 579.518 226.866 580.143 226.866C580.769 226.866 581.189 226.68 581.403 226.306C581.618 225.933 581.725 225.322 581.725 224.472C581.725 223.623 581.609 223.021 581.375 222.666C581.151 222.312 580.741 222.134 580.143 222.134C579.546 222.134 579.131 222.312 578.897 222.666C578.673 223.021 578.561 223.623 578.561 224.472C578.561 225.322 578.669 225.933 578.883 226.306Z" fill="black"/>
<path d="M572.354 228V221H573.866V221.84C574.659 221.327 575.452 220.996 576.246 220.846V222.372C575.443 222.531 574.757 222.736 574.188 222.988L573.88 223.114V228H572.354Z" fill="black"/>
<path d="M568.977 228V221H570.503V228H568.977ZM568.977 219.81V218.2H570.503V219.81H568.977Z" fill="black"/>
<path d="M561.441 221H563.037L564.381 226.698H564.829L566.229 221H567.783L565.963 228H563.247L561.441 221Z" fill="black"/>
<path d="M556.051 228H554.525V221H556.037V221.434C556.719 221.042 557.363 220.846 557.969 220.846C558.903 220.846 559.537 221.112 559.873 221.644C560.219 222.167 560.391 223.035 560.391 224.248V228H558.879V224.29C558.879 223.534 558.795 222.998 558.627 222.68C558.469 222.363 558.137 222.204 557.633 222.204C557.157 222.204 556.7 222.298 556.261 222.484L556.051 222.568V228Z" fill="black"/>
<path d="M546.97 228V218.41H553.018V219.768H548.524V222.484H552.178V223.828H548.524V226.628H553.018V228H546.97Z" fill="black"/>
<path d="M541.795 223.156V226.348C541.804 226.554 541.856 226.708 541.949 226.81C542.052 226.904 542.206 226.964 542.411 226.992L542.369 228.154C541.566 228.154 540.946 227.982 540.507 227.636C539.76 227.982 539.009 228.154 538.253 228.154C536.862 228.154 536.167 227.412 536.167 225.928C536.167 225.219 536.354 224.706 536.727 224.388C537.11 224.071 537.693 223.88 538.477 223.814L540.283 223.66V223.156C540.283 222.783 540.199 222.522 540.031 222.372C539.872 222.223 539.634 222.148 539.317 222.148C538.72 222.148 537.973 222.186 537.077 222.26L536.629 222.288L536.573 221.21C537.59 220.968 538.524 220.846 539.373 220.846C540.232 220.846 540.848 221.033 541.221 221.406C541.604 221.77 541.795 222.354 541.795 223.156ZM538.659 224.892C538.015 224.948 537.693 225.298 537.693 225.942C537.693 226.586 537.978 226.908 538.547 226.908C539.014 226.908 539.508 226.834 540.031 226.684L540.283 226.6V224.738L538.659 224.892Z" fill="black"/>
<path d="M535.363 222.302H533.431V225.382C533.431 225.952 533.473 226.33 533.557 226.516C533.641 226.703 533.856 226.796 534.201 226.796L535.349 226.754L535.419 227.972C534.794 228.094 534.318 228.154 533.991 228.154C533.198 228.154 532.652 227.972 532.353 227.608C532.064 227.244 531.919 226.558 531.919 225.55V222.302H531.023V221H531.919V218.97H533.431V221H535.363V222.302Z" fill="black"/>
<path d="M529.682 223.156V226.348C529.691 226.554 529.742 226.708 529.836 226.81C529.938 226.904 530.092 226.964 530.298 226.992L530.256 228.154C529.453 228.154 528.832 227.982 528.394 227.636C527.647 227.982 526.896 228.154 526.14 228.154C524.749 228.154 524.054 227.412 524.054 225.928C524.054 225.219 524.24 224.706 524.614 224.388C524.996 224.071 525.58 223.88 526.364 223.814L528.17 223.66V223.156C528.17 222.783 528.086 222.522 527.918 222.372C527.759 222.223 527.521 222.148 527.204 222.148C526.606 222.148 525.86 222.186 524.964 222.26L524.516 222.288L524.46 221.21C525.477 220.968 526.41 220.846 527.26 220.846C528.118 220.846 528.734 221.033 529.108 221.406C529.49 221.77 529.682 222.354 529.682 223.156ZM526.546 224.892C525.902 224.948 525.58 225.298 525.58 225.942C525.58 226.586 525.864 226.908 526.434 226.908C526.9 226.908 527.395 226.834 527.918 226.684L528.17 226.6V224.738L526.546 224.892Z" fill="black"/>
<path d="M519.034 228H515.716V218.41H519.034C520.508 218.41 521.516 218.783 522.058 219.53C522.599 220.277 522.87 221.448 522.87 223.044C522.87 223.856 522.814 224.547 522.702 225.116C522.599 225.676 522.412 226.185 522.142 226.642C521.61 227.547 520.574 228 519.034 228ZM521.26 223.044C521.26 221.887 521.115 221.051 520.826 220.538C520.536 220.025 519.939 219.768 519.034 219.768H517.27V226.628H519.034C519.958 226.628 520.574 226.287 520.882 225.606C521.031 225.261 521.129 224.892 521.176 224.5C521.232 224.108 521.26 223.623 521.26 223.044Z" fill="black"/>
<path d="M510.608 218.088V228H509.096V227.636C508.415 227.981 507.79 228.154 507.22 228.154C506.306 228.154 505.634 227.879 505.204 227.328C504.784 226.777 504.574 225.853 504.574 224.556C504.574 223.259 504.808 222.316 505.274 221.728C505.75 221.14 506.488 220.846 507.486 220.846C507.822 220.846 508.354 220.907 509.082 221.028V218.088H510.608ZM508.844 226.544L509.082 226.446V222.302C508.522 222.209 508.004 222.162 507.528 222.162C506.586 222.162 506.114 222.946 506.114 224.514C506.114 225.373 506.222 225.97 506.436 226.306C506.66 226.633 507.01 226.796 507.486 226.796C507.962 226.796 508.415 226.712 508.844 226.544Z" fill="black"/>
<path d="M502.771 226.74L503.163 226.698L503.191 227.832C502.127 228.047 501.185 228.154 500.363 228.154C499.327 228.154 498.581 227.87 498.123 227.3C497.675 226.731 497.451 225.821 497.451 224.57C497.451 222.088 498.464 220.846 500.489 220.846C502.449 220.846 503.429 221.915 503.429 224.052L503.331 225.144H498.991C499.001 225.723 499.127 226.148 499.369 226.418C499.612 226.689 500.065 226.824 500.727 226.824C501.39 226.824 502.071 226.796 502.771 226.74ZM501.931 223.968C501.931 223.278 501.819 222.797 501.595 222.526C501.381 222.246 501.012 222.106 500.489 222.106C499.967 222.106 499.584 222.251 499.341 222.54C499.108 222.83 498.987 223.306 498.977 223.968H501.931Z" fill="black"/>
<path d="M494.41 228V221H495.936V228H494.41ZM494.41 219.81V218.2H495.936V219.81H494.41Z" fill="black"/>
<path d="M491.404 222.302V228H489.892V222.302H489.08V221H489.892V220.552C489.892 219.553 490.037 218.867 490.326 218.494C490.615 218.121 491.129 217.934 491.866 217.934L493.378 218.074L493.364 219.32C492.907 219.301 492.524 219.292 492.216 219.292C491.917 219.292 491.707 219.385 491.586 219.572C491.465 219.749 491.404 220.081 491.404 220.566V221H493.252V222.302H491.404Z" fill="black"/>
<path d="M486.193 228V221H487.719V228H486.193ZM486.193 219.81V218.2H487.719V219.81H486.193Z" fill="black"/>
<path d="M480.077 228H478.551V221H480.063V221.434C480.744 221.042 481.388 220.846 481.995 220.846C482.928 220.846 483.563 221.112 483.899 221.644C484.244 222.167 484.417 223.035 484.417 224.248V228H482.905V224.29C482.905 223.534 482.821 222.998 482.653 222.68C482.494 222.363 482.163 222.204 481.659 222.204C481.183 222.204 480.725 222.298 480.287 222.484L480.077 222.568V228Z" fill="black"/>
<path d="M471.167 224.934C471.167 226.175 471.82 226.796 473.127 226.796C474.433 226.796 475.087 226.175 475.087 224.934V218.41H476.655V224.906C476.655 226.035 476.356 226.861 475.759 227.384C475.171 227.897 474.289 228.154 473.113 228.154C471.946 228.154 471.069 227.897 470.481 227.384C469.893 226.861 469.599 226.035 469.599 224.906V218.41H471.167V224.934Z" fill="black"/>
<path d="M622.219 109.442C621.118 109.293 620.32 109.218 619.825 109.218C619.33 109.218 618.985 109.279 618.789 109.4C618.602 109.512 618.509 109.694 618.509 109.946C618.509 110.198 618.612 110.375 618.817 110.478C619.032 110.581 619.526 110.702 620.301 110.842C621.085 110.973 621.64 111.183 621.967 111.472C622.294 111.761 622.457 112.275 622.457 113.012C622.457 113.749 622.219 114.291 621.743 114.636C621.276 114.981 620.59 115.154 619.685 115.154C619.116 115.154 618.397 115.075 617.529 114.916L617.095 114.846L617.151 113.572C618.271 113.721 619.078 113.796 619.573 113.796C620.068 113.796 620.418 113.735 620.623 113.614C620.838 113.493 620.945 113.292 620.945 113.012C620.945 112.732 620.842 112.541 620.637 112.438C620.441 112.326 619.96 112.209 619.195 112.088C618.439 111.957 617.884 111.757 617.529 111.486C617.174 111.215 616.997 110.721 616.997 110.002C616.997 109.283 617.24 108.747 617.725 108.392C618.22 108.037 618.85 107.86 619.615 107.86C620.212 107.86 620.945 107.935 621.813 108.084L622.247 108.168L622.219 109.442Z" fill="black"/>
<path d="M613.786 107.846C614.281 107.846 614.864 107.912 615.536 108.042L615.886 108.112L615.83 109.316C615.093 109.242 614.547 109.204 614.192 109.204C613.483 109.204 613.007 109.363 612.764 109.68C612.522 109.998 612.4 110.595 612.4 111.472C612.4 112.35 612.517 112.956 612.75 113.292C612.984 113.628 613.469 113.796 614.206 113.796L615.844 113.684L615.886 114.902C614.944 115.07 614.234 115.154 613.758 115.154C612.694 115.154 611.943 114.87 611.504 114.3C611.075 113.722 610.86 112.779 610.86 111.472C610.86 110.166 611.089 109.237 611.546 108.686C612.004 108.126 612.75 107.846 613.786 107.846Z" fill="black"/>
<path d="M607.791 115V108H609.317V115H607.791ZM607.791 106.81V105.2H609.317V106.81H607.791Z" fill="black"/>
<path d="M606.539 109.302H604.607V112.382C604.607 112.952 604.649 113.33 604.733 113.516C604.817 113.703 605.032 113.796 605.377 113.796L606.525 113.754L606.595 114.972C605.97 115.094 605.494 115.154 605.167 115.154C604.374 115.154 603.828 114.972 603.529 114.608C603.24 114.244 603.095 113.558 603.095 112.55V109.302H602.199V108H603.095V105.97H604.607V108H606.539V109.302Z" fill="black"/>
<path d="M595.239 108H596.737L598.221 113.698H598.599L600.083 108H601.595L598.935 118.01H597.437L598.277 115H597.073L595.239 108Z" fill="black"/>
<path d="M592.426 115V105.088H593.952V115H592.426Z" fill="black"/>
<path d="M590.426 110.156V113.348C590.435 113.554 590.487 113.708 590.58 113.81C590.683 113.904 590.837 113.964 591.042 113.992L591 115.154C590.197 115.154 589.577 114.982 589.138 114.636C588.391 114.982 587.64 115.154 586.884 115.154C585.493 115.154 584.798 114.412 584.798 112.928C584.798 112.219 584.985 111.706 585.358 111.388C585.741 111.071 586.324 110.88 587.108 110.814L588.914 110.66V110.156C588.914 109.783 588.83 109.522 588.662 109.372C588.503 109.223 588.265 109.148 587.948 109.148C587.351 109.148 586.604 109.186 585.708 109.26L585.26 109.288L585.204 108.21C586.221 107.968 587.155 107.846 588.004 107.846C588.863 107.846 589.479 108.033 589.852 108.406C590.235 108.77 590.426 109.354 590.426 110.156ZM587.29 111.892C586.646 111.948 586.324 112.298 586.324 112.942C586.324 113.586 586.609 113.908 587.178 113.908C587.645 113.908 588.139 113.834 588.662 113.684L588.914 113.6V111.738L587.29 111.892Z" fill="black"/>
<path d="M579.13 115H577.604V108H579.116V108.434C579.797 108.042 580.441 107.846 581.048 107.846C581.981 107.846 582.616 108.112 582.952 108.644C583.297 109.167 583.47 110.035 583.47 111.248V115H581.958V111.29C581.958 110.534 581.874 109.998 581.706 109.68C581.547 109.363 581.216 109.204 580.712 109.204C580.236 109.204 579.778 109.298 579.34 109.484L579.13 109.568V115Z" fill="black"/>
<path d="M568.579 115L570.945 105.41H574.039L576.419 115H574.851L574.333 112.942H570.651L570.133 115H568.579ZM572.149 106.712L570.959 111.57H574.025L572.849 106.712H572.149Z" fill="black"/>
<path d="M564.298 105.088V115H562.786V114.636C562.104 114.981 561.479 115.154 560.91 115.154C559.995 115.154 559.323 114.879 558.894 114.328C558.474 113.777 558.264 112.853 558.264 111.556C558.264 110.259 558.497 109.316 558.964 108.728C559.44 108.14 560.177 107.846 561.176 107.846C561.512 107.846 562.044 107.907 562.772 108.028V105.088H564.298ZM562.534 113.544L562.772 113.446V109.302C562.212 109.209 561.694 109.162 561.218 109.162C560.275 109.162 559.804 109.946 559.804 111.514C559.804 112.373 559.911 112.97 560.126 113.306C560.35 113.633 560.7 113.796 561.176 113.796C561.652 113.796 562.104 113.712 562.534 113.544Z" fill="black"/>
<path d="M556.461 113.74L556.853 113.698L556.881 114.832C555.817 115.047 554.874 115.154 554.053 115.154C553.017 115.154 552.27 114.87 551.813 114.3C551.365 113.731 551.141 112.821 551.141 111.57C551.141 109.088 552.153 107.846 554.179 107.846C556.139 107.846 557.119 108.915 557.119 111.052L557.021 112.144H552.681C552.69 112.723 552.816 113.148 553.059 113.418C553.301 113.689 553.754 113.824 554.417 113.824C555.079 113.824 555.761 113.796 556.461 113.74ZM555.621 110.968C555.621 110.278 555.509 109.797 555.285 109.526C555.07 109.246 554.701 109.106 554.179 109.106C553.656 109.106 553.273 109.251 553.031 109.54C552.797 109.83 552.676 110.306 552.667 110.968H555.621Z" fill="black"/>
<path d="M544.77 109.358V108H549.964V109.358L546.604 113.642H549.964V115H544.77V113.642L548.144 109.358H544.77Z" fill="black"/>
<path d="M541.742 115V108H543.268V115H541.742ZM541.742 106.81V105.2H543.268V106.81H541.742Z" fill="black"/>
<path d="M539.893 105.088V115H538.381V114.636C537.7 114.981 537.075 115.154 536.505 115.154C535.591 115.154 534.919 114.879 534.489 114.328C534.069 113.777 533.859 112.853 533.859 111.556C533.859 110.259 534.093 109.316 534.559 108.728C535.035 108.14 535.773 107.846 536.771 107.846C537.107 107.846 537.639 107.907 538.367 108.028V105.088H539.893ZM538.129 113.544L538.367 113.446V109.302C537.807 109.209 537.289 109.162 536.813 109.162C535.871 109.162 535.399 109.946 535.399 111.514C535.399 112.373 535.507 112.97 535.721 113.306C535.945 113.633 536.295 113.796 536.771 113.796C537.247 113.796 537.7 113.712 538.129 113.544Z" fill="black"/>
<path d="M529.191 115V108H530.703V108.84C531.497 108.327 532.29 107.996 533.083 107.846V109.372C532.281 109.531 531.595 109.736 531.025 109.988L530.717 110.114V115H529.191Z" fill="black"/>
<path d="M527.275 110.156V113.348C527.285 113.554 527.336 113.708 527.429 113.81C527.532 113.904 527.686 113.964 527.891 113.992L527.849 115.154C527.047 115.154 526.426 114.982 525.987 114.636C525.241 114.982 524.489 115.154 523.733 115.154C522.343 115.154 521.647 114.412 521.647 112.928C521.647 112.219 521.834 111.706 522.207 111.388C522.59 111.071 523.173 110.88 523.957 110.814L525.763 110.66V110.156C525.763 109.783 525.679 109.522 525.511 109.372C525.353 109.223 525.115 109.148 524.797 109.148C524.2 109.148 523.453 109.186 522.557 109.26L522.109 109.288L522.053 108.21C523.071 107.968 524.004 107.846 524.853 107.846C525.712 107.846 526.328 108.033 526.701 108.406C527.084 108.77 527.275 109.354 527.275 110.156ZM524.139 111.892C523.495 111.948 523.173 112.298 523.173 112.942C523.173 113.586 523.458 113.908 524.027 113.908C524.494 113.908 524.989 113.834 525.511 113.684L525.763 113.6V111.738L524.139 111.892Z" fill="black"/>
<path d="M520.247 105.088V115H518.735V114.636C518.054 114.981 517.428 115.154 516.859 115.154C515.944 115.154 515.272 114.879 514.843 114.328C514.423 113.777 514.213 112.853 514.213 111.556C514.213 110.259 514.446 109.316 514.913 108.728C515.389 108.14 516.126 107.846 517.125 107.846C517.461 107.846 517.993 107.907 518.721 108.028V105.088H520.247ZM518.483 113.544L518.721 113.446V109.302C518.161 109.209 517.643 109.162 517.167 109.162C516.224 109.162 515.753 109.946 515.753 111.514C515.753 112.373 515.86 112.97 516.075 113.306C516.299 113.633 516.649 113.796 517.125 113.796C517.601 113.796 518.054 113.712 518.483 113.544Z" fill="black"/>
<path d="M508.419 115H506.893V108H508.405V108.434C509.086 108.042 509.73 107.846 510.337 107.846C511.27 107.846 511.905 108.112 512.241 108.644C512.586 109.167 512.759 110.035 512.759 111.248V115H511.247V111.29C511.247 110.534 511.163 109.998 510.995 109.68C510.836 109.363 510.505 109.204 510.001 109.204C509.525 109.204 509.067 109.298 508.629 109.484L508.419 109.568V115Z" fill="black"/>
<path d="M504.977 110.156V113.348C504.986 113.554 505.037 113.708 505.131 113.81C505.233 113.904 505.387 113.964 505.593 113.992L505.551 115.154C504.748 115.154 504.127 114.982 503.689 114.636C502.942 114.982 502.191 115.154 501.435 115.154C500.044 115.154 499.349 114.412 499.349 112.928C499.349 112.219 499.535 111.706 499.909 111.388C500.291 111.071 500.875 110.88 501.659 110.814L503.465 110.66V110.156C503.465 109.783 503.381 109.522 503.213 109.372C503.054 109.223 502.816 109.148 502.499 109.148C501.901 109.148 501.155 109.186 500.259 109.26L499.811 109.288L499.755 108.21C500.772 107.968 501.705 107.846 502.555 107.846C503.413 107.846 504.029 108.033 504.403 108.406C504.785 108.77 504.977 109.354 504.977 110.156ZM501.841 111.892C501.197 111.948 500.875 112.298 500.875 112.942C500.875 113.586 501.159 113.908 501.729 113.908C502.195 113.908 502.69 113.834 503.213 113.684L503.465 113.6V111.738L501.841 111.892Z" fill="black"/>
<path d="M498.545 109.302H496.613V112.382C496.613 112.952 496.655 113.33 496.739 113.516C496.823 113.703 497.038 113.796 497.383 113.796L498.531 113.754L498.601 114.972C497.976 115.094 497.5 115.154 497.173 115.154C496.38 115.154 495.834 114.972 495.535 114.608C495.246 114.244 495.101 113.558 495.101 112.55V109.302H494.205V108H495.101V105.97H496.613V108H498.545V109.302Z" fill="black"/>
<path d="M490.27 106.614C489.084 106.614 488.492 107.03 488.492 107.86C488.492 108.29 488.632 108.598 488.912 108.784C489.192 108.962 489.808 109.186 490.76 109.456C491.721 109.718 492.398 110.035 492.79 110.408C493.182 110.772 493.378 111.351 493.378 112.144C493.378 113.152 493.088 113.908 492.51 114.412C491.94 114.907 491.161 115.154 490.171 115.154C489.378 115.154 488.501 115.061 487.539 114.874L487.035 114.776L487.189 113.53C488.449 113.698 489.411 113.782 490.073 113.782C491.231 113.782 491.809 113.269 491.809 112.242C491.809 111.841 491.679 111.547 491.418 111.36C491.156 111.164 490.568 110.954 489.654 110.73C488.739 110.497 488.058 110.18 487.609 109.778C487.161 109.377 486.938 108.742 486.938 107.874C486.938 107.006 487.218 106.353 487.778 105.914C488.347 105.466 489.131 105.242 490.13 105.242C490.848 105.242 491.697 105.326 492.677 105.494L493.168 105.578L493.042 106.838C491.735 106.689 490.811 106.614 490.27 106.614Z" fill="black"/>
<path d="M622.219 7.44186C621.118 7.29253 620.32 7.21786 619.825 7.21786C619.33 7.21786 618.985 7.27853 618.789 7.39986C618.602 7.51186 618.509 7.69386 618.509 7.94586C618.509 8.19786 618.612 8.3752 618.817 8.47786C619.032 8.58053 619.526 8.70186 620.301 8.84186C621.085 8.97253 621.64 9.18253 621.967 9.47186C622.294 9.7612 622.457 10.2745 622.457 11.0119C622.457 11.7492 622.219 12.2905 621.743 12.6359C621.276 12.9812 620.59 13.1539 619.685 13.1539C619.116 13.1539 618.397 13.0745 617.529 12.9159L617.095 12.8459L617.151 11.5719C618.271 11.7212 619.078 11.7959 619.573 11.7959C620.068 11.7959 620.418 11.7352 620.623 11.6139C620.838 11.4925 620.945 11.2919 620.945 11.0119C620.945 10.7319 620.842 10.5405 620.637 10.4379C620.441 10.3259 619.96 10.2092 619.195 10.0879C618.439 9.9572 617.884 9.75653 617.529 9.48586C617.174 9.2152 616.997 8.72053 616.997 8.00186C616.997 7.2832 617.24 6.74653 617.725 6.39186C618.22 6.0372 618.85 5.85986 619.615 5.85986C620.212 5.85986 620.945 5.93453 621.813 6.08386L622.247 6.16786L622.219 7.44186Z" fill="black"/>
<path d="M611.245 13.0002H609.719V6.00019H611.231V6.43419C611.912 6.04219 612.556 5.84619 613.163 5.84619C614.096 5.84619 614.731 6.11219 615.067 6.64419C615.412 7.16686 615.585 8.03486 615.585 9.24819V13.0002H614.073V9.29019C614.073 8.53419 613.989 7.99752 613.821 7.68019C613.662 7.36286 613.331 7.20419 612.827 7.20419C612.351 7.20419 611.893 7.29752 611.455 7.48419L611.245 7.56819V13.0002Z" fill="black"/>
<path d="M602.673 6.75619C603.158 6.14952 603.961 5.84619 605.081 5.84619C606.201 5.84619 606.999 6.14952 607.475 6.75619C607.96 7.36286 608.203 8.27286 608.203 9.48619C608.203 10.6995 607.97 11.6142 607.503 12.2302C607.036 12.8462 606.229 13.1542 605.081 13.1542C603.933 13.1542 603.126 12.8462 602.659 12.2302C602.192 11.6142 601.959 10.6995 601.959 9.48619C601.959 8.27286 602.197 7.36286 602.673 6.75619ZM603.821 11.3062C604.036 11.6795 604.456 11.8662 605.081 11.8662C605.706 11.8662 606.126 11.6795 606.341 11.3062C606.556 10.9329 606.663 10.3215 606.663 9.47219C606.663 8.62286 606.546 8.02086 606.313 7.66619C606.089 7.31152 605.678 7.13419 605.081 7.13419C604.484 7.13419 604.068 7.31152 603.835 7.66619C603.611 8.02086 603.499 8.62286 603.499 9.47219C603.499 10.3215 603.606 10.9329 603.821 11.3062Z" fill="black"/>
<path d="M598.918 13.0002V6.0002H600.444V13.0002H598.918ZM598.918 4.8102V3.2002H600.444V4.8102H598.918Z" fill="black"/>
<path d="M597.213 7.44186C596.112 7.29253 595.314 7.21786 594.819 7.21786C594.325 7.21786 593.979 7.27853 593.783 7.39986C593.597 7.51186 593.503 7.69386 593.503 7.94586C593.503 8.19786 593.606 8.3752 593.811 8.47786C594.026 8.58053 594.521 8.70186 595.295 8.84186C596.079 8.97253 596.635 9.18253 596.961 9.47186C597.288 9.7612 597.451 10.2745 597.451 11.0119C597.451 11.7492 597.213 12.2905 596.737 12.6359C596.271 12.9812 595.585 13.1539 594.679 13.1539C594.11 13.1539 593.391 13.0745 592.523 12.9159L592.089 12.8459L592.145 11.5719C593.265 11.7212 594.073 11.7959 594.567 11.7959C595.062 11.7959 595.412 11.7352 595.617 11.6139C595.832 11.4925 595.939 11.2919 595.939 11.0119C595.939 10.7319 595.837 10.5405 595.631 10.4379C595.435 10.3259 594.955 10.2092 594.189 10.0879C593.433 9.9572 592.878 9.75653 592.523 9.48586C592.169 9.2152 591.991 8.72053 591.991 8.00186C591.991 7.2832 592.234 6.74653 592.719 6.39186C593.214 6.0372 593.844 5.85986 594.609 5.85986C595.207 5.85986 595.939 5.93453 596.807 6.08386L597.241 6.16786L597.213 7.44186Z" fill="black"/>
<path d="M588.979 13.0002V6.0002H590.505V13.0002H588.979ZM588.979 4.8102V3.2002H590.505V4.8102H588.979Z" fill="black"/>
<path d="M585.404 5.84619C585.898 5.84619 586.482 5.91152 587.154 6.04219L587.504 6.11219L587.448 7.31619C586.71 7.24152 586.164 7.20419 585.81 7.20419C585.1 7.20419 584.624 7.36286 584.382 7.68019C584.139 7.99752 584.018 8.59486 584.018 9.47219C584.018 10.3495 584.134 10.9562 584.368 11.2922C584.601 11.6282 585.086 11.7962 585.824 11.7962L587.462 11.6842L587.504 12.9022C586.561 13.0702 585.852 13.1542 585.376 13.1542C584.312 13.1542 583.56 12.8695 583.122 12.3002C582.692 11.7215 582.478 10.7789 582.478 9.47219C582.478 8.16552 582.706 7.23686 583.164 6.68619C583.621 6.12619 584.368 5.84619 585.404 5.84619Z" fill="black"/>
<path d="M580.66 11.7402L581.052 11.6982L581.08 12.8322C580.016 13.0469 579.073 13.1542 578.252 13.1542C577.216 13.1542 576.469 12.8695 576.012 12.3002C575.564 11.7309 575.34 10.8209 575.34 9.57019C575.34 7.08752 576.353 5.84619 578.378 5.84619C580.338 5.84619 581.318 6.91486 581.318 9.05219L581.22 10.1442H576.88C576.889 10.7229 577.015 11.1475 577.258 11.4182C577.501 11.6889 577.953 11.8242 578.616 11.8242C579.279 11.8242 579.96 11.7962 580.66 11.7402ZM579.82 8.96819C579.82 8.27752 579.708 7.79686 579.484 7.52619C579.269 7.24619 578.901 7.10619 578.378 7.10619C577.855 7.10619 577.473 7.25086 577.23 7.54019C576.997 7.82952 576.875 8.30552 576.866 8.96819H579.82Z" fill="black"/>
<path d="M570.208 13.0002H566.89V3.41016H570.208C571.682 3.41016 572.69 3.78349 573.232 4.53016C573.773 5.27682 574.044 6.44816 574.044 8.04416C574.044 8.85616 573.988 9.54682 573.876 10.1162C573.773 10.6762 573.586 11.1848 573.316 11.6422C572.784 12.5475 571.748 13.0002 570.208 13.0002ZM572.434 8.04416C572.434 6.88682 572.289 6.05149 572 5.53816C571.71 5.02482 571.113 4.76816 570.208 4.76816H568.444V11.6282H570.208C571.132 11.6282 571.748 11.2875 572.056 10.6062C572.205 10.2608 572.303 9.89216 572.35 9.50016C572.406 9.10816 572.434 8.62282 572.434 8.04416Z" fill="black"/>
<path d="M557.514 13.0002H555.988V6.00019H557.5V6.43419C558.182 6.04219 558.826 5.84619 559.432 5.84619C560.366 5.84619 561 6.11219 561.336 6.64419C561.682 7.16686 561.854 8.03486 561.854 9.24819V13.0002H560.342V9.29019C560.342 8.53419 560.258 7.99752 560.09 7.68019C559.932 7.36286 559.6 7.20419 559.096 7.20419C558.62 7.20419 558.163 7.29752 557.724 7.48419L557.514 7.56819V13.0002Z" fill="black"/>
<path d="M553.863 11.7402L554.255 11.6982L554.283 12.8322C553.219 13.0469 552.276 13.1542 551.455 13.1542C550.419 13.1542 549.672 12.8695 549.215 12.3002C548.767 11.7309 548.543 10.8209 548.543 9.57019C548.543 7.08752 549.556 5.84619 551.581 5.84619C553.541 5.84619 554.521 6.91486 554.521 9.05219L554.423 10.1442H550.083C550.092 10.7229 550.218 11.1475 550.461 11.4182C550.704 11.6889 551.156 11.8242 551.819 11.8242C552.482 11.8242 553.163 11.7962 553.863 11.7402ZM553.023 8.96819C553.023 8.27752 552.911 7.79686 552.687 7.52619C552.472 7.24619 552.104 7.10619 551.581 7.10619C551.058 7.10619 550.676 7.25086 550.433 7.54019C550.2 7.82952 550.078 8.30552 550.069 8.96819H553.023Z" fill="black"/>
<path d="M541.453 6H543.049L544.393 11.698H544.841L546.241 6H547.795L545.975 13H543.259L541.453 6Z" fill="black"/>
<path d="M538.734 13.0002V6.0002H540.26V13.0002H538.734ZM538.734 4.8102V3.2002H540.26V4.8102H538.734Z" fill="black"/>
<path d="M533.676 13.0002V6.00019H535.188V6.84019C535.981 6.32686 536.774 5.99552 537.568 5.84619V7.37219C536.765 7.53086 536.079 7.73619 535.51 7.98819L535.202 8.11419V13.0002H533.676Z" fill="black"/>
<path d="M528.208 13.0002H524.89V3.41016H528.208C529.682 3.41016 530.69 3.78349 531.232 4.53016C531.773 5.27682 532.044 6.44816 532.044 8.04416C532.044 8.85616 531.988 9.54682 531.876 10.1162C531.773 10.6762 531.586 11.1848 531.316 11.6422C530.784 12.5475 529.748 13.0002 528.208 13.0002ZM530.434 8.04416C530.434 6.88682 530.289 6.05149 530 5.53816C529.71 5.02482 529.113 4.76816 528.208 4.76816H526.444V11.6282H528.208C529.132 11.6282 529.748 11.2875 530.056 10.6062C530.205 10.2608 530.303 9.89216 530.35 9.50016C530.406 9.10816 530.434 8.62282 530.434 8.04416Z" fill="black"/>
<path d="M518.744 9.92018V8.53418H522.93V9.92018H518.744Z" fill="black"/>
<path d="M516.899 8.15619V11.3482C516.908 11.5535 516.959 11.7075 517.053 11.8102C517.155 11.9035 517.309 11.9642 517.515 11.9922L517.473 13.1542C516.67 13.1542 516.049 12.9815 515.611 12.6362C514.864 12.9815 514.113 13.1542 513.357 13.1542C511.966 13.1542 511.271 12.4122 511.271 10.9282C511.271 10.2189 511.457 9.70552 511.831 9.38819C512.213 9.07086 512.797 8.87952 513.581 8.81419L515.387 8.66019V8.15619C515.387 7.78286 515.303 7.52152 515.135 7.37219C514.976 7.22286 514.738 7.14819 514.421 7.14819C513.823 7.14819 513.077 7.18552 512.181 7.26019L511.733 7.28819L511.677 6.21019C512.694 5.96752 513.627 5.84619 514.477 5.84619C515.335 5.84619 515.951 6.03286 516.325 6.40619C516.707 6.77019 516.899 7.35353 516.899 8.15619ZM513.763 9.89219C513.119 9.94819 512.797 10.2982 512.797 10.9422C512.797 11.5862 513.081 11.9082 513.651 11.9082C514.117 11.9082 514.612 11.8335 515.135 11.6842L515.387 11.6002V9.73819L513.763 9.89219Z" fill="black"/>
<path d="M510.467 7.30222H508.535V10.3822C508.535 10.9515 508.577 11.3295 508.661 11.5162C508.745 11.7029 508.96 11.7962 509.305 11.7962L510.453 11.7542L510.523 12.9722C509.898 13.0935 509.422 13.1542 509.095 13.1542C508.302 13.1542 507.756 12.9722 507.457 12.6082C507.168 12.2442 507.023 11.5582 507.023 10.5502V7.30222H506.127V6.00022H507.023V3.97021H508.535V6.00022H510.467V7.30222Z" fill="black"/>
<path d="M504.785 8.15619V11.3482C504.795 11.5535 504.846 11.7075 504.939 11.8102C505.042 11.9035 505.196 11.9642 505.401 11.9922L505.359 13.1542C504.557 13.1542 503.936 12.9815 503.497 12.6362C502.751 12.9815 501.999 13.1542 501.243 13.1542C499.853 13.1542 499.157 12.4122 499.157 10.9282C499.157 10.2189 499.344 9.70552 499.717 9.38819C500.1 9.07086 500.683 8.87952 501.467 8.81419L503.273 8.66019V8.15619C503.273 7.78286 503.189 7.52152 503.021 7.37219C502.863 7.22286 502.625 7.14819 502.307 7.14819C501.71 7.14819 500.963 7.18552 500.067 7.26019L499.619 7.28819L499.563 6.21019C500.581 5.96752 501.514 5.84619 502.363 5.84619C503.222 5.84619 503.838 6.03286 504.211 6.40619C504.594 6.77019 504.785 7.35353 504.785 8.15619ZM501.649 9.89219C501.005 9.94819 500.683 10.2982 500.683 10.9422C500.683 11.5862 500.968 11.9082 501.537 11.9082C502.004 11.9082 502.499 11.8335 503.021 11.6842L503.273 11.6002V9.73819L501.649 9.89219Z" fill="black"/>
<path d="M494.137 13.0002H490.819V3.41016H494.137C495.612 3.41016 496.62 3.78349 497.161 4.53016C497.703 5.27682 497.973 6.44816 497.973 8.04416C497.973 8.85616 497.917 9.54682 497.805 10.1162C497.703 10.6762 497.516 11.1848 497.245 11.6422C496.713 12.5475 495.677 13.0002 494.137 13.0002ZM496.363 8.04416C496.363 6.88682 496.219 6.05149 495.929 5.53816C495.64 5.02482 495.043 4.76816 494.137 4.76816H492.373V11.6282H494.137C495.061 11.6282 495.677 11.2875 495.985 10.6062C496.135 10.2608 496.233 9.89216 496.279 9.50016C496.335 9.10816 496.363 8.62282 496.363 8.04416Z" fill="black"/>
<path d="M620.642 30.5699C619.915 30.5699 619.552 30.8232 619.552 31.3299C619.552 31.5632 619.635 31.7299 619.802 31.8299C619.968 31.9232 620.348 32.0232 620.942 32.1299C621.535 32.2299 621.955 32.3732 622.202 32.5599C622.448 32.7466 622.572 33.0966 622.572 33.6099C622.572 34.1232 622.405 34.4999 622.072 34.7399C621.745 34.9799 621.265 35.0999 620.632 35.0999C620.218 35.0999 619.732 35.0532 619.172 34.9599L618.872 34.9099L618.912 34.2599C619.672 34.3732 620.245 34.4299 620.632 34.4299C621.018 34.4299 621.312 34.3699 621.512 34.2499C621.718 34.1232 621.822 33.9166 621.822 33.6299C621.822 33.3366 621.735 33.1399 621.562 33.0399C621.388 32.9332 621.008 32.8332 620.422 32.7399C619.835 32.6466 619.418 32.5099 619.172 32.3299C618.925 32.1499 618.802 31.8166 618.802 31.3299C618.802 30.8432 618.972 30.4832 619.312 30.2499C619.658 30.0166 620.088 29.8999 620.602 29.8999C621.008 29.8999 621.518 29.9466 622.132 30.0399L622.412 30.0899L622.392 30.7299C621.652 30.6232 621.068 30.5699 620.642 30.5699Z" fill="black"/>
<path d="M614.45 34.9999H613.7V29.9999H614.44V30.3499C614.98 30.0499 615.497 29.8999 615.99 29.8999C616.657 29.8999 617.104 30.0799 617.33 30.4399C617.564 30.7999 617.68 31.4399 617.68 32.3599V34.9999H616.94V32.3799C616.94 31.6866 616.87 31.2132 616.73 30.9599C616.597 30.6999 616.307 30.5699 615.86 30.5699C615.647 30.5699 615.42 30.6032 615.18 30.6699C614.947 30.7299 614.767 30.7899 614.64 30.8499L614.45 30.9399V34.9999Z" fill="black"/>
<path d="M608.197 32.4899C608.197 31.5766 608.361 30.9166 608.687 30.5099C609.014 30.1032 609.564 29.8999 610.337 29.8999C611.117 29.8999 611.667 30.1032 611.987 30.5099C612.314 30.9166 612.477 31.5766 612.477 32.4899C612.477 33.4032 612.324 34.0666 612.017 34.4799C611.711 34.8932 611.151 35.0999 610.337 35.0999C609.524 35.0999 608.964 34.8932 608.657 34.4799C608.351 34.0666 608.197 33.4032 608.197 32.4899ZM608.967 32.4799C608.967 33.2066 609.054 33.7166 609.227 34.0099C609.407 34.3032 609.777 34.4499 610.337 34.4499C610.904 34.4499 611.274 34.3066 611.447 34.0199C611.621 33.7266 611.707 33.2132 611.707 32.4799C611.707 31.7466 611.611 31.2432 611.417 30.9699C611.224 30.6899 610.864 30.5499 610.337 30.5499C609.817 30.5499 609.457 30.6899 609.257 30.9699C609.064 31.2432 608.967 31.7466 608.967 32.4799Z" fill="black"/>
<path d="M606.229 35V30H606.979V35H606.229ZM606.229 28.87V28H606.979V28.87H606.229Z" fill="black"/>
<path d="M605.313 30.6502H603.723V33.0402C603.723 33.6135 603.763 33.9902 603.843 34.1702C603.93 34.3502 604.13 34.4402 604.443 34.4402L605.333 34.3802L605.383 35.0002C604.937 35.0735 604.597 35.1102 604.363 35.1102C603.843 35.1102 603.483 34.9835 603.283 34.7302C603.083 34.4769 602.983 33.9935 602.983 33.2802V30.6502H602.273V30.0002H602.983V28.4702H603.723V30.0002H605.313V30.6502Z" fill="black"/>
<path d="M601.245 31.5099V34.0699C601.265 34.3166 601.458 34.4632 601.825 34.5099L601.795 35.0999C601.268 35.0999 600.871 34.9666 600.605 34.6999C600.005 34.9666 599.405 35.0999 598.805 35.0999C598.345 35.0999 597.995 34.9699 597.755 34.7099C597.515 34.4499 597.395 34.0766 597.395 33.5899C597.395 33.1032 597.518 32.7466 597.765 32.5199C598.011 32.2866 598.398 32.1432 598.925 32.0899L600.495 31.9399V31.5099C600.495 31.1699 600.421 30.9266 600.275 30.7799C600.128 30.6332 599.928 30.5599 599.675 30.5599C599.141 30.5599 598.588 30.5932 598.015 30.6599L597.705 30.6899L597.675 30.1199C598.408 29.9732 599.058 29.8999 599.625 29.8999C600.191 29.8999 600.601 30.0299 600.855 30.2899C601.115 30.5499 601.245 30.9566 601.245 31.5099ZM598.165 33.5499C598.165 34.1632 598.418 34.4699 598.925 34.4699C599.378 34.4699 599.825 34.3932 600.265 34.2399L600.495 34.1599V32.5099L599.015 32.6499C598.715 32.6766 598.498 32.7632 598.365 32.9099C598.231 33.0566 598.165 33.2699 598.165 33.5499Z" fill="black"/>
<path d="M594.257 35.0001V30.0001H594.997V30.6801C595.577 30.2801 596.187 30.0168 596.827 29.8901V30.6501C596.547 30.7035 596.254 30.7868 595.947 30.9001C595.647 31.0135 595.417 31.1135 595.257 31.2001L595.007 31.3301V35.0001H594.257Z" fill="black"/>
<path d="M592.608 34.3799L592.898 34.3499L592.918 34.9399C592.158 35.0466 591.508 35.0999 590.968 35.0999C590.248 35.0999 589.738 34.8932 589.438 34.4799C589.138 34.0599 588.988 33.4099 588.988 32.5299C588.988 30.7766 589.685 29.8999 591.078 29.8999C591.752 29.8999 592.255 30.0899 592.588 30.4699C592.922 30.8432 593.088 31.4332 593.088 32.2399L593.048 32.8099H589.748C589.748 33.3632 589.848 33.7732 590.048 34.0399C590.248 34.3066 590.595 34.4399 591.088 34.4399C591.588 34.4399 592.095 34.4199 592.608 34.3799ZM592.338 32.2099C592.338 31.5966 592.238 31.1632 592.038 30.9099C591.845 30.6566 591.525 30.5299 591.078 30.5299C590.638 30.5299 590.305 30.6632 590.078 30.9299C589.858 31.1966 589.745 31.6232 589.738 32.2099H592.338Z" fill="black"/>
<path d="M583.935 37.2199V29.9999H584.675V30.3599C585.181 30.0532 585.681 29.8999 586.175 29.8999C586.808 29.8999 587.268 30.1032 587.555 30.5099C587.841 30.9099 587.985 31.5732 587.985 32.4999C587.985 33.4266 587.815 34.0932 587.475 34.4999C587.141 34.8999 586.585 35.0999 585.805 35.0999C585.398 35.0999 585.025 35.0632 584.685 34.9899V37.2199H583.935ZM586.065 30.5699C585.865 30.5699 585.648 30.6032 585.415 30.6699C585.188 30.7366 585.008 30.8032 584.875 30.8699L584.685 30.9699V34.3399C585.158 34.4132 585.518 34.4499 585.765 34.4499C586.305 34.4499 586.681 34.2966 586.895 33.9899C587.115 33.6832 587.225 33.1832 587.225 32.4899C587.225 31.7966 587.125 31.3032 586.925 31.0099C586.731 30.7166 586.445 30.5699 586.065 30.5699Z" fill="black"/>
<path d="M578.432 32.4899C578.432 31.5766 578.595 30.9166 578.922 30.5099C579.248 30.1032 579.798 29.8999 580.572 29.8999C581.352 29.8999 581.902 30.1032 582.222 30.5099C582.548 30.9166 582.712 31.5766 582.712 32.4899C582.712 33.4032 582.558 34.0666 582.252 34.4799C581.945 34.8932 581.385 35.0999 580.572 35.0999C579.758 35.0999 579.198 34.8932 578.892 34.4799C578.585 34.0666 578.432 33.4032 578.432 32.4899ZM579.202 32.4799C579.202 33.2066 579.288 33.7166 579.462 34.0099C579.642 34.3032 580.012 34.4499 580.572 34.4499C581.138 34.4499 581.508 34.3066 581.682 34.0199C581.855 33.7266 581.942 33.2132 581.942 32.4799C581.942 31.7466 581.845 31.2432 581.652 30.9699C581.458 30.6899 581.098 30.5499 580.572 30.5499C580.052 30.5499 579.692 30.6899 579.492 30.9699C579.298 31.2432 579.202 31.7466 579.202 32.4799Z" fill="black"/>
<path d="M575.001 27.8198V34.9998H574.261V34.6598C573.748 34.9532 573.241 35.0998 572.741 35.0998C572.475 35.0998 572.241 35.0665 572.041 34.9998C571.841 34.9332 571.655 34.8132 571.481 34.6398C571.121 34.2798 570.941 33.6165 570.941 32.6498C570.941 31.6765 571.101 30.9765 571.421 30.5498C571.748 30.1165 572.285 29.8998 573.031 29.8998C573.418 29.8998 573.828 29.9432 574.261 30.0298V27.8198H575.001ZM572.061 34.0998C572.168 34.2265 572.281 34.3132 572.401 34.3598C572.521 34.4065 572.675 34.4298 572.861 34.4298C573.055 34.4298 573.268 34.3998 573.501 34.3398C573.741 34.2732 573.928 34.2098 574.061 34.1498L574.261 34.0598V30.6698C573.835 30.5898 573.438 30.5498 573.071 30.5498C572.565 30.5498 572.211 30.7132 572.011 31.0398C571.811 31.3598 571.711 31.8598 571.711 32.5398C571.711 33.3132 571.828 33.8332 572.061 34.0998Z" fill="black"/>
<path d="M566.54 34.9999H565.79V29.9999H566.53V30.3499C567.07 30.0499 567.587 29.8999 568.08 29.8999C568.747 29.8999 569.193 30.0799 569.42 30.4399C569.653 30.7999 569.77 31.4399 569.77 32.3599V34.9999H569.03V32.3799C569.03 31.6866 568.96 31.2132 568.82 30.9599C568.687 30.6999 568.397 30.5699 567.95 30.5699C567.737 30.5699 567.51 30.6032 567.27 30.6699C567.037 30.7299 566.857 30.7899 566.73 30.8499L566.54 30.9399V34.9999Z" fill="black"/>
<path d="M564.311 31.5099V34.0699C564.331 34.3166 564.524 34.4632 564.891 34.5099L564.861 35.0999C564.334 35.0999 563.938 34.9666 563.671 34.6999C563.071 34.9666 562.471 35.0999 561.871 35.0999C561.411 35.0999 561.061 34.9699 560.821 34.7099C560.581 34.4499 560.461 34.0766 560.461 33.5899C560.461 33.1032 560.584 32.7466 560.831 32.5199C561.078 32.2866 561.464 32.1432 561.991 32.0899L563.561 31.9399V31.5099C563.561 31.1699 563.488 30.9266 563.341 30.7799C563.194 30.6332 562.994 30.5599 562.741 30.5599C562.208 30.5599 561.654 30.5932 561.081 30.6599L560.771 30.6899L560.741 30.1199C561.474 29.9732 562.124 29.8999 562.691 29.8999C563.258 29.8999 563.668 30.0299 563.921 30.2899C564.181 30.5499 564.311 30.9566 564.311 31.5099ZM561.231 33.5499C561.231 34.1632 561.484 34.4699 561.991 34.4699C562.444 34.4699 562.891 34.3932 563.331 34.2399L563.561 34.1599V32.5099L562.081 32.6499C561.781 32.6766 561.564 32.7632 561.431 32.9099C561.298 33.0566 561.231 33.2699 561.231 33.5499Z" fill="black"/>
<path d="M555.505 30.5699C554.778 30.5699 554.415 30.8232 554.415 31.3299C554.415 31.5632 554.498 31.7299 554.665 31.8299C554.832 31.9232 555.212 32.0232 555.805 32.1299C556.398 32.2299 556.818 32.3732 557.065 32.5599C557.312 32.7466 557.435 33.0966 557.435 33.6099C557.435 34.1232 557.268 34.4999 556.935 34.7399C556.608 34.9799 556.128 35.0999 555.495 35.0999C555.082 35.0999 554.595 35.0532 554.035 34.9599L553.735 34.9099L553.775 34.2599C554.535 34.3732 555.108 34.4299 555.495 34.4299C555.882 34.4299 556.175 34.3699 556.375 34.2499C556.582 34.1232 556.685 33.9166 556.685 33.6299C556.685 33.3366 556.598 33.1399 556.425 33.0399C556.252 32.9332 555.872 32.8332 555.285 32.7399C554.698 32.6466 554.282 32.5099 554.035 32.3299C553.788 32.1499 553.665 31.8166 553.665 31.3299C553.665 30.8432 553.835 30.4832 554.175 30.2499C554.522 30.0166 554.952 29.8999 555.465 29.8999C555.872 29.8999 556.382 29.9466 556.995 30.0399L557.275 30.0899L557.255 30.7299C556.515 30.6232 555.932 30.5699 555.505 30.5699Z" fill="black"/>
<path d="M551.449 29.8999C551.669 29.8999 552.042 29.9399 552.569 30.0199L552.809 30.0499L552.779 30.6599C552.246 30.5999 551.852 30.5699 551.599 30.5699C551.032 30.5699 550.646 30.7066 550.439 30.9799C550.239 31.2466 550.139 31.7466 550.139 32.4799C550.139 33.2066 550.232 33.7132 550.419 33.9999C550.612 34.2866 551.009 34.4299 551.609 34.4299L552.789 34.3399L552.819 34.9599C552.199 35.0532 551.736 35.0999 551.429 35.0999C550.649 35.0999 550.109 34.8999 549.809 34.4999C549.516 34.0999 549.369 33.4266 549.369 32.4799C549.369 31.5266 549.529 30.8599 549.849 30.4799C550.169 30.0932 550.702 29.8999 551.449 29.8999Z" fill="black"/>
<path d="M547.392 35V30H548.142V35H547.392ZM547.392 28.87V28H548.142V28.87H547.392Z" fill="black"/>
<path d="M546.476 30.6502H544.886V33.0402C544.886 33.6135 544.926 33.9902 545.006 34.1702C545.092 34.3502 545.292 34.4402 545.606 34.4402L546.496 34.3802L546.546 35.0002C546.099 35.0735 545.759 35.1102 545.526 35.1102C545.006 35.1102 544.646 34.9835 544.446 34.7302C544.246 34.4769 544.146 33.9935 544.146 33.2802V30.6502H543.436V30.0002H544.146V28.4702H544.886V30.0002H546.476V30.6502Z" fill="black"/>
<path d="M538.582 30H539.332L540.582 34.35H540.912L542.172 30H542.922L540.842 37.22H540.092L540.742 35H540.002L538.582 30Z" fill="black"/>
<path d="M536.798 34.9998V27.8198H537.548V34.9998H536.798Z" fill="black"/>
<path d="M535.258 31.5099V34.0699C535.278 34.3166 535.472 34.4632 535.838 34.5099L535.808 35.0999C535.282 35.0999 534.885 34.9666 534.618 34.6999C534.018 34.9666 533.418 35.0999 532.818 35.0999C532.358 35.0999 532.008 34.9699 531.768 34.7099C531.528 34.4499 531.408 34.0766 531.408 33.5899C531.408 33.1032 531.532 32.7466 531.778 32.5199C532.025 32.2866 532.412 32.1432 532.938 32.0899L534.508 31.9399V31.5099C534.508 31.1699 534.435 30.9266 534.288 30.7799C534.142 30.6332 533.942 30.5599 533.688 30.5599C533.155 30.5599 532.602 30.5932 532.028 30.6599L531.718 30.6899L531.688 30.1199C532.422 29.9732 533.072 29.8999 533.638 29.8999C534.205 29.8999 534.615 30.0299 534.868 30.2899C535.128 30.5499 535.258 30.9566 535.258 31.5099ZM532.178 33.5499C532.178 34.1632 532.432 34.4699 532.938 34.4699C533.392 34.4699 533.838 34.3932 534.278 34.2399L534.508 34.1599V32.5099L533.028 32.6499C532.728 32.6766 532.512 32.7632 532.378 32.9099C532.245 33.0566 532.178 33.2699 532.178 33.5499Z" fill="black"/>
<path d="M527.106 34.9999H526.356V29.9999H527.096V30.3499C527.636 30.0499 528.153 29.8999 528.646 29.8999C529.313 29.8999 529.76 30.0799 529.986 30.4399C530.22 30.7999 530.336 31.4399 530.336 32.3599V34.9999H529.596V32.3799C529.596 31.6866 529.526 31.2132 529.386 30.9599C529.253 30.6999 528.963 30.5699 528.516 30.5699C528.303 30.5699 528.076 30.6032 527.836 30.6699C527.603 30.7299 527.423 30.7899 527.296 30.8499L527.106 30.9399V34.9999Z" fill="black"/>
<path d="M524.877 31.5099V34.0699C524.897 34.3166 525.091 34.4632 525.457 34.5099L525.427 35.0999C524.901 35.0999 524.504 34.9666 524.237 34.6999C523.637 34.9666 523.037 35.0999 522.437 35.0999C521.977 35.0999 521.627 34.9699 521.387 34.7099C521.147 34.4499 521.027 34.0766 521.027 33.5899C521.027 33.1032 521.151 32.7466 521.397 32.5199C521.644 32.2866 522.031 32.1432 522.557 32.0899L524.127 31.9399V31.5099C524.127 31.1699 524.054 30.9266 523.907 30.7799C523.761 30.6332 523.561 30.5599 523.307 30.5599C522.774 30.5599 522.221 30.5932 521.647 30.6599L521.337 30.6899L521.307 30.1199C522.041 29.9732 522.691 29.8999 523.257 29.8999C523.824 29.8999 524.234 30.0299 524.487 30.2899C524.747 30.5499 524.877 30.9566 524.877 31.5099ZM521.797 33.5499C521.797 34.1632 522.051 34.4699 522.557 34.4699C523.011 34.4699 523.457 34.3932 523.897 34.2399L524.127 34.1599V32.5099L522.647 32.6499C522.347 32.6766 522.131 32.7632 521.997 32.9099C521.864 33.0566 521.797 33.2699 521.797 33.5499Z" fill="black"/>
<path d="M516.543 36.2302L517.003 33.9302H517.833L517.163 36.2302H516.543Z" fill="black"/>
<path d="M510.486 35.0001L512.386 28.0801H514.066L515.966 35.0001H515.206L514.706 33.2201H511.746L511.246 35.0001H510.486ZM512.966 28.7401L511.916 32.5301H514.536L513.486 28.7401H512.966Z" fill="black"/>
<path d="M504.761 29.4602C504.761 29.0136 504.915 28.6569 505.221 28.3902C505.528 28.1236 505.961 27.9902 506.521 27.9902C507.081 27.9902 507.505 28.1236 507.791 28.3902C508.085 28.6569 508.231 29.0269 508.231 29.5002C508.231 29.9669 508.115 30.3369 507.881 30.6102C507.648 30.8769 507.251 31.1402 506.691 31.4002L508.211 32.9002C508.358 32.4736 508.451 31.9336 508.491 31.2802L509.221 31.2902C509.135 32.1236 508.981 32.8169 508.761 33.3702L510.051 34.5902L509.601 35.0902L508.391 33.9602C507.931 34.7202 507.235 35.1002 506.301 35.1002C505.368 35.1002 504.715 34.9202 504.341 34.5602C503.968 34.2002 503.781 33.7036 503.781 33.0702C503.781 32.4302 503.901 31.9636 504.141 31.6702C504.388 31.3702 504.785 31.1302 505.331 30.9502C505.098 30.6836 504.945 30.4469 504.871 30.2402C504.798 30.0336 504.761 29.7736 504.761 29.4602ZM506.181 34.4202C507.001 34.4202 507.565 34.1202 507.871 33.5202L505.761 31.4202C505.321 31.5602 505.008 31.7402 504.821 31.9602C504.635 32.1802 504.541 32.5202 504.541 32.9802C504.541 33.9402 505.088 34.4202 506.181 34.4202ZM505.511 29.5802C505.511 29.9869 505.661 30.3502 505.961 30.6702L506.251 30.9502C506.711 30.7502 507.031 30.5536 507.211 30.3602C507.391 30.1669 507.481 29.9002 507.481 29.5602C507.481 28.9469 507.151 28.6402 506.491 28.6402C505.838 28.6402 505.511 28.9536 505.511 29.5802Z" fill="black"/>
<path d="M500.813 32.6701H499.053V35.0001H498.283V28.0801H500.813C501.567 28.0801 502.123 28.2634 502.483 28.6301C502.843 28.9967 503.023 29.5567 503.023 30.3101C503.023 31.8834 502.287 32.6701 500.813 32.6701ZM499.053 31.9901H500.803C501.757 31.9901 502.233 31.4301 502.233 30.3101C502.233 29.7767 502.12 29.3867 501.893 29.1401C501.667 28.8867 501.303 28.7601 500.803 28.7601H499.053V31.9901Z" fill="black"/>
<path d="M493.02 35.0001V28.0801H497.16V28.7601H493.79V31.4601H496.64V32.1401H493.79V35.0001H493.02Z" fill="black"/>
<path d="M487.614 30.5699C486.888 30.5699 486.524 30.8232 486.524 31.3299C486.524 31.5632 486.608 31.7299 486.774 31.8299C486.941 31.9232 487.321 32.0232 487.914 32.1299C488.508 32.2299 488.928 32.3732 489.174 32.5599C489.421 32.7466 489.544 33.0966 489.544 33.6099C489.544 34.1232 489.378 34.4999 489.044 34.7399C488.718 34.9799 488.238 35.0999 487.604 35.0999C487.191 35.0999 486.704 35.0532 486.144 34.9599L485.844 34.9099L485.884 34.2599C486.644 34.3732 487.218 34.4299 487.604 34.4299C487.991 34.4299 488.284 34.3699 488.484 34.2499C488.691 34.1232 488.794 33.9166 488.794 33.6299C488.794 33.3366 488.708 33.1399 488.534 33.0399C488.361 32.9332 487.981 32.8332 487.394 32.7399C486.808 32.6466 486.391 32.5099 486.144 32.3299C485.898 32.1499 485.774 31.8166 485.774 31.3299C485.774 30.8432 485.944 30.4832 486.284 30.2499C486.631 30.0166 487.061 29.8999 487.574 29.8999C487.981 29.8999 488.491 29.9466 489.104 30.0399L489.384 30.0899L489.364 30.7299C488.624 30.6232 488.041 30.5699 487.614 30.5699Z" fill="black"/>
<path d="M482.966 30.5699C482.239 30.5699 481.876 30.8232 481.876 31.3299C481.876 31.5632 481.959 31.7299 482.126 31.8299C482.293 31.9232 482.673 32.0232 483.266 32.1299C483.859 32.2299 484.279 32.3732 484.526 32.5599C484.773 32.7466 484.896 33.0966 484.896 33.6099C484.896 34.1232 484.729 34.4999 484.396 34.7399C484.069 34.9799 483.589 35.0999 482.956 35.0999C482.543 35.0999 482.056 35.0532 481.496 34.9599L481.196 34.9099L481.236 34.2599C481.996 34.3732 482.569 34.4299 482.956 34.4299C483.343 34.4299 483.636 34.3699 483.836 34.2499C484.043 34.1232 484.146 33.9166 484.146 33.6299C484.146 33.3366 484.059 33.1399 483.886 33.0399C483.713 32.9332 483.333 32.8332 482.746 32.7399C482.159 32.6466 481.743 32.5099 481.496 32.3299C481.249 32.1499 481.126 31.8166 481.126 31.3299C481.126 30.8432 481.296 30.4832 481.636 30.2499C481.983 30.0166 482.413 29.8999 482.926 29.8999C483.333 29.8999 483.843 29.9466 484.456 30.0399L484.736 30.0899L484.716 30.7299C483.976 30.6232 483.393 30.5699 482.966 30.5699Z" fill="black"/>
<path d="M475.893 32.4899C475.893 31.5766 476.056 30.9166 476.383 30.5099C476.709 30.1032 477.259 29.8999 478.033 29.8999C478.813 29.8999 479.363 30.1032 479.683 30.5099C480.009 30.9166 480.173 31.5766 480.173 32.4899C480.173 33.4032 480.019 34.0666 479.713 34.4799C479.406 34.8932 478.846 35.0999 478.033 35.0999C477.219 35.0999 476.659 34.8932 476.353 34.4799C476.046 34.0666 475.893 33.4032 475.893 32.4899ZM476.663 32.4799C476.663 33.2066 476.749 33.7166 476.923 34.0099C477.103 34.3032 477.473 34.4499 478.033 34.4499C478.599 34.4499 478.969 34.3066 479.143 34.0199C479.316 33.7266 479.403 33.2132 479.403 32.4799C479.403 31.7466 479.306 31.2432 479.113 30.9699C478.919 30.6899 478.559 30.5499 478.033 30.5499C477.513 30.5499 477.153 30.6899 476.953 30.9699C476.759 31.2432 476.663 31.7466 476.663 32.4799Z" fill="black"/>
<path d="M472.753 35.0001V30.0001H473.493V30.6801C474.073 30.2801 474.683 30.0168 475.323 29.8901V30.6501C475.043 30.7035 474.75 30.7868 474.443 30.9001C474.143 31.0135 473.913 31.1135 473.753 31.2001L473.503 31.3301V35.0001H472.753Z" fill="black"/>
<path d="M470.267 29.8999C470.488 29.8999 470.861 29.9399 471.387 30.0199L471.627 30.0499L471.597 30.6599C471.064 30.5999 470.671 30.5699 470.417 30.5699C469.851 30.5699 469.464 30.7066 469.257 30.9799C469.057 31.2466 468.957 31.7466 468.957 32.4799C468.957 33.2066 469.051 33.7132 469.238 33.9999C469.431 34.2866 469.827 34.4299 470.427 34.4299L471.608 34.3399L471.637 34.9599C471.017 35.0532 470.554 35.0999 470.247 35.0999C469.467 35.0999 468.928 34.8999 468.628 34.4999C468.334 34.0999 468.188 33.4266 468.188 32.4799C468.188 31.5266 468.347 30.8599 468.668 30.4799C468.987 30.0932 469.521 29.8999 470.267 29.8999Z" fill="black"/>
<path d="M462.02 35.0001L463.92 28.0801H465.6L467.5 35.0001H466.74L466.24 33.2201H463.28L462.78 35.0001H462.02ZM464.5 28.7401L463.45 32.5301H466.07L465.02 28.7401H464.5Z" fill="black"/>
<path d="M620.642 132.57C619.915 132.57 619.552 132.823 619.552 133.33C619.552 133.563 619.635 133.73 619.802 133.83C619.968 133.923 620.348 134.023 620.942 134.13C621.535 134.23 621.955 134.373 622.202 134.56C622.448 134.747 622.572 135.097 622.572 135.61C622.572 136.123 622.405 136.5 622.072 136.74C621.745 136.98 621.265 137.1 620.632 137.1C620.218 137.1 619.732 137.053 619.172 136.96L618.872 136.91L618.912 136.26C619.672 136.373 620.245 136.43 620.632 136.43C621.018 136.43 621.312 136.37 621.512 136.25C621.718 136.123 621.822 135.917 621.822 135.63C621.822 135.337 621.735 135.14 621.562 135.04C621.388 134.933 621.008 134.833 620.422 134.74C619.835 134.647 619.418 134.51 619.172 134.33C618.925 134.15 618.802 133.817 618.802 133.33C618.802 132.843 618.972 132.483 619.312 132.25C619.658 132.017 620.088 131.9 620.602 131.9C621.008 131.9 621.518 131.947 622.132 132.04L622.412 132.09L622.392 132.73C621.652 132.623 621.068 132.57 620.642 132.57Z" fill="black"/>
<path d="M616.74 137V130.08H617.51V137H616.74Z" fill="black"/>
<path d="M613.342 134.67H611.583V137H610.812V130.08H613.342C614.096 130.08 614.653 130.263 615.013 130.63C615.373 130.997 615.552 131.557 615.552 132.31C615.552 133.883 614.816 134.67 613.342 134.67ZM611.583 133.99H613.333C614.286 133.99 614.763 133.43 614.763 132.31C614.763 131.777 614.649 131.387 614.423 131.14C614.196 130.887 613.833 130.76 613.333 130.76H611.583V133.99Z" fill="black"/>
<path d="M605.889 137H605.119V130.08H605.889V133.3L607.029 133.26L608.799 130.08H609.679L607.699 133.56L609.789 137H608.879L607.039 133.94L605.889 133.98V137Z" fill="black"/>
<path d="M601.339 129.82V137H600.599V136.66C600.086 136.953 599.579 137.1 599.079 137.1C598.813 137.1 598.579 137.066 598.379 137C598.179 136.933 597.993 136.813 597.819 136.64C597.459 136.28 597.279 135.616 597.279 134.65C597.279 133.676 597.439 132.976 597.759 132.55C598.086 132.116 598.623 131.9 599.369 131.9C599.756 131.9 600.166 131.943 600.599 132.03V129.82H601.339ZM598.399 136.1C598.506 136.226 598.619 136.313 598.739 136.36C598.859 136.406 599.013 136.43 599.199 136.43C599.393 136.43 599.606 136.4 599.839 136.34C600.079 136.273 600.266 136.21 600.399 136.15L600.599 136.06V132.67C600.173 132.59 599.776 132.55 599.409 132.55C598.903 132.55 598.549 132.713 598.349 133.04C598.149 133.36 598.049 133.86 598.049 134.54C598.049 135.313 598.166 135.833 598.399 136.1Z" fill="black"/>
<path d="M592.878 137H592.128V132H592.868V132.35C593.408 132.05 593.925 131.9 594.418 131.9C595.085 131.9 595.531 132.08 595.758 132.44C595.991 132.8 596.108 133.44 596.108 134.36V137H595.368V134.38C595.368 133.687 595.298 133.213 595.158 132.96C595.025 132.7 594.735 132.57 594.288 132.57C594.075 132.57 593.848 132.603 593.608 132.67C593.375 132.73 593.195 132.79 593.068 132.85L592.878 132.94V137Z" fill="black"/>
<path d="M590.649 133.51V136.07C590.669 136.317 590.862 136.463 591.229 136.51L591.199 137.1C590.672 137.1 590.275 136.967 590.009 136.7C589.409 136.967 588.809 137.1 588.209 137.1C587.749 137.1 587.399 136.97 587.159 136.71C586.919 136.45 586.799 136.077 586.799 135.59C586.799 135.103 586.922 134.747 587.169 134.52C587.415 134.287 587.802 134.143 588.329 134.09L589.899 133.94V133.51C589.899 133.17 589.825 132.927 589.679 132.78C589.532 132.633 589.332 132.56 589.079 132.56C588.545 132.56 587.992 132.593 587.419 132.66L587.109 132.69L587.079 132.12C587.812 131.973 588.462 131.9 589.029 131.9C589.595 131.9 590.005 132.03 590.259 132.29C590.519 132.55 590.649 132.957 590.649 133.51ZM587.569 135.55C587.569 136.163 587.822 136.47 588.329 136.47C588.782 136.47 589.229 136.393 589.669 136.24L589.899 136.16V134.51L588.419 134.65C588.119 134.677 587.902 134.763 587.769 134.91C587.635 135.057 587.569 135.27 587.569 135.55Z" fill="black"/>
<path d="M581.714 139.35C580.914 139.35 580.354 139.24 580.034 139.02C579.721 138.807 579.564 138.413 579.564 137.84C579.564 137.567 579.624 137.343 579.744 137.17C579.864 137.003 580.068 136.813 580.354 136.6C580.168 136.473 580.074 136.243 580.074 135.91C580.074 135.797 580.158 135.587 580.324 135.28L580.414 135.12C579.888 134.88 579.624 134.377 579.624 133.61C579.624 132.47 580.248 131.9 581.494 131.9C581.814 131.9 582.111 131.933 582.384 132L582.534 132.03L584.014 131.99V132.63L583.064 132.61C583.284 132.83 583.394 133.163 583.394 133.61C583.394 134.237 583.238 134.677 582.924 134.93C582.618 135.177 582.131 135.3 581.464 135.3C581.284 135.3 581.121 135.287 580.974 135.26C580.854 135.553 580.794 135.743 580.794 135.83C580.794 136.037 580.858 136.167 580.984 136.22C581.111 136.267 581.494 136.29 582.134 136.29C582.774 136.29 583.234 136.39 583.514 136.59C583.794 136.79 583.934 137.18 583.934 137.76C583.934 138.82 583.194 139.35 581.714 139.35ZM580.304 137.78C580.304 138.133 580.401 138.377 580.594 138.51C580.794 138.65 581.158 138.72 581.684 138.72C582.218 138.72 582.598 138.647 582.824 138.5C583.058 138.353 583.174 138.107 583.174 137.76C583.174 137.42 583.091 137.2 582.924 137.1C582.758 137 582.431 136.95 581.944 136.95L580.864 136.9C580.644 137.06 580.494 137.2 580.414 137.32C580.341 137.44 580.304 137.593 580.304 137.78ZM580.374 133.61C580.374 134.003 580.461 134.283 580.634 134.45C580.814 134.617 581.108 134.7 581.514 134.7C581.921 134.7 582.211 134.617 582.384 134.45C582.558 134.283 582.644 134.003 582.644 133.61C582.644 133.21 582.558 132.927 582.384 132.76C582.211 132.593 581.921 132.51 581.514 132.51C581.108 132.51 580.814 132.597 580.634 132.77C580.461 132.937 580.374 133.217 580.374 133.61Z" fill="black"/>
<path d="M575.163 137H574.413V132H575.153V132.35C575.693 132.05 576.21 131.9 576.703 131.9C577.37 131.9 577.816 132.08 578.043 132.44C578.276 132.8 578.393 133.44 578.393 134.36V137H577.653V134.38C577.653 133.687 577.583 133.213 577.443 132.96C577.31 132.7 577.02 132.57 576.573 132.57C576.36 132.57 576.133 132.603 575.893 132.67C575.66 132.73 575.48 132.79 575.353 132.85L575.163 132.94V137Z" fill="black"/>
<path d="M572.226 137V132H572.976V137H572.226ZM572.226 130.87V130H572.976V130.87H572.226Z" fill="black"/>
<path d="M571.31 132.65H569.72V135.04C569.72 135.614 569.76 135.99 569.84 136.17C569.926 136.35 570.126 136.44 570.44 136.44L571.33 136.38L571.38 137C570.933 137.074 570.593 137.11 570.36 137.11C569.84 137.11 569.48 136.984 569.28 136.73C569.08 136.477 568.98 135.994 568.98 135.28V132.65H568.27V132H568.98V130.47H569.72V132H571.31V132.65Z" fill="black"/>
<path d="M565.263 137V132H566.003V132.68C566.583 132.28 567.193 132.017 567.833 131.89V132.65C567.553 132.703 567.259 132.787 566.953 132.9C566.653 133.013 566.423 133.113 566.263 133.2L566.013 133.33V137H565.263Z" fill="black"/>
<path d="M559.76 134.49C559.76 133.577 559.923 132.917 560.25 132.51C560.576 132.103 561.126 131.9 561.9 131.9C562.68 131.9 563.23 132.103 563.55 132.51C563.876 132.917 564.04 133.577 564.04 134.49C564.04 135.403 563.886 136.067 563.58 136.48C563.273 136.893 562.713 137.1 561.9 137.1C561.086 137.1 560.526 136.893 560.22 136.48C559.913 136.067 559.76 135.403 559.76 134.49ZM560.53 134.48C560.53 135.207 560.616 135.717 560.79 136.01C560.97 136.303 561.34 136.45 561.9 136.45C562.466 136.45 562.836 136.307 563.01 136.02C563.183 135.727 563.27 135.213 563.27 134.48C563.27 133.747 563.173 133.243 562.98 132.97C562.786 132.69 562.426 132.55 561.9 132.55C561.38 132.55 561.02 132.69 560.82 132.97C560.626 133.243 560.53 133.747 560.53 134.48Z" fill="black"/>
<path d="M554.706 139.22V132H555.446V132.36C555.953 132.053 556.453 131.9 556.946 131.9C557.579 131.9 558.039 132.103 558.326 132.51C558.613 132.91 558.756 133.573 558.756 134.5C558.756 135.427 558.586 136.093 558.246 136.5C557.913 136.9 557.356 137.1 556.576 137.1C556.169 137.1 555.796 137.063 555.456 136.99V139.22H554.706ZM556.836 132.57C556.636 132.57 556.419 132.603 556.186 132.67C555.959 132.737 555.779 132.803 555.646 132.87L555.456 132.97V136.34C555.929 136.413 556.289 136.45 556.536 136.45C557.076 136.45 557.453 136.297 557.666 135.99C557.886 135.683 557.996 135.183 557.996 134.49C557.996 133.797 557.896 133.303 557.696 133.01C557.503 132.717 557.216 132.57 556.836 132.57Z" fill="black"/>
<path d="M553.057 136.38L553.347 136.35L553.368 136.94C552.608 137.047 551.957 137.1 551.417 137.1C550.697 137.1 550.188 136.893 549.888 136.48C549.588 136.06 549.438 135.41 549.438 134.53C549.438 132.777 550.134 131.9 551.528 131.9C552.201 131.9 552.704 132.09 553.037 132.47C553.371 132.843 553.537 133.433 553.537 134.24L553.498 134.81H550.197C550.197 135.363 550.298 135.773 550.498 136.04C550.698 136.307 551.044 136.44 551.537 136.44C552.037 136.44 552.544 136.42 553.057 136.38ZM552.787 134.21C552.787 133.597 552.687 133.163 552.487 132.91C552.294 132.657 551.974 132.53 551.528 132.53C551.088 132.53 550.754 132.663 550.528 132.93C550.308 133.197 550.194 133.623 550.188 134.21H552.787Z" fill="black"/>
<path d="M546.298 137V132H547.038V132.68C547.618 132.28 548.228 132.017 548.868 131.89V132.65C548.588 132.703 548.295 132.787 547.988 132.9C547.688 133.013 547.458 133.113 547.298 133.2L547.048 133.33V137H546.298Z" fill="black"/>
<path d="M543.185 132.65H541.595V135.04C541.595 135.614 541.635 135.99 541.715 136.17C541.801 136.35 542.001 136.44 542.315 136.44L543.205 136.38L543.255 137C542.808 137.074 542.468 137.11 542.235 137.11C541.715 137.11 541.355 136.984 541.155 136.73C540.955 136.477 540.855 135.994 540.855 135.28V132.65H540.145V132H540.855V130.47H541.595V132H543.185V132.65Z" fill="black"/>
<path d="M536.003 137H535.253V132H535.993V132.35C536.533 132.05 537.05 131.9 537.543 131.9C538.21 131.9 538.656 132.08 538.883 132.44C539.116 132.8 539.233 133.44 539.233 134.36V137H538.493V134.38C538.493 133.687 538.423 133.213 538.283 132.96C538.15 132.7 537.86 132.57 537.413 132.57C537.2 132.57 536.973 132.603 536.733 132.67C536.5 132.73 536.32 132.79 536.193 132.85L536.003 132.94V137Z" fill="black"/>
<path d="M533.604 136.38L533.894 136.35L533.914 136.94C533.154 137.047 532.504 137.1 531.964 137.1C531.244 137.1 530.734 136.893 530.434 136.48C530.134 136.06 529.984 135.41 529.984 134.53C529.984 132.777 530.681 131.9 532.074 131.9C532.748 131.9 533.251 132.09 533.584 132.47C533.918 132.843 534.084 133.433 534.084 134.24L534.044 134.81H530.744C530.744 135.363 530.844 135.773 531.044 136.04C531.244 136.307 531.591 136.44 532.084 136.44C532.584 136.44 533.091 136.42 533.604 136.38ZM533.334 134.21C533.334 133.597 533.234 133.163 533.034 132.91C532.841 132.657 532.521 132.53 532.074 132.53C531.634 132.53 531.301 132.663 531.074 132.93C530.854 133.197 530.741 133.623 530.734 134.21H533.334Z" fill="black"/>
<path d="M529.288 132.65H527.698V135.04C527.698 135.614 527.738 135.99 527.818 136.17C527.905 136.35 528.105 136.44 528.418 136.44L529.308 136.38L529.358 137C528.911 137.074 528.571 137.11 528.338 137.11C527.818 137.11 527.458 136.984 527.258 136.73C527.058 136.477 526.958 135.994 526.958 135.28V132.65H526.248V132H526.958V130.47H527.698V132H529.288V132.65Z" fill="black"/>
<path d="M523.62 132.57C522.894 132.57 522.53 132.823 522.53 133.33C522.53 133.563 522.614 133.73 522.78 133.83C522.947 133.923 523.327 134.023 523.92 134.13C524.514 134.23 524.934 134.373 525.18 134.56C525.427 134.747 525.55 135.097 525.55 135.61C525.55 136.123 525.384 136.5 525.05 136.74C524.724 136.98 524.244 137.1 523.61 137.1C523.197 137.1 522.71 137.053 522.15 136.96L521.85 136.91L521.89 136.26C522.65 136.373 523.224 136.43 523.61 136.43C523.997 136.43 524.29 136.37 524.49 136.25C524.697 136.123 524.8 135.917 524.8 135.63C524.8 135.337 524.714 135.14 524.54 135.04C524.367 134.933 523.987 134.833 523.4 134.74C522.814 134.647 522.397 134.51 522.15 134.33C521.904 134.15 521.78 133.817 521.78 133.33C521.78 132.843 521.95 132.483 522.29 132.25C522.637 132.017 523.067 131.9 523.58 131.9C523.987 131.9 524.497 131.947 525.11 132.04L525.39 132.09L525.37 132.73C524.63 132.623 524.047 132.57 523.62 132.57Z" fill="black"/>
<path d="M519.862 137V132H520.612V137H519.862ZM519.862 130.87V130H520.612V130.87H519.862Z" fill="black"/>
<path d="M516.784 132.57C516.058 132.57 515.694 132.823 515.694 133.33C515.694 133.563 515.778 133.73 515.944 133.83C516.111 133.923 516.491 134.023 517.084 134.13C517.678 134.23 518.098 134.373 518.344 134.56C518.591 134.747 518.714 135.097 518.714 135.61C518.714 136.123 518.548 136.5 518.214 136.74C517.888 136.98 517.408 137.1 516.774 137.1C516.361 137.1 515.874 137.053 515.314 136.96L515.014 136.91L515.054 136.26C515.814 136.373 516.388 136.43 516.774 136.43C517.161 136.43 517.454 136.37 517.654 136.25C517.861 136.123 517.964 135.917 517.964 135.63C517.964 135.337 517.878 135.14 517.704 135.04C517.531 134.933 517.151 134.833 516.564 134.74C515.978 134.647 515.561 134.51 515.314 134.33C515.068 134.15 514.944 133.817 514.944 133.33C514.944 132.843 515.114 132.483 515.454 132.25C515.801 132.017 516.231 131.9 516.744 131.9C517.151 131.9 517.661 131.947 518.274 132.04L518.554 132.09L518.534 132.73C517.794 132.623 517.211 132.57 516.784 132.57Z" fill="black"/>
<path d="M510.593 137H509.843V132H510.583V132.35C511.123 132.05 511.639 131.9 512.133 131.9C512.799 131.9 513.246 132.08 513.473 132.44C513.706 132.8 513.823 133.44 513.823 134.36V137H513.083V134.38C513.083 133.687 513.013 133.213 512.873 132.96C512.739 132.7 512.449 132.57 512.003 132.57C511.789 132.57 511.563 132.603 511.323 132.67C511.089 132.73 510.909 132.79 510.783 132.85L510.593 132.94V137Z" fill="black"/>
<path d="M504.34 134.49C504.34 133.577 504.503 132.917 504.83 132.51C505.157 132.103 505.707 131.9 506.48 131.9C507.26 131.9 507.81 132.103 508.13 132.51C508.457 132.917 508.62 133.577 508.62 134.49C508.62 135.403 508.467 136.067 508.16 136.48C507.853 136.893 507.293 137.1 506.48 137.1C505.667 137.1 505.107 136.893 504.8 136.48C504.493 136.067 504.34 135.403 504.34 134.49ZM505.11 134.48C505.11 135.207 505.197 135.717 505.37 136.01C505.55 136.303 505.92 136.45 506.48 136.45C507.047 136.45 507.417 136.307 507.59 136.02C507.763 135.727 507.85 135.213 507.85 134.48C507.85 133.747 507.753 133.243 507.56 132.97C507.367 132.69 507.007 132.55 506.48 132.55C505.96 132.55 505.6 132.69 505.4 132.97C505.207 133.243 505.11 133.747 505.11 134.48Z" fill="black"/>
<path d="M503.528 136.89C502.841 137.03 502.225 137.1 501.678 137.1C501.131 137.1 500.688 137.027 500.348 136.88C500.015 136.727 499.755 136.493 499.568 136.18C499.388 135.86 499.261 135.497 499.188 135.09C499.121 134.677 499.088 134.163 499.088 133.55C499.088 132.937 499.121 132.423 499.188 132.01C499.261 131.59 499.388 131.22 499.568 130.9C499.755 130.58 500.015 130.347 500.348 130.2C500.681 130.053 501.115 129.98 501.648 129.98C502.181 129.98 502.808 130.053 503.528 130.2L503.498 130.85C502.825 130.73 502.225 130.67 501.698 130.67C500.965 130.67 500.478 130.89 500.238 131.33C500.005 131.763 499.888 132.507 499.888 133.56C499.888 134.087 499.908 134.51 499.948 134.83C499.995 135.15 500.081 135.44 500.208 135.7C500.335 135.953 500.518 136.137 500.758 136.25C501.005 136.357 501.361 136.41 501.828 136.41C502.301 136.41 502.858 136.35 503.498 136.23L503.528 136.89Z" fill="black"/>
<path d="M619.099 248H618.349V240.82H619.099V243.28C619.632 243.026 620.145 242.9 620.639 242.9C621.305 242.9 621.752 243.08 621.979 243.44C622.212 243.8 622.329 244.44 622.329 245.36V248H621.579V245.38C621.579 244.686 621.509 244.213 621.369 243.96C621.235 243.7 620.949 243.57 620.509 243.57C620.089 243.57 619.682 243.646 619.289 243.8L619.099 243.87V248Z" fill="black"/>
<path d="M617.433 243.65H615.843V246.04C615.843 246.614 615.883 246.99 615.963 247.17C616.049 247.35 616.249 247.44 616.563 247.44L617.453 247.38L617.503 248C617.056 248.074 616.716 248.11 616.483 248.11C615.963 248.11 615.603 247.984 615.403 247.73C615.203 247.477 615.103 246.994 615.103 246.28V243.65H614.393V243H615.103V241.47H615.843V243H617.433V243.65Z" fill="black"/>
<path d="M612.65 243H613.4V248H612.65V247.65C612.15 247.95 611.657 248.1 611.17 248.1C610.49 248.1 610.037 247.923 609.81 247.57C609.59 247.217 609.48 246.563 609.48 245.61V243H610.23V245.6C610.23 246.327 610.294 246.813 610.42 247.06C610.547 247.307 610.834 247.43 611.28 247.43C611.5 247.43 611.724 247.4 611.95 247.34C612.177 247.273 612.35 247.21 612.47 247.15L612.65 247.06V243Z" fill="black"/>
<path d="M606.073 248V243H606.813V243.68C607.393 243.28 608.003 243.017 608.643 242.89V243.65C608.363 243.703 608.07 243.787 607.763 243.9C607.463 244.013 607.233 244.113 607.073 244.2L606.823 244.33V248H606.073Z" fill="black"/>
<path d="M605.157 243.65H603.567V246.04C603.567 246.614 603.607 246.99 603.687 247.17C603.774 247.35 603.974 247.44 604.287 247.44L605.177 247.38L605.227 248C604.781 248.074 604.441 248.11 604.207 248.11C603.687 248.11 603.327 247.984 603.127 247.73C602.927 247.477 602.827 246.994 602.827 246.28V243.65H602.117V243H602.827V241.47H603.567V243H605.157V243.65Z" fill="black"/>
<path d="M598.02 243.65V248H597.27V243.65H596.64V243H597.27V242.55C597.27 241.844 597.37 241.364 597.57 241.11C597.77 240.85 598.12 240.72 598.62 240.72L599.63 240.79L599.62 241.41C599.246 241.397 598.936 241.39 598.69 241.39C598.45 241.39 598.276 241.47 598.17 241.63C598.07 241.79 598.02 242.1 598.02 242.56V243H599.47V243.65H598.02Z" fill="black"/>
<path d="M591.557 245.49C591.557 244.577 591.72 243.917 592.047 243.51C592.373 243.103 592.923 242.9 593.697 242.9C594.477 242.9 595.027 243.103 595.347 243.51C595.673 243.917 595.837 244.577 595.837 245.49C595.837 246.403 595.683 247.067 595.377 247.48C595.07 247.893 594.51 248.1 593.697 248.1C592.883 248.1 592.323 247.893 592.017 247.48C591.71 247.067 591.557 246.403 591.557 245.49ZM592.327 245.48C592.327 246.207 592.413 246.717 592.587 247.01C592.767 247.303 593.137 247.45 593.697 247.45C594.263 247.45 594.633 247.307 594.807 247.02C594.98 246.727 595.067 246.213 595.067 245.48C595.067 244.747 594.97 244.243 594.777 243.97C594.583 243.69 594.223 243.55 593.697 243.55C593.177 243.55 592.817 243.69 592.617 243.97C592.423 244.243 592.327 244.747 592.327 245.48Z" fill="black"/>
<path d="M587.931 247.38L588.221 247.35L588.241 247.94C587.481 248.047 586.831 248.1 586.291 248.1C585.571 248.1 585.061 247.893 584.761 247.48C584.461 247.06 584.311 246.41 584.311 245.53C584.311 243.777 585.007 242.9 586.401 242.9C587.074 242.9 587.577 243.09 587.911 243.47C588.244 243.843 588.411 244.433 588.411 245.24L588.371 245.81H585.071C585.071 246.363 585.171 246.773 585.371 247.04C585.571 247.307 585.917 247.44 586.411 247.44C586.911 247.44 587.417 247.42 587.931 247.38ZM587.661 245.21C587.661 244.597 587.561 244.163 587.361 243.91C587.167 243.657 586.847 243.53 586.401 243.53C585.961 243.53 585.627 243.663 585.401 243.93C585.181 244.197 585.067 244.623 585.061 245.21H587.661Z" fill="black"/>
<path d="M582.103 242.9C582.323 242.9 582.697 242.94 583.223 243.02L583.463 243.05L583.433 243.66C582.9 243.6 582.507 243.57 582.253 243.57C581.687 243.57 581.3 243.707 581.093 243.98C580.893 244.247 580.793 244.747 580.793 245.48C580.793 246.207 580.887 246.713 581.073 247C581.267 247.287 581.663 247.43 582.263 247.43L583.443 247.34L583.473 247.96C582.853 248.053 582.39 248.1 582.083 248.1C581.303 248.1 580.763 247.9 580.463 247.5C580.17 247.1 580.023 246.427 580.023 245.48C580.023 244.527 580.183 243.86 580.503 243.48C580.823 243.093 581.357 242.9 582.103 242.9Z" fill="black"/>
<path d="M576.874 248V243H577.614V243.68C578.194 243.28 578.804 243.017 579.444 242.89V243.65C579.164 243.703 578.871 243.787 578.564 243.9C578.264 244.013 578.034 244.113 577.874 244.2L577.624 244.33V248H576.874Z" fill="black"/>
<path d="M574.682 243H575.432V248H574.682V247.65C574.182 247.95 573.688 248.1 573.202 248.1C572.522 248.1 572.068 247.923 571.842 247.57C571.622 247.217 571.512 246.563 571.512 245.61V243H572.262V245.6C572.262 246.327 572.325 246.813 572.452 247.06C572.578 247.307 572.865 247.43 573.312 247.43C573.532 247.43 573.755 247.4 573.982 247.34C574.208 247.273 574.382 247.21 574.502 247.15L574.682 247.06V243Z" fill="black"/>
<path d="M566.059 245.49C566.059 244.577 566.222 243.917 566.549 243.51C566.875 243.103 567.425 242.9 568.199 242.9C568.979 242.9 569.529 243.103 569.849 243.51C570.175 243.917 570.339 244.577 570.339 245.49C570.339 246.403 570.185 247.067 569.879 247.48C569.572 247.893 569.012 248.1 568.199 248.1C567.385 248.1 566.825 247.893 566.519 247.48C566.212 247.067 566.059 246.403 566.059 245.49ZM566.829 245.48C566.829 246.207 566.915 246.717 567.089 247.01C567.269 247.303 567.639 247.45 568.199 247.45C568.765 247.45 569.135 247.307 569.309 247.02C569.482 246.727 569.569 246.213 569.569 245.48C569.569 244.747 569.472 244.243 569.279 243.97C569.085 243.69 568.725 243.55 568.199 243.55C567.679 243.55 567.319 243.69 567.119 243.97C566.925 244.243 566.829 244.747 566.829 245.48Z" fill="black"/>
<path d="M563.2 243.57C562.474 243.57 562.11 243.823 562.11 244.33C562.11 244.563 562.194 244.73 562.36 244.83C562.527 244.923 562.907 245.023 563.5 245.13C564.094 245.23 564.514 245.373 564.76 245.56C565.007 245.747 565.13 246.097 565.13 246.61C565.13 247.123 564.964 247.5 564.63 247.74C564.304 247.98 563.824 248.1 563.19 248.1C562.777 248.1 562.29 248.053 561.73 247.96L561.43 247.91L561.47 247.26C562.23 247.373 562.804 247.43 563.19 247.43C563.577 247.43 563.87 247.37 564.07 247.25C564.277 247.123 564.38 246.917 564.38 246.63C564.38 246.337 564.294 246.14 564.12 246.04C563.947 245.933 563.567 245.833 562.98 245.74C562.394 245.647 561.977 245.51 561.73 245.33C561.484 245.15 561.36 244.817 561.36 244.33C561.36 243.843 561.53 243.483 561.87 243.25C562.217 243.017 562.647 242.9 563.16 242.9C563.567 242.9 564.077 242.947 564.69 243.04L564.97 243.09L564.95 243.73C564.21 243.623 563.627 243.57 563.2 243.57Z" fill="black"/>
<path d="M557.784 247.38L558.074 247.35L558.094 247.94C557.334 248.047 556.684 248.1 556.144 248.1C555.424 248.1 554.914 247.893 554.614 247.48C554.314 247.06 554.164 246.41 554.164 245.53C554.164 243.777 554.861 242.9 556.254 242.9C556.927 242.9 557.431 243.09 557.764 243.47C558.097 243.843 558.264 244.433 558.264 245.24L558.224 245.81H554.924C554.924 246.363 555.024 246.773 555.224 247.04C555.424 247.307 555.771 247.44 556.264 247.44C556.764 247.44 557.271 247.42 557.784 247.38ZM557.514 245.21C557.514 244.597 557.414 244.163 557.214 243.91C557.021 243.657 556.701 243.53 556.254 243.53C555.814 243.53 555.481 243.663 555.254 243.93C555.034 244.197 554.921 244.623 554.914 245.21H557.514Z" fill="black"/>
<path d="M552.13 248V240.82H552.88V248H552.13Z" fill="black"/>
<path d="M548.863 250.35C548.063 250.35 547.503 250.24 547.183 250.02C546.87 249.807 546.713 249.413 546.713 248.84C546.713 248.567 546.773 248.343 546.893 248.17C547.013 248.003 547.216 247.813 547.503 247.6C547.316 247.473 547.223 247.243 547.223 246.91C547.223 246.797 547.306 246.587 547.473 246.28L547.563 246.12C547.036 245.88 546.773 245.377 546.773 244.61C546.773 243.47 547.396 242.9 548.643 242.9C548.963 242.9 549.26 242.933 549.533 243L549.683 243.03L551.163 242.99V243.63L550.213 243.61C550.433 243.83 550.543 244.163 550.543 244.61C550.543 245.237 550.386 245.677 550.073 245.93C549.766 246.177 549.28 246.3 548.613 246.3C548.433 246.3 548.27 246.287 548.123 246.26C548.003 246.553 547.943 246.743 547.943 246.83C547.943 247.037 548.006 247.167 548.133 247.22C548.26 247.267 548.643 247.29 549.283 247.29C549.923 247.29 550.383 247.39 550.663 247.59C550.943 247.79 551.083 248.18 551.083 248.76C551.083 249.82 550.343 250.35 548.863 250.35ZM547.453 248.78C547.453 249.133 547.55 249.377 547.743 249.51C547.943 249.65 548.306 249.72 548.833 249.72C549.366 249.72 549.746 249.647 549.973 249.5C550.206 249.353 550.323 249.107 550.323 248.76C550.323 248.42 550.24 248.2 550.073 248.1C549.906 248 549.58 247.95 549.093 247.95L548.013 247.9C547.793 248.06 547.643 248.2 547.563 248.32C547.49 248.44 547.453 248.593 547.453 248.78ZM547.523 244.61C547.523 245.003 547.61 245.283 547.783 245.45C547.963 245.617 548.256 245.7 548.663 245.7C549.07 245.7 549.36 245.617 549.533 245.45C549.706 245.283 549.793 245.003 549.793 244.61C549.793 244.21 549.706 243.927 549.533 243.76C549.36 243.593 549.07 243.51 548.663 243.51C548.256 243.51 547.963 243.597 547.783 243.77C547.61 243.937 547.523 244.217 547.523 244.61Z" fill="black"/>
<path d="M542.312 248H541.562V243H542.302V243.35C542.842 243.05 543.358 242.9 543.852 242.9C544.518 242.9 544.965 243.08 545.192 243.44C545.425 243.8 545.542 244.44 545.542 245.36V248H544.802V245.38C544.802 244.687 544.732 244.213 544.592 243.96C544.458 243.7 544.168 243.57 543.722 243.57C543.508 243.57 543.282 243.603 543.042 243.67C542.808 243.73 542.628 243.79 542.502 243.85L542.312 243.94V248Z" fill="black"/>
<path d="M539.374 248V243H540.124V248H539.374ZM539.374 241.87V241H540.124V241.87H539.374Z" fill="black"/>
<path d="M535.995 241.65C534.995 241.65 534.495 242.027 534.495 242.78C534.495 243.2 534.608 243.49 534.835 243.65C535.068 243.804 535.535 243.96 536.235 244.12C536.942 244.274 537.442 244.477 537.735 244.73C538.028 244.977 538.175 245.387 538.175 245.96C538.175 247.38 537.438 248.09 535.965 248.09C535.478 248.09 534.868 248.034 534.135 247.92L533.775 247.87L533.855 247.23C534.762 247.35 535.452 247.41 535.925 247.41C536.912 247.41 537.405 246.947 537.405 246.02C537.405 245.647 537.295 245.38 537.075 245.22C536.862 245.054 536.458 244.914 535.865 244.8C535.085 244.634 534.532 244.42 534.205 244.16C533.878 243.894 533.715 243.45 533.715 242.83C533.715 241.59 534.458 240.97 535.945 240.97C536.432 240.97 537.015 241.02 537.695 241.12L538.035 241.17L537.965 241.82C537.038 241.707 536.382 241.65 535.995 241.65Z" fill="black"/>
<rect x="320" y="48" width="303" height="1" fill="#FFB216"/>
<circle cx="320.5" cy="48.5" r="2.5" fill="#FFB216"/>
<rect x="402" y="150" width="221" height="1" fill="#FFB216"/>
<circle cx="401.5" cy="150.5" r="2.5" fill="#FFB216"/>
<rect x="491" y="262" width="132" height="1" fill="#FFB216"/>
<circle cx="490.5" cy="262.5" r="2.5" fill="#FFB216"/>
<path d="M341.5 104H171L256.5 0L341.5 104Z" fill="url(#paint0_linear_3758_1665)"/>
<path d="M343 108H171L86 212.5H427.5L343 108Z" fill="url(#paint1_linear_3758_1665)"/>
<path d="M0.5 321L85 217H430L513.5 321H0.5Z" fill="url(#paint2_linear_3758_1665)"/>
<defs>
<linearGradient id="paint0_linear_3758_1665" x1="257" y1="0" x2="257" y2="321" gradientUnits="userSpaceOnUse">
<stop stop-color="#FFEBC1"/>
<stop offset="1" stop-color="#FFB624"/>
</linearGradient>
<linearGradient id="paint1_linear_3758_1665" x1="257" y1="0" x2="257" y2="321" gradientUnits="userSpaceOnUse">
<stop stop-color="#FFEBC1"/>
<stop offset="1" stop-color="#FFB624"/>
</linearGradient>
<linearGradient id="paint2_linear_3758_1665" x1="257" y1="0" x2="257" y2="321" gradientUnits="userSpaceOnUse">
<stop stop-color="#FFEBC1"/>
<stop offset="1" stop-color="#FFB624"/>
</linearGradient>
</defs>
</svg>
