<svg width="62" height="69" viewBox="0 0 62 69" fill="none" xmlns="http://www.w3.org/2000/svg">
<path d="M56.1191 40.1816V8.93352C56.1191 7.76856 55.1724 6.82218 54.0071 6.82218H43.3155V6.47478C43.3155 5.38166 42.4288 4.49523 41.3353 4.49523H37.7973C37.279 1.93163 35.0083 0 32.2941 0C29.5799 0 27.3151 1.93462 26.7968 4.49523H23.2588C22.1653 4.49523 21.2786 5.38166 21.2786 6.47478V6.82218H10.587C9.4217 6.82218 8.47502 7.76856 8.47502 8.93352V50.0011C8.30127 49.8424 8.07059 49.7466 7.81895 49.7466H0.973601C0.434366 49.7466 0 50.1838 0 50.7198V68.0267C0 68.5658 0.43738 69 0.973601 69H7.81895C8.35818 69 8.79255 68.5628 8.79255 68.0267V67.6404C10.2455 68.3711 11.8483 69 13.6577 69H24.0678C25.1943 69 26.1858 68.395 26.7281 67.4936H54.0043C55.1666 67.4936 56.1163 66.5473 56.1163 65.3823V58.4224C59.5824 56.8441 62 53.3521 62 49.3028C62 45.2535 59.5825 41.7589 56.1163 40.1809L56.1191 40.1816ZM6.84778 51.9661V67.0511H1.94971V51.6939H6.84778V51.9694V51.9661ZM43.3185 9.05006H53.8904V39.4686C53.2733 39.3488 52.6352 39.2859 51.9851 39.2859C51.6196 39.2859 51.2601 39.3068 50.9067 39.3458V13.0934C50.9067 12.4076 50.3495 11.8505 49.6634 11.8505H43.3184L43.3185 9.05006ZM23.5136 6.72305H27.8066C28.4237 6.72305 28.921 6.22292 28.921 5.609C28.921 3.74323 30.4369 2.22782 32.3002 2.22782C34.1636 2.22782 35.6825 3.74622 35.6825 5.609C35.6825 6.22593 36.1828 6.72305 36.7969 6.72305H41.0898V14.1802H23.5136V6.72305ZM23.265 16.4084H41.3412C42.4347 16.4084 43.3214 15.5189 43.3214 14.4259V14.0785H48.6808V39.8487C44.7743 41.2173 41.9673 44.9398 41.9673 49.3033C41.9673 53.6697 44.7744 57.3863 48.6808 58.7548V60.2372H28.0577C28.0068 60.1384 27.9528 60.0426 27.8929 59.9497C28.7018 59.3897 29.232 58.4553 29.232 57.4012C29.232 56.8711 29.1062 56.374 28.8845 55.9427C29.9241 55.4426 30.6431 54.3764 30.6431 53.1486C30.6431 51.4385 29.253 50.0489 27.5424 50.0489H19.6393L20.1456 46.9313C20.1486 46.9194 20.1486 46.9074 20.1516 46.8954C20.586 43.4004 18.5818 41.6036 17.7011 40.9926C17.1319 40.5973 16.5148 40.3308 15.9246 40.199L15.9216 14.0784H21.2811V14.4258C21.2811 15.519 22.1678 16.4084 23.2612 16.4084L23.265 16.4084ZM10.7129 9.05013H21.2848V11.8473H14.9398C14.2538 11.8473 13.6966 12.4043 13.6966 13.0901V40.5286C13.2532 40.867 13.0045 41.3791 13.0045 41.9721C13.0045 42.6639 12.9207 47.4256 10.7128 49.7346L10.7098 9.05343L10.7129 9.05013ZM21.6261 60.4977H25.3019C25.925 60.4977 26.4553 61.0248 26.4553 61.6447C26.4553 62.2676 25.928 62.7977 25.3019 62.7977H20.4009C19.8616 62.7977 19.4273 63.235 19.4273 63.771C19.4273 64.3071 19.8646 64.7443 20.4009 64.7443H24.0767C24.7118 64.7443 25.2301 65.2624 25.2301 65.8973C25.2301 66.5322 24.7118 67.0503 24.0767 67.0503H13.6666C11.929 67.0503 10.3383 66.2717 8.8014 65.4391V52.861C13.2891 52.1513 14.9308 46.7546 14.9517 42.0555C15.1944 42.0076 15.8205 42.0735 16.5424 42.5557C17.1476 42.96 18.5226 44.1669 18.2231 46.6346L17.534 50.8633C17.4891 51.1448 17.57 51.4323 17.7527 51.6509C17.9385 51.8695 18.2081 51.9923 18.4957 51.9923H27.543C28.1781 51.9923 28.6964 52.5104 28.6964 53.1453C28.6964 53.7802 28.1781 54.2983 27.543 54.2983H22.5041C21.9649 54.2983 21.5305 54.7355 21.5305 55.2716C21.5305 55.8076 21.9679 56.2449 22.5041 56.2449H26.1799C26.9049 56.2449 27.2854 56.8258 27.2854 57.3979C27.2854 58.0328 26.7671 58.5509 26.132 58.5509H21.6264C21.0871 58.5509 20.6528 58.9881 20.6528 59.5241C20.6528 60.0602 21.0899 60.4977 21.6261 60.4977ZM53.8933 65.2624H27.108C27.0421 64.945 26.9283 64.6455 26.7725 64.3729C27.5094 63.9746 28.0637 63.2858 28.2884 62.4652H49.6631C50.3491 62.4652 50.9064 61.9082 50.9064 61.2224V59.2608C51.2599 59.2997 51.6223 59.3206 51.9848 59.3206C52.6379 59.3206 53.273 59.2548 53.8901 59.138V65.2654L53.8933 65.2624ZM51.988 57.368C47.5363 57.368 43.9147 53.7502 43.9147 49.3003C43.9147 44.853 47.5366 41.2295 51.988 41.2295C56.4397 41.2295 60.0583 44.8503 60.0583 49.3003C60.0583 53.7506 56.4394 57.368 51.988 57.368ZM56.263 47.5691L51.994 52.3309C51.8023 52.5435 51.5356 52.6543 51.269 52.6543C51.0653 52.6543 50.8586 52.5884 50.6848 52.4596L47.8509 50.3304C47.4195 50.0069 47.3326 49.396 47.6561 48.9678C47.9797 48.5365 48.5909 48.4497 49.0192 48.7731L51.1402 50.3663L54.813 46.2694C55.1725 45.8681 55.7866 45.8351 56.1881 46.1945C56.5895 46.5539 56.6225 47.1678 56.263 47.5691ZM21.6106 23.5301H42.9915C43.5307 23.5301 43.9651 23.9674 43.9651 24.5034C43.9651 25.0395 43.5277 25.4767 42.9915 25.4767H21.6106C21.0714 25.4767 20.637 25.0395 20.637 24.5034C20.637 23.9673 21.0744 23.5301 21.6106 23.5301ZM43.9647 37.022C43.9647 37.5611 43.5273 37.9953 42.9911 37.9953H21.6102C21.071 37.9953 20.6366 37.5581 20.6366 37.022C20.6366 36.486 21.074 36.0487 21.6102 36.0487H42.9911C43.5303 36.0487 43.9647 36.486 43.9647 37.022ZM43.9647 30.7628C43.9647 31.3019 43.5273 31.7361 42.9911 31.7361H21.6102C21.071 31.7361 20.6366 31.2989 20.6366 30.7628C20.6366 30.2268 21.074 29.7895 21.6102 29.7895H42.9911C43.5303 29.7895 43.9647 30.2268 43.9647 30.7628Z" fill="#FFB216"/>
</svg>
