<svg width="62" height="67" viewBox="0 0 62 67" fill="none" xmlns="http://www.w3.org/2000/svg">
<path fill-rule="evenodd" clip-rule="evenodd" d="M30.9999 13.4802C29.7067 13.4802 28.6583 12.4226 28.6583 11.1251C28.6583 9.82434 29.7067 8.76987 30.9999 8.76987C32.2932 8.76987 33.3416 9.82749 33.3416 11.1251C33.3416 12.4226 32.2932 13.4802 30.9999 13.4802ZM30.9999 6.73676C28.5955 6.73676 26.64 8.7036 26.64 11.1251C26.64 13.5434 28.5955 15.5102 30.9999 15.5102C33.4043 15.5102 35.3599 13.5434 35.3599 11.1251C35.3599 8.7036 33.4043 6.73676 30.9999 6.73676ZM36.6311 40.931C37.0046 41.3477 36.9732 41.9886 36.5589 42.3642L30.3345 48.009C29.9358 48.3689 29.3238 48.3563 28.9471 47.9743L25.4032 44.4132C25.0109 44.0154 25.0109 43.3745 25.4032 42.9799C25.7987 42.5821 26.4359 42.5821 26.8314 42.9799L29.694 45.8591L35.2059 40.8616C35.6203 40.4827 36.2576 40.5142 36.6311 40.931ZM30.9999 53.7296C36.3989 53.7296 40.7904 49.313 40.7904 43.8825C40.7904 38.452 36.3992 34.0354 30.9999 34.0354C25.6007 34.0354 21.2094 38.452 21.2094 43.8825C21.2094 49.313 25.6007 53.7296 30.9999 53.7296ZM30.9999 32.006C24.4899 32.006 19.1917 37.3351 19.1917 43.8825C19.1917 50.4302 24.4902 55.759 30.9999 55.759C37.5097 55.759 42.8082 50.4299 42.8082 43.8825C42.8082 37.3348 37.5097 32.006 30.9999 32.006ZM59.9777 58.3259C59.9777 58.3511 59.9526 58.3732 59.9306 58.3732H44.4373C45.1812 57.3882 45.8435 56.337 46.4274 55.2099H59.9343C59.9563 55.2099 59.9814 55.2319 59.9814 55.2572L59.9777 58.3259ZM30.9999 64.921C46.8388 59.9676 48.1574 47.0872 47.8842 33.0503C41.8105 32.179 35.6172 29.2935 31.0031 25.183C26.48 29.2335 20.1616 32.1789 14.1156 33.0503C13.8426 47.0864 15.1609 59.9675 30.9999 64.921ZM2.06553 58.3732C2.04356 58.3732 2.01845 58.3511 2.01845 58.3259V55.2572C2.01845 55.232 2.04356 55.2099 2.06553 55.2099H15.5725C16.1563 56.3369 16.8186 57.3882 17.5626 58.3732L2.06553 58.3732ZM6.31248 49.9663H13.557C13.8646 51.0902 14.2036 52.1163 14.6368 53.1802H6.3128L6.31248 49.9663ZM13.0705 47.9364H9.14067V20.7541H14.4736V30.9391C13.984 31.0212 13.4975 31.0906 13.014 31.1474C12.5118 31.2043 12.1289 31.6241 12.1163 32.1325C11.997 37.1617 11.9908 42.7493 13.0705 47.9364ZM45.5076 20.7541V30.5285C40.4132 29.2878 35.4286 26.6264 31.6937 23.0684C31.3014 22.699 30.6924 22.699 30.3032 23.0716C26.6684 26.5664 21.5991 29.2657 16.4917 30.5222V20.7543L45.5076 20.7541ZM6.12702 18.7242H55.8719C56.1795 18.7242 56.3458 18.5505 56.3458 18.4937V16.3027C56.3458 15.6871 55.9033 15.3146 55.5329 15.1125L32.597 2.43345C31.6145 1.89043 30.3873 1.89043 29.4047 2.43345L6.46567 15.1125C6.09528 15.3177 5.65271 15.6902 5.65271 16.3027V18.4937C5.65271 18.5505 5.82255 18.7242 6.12702 18.7242ZM49.883 32.1322C49.8704 31.6239 49.4875 31.2009 48.9853 31.1472C48.4987 31.0935 48.0122 31.0241 47.5257 30.942L47.5288 20.7546H52.8586V47.9401H48.9288C50.0086 42.7499 50.0022 37.1617 49.883 32.1322ZM55.6868 49.966V53.1799H47.3628C47.796 52.1191 48.1381 51.0836 48.4426 49.966H55.6868ZM59.9306 53.1799H57.702V49.8618C57.702 48.7979 56.8419 47.9329 55.7841 47.9329H54.8739L54.877 20.7539H55.872C57.2468 20.7539 58.3643 19.7405 58.3643 18.4934V16.3025C58.3643 15.0681 57.6863 13.9852 56.503 13.3317L33.5671 0.655855C31.982 -0.218618 30.0139 -0.218618 28.4319 0.655855L5.49607 13.3317C4.31268 13.9852 3.63472 15.068 3.63472 16.3025V18.4934C3.63472 19.7405 4.75214 20.7539 6.12702 20.7539H7.12207V47.9394H6.2118C5.154 47.9394 4.29395 48.8044 4.29395 49.8683V53.1864H2.06538C0.925936 53.1864 0 54.1176 0 55.2637V58.3323C0 59.4784 0.925936 60.4097 2.06538 60.4097L19.3073 60.4065C22.1793 63.3488 25.9585 65.5146 30.7081 66.9574C30.8996 67.0142 31.1004 67.0142 31.2919 66.9574C36.0411 65.5146 39.82 63.3489 42.6928 60.4065H59.9346C61.0741 60.4065 62 59.4752 62 58.3292V55.2605C61.9969 54.1145 61.0709 53.1801 59.9315 53.1801L59.9306 53.1799Z" fill="#FFB216"/>
</svg>
