<svg width="62" height="62" viewBox="0 0 62 62" fill="none" xmlns="http://www.w3.org/2000/svg">
<path d="M36.7406 23.7821C38.2447 23.782 39.7151 23.3365 40.9661 22.5017C42.217 21.667 43.1925 20.4804 43.7693 19.0918C44.3461 17.7032 44.4983 16.175 44.2067 14.7C43.9151 13.225 43.1929 11.8694 42.1311 10.8045C41.0693 9.73956 39.7157 9.013 38.2411 8.71655C36.7665 8.42011 35.2371 8.56708 33.846 9.13891C32.4549 9.71073 31.2646 10.6818 30.4252 11.9294C29.5859 13.177 29.1352 14.6453 29.1301 16.1488C29.1275 17.1498 29.3224 18.1414 29.7037 19.067C30.0849 19.9925 30.645 20.8339 31.3519 21.5429C32.0587 22.2519 32.8985 22.8146 33.8232 23.1988C34.7478 23.583 35.7392 23.7812 36.7406 23.7821ZM36.7406 9.83296C37.9965 9.83297 39.2241 10.2056 40.2679 10.9035C41.3118 11.6015 42.1249 12.5935 42.6043 13.7538C43.0838 14.9141 43.2079 16.1905 42.961 17.4214C42.7141 18.6522 42.1073 19.7822 41.2174 20.668C40.3276 21.5539 39.1947 22.1558 37.9624 22.3976C36.73 22.6394 35.4536 22.5101 34.2948 22.0261C33.136 21.5422 32.1469 20.7253 31.4529 19.6791C30.7589 18.6328 30.3912 17.4042 30.3963 16.1488C30.4049 14.4719 31.0768 12.8665 32.2655 11.6831C33.4542 10.4998 35.063 9.83465 36.7406 9.83296ZM35.7263 16.1488C35.726 15.9972 35.7601 15.8475 35.8262 15.711C35.8922 15.5745 35.9884 15.4548 36.1075 15.3609V11.3635C36.1075 11.1922 36.1755 11.028 36.2967 10.9068C36.4178 10.7857 36.5822 10.7177 36.7535 10.7177C36.9249 10.7177 37.0892 10.7857 37.2103 10.9068C37.3315 11.028 37.3996 11.1922 37.3996 11.3635V15.3868C37.5997 15.5477 37.7313 15.7785 37.7678 16.0326L40.1388 17.4404C40.2512 17.5399 40.3253 17.6754 40.3486 17.8236C40.3719 17.9718 40.3428 18.1235 40.2664 18.2526C40.1899 18.3817 40.0709 18.4802 39.9298 18.5311C39.7886 18.5821 39.6341 18.5823 39.4928 18.5318L37.1088 17.1175C36.9532 17.1799 36.7845 17.2025 36.618 17.1833C36.4515 17.1641 36.2924 17.1036 36.1551 17.0075C36.0178 16.9113 35.9067 16.7824 35.8318 16.6324C35.7569 16.4825 35.7207 16.3163 35.7263 16.1488ZM22.8052 20.0235L25.0599 20.2173C25.2217 20.2275 25.3774 20.2832 25.5088 20.378C25.6403 20.4729 25.7422 20.603 25.8029 20.7533C25.8668 20.9028 25.8879 21.067 25.864 21.2278C25.84 21.3885 25.7719 21.5395 25.6672 21.6639L24.2265 23.401C23.8817 23.8143 23.6929 24.3353 23.6929 24.8734C23.6929 25.4115 23.8817 25.9326 24.2265 26.3458C24.9643 27.2512 25.7959 28.076 26.7074 28.8063C27.1261 29.1446 27.6502 29.3254 28.1885 29.3172C28.7269 29.3089 29.2453 29.1121 29.6534 28.7611L31.3783 27.3081C31.5019 27.2034 31.6518 27.1346 31.8118 27.1092C31.9718 27.0839 32.1356 27.1028 32.2855 27.1641C32.4355 27.2254 32.5657 27.3266 32.662 27.4568C32.7584 27.5869 32.8172 27.741 32.832 27.9022L33.0387 30.1496C33.0847 30.6858 33.3174 31.1889 33.6964 31.5713C34.0753 31.9536 34.5765 32.191 35.1125 32.2419C35.6705 32.3012 36.2312 32.3314 36.7923 32.3323C37.3968 32.3335 38.0008 32.299 38.6012 32.229C39.1367 32.1758 39.6363 31.9355 40.0121 31.5504C40.3879 31.1654 40.6157 30.6602 40.6557 30.1237L40.8495 27.8764C40.8608 27.7141 40.9169 27.5581 41.0116 27.4259C41.1064 27.2936 41.236 27.1903 41.386 27.1273C41.5361 27.0644 41.7007 27.0443 41.8615 27.0694C42.0223 27.0945 42.1729 27.1637 42.2967 27.2693L44.0345 28.703C44.448 29.0476 44.9692 29.2364 45.5075 29.2364C46.0459 29.2364 46.5671 29.0476 46.9805 28.703C47.8863 27.9655 48.7114 27.1343 49.442 26.2231C49.7805 25.8046 49.9613 25.2807 49.9531 24.7426C49.9448 24.2044 49.748 23.6863 49.3968 23.2783L47.9432 21.5541C47.838 21.4314 47.769 21.2818 47.7439 21.1222C47.7188 20.9625 47.7386 20.799 47.801 20.65C47.8623 20.4989 47.9641 20.3678 48.0952 20.2709C48.2263 20.1741 48.3816 20.1153 48.544 20.101L50.7858 19.8944C51.3223 19.8484 51.8256 19.6158 52.2081 19.237C52.5906 18.8582 52.8281 18.3572 52.879 17.8214C53.005 16.6624 53.005 15.4931 52.879 14.3341C52.8258 13.7988 52.5854 13.2995 52.2002 12.9238C51.815 12.5482 51.3096 12.3204 50.7729 12.2805L48.4406 12.1191C48.2783 12.1078 48.1223 12.0517 47.99 11.957C47.8576 11.8623 47.7542 11.7327 47.6913 11.5827C47.6283 11.4328 47.6082 11.2682 47.6333 11.1075C47.6584 10.9468 47.7277 10.7962 47.8333 10.6725L49.274 8.93531C49.6165 8.52097 49.8038 8.00034 49.8038 7.46291C49.8038 6.92548 49.6165 6.40485 49.274 5.99051C48.5464 5.08682 47.7257 4.26213 46.8255 3.53004C46.4068 3.19171 45.8826 3.01093 45.3443 3.01919C44.806 3.02745 44.2876 3.22423 43.8795 3.57525L42.1545 5.02828C42.0308 5.13684 41.8791 5.20875 41.7167 5.2359C41.5543 5.26305 41.3876 5.24438 41.2352 5.18198C41.0828 5.11958 40.9509 5.01592 40.8542 4.88267C40.7575 4.74942 40.7 4.59185 40.688 4.42769L40.4942 2.1868C40.4482 1.65054 40.2154 1.1474 39.8365 0.765054C39.4575 0.382705 38.9564 0.145382 38.4203 0.0944325C37.2608 -0.0314775 36.0911 -0.0314775 34.9316 0.0944325C34.3961 0.147655 33.8965 0.387934 33.5208 0.773003C33.145 1.15807 32.9171 1.66326 32.8772 2.19971L32.6834 4.44706C32.6721 4.60934 32.616 4.7653 32.5212 4.89756C32.4265 5.02982 32.2969 5.13318 32.1468 5.19613C31.9968 5.25907 31.8322 5.27912 31.6714 5.25405C31.5106 5.22897 31.3599 5.15975 31.2362 5.05411L29.4983 3.63337C29.0849 3.28874 28.5636 3.1 28.0253 3.1C27.487 3.1 26.9657 3.28874 26.5523 3.63337C25.6471 4.36925 24.824 5.20068 24.0973 6.11321C23.7601 6.52947 23.5794 7.0506 23.5865 7.58616C23.5935 8.12171 23.788 8.63789 24.1361 9.0451L25.5897 10.7694C25.6944 10.8929 25.7632 11.0427 25.7886 11.2026C25.814 11.3625 25.795 11.5263 25.7337 11.6762C25.6724 11.8261 25.5711 11.9562 25.4409 12.0525C25.3107 12.1488 25.1566 12.2076 24.9953 12.2224L22.747 12.429C22.2127 12.4762 21.7117 12.7086 21.3306 13.0859C20.9496 13.4633 20.7124 13.9619 20.6603 14.4956C20.5343 15.6546 20.5343 16.8238 20.6603 17.9828C20.7166 18.5168 20.9592 19.014 21.3454 19.3871C21.7317 19.7602 22.2371 19.9856 22.7729 20.0235H22.8052ZM21.9459 14.6118C21.9666 14.3676 22.0735 14.1387 22.2475 13.966C22.4215 13.7933 22.6512 13.688 22.8956 13.669L25.1439 13.4623C25.5357 13.4258 25.91 13.2825 26.2261 13.0481C26.5421 12.8138 26.7878 12.4972 26.9363 12.1329C27.0849 11.7687 27.1306 11.3707 27.0686 10.9822C27.0066 10.5938 26.8392 10.2298 26.5846 9.92983L25.131 8.20557C24.9749 8.01776 24.8895 7.78131 24.8895 7.53718C24.8895 7.29304 24.9749 7.05659 25.131 6.86878C25.8018 6.02687 26.5621 5.26034 27.3986 4.58268C27.5865 4.42671 27.8231 4.34133 28.0673 4.34133C28.3115 4.34133 28.5481 4.42671 28.736 4.58268L30.4739 6.0228C30.7763 6.27285 31.1414 6.43542 31.5297 6.49292C31.918 6.55042 32.3146 6.50064 32.6766 6.34898C33.0386 6.19733 33.3522 5.94957 33.5834 5.63254C33.8146 5.31551 33.9547 4.94128 33.9884 4.55039L34.1822 2.30304C34.203 2.06853 34.3023 1.84788 34.4641 1.67679C34.6259 1.50569 34.8407 1.39414 35.0738 1.36018C36.1475 1.24628 37.2303 1.24628 38.304 1.36018C38.5484 1.3836 38.7768 1.49216 38.9493 1.66688C39.1217 1.8416 39.2272 2.07135 39.2473 2.31595L39.4411 4.52456C39.4776 4.91622 39.6209 5.29037 39.8554 5.60627C40.0899 5.92218 40.4066 6.16774 40.771 6.31624C41.1354 6.46474 41.5336 6.51049 41.9222 6.4485C42.3108 6.38651 42.6749 6.21917 42.975 5.96467L44.7 4.52456C44.8868 4.36619 45.1237 4.27926 45.3686 4.27926C45.6136 4.27926 45.8505 4.36619 46.0373 4.52456C46.8796 5.19508 47.6464 5.95512 48.3243 6.79129C48.4804 6.9791 48.5658 7.21555 48.5658 7.45968C48.5658 7.70381 48.4804 7.94026 48.3243 8.12807L46.8836 9.86525C46.6335 10.1676 46.4708 10.5326 46.4133 10.9207C46.3558 11.3088 46.4056 11.7052 46.5573 12.0671C46.709 12.4289 46.9569 12.7424 47.2741 12.9735C47.5912 13.2047 47.9656 13.3447 48.3566 13.3784L50.6049 13.5721C50.8498 13.5905 51.0804 13.6944 51.2563 13.8656C51.4323 14.0368 51.5425 14.2643 51.5675 14.5085C51.6815 15.5818 51.6815 16.6641 51.5675 17.7374C51.5441 17.9818 51.4355 18.2101 51.2607 18.3824C51.0859 18.5548 50.8561 18.6602 50.6114 18.6803L48.3631 18.887C47.9713 18.9235 47.597 19.0667 47.281 19.3011C46.9649 19.5355 46.7193 19.8521 46.5707 20.2163C46.4221 20.5806 46.3764 20.9786 46.4384 21.367C46.5004 21.7555 46.6678 22.1195 46.9224 22.4194L48.376 24.1437C48.5345 24.3304 48.6214 24.5673 48.6214 24.8121C48.6214 25.0569 48.5345 25.2938 48.376 25.4805C47.7133 26.325 46.9593 27.0939 46.1278 27.773C45.9399 27.929 45.7033 28.0144 45.4591 28.0144C45.2149 28.0144 44.9783 27.929 44.7904 27.773L43.0525 26.3329C42.7522 26.0838 42.3898 25.921 42.004 25.862C41.6183 25.803 41.2237 25.85 40.8626 25.998C40.5015 26.1459 40.1875 26.3893 39.9542 26.702C39.7208 27.0147 39.577 27.3849 39.538 27.773L39.3442 30.0204C39.3302 30.2686 39.2282 30.5037 39.0565 30.6835C38.8849 30.8634 38.6548 30.9763 38.4074 31.002C37.3338 31.1193 36.2507 31.1193 35.1771 31.002C34.9306 30.9826 34.6993 30.8754 34.525 30.7001C34.3508 30.5247 34.2452 30.2927 34.2274 30.0462L34.0401 27.773C34.0035 27.3814 33.8602 27.0072 33.6257 26.6913C33.3913 26.3754 33.0746 26.1299 32.7102 25.9814C32.3458 25.8329 31.9476 25.7871 31.559 25.8491C31.1704 25.9111 30.8062 26.0784 30.5062 26.3329L28.7812 27.786C28.5944 27.9443 28.3574 28.0313 28.1125 28.0313C27.8676 28.0313 27.6306 27.9443 27.4439 27.786C26.6127 27.1262 25.8546 26.3792 25.1827 25.558C25.0266 25.3702 24.9412 25.1337 24.9412 24.8896C24.9412 24.6455 25.0266 24.409 25.1827 24.2212L26.6234 22.484C26.8735 22.1817 27.0362 21.8167 27.0937 21.4286C27.1512 21.0405 27.1014 20.644 26.9497 20.2822C26.798 19.9203 26.5501 19.6069 26.2329 19.3757C25.9158 19.1446 25.5414 19.0046 25.1504 18.9709L22.9021 18.7772C22.6595 18.7559 22.432 18.6507 22.2587 18.4798C22.0853 18.3089 21.977 18.0829 21.9524 17.8408C21.8231 16.7733 21.8101 15.695 21.9136 14.6247L21.9459 14.6118ZM61.5103 31.3636C60.7601 30.2816 59.6218 29.53 58.3317 29.2648C56.6585 28.9096 54.6428 29.3165 52.3428 30.4595L39.4217 36.9174C39.2024 36.0238 38.6901 35.2292 37.9665 34.6604C37.2429 34.0916 36.3496 33.7812 35.4291 33.7789H24.4462C20.053 32.2936 13.7087 31.3055 9.39308 38.7515L5.83978 44.9059C5.13791 44.6723 4.37708 44.6865 3.68446 44.9463C2.99185 45.2061 2.40942 45.6956 2.03452 46.3331L0.419382 49.1423C0.00214916 49.8788 -0.109089 50.7496 0.109614 51.5673C0.328317 52.385 0.859472 53.0842 1.58874 53.5143L15.4918 61.5673C15.9821 61.8527 16.5397 62.0021 17.107 62C17.3883 61.9989 17.6684 61.962 17.9404 61.8902C18.7571 61.6661 19.4531 61.1304 19.8786 60.3984L21.4937 57.5957C21.8616 56.9543 21.9981 56.2062 21.8806 55.4762C21.763 54.7463 21.3984 54.0788 20.8476 53.5853L21.7134 52.0871C22.2549 51.1171 23.0488 50.3114 24.011 49.7555C24.9731 49.1996 26.0678 48.9141 27.179 48.9292H31.6432C35.0111 48.9603 38.3229 48.0668 41.2177 46.346L60.7157 35.1092C61.0275 34.9278 61.2979 34.6831 61.5095 34.3909C61.721 34.0987 61.8689 33.7654 61.9438 33.4125C62.0186 33.0597 62.0187 32.6951 61.9441 32.3422C61.8694 31.9893 61.7217 31.656 61.5103 31.3636ZM20.4148 56.9628L18.7932 59.7655C18.666 59.9861 18.4966 60.1795 18.2946 60.3346C18.0927 60.4897 17.8621 60.6035 17.6161 60.6695C17.3701 60.7355 17.1135 60.7523 16.8609 60.7191C16.6084 60.6859 16.3649 60.6033 16.1444 60.4759L2.22188 52.4358C1.77791 52.1791 1.45383 51.757 1.32062 51.2619C1.18742 50.7668 1.25595 50.2392 1.51122 49.7945L3.13281 46.9853C3.30384 46.6918 3.54906 46.4484 3.84388 46.2796C4.1387 46.1107 4.47276 46.0222 4.81256 46.0231C5.15302 46.0199 5.48797 46.1092 5.78164 46.2814L19.7041 54.3151C19.9248 54.4422 20.1183 54.6115 20.2735 54.8134C20.4286 55.0153 20.5425 55.2458 20.6085 55.4917C20.6745 55.7376 20.6913 55.9941 20.6581 56.2465C20.6249 56.4989 20.5422 56.7423 20.4148 56.9628ZM60.7157 33.1525C60.676 33.3336 60.5977 33.5041 60.4863 33.6523C60.3748 33.8005 60.2327 33.923 60.0696 34.0114L40.5782 45.2675C37.8748 46.8672 34.7846 47.6958 31.6432 47.6634H27.1854C25.8513 47.646 24.5371 47.9891 23.3818 48.6563C22.2265 49.3235 21.2728 50.2902 20.6215 51.4542L19.7881 52.9008L6.97038 45.5065L10.4914 39.3973C14.3289 32.7521 19.8269 33.5852 24.1877 34.9994C24.252 35.0092 24.3173 35.0092 24.3816 34.9994H35.442C36.1954 35.0012 36.9175 35.3011 37.4502 35.8336C37.9829 36.3661 38.2829 37.0878 38.2847 37.8409C38.2779 38.5924 37.9763 39.3113 37.4446 39.8427C36.913 40.3741 36.1938 40.6757 35.442 40.6824H27.1208C26.9495 40.6824 26.7852 40.7504 26.664 40.8716C26.5428 40.9927 26.4748 41.1569 26.4748 41.3282C26.4748 41.4995 26.5428 41.6637 26.664 41.7848C26.7852 41.9059 26.9495 41.974 27.1208 41.974H35.442C36.4609 41.971 37.4425 41.5903 38.1967 40.9055C38.951 40.2208 39.4243 39.2807 39.5251 38.2672L52.9113 31.5961C56.4194 29.8396 58.9649 30.0139 60.4896 32.1063C60.5999 32.2544 60.6771 32.4244 60.7161 32.6049C60.7551 32.7853 60.755 32.9721 60.7157 33.1525Z" fill="#FFB216"/>
</svg>
