<svg width="761" height="328" viewBox="0 0 761 328" fill="none" xmlns="http://www.w3.org/2000/svg">
<path d="M152.333 142.215H377.019L469.274 254.518H59.1777L152.333 142.215Z" fill="#FFC551"/>
<path d="M161.703 131.442L264.239 0L369.767 131.442H161.703Z" fill="#FFDA8E"/>
<path d="M51.2639 264.428H145.322V292.081H27.1406L51.2639 264.428Z" fill="#FFB216"/>
<path d="M95.7362 300.347H195.071V328H95.7362V300.347Z" fill="#FFB216"/>
<path d="M156.352 264.428H255.686V292.081H156.352V264.428Z" fill="#FFB216"/>
<path d="M206.111 300.348H305.446V328H206.111V300.348Z" fill="#FFB216"/>
<path d="M266.719 264.428H366.053V292.081H266.719V264.428Z" fill="#FFB216"/>
<path d="M316.485 300.347H415.819V328H316.485V300.347Z" fill="#FFB216"/>
<path d="M377.1 264.428H476.434L498.673 292.081H377.1V264.428Z" fill="#FFB216"/>
<path d="M426.859 300.348H505.086L526.194 328H426.859V300.348Z" fill="#FFB216"/>
<path d="M21.9789 300.347H84.4316V327.773H0L21.9789 300.347Z" fill="#FFB216"/>
<path d="M751.696 293H753.836L755.956 301.14H756.496L758.616 293H760.776L756.976 307.3H754.836L756.036 303H754.316L751.696 293Z" fill="black"/>
<path d="M749.975 288.84V303H747.815V302.48C746.842 302.973 745.949 303.22 745.135 303.22C743.829 303.22 742.869 302.827 742.255 302.04C741.655 301.253 741.355 299.933 741.355 298.08C741.355 296.227 741.689 294.88 742.355 294.04C743.035 293.2 744.089 292.78 745.515 292.78C745.995 292.78 746.755 292.867 747.795 293.04V288.84H749.975ZM747.455 300.92L747.795 300.78V294.86C746.995 294.727 746.255 294.66 745.575 294.66C744.229 294.66 743.555 295.78 743.555 298.02C743.555 299.247 743.709 300.1 744.015 300.58C744.335 301.047 744.835 301.28 745.515 301.28C746.195 301.28 746.842 301.16 747.455 300.92Z" fill="black"/>
<path d="M739.079 296.08V300.64C739.092 300.933 739.165 301.153 739.299 301.3C739.445 301.433 739.665 301.52 739.959 301.56L739.899 303.22C738.752 303.22 737.865 302.973 737.239 302.48C736.172 302.973 735.099 303.22 734.019 303.22C732.032 303.22 731.039 302.16 731.039 300.04C731.039 299.027 731.305 298.293 731.839 297.84C732.385 297.387 733.219 297.113 734.339 297.02L736.919 296.8V296.08C736.919 295.547 736.799 295.173 736.559 294.96C736.332 294.747 735.992 294.64 735.539 294.64C734.685 294.64 733.619 294.693 732.339 294.8L731.699 294.84L731.619 293.3C733.072 292.953 734.405 292.78 735.619 292.78C736.845 292.78 737.725 293.047 738.259 293.58C738.805 294.1 739.079 294.933 739.079 296.08ZM734.599 298.56C733.679 298.64 733.219 299.14 733.219 300.06C733.219 300.98 733.625 301.44 734.439 301.44C735.105 301.44 735.812 301.333 736.559 301.12L736.919 301V298.34L734.599 298.56Z" fill="black"/>
<path d="M728.642 301.2L729.202 301.14L729.242 302.76C727.722 303.067 726.376 303.22 725.202 303.22C723.722 303.22 722.656 302.813 722.002 302C721.362 301.187 721.042 299.887 721.042 298.1C721.042 294.553 722.489 292.78 725.382 292.78C728.182 292.78 729.582 294.307 729.582 297.36L729.442 298.92H723.242C723.256 299.747 723.436 300.353 723.782 300.74C724.129 301.127 724.776 301.32 725.722 301.32C726.669 301.32 727.642 301.28 728.642 301.2ZM727.442 297.24C727.442 296.253 727.282 295.567 726.962 295.18C726.656 294.78 726.129 294.58 725.382 294.58C724.636 294.58 724.089 294.787 723.742 295.2C723.409 295.613 723.236 296.293 723.222 297.24H727.442Z" fill="black"/>
<path d="M711.795 298.12V303H709.575V289.3H714.775C717.869 289.3 719.415 290.753 719.415 293.66C719.415 295.607 718.669 296.927 717.175 297.62L719.435 303H716.995L715.015 298.12H711.795ZM717.135 293.68C717.135 292.04 716.349 291.22 714.775 291.22H711.795V296.2H714.815C715.615 296.2 716.202 295.973 716.575 295.52C716.949 295.053 717.135 294.44 717.135 293.68Z" fill="black"/>
<path d="M700.798 298.6V296.62H706.778V298.6H700.798Z" fill="black"/>
<path d="M695.786 303V289.3H698.006V303H695.786Z" fill="black"/>
<path d="M682.634 303L686.014 289.3H690.434L693.834 303H691.594L690.854 300.06H685.594L684.854 303H682.634ZM687.734 291.16L686.034 298.1H690.414L688.734 291.16H687.734Z" fill="black"/>
<path d="M759.284 235.2L759.844 235.14L759.884 236.76C758.364 237.067 757.017 237.22 755.844 237.22C754.364 237.22 753.297 236.813 752.644 236C752.004 235.187 751.684 233.887 751.684 232.1C751.684 228.553 753.131 226.78 756.024 226.78C758.824 226.78 760.224 228.307 760.224 231.36L760.084 232.92H753.884C753.897 233.747 754.077 234.353 754.424 234.74C754.771 235.127 755.417 235.32 756.364 235.32C757.311 235.32 758.284 235.28 759.284 235.2ZM758.084 231.24C758.084 230.253 757.924 229.567 757.604 229.18C757.297 228.78 756.771 228.58 756.024 228.58C755.277 228.58 754.731 228.787 754.384 229.2C754.051 229.613 753.877 230.293 753.864 231.24H758.084Z" fill="black"/>
<path d="M745.015 237V227H747.175V228.2C748.309 227.467 749.442 226.993 750.575 226.78V228.96C749.429 229.187 748.449 229.48 747.635 229.84L747.195 230.02V237H745.015Z" fill="black"/>
<path d="M740.216 227H742.376V237H740.216V236.38C739.243 236.94 738.343 237.22 737.516 237.22C736.143 237.22 735.223 236.853 734.756 236.12C734.289 235.373 734.056 234.073 734.056 232.22V227H736.236V232.24C736.236 233.44 736.336 234.247 736.536 234.66C736.736 235.073 737.203 235.28 737.936 235.28C738.656 235.28 739.316 235.147 739.916 234.88L740.216 234.76V227Z" fill="black"/>
<path d="M732.368 228.86H729.608V233.26C729.608 234.073 729.668 234.613 729.788 234.88C729.908 235.147 730.215 235.28 730.708 235.28L732.348 235.22L732.448 236.96C731.555 237.133 730.875 237.22 730.408 237.22C729.275 237.22 728.495 236.96 728.068 236.44C727.655 235.92 727.448 234.94 727.448 233.5V228.86H726.168V227H727.448V224.1H729.608V227H732.368V228.86Z" fill="black"/>
<path d="M721.88 226.78C722.587 226.78 723.42 226.873 724.38 227.06L724.88 227.16L724.8 228.88C723.747 228.773 722.967 228.72 722.46 228.72C721.447 228.72 720.767 228.947 720.42 229.4C720.074 229.853 719.9 230.707 719.9 231.96C719.9 233.213 720.067 234.08 720.4 234.56C720.734 235.04 721.427 235.28 722.48 235.28L724.82 235.12L724.88 236.86C723.534 237.1 722.52 237.22 721.84 237.22C720.32 237.22 719.247 236.813 718.62 236C718.007 235.173 717.7 233.827 717.7 231.96C717.7 230.093 718.027 228.767 718.68 227.98C719.334 227.18 720.4 226.78 721.88 226.78Z" fill="black"/>
<path d="M715.104 235.2L715.664 235.14L715.704 236.76C714.184 237.067 712.837 237.22 711.664 237.22C710.184 237.22 709.117 236.813 708.464 236C707.824 235.187 707.504 233.887 707.504 232.1C707.504 228.553 708.951 226.78 711.844 226.78C714.644 226.78 716.044 228.307 716.044 231.36L715.904 232.92H709.704C709.717 233.747 709.897 234.353 710.244 234.74C710.591 235.127 711.237 235.32 712.184 235.32C713.131 235.32 714.104 235.28 715.104 235.2ZM713.904 231.24C713.904 230.253 713.744 229.567 713.424 229.18C713.117 228.78 712.591 228.58 711.844 228.58C711.097 228.58 710.551 228.787 710.204 229.2C709.871 229.613 709.697 230.293 709.684 231.24H713.904Z" fill="black"/>
<path d="M706.196 228.86H703.436V233.26C703.436 234.073 703.496 234.613 703.616 234.88C703.736 235.147 704.043 235.28 704.536 235.28L706.176 235.22L706.276 236.96C705.383 237.133 704.703 237.22 704.236 237.22C703.103 237.22 702.323 236.96 701.896 236.44C701.483 235.92 701.276 234.94 701.276 233.5V228.86H699.996V227H701.276V224.1H703.436V227H706.196V228.86Z" fill="black"/>
<path d="M695.992 237V227H698.172V237H695.992ZM695.992 225.3V223H698.172V225.3H695.992Z" fill="black"/>
<path d="M687.254 237H685.074V222.84H687.254V227.52C688.241 227.027 689.154 226.78 689.994 226.78C691.327 226.78 692.234 227.16 692.714 227.92C693.207 228.667 693.454 229.907 693.454 231.64V237H691.274V231.7C691.274 230.62 691.161 229.853 690.934 229.4C690.707 228.947 690.227 228.72 689.494 228.72C688.854 228.72 688.214 228.827 687.574 229.04L687.254 229.16V237Z" fill="black"/>
<path d="M679.966 226.78C680.673 226.78 681.506 226.873 682.466 227.06L682.966 227.16L682.886 228.88C681.833 228.773 681.053 228.72 680.546 228.72C679.533 228.72 678.853 228.947 678.506 229.4C678.16 229.853 677.986 230.707 677.986 231.96C677.986 233.213 678.153 234.08 678.486 234.56C678.82 235.04 679.513 235.28 680.566 235.28L682.906 235.12L682.966 236.86C681.62 237.1 680.606 237.22 679.926 237.22C678.406 237.22 677.333 236.813 676.706 236C676.093 235.173 675.786 233.827 675.786 231.96C675.786 230.093 676.113 228.767 676.766 227.98C677.42 227.18 678.486 226.78 679.966 226.78Z" fill="black"/>
<path d="M669.078 237V227H671.238V228.2C672.371 227.467 673.505 226.993 674.638 226.78V228.96C673.491 229.187 672.511 229.48 671.698 229.84L671.258 230.02V237H669.078Z" fill="black"/>
<path d="M656.185 237L659.565 223.3H663.985L667.385 237H665.145L664.405 234.06H659.145L658.405 237H656.185ZM661.285 225.16L659.585 232.1H663.965L662.285 225.16H661.285Z" fill="black"/>
<path d="M650.07 222.84V237H647.91V236.48C646.937 236.973 646.043 237.22 645.23 237.22C643.923 237.22 642.963 236.827 642.35 236.04C641.75 235.253 641.45 233.933 641.45 232.08C641.45 230.227 641.783 228.88 642.45 228.04C643.13 227.2 644.183 226.78 645.61 226.78C646.09 226.78 646.85 226.867 647.89 227.04V222.84H650.07ZM647.55 234.92L647.89 234.78V228.86C647.09 228.727 646.35 228.66 645.67 228.66C644.323 228.66 643.65 229.78 643.65 232.02C643.65 233.247 643.803 234.1 644.11 234.58C644.43 235.047 644.93 235.28 645.61 235.28C646.29 235.28 646.937 235.16 647.55 234.92Z" fill="black"/>
<path d="M637.11 227H639.27V237H637.11V236.38C636.137 236.94 635.237 237.22 634.41 237.22C633.037 237.22 632.117 236.853 631.65 236.12C631.184 235.373 630.95 234.073 630.95 232.22V227H633.13V232.24C633.13 233.44 633.23 234.247 633.43 234.66C633.63 235.073 634.097 235.28 634.83 235.28C635.55 235.28 636.21 235.147 636.81 234.88L637.11 234.76V227Z" fill="black"/>
<path d="M620.985 228.08C621.678 227.213 622.825 226.78 624.425 226.78C626.025 226.78 627.165 227.213 627.845 228.08C628.538 228.947 628.885 230.247 628.885 231.98C628.885 233.713 628.552 235.02 627.885 235.9C627.218 236.78 626.065 237.22 624.425 237.22C622.785 237.22 621.632 236.78 620.965 235.9C620.298 235.02 619.965 233.713 619.965 231.98C619.965 230.247 620.305 228.947 620.985 228.08ZM622.625 234.58C622.932 235.113 623.532 235.38 624.425 235.38C625.318 235.38 625.918 235.113 626.225 234.58C626.532 234.047 626.685 233.173 626.685 231.96C626.685 230.747 626.518 229.887 626.185 229.38C625.865 228.873 625.278 228.62 624.425 228.62C623.572 228.62 622.978 228.873 622.645 229.38C622.325 229.887 622.165 230.747 622.165 231.96C622.165 233.173 622.318 234.047 622.625 234.58Z" fill="black"/>
<path d="M615.506 237V222.84H617.686V237H615.506Z" fill="black"/>
<path d="M609.368 237.22C607.368 237.22 606.008 236.667 605.288 235.56C604.581 234.453 604.228 232.633 604.228 230.1C604.228 227.567 604.588 225.767 605.308 224.7C606.028 223.62 607.381 223.08 609.368 223.08C610.554 223.08 611.861 223.247 613.288 223.58L613.208 225.38C612.008 225.167 610.808 225.06 609.608 225.06C608.408 225.06 607.594 225.42 607.168 226.14C606.741 226.847 606.528 228.187 606.528 230.16C606.528 232.12 606.734 233.46 607.148 234.18C607.561 234.887 608.368 235.24 609.568 235.24C610.768 235.24 611.981 235.14 613.208 234.94L613.268 236.78C611.894 237.073 610.594 237.22 609.368 237.22Z" fill="black"/>
<path d="M595.99 232.6V230.62H601.969V232.6H595.99Z" fill="black"/>
<path d="M591.265 237V227H593.445V237H591.265ZM591.265 225.3V223H593.445V225.3H591.265Z" fill="black"/>
<path d="M589.477 228.86H586.717V233.26C586.717 234.073 586.777 234.613 586.897 234.88C587.017 235.147 587.324 235.28 587.817 235.28L589.457 235.22L589.557 236.96C588.664 237.133 587.984 237.22 587.517 237.22C586.384 237.22 585.604 236.96 585.177 236.44C584.764 235.92 584.557 234.94 584.557 233.5V228.86H583.277V227H584.557V224.1H586.717V227H589.477V228.86Z" fill="black"/>
<path d="M579.159 237V222.84H581.339V237H579.159Z" fill="black"/>
<path d="M574.239 227H576.399V237H574.239V236.38C573.266 236.94 572.366 237.22 571.539 237.22C570.166 237.22 569.246 236.853 568.779 236.12C568.313 235.373 568.079 234.073 568.079 232.22V227H570.259V232.24C570.259 233.44 570.359 234.247 570.559 234.66C570.759 235.073 571.226 235.28 571.959 235.28C572.679 235.28 573.339 235.147 573.939 234.88L574.239 234.76V227Z" fill="black"/>
<path d="M551.447 237V223.3H555.307L558.367 234L561.427 223.3H565.307V237H563.067V225.76H562.767L559.527 236.44H557.207L553.967 225.76H553.667V237H551.447Z" fill="black"/>
<path d="M760.552 171.36C760.552 173.547 758.972 174.64 755.812 174.64C754.292 174.64 753.165 174.433 752.432 174.02C751.699 173.607 751.332 172.853 751.332 171.76C751.332 171.267 751.452 170.84 751.692 170.48C751.932 170.133 752.319 169.753 752.852 169.34C752.412 169.047 752.192 168.56 752.192 167.88C752.192 167.613 752.372 167.18 752.732 166.58L752.912 166.28C751.952 165.707 751.472 164.707 751.472 163.28C751.472 162.08 751.832 161.2 752.552 160.64C753.272 160.08 754.245 159.8 755.472 159.8C756.059 159.8 756.639 159.867 757.212 160L757.512 160.06L760.612 159.98V161.74L758.952 161.64C759.312 162.107 759.492 162.653 759.492 163.28C759.492 164.587 759.159 165.493 758.492 166C757.839 166.493 756.812 166.74 755.412 166.74C755.065 166.74 754.772 166.713 754.532 166.66C754.345 167.113 754.252 167.467 754.252 167.72C754.252 167.96 754.372 168.127 754.612 168.22C754.865 168.313 755.465 168.367 756.412 168.38C757.999 168.393 759.085 168.607 759.672 169.02C760.259 169.433 760.552 170.213 760.552 171.36ZM753.472 171.56C753.472 172.027 753.659 172.36 754.032 172.56C754.405 172.76 755.045 172.86 755.952 172.86C757.565 172.86 758.372 172.4 758.372 171.48C758.372 170.96 758.225 170.627 757.932 170.48C757.652 170.347 757.085 170.273 756.232 170.26L754.272 170.14C753.979 170.38 753.772 170.6 753.652 170.8C753.532 171.013 753.472 171.267 753.472 171.56ZM753.632 163.28C753.632 163.893 753.779 164.347 754.072 164.64C754.365 164.92 754.839 165.06 755.492 165.06C756.145 165.06 756.612 164.92 756.892 164.64C757.185 164.347 757.332 163.893 757.332 163.28C757.332 162.667 757.185 162.22 756.892 161.94C756.599 161.647 756.125 161.5 755.472 161.5C754.245 161.5 753.632 162.093 753.632 163.28Z" fill="black"/>
<path d="M743.074 170H740.894V160H743.054V160.62C744.027 160.06 744.947 159.78 745.814 159.78C747.147 159.78 748.054 160.16 748.534 160.92C749.027 161.667 749.274 162.907 749.274 164.64V170H747.114V164.7C747.114 163.62 746.994 162.853 746.754 162.4C746.527 161.947 746.054 161.72 745.334 161.72C744.654 161.72 744.001 161.853 743.374 162.12L743.074 162.24V170Z" fill="black"/>
<path d="M736.07 170V160H738.25V170H736.07ZM736.07 158.3V156H738.25V158.3H736.07Z" fill="black"/>
<path d="M731.131 170V155.84H733.311V170H731.131Z" fill="black"/>
<path d="M728.275 163.08V167.64C728.288 167.933 728.361 168.153 728.495 168.3C728.641 168.433 728.861 168.52 729.155 168.56L729.095 170.22C727.948 170.22 727.061 169.973 726.435 169.48C725.368 169.973 724.295 170.22 723.215 170.22C721.228 170.22 720.235 169.16 720.235 167.04C720.235 166.027 720.501 165.293 721.035 164.84C721.581 164.387 722.415 164.113 723.535 164.02L726.115 163.8V163.08C726.115 162.547 725.995 162.173 725.755 161.96C725.528 161.747 725.188 161.64 724.735 161.64C723.881 161.64 722.815 161.693 721.535 161.8L720.895 161.84L720.815 160.3C722.268 159.953 723.601 159.78 724.815 159.78C726.041 159.78 726.921 160.047 727.455 160.58C728.001 161.1 728.275 161.933 728.275 163.08ZM723.795 165.56C722.875 165.64 722.415 166.14 722.415 167.06C722.415 167.98 722.821 168.44 723.635 168.44C724.301 168.44 725.008 168.333 725.755 168.12L726.115 168V165.34L723.795 165.56Z" fill="black"/>
<path d="M715.767 159.78C716.474 159.78 717.307 159.873 718.267 160.06L718.767 160.16L718.687 161.88C717.634 161.773 716.854 161.72 716.347 161.72C715.334 161.72 714.654 161.947 714.307 162.4C713.96 162.853 713.787 163.707 713.787 164.96C713.787 166.213 713.954 167.08 714.287 167.56C714.62 168.04 715.314 168.28 716.367 168.28L718.707 168.12L718.767 169.86C717.42 170.1 716.407 170.22 715.727 170.22C714.207 170.22 713.134 169.813 712.507 169C711.894 168.173 711.587 166.827 711.587 164.96C711.587 163.093 711.914 161.767 712.567 160.98C713.22 160.18 714.287 159.78 715.767 159.78Z" fill="black"/>
<path d="M705.448 158.02C703.754 158.02 702.908 158.613 702.908 159.8C702.908 160.413 703.108 160.853 703.508 161.12C703.908 161.373 704.788 161.693 706.148 162.08C707.521 162.453 708.488 162.907 709.048 163.44C709.608 163.96 709.887 164.787 709.887 165.92C709.887 167.36 709.474 168.44 708.648 169.16C707.834 169.867 706.721 170.22 705.308 170.22C704.174 170.22 702.921 170.087 701.548 169.82L700.827 169.68L701.048 167.9C702.848 168.14 704.221 168.26 705.168 168.26C706.821 168.26 707.648 167.527 707.648 166.06C707.648 165.487 707.461 165.067 707.088 164.8C706.714 164.52 705.874 164.22 704.568 163.9C703.261 163.567 702.288 163.113 701.648 162.54C701.008 161.967 700.688 161.06 700.688 159.82C700.688 158.58 701.087 157.647 701.887 157.02C702.701 156.38 703.821 156.06 705.247 156.06C706.274 156.06 707.487 156.18 708.887 156.42L709.588 156.54L709.408 158.34C707.541 158.127 706.221 158.02 705.448 158.02Z" fill="black"/>
<path d="M694.338 162.06C692.765 161.847 691.625 161.74 690.918 161.74C690.211 161.74 689.718 161.827 689.438 162C689.171 162.16 689.038 162.42 689.038 162.78C689.038 163.14 689.185 163.393 689.478 163.54C689.785 163.687 690.491 163.86 691.598 164.06C692.718 164.247 693.511 164.547 693.978 164.96C694.445 165.373 694.678 166.107 694.678 167.16C694.678 168.213 694.338 168.987 693.658 169.48C692.991 169.973 692.011 170.22 690.718 170.22C689.905 170.22 688.878 170.107 687.638 169.88L687.018 169.78L687.098 167.96C688.698 168.173 689.851 168.28 690.558 168.28C691.265 168.28 691.765 168.193 692.058 168.02C692.365 167.847 692.518 167.56 692.518 167.16C692.518 166.76 692.371 166.487 692.078 166.34C691.798 166.18 691.111 166.013 690.018 165.84C688.938 165.653 688.145 165.367 687.638 164.98C687.131 164.593 686.878 163.887 686.878 162.86C686.878 161.833 687.225 161.067 687.918 160.56C688.625 160.053 689.525 159.8 690.618 159.8C691.471 159.8 692.518 159.907 693.758 160.12L694.378 160.24L694.338 162.06Z" fill="black"/>
<path d="M684.963 162.06C683.39 161.847 682.25 161.74 681.543 161.74C680.836 161.74 680.343 161.827 680.063 162C679.796 162.16 679.663 162.42 679.663 162.78C679.663 163.14 679.81 163.393 680.103 163.54C680.41 163.687 681.116 163.86 682.223 164.06C683.343 164.247 684.136 164.547 684.603 164.96C685.07 165.373 685.303 166.107 685.303 167.16C685.303 168.213 684.963 168.987 684.283 169.48C683.616 169.973 682.636 170.22 681.343 170.22C680.53 170.22 679.503 170.107 678.263 169.88L677.643 169.78L677.723 167.96C679.323 168.173 680.476 168.28 681.183 168.28C681.89 168.28 682.39 168.193 682.683 168.02C682.99 167.847 683.143 167.56 683.143 167.16C683.143 166.76 682.996 166.487 682.703 166.34C682.423 166.18 681.736 166.013 680.643 165.84C679.563 165.653 678.77 165.367 678.263 164.98C677.756 164.593 677.503 163.887 677.503 162.86C677.503 161.833 677.85 161.067 678.543 160.56C679.25 160.053 680.15 159.8 681.243 159.8C682.096 159.8 683.143 159.907 684.383 160.12L685.003 160.24L684.963 162.06Z" fill="black"/>
<path d="M674.987 168.2L675.547 168.14L675.587 169.76C674.067 170.067 672.72 170.22 671.547 170.22C670.067 170.22 669 169.813 668.347 169C667.707 168.187 667.387 166.887 667.387 165.1C667.387 161.553 668.833 159.78 671.727 159.78C674.527 159.78 675.927 161.307 675.927 164.36L675.787 165.92H669.587C669.6 166.747 669.78 167.353 670.127 167.74C670.473 168.127 671.12 168.32 672.067 168.32C673.013 168.32 673.987 168.28 674.987 168.2ZM673.787 164.24C673.787 163.253 673.627 162.567 673.307 162.18C673 161.78 672.473 161.58 671.727 161.58C670.98 161.58 670.433 161.787 670.087 162.2C669.753 162.613 669.58 163.293 669.567 164.24H673.787Z" fill="black"/>
<path d="M662.928 170V155.84H665.108V170H662.928Z" fill="black"/>
<path d="M648.23 170H646.05V160H648.21V160.62C649.157 160.06 650.024 159.78 650.81 159.78C651.97 159.78 652.817 160.107 653.35 160.76C654.564 160.107 655.77 159.78 656.97 159.78C658.17 159.78 659.017 160.153 659.51 160.9C660.004 161.633 660.25 162.88 660.25 164.64V170H658.09V164.7C658.09 163.62 657.977 162.853 657.75 162.4C657.537 161.947 657.084 161.72 656.39 161.72C655.79 161.72 655.144 161.853 654.45 162.12L654.11 162.26C654.217 162.527 654.27 163.38 654.27 164.82V170H652.11V164.86C652.11 163.673 652.004 162.853 651.79 162.4C651.577 161.947 651.11 161.72 650.39 161.72C649.724 161.72 649.104 161.853 648.53 162.12L648.23 162.24V170Z" fill="black"/>
<path d="M643.314 163.08V167.64C643.327 167.933 643.4 168.153 643.534 168.3C643.68 168.433 643.9 168.52 644.194 168.56L644.134 170.22C642.987 170.22 642.1 169.973 641.474 169.48C640.407 169.973 639.334 170.22 638.254 170.22C636.267 170.22 635.274 169.16 635.274 167.04C635.274 166.027 635.54 165.293 636.074 164.84C636.62 164.387 637.454 164.113 638.574 164.02L641.154 163.8V163.08C641.154 162.547 641.034 162.173 640.794 161.96C640.567 161.747 640.227 161.64 639.774 161.64C638.92 161.64 637.854 161.693 636.574 161.8L635.934 161.84L635.854 160.3C637.307 159.953 638.64 159.78 639.854 159.78C641.08 159.78 641.96 160.047 642.494 160.58C643.04 161.1 643.314 161.933 643.314 163.08ZM638.834 165.56C637.914 165.64 637.454 166.14 637.454 167.06C637.454 167.98 637.86 168.44 638.674 168.44C639.34 168.44 640.047 168.333 640.794 168.12L641.154 168V165.34L638.834 165.56Z" fill="black"/>
<path d="M632.877 168.2L633.437 168.14L633.477 169.76C631.957 170.067 630.611 170.22 629.437 170.22C627.957 170.22 626.891 169.813 626.237 169C625.597 168.187 625.277 166.887 625.277 165.1C625.277 161.553 626.724 159.78 629.617 159.78C632.417 159.78 633.817 161.307 633.817 164.36L633.677 165.92H627.477C627.491 166.747 627.671 167.353 628.017 167.74C628.364 168.127 629.011 168.32 629.957 168.32C630.904 168.32 631.877 168.28 632.877 168.2ZM631.677 164.24C631.677 163.253 631.517 162.567 631.197 162.18C630.891 161.78 630.364 161.58 629.617 161.58C628.871 161.58 628.324 161.787 627.977 162.2C627.644 162.613 627.471 163.293 627.457 164.24H631.677Z" fill="black"/>
<path d="M619.178 158.02C617.485 158.02 616.638 158.613 616.638 159.8C616.638 160.413 616.838 160.853 617.238 161.12C617.638 161.373 618.518 161.693 619.878 162.08C621.251 162.453 622.218 162.907 622.778 163.44C623.338 163.96 623.618 164.787 623.618 165.92C623.618 167.36 623.205 168.44 622.378 169.16C621.565 169.867 620.451 170.22 619.038 170.22C617.905 170.22 616.651 170.087 615.278 169.82L614.558 169.68L614.778 167.9C616.578 168.14 617.951 168.26 618.898 168.26C620.551 168.26 621.378 167.527 621.378 166.06C621.378 165.487 621.191 165.067 620.818 164.8C620.445 164.52 619.605 164.22 618.298 163.9C616.991 163.567 616.018 163.113 615.378 162.54C614.738 161.967 614.418 161.06 614.418 159.82C614.418 158.58 614.818 157.647 615.618 157.02C616.431 156.38 617.551 156.06 618.978 156.06C620.005 156.06 621.218 156.18 622.618 156.42L623.318 156.54L623.138 158.34C621.271 158.127 619.951 158.02 619.178 158.02Z" fill="black"/>
<path d="M751.556 33H753.696L755.816 41.14H756.356L758.476 33H760.636L756.836 47.3H754.696L755.896 43H754.176L751.556 33Z" fill="black"/>
<path d="M747.368 32.78C748.075 32.78 748.908 32.8733 749.868 33.06L750.368 33.16L750.288 34.88C749.235 34.7733 748.455 34.72 747.948 34.72C746.935 34.72 746.255 34.9467 745.908 35.4C745.562 35.8533 745.388 36.7067 745.388 37.96C745.388 39.2133 745.555 40.08 745.888 40.56C746.222 41.04 746.915 41.28 747.968 41.28L750.308 41.12L750.368 42.86C749.022 43.1 748.008 43.22 747.328 43.22C745.808 43.22 744.735 42.8133 744.108 42C743.495 41.1733 743.188 39.8267 743.188 37.96C743.188 36.0933 743.515 34.7667 744.168 33.98C744.822 33.18 745.888 32.78 747.368 32.78Z" fill="black"/>
<path d="M734.891 43H732.711V33H734.871V33.62C735.844 33.06 736.764 32.78 737.631 32.78C738.964 32.78 739.871 33.16 740.351 33.92C740.844 34.6667 741.091 35.9067 741.091 37.64V43H738.931V37.7C738.931 36.62 738.811 35.8533 738.571 35.4C738.344 34.9467 737.871 34.72 737.151 34.72C736.471 34.72 735.817 34.8533 735.191 35.12L734.891 35.24V43Z" fill="black"/>
<path d="M729.674 41.2L730.234 41.14L730.274 42.76C728.754 43.0667 727.408 43.22 726.234 43.22C724.754 43.22 723.688 42.8133 723.034 42C722.394 41.1867 722.074 39.8867 722.074 38.1C722.074 34.5533 723.521 32.78 726.414 32.78C729.214 32.78 730.614 34.3067 730.614 37.36L730.474 38.92H724.274C724.288 39.7467 724.468 40.3533 724.814 40.74C725.161 41.1267 725.808 41.32 726.754 41.32C727.701 41.32 728.674 41.28 729.674 41.2ZM728.474 37.24C728.474 36.2533 728.314 35.5667 727.994 35.18C727.688 34.78 727.161 34.58 726.414 34.58C725.668 34.58 725.121 34.7867 724.774 35.2C724.441 35.6133 724.268 36.2933 724.254 37.24H728.474Z" fill="black"/>
<path d="M717.73 43V33H719.91V43H717.73ZM717.73 31.3V29H719.91V31.3H717.73Z" fill="black"/>
<path d="M712.622 32.78C713.329 32.78 714.162 32.8733 715.122 33.06L715.622 33.16L715.542 34.88C714.489 34.7733 713.709 34.72 713.202 34.72C712.189 34.72 711.509 34.9467 711.162 35.4C710.816 35.8533 710.642 36.7067 710.642 37.96C710.642 39.2133 710.809 40.08 711.142 40.56C711.476 41.04 712.169 41.28 713.222 41.28L715.562 41.12L715.622 42.86C714.276 43.1 713.262 43.22 712.582 43.22C711.062 43.22 709.989 42.8133 709.362 42C708.749 41.1733 708.442 39.8267 708.442 37.96C708.442 36.0933 708.769 34.7667 709.422 33.98C710.076 33.18 711.142 32.78 712.622 32.78Z" fill="black"/>
<path d="M704.058 43V33H706.238V43H704.058ZM704.058 31.3V29H706.238V31.3H704.058Z" fill="black"/>
<path d="M699.764 34.86V43H697.604V34.86H696.444V33H697.604V32.36C697.604 30.9333 697.811 29.9533 698.224 29.42C698.638 28.8867 699.371 28.62 700.424 28.62L702.584 28.82L702.564 30.6C701.911 30.5733 701.364 30.56 700.924 30.56C700.498 30.56 700.198 30.6933 700.024 30.96C699.851 31.2133 699.764 31.6867 699.764 32.38V33H702.404V34.86H699.764Z" fill="black"/>
<path d="M692.85 34.86V43H690.69V34.86H689.53V33H690.69V32.36C690.69 30.9333 690.897 29.9533 691.31 29.42C691.724 28.8867 692.457 28.62 693.51 28.62L695.67 28.82L695.65 30.6C694.997 30.5733 694.45 30.56 694.01 30.56C693.584 30.56 693.284 30.6933 693.11 30.96C692.937 31.2133 692.85 31.6867 692.85 32.38V33H695.49V34.86H692.85Z" fill="black"/>
<path d="M679.436 43V29.3H688.076V31.24H681.656V35.12H686.876V37.04H681.656V41.04H688.076V43H679.436Z" fill="black"/>
<path d="M672.993 34.86H670.233V39.26C670.233 40.0733 670.293 40.6133 670.413 40.88C670.533 41.1467 670.84 41.28 671.333 41.28L672.973 41.22L673.073 42.96C672.18 43.1333 671.5 43.22 671.033 43.22C669.9 43.22 669.12 42.96 668.693 42.44C668.28 41.92 668.073 40.94 668.073 39.5V34.86H666.793V33H668.073V30.1H670.233V33H672.993V34.86Z" fill="black"/>
<path d="M665.178 35.06C663.605 34.8467 662.465 34.74 661.758 34.74C661.051 34.74 660.558 34.8267 660.278 35C660.011 35.16 659.878 35.42 659.878 35.78C659.878 36.14 660.025 36.3933 660.318 36.54C660.625 36.6867 661.331 36.86 662.438 37.06C663.558 37.2467 664.351 37.5467 664.818 37.96C665.285 38.3733 665.518 39.1067 665.518 40.16C665.518 41.2133 665.178 41.9867 664.498 42.48C663.831 42.9733 662.851 43.22 661.558 43.22C660.745 43.22 659.718 43.1067 658.478 42.88L657.858 42.78L657.938 40.96C659.538 41.1733 660.691 41.28 661.398 41.28C662.105 41.28 662.605 41.1933 662.898 41.02C663.205 40.8467 663.358 40.56 663.358 40.16C663.358 39.76 663.211 39.4867 662.918 39.34C662.638 39.18 661.951 39.0133 660.858 38.84C659.778 38.6533 658.985 38.3667 658.478 37.98C657.971 37.5933 657.718 36.8867 657.718 35.86C657.718 34.8333 658.065 34.0667 658.758 33.56C659.465 33.0533 660.365 32.8 661.458 32.8C662.311 32.8 663.358 32.9067 664.598 33.12L665.218 33.24L665.178 35.06Z" fill="black"/>
<path d="M648.172 34.08C648.866 33.2133 650.012 32.78 651.612 32.78C653.212 32.78 654.352 33.2133 655.032 34.08C655.726 34.9467 656.072 36.2467 656.072 37.98C656.072 39.7133 655.739 41.02 655.072 41.9C654.406 42.78 653.252 43.22 651.612 43.22C649.972 43.22 648.819 42.78 648.152 41.9C647.486 41.02 647.152 39.7133 647.152 37.98C647.152 36.2467 647.492 34.9467 648.172 34.08ZM649.812 40.58C650.119 41.1133 650.719 41.38 651.612 41.38C652.506 41.38 653.106 41.1133 653.412 40.58C653.719 40.0467 653.872 39.1733 653.872 37.96C653.872 36.7467 653.706 35.8867 653.372 35.38C653.052 34.8733 652.466 34.62 651.612 34.62C650.759 34.62 650.166 34.8733 649.832 35.38C649.512 35.8867 649.352 36.7467 649.352 37.96C649.352 39.1733 649.506 40.0467 649.812 40.58Z" fill="black"/>
<path d="M641.789 43.22C639.789 43.22 638.429 42.6667 637.709 41.56C637.003 40.4533 636.649 38.6333 636.649 36.1C636.649 33.5667 637.009 31.7667 637.729 30.7C638.449 29.62 639.803 29.08 641.789 29.08C642.976 29.08 644.283 29.2467 645.709 29.58L645.629 31.38C644.429 31.1667 643.229 31.06 642.029 31.06C640.829 31.06 640.016 31.42 639.589 32.14C639.163 32.8467 638.949 34.1867 638.949 36.16C638.949 38.12 639.156 39.46 639.569 40.18C639.983 40.8867 640.789 41.24 641.989 41.24C643.189 41.24 644.403 41.14 645.629 40.94L645.689 42.78C644.316 43.0733 643.016 43.22 641.789 43.22Z" fill="black"/>
<path d="M629.894 28.84V43H627.734V42.48C626.761 42.9733 625.867 43.22 625.054 43.22C623.747 43.22 622.787 42.8267 622.174 42.04C621.574 41.2533 621.274 39.9333 621.274 38.08C621.274 36.2267 621.607 34.88 622.274 34.04C622.954 33.2 624.007 32.78 625.434 32.78C625.914 32.78 626.674 32.8667 627.714 33.04V28.84H629.894ZM627.374 40.92L627.714 40.78V34.86C626.914 34.7267 626.174 34.66 625.494 34.66C624.147 34.66 623.474 35.78 623.474 38.02C623.474 39.2467 623.627 40.1 623.934 40.58C624.254 41.0467 624.754 41.28 625.434 41.28C626.114 41.28 626.761 41.16 627.374 40.92Z" fill="black"/>
<path d="M618.698 41.2L619.258 41.14L619.298 42.76C617.778 43.0667 616.431 43.22 615.258 43.22C613.778 43.22 612.711 42.8133 612.058 42C611.418 41.1867 611.098 39.8867 611.098 38.1C611.098 34.5533 612.544 32.78 615.438 32.78C618.238 32.78 619.638 34.3067 619.638 37.36L619.498 38.92H613.298C613.311 39.7467 613.491 40.3533 613.838 40.74C614.184 41.1267 614.831 41.32 615.778 41.32C616.724 41.32 617.698 41.28 618.698 41.2ZM617.498 37.24C617.498 36.2533 617.338 35.5667 617.018 35.18C616.711 34.78 616.184 34.58 615.438 34.58C614.691 34.58 614.144 34.7867 613.798 35.2C613.464 35.6133 613.291 36.2933 613.278 37.24H617.498Z" fill="black"/>
<path d="M601.996 34.94V33H609.416V34.94L604.616 41.06H609.416V43H601.996V41.06L606.816 34.94H601.996Z" fill="black"/>
<path d="M597.672 43V33H599.852V43H597.672ZM597.672 31.3V29H599.852V31.3H597.672Z" fill="black"/>
<path d="M583.094 43H580.914V33H583.074V33.62C584.02 33.06 584.887 32.78 585.674 32.78C586.834 32.78 587.68 33.1067 588.214 33.76C589.427 33.1067 590.634 32.78 591.834 32.78C593.034 32.78 593.88 33.1533 594.374 33.9C594.867 34.6333 595.114 35.88 595.114 37.64V43H592.954V37.7C592.954 36.62 592.84 35.8533 592.614 35.4C592.4 34.9467 591.947 34.72 591.254 34.72C590.654 34.72 590.007 34.8533 589.314 35.12L588.974 35.26C589.08 35.5267 589.134 36.38 589.134 37.82V43H586.974V37.86C586.974 36.6733 586.867 35.8533 586.654 35.4C586.44 34.9467 585.974 34.72 585.254 34.72C584.587 34.72 583.967 34.8533 583.394 35.12L583.094 35.24V43Z" fill="black"/>
<path d="M576.09 43V33H578.27V43H576.09ZM576.09 31.3V29H578.27V31.3H576.09Z" fill="black"/>
<path d="M574.302 34.86H571.542V39.26C571.542 40.0733 571.602 40.6133 571.722 40.88C571.842 41.1467 572.148 41.28 572.642 41.28L574.282 41.22L574.382 42.96C573.488 43.1333 572.808 43.22 572.342 43.22C571.208 43.22 570.428 42.96 570.002 42.44C569.588 41.92 569.382 40.94 569.382 39.5V34.86H568.102V33H569.382V30.1H571.542V33H574.302V34.86Z" fill="black"/>
<path d="M558.179 47.3V33H560.339V33.62C561.259 33.06 562.119 32.78 562.919 32.78C564.239 32.78 565.206 33.1867 565.819 34C566.433 34.8 566.739 36.1533 566.739 38.06C566.739 39.9533 566.386 41.2867 565.679 42.06C564.986 42.8333 563.846 43.22 562.259 43.22C561.713 43.22 561.079 43.16 560.359 43.04V47.3H558.179ZM562.539 34.72C561.913 34.72 561.286 34.86 560.659 35.14L560.359 35.28V41.18C560.893 41.2867 561.479 41.34 562.119 41.34C563.026 41.34 563.653 41.08 563.999 40.56C564.346 40.04 564.519 39.1533 564.519 37.9C564.519 35.78 563.859 34.72 562.539 34.72Z" fill="black"/>
<path d="M547.694 40.1C548.148 40.8867 549.014 41.28 550.294 41.28C551.574 41.28 552.434 40.8933 552.874 40.12C553.328 39.3467 553.554 38.0533 553.554 36.24C553.554 34.4133 553.321 33.0867 552.854 32.26C552.401 31.4333 551.548 31.02 550.294 31.02C549.041 31.02 548.181 31.4333 547.714 32.26C547.248 33.0867 547.014 34.4067 547.014 36.22C547.014 38.02 547.241 39.3133 547.694 40.1ZM554.614 41.54C553.801 42.66 552.361 43.22 550.294 43.22C548.228 43.22 546.781 42.66 545.954 41.54C545.128 40.4067 544.714 38.6333 544.714 36.22C544.714 33.8067 545.128 32.0133 545.954 30.84C546.794 29.6667 548.241 29.08 550.294 29.08C552.348 29.08 553.788 29.6667 554.614 30.84C555.441 32 555.854 33.7933 555.854 36.22C555.854 38.6467 555.441 40.42 554.614 41.54Z" fill="black"/>
<path d="M759.885 96.06C758.312 95.8467 757.172 95.74 756.465 95.74C755.758 95.74 755.265 95.8267 754.985 96C754.718 96.16 754.585 96.42 754.585 96.78C754.585 97.14 754.732 97.3933 755.025 97.54C755.332 97.6867 756.038 97.86 757.145 98.06C758.265 98.2467 759.058 98.5467 759.525 98.96C759.992 99.3733 760.225 100.107 760.225 101.16C760.225 102.213 759.885 102.987 759.205 103.48C758.538 103.973 757.558 104.22 756.265 104.22C755.452 104.22 754.425 104.107 753.185 103.88L752.565 103.78L752.645 101.96C754.245 102.173 755.398 102.28 756.105 102.28C756.812 102.28 757.312 102.193 757.605 102.02C757.912 101.847 758.065 101.56 758.065 101.16C758.065 100.76 757.918 100.487 757.625 100.34C757.345 100.18 756.658 100.013 755.565 99.84C754.485 99.6533 753.692 99.3667 753.185 98.98C752.678 98.5933 752.425 97.8867 752.425 96.86C752.425 95.8333 752.772 95.0667 753.465 94.56C754.172 94.0533 755.072 93.8 756.165 93.8C757.018 93.8 758.065 93.9067 759.305 94.12L759.925 94.24L759.885 96.06Z" fill="black"/>
<path d="M749.909 102.2L750.469 102.14L750.509 103.76C748.989 104.067 747.642 104.22 746.469 104.22C744.989 104.22 743.922 103.813 743.269 103C742.629 102.187 742.309 100.887 742.309 99.1C742.309 95.5533 743.756 93.78 746.649 93.78C749.449 93.78 750.849 95.3067 750.849 98.36L750.709 99.92H744.509C744.522 100.747 744.702 101.353 745.049 101.74C745.396 102.127 746.042 102.32 746.989 102.32C747.936 102.32 748.909 102.28 749.909 102.2ZM748.709 98.24C748.709 97.2533 748.549 96.5667 748.229 96.18C747.922 95.78 747.396 95.58 746.649 95.58C745.902 95.58 745.356 95.7867 745.009 96.2C744.676 96.6133 744.502 97.2933 744.489 98.24H748.709Z" fill="black"/>
<path d="M737.965 104V94H740.145V104H737.965ZM737.965 92.3V90H740.145V92.3H737.965Z" fill="black"/>
<path d="M736.177 95.86H733.417V100.26C733.417 101.073 733.477 101.613 733.597 101.88C733.717 102.147 734.023 102.28 734.517 102.28L736.157 102.22L736.257 103.96C735.363 104.133 734.683 104.22 734.217 104.22C733.083 104.22 732.303 103.96 731.877 103.44C731.463 102.92 731.257 101.94 731.257 100.5V95.86H729.977V94H731.257V91.1H733.417V94H736.177V95.86Z" fill="black"/>
<path d="M725.972 104V94H728.152V104H725.972ZM725.972 92.3V90H728.152V92.3H725.972Z" fill="black"/>
<path d="M721.034 104V89.84H723.214V104H721.034Z" fill="black"/>
<path d="M716.09 104V94H718.27V104H716.09ZM716.09 92.3V90H718.27V92.3H716.09Z" fill="black"/>
<path d="M710.027 93.78C711.4 93.78 712.387 94.1667 712.987 94.94C713.6 95.7 713.907 97.0533 713.907 99C713.907 100.947 713.547 102.307 712.827 103.08C712.107 103.84 710.84 104.22 709.027 104.22C708.4 104.22 707.407 104.16 706.047 104.04L705.367 103.98V89.84H707.527V94.38C708.447 93.98 709.28 93.78 710.027 93.78ZM709.027 102.28C710.094 102.28 710.8 102.033 711.147 101.54C711.507 101.033 711.687 100.18 711.687 98.98C711.687 97.78 711.534 96.94 711.227 96.46C710.934 95.9667 710.447 95.72 709.767 95.72C709.127 95.72 708.487 95.82 707.847 96.02L707.527 96.12V102.2C708.26 102.253 708.76 102.28 709.027 102.28Z" fill="black"/>
<path d="M702.63 97.08V101.64C702.644 101.933 702.717 102.153 702.85 102.3C702.997 102.433 703.217 102.52 703.51 102.56L703.45 104.22C702.304 104.22 701.417 103.973 700.79 103.48C699.724 103.973 698.65 104.22 697.57 104.22C695.584 104.22 694.59 103.16 694.59 101.04C694.59 100.027 694.857 99.2933 695.39 98.84C695.937 98.3867 696.77 98.1133 697.89 98.02L700.47 97.8V97.08C700.47 96.5467 700.35 96.1733 700.11 95.96C699.884 95.7467 699.544 95.64 699.09 95.64C698.237 95.64 697.17 95.6933 695.89 95.8L695.25 95.84L695.17 94.3C696.624 93.9533 697.957 93.78 699.17 93.78C700.397 93.78 701.277 94.0467 701.81 94.58C702.357 95.1 702.63 95.9333 702.63 97.08ZM698.15 99.56C697.23 99.64 696.77 100.14 696.77 101.06C696.77 101.98 697.177 102.44 697.99 102.44C698.657 102.44 699.364 102.333 700.11 102.12L700.47 102V99.34L698.15 99.56Z" fill="black"/>
<path d="M684.488 108.3V94H686.648V94.62C687.568 94.06 688.428 93.78 689.228 93.78C690.548 93.78 691.515 94.1867 692.128 95C692.741 95.8 693.048 97.1533 693.048 99.06C693.048 100.953 692.695 102.287 691.988 103.06C691.295 103.833 690.155 104.22 688.568 104.22C688.021 104.22 687.388 104.16 686.668 104.04V108.3H684.488ZM688.848 95.72C688.221 95.72 687.595 95.86 686.968 96.14L686.668 96.28V102.18C687.201 102.287 687.788 102.34 688.428 102.34C689.335 102.34 689.961 102.08 690.308 101.56C690.655 101.04 690.828 100.153 690.828 98.9C690.828 96.78 690.168 95.72 688.848 95.72Z" fill="black"/>
<path d="M681.751 97.08V101.64C681.765 101.933 681.838 102.153 681.971 102.3C682.118 102.433 682.338 102.52 682.631 102.56L682.571 104.22C681.425 104.22 680.538 103.973 679.911 103.48C678.845 103.973 677.771 104.22 676.691 104.22C674.705 104.22 673.711 103.16 673.711 101.04C673.711 100.027 673.978 99.2933 674.511 98.84C675.058 98.3867 675.891 98.1133 677.011 98.02L679.591 97.8V97.08C679.591 96.5467 679.471 96.1733 679.231 95.96C679.005 95.7467 678.665 95.64 678.211 95.64C677.358 95.64 676.291 95.6933 675.011 95.8L674.371 95.84L674.291 94.3C675.745 93.9533 677.078 93.78 678.291 93.78C679.518 93.78 680.398 94.0467 680.931 94.58C681.478 95.1 681.751 95.9333 681.751 97.08ZM677.271 99.56C676.351 99.64 675.891 100.14 675.891 101.06C675.891 101.98 676.298 102.44 677.111 102.44C677.778 102.44 678.485 102.333 679.231 102.12L679.591 102V99.34L677.271 99.56Z" fill="black"/>
<path d="M668.332 104.22C666.332 104.22 664.972 103.667 664.252 102.56C663.546 101.453 663.192 99.6333 663.192 97.1C663.192 94.5667 663.552 92.7667 664.272 91.7C664.992 90.62 666.346 90.08 668.332 90.08C669.519 90.08 670.826 90.2467 672.252 90.58L672.172 92.38C670.972 92.1667 669.772 92.06 668.572 92.06C667.372 92.06 666.559 92.42 666.132 93.14C665.706 93.8467 665.492 95.1867 665.492 97.16C665.492 99.12 665.699 100.46 666.112 101.18C666.526 101.887 667.332 102.24 668.532 102.24C669.732 102.24 670.946 102.14 672.172 101.94L672.232 103.78C670.859 104.073 669.559 104.22 668.332 104.22Z" fill="black"/>
<path d="M650.34 104H648.16V94H650.32V94.62C651.293 94.06 652.213 93.78 653.08 93.78C654.413 93.78 655.32 94.16 655.8 94.92C656.293 95.6667 656.54 96.9067 656.54 98.64V104H654.38V98.7C654.38 97.62 654.26 96.8533 654.02 96.4C653.793 95.9467 653.32 95.72 652.6 95.72C651.92 95.72 651.267 95.8533 650.64 96.12L650.34 96.24V104Z" fill="black"/>
<path d="M638.094 95.08C638.788 94.2133 639.934 93.78 641.534 93.78C643.134 93.78 644.274 94.2133 644.954 95.08C645.648 95.9467 645.994 97.2467 645.994 98.98C645.994 100.713 645.661 102.02 644.994 102.9C644.328 103.78 643.174 104.22 641.534 104.22C639.894 104.22 638.741 103.78 638.074 102.9C637.408 102.02 637.074 100.713 637.074 98.98C637.074 97.2467 637.414 95.9467 638.094 95.08ZM639.734 101.58C640.041 102.113 640.641 102.38 641.534 102.38C642.428 102.38 643.028 102.113 643.334 101.58C643.641 101.047 643.794 100.173 643.794 98.96C643.794 97.7467 643.628 96.8867 643.294 96.38C642.974 95.8733 642.388 95.62 641.534 95.62C640.681 95.62 640.088 95.8733 639.754 96.38C639.434 96.8867 639.274 97.7467 639.274 98.96C639.274 100.173 639.428 101.047 639.734 101.58Z" fill="black"/>
<path d="M632.73 104V94H634.91V104H632.73ZM632.73 92.3V90H634.91V92.3H632.73Z" fill="black"/>
<path d="M630.295 96.06C628.722 95.8467 627.582 95.74 626.875 95.74C626.169 95.74 625.675 95.8267 625.395 96C625.129 96.16 624.995 96.42 624.995 96.78C624.995 97.14 625.142 97.3933 625.435 97.54C625.742 97.6867 626.449 97.86 627.555 98.06C628.675 98.2467 629.469 98.5467 629.935 98.96C630.402 99.3733 630.635 100.107 630.635 101.16C630.635 102.213 630.295 102.987 629.615 103.48C628.949 103.973 627.969 104.22 626.675 104.22C625.862 104.22 624.835 104.107 623.595 103.88L622.975 103.78L623.055 101.96C624.655 102.173 625.809 102.28 626.515 102.28C627.222 102.28 627.722 102.193 628.015 102.02C628.322 101.847 628.475 101.56 628.475 101.16C628.475 100.76 628.329 100.487 628.035 100.34C627.755 100.18 627.069 100.013 625.975 99.84C624.895 99.6533 624.102 99.3667 623.595 98.98C623.089 98.5933 622.835 97.8867 622.835 96.86C622.835 95.8333 623.182 95.0667 623.875 94.56C624.582 94.0533 625.482 93.8 626.575 93.8C627.429 93.8 628.475 93.9067 629.715 94.12L630.335 94.24L630.295 96.06Z" fill="black"/>
<path d="M614.617 104H612.437V94H614.597V94.62C615.571 94.06 616.491 93.78 617.357 93.78C618.691 93.78 619.597 94.16 620.077 94.92C620.571 95.6667 620.817 96.9067 620.817 98.64V104H618.657V98.7C618.657 97.62 618.537 96.8533 618.297 96.4C618.071 95.9467 617.597 95.72 616.877 95.72C616.197 95.72 615.544 95.8533 614.917 96.12L614.617 96.24V104Z" fill="black"/>
<path d="M609.701 97.08V101.64C609.714 101.933 609.787 102.153 609.921 102.3C610.067 102.433 610.287 102.52 610.581 102.56L610.521 104.22C609.374 104.22 608.487 103.973 607.861 103.48C606.794 103.973 605.721 104.22 604.641 104.22C602.654 104.22 601.661 103.16 601.661 101.04C601.661 100.027 601.927 99.2933 602.461 98.84C603.007 98.3867 603.841 98.1133 604.961 98.02L607.541 97.8V97.08C607.541 96.5467 607.421 96.1733 607.181 95.96C606.954 95.7467 606.614 95.64 606.161 95.64C605.307 95.64 604.241 95.6933 602.961 95.8L602.321 95.84L602.241 94.3C603.694 93.9533 605.027 93.78 606.241 93.78C607.467 93.78 608.347 94.0467 608.881 94.58C609.427 95.1 609.701 95.9333 609.701 97.08ZM605.221 99.56C604.301 99.64 603.841 100.14 603.841 101.06C603.841 101.98 604.247 102.44 605.061 102.44C605.727 102.44 606.434 102.333 607.181 102.12L607.541 102V99.34L605.221 99.56Z" fill="black"/>
<path d="M591.558 108.3V94H593.718V94.62C594.638 94.06 595.498 93.78 596.298 93.78C597.618 93.78 598.585 94.1867 599.198 95C599.812 95.8 600.118 97.1533 600.118 99.06C600.118 100.953 599.765 102.287 599.058 103.06C598.365 103.833 597.225 104.22 595.638 104.22C595.092 104.22 594.458 104.16 593.738 104.04V108.3H591.558ZM595.918 95.72C595.292 95.72 594.665 95.86 594.038 96.14L593.738 96.28V102.18C594.272 102.287 594.858 102.34 595.498 102.34C596.405 102.34 597.032 102.08 597.378 101.56C597.725 101.04 597.898 100.153 597.898 98.9C597.898 96.78 597.238 95.72 595.918 95.72Z" fill="black"/>
<path d="M581.321 94H583.641L585.601 97.46L587.581 94H589.901L586.921 98.92L589.901 104H587.581L585.601 100.58L583.641 104H581.321L584.221 98.98L581.321 94Z" fill="black"/>
<path d="M571.486 104V90.3H580.126V92.24H573.706V96.12H578.926V98.04H573.706V102.04H580.126V104H571.486Z" fill="black"/>
<path d="M564.191 89.84V104H562.031V103.48C561.058 103.973 560.164 104.22 559.351 104.22C558.044 104.22 557.084 103.827 556.471 103.04C555.871 102.253 555.571 100.933 555.571 99.08C555.571 97.2267 555.904 95.88 556.571 95.04C557.251 94.2 558.304 93.78 559.731 93.78C560.211 93.78 560.971 93.8667 562.011 94.04V89.84H564.191ZM561.671 101.92L562.011 101.78V95.86C561.211 95.7267 560.471 95.66 559.791 95.66C558.444 95.66 557.771 96.78 557.771 99.02C557.771 100.247 557.924 101.1 558.231 101.58C558.551 102.047 559.051 102.28 559.731 102.28C560.411 102.28 561.058 102.16 561.671 101.92Z" fill="black"/>
<path d="M551.207 104V94H553.387V104H551.207ZM551.207 92.3V90H553.387V92.3H551.207Z" fill="black"/>
<path d="M540.465 108.3V94H542.625V94.62C543.545 94.06 544.405 93.78 545.205 93.78C546.525 93.78 547.491 94.1867 548.105 95C548.718 95.8 549.025 97.1533 549.025 99.06C549.025 100.953 548.671 102.287 547.965 103.06C547.271 103.833 546.131 104.22 544.545 104.22C543.998 104.22 543.365 104.16 542.645 104.04V108.3H540.465ZM544.825 95.72C544.198 95.72 543.571 95.86 542.945 96.14L542.645 96.28V102.18C543.178 102.287 543.765 102.34 544.405 102.34C545.311 102.34 545.938 102.08 546.285 101.56C546.631 101.04 546.805 100.153 546.805 98.9C546.805 96.78 546.145 95.72 544.825 95.72Z" fill="black"/>
<path d="M537.728 97.08V101.64C537.741 101.933 537.815 102.153 537.948 102.3C538.095 102.433 538.315 102.52 538.608 102.56L538.548 104.22C537.401 104.22 536.515 103.973 535.888 103.48C534.821 103.973 533.748 104.22 532.668 104.22C530.681 104.22 529.688 103.16 529.688 101.04C529.688 100.027 529.955 99.2933 530.488 98.84C531.035 98.3867 531.868 98.1133 532.988 98.02L535.568 97.8V97.08C535.568 96.5467 535.448 96.1733 535.208 95.96C534.981 95.7467 534.641 95.64 534.188 95.64C533.335 95.64 532.268 95.6933 530.988 95.8L530.348 95.84L530.268 94.3C531.721 93.9533 533.055 93.78 534.268 93.78C535.495 93.78 536.375 94.0467 536.908 94.58C537.455 95.1 537.728 95.9333 537.728 97.08ZM533.248 99.56C532.328 99.64 531.868 100.14 531.868 101.06C531.868 101.98 532.275 102.44 533.088 102.44C533.755 102.44 534.461 102.333 535.208 102.12L535.568 102V99.34L533.248 99.56Z" fill="black"/>
<path d="M520.523 99.12V104H518.303V90.3H523.503C526.596 90.3 528.143 91.7533 528.143 94.66C528.143 96.6067 527.396 97.9267 525.903 98.62L528.163 104H525.723L523.743 99.12H520.523ZM525.863 94.68C525.863 93.04 525.076 92.22 523.503 92.22H520.523V97.2H523.543C524.343 97.2 524.929 96.9733 525.303 96.52C525.676 96.0533 525.863 95.44 525.863 94.68Z" fill="black"/>
<path d="M332.248 56.5527H760.634V57.9665H332.248V56.5527Z" fill="#FFB216"/>
<path d="M336.489 57.2591C336.489 59.2112 334.907 60.7937 332.954 60.7937C331.002 60.7937 329.42 59.2112 329.42 57.2591C329.42 55.3071 331.002 53.7246 332.954 53.7246C334.907 53.7246 336.489 55.3071 336.489 57.2591Z" fill="#FFB216"/>
<path d="M431 188H761V189H431V188Z" fill="#FFB216"/>
<path d="M434.069 188.535C434.069 190.487 432.487 192.069 430.535 192.069C428.582 192.069 427 190.487 427 188.535C427 186.582 428.582 185 430.535 185C432.487 185 434.069 186.582 434.069 188.535Z" fill="#FFB216"/>
<path d="M383 122H761V123H383V122Z" fill="#FFB216"/>
<path d="M386.069 122.535C386.069 124.487 384.487 126.069 382.535 126.069C380.582 126.069 379 124.487 379 122.535C379 120.582 380.582 119 382.535 119C384.487 119 386.069 120.582 386.069 122.535Z" fill="#FFB216"/>
<path d="M538 320H761V321H538V320Z" fill="#FFB216"/>
<path d="M541.069 321.535C541.069 323.487 539.487 325.069 537.535 325.069C535.582 325.069 534 323.487 534 321.535C534 319.582 535.582 318 537.535 318C539.487 318 541.069 319.582 541.069 321.535Z" fill="#FFB216"/>
<path d="M487 254H761V255H487V254Z" fill="#FFB216"/>
<path d="M489.069 254.535C489.069 256.487 487.487 258.069 485.535 258.069C483.582 258.069 482 256.487 482 254.535C482 252.582 483.582 251 485.535 251C487.487 251 489.069 252.582 489.069 254.535Z" fill="#FFB216"/>
</svg>
