<svg width="631" height="392" viewBox="0 0 631 392" fill="none" xmlns="http://www.w3.org/2000/svg">
<rect width="631" height="392" fill="white"/>
<rect x="254.115" y="71.9961" width="327.986" height="0.990895" fill="#FFB216"/>
<rect x="291.662" y="133.992" width="290.439" height="1" fill="#FFB216"/>
<rect x="326.014" y="195.992" width="256.088" height="1" fill="#FFB216"/>
<rect x="362.188" y="257.992" width="219.914" height="1" fill="#FFB216"/>
<rect x="399.861" y="319.992" width="182.24" height="1" fill="#FFB216"/>
<circle cx="254.486" cy="72.498" r="2.25586" fill="#FFB216"/>
<circle cx="292.229" cy="134.49" r="2.25586" fill="#FFB216"/>
<circle cx="327.08" cy="196.49" r="2.25586" fill="#FFB216"/>
<circle cx="363.361" cy="258.49" r="2.25586" fill="#FFB216"/>
<circle cx="399.643" cy="320.49" r="2.25586" fill="#FFB216"/>
<mask id="mask0_3861_46269" style="mask-type:alpha" maskUnits="userSpaceOnUse" x="44" y="47" width="354" height="303">
<path fill-rule="evenodd" clip-rule="evenodd" d="M365.842 295.795L397.386 349.76H44.1152L75.6595 295.795H365.842Z" fill="#FFB216"/>
<path fill-rule="evenodd" clip-rule="evenodd" d="M80.3574 287.795L111.931 233.779H329.568L361.141 287.795H80.3574Z" fill="#FFB216"/>
<path fill-rule="evenodd" clip-rule="evenodd" d="M116.631 225.779L148.205 171.764H293.296L324.869 225.779H116.631Z" fill="#FFB216"/>
<path fill-rule="evenodd" clip-rule="evenodd" d="M152.904 163.764L184.478 109.748H257.024L288.597 163.764H152.904Z" fill="#FFB216"/>
<path fill-rule="evenodd" clip-rule="evenodd" d="M252.321 101.748L220.748 47.7324L189.174 101.748H252.321Z" fill="#FFB216"/>
</mask>
<g mask="url(#mask0_3861_46269)">
<rect x="426.455" y="349.76" width="411.418" height="302.027" transform="rotate(-180 426.455 349.76)" fill="url(#paint0_linear_3861_46269)"/>
</g>
<path d="M527.438 308.828L530.098 299.14H532.45L535.11 308.828H534.046L533.346 306.336H529.202L528.502 308.828H527.438ZM530.91 300.064L529.44 305.37H533.108L531.638 300.064H530.91ZM536.533 308.828V298.776H537.583V308.828H536.533ZM539.634 305.468V304.488H543.876V305.468H539.634ZM547.088 305.118V308.828H546.01V299.14H549.594C550.621 299.14 551.391 299.378 551.904 299.854C552.427 300.33 552.688 301.072 552.688 302.08C552.688 303.573 552.096 304.511 550.91 304.894L552.772 308.828H551.582L549.832 305.118H547.088ZM549.608 304.166C550.924 304.166 551.582 303.489 551.582 302.136C551.582 300.773 550.92 300.092 549.594 300.092H547.088V304.166H549.608ZM559.092 307.96L559.498 307.918L559.526 308.744C558.462 308.893 557.552 308.968 556.796 308.968C555.788 308.968 555.074 308.679 554.654 308.1C554.234 307.512 554.024 306.602 554.024 305.37C554.024 302.915 555 301.688 556.95 301.688C557.893 301.688 558.598 301.954 559.064 302.486C559.531 303.009 559.764 303.835 559.764 304.964L559.708 305.762H555.088C555.088 306.537 555.228 307.111 555.508 307.484C555.788 307.857 556.274 308.044 556.964 308.044C557.664 308.044 558.374 308.016 559.092 307.96ZM558.714 304.922C558.714 304.063 558.574 303.457 558.294 303.102C558.024 302.747 557.576 302.57 556.95 302.57C556.334 302.57 555.868 302.757 555.55 303.13C555.242 303.503 555.084 304.101 555.074 304.922H558.714ZM566.343 303.942V307.526C566.371 307.871 566.641 308.077 567.155 308.142L567.113 308.968C566.375 308.968 565.82 308.781 565.447 308.408C564.607 308.781 563.767 308.968 562.927 308.968C562.283 308.968 561.793 308.786 561.457 308.422C561.121 308.058 560.953 307.535 560.953 306.854C560.953 306.173 561.125 305.673 561.471 305.356C561.816 305.029 562.357 304.829 563.095 304.754L565.293 304.544V303.942C565.293 303.466 565.19 303.125 564.985 302.92C564.779 302.715 564.499 302.612 564.145 302.612C563.398 302.612 562.623 302.659 561.821 302.752L561.387 302.794L561.345 301.996C562.371 301.791 563.281 301.688 564.075 301.688C564.868 301.688 565.442 301.87 565.797 302.234C566.161 302.598 566.343 303.167 566.343 303.942ZM562.031 306.798C562.031 307.657 562.385 308.086 563.095 308.086C563.729 308.086 564.355 307.979 564.971 307.764L565.293 307.652V305.342L563.221 305.538C562.801 305.575 562.497 305.697 562.311 305.902C562.124 306.107 562.031 306.406 562.031 306.798ZM573.79 298.776V308.828H572.754V308.352C572.036 308.763 571.326 308.968 570.626 308.968C570.253 308.968 569.926 308.921 569.646 308.828C569.366 308.735 569.105 308.567 568.862 308.324C568.358 307.82 568.106 306.891 568.106 305.538C568.106 304.175 568.33 303.195 568.778 302.598C569.236 301.991 569.987 301.688 571.032 301.688C571.574 301.688 572.148 301.749 572.754 301.87V298.776H573.79ZM569.674 307.568C569.824 307.745 569.982 307.867 570.15 307.932C570.318 307.997 570.533 308.03 570.794 308.03C571.065 308.03 571.364 307.988 571.69 307.904C572.026 307.811 572.288 307.722 572.474 307.638L572.754 307.512V302.766C572.157 302.654 571.602 302.598 571.088 302.598C570.379 302.598 569.884 302.827 569.604 303.284C569.324 303.732 569.184 304.432 569.184 305.384C569.184 306.467 569.348 307.195 569.674 307.568ZM575.166 301.828H576.216L577.966 307.918H578.428L580.192 301.828H581.242L578.33 311.936H577.28L578.19 308.828H577.154L575.166 301.828Z" fill="black"/>
<path d="M438.292 246.812V237.124H440.238L442.982 245.314L445.726 237.124H447.672V246.812H446.594V238.272H446.398L443.584 246.462H442.38L439.566 238.272H439.37V246.812H438.292ZM454.235 239.812H455.285V246.812H454.235V246.322C453.535 246.743 452.845 246.953 452.163 246.953C451.211 246.953 450.577 246.705 450.259 246.21C449.951 245.716 449.797 244.801 449.797 243.466V239.812H450.847V243.452C450.847 244.47 450.936 245.151 451.113 245.496C451.291 245.842 451.692 246.014 452.317 246.014C452.625 246.014 452.938 245.972 453.255 245.889C453.573 245.795 453.815 245.706 453.983 245.622L454.235 245.496V239.812ZM457.389 246.812V236.76H458.439V246.812H457.389ZM464.171 240.722H461.945V244.068C461.945 244.871 462.001 245.398 462.113 245.65C462.234 245.902 462.514 246.028 462.953 246.028L464.199 245.944L464.269 246.812C463.644 246.915 463.168 246.967 462.841 246.967C462.113 246.967 461.609 246.789 461.329 246.434C461.049 246.08 460.909 245.403 460.909 244.404V240.722H459.915V239.812H460.909V237.67H461.945V239.812H464.171V240.722ZM465.453 246.812V239.812H466.503V246.812H465.453ZM465.453 238.23V237.012H466.503V238.23H465.453ZM468.46 243.452V242.472H472.702V243.452H468.46ZM480.688 246.658C479.727 246.855 478.864 246.953 478.098 246.953C477.333 246.953 476.712 246.85 476.236 246.644C475.77 246.43 475.406 246.103 475.144 245.664C474.892 245.216 474.715 244.708 474.612 244.138C474.519 243.56 474.472 242.841 474.472 241.982C474.472 241.124 474.519 240.405 474.612 239.826C474.715 239.238 474.892 238.72 475.144 238.272C475.406 237.824 475.77 237.498 476.236 237.292C476.703 237.087 477.31 236.984 478.056 236.984C478.803 236.984 479.68 237.087 480.688 237.292L480.646 238.202C479.704 238.034 478.864 237.95 478.126 237.95C477.1 237.95 476.418 238.258 476.082 238.874C475.756 239.481 475.592 240.522 475.592 241.996C475.592 242.734 475.62 243.326 475.676 243.774C475.742 244.222 475.863 244.628 476.04 244.992C476.218 245.347 476.474 245.604 476.81 245.762C477.156 245.912 477.655 245.986 478.308 245.986C478.971 245.986 479.75 245.902 480.646 245.734L480.688 246.658ZM482.354 246.812V236.76H483.404V246.812H482.354ZM485.202 243.298C485.202 242.02 485.431 241.096 485.888 240.526C486.345 239.957 487.115 239.672 488.198 239.672C489.29 239.672 490.06 239.957 490.508 240.526C490.965 241.096 491.194 242.02 491.194 243.298C491.194 244.577 490.979 245.506 490.55 246.084C490.121 246.663 489.337 246.953 488.198 246.953C487.059 246.953 486.275 246.663 485.846 246.084C485.417 245.506 485.202 244.577 485.202 243.298ZM486.28 243.284C486.28 244.302 486.401 245.016 486.644 245.426C486.896 245.837 487.414 246.042 488.198 246.042C488.991 246.042 489.509 245.842 489.752 245.44C489.995 245.03 490.116 244.311 490.116 243.284C490.116 242.258 489.981 241.553 489.71 241.17C489.439 240.778 488.935 240.582 488.198 240.582C487.47 240.582 486.966 240.778 486.686 241.17C486.415 241.553 486.28 242.258 486.28 243.284ZM497.274 239.812H498.324V246.812H497.274V246.322C496.574 246.743 495.884 246.953 495.202 246.953C494.25 246.953 493.616 246.705 493.298 246.21C492.99 245.716 492.836 244.801 492.836 243.466V239.812H493.886V243.452C493.886 244.47 493.975 245.151 494.152 245.496C494.33 245.842 494.731 246.014 495.356 246.014C495.664 246.014 495.977 245.972 496.294 245.889C496.612 245.795 496.854 245.706 497.022 245.622L497.274 245.496V239.812ZM505.72 236.76V246.812H504.684V246.336C503.965 246.747 503.256 246.953 502.556 246.953C502.183 246.953 501.856 246.906 501.576 246.812C501.296 246.719 501.035 246.551 500.792 246.308C500.288 245.804 500.036 244.876 500.036 243.522C500.036 242.16 500.26 241.18 500.708 240.582C501.165 239.976 501.917 239.672 502.962 239.672C503.503 239.672 504.077 239.733 504.684 239.854V236.76H505.72ZM501.604 245.552C501.753 245.73 501.912 245.851 502.08 245.916C502.248 245.982 502.463 246.014 502.724 246.014C502.995 246.014 503.293 245.972 503.62 245.889C503.956 245.795 504.217 245.706 504.404 245.622L504.684 245.496V240.75C504.087 240.638 503.531 240.582 503.018 240.582C502.309 240.582 501.814 240.811 501.534 241.268C501.254 241.716 501.114 242.416 501.114 243.368C501.114 244.451 501.277 245.179 501.604 245.552ZM510.158 246.812L512.818 237.124H515.17L517.83 246.812H516.766L516.066 244.32H511.922L511.222 246.812H510.158ZM513.63 238.048L512.16 243.354H515.828L514.358 238.048H513.63ZM519.17 246.812V239.812H520.206V240.764C521.018 240.204 521.872 239.836 522.768 239.658V240.722C522.376 240.797 521.965 240.914 521.536 241.072C521.116 241.231 520.794 241.371 520.57 241.492L520.22 241.674V246.812H519.17ZM526.491 239.672C526.799 239.672 527.322 239.728 528.059 239.84L528.395 239.882L528.353 240.736C527.607 240.652 527.056 240.61 526.701 240.61C525.908 240.61 525.367 240.802 525.077 241.184C524.797 241.558 524.657 242.258 524.657 243.284C524.657 244.302 524.788 245.011 525.049 245.412C525.32 245.814 525.875 246.014 526.715 246.014L528.367 245.889L528.409 246.756C527.541 246.887 526.893 246.953 526.463 246.953C525.371 246.953 524.615 246.673 524.195 246.112C523.785 245.552 523.579 244.61 523.579 243.284C523.579 241.95 523.803 241.016 524.251 240.484C524.699 239.943 525.446 239.672 526.491 239.672ZM531.021 246.812H529.971V236.76H531.021V240.204C531.768 239.85 532.486 239.672 533.177 239.672C534.11 239.672 534.736 239.924 535.053 240.428C535.38 240.932 535.543 241.828 535.543 243.117V246.812H534.493V243.144C534.493 242.174 534.395 241.511 534.199 241.156C534.012 240.792 533.611 240.61 532.995 240.61C532.407 240.61 531.838 240.718 531.287 240.932L531.021 241.03V246.812ZM537.49 246.812V239.812H538.54V246.812H537.49ZM537.49 238.23V237.012H538.54V238.23H537.49ZM544.179 240.722H541.953V244.068C541.953 244.871 542.009 245.398 542.121 245.65C542.242 245.902 542.522 246.028 542.961 246.028L544.207 245.944L544.277 246.812C543.652 246.915 543.176 246.967 542.849 246.967C542.121 246.967 541.617 246.789 541.337 246.434C541.057 246.08 540.917 245.403 540.917 244.404V240.722H539.923V239.812H540.917V237.67H541.953V239.812H544.179V240.722ZM550.221 245.944L550.627 245.902L550.655 246.728C549.591 246.878 548.681 246.953 547.925 246.953C546.917 246.953 546.203 246.663 545.783 246.084C545.363 245.496 545.153 244.586 545.153 243.354C545.153 240.9 546.128 239.672 548.079 239.672C549.022 239.672 549.726 239.938 550.193 240.47C550.66 240.993 550.893 241.819 550.893 242.948L550.837 243.746H546.217C546.217 244.521 546.357 245.095 546.637 245.468C546.917 245.842 547.402 246.028 548.093 246.028C548.793 246.028 549.502 246 550.221 245.944ZM549.843 242.906C549.843 242.048 549.703 241.441 549.423 241.086C549.152 240.732 548.704 240.554 548.079 240.554C547.463 240.554 546.996 240.741 546.679 241.114C546.371 241.488 546.212 242.085 546.203 242.906H549.843ZM555.147 239.672C555.455 239.672 555.978 239.728 556.715 239.84L557.051 239.882L557.009 240.736C556.263 240.652 555.712 240.61 555.357 240.61C554.564 240.61 554.023 240.802 553.733 241.184C553.453 241.558 553.313 242.258 553.313 243.284C553.313 244.302 553.444 245.011 553.705 245.412C553.976 245.814 554.531 246.014 555.371 246.014L557.023 245.889L557.065 246.756C556.197 246.887 555.549 246.953 555.119 246.953C554.027 246.953 553.271 246.673 552.851 246.112C552.441 245.552 552.235 244.61 552.235 243.284C552.235 241.95 552.459 241.016 552.907 240.484C553.355 239.943 554.102 239.672 555.147 239.672ZM562.253 240.722H560.027V244.068C560.027 244.871 560.083 245.398 560.195 245.65C560.316 245.902 560.596 246.028 561.035 246.028L562.281 245.944L562.351 246.812C561.726 246.915 561.25 246.967 560.923 246.967C560.195 246.967 559.691 246.789 559.411 246.434C559.131 246.08 558.991 245.403 558.991 244.404V240.722H557.997V239.812H558.991V237.67H560.027V239.812H562.253V240.722ZM567.903 239.812H568.953V246.812H567.903V246.322C567.203 246.743 566.513 246.953 565.831 246.953C564.879 246.953 564.245 246.705 563.927 246.21C563.619 245.716 563.465 244.801 563.465 243.466V239.812H564.515V243.452C564.515 244.47 564.604 245.151 564.781 245.496C564.959 245.842 565.36 246.014 565.985 246.014C566.293 246.014 566.606 245.972 566.923 245.889C567.241 245.795 567.483 245.706 567.651 245.622L567.903 245.496V239.812ZM570.973 246.812V239.812H572.009V240.764C572.821 240.204 573.675 239.836 574.571 239.658V240.722C574.179 240.797 573.768 240.914 573.339 241.072C572.919 241.231 572.597 241.371 572.373 241.492L572.023 241.674V246.812H570.973ZM580.436 245.944L580.842 245.902L580.87 246.728C579.806 246.878 578.896 246.953 578.14 246.953C577.132 246.953 576.418 246.663 575.998 246.084C575.578 245.496 575.368 244.586 575.368 243.354C575.368 240.9 576.343 239.672 578.294 239.672C579.237 239.672 579.941 239.938 580.408 240.47C580.875 240.993 581.108 241.819 581.108 242.948L581.052 243.746H576.432C576.432 244.521 576.572 245.095 576.852 245.468C577.132 245.842 577.617 246.028 578.308 246.028C579.008 246.028 579.717 246 580.436 245.944ZM580.058 242.906C580.058 242.048 579.918 241.441 579.638 241.086C579.367 240.732 578.919 240.554 578.294 240.554C577.678 240.554 577.211 240.741 576.894 241.114C576.586 241.488 576.427 242.085 576.418 242.906H580.058Z" fill="black"/>
<path d="M484.479 175.907C483.079 175.907 482.379 176.434 482.379 177.489C482.379 178.077 482.538 178.483 482.855 178.707C483.182 178.922 483.835 179.141 484.815 179.365C485.805 179.58 486.505 179.864 486.915 180.219C487.326 180.564 487.531 181.138 487.531 181.941C487.531 183.929 486.5 184.923 484.437 184.923C483.756 184.923 482.902 184.844 481.875 184.685L481.371 184.615L481.483 183.719C482.753 183.887 483.719 183.971 484.381 183.971C485.763 183.971 486.453 183.322 486.453 182.025C486.453 181.502 486.299 181.129 485.991 180.905C485.693 180.672 485.128 180.476 484.297 180.317C483.205 180.084 482.431 179.785 481.973 179.421C481.516 179.048 481.287 178.427 481.287 177.559C481.287 175.823 482.328 174.955 484.409 174.955C485.091 174.955 485.907 175.025 486.859 175.165L487.335 175.235L487.237 176.145C485.94 175.986 485.021 175.907 484.479 175.907ZM493.971 183.929L494.377 183.887L494.405 184.713C493.341 184.862 492.431 184.937 491.675 184.937C490.667 184.937 489.953 184.648 489.533 184.069C489.113 183.481 488.903 182.571 488.903 181.339C488.903 178.884 489.878 177.657 491.829 177.657C492.772 177.657 493.476 177.923 493.943 178.455C494.41 178.978 494.643 179.804 494.643 180.933L494.587 181.731H489.967C489.967 182.506 490.107 183.08 490.387 183.453C490.667 183.826 491.152 184.013 491.843 184.013C492.543 184.013 493.252 183.985 493.971 183.929ZM493.593 180.891C493.593 180.032 493.453 179.426 493.173 179.071C492.902 178.716 492.454 178.539 491.829 178.539C491.213 178.539 490.746 178.726 490.429 179.099C490.121 179.472 489.962 180.07 489.953 180.891H493.593ZM501.221 179.911V183.495C501.249 183.84 501.52 184.046 502.033 184.111L501.991 184.937C501.254 184.937 500.699 184.75 500.325 184.377C499.485 184.75 498.645 184.937 497.805 184.937C497.161 184.937 496.671 184.755 496.335 184.391C495.999 184.027 495.831 183.504 495.831 182.823C495.831 182.142 496.004 181.642 496.349 181.325C496.695 180.998 497.236 180.798 497.973 180.723L500.171 180.513V179.911C500.171 179.435 500.069 179.094 499.863 178.889C499.658 178.684 499.378 178.581 499.023 178.581C498.277 178.581 497.502 178.628 496.699 178.721L496.265 178.763L496.223 177.965C497.25 177.76 498.16 177.657 498.953 177.657C499.747 177.657 500.321 177.839 500.675 178.203C501.039 178.567 501.221 179.136 501.221 179.911ZM496.909 182.767C496.909 183.626 497.264 184.055 497.973 184.055C498.608 184.055 499.233 183.948 499.849 183.733L500.171 183.621V181.311L498.099 181.507C497.679 181.544 497.376 181.666 497.189 181.871C497.003 182.076 496.909 182.375 496.909 182.767ZM504.343 184.797H503.293V177.797H504.329V178.287C505.029 177.867 505.71 177.657 506.373 177.657C507.241 177.657 507.848 177.895 508.193 178.371C508.501 178.184 508.898 178.021 509.383 177.881C509.878 177.732 510.312 177.657 510.685 177.657C511.618 177.657 512.244 177.909 512.561 178.413C512.888 178.908 513.051 179.804 513.051 181.101V184.797H512.001V181.129C512.001 180.158 511.908 179.496 511.721 179.141C511.534 178.777 511.138 178.595 510.531 178.595C510.223 178.595 509.906 178.642 509.579 178.735C509.252 178.819 509 178.903 508.823 178.987L508.557 179.113C508.678 179.421 508.739 180.102 508.739 181.157V184.797H507.689V181.185C507.689 180.177 507.596 179.496 507.409 179.141C507.232 178.777 506.835 178.595 506.219 178.595C505.92 178.595 505.612 178.642 505.295 178.735C504.987 178.819 504.749 178.903 504.581 178.987L504.343 179.113V184.797ZM515.08 184.797V174.745H516.13V184.797H515.08ZM522.997 183.929L523.403 183.887L523.431 184.713C522.367 184.862 521.457 184.937 520.701 184.937C519.693 184.937 518.979 184.648 518.559 184.069C518.139 183.481 517.929 182.571 517.929 181.339C517.929 178.884 518.904 177.657 520.855 177.657C521.797 177.657 522.502 177.923 522.969 178.455C523.435 178.978 523.669 179.804 523.669 180.933L523.613 181.731H518.993C518.993 182.506 519.133 183.08 519.413 183.453C519.693 183.826 520.178 184.013 520.869 184.013C521.569 184.013 522.278 183.985 522.997 183.929ZM522.619 180.891C522.619 180.032 522.479 179.426 522.199 179.071C521.928 178.716 521.48 178.539 520.855 178.539C520.239 178.539 519.772 178.726 519.455 179.099C519.147 179.472 518.988 180.07 518.979 180.891H522.619ZM527.503 178.595C526.486 178.595 525.977 178.95 525.977 179.659C525.977 179.986 526.094 180.219 526.327 180.359C526.56 180.49 527.092 180.63 527.923 180.779C528.754 180.919 529.342 181.12 529.687 181.381C530.032 181.642 530.205 182.132 530.205 182.851C530.205 183.57 529.972 184.097 529.505 184.433C529.048 184.769 528.376 184.937 527.489 184.937C526.91 184.937 526.229 184.872 525.445 184.741L525.025 184.671L525.081 183.761C526.145 183.92 526.948 183.999 527.489 183.999C528.03 183.999 528.441 183.915 528.721 183.747C529.01 183.57 529.155 183.28 529.155 182.879C529.155 182.468 529.034 182.193 528.791 182.053C528.548 181.904 528.016 181.764 527.195 181.633C526.374 181.502 525.79 181.311 525.445 181.059C525.1 180.807 524.927 180.34 524.927 179.659C524.927 178.978 525.165 178.474 525.641 178.147C526.126 177.82 526.728 177.657 527.447 177.657C528.016 177.657 528.73 177.722 529.589 177.853L529.981 177.923L529.953 178.819C528.917 178.67 528.1 178.595 527.503 178.595ZM534.011 178.595C532.993 178.595 532.485 178.95 532.485 179.659C532.485 179.986 532.601 180.219 532.835 180.359C533.068 180.49 533.6 180.63 534.431 180.779C535.261 180.919 535.849 181.12 536.195 181.381C536.54 181.642 536.713 182.132 536.713 182.851C536.713 183.57 536.479 184.097 536.013 184.433C535.555 184.769 534.883 184.937 533.997 184.937C533.418 184.937 532.737 184.872 531.953 184.741L531.533 184.671L531.589 183.761C532.653 183.92 533.455 183.999 533.997 183.999C534.538 183.999 534.949 183.915 535.229 183.747C535.518 183.57 535.663 183.28 535.663 182.879C535.663 182.468 535.541 182.193 535.299 182.053C535.056 181.904 534.524 181.764 533.703 181.633C532.881 181.502 532.298 181.311 531.953 181.059C531.607 180.807 531.435 180.34 531.435 179.659C531.435 178.978 531.673 178.474 532.149 178.147C532.634 177.82 533.236 177.657 533.955 177.657C534.524 177.657 535.238 177.722 536.097 177.853L536.489 177.923L536.461 178.819C535.425 178.67 534.608 178.595 534.011 178.595ZM544.253 175.907C542.853 175.907 542.153 176.434 542.153 177.489C542.153 178.077 542.311 178.483 542.629 178.707C542.955 178.922 543.609 179.141 544.589 179.365C545.578 179.58 546.278 179.864 546.689 180.219C547.099 180.564 547.305 181.138 547.305 181.941C547.305 183.929 546.273 184.923 544.211 184.923C543.529 184.923 542.675 184.844 541.649 184.685L541.145 184.615L541.257 183.719C542.526 183.887 543.492 183.971 544.155 183.971C545.536 183.971 546.227 183.322 546.227 182.025C546.227 181.502 546.073 181.129 545.765 180.905C545.466 180.672 544.901 180.476 544.071 180.317C542.979 180.084 542.204 179.785 541.747 179.421C541.289 179.048 541.061 178.427 541.061 177.559C541.061 175.823 542.101 174.955 544.183 174.955C544.864 174.955 545.681 175.025 546.633 175.165L547.109 175.235L547.011 176.145C545.713 175.986 544.794 175.907 544.253 175.907ZM551.603 177.657C551.911 177.657 552.433 177.713 553.171 177.825L553.507 177.867L553.465 178.721C552.718 178.637 552.167 178.595 551.813 178.595C551.019 178.595 550.478 178.786 550.189 179.169C549.909 179.542 549.769 180.242 549.769 181.269C549.769 182.286 549.899 182.996 550.161 183.397C550.431 183.798 550.987 183.999 551.827 183.999L553.479 183.873L553.521 184.741C552.653 184.872 552.004 184.937 551.575 184.937C550.483 184.937 549.727 184.657 549.307 184.097C548.896 183.537 548.691 182.594 548.691 181.269C548.691 179.934 548.915 179.001 549.363 178.469C549.811 177.928 550.557 177.657 551.603 177.657ZM560.024 179.911V183.495C560.052 183.84 560.323 184.046 560.836 184.111L560.794 184.937C560.057 184.937 559.502 184.75 559.128 184.377C558.288 184.75 557.448 184.937 556.608 184.937C555.964 184.937 555.474 184.755 555.138 184.391C554.802 184.027 554.634 183.504 554.634 182.823C554.634 182.142 554.807 181.642 555.152 181.325C555.498 180.998 556.039 180.798 556.776 180.723L558.974 180.513V179.911C558.974 179.435 558.872 179.094 558.666 178.889C558.461 178.684 558.181 178.581 557.826 178.581C557.08 178.581 556.305 178.628 555.502 178.721L555.068 178.763L555.026 177.965C556.053 177.76 556.963 177.657 557.756 177.657C558.55 177.657 559.124 177.839 559.478 178.203C559.842 178.567 560.024 179.136 560.024 179.911ZM555.712 182.767C555.712 183.626 556.067 184.055 556.776 184.055C557.411 184.055 558.036 183.948 558.652 183.733L558.974 183.621V181.311L556.902 181.507C556.482 181.544 556.179 181.666 555.992 181.871C555.806 182.076 555.712 182.375 555.712 182.767ZM562.18 184.797V174.745H563.23V184.797H562.18ZM565.336 184.797V177.797H566.386V184.797H565.336ZM565.336 176.215V174.997H566.386V176.215H565.336ZM569.449 184.797H568.399V177.797H569.435V178.287C570.191 177.867 570.914 177.657 571.605 177.657C572.538 177.657 573.163 177.909 573.481 178.413C573.807 178.917 573.971 179.813 573.971 181.101V184.797H572.935V181.129C572.935 180.158 572.837 179.496 572.641 179.141C572.454 178.777 572.048 178.595 571.423 178.595C571.124 178.595 570.807 178.642 570.471 178.735C570.144 178.819 569.892 178.903 569.715 178.987L569.449 179.113V184.797ZM578.62 188.087C577.5 188.087 576.716 187.933 576.268 187.625C575.829 187.326 575.61 186.776 575.61 185.973C575.61 185.59 575.694 185.278 575.862 185.035C576.03 184.802 576.315 184.536 576.716 184.237C576.455 184.06 576.324 183.738 576.324 183.271C576.324 183.112 576.441 182.818 576.674 182.389L576.8 182.165C576.063 181.829 575.694 181.124 575.694 180.051C575.694 178.455 576.567 177.657 578.312 177.657C578.76 177.657 579.175 177.704 579.558 177.797L579.768 177.839L581.84 177.783V178.679L580.51 178.651C580.818 178.959 580.972 179.426 580.972 180.051C580.972 180.928 580.753 181.544 580.314 181.899C579.885 182.244 579.203 182.417 578.27 182.417C578.018 182.417 577.789 182.398 577.584 182.361C577.416 182.772 577.332 183.038 577.332 183.159C577.332 183.448 577.421 183.63 577.598 183.705C577.775 183.77 578.312 183.803 579.208 183.803C580.104 183.803 580.748 183.943 581.14 184.223C581.532 184.503 581.728 185.049 581.728 185.861C581.728 187.345 580.692 188.087 578.62 188.087ZM576.646 185.889C576.646 186.384 576.781 186.724 577.052 186.911C577.332 187.107 577.841 187.205 578.578 187.205C579.325 187.205 579.857 187.102 580.174 186.897C580.501 186.692 580.664 186.346 580.664 185.861C580.664 185.385 580.547 185.077 580.314 184.937C580.081 184.797 579.623 184.727 578.942 184.727L577.43 184.657C577.122 184.881 576.912 185.077 576.8 185.245C576.697 185.413 576.646 185.628 576.646 185.889ZM576.744 180.051C576.744 180.602 576.865 180.994 577.108 181.227C577.36 181.46 577.771 181.577 578.34 181.577C578.909 181.577 579.315 181.46 579.558 181.227C579.801 180.994 579.922 180.602 579.922 180.051C579.922 179.491 579.801 179.094 579.558 178.861C579.315 178.628 578.909 178.511 578.34 178.511C577.771 178.511 577.36 178.632 577.108 178.875C576.865 179.108 576.744 179.5 576.744 180.051Z" fill="black"/>
<path d="M416.37 119.118V122.828H415.292V113.14H418.876C419.902 113.14 420.672 113.378 421.186 113.854C421.708 114.33 421.97 115.072 421.97 116.08C421.97 117.573 421.377 118.511 420.192 118.894L422.054 122.828H420.864L419.114 119.118H416.37ZM418.89 118.166C420.206 118.166 420.864 117.489 420.864 116.136C420.864 114.773 420.201 114.092 418.876 114.092H416.37V118.166H418.89ZM428.679 117.942V121.526C428.707 121.871 428.977 122.077 429.491 122.142L429.449 122.968C428.711 122.968 428.156 122.781 427.783 122.408C426.943 122.781 426.103 122.968 425.263 122.968C424.619 122.968 424.129 122.786 423.793 122.422C423.457 122.058 423.289 121.535 423.289 120.854C423.289 120.173 423.461 119.673 423.807 119.356C424.152 119.029 424.693 118.829 425.431 118.754L427.629 118.544V117.942C427.629 117.466 427.526 117.125 427.321 116.92C427.115 116.715 426.835 116.612 426.481 116.612C425.734 116.612 424.959 116.659 424.157 116.752L423.723 116.794L423.681 115.996C424.707 115.791 425.617 115.688 426.411 115.688C427.204 115.688 427.778 115.87 428.133 116.234C428.497 116.598 428.679 117.167 428.679 117.942ZM424.367 120.798C424.367 121.657 424.721 122.086 425.431 122.086C426.065 122.086 426.691 121.979 427.307 121.764L427.629 121.652V119.342L425.557 119.538C425.137 119.575 424.833 119.697 424.647 119.902C424.46 120.107 424.367 120.406 424.367 120.798ZM430.75 125.936V115.828H431.786V116.332C432.496 115.903 433.196 115.688 433.886 115.688C434.773 115.688 435.417 115.973 435.818 116.542C436.22 117.102 436.42 118.031 436.42 119.328C436.42 120.625 436.182 121.559 435.706 122.128C435.24 122.688 434.46 122.968 433.368 122.968C432.799 122.968 432.276 122.917 431.8 122.814V125.936H430.75ZM433.732 116.626C433.452 116.626 433.149 116.673 432.822 116.766C432.505 116.859 432.253 116.953 432.066 117.046L431.8 117.186V121.904C432.463 122.007 432.967 122.058 433.312 122.058C434.068 122.058 434.596 121.843 434.894 121.414C435.202 120.985 435.356 120.285 435.356 119.314C435.356 118.343 435.216 117.653 434.936 117.242C434.666 116.831 434.264 116.626 433.732 116.626ZM438.133 122.828V115.828H439.183V122.828H438.133ZM438.133 114.246V113.028H439.183V114.246H438.133ZM446.572 112.776V122.828H445.536V122.352C444.817 122.763 444.108 122.968 443.408 122.968C443.034 122.968 442.708 122.921 442.428 122.828C442.148 122.735 441.886 122.567 441.644 122.324C441.14 121.82 440.888 120.891 440.888 119.538C440.888 118.175 441.112 117.195 441.56 116.598C442.017 115.991 442.768 115.688 443.814 115.688C444.355 115.688 444.929 115.749 445.536 115.87V112.776H446.572ZM442.456 121.568C442.605 121.745 442.764 121.867 442.932 121.932C443.1 121.997 443.314 122.03 443.576 122.03C443.846 122.03 444.145 121.988 444.472 121.904C444.808 121.811 445.069 121.722 445.256 121.638L445.536 121.512V116.766C444.938 116.654 444.383 116.598 443.87 116.598C443.16 116.598 442.666 116.827 442.386 117.284C442.106 117.732 441.966 118.432 441.966 119.384C441.966 120.467 442.129 121.195 442.456 121.568ZM451.864 122.828V113.14H457.758V114.092H452.942V117.438H456.918V118.376H452.942V121.876H457.758V122.828H451.864ZM458.72 115.828H459.868L461.576 118.572L463.284 115.828H464.432L462.206 119.3L464.418 122.828H463.27L461.576 120.098L459.868 122.828H458.72L460.918 119.328L458.72 115.828ZM465.75 125.936V115.828H466.786V116.332C467.496 115.903 468.196 115.688 468.886 115.688C469.773 115.688 470.417 115.973 470.818 116.542C471.22 117.102 471.42 118.031 471.42 119.328C471.42 120.625 471.182 121.559 470.706 122.128C470.24 122.688 469.46 122.968 468.368 122.968C467.799 122.968 467.276 122.917 466.8 122.814V125.936H465.75ZM468.732 116.626C468.452 116.626 468.149 116.673 467.822 116.766C467.505 116.859 467.253 116.953 467.066 117.046L466.8 117.186V121.904C467.463 122.007 467.967 122.058 468.312 122.058C469.068 122.058 469.596 121.843 469.894 121.414C470.202 120.985 470.356 120.285 470.356 119.314C470.356 118.343 470.216 117.653 469.936 117.242C469.666 116.831 469.264 116.626 468.732 116.626ZM478.075 117.942V121.526C478.103 121.871 478.374 122.077 478.887 122.142L478.845 122.968C478.108 122.968 477.552 122.781 477.179 122.408C476.339 122.781 475.499 122.968 474.659 122.968C474.015 122.968 473.525 122.786 473.189 122.422C472.853 122.058 472.685 121.535 472.685 120.854C472.685 120.173 472.858 119.673 473.203 119.356C473.548 119.029 474.09 118.829 474.827 118.754L477.025 118.544V117.942C477.025 117.466 476.922 117.125 476.717 116.92C476.512 116.715 476.232 116.612 475.877 116.612C475.13 116.612 474.356 116.659 473.553 116.752L473.119 116.794L473.077 115.996C474.104 115.791 475.014 115.688 475.807 115.688C476.6 115.688 477.174 115.87 477.529 116.234C477.893 116.598 478.075 117.167 478.075 117.942ZM473.763 120.798C473.763 121.657 474.118 122.086 474.827 122.086C475.462 122.086 476.087 121.979 476.703 121.764L477.025 121.652V119.342L474.953 119.538C474.533 119.575 474.23 119.697 474.043 119.902C473.856 120.107 473.763 120.406 473.763 120.798ZM481.197 122.828H480.147V115.828H481.183V116.318C481.939 115.898 482.662 115.688 483.353 115.688C484.286 115.688 484.911 115.94 485.229 116.444C485.555 116.948 485.719 117.844 485.719 119.132V122.828H484.683V119.16C484.683 118.189 484.585 117.527 484.389 117.172C484.202 116.808 483.796 116.626 483.171 116.626C482.872 116.626 482.555 116.673 482.219 116.766C481.892 116.85 481.64 116.934 481.463 117.018L481.197 117.144V122.828ZM489.864 116.626C488.847 116.626 488.338 116.981 488.338 117.69C488.338 118.017 488.455 118.25 488.688 118.39C488.922 118.521 489.454 118.661 490.284 118.81C491.115 118.95 491.703 119.151 492.048 119.412C492.394 119.673 492.566 120.163 492.566 120.882C492.566 121.601 492.333 122.128 491.866 122.464C491.409 122.8 490.737 122.968 489.85 122.968C489.272 122.968 488.59 122.903 487.806 122.772L487.386 122.702L487.442 121.792C488.506 121.951 489.309 122.03 489.85 122.03C490.392 122.03 490.802 121.946 491.082 121.778C491.372 121.601 491.516 121.311 491.516 120.91C491.516 120.499 491.395 120.224 491.152 120.084C490.91 119.935 490.378 119.795 489.556 119.664C488.735 119.533 488.152 119.342 487.806 119.09C487.461 118.838 487.288 118.371 487.288 117.69C487.288 117.009 487.526 116.505 488.002 116.178C488.488 115.851 489.09 115.688 489.808 115.688C490.378 115.688 491.092 115.753 491.95 115.884L492.342 115.954L492.314 116.85C491.278 116.701 490.462 116.626 489.864 116.626ZM494.174 122.828V115.828H495.224V122.828H494.174ZM494.174 114.246V113.028H495.224V114.246H494.174ZM496.929 119.314C496.929 118.035 497.157 117.111 497.615 116.542C498.072 115.973 498.842 115.688 499.925 115.688C501.017 115.688 501.787 115.973 502.235 116.542C502.692 117.111 502.921 118.035 502.921 119.314C502.921 120.593 502.706 121.521 502.277 122.1C501.847 122.679 501.063 122.968 499.925 122.968C498.786 122.968 498.002 122.679 497.573 122.1C497.143 121.521 496.929 120.593 496.929 119.314ZM498.007 119.3C498.007 120.317 498.128 121.031 498.371 121.442C498.623 121.853 499.141 122.058 499.925 122.058C500.718 122.058 501.236 121.857 501.479 121.456C501.721 121.045 501.843 120.327 501.843 119.3C501.843 118.273 501.707 117.569 501.437 117.186C501.166 116.794 500.662 116.598 499.925 116.598C499.197 116.598 498.693 116.794 498.413 117.186C498.142 117.569 498.007 118.273 498.007 119.3ZM505.683 122.828H504.633V115.828H505.669V116.318C506.425 115.898 507.148 115.688 507.839 115.688C508.772 115.688 509.398 115.94 509.715 116.444C510.042 116.948 510.205 117.844 510.205 119.132V122.828H509.169V119.16C509.169 118.189 509.071 117.527 508.875 117.172C508.688 116.808 508.282 116.626 507.657 116.626C507.358 116.626 507.041 116.673 506.705 116.766C506.378 116.85 506.126 116.934 505.949 117.018L505.683 117.144V122.828ZM521.263 122.674C520.301 122.87 519.438 122.968 518.673 122.968C517.907 122.968 517.287 122.865 516.811 122.66C516.344 122.445 515.98 122.119 515.719 121.68C515.467 121.232 515.289 120.723 515.187 120.154C515.093 119.575 515.047 118.857 515.047 117.998C515.047 117.139 515.093 116.421 515.187 115.842C515.289 115.254 515.467 114.736 515.719 114.288C515.98 113.84 516.344 113.513 516.811 113.308C517.277 113.103 517.884 113 518.631 113C519.377 113 520.255 113.103 521.263 113.308L521.221 114.218C520.278 114.05 519.438 113.966 518.701 113.966C517.674 113.966 516.993 114.274 516.657 114.89C516.33 115.497 516.167 116.537 516.167 118.012C516.167 118.749 516.195 119.342 516.251 119.79C516.316 120.238 516.437 120.644 516.615 121.008C516.792 121.363 517.049 121.619 517.385 121.778C517.73 121.927 518.229 122.002 518.883 122.002C519.545 122.002 520.325 121.918 521.221 121.75L521.263 122.674ZM527.786 117.942V121.526C527.814 121.871 528.085 122.077 528.598 122.142L528.556 122.968C527.819 122.968 527.263 122.781 526.89 122.408C526.05 122.781 525.21 122.968 524.37 122.968C523.726 122.968 523.236 122.786 522.9 122.422C522.564 122.058 522.396 121.535 522.396 120.854C522.396 120.173 522.569 119.673 522.914 119.356C523.259 119.029 523.801 118.829 524.538 118.754L526.736 118.544V117.942C526.736 117.466 526.633 117.125 526.428 116.92C526.223 116.715 525.943 116.612 525.588 116.612C524.841 116.612 524.067 116.659 523.264 116.752L522.83 116.794L522.788 115.996C523.815 115.791 524.725 115.688 525.518 115.688C526.311 115.688 526.885 115.87 527.24 116.234C527.604 116.598 527.786 117.167 527.786 117.942ZM523.474 120.798C523.474 121.657 523.829 122.086 524.538 122.086C525.173 122.086 525.798 121.979 526.414 121.764L526.736 121.652V119.342L524.664 119.538C524.244 119.575 523.941 119.697 523.754 119.902C523.567 120.107 523.474 120.406 523.474 120.798ZM529.858 125.936V115.828H530.894V116.332C531.603 115.903 532.303 115.688 532.994 115.688C533.88 115.688 534.524 115.973 534.926 116.542C535.327 117.102 535.528 118.031 535.528 119.328C535.528 120.625 535.29 121.559 534.814 122.128C534.347 122.688 533.568 122.968 532.476 122.968C531.906 122.968 531.384 122.917 530.908 122.814V125.936H529.858ZM532.84 116.626C532.56 116.626 532.256 116.673 531.93 116.766C531.612 116.859 531.36 116.953 531.174 117.046L530.908 117.186V121.904C531.57 122.007 532.074 122.058 532.42 122.058C533.176 122.058 533.703 121.843 534.002 121.414C534.31 120.985 534.464 120.285 534.464 119.314C534.464 118.343 534.324 117.653 534.044 117.242C533.773 116.831 533.372 116.626 532.84 116.626ZM542.182 117.942V121.526C542.21 121.871 542.481 122.077 542.994 122.142L542.952 122.968C542.215 122.968 541.66 122.781 541.286 122.408C540.446 122.781 539.606 122.968 538.766 122.968C538.122 122.968 537.632 122.786 537.296 122.422C536.96 122.058 536.792 121.535 536.792 120.854C536.792 120.173 536.965 119.673 537.31 119.356C537.656 119.029 538.197 118.829 538.934 118.754L541.132 118.544V117.942C541.132 117.466 541.03 117.125 540.824 116.92C540.619 116.715 540.339 116.612 539.984 116.612C539.238 116.612 538.463 116.659 537.66 116.752L537.226 116.794L537.184 115.996C538.211 115.791 539.121 115.688 539.914 115.688C540.708 115.688 541.282 115.87 541.636 116.234C542 116.598 542.182 117.167 542.182 117.942ZM537.87 120.798C537.87 121.657 538.225 122.086 538.934 122.086C539.569 122.086 540.194 121.979 540.81 121.764L541.132 121.652V119.342L539.06 119.538C538.64 119.575 538.337 119.697 538.15 119.902C537.964 120.107 537.87 120.406 537.87 120.798ZM547.348 115.688C548.291 115.688 548.949 115.959 549.322 116.5C549.705 117.032 549.896 117.97 549.896 119.314C549.896 120.658 549.658 121.605 549.182 122.156C548.715 122.697 547.852 122.968 546.592 122.968C546.2 122.968 545.551 122.931 544.646 122.856L544.254 122.814V112.776H545.29V116.178C545.999 115.851 546.685 115.688 547.348 115.688ZM546.578 122.03C547.493 122.03 548.095 121.825 548.384 121.414C548.683 120.994 548.832 120.289 548.832 119.3C548.832 118.311 548.715 117.62 548.482 117.228C548.249 116.827 547.833 116.626 547.236 116.626C546.695 116.626 546.139 116.729 545.57 116.934L545.29 117.032V121.96C545.897 122.007 546.326 122.03 546.578 122.03ZM551.623 122.828V115.828H552.673V122.828H551.623ZM551.623 114.246V113.028H552.673V114.246H551.623ZM554.77 122.828V112.776H555.82V122.828H554.77ZM557.926 122.828V115.828H558.976V122.828H557.926ZM557.926 114.246V113.028H558.976V114.246H557.926ZM564.614 116.738H562.388V120.084C562.388 120.887 562.444 121.414 562.556 121.666C562.678 121.918 562.958 122.044 563.396 122.044L564.642 121.96L564.712 122.828C564.087 122.931 563.611 122.982 563.284 122.982C562.556 122.982 562.052 122.805 561.772 122.45C561.492 122.095 561.352 121.419 561.352 120.42V116.738H560.358V115.828H561.352V113.686H562.388V115.828H564.614V116.738ZM565.897 122.828V115.828H566.947V122.828H565.897ZM565.897 114.246V113.028H566.947V114.246H565.897ZM573.719 121.96L574.125 121.918L574.153 122.744C573.089 122.893 572.179 122.968 571.423 122.968C570.415 122.968 569.701 122.679 569.281 122.1C568.861 121.512 568.651 120.602 568.651 119.37C568.651 116.915 569.627 115.688 571.577 115.688C572.52 115.688 573.225 115.954 573.691 116.486C574.158 117.009 574.391 117.835 574.391 118.964L574.335 119.762H569.715C569.715 120.537 569.855 121.111 570.135 121.484C570.415 121.857 570.901 122.044 571.591 122.044C572.291 122.044 573.001 122.016 573.719 121.96ZM573.341 118.922C573.341 118.063 573.201 117.457 572.921 117.102C572.651 116.747 572.203 116.57 571.577 116.57C570.961 116.57 570.495 116.757 570.177 117.13C569.869 117.503 569.711 118.101 569.701 118.922H573.341ZM578.226 116.626C577.208 116.626 576.7 116.981 576.7 117.69C576.7 118.017 576.816 118.25 577.05 118.39C577.283 118.521 577.815 118.661 578.646 118.81C579.476 118.95 580.064 119.151 580.41 119.412C580.755 119.673 580.928 120.163 580.928 120.882C580.928 121.601 580.694 122.128 580.228 122.464C579.77 122.8 579.098 122.968 578.212 122.968C577.633 122.968 576.952 122.903 576.168 122.772L575.748 122.702L575.804 121.792C576.868 121.951 577.67 122.03 578.212 122.03C578.753 122.03 579.164 121.946 579.444 121.778C579.733 121.601 579.878 121.311 579.878 120.91C579.878 120.499 579.756 120.224 579.514 120.084C579.271 119.935 578.739 119.795 577.918 119.664C577.096 119.533 576.513 119.342 576.168 119.09C575.822 118.838 575.65 118.371 575.65 117.69C575.65 117.009 575.888 116.505 576.364 116.178C576.849 115.851 577.451 115.688 578.17 115.688C578.739 115.688 579.453 115.753 580.312 115.884L580.704 115.954L580.676 116.85C579.64 116.701 578.823 116.626 578.226 116.626Z" fill="black"/>
<path d="M434.006 56.0261C434.006 57.4448 434.192 58.4668 434.566 59.0921C434.939 59.7081 435.658 60.0161 436.722 60.0161C437.795 60.0161 438.514 59.7128 438.878 59.1061C439.251 58.4995 439.438 57.4821 439.438 56.0541C439.438 54.6261 439.246 53.5855 438.864 52.9321C438.481 52.2788 437.762 51.9521 436.708 51.9521C435.662 51.9521 434.948 52.2788 434.566 52.9321C434.192 53.5761 434.006 54.6075 434.006 56.0261ZM440.558 56.0541C440.558 57.7808 440.282 59.0315 439.732 59.8061C439.181 60.5808 438.178 60.9681 436.722 60.9681C435.275 60.9681 434.276 60.5715 433.726 59.7781C433.175 58.9848 432.9 57.7388 432.9 56.0401C432.9 54.3321 433.18 53.0675 433.74 52.2461C434.3 51.4155 435.294 51.0001 436.722 51.0001C438.15 51.0001 439.144 51.4108 439.704 52.2321C440.273 53.0535 440.558 54.3275 440.558 56.0541ZM442.352 63.9361V53.8281H443.388V54.3321C444.097 53.9028 444.797 53.6881 445.488 53.6881C446.374 53.6881 447.018 53.9728 447.42 54.5421C447.821 55.1021 448.022 56.0308 448.022 57.3281C448.022 58.6255 447.784 59.5588 447.308 60.1281C446.841 60.6881 446.062 60.9681 444.97 60.9681C444.4 60.9681 443.878 60.9168 443.402 60.8141V63.9361H442.352ZM445.334 54.6261C445.054 54.6261 444.75 54.6728 444.424 54.7661C444.106 54.8595 443.854 54.9528 443.668 55.0461L443.402 55.1861V59.9041C444.064 60.0068 444.568 60.0581 444.914 60.0581C445.67 60.0581 446.197 59.8435 446.496 59.4141C446.804 58.9848 446.958 58.2848 446.958 57.3141C446.958 56.3435 446.818 55.6528 446.538 55.2421C446.267 54.8315 445.866 54.6261 445.334 54.6261ZM453.32 54.7381H451.094V58.0841C451.094 58.8868 451.15 59.4141 451.262 59.6661C451.383 59.9181 451.663 60.0441 452.102 60.0441L453.348 59.9601L453.418 60.8281C452.792 60.9308 452.316 60.9821 451.99 60.9821C451.262 60.9821 450.758 60.8048 450.478 60.4501C450.198 60.0955 450.058 59.4188 450.058 58.4201V54.7381H449.064V53.8281H450.058V51.6861H451.094V53.8281H453.32V54.7381ZM454.602 60.8281V53.8281H455.652V60.8281H454.602ZM454.602 52.2461V51.0281H455.652V52.2461H454.602ZM458.714 60.8281H457.664V53.8281H458.7V54.3181C459.4 53.8981 460.082 53.6881 460.744 53.6881C461.612 53.6881 462.219 53.9261 462.564 54.4021C462.872 54.2155 463.269 54.0521 463.754 53.9121C464.249 53.7628 464.683 53.6881 465.056 53.6881C465.99 53.6881 466.615 53.9401 466.932 54.4441C467.259 54.9388 467.422 55.8348 467.422 57.1321V60.8281H466.372V57.1601C466.372 56.1895 466.279 55.5268 466.092 55.1721C465.906 54.8081 465.509 54.6261 464.902 54.6261C464.594 54.6261 464.277 54.6728 463.95 54.7661C463.624 54.8501 463.372 54.9341 463.194 55.0181L462.928 55.1441C463.05 55.4521 463.11 56.1335 463.11 57.1881V60.8281H462.06V57.2161C462.06 56.2081 461.967 55.5268 461.78 55.1721C461.603 54.8081 461.206 54.6261 460.59 54.6261C460.292 54.6261 459.984 54.6728 459.666 54.7661C459.358 54.8501 459.12 54.9341 458.952 55.0181L458.714 55.1441V60.8281ZM469.367 60.8281V53.8281H470.417V60.8281H469.367ZM469.367 52.2461V51.0281H470.417V52.2461H469.367ZM472.01 54.7661V53.8281H477.204V54.7661L473.284 59.8901H477.204V60.8281H472.01V59.8901L475.93 54.7661H472.01ZM483.52 59.9601L483.926 59.9181L483.954 60.7441C482.89 60.8935 481.98 60.9681 481.224 60.9681C480.216 60.9681 479.502 60.6788 479.082 60.1001C478.662 59.5121 478.452 58.6021 478.452 57.3701C478.452 54.9155 479.427 53.6881 481.378 53.6881C482.321 53.6881 483.025 53.9541 483.492 54.4861C483.959 55.0088 484.192 55.8348 484.192 56.9641L484.136 57.7621H479.516C479.516 58.5368 479.656 59.1108 479.936 59.4841C480.216 59.8575 480.701 60.0441 481.392 60.0441C482.092 60.0441 482.801 60.0161 483.52 59.9601ZM483.142 56.9221C483.142 56.0635 483.002 55.4568 482.722 55.1021C482.451 54.7475 482.003 54.5701 481.378 54.5701C480.762 54.5701 480.295 54.7568 479.978 55.1301C479.67 55.5035 479.511 56.1008 479.502 56.9221H483.142ZM491.204 50.7761V60.8281H490.168V60.3521C489.45 60.7628 488.74 60.9681 488.04 60.9681C487.667 60.9681 487.34 60.9215 487.06 60.8281C486.78 60.7348 486.519 60.5668 486.276 60.3241C485.772 59.8201 485.52 58.8915 485.52 57.5381C485.52 56.1755 485.744 55.1955 486.192 54.5981C486.65 53.9915 487.401 53.6881 488.446 53.6881C488.988 53.6881 489.562 53.7488 490.168 53.8701V50.7761H491.204ZM487.088 59.5681C487.238 59.7455 487.396 59.8668 487.564 59.9321C487.732 59.9975 487.947 60.0301 488.208 60.0301C488.479 60.0301 488.778 59.9881 489.104 59.9041C489.44 59.8108 489.702 59.7221 489.888 59.6381L490.168 59.5121V54.7661C489.571 54.6541 489.016 54.5981 488.502 54.5981C487.793 54.5981 487.298 54.8268 487.018 55.2841C486.738 55.7321 486.598 56.4321 486.598 57.3841C486.598 58.4668 486.762 59.1948 487.088 59.5681ZM502.349 60.6741C501.387 60.8701 500.524 60.9681 499.759 60.9681C498.993 60.9681 498.373 60.8655 497.897 60.6601C497.43 60.4455 497.066 60.1188 496.805 59.6801C496.553 59.2321 496.375 58.7235 496.273 58.1541C496.179 57.5755 496.133 56.8568 496.133 55.9981C496.133 55.1395 496.179 54.4208 496.273 53.8421C496.375 53.2541 496.553 52.7361 496.805 52.2881C497.066 51.8401 497.43 51.5135 497.897 51.3081C498.363 51.1028 498.97 51.0001 499.717 51.0001C500.463 51.0001 501.341 51.1028 502.349 51.3081L502.307 52.2181C501.364 52.0501 500.524 51.9661 499.787 51.9661C498.76 51.9661 498.079 52.2741 497.743 52.8901C497.416 53.4968 497.253 54.5375 497.253 56.0121C497.253 56.7495 497.281 57.3421 497.337 57.7901C497.402 58.2381 497.523 58.6441 497.701 59.0081C497.878 59.3628 498.135 59.6195 498.471 59.7781C498.816 59.9275 499.315 60.0021 499.969 60.0021C500.631 60.0021 501.411 59.9181 502.307 59.7501L502.349 60.6741ZM503.485 57.3141C503.485 56.0355 503.714 55.1115 504.171 54.5421C504.628 53.9728 505.398 53.6881 506.481 53.6881C507.573 53.6881 508.343 53.9728 508.791 54.5421C509.248 55.1115 509.477 56.0355 509.477 57.3141C509.477 58.5928 509.262 59.5215 508.833 60.1001C508.404 60.6788 507.62 60.9681 506.481 60.9681C505.342 60.9681 504.558 60.6788 504.129 60.1001C503.7 59.5215 503.485 58.5928 503.485 57.3141ZM504.563 57.3001C504.563 58.3175 504.684 59.0315 504.927 59.4421C505.179 59.8528 505.697 60.0581 506.481 60.0581C507.274 60.0581 507.792 59.8575 508.035 59.4561C508.278 59.0455 508.399 58.3268 508.399 57.3001C508.399 56.2735 508.264 55.5688 507.993 55.1861C507.722 54.7941 507.218 54.5981 506.481 54.5981C505.753 54.5981 505.249 54.7941 504.969 55.1861C504.698 55.5688 504.563 56.2735 504.563 57.3001ZM513.388 54.6261C512.37 54.6261 511.862 54.9808 511.862 55.6901C511.862 56.0168 511.978 56.2501 512.212 56.3901C512.445 56.5208 512.977 56.6608 513.808 56.8101C514.638 56.9501 515.226 57.1508 515.572 57.4121C515.917 57.6735 516.09 58.1635 516.09 58.8821C516.09 59.6008 515.856 60.1281 515.39 60.4641C514.932 60.8001 514.26 60.9681 513.374 60.9681C512.795 60.9681 512.114 60.9028 511.33 60.7721L510.91 60.7021L510.966 59.7921C512.03 59.9508 512.832 60.0301 513.374 60.0301C513.915 60.0301 514.326 59.9461 514.606 59.7781C514.895 59.6008 515.04 59.3115 515.04 58.9101C515.04 58.4995 514.918 58.2241 514.676 58.0841C514.433 57.9348 513.901 57.7948 513.08 57.6641C512.258 57.5335 511.675 57.3421 511.33 57.0901C510.984 56.8381 510.812 56.3715 510.812 55.6901C510.812 55.0088 511.05 54.5048 511.526 54.1781C512.011 53.8515 512.613 53.6881 513.332 53.6881C513.901 53.6881 514.615 53.7535 515.474 53.8841L515.866 53.9541L515.838 54.8501C514.802 54.7008 513.985 54.6261 513.388 54.6261ZM521.323 54.7381H519.097V58.0841C519.097 58.8868 519.153 59.4141 519.265 59.6661C519.387 59.9181 519.667 60.0441 520.105 60.0441L521.351 59.9601L521.421 60.8281C520.796 60.9308 520.32 60.9821 519.993 60.9821C519.265 60.9821 518.761 60.8048 518.481 60.4501C518.201 60.0955 518.061 59.4188 518.061 58.4201V54.7381H517.067V53.8281H518.061V51.6861H519.097V53.8281H521.323V54.7381ZM525.864 60.8281V51.1401H531.758V52.0921H526.942V55.4381H530.918V56.3761H526.942V59.8761H531.758V60.8281H525.864ZM534.723 54.7381V60.8281H533.673V54.7381H532.791V53.8281H533.673V53.1981C533.673 52.2088 533.813 51.5368 534.093 51.1821C534.373 50.8181 534.863 50.6361 535.563 50.6361L536.977 50.7341L536.963 51.6021C536.44 51.5835 536.006 51.5741 535.661 51.5741C535.325 51.5741 535.082 51.6861 534.933 51.9101C534.793 52.1341 534.723 52.5681 534.723 53.2121V53.8281H536.753V54.7381H534.723ZM539.358 54.7381V60.8281H538.308V54.7381H537.426V53.8281H538.308V53.1981C538.308 52.2088 538.448 51.5368 538.728 51.1821C539.008 50.8181 539.498 50.6361 540.198 50.6361L541.612 50.7341L541.598 51.6021C541.075 51.5835 540.641 51.5741 540.296 51.5741C539.96 51.5741 539.717 51.6861 539.568 51.9101C539.428 52.1341 539.358 52.5681 539.358 53.2121V53.8281H541.388V54.7381H539.358ZM542.649 60.8281V53.8281H543.699V60.8281H542.649ZM542.649 52.2461V51.0281H543.699V52.2461H542.649ZM548.329 53.6881C548.637 53.6881 549.16 53.7441 549.897 53.8561L550.233 53.8981L550.191 54.7521C549.444 54.6681 548.894 54.6261 548.539 54.6261C547.746 54.6261 547.204 54.8175 546.915 55.2001C546.635 55.5735 546.495 56.2735 546.495 57.3001C546.495 58.3175 546.626 59.0268 546.887 59.4281C547.158 59.8295 547.713 60.0301 548.553 60.0301L550.205 59.9041L550.247 60.7721C549.379 60.9028 548.73 60.9681 548.301 60.9681C547.209 60.9681 546.453 60.6881 546.033 60.1281C545.622 59.5681 545.417 58.6255 545.417 57.3001C545.417 55.9655 545.641 55.0321 546.089 54.5001C546.537 53.9588 547.284 53.6881 548.329 53.6881ZM551.809 60.8281V53.8281H552.859V60.8281H551.809ZM551.809 52.2461V51.0281H552.859V52.2461H551.809ZM559.631 59.9601L560.037 59.9181L560.065 60.7441C559.001 60.8935 558.091 60.9681 557.335 60.9681C556.327 60.9681 555.613 60.6788 555.193 60.1001C554.773 59.5121 554.563 58.6021 554.563 57.3701C554.563 54.9155 555.539 53.6881 557.489 53.6881C558.432 53.6881 559.137 53.9541 559.603 54.4861C560.07 55.0088 560.303 55.8348 560.303 56.9641L560.247 57.7621H555.627C555.627 58.5368 555.767 59.1108 556.047 59.4841C556.327 59.8575 556.813 60.0441 557.503 60.0441C558.203 60.0441 558.913 60.0161 559.631 59.9601ZM559.253 56.9221C559.253 56.0635 559.113 55.4568 558.833 55.1021C558.563 54.7475 558.115 54.5701 557.489 54.5701C556.873 54.5701 556.407 54.7568 556.089 55.1301C555.781 55.5035 555.623 56.1008 555.613 56.9221H559.253ZM562.99 60.8281H561.94V53.8281H562.976V54.3181C563.732 53.8981 564.455 53.6881 565.146 53.6881C566.079 53.6881 566.704 53.9401 567.022 54.4441C567.348 54.9481 567.512 55.8441 567.512 57.1321V60.8281H566.476V57.1601C566.476 56.1895 566.378 55.5268 566.182 55.1721C565.995 54.8081 565.589 54.6261 564.964 54.6261C564.665 54.6261 564.348 54.6728 564.012 54.7661C563.685 54.8501 563.433 54.9341 563.256 55.0181L562.99 55.1441V60.8281ZM572.077 53.6881C572.385 53.6881 572.908 53.7441 573.645 53.8561L573.981 53.8981L573.939 54.7521C573.193 54.6681 572.642 54.6261 572.287 54.6261C571.494 54.6261 570.953 54.8175 570.663 55.2001C570.383 55.5735 570.243 56.2735 570.243 57.3001C570.243 58.3175 570.374 59.0268 570.635 59.4281C570.906 59.8295 571.461 60.0301 572.301 60.0301L573.953 59.9041L573.995 60.7721C573.127 60.9028 572.479 60.9681 572.049 60.9681C570.957 60.9681 570.201 60.6881 569.781 60.1281C569.371 59.5681 569.165 58.6255 569.165 57.3001C569.165 55.9655 569.389 55.0321 569.837 54.5001C570.285 53.9588 571.032 53.6881 572.077 53.6881ZM574.899 53.8281H575.949L577.699 59.9181H578.161L579.925 53.8281H580.975L578.063 63.9361H577.013L577.923 60.8281H576.887L574.899 53.8281Z" fill="black"/>
<defs>
<linearGradient id="paint0_linear_3861_46269" x1="632.164" y1="349.76" x2="632.164" y2="651.787" gradientUnits="userSpaceOnUse">
<stop stop-color="#FFB216"/>
<stop offset="1" stop-color="#FFF0D0"/>
</linearGradient>
</defs>
</svg>
