<svg width="12" height="11" viewBox="0 0 12 11" fill="none" xmlns="http://www.w3.org/2000/svg">
<path d="M-2.18555e-07 5.49996C-2.3062e-07 5.77596 0.224 5.99996 0.5 5.99996L10.4747 5.99996L6.65525 9.63796C6.552 9.73621 6.5 9.86796 6.5 9.99996C6.5 10.1237 6.54575 10.248 6.638 10.3447C6.8285 10.5447 7.145 10.5525 7.345 10.362L11.707 6.20721C11.8957 6.01821 12 5.76721 12 5.49996C12 5.23271 11.8957 4.98171 11.6982 4.78446L7.34475 0.637962C7.14475 0.447462 6.82825 0.455212 6.63775 0.655212C6.44725 0.855212 6.455 1.17196 6.655 1.36221L10.4905 4.99996L0.5 4.99996C0.224 4.99996 -2.06491e-07 5.22396 -2.18555e-07 5.49996Z" fill="#FFB216"/>
</svg>
