<svg width="36" height="36" viewBox="0 0 36 36" fill="none" xmlns="http://www.w3.org/2000/svg">
<g clip-path="url(#clip0_5_365)">
<path d="M11.8616 10.2935C7.79335 10.2935 4.49536 13.5914 4.49536 17.6597C4.49536 21.7279 7.79335 25.0259 11.8616 25.0259C15.9298 25.0259 19.2278 21.7279 19.2278 17.6597C19.2278 13.5914 15.9298 10.2935 11.8616 10.2935ZM17.3131 14.8973H14.6583C14.4044 13.6251 14.0079 12.5969 13.603 11.8035C15.2252 12.2876 16.5569 13.4125 17.3131 14.8973ZM13.7031 17.6597C13.7031 18.2077 13.6621 18.7111 13.6057 19.1943H10.1177C10.0611 18.7111 10.0199 18.2076 10.0199 17.6597C10.0199 17.1114 10.0604 16.6081 10.1165 16.125H13.6069C13.6627 16.6081 13.7031 17.1115 13.7031 17.6597ZM11.6829 11.5391C11.7435 11.5373 11.8004 11.5212 11.8616 11.5212C11.9233 11.5212 11.9805 11.5377 12.042 11.5394C12.5027 12.2462 13.0629 13.3642 13.4021 14.8973H10.3212C10.662 13.3589 11.2243 12.2414 11.6829 11.5391ZM10.1201 11.8035C9.71669 12.5952 9.31984 13.6246 9.0657 14.8973H6.41004C7.1663 13.4125 8.49797 12.2879 10.1201 11.8035ZM5.72306 17.6597C5.72306 17.1267 5.81268 16.6184 5.94098 16.125H8.87925C8.82799 16.6112 8.79231 17.1169 8.79231 17.6597C8.79231 18.2028 8.82891 18.7078 8.88101 19.1943H5.94098C5.81268 18.7009 5.72306 18.1926 5.72306 17.6597ZM6.41004 20.422H9.0687C9.32529 21.697 9.72237 22.7341 10.1184 23.5152C8.49705 23.0308 7.16599 21.9063 6.41004 20.422ZM12.0399 23.7802C11.9793 23.782 11.9227 23.7982 11.8616 23.7982C11.8004 23.7982 11.7438 23.782 11.6829 23.7802C11.243 23.1034 10.6698 21.9829 10.3228 20.422H13.4005C13.0539 21.9819 12.4814 23.1019 12.0399 23.7802ZM13.6054 23.5152C14.0019 22.7334 14.3988 21.6971 14.6547 20.422H17.3131C16.5571 21.9061 15.2263 23.0306 13.6054 23.5152ZM14.8424 19.1943C14.8943 18.7078 14.9308 18.2028 14.9308 17.6597C14.9308 17.1169 14.8954 16.6112 14.8442 16.125H17.7821C17.9104 16.6184 18.0001 17.1268 18.0001 17.6597C18.0001 18.1926 17.9104 18.7009 17.7821 19.1943H14.8424Z" fill="#FFB216"/>
<path d="M17.9999 28.709H5.7229V29.9367H17.9999V28.709Z" fill="#FFB216"/>
<path d="M26.5468 19.8656L25.9111 22.2373L27.097 22.5552L27.7327 20.1835L26.5468 19.8656Z" fill="#FFB216"/>
<path d="M25.2756 24.6071L23.0515 32.9077L24.2373 33.2254L26.4614 24.9248L25.2756 24.6071Z" fill="#FFB216"/>
<path d="M33.3673 3.89733L19.137 0.0842509C18.9241 0.0272396 18.7104 0 18.5 0C17.4159 7.67313e-05 16.4238 0.723576 16.1298 1.82053L14.8464 6.61055H2.03996C1.36196 6.61055 0.812256 7.16018 0.812256 7.83825V32.3923C0.812256 33.0703 1.36196 33.62 2.03996 33.62H16.22L24.7881 35.9157C25.0009 35.9728 25.2146 36 25.425 36C26.5092 36 27.5012 35.2764 27.7953 34.1795L35.1036 6.90451C35.4546 5.59471 34.6771 4.2483 33.3673 3.89733ZM2.03996 32.3923V7.83825H20.4555C21.1325 7.83825 21.6832 8.38903 21.6832 9.06595V31.1646C21.6832 31.8415 21.1325 32.3923 20.4555 32.3923H2.03996ZM33.9179 6.58676L26.6095 33.8617C26.4657 34.3979 25.9786 34.7724 25.425 34.7724C25.3183 34.7724 25.211 34.7581 25.1058 34.7299L20.8247 33.5827C22.004 33.4036 22.9108 32.3942 22.9108 31.1646V21.4317L23.5396 21.6002L24.1753 19.2285L22.9893 18.9107L22.9108 19.2041V9.44784C23.2935 9.55043 23.7353 9.66883 24.1636 9.78362L25.6156 14.5304L26.6319 14.8028L26.5357 10.4192C27.2032 10.5981 27.8848 10.7807 28.3314 10.9004L29.1206 12.292L29.7983 12.4736L29.6817 10.5359L30.7515 8.91602L30.0738 8.73447L28.6947 9.54514C28.2478 9.42551 27.5665 9.24289 26.8987 9.06396L29.174 5.31594L28.1576 5.04355L24.5269 8.42847C23.8129 8.23718 23.0339 8.02831 22.6119 7.91537C22.1983 7.14237 21.393 6.61063 20.4554 6.61063H16.1171L17.3154 2.13842C17.4593 1.6023 17.9463 1.22785 18.5 1.22778C18.6066 1.22778 18.714 1.24205 18.8192 1.27029L33.0495 5.08337C33.3663 5.16823 33.631 5.37142 33.795 5.6554C33.959 5.93931 34.0027 6.27009 33.9179 6.58676Z" fill="#FFB216"/>
<path d="M26.2274 16.6208L25.9133 17.8076L27.08 18.1163L27.394 16.9295L26.2274 16.6208Z" fill="#FFB216"/>
<path d="M28.5574 17.2395L28.2434 18.4263L29.41 18.735L29.7241 17.5482L28.5574 17.2395Z" fill="#FFB216"/>
<path d="M23.8973 16.0032L23.5833 17.1899L24.7499 17.4986L25.0639 16.3119L23.8973 16.0032Z" fill="#FFB216"/>
</g>
<defs>
<clipPath id="clip0_5_365">
<rect width="36" height="36" fill="white"/>
</clipPath>
</defs>
</svg>
