<svg width="64" height="64" viewBox="0 0 64 64" fill="none" xmlns="http://www.w3.org/2000/svg">
<path d="M39.8814 19.4357H24.3412C21.5477 19.4357 19.2749 21.7084 19.2749 24.5019V39.4982C19.2749 42.2917 21.5477 44.5644 24.3412 44.5644H39.8814C42.6749 44.5644 44.9477 42.2917 44.9477 39.4982V24.5019C44.9477 21.7084 42.6749 19.4357 39.8814 19.4357ZM43.0277 39.4982C43.0277 41.233 41.6163 42.6444 39.8814 42.6444H24.3412C22.6063 42.6444 21.1949 41.233 21.1949 39.4982V24.5019C21.1949 22.767 22.6063 21.3557 24.3412 21.3557H39.8814C41.6163 21.3557 43.0277 22.767 43.0277 24.5019V39.4982Z" fill="#FFB216"/>
<path d="M25.2883 12.3441V15.9836C25.2883 16.5138 25.718 16.9436 26.2483 16.9436C26.7786 16.9436 27.2083 16.5138 27.2083 15.9836V12.3441C28.917 11.9144 30.1859 10.3655 30.1859 8.52534C30.1859 6.35408 28.4196 4.58765 26.2483 4.58765C24.077 4.58765 22.3105 6.35408 22.3105 8.52534C22.3106 10.3655 23.5796 11.9144 25.2883 12.3441ZM26.2483 6.50765C27.3608 6.50765 28.2659 7.41277 28.2659 8.52534C28.2659 9.63783 27.3608 10.543 26.2483 10.543C25.1357 10.543 24.2305 9.63783 24.2305 8.52534C24.2306 7.41277 25.1357 6.50765 26.2483 6.50765Z" fill="#FFB216"/>
<path d="M36.5693 12.3441V15.9836C36.5693 16.5138 36.9991 16.9436 37.5293 16.9436C38.0596 16.9436 38.4893 16.5138 38.4893 15.9836V12.3441C40.198 11.9144 41.4669 10.3655 41.4669 8.52534C41.4669 6.35408 39.7006 4.58765 37.5293 4.58765C35.3581 4.58765 33.5916 6.35408 33.5916 8.52534C33.5916 10.3655 34.8606 11.9144 36.5693 12.3441ZM37.5293 6.50765C38.6418 6.50765 39.5469 7.41277 39.5469 8.52534C39.5469 9.63783 38.6418 10.543 37.5293 10.543C36.4167 10.543 35.5116 9.63783 35.5116 8.52534C35.5116 7.41277 36.4167 6.50765 37.5293 6.50765Z" fill="#FFB216"/>
<path d="M38.7116 51.6559V48.0164C38.7116 47.4862 38.2818 47.0564 37.7516 47.0564C37.2213 47.0564 36.7916 47.4862 36.7916 48.0164V51.6559C35.0829 52.0856 33.814 53.6345 33.814 55.4747C33.814 57.6459 35.5803 59.4123 37.7516 59.4123C39.9228 59.4123 41.6893 57.6459 41.6893 55.4747C41.6893 53.6345 40.4203 52.0856 38.7116 51.6559ZM37.7516 57.4923C36.6391 57.4923 35.734 56.5872 35.734 55.4747C35.734 54.3622 36.6391 53.457 37.7516 53.457C38.8642 53.457 39.7693 54.3622 39.7693 55.4747C39.7693 56.5872 38.8642 57.4923 37.7516 57.4923Z" fill="#FFB216"/>
<path d="M27.4308 51.6559V48.0164C27.4308 47.4862 27.0011 47.0564 26.4708 47.0564C25.9406 47.0564 25.5108 47.4862 25.5108 48.0164V51.6559C23.8021 52.0856 22.5332 53.6345 22.5332 55.4747C22.5332 57.6459 24.2996 59.4123 26.4708 59.4123C28.6421 59.4123 30.4086 57.6459 30.4086 55.4747C30.4086 53.6345 29.1396 52.0856 27.4308 51.6559ZM26.4708 57.4923C25.3583 57.4923 24.4532 56.5872 24.4532 55.4747C24.4532 54.3622 25.3583 53.457 26.4708 53.457C27.5835 53.457 28.4886 54.3622 28.4886 55.4747C28.4886 56.5872 27.5835 57.4923 26.4708 57.4923Z" fill="#FFB216"/>
<path d="M48.0164 27.2083H51.6559C52.0856 28.917 53.6346 30.186 55.4748 30.186C57.646 30.186 59.4124 28.4195 59.4124 26.2483C59.4124 24.0771 57.646 22.3107 55.4748 22.3107C53.6347 22.3107 52.0857 23.5796 51.6559 25.2883H48.0164C47.4861 25.2883 47.0564 25.7181 47.0564 26.2483C47.0564 26.7785 47.4862 27.2083 48.0164 27.2083ZM55.4748 24.2307C56.5873 24.2307 57.4924 25.1358 57.4924 26.2483C57.4924 27.3609 56.5873 28.266 55.4748 28.266C54.3622 28.266 53.457 27.3609 53.457 26.2483C53.457 25.1358 54.3622 24.2307 55.4748 24.2307Z" fill="#FFB216"/>
<path d="M55.4748 33.5916C53.6346 33.5916 52.0857 34.8605 51.6559 36.5692H48.0164C47.4861 36.5692 47.0564 36.9991 47.0564 37.5292C47.0564 38.0594 47.4861 38.4892 48.0164 38.4892H51.6559C52.0856 40.1979 53.6346 41.4669 55.4748 41.4669C57.646 41.4669 59.4124 39.7005 59.4124 37.5292C59.4124 35.358 57.646 33.5916 55.4748 33.5916ZM55.4748 39.5469C54.3622 39.5469 53.457 38.6418 53.457 37.5292C53.457 36.4167 54.3622 35.5116 55.4748 35.5116C56.5873 35.5116 57.4924 36.4167 57.4924 37.5292C57.4924 38.6418 56.5873 39.5469 55.4748 39.5469Z" fill="#FFB216"/>
<path d="M15.9837 36.7918H12.3442C11.9144 35.0831 10.3655 33.8141 8.52527 33.8141C6.35402 33.8141 4.58765 35.5805 4.58765 37.7518C4.58765 39.923 6.35402 41.6894 8.52527 41.6894C10.3654 41.6894 11.9144 40.4204 12.3442 38.7118H15.9837C16.5139 38.7118 16.9437 38.282 16.9437 37.7518C16.9437 37.2216 16.5139 36.7918 15.9837 36.7918ZM8.52527 39.7694C7.41277 39.7694 6.50765 38.8643 6.50765 37.7518C6.50765 36.6392 7.41277 35.7341 8.52527 35.7341C9.6379 35.7341 10.543 36.6392 10.543 37.7518C10.543 38.8643 9.6379 39.7694 8.52527 39.7694Z" fill="#FFB216"/>
<path d="M15.9837 25.5109H12.3442C11.9144 23.8022 10.3655 22.5332 8.52527 22.5332C6.35402 22.5332 4.58765 24.2996 4.58765 26.4709C4.58765 28.6421 6.35402 30.4086 8.52527 30.4086C10.3655 30.4086 11.9144 29.1396 12.3442 27.4309H15.9837C16.5139 27.4309 16.9437 27.0011 16.9437 26.4709C16.9437 25.9407 16.5139 25.5109 15.9837 25.5109ZM8.52527 28.4886C7.41277 28.4886 6.50765 27.5835 6.50765 26.4709C6.50765 25.3583 7.41277 24.4532 8.52527 24.4532C9.6379 24.4532 10.543 25.3583 10.543 26.4709C10.543 27.5835 9.6379 28.4886 8.52527 28.4886Z" fill="#FFB216"/>
</svg>
