<svg width="96" height="96" viewBox="0 0 96 96" fill="none" xmlns="http://www.w3.org/2000/svg">
<rect width="96" height="96" rx="48" fill="#F2F6F9"/>
<path d="M37.6478 64C36.858 63.9983 36.083 63.7862 35.4024 63.3855C34.7495 63.0121 34.2071 62.4725 33.8302 61.8216C33.4533 61.1707 33.2555 60.4316 33.2567 59.6795V36.3209C33.2555 35.5687 33.4533 34.8297 33.8302 34.1788C34.2071 33.5278 34.7495 32.9883 35.4024 32.6149C36.0725 32.2182 36.8358 32.0061 37.6145 32.0001C38.3933 31.9942 39.1597 32.1946 39.8358 32.581L60.5397 44.2617C61.2074 44.6316 61.7639 45.1735 62.1514 45.8312C62.5389 46.4888 62.7433 47.2382 62.7433 48.0016C62.7433 48.7649 62.5389 49.5143 62.1514 50.172C61.7639 50.8296 61.2074 51.3716 60.5397 51.7414L39.8358 63.4222C39.1684 63.8 38.4147 63.9991 37.6478 64ZM37.6478 33.8853C37.1919 33.8859 36.7445 34.0084 36.3519 34.2401C35.9841 34.449 35.678 34.7515 35.465 35.117C35.2519 35.4825 35.1394 35.8978 35.1389 36.3209V59.6823C35.1394 60.1053 35.2519 60.5207 35.465 60.8862C35.678 61.2516 35.9841 61.5542 36.3519 61.763C36.7389 61.9919 37.1796 62.1143 37.6292 62.1178C38.0787 62.1213 38.5212 62.0057 38.9117 61.7828L59.6155 50.1021C59.993 49.8963 60.3081 49.5927 60.5276 49.2231C60.7471 48.8534 60.8629 48.4315 60.8629 48.0016C60.8629 47.5717 60.7471 47.1497 60.5276 46.7801C60.3081 46.4105 59.993 46.1068 59.6155 45.9011L38.9117 34.2204C38.5262 34.0018 38.0909 33.8864 37.6478 33.8853Z" fill="#FFB216"/>
</svg>
