<svg width="36" height="36" viewBox="0 0 36 36" fill="none" xmlns="http://www.w3.org/2000/svg">
<path d="M7.87501 11.384C8.569 11.384 9.2474 11.1782 9.82441 10.7926C10.4014 10.407 10.8512 9.85899 11.1167 9.21782C11.3823 8.57665 11.4517 7.87113 11.3163 7.19048C11.1809 6.50983 10.8467 5.88461 10.356 5.3939C9.86526 4.90318 9.24003 4.56901 8.55937 4.43362C7.87871 4.29824 7.1732 4.36774 6.53204 4.63333C5.89088 4.89891 5.34287 5.34866 4.95731 5.92569C4.57176 6.50272 4.36597 7.18113 4.36597 7.87512C4.367 8.80544 4.73704 9.69736 5.39489 10.3552C6.05275 11.013 6.94468 11.383 7.87501 11.384ZM7.87501 5.49121C8.3465 5.49124 8.80739 5.63108 9.1994 5.89304C9.59141 6.155 9.89694 6.52733 10.0774 6.96293C10.2578 7.39854 10.3049 7.87786 10.2129 8.34028C10.121 8.8027 9.8939 9.22746 9.56049 9.56084C9.22709 9.89422 8.80232 10.1213 8.33989 10.2132C7.87747 10.3052 7.39815 10.258 6.96256 10.0775C6.52696 9.89711 6.15466 9.59156 5.89272 9.19953C5.63078 8.8075 5.49097 8.3466 5.49097 7.87512C5.4917 7.24307 5.74312 6.63712 6.19006 6.19021C6.637 5.74329 7.24296 5.49191 7.87501 5.49121Z" fill="#FFB216"/>
<path d="M7.875 3.72327C8.02418 3.72327 8.16726 3.66401 8.27275 3.55852C8.37824 3.45303 8.4375 3.30996 8.4375 3.16077V1.6875C8.4375 1.53832 8.37824 1.39524 8.27275 1.28975C8.16726 1.18426 8.02418 1.125 7.875 1.125C7.72582 1.125 7.58274 1.18426 7.47725 1.28975C7.37176 1.39524 7.3125 1.53832 7.3125 1.6875V3.16077C7.3125 3.30996 7.37176 3.45303 7.47725 3.55852C7.58274 3.66401 7.72582 3.72327 7.875 3.72327Z" fill="#FFB216"/>
<path d="M11.2084 5.10419C11.2823 5.10427 11.3554 5.08976 11.4237 5.0615C11.4919 5.03324 11.5539 4.99179 11.6061 4.93951L12.6479 3.89788C12.7534 3.7924 12.8127 3.64933 12.8127 3.50013C12.8128 3.35094 12.7535 3.20785 12.648 3.10233C12.5426 2.99682 12.3995 2.93753 12.2503 2.9375C12.1011 2.93747 11.958 2.99672 11.8525 3.10219L10.8107 4.14397C10.7321 4.22264 10.6785 4.32286 10.6568 4.43196C10.6351 4.54106 10.6462 4.65415 10.6888 4.75692C10.7314 4.8597 10.8035 4.94754 10.8959 5.00936C10.9884 5.07117 11.0972 5.10417 11.2084 5.10419Z" fill="#FFB216"/>
<path d="M12.0266 7.875C12.0266 8.02418 12.0859 8.16726 12.1914 8.27275C12.2969 8.37824 12.4399 8.4375 12.5891 8.4375H14.0624C14.2116 8.4375 14.3546 8.37824 14.4601 8.27275C14.5656 8.16726 14.6249 8.02418 14.6249 7.875C14.6249 7.72582 14.5656 7.58274 14.4601 7.47725C14.3546 7.37176 14.2116 7.3125 14.0624 7.3125H12.5891C12.4399 7.3125 12.2969 7.37176 12.1914 7.47725C12.0859 7.58274 12.0266 7.72582 12.0266 7.875Z" fill="#FFB216"/>
<path d="M10.8108 10.8108C10.7585 10.863 10.7171 10.925 10.6888 10.9932C10.6605 11.0615 10.646 11.1346 10.646 11.2085C10.646 11.2823 10.6605 11.3555 10.6888 11.4237C10.7171 11.492 10.7585 11.554 10.8108 11.6062L11.8526 12.648C11.9581 12.7534 12.1012 12.8127 12.2504 12.8126C12.3996 12.8126 12.5426 12.7533 12.6481 12.6478C12.7536 12.5423 12.8128 12.3992 12.8128 12.25C12.8128 12.1008 12.7535 11.9577 12.648 11.8523L11.6062 10.8106C11.5007 10.7052 11.3576 10.646 11.2085 10.646C11.0593 10.646 10.9163 10.7053 10.8108 10.8108Z" fill="#FFB216"/>
<path d="M7.3125 12.5894V14.0626C7.3125 14.2118 7.37176 14.3549 7.47725 14.4604C7.58274 14.5659 7.72582 14.6251 7.875 14.6251C8.02418 14.6251 8.16726 14.5659 8.27275 14.4604C8.37824 14.3549 8.4375 14.2118 8.4375 14.0626V12.5894C8.4375 12.4402 8.37824 12.2971 8.27275 12.1916C8.16726 12.0861 8.02418 12.0269 7.875 12.0269C7.72582 12.0269 7.58274 12.0861 7.47725 12.1916C7.37176 12.2971 7.3125 12.4402 7.3125 12.5894Z" fill="#FFB216"/>
<path d="M4.93927 10.8107C4.83378 10.7052 4.69073 10.646 4.54157 10.646C4.39241 10.646 4.24935 10.7052 4.14387 10.8107L3.10209 11.8523C2.99657 11.9578 2.93728 12.1009 2.93726 12.2501C2.93723 12.3993 2.99647 12.5424 3.10195 12.6479C3.20743 12.7534 3.3505 12.8127 3.49969 12.8127C3.64888 12.8127 3.79198 12.7535 3.89749 12.648L4.93927 11.6062C4.99154 11.554 5.033 11.492 5.06129 11.4238C5.08958 11.3555 5.10414 11.2824 5.10414 11.2085C5.10414 11.1346 5.08958 11.0614 5.06129 10.9932C5.033 10.9249 4.99154 10.8629 4.93927 10.8107Z" fill="#FFB216"/>
<path d="M3.72327 7.875C3.72327 7.72582 3.66401 7.58274 3.55852 7.47725C3.45303 7.37176 3.30996 7.3125 3.16077 7.3125H1.6875C1.53832 7.3125 1.39524 7.37176 1.28975 7.47725C1.18426 7.58274 1.125 7.72582 1.125 7.875C1.125 8.02418 1.18426 8.16726 1.28975 8.27275C1.39524 8.37824 1.53832 8.4375 1.6875 8.4375H3.16077C3.30996 8.4375 3.45303 8.37824 3.55852 8.27275C3.66401 8.16726 3.72327 8.02418 3.72327 7.875Z" fill="#FFB216"/>
<path d="M4.14387 4.93951C4.24963 5.04371 4.39229 5.10186 4.54076 5.1013C4.68922 5.10074 4.83144 5.04151 4.93641 4.93652C5.04138 4.83153 5.10059 4.6893 5.10113 4.54083C5.10166 4.39237 5.04348 4.24971 4.93927 4.14397L3.89749 3.10219C3.79198 2.99672 3.64888 2.93747 3.49969 2.9375C3.3505 2.93753 3.20743 2.99682 3.10195 3.10233C2.99647 3.20785 2.93723 3.35094 2.93726 3.50013C2.93728 3.64933 2.99657 3.7924 3.10209 3.89788L4.14387 4.93951Z" fill="#FFB216"/>
<path d="M34.8572 26.8588L31.1389 12.5148C31.0447 12.1526 30.8331 11.8319 30.537 11.603C30.241 11.3741 29.8774 11.25 29.5032 11.25H14.6616C14.5124 11.25 14.3693 11.3093 14.2639 11.4148C14.1584 11.5202 14.0991 11.6633 14.0991 11.8125C14.0991 11.9617 14.1584 12.1048 14.2639 12.2102C14.3693 12.3157 14.5124 12.375 14.6616 12.375H18.5625V16.3125H13.6019L13.8916 14.5742C13.9146 14.4277 13.8789 14.278 13.7922 14.1578C13.7055 14.0375 13.5747 13.9563 13.4285 13.9319C13.2822 13.9075 13.1323 13.9419 13.0112 14.0275C12.8901 14.1131 12.8077 14.243 12.782 14.3891L12.4614 16.3125H7.85268L7.8992 16.133C7.91947 16.061 7.92517 15.9856 7.91594 15.9113C7.90672 15.8371 7.88277 15.7654 7.84549 15.7005C7.80822 15.6356 7.75837 15.5788 7.69886 15.5334C7.63935 15.488 7.57138 15.4549 7.49893 15.4361C7.42649 15.4174 7.35102 15.4132 7.27695 15.424C7.20289 15.4347 7.13171 15.4601 7.06759 15.4987C7.00347 15.5373 6.9477 15.5883 6.90355 15.6488C6.8594 15.7092 6.82775 15.7778 6.81045 15.8507L6.58011 16.7389C6.57758 16.749 6.57429 16.7586 6.57232 16.769L3.95568 26.8588C3.9545 26.8633 3.95498 26.868 3.95391 26.8726C3.95267 26.8785 3.94972 26.8842 3.94879 26.8903C3.94084 26.9263 3.93707 26.9631 3.93754 27V29.25C3.93754 29.3992 3.9968 29.5423 4.10229 29.6477C4.20778 29.7532 4.35086 29.8125 4.50004 29.8125H16.3125V31.5H13.2188C13.0696 31.5 12.9265 31.5593 12.821 31.6648C12.7156 31.7702 12.6563 31.9133 12.6563 32.0625V34.3125C12.6563 34.4617 12.7156 34.6048 12.821 34.7102C12.9265 34.8157 13.0696 34.875 13.2188 34.875H25.0313C25.1805 34.875 25.3235 34.8157 25.429 34.7102C25.5345 34.6048 25.5938 34.4617 25.5938 34.3125V32.0625C25.5938 31.9133 25.5345 31.7702 25.429 31.6648C25.3235 31.5593 25.1805 31.5 25.0313 31.5H21.9375V29.8125H34.3125C34.4617 29.8125 34.6048 29.7532 34.7103 29.6477C34.8158 29.5423 34.875 29.3992 34.875 29.25V27C34.875 26.9524 34.869 26.9049 34.8572 26.8588ZM11.914 26.4375L12.5704 22.5H18.5625V26.4375H11.914ZM5.22701 26.4375L6.24812 22.5H11.43L10.7736 26.4375H5.22701ZM19.6875 22.5H26.2423L26.8986 26.4375H19.6875V22.5ZM32.2735 21.375H27.1953L26.539 17.4375H31.2528L32.2735 21.375ZM26.0548 21.375H19.6875V17.4375H25.3986L26.0548 21.375ZM28.039 26.4375L27.3828 22.5H32.565L33.5856 26.4375H28.039ZM30.0501 12.7974L30.9612 16.3125H26.3515L25.6953 12.375H29.5032C29.6282 12.375 29.7497 12.4165 29.8487 12.4929C29.9477 12.5693 30.0185 12.6764 30.0501 12.7974ZM19.6875 12.375H24.5548L25.2111 16.3125H19.6875V12.375ZM18.5625 17.4375V21.375H12.758L13.4144 17.4375H18.5625ZM12.2738 17.4375L11.6175 21.375H6.53983L7.56094 17.4375H12.2738ZM24.4688 33.75H13.7813V32.625H24.4688V33.75ZM20.8125 31.5H17.4375V29.8125H20.8125V31.5ZM5.06254 28.6875V27.5625H33.75V28.6875H5.06254Z" fill="#FFB216"/>
</svg>
