<svg width="64" height="64" viewBox="0 0 64 64" fill="none" xmlns="http://www.w3.org/2000/svg">
<path fill-rule="evenodd" clip-rule="evenodd" d="M13.6802 30.1299C14.7232 30.1299 15.5719 30.9795 15.5719 32.0223C15.5719 33.0651 14.7232 33.914 13.6802 33.914C12.6374 33.914 11.7894 33.0652 11.7894 32.0223C11.7894 30.9793 12.6374 30.1299 13.6802 30.1299ZM25.8751 18.0914C26.9179 18.0914 27.766 18.9402 27.766 19.983C27.766 21.0259 26.918 21.8755 25.8751 21.8755C24.8315 21.8755 23.9835 21.0259 23.9835 19.983C23.9835 18.9402 24.8315 18.0914 25.8751 18.0914ZM38.0843 30.1299C39.1271 30.1299 39.9759 30.9795 39.9759 32.0223C39.9759 33.0651 39.1271 33.914 38.0843 33.914C37.0414 33.914 36.1926 33.0652 36.1926 32.0223C36.1926 30.9793 37.0414 30.1299 38.0843 30.1299ZM50.2776 18.0914C51.3204 18.0914 52.1692 18.9402 52.1692 19.983C52.1692 21.0259 51.3204 21.8755 50.2776 21.8755C49.2348 21.8755 48.3859 21.0259 48.3859 19.983C48.386 18.9402 49.2348 18.0914 50.2776 18.0914ZM13.6802 35.6621C16.5159 35.6621 18.2399 32.5577 16.808 30.1623L23.9751 23.0858C25.1406 23.8029 26.6107 23.8035 27.7759 23.0851L34.955 30.1646C33.5264 32.5656 35.254 35.6621 38.0843 35.6621C40.9113 35.6621 42.647 32.5696 41.2114 30.1623L48.3777 23.0858C50.7853 24.565 53.9167 22.8306 53.9167 19.9829C53.9167 17.9765 52.284 16.3438 50.2776 16.3438C47.4512 16.3438 45.7147 19.4353 47.1506 21.8428L39.9835 28.9193C38.8183 28.2014 37.3472 28.2025 36.1821 28.9201L29.003 21.8405C30.4345 19.4401 28.7053 16.3438 25.8752 16.3438C23.05 16.3438 21.3127 19.4317 22.7474 21.8428L15.5803 28.9193C13.1785 27.4416 10.0413 29.1703 10.0413 32.0222C10.0412 34.0287 11.6738 35.6621 13.6802 35.6621ZM47.4337 53.3536V29.1542H53.169V53.3536H47.4337ZM35.2329 53.3536V40.298H40.9674V53.3537L35.2329 53.3536ZM23.0313 53.3536V31.2694H28.7673V53.3536H23.0313ZM10.8311 53.3536V42.9009H16.5656V53.3536H10.8311ZM18.3138 49.7765H21.2831V53.3536H18.3138V49.7765ZM30.5154 49.7765H33.4846V53.3536H30.5154V49.7765ZM42.7156 49.7765H45.6856V53.3536H42.7156V49.7765ZM7.75537 48.0284H9.08286V42.0273C9.08286 41.5447 9.4748 41.1528 9.95659 41.1528H17.4401C17.9219 41.1528 18.3138 41.5447 18.3138 42.0273V48.0284H21.2831V30.3957C21.2831 29.9116 21.675 29.5212 22.1575 29.5212H29.6411C30.1236 29.5212 30.5156 29.9116 30.5156 30.3957V48.0283H33.4848V39.4234C33.4848 38.9408 33.8759 38.5496 34.3585 38.5496H41.8413C42.3254 38.5496 42.7158 38.9408 42.7158 39.4234V48.0283H45.6857V28.2805C45.6857 27.7979 46.0777 27.4067 46.5602 27.4067H54.043C54.5255 27.4067 54.9175 27.7979 54.9175 28.2805V48.0283H56.2443C57.4903 48.0283 58.5044 47.0149 58.5044 45.7682V12.9065C58.5044 11.6612 57.4903 10.6463 56.2443 10.6463H7.75537C6.51006 10.6463 5.49451 11.6612 5.49451 12.9065V45.7682C5.49451 47.0149 6.51006 48.0284 7.75537 48.0284ZM59.9693 53.3536H54.9172V49.7765H56.2441C58.4536 49.7765 60.2524 47.9785 60.2524 45.7682V12.9065C60.2524 10.6962 58.4536 8.89819 56.2441 8.89819H7.75537C5.54583 8.89819 3.74705 10.6962 3.74705 12.9065V45.7682C3.74705 47.9785 5.54583 49.7765 7.75537 49.7765H9.08286V53.3536H4.03095C3.54839 53.3536 3.15723 53.7448 3.15723 54.2273C3.15723 54.7107 3.54839 55.1018 4.03095 55.1018H59.9691C60.4509 55.1018 60.8429 54.7107 60.8429 54.2273C60.843 53.7448 60.4509 53.3536 59.9693 53.3536Z" fill="#21436E"/>
</svg>
