<svg width="36" height="36" viewBox="0 0 36 36" fill="none" xmlns="http://www.w3.org/2000/svg">
<path d="M23.6294 24.1756V20.248C23.6288 20.1767 23.6145 20.1062 23.5877 20.0403L21.3377 14.4142C21.2165 14.1114 21.0787 13.7814 20.8301 13.4837C20.6185 13.2302 20.3068 12.9927 19.9018 12.9551L20.2215 11.9895C20.4198 11.3942 20.6487 10.9044 21.5266 10.3932L26.6408 7.16429C26.942 6.97423 26.965 6.62047 26.8101 6.38495C26.6564 6.15114 26.327 6.03412 26.042 6.214L20.9521 9.42646C19.8512 10.0671 19.3914 10.9202 19.1536 11.6336L18.7196 12.9355H14.2965L15.0304 10.8767C15.3906 9.86575 16.1109 8.82283 17.0986 8.39098L27.256 4.23535C27.2679 4.2749 27.2769 4.31448 27.2912 4.35402L31.9922 17.3442L27.1132 23.8482C26.8342 24.2185 27.0981 24.7483 27.5615 24.749H30.9375C33.1091 24.749 34.8728 22.9843 34.8728 20.8126V19.6876C34.8728 18.9374 33.7478 18.9374 33.7478 19.6876V20.8126C33.7478 22.3805 32.5053 23.6241 30.9375 23.6241H28.6908L32.9052 18.0001L34.3136 17.999C34.6661 17.9985 34.9312 17.6773 34.8651 17.331L32.179 3.03897C31.9456 1.79803 30.7212 0.9394 29.3522 1.14928C28.1757 1.32956 27.4667 2.16962 27.2428 3.0258L16.6553 7.3566C15.2552 7.96771 14.4049 9.28166 13.9713 10.4987L13.1034 12.9354H12.9408C11.9208 12.9354 11.4625 13.7402 11.2654 14.5241L10.2502 18.5615H2.8136C1.88845 18.5615 1.1239 19.3228 1.1239 20.248V24.1888C1.1239 25.1139 1.88845 25.874 2.8136 25.874H4.4989V27.0452C2.5944 27.3204 1.1228 28.9572 1.1228 30.9365C1.1228 33.1082 2.89197 34.8718 5.0636 34.8718H22.5C24.6717 34.8718 26.4353 33.1082 26.4353 30.9365C26.4353 28.7649 24.6717 26.999 22.5 26.999H21.9386L21.9392 25.874C22.865 25.874 23.6502 25.1154 23.6294 24.1756ZM31.0704 3.24665L33.6335 16.8741L33.0194 16.8752L28.3491 3.97071C28.1 3.28221 28.6052 2.426 29.501 2.27163C30.2674 2.13961 30.9511 2.61177 31.0704 3.24665ZM29.8125 3.37401C29.5018 3.37401 29.25 3.62587 29.25 3.93652C29.25 4.24717 29.5018 4.49896 29.8125 4.49896C30.1232 4.49896 30.375 4.24719 30.375 3.93652C30.375 3.62585 30.1232 3.37401 29.8125 3.37401ZM21.9386 24.749H2.81358C2.49222 24.749 2.24889 24.5101 2.24889 24.1887V20.2479C2.24889 19.9266 2.49222 19.6876 2.81358 19.6876H10.6908C10.9498 19.6881 11.1757 19.5116 11.2379 19.2602L12.3678 14.724C12.4738 14.2986 12.622 14.0615 12.9408 14.0615H19.693C19.8403 14.0615 19.8662 14.0864 19.9665 14.2065C20.0669 14.3266 20.1847 14.5579 20.295 14.8338L22.5033 20.3555V24.1947C22.5097 24.5072 22.2599 24.749 21.9386 24.749ZM14.0658 15.1865C13.8105 15.1865 13.5873 15.3582 13.522 15.605L12.6211 18.9768C12.5232 19.3352 12.7934 19.6884 13.1649 19.6876H15.7522V21.3729C15.7525 21.4841 15.7858 21.5926 15.8478 21.6849L16.9728 23.3746C17.0776 23.5311 17.2536 23.6246 17.4419 23.624H20.818C21.1269 23.6229 21.3771 23.3726 21.3783 23.0637V20.8126C21.3778 20.7369 21.3621 20.6623 21.3322 20.5929L19.2019 15.5304C19.114 15.3218 18.9096 15.1864 18.6834 15.1865H14.0658ZM14.4975 16.3115H15.7522V18.5615H13.8955L14.4975 16.3115ZM16.8772 16.3115H18.3098L20.2533 20.9247V22.499H17.7407L16.8772 21.2027V19.123V16.3115ZM3.9298 20.8038C3.61914 20.808 3.37026 21.0623 3.37389 21.3729V23.0637C3.35667 23.8307 4.51611 23.8307 4.49889 23.0637V21.3729C4.50293 21.0571 4.24561 20.8001 3.9298 20.8038ZM6.1809 20.8038C5.87024 20.808 5.62135 21.0623 5.62499 21.3729V23.0637C5.6084 23.83 6.76654 23.83 6.74999 23.0637V21.3729C6.75405 21.0571 6.49671 20.8001 6.1809 20.8038ZM8.4276 20.8038C8.11823 20.8102 7.87134 21.0635 7.87499 21.3729V23.0637C7.89157 23.797 8.98352 23.797 8.99999 23.0637V21.3729C9.00403 21.0558 8.7447 20.7982 8.4276 20.8038ZM5.62499 25.874H20.8136V26.999H17.9978C17.2471 26.999 17.2471 28.1251 17.9978 28.1251H22.5C24.0678 28.1251 25.3103 29.3686 25.3103 30.9365C25.3103 32.5043 24.0678 33.7468 22.5 33.7468H5.06358C3.49576 33.7468 2.24889 32.5043 2.24889 30.9365C2.24889 29.3686 3.49576 28.1251 5.06358 28.1251H15.7522C16.5029 28.1251 16.5029 26.999 15.7522 26.999H5.62499V25.874ZM6.18969 29.2501C5.26439 29.2501 4.49889 30.0112 4.49889 30.9365C4.49889 31.8618 5.26437 32.6262 6.18969 32.6262C7.11502 32.6262 7.87499 31.8618 7.87499 30.9365C7.87496 30.0112 7.115 29.2501 6.18969 29.2501ZM11.2511 29.2501C10.3258 29.2501 9.56029 30.0112 9.56029 30.9365C9.56029 31.8618 10.3258 32.6262 11.2511 32.6262C12.1764 32.6262 12.9364 31.8618 12.9364 30.9365C12.9364 30.0112 12.1764 29.2501 11.2511 29.2501ZM16.3125 29.2501C15.3872 29.2501 14.6272 30.0112 14.6272 30.9365C14.6272 31.8618 15.3872 32.6262 16.3125 32.6262C17.2378 32.6262 17.9978 31.8618 17.9978 30.9365C17.9978 30.0112 17.2378 29.2501 16.3125 29.2501ZM21.3739 29.2501C20.4486 29.2501 19.6886 30.0112 19.6886 30.9365C19.6886 31.8618 20.4486 32.6262 21.3739 32.6262C22.2992 32.6262 23.0647 31.8618 23.0647 30.9365C23.0647 30.0112 22.2992 29.2501 21.3739 29.2501ZM6.18969 30.3751C6.50701 30.3751 6.74999 30.6192 6.74999 30.9365C6.74999 31.2538 6.50701 31.5012 6.18969 31.5012C5.87236 31.5012 5.62499 31.2538 5.62499 30.9365C5.62499 30.6192 5.87236 30.3751 6.18969 30.3751ZM11.2511 30.3751C11.5684 30.3751 11.8114 30.6192 11.8114 30.9365C11.8114 31.2538 11.5684 31.5012 11.2511 31.5012C10.9338 31.5012 10.6864 31.2538 10.6864 30.9365C10.6864 30.6192 10.9338 30.3751 11.2511 30.3751ZM16.3125 30.3751C16.6298 30.3751 16.8728 30.6192 16.8728 30.9365C16.8728 31.2538 16.6298 31.5012 16.3125 31.5012C15.9952 31.5012 15.7522 31.2538 15.7522 30.9365C15.7522 30.6192 15.9952 30.3751 16.3125 30.3751ZM21.3739 30.3751C21.6912 30.3751 21.9386 30.6192 21.9386 30.9365C21.9386 31.2538 21.6912 31.5012 21.3739 31.5012C21.0566 31.5012 20.8136 31.2538 20.8136 30.9365C20.8136 30.6192 21.0566 30.3751 21.3739 30.3751Z" fill="#FFB216"/>
</svg>
