<svg width="28" height="32" viewBox="0 0 28 32" fill="none" xmlns="http://www.w3.org/2000/svg">
<path d="M14.0393 4C13.5577 4 13.1668 4.448 13.1668 5L13.1668 24.9495L6.81816 17.3105C6.64671 17.104 6.41679 17 6.18644 17C5.97049 17 5.75366 17.0915 5.58482 17.276C5.23581 17.657 5.22228 18.29 5.55472 18.69L12.8051 27.414C13.1349 27.7915 13.5729 28 14.0393 28C14.5057 28 14.9437 27.7915 15.2879 27.3965L22.5239 18.6895C22.8563 18.2895 22.8428 17.6565 22.4938 17.2755C22.1448 16.8945 21.592 16.91 21.26 17.31L14.9118 24.981L14.9119 5C14.9119 4.448 14.521 4 14.0393 4Z" fill="#2F5174"/>
</svg>
