<?xml version="1.0" encoding="utf-8"?>
<!-- Generator: Adobe Illustrator 16.0.0, SVG Export Plug-In . SVG Version: 6.00 Build 0)  -->
<!DOCTYPE svg PUBLIC "-//W3C//DTD SVG 1.1//EN" "http://www.w3.org/Graphics/SVG/1.1/DTD/svg11.dtd">
<svg version="1.1" id="Layer_1" xmlns="http://www.w3.org/2000/svg" xmlns:xlink="http://www.w3.org/1999/xlink" x="0px" y="0px"
	 width="533.521px" height="197.04px" viewBox="0 0 533.521 197.04" enable-background="new 0 0 533.521 197.04"
	 xml:space="preserve">
<g>
	<g>
		<path fill="#626262" d="M280.319,0.24c-0.014,0.399-0.036,0.798-0.036,1.197c-0.002,16.399,0.012,32.798-0.029,49.197
			c-0.003,1.164,0.291,1.436,1.444,1.435c64.717-0.03,129.433-0.035,194.147-0.018c8.669,0.002,17.224,0.964,25.521,3.626
			c9.792,3.142,18.038,8.469,23.893,17.108c4.107,6.063,6.38,12.831,7.543,20.01c0.726,4.469,0.969,8.969,0.965,13.495
			c-0.016,29.078-0.015,58.156,0.019,87.234c0.001,1.188-0.211,1.592-1.521,1.59c-33.918-0.041-67.836,0.01-101.754-0.064
			c-8.019-0.018-15.843-1.368-23.069-5.09c-9.954-5.123-15.998-13.334-18.258-24.199c-2.169-10.426-1.723-20.838,1.42-31.041
			c3.462-11.241,11.139-18.366,22.142-22.125c6.431-2.196,13.07-3.277,19.813-3.885c7.304-0.655,14.621-0.449,21.937-0.465
			c11.719-0.021,23.438-0.006,35.158-0.006c0.422,0,0.844,0,1.463,0c-1.295,2.051-2.479,3.932-3.667,5.809
			c-4.59,7.262-9.192,14.515-13.751,21.795c-0.467,0.746-0.965,0.979-1.82,0.977c-8.438-0.021-16.879-0.048-25.316,0.045
			c-3.274,0.035-6.531,0.463-9.704,1.365c-6.01,1.707-9.152,5.557-9.646,11.805c-0.174,2.197-0.17,4.381,0.194,6.566
			c0.768,4.604,3.367,7.443,7.932,8.516c3.563,0.836,7.186,1.143,10.821,1.15c15.799,0.038,31.598,0.003,47.396,0.045
			c1.138,0.003,1.355-0.336,1.352-1.395c-0.041-8.959,0.182-17.924-0.074-26.877c-0.33-11.506-0.009-23.008-0.214-34.51
			c-0.048-2.713-0.445-5.413-1.288-8.018c-2.064-6.377-6.391-10.129-13.002-11.284c-4.667-0.815-9.374-0.982-14.092-0.983
			c-57.757-0.007-115.514,0.015-173.271-0.049c-3.82-0.004-7.652-0.14-11.479-0.221c-1.038-0.022-1.227,0.313-1.227,1.276
			c0.028,20.878,0.014,41.757,0.047,62.637c0.002,1.114-0.203,1.468-1.405,1.462c-11.719-0.053-23.438-0.046-35.158-0.006
			c-1.082,0.004-1.369-0.256-1.368-1.357c0.03-48.916,0.026-97.832,0.025-146.747C255.04,0.24,267.681,0.24,280.319,0.24z"/>
		<path fill="#626262" d="M225.84,0.24c0.087,0.502-0.301,0.805-0.521,1.161c-6.85,11.123-13.72,22.232-20.552,33.366
			c-0.453,0.738-0.905,1.017-1.78,1.015c-10.518-0.034-21.037-0.022-31.555-0.022c-1.791,0-1.791,0-1.791,1.732
			c0,28.156,0.073,56.313-0.038,84.469c-0.041,10.269-0.63,20.527-3.057,30.574c-1.582,6.545-3.972,12.746-8.377,17.969
			c-6.925,8.211-15.396,14.349-25.248,18.597c-8.316,3.586-17.045,5.582-25.989,6.771c-7.701,1.021-15.442,1.42-23.195,1.346
			c-12.656-0.121-25.208-1.188-37.444-4.727c-11.681-3.377-21.999-9.082-30.824-17.523c-6.749-6.454-10.636-14.352-12.583-23.352
			c-1.535-7.095-2.084-14.297-2.442-21.521c-0.16-0.479-0.044-0.973-0.079-1.456c0-0.626,0-1.251,0-1.876
			c-0.07-0.813,0.147-1.639-0.124-2.439C0.24,83.35,0.246,42.38,0.207,1.41C0.206,0.314,0.533,0.217,1.469,0.219
			C14.659,0.25,27.85,0.24,41.04,0.24c0.487,0.583,0.362,1.288,0.363,1.956c0.008,9.477,0.005,18.955,0.005,28.432
			c0,29.711-0.074,59.422,0.048,89.132c0.033,8.125,0.901,16.209,3.608,23.973c1.989,5.703,4.933,10.73,9.967,14.334
			c3.233,2.314,6.803,3.863,10.596,4.948c4.986,1.426,10.088,1.981,15.259,2.271c6.104,0.344,12.139-0.037,18.138-1.064
			c4.553-0.778,8.945-2.104,13.014-4.373c6.099-3.4,9.975-8.602,12.313-15.072c1.945-5.382,2.885-10.966,3.443-16.635
			c0.447-4.541,0.486-9.094,0.484-13.65c-0.014-37.31-0.009-74.618,0-111.927c0-0.784-0.192-1.617,0.36-2.323
			C161.04,0.24,193.44,0.24,225.84,0.24z"/>
		<path fill="#898989" d="M0.24,124.32c0.486,0.771,0.15,1.612,0.214,2.421c-0.081,0.088-0.152,0.08-0.214-0.021
			C0.24,125.92,0.24,125.12,0.24,124.32z"/>
		<path fill="#B1B1B1" d="M0.24,126.719c0.071,0.008,0.143,0.015,0.214,0.021c-0.001,0.639-0.003,1.275-0.005,1.914
			c-0.077,0.094-0.146,0.09-0.209-0.015C0.24,128,0.24,127.36,0.24,126.719z"/>
		<path fill="#D7D7D7" d="M0.24,128.64c0.069,0.007,0.139,0.012,0.209,0.014c-0.002,0.479-0.005,0.96-0.007,1.438l-0.102,0.002
			l-0.1-0.014C0.24,129.6,0.24,129.12,0.24,128.64z"/>
		<path fill="#626262" d="M186.378,123.601c0-23.358,0.009-46.718-0.028-70.077c-0.002-1.193,0.263-1.518,1.495-1.513
			c12.279,0.052,24.559,0.045,36.838,0.007c1.085-0.003,1.384,0.26,1.383,1.372c-0.031,36.478-0.025,72.957-0.025,109.435
			c0,1.575,0,1.575,1.587,1.575c26.719,0,53.438,0.034,80.156-0.022c7.311-0.016,14.504-0.922,21.291-3.92
			c7.16-3.162,11.342-8.84,13.615-16.121c1.584-5.069,2.24-10.289,2.465-15.576c0.285-6.732-0.015-13.422-1.473-20.023
			c-0.646-2.93-1.525-5.789-2.853-8.488c-0.397-0.809-0.256-1.004,0.631-1.002c13.239,0.019,26.479,0.021,39.718-0.004
			c0.79-0.002,0.992,0.344,1.161,1.014c2.211,8.748,2.885,17.633,2.486,26.627c-0.396,8.947-1.644,17.754-4.719,26.193
			c-7.926,21.748-23.232,35.141-45.854,40.121c-6.308,1.389-12.713,1.889-19.163,1.885c-5.919-0.002-11.84-0.051-17.759,0.01
			c-29.271,0.298-58.544,0.104-87.816,0.089c-7.312-0.005-14.626-0.065-21.94-0.063c-1.223,0-1.212-0.555-1.211-1.438
			c0.014-22.64,0.011-45.277,0.011-67.917C186.378,125.04,186.378,124.32,186.378,123.601z"/>
		<path fill="#F19C00" d="M112.355,126.25c-2.249,6.24-6.292,11.043-11.875,14.531c-15.36,9.596-35.971,2.838-42.603-13.935
			c-0.072-0.183-0.084-0.39-0.124-0.584c0.437-0.47,1.021-0.41,1.571-0.411c17.15-0.012,34.301-0.012,51.452,0
			C111.328,125.853,111.911,125.795,112.355,126.25z"/>
		<path fill="#ED9904" d="M112.355,126.25c-18.2,0.004-36.4,0.008-54.601,0.014c-0.482-1.174-1.026-2.326-1.093-3.624
			c0.449-0.451,1.034-0.38,1.583-0.38c5.999,0.003,11.997-0.041,17.995,0.021c0.483,0.004,0.959-0.006,1.421-0.158
			c1.407-0.199,2.721,0.445,4.13,0.408c3.488-0.098,6.989,0.158,10.455-0.457c0.787,0.109,1.567,0.193,2.371,0.189
			c5.657-0.023,11.314-0.018,16.971-0.012c0.398,0,0.801-0.008,1.188,0.103c0.422,0.119,0.752,0.317,0.534,0.849
			C112.981,124.215,112.95,125.32,112.355,126.25z"/>
		<path fill="#EA9706" d="M77.76,122.4c-0.469,0.294-0.992,0.24-1.508,0.24c-6.53-0.001-13.061-0.001-19.59-0.001
			c-0.324-0.928-0.521-1.879-0.507-2.866c-0.201-1.372-0.063-1.563,1.387-1.582c3.729-0.049,7.459,0.026,11.187-0.044
			c0.66-0.098,1.125,0.314,1.626,0.628c0.876,0.55,1.733,1.136,2.705,1.515c1.022,0.418,2.037,0.853,3.087,1.196
			C76.648,121.854,77.53,121.555,77.76,122.4z"/>
		<path fill="#CA7F21" d="M71.256,90.231c4.544-2.624,9.494-3.674,14.677-3.528c5.797,0.163,11.121,1.925,15.889,5.269
			c0.381,0.268,0.833,0.469,1.074,0.909c-0.601,0.46-1.438,0.303-2.033,0.779c-0.711,0.062-1.123-0.53-1.695-0.773
			c-1.053-0.513-1.981-1.278-3.16-1.536c-3.782-1.586-7.727-2.318-11.818-2.202c-2.895,0.083-5.708,0.679-8.473,1.523
			c-0.494,0.151-0.959,0.411-1.496,0.411c-0.557-0.217-1.139-0.268-1.73-0.297C72.018,90.763,71.543,90.693,71.256,90.231z"/>
		<path fill="#EA9706" d="M113.309,123.204c-0.13-0.799-0.764-0.555-1.23-0.556c-5.814-0.013-11.629-0.021-17.443,0.004
			c-0.842,0.003-1.656-0.12-2.476-0.252c0.324-0.881,1.238-0.577,1.832-0.915c1.066-0.326,2.086-0.77,3.099-1.232
			c1.015-0.428,1.895-1.135,2.973-1.438c0.141-0.023,0.28-0.025,0.421-0.014c3.91,0.222,7.82,0.033,11.728,0.104
			c0.624,0.012,1.292-0.123,1.817,0.383C114.005,120.633,113.782,121.941,113.309,123.204z"/>
		<path fill="#E5930A" d="M69.119,118.32c-0.469,0.296-0.994,0.24-1.51,0.239c-3.388,0-6.777,0.031-10.165-0.02
			c-0.953-0.017-1.453,0.198-1.289,1.232c-0.407-1.912-0.375-3.84-0.209-5.773c0.342-0.332,0.782-0.365,1.218-0.365
			c2.415,0.007,4.83-0.071,7.241,0.039c0.133,0.011,0.265,0.039,0.393,0.08c0.687,0.412,1.097,1.097,1.609,1.68
			c0.338,0.549,0.792,0.98,1.342,1.316c0.482,0.414,0.948,0.847,1.415,1.278C69.208,118.135,69.196,118.232,69.119,118.32z"/>
		<path fill="#E69409" d="M114.03,119.288c-3.984-0.002-7.969-0.013-11.954,0c-0.682,0.002-1.347-0.043-1.998-0.248
			c-0.086-0.652,0.519-0.754,0.852-1.072c0.568-0.311,0.989-0.789,1.433-1.243c0.465-0.425,0.859-0.925,1.374-1.3
			c0.239-0.141,0.496-0.194,0.772-0.164c2.671,0.098,5.341,0.019,8.01,0.051c0.59,0.007,1.208-0.074,1.708,0.369
			C114.28,116.889,114.36,118.1,114.03,119.288z"/>
		<path fill="#E3920C" d="M114.227,115.68c-2.895,0-5.789-0.002-8.684,0.002c-0.477,0.001-0.954,0.023-1.383-0.241
			c-0.089-0.7,0.559-1.03,0.788-1.569c0.473-0.647,0.859-1.345,1.195-2.072c0.204-0.366,0.479-0.643,0.908-0.729
			c1.896-0.16,3.793-0.066,5.689-0.059c0.474,0.003,0.965,0.049,1.203,0.578C114.184,112.944,114.345,114.303,114.227,115.68z"/>
		<path fill="#E1900D" d="M64.807,113.997c-2.954,0.002-5.908,0.002-8.861,0.004c0.022-1.717,0.268-3.4,0.75-5.051
			c0.068-0.148,0.167-0.307,0.33-0.306c1.849,0.021,3.702-0.175,5.546,0.099c0.217,0.149,0.348,0.366,0.456,0.6
			c0.191,0.48,0.309,0.99,0.519,1.466c0.177,0.403,0.307,0.827,0.497,1.228C64.284,112.694,64.994,113.172,64.807,113.997z"/>
		<path fill="#DE8E10" d="M113.943,111.59c-0.954-0.465-1.967-0.182-2.951-0.217c-1.397-0.051-2.797-0.015-4.196-0.016
			c-0.137-0.134-0.169-0.301-0.151-0.482c0.117-0.51,0.307-1,0.399-1.519c0.109-0.409,0.195-0.825,0.273-1.243
			c0.165-0.642,0.041-1.334,0.337-1.953c0.158-0.295,0.391-0.518,0.718-0.568c1.176-0.186,2.357-0.176,3.535-0.012
			c0.285,0.041,0.492,0.237,0.63,0.494C113.292,107.84,113.703,109.694,113.943,111.59z"/>
		<path fill="#DB8C13" d="M62.619,108.961c-1.975-0.004-3.949-0.008-5.924-0.012c0.535-2.365,1.345-4.623,2.598-6.709
			c1.201-0.492,2.382-0.713,3.476,0.256c0.102,0.192,0.145,0.399,0.148,0.615c-0.001,0.473-0.182,0.92-0.183,1.393
			c0.004,0.59,0.012,1.182-0.001,1.771c0,0.651-0.008,1.306,0.118,1.95C62.872,108.5,62.853,108.766,62.619,108.961z"/>
		<path fill="#D3861A" d="M100.801,93.596c0.479-0.879,1.324-0.688,2.094-0.715c2.745,1.932,4.937,4.377,6.707,7.216
			c-0.283,0.649-0.883,0.508-1.398,0.541c-0.422,0.026-0.846,0.044-1.269,0.053c-0.344,0-0.555-0.204-0.727-0.47
			c-0.287-0.584-0.624-1.141-0.998-1.672c-0.23-0.354-0.459-0.708-0.741-1.025c-0.449-0.696-1.032-1.275-1.625-1.843
			c-0.441-0.452-0.852-0.94-1.438-1.224C101.117,94.231,100.658,94.124,100.801,93.596z"/>
		<path fill="#D88A15" d="M106.784,100.594c0.848-0.68,1.954,0.095,2.818-0.497c1.238,1.864,2.294,3.819,2.935,5.979
			c-1.597-0.244-3.203-0.675-4.742,0.235c-0.049-0.04-0.097-0.08-0.146-0.119c-0.374-0.688-0.077-1.478-0.321-2.187
			c-0.061-0.231-0.094-0.469-0.122-0.707c-0.046-0.467-0.226-0.897-0.379-1.336C106.723,101.51,106.417,101.063,106.784,100.594z"/>
		<path fill="#D48719" d="M62.639,102.717c-0.44-0.78-1.19-0.405-1.813-0.467c-0.506-0.051-1.021-0.01-1.533-0.01
			c1.223-2.563,2.894-4.796,4.943-6.751c0.773-0.205,1.521-0.173,2.226,0.241c0.185,0.713-0.409,1.062-0.722,1.542
			c-0.438,0.421-0.669,0.984-1,1.479c-0.308,0.441-0.512,0.938-0.742,1.419c-0.292,0.533-0.544,1.082-0.698,1.674
			C63.105,102.155,63.245,102.721,62.639,102.717z"/>
		<path fill="#CE821E" d="M66.479,95.955c-0.747-0.155-1.495-0.311-2.242-0.466c2.016-2.187,4.347-3.95,7.02-5.258
			c0.892,0.556,2.08-0.192,2.903,0.662c-0.027,0.112-0.084,0.206-0.168,0.284c-0.975,0.621-2.072,1.021-3.027,1.677
			c-0.779,0.371-1.438,0.923-2.129,1.424c-0.585,0.373-1.018,0.914-1.513,1.385C67.065,95.831,66.873,96.187,66.479,95.955z"/>
		<path fill="#EB9A0B" d="M94.08,121.68c-0.547,0.488-1.373,0.232-1.92,0.721c-4.8,0.754-9.6,0.719-14.4,0
			c-0.476-0.438-1.232-0.218-1.68-0.721c0.35-0.417,0.83-0.414,1.313-0.411c5.131,0.034,10.262,0.104,15.392-0.038
			C93.273,121.217,93.744,121.254,94.08,121.68z"/>
		<path fill="#EA9D18" d="M99.84,119.04c-0.812,0.604-1.706,1.061-2.64,1.44c-1.041,0.308-2.103,0.401-3.188,0.397
			c-5.955-0.014-11.91-0.014-17.864,0c-1.085,0.004-2.147-0.09-3.188-0.397c-1.015-0.231-1.808-0.873-2.64-1.44
			c0.45-0.442,1.031-0.386,1.582-0.387c8.786-0.011,17.571-0.011,26.357,0C98.809,118.654,99.391,118.597,99.84,119.04z"/>
		<path fill="#E99E1E" d="M99.84,119.04c-9.84,0-19.68,0-29.52,0c-0.4-0.238-0.801-0.479-1.201-0.72
			c-0.001-0.079-0.002-0.157-0.002-0.237c0.454-0.791,1.243-0.619,1.932-0.623c5.117-0.021,10.234-0.01,15.351-0.01
			c4.237,0,8.475-0.013,12.712,0.01c0.689,0.004,1.478-0.168,1.932,0.623c-0.322,0.318-0.643,0.639-0.965,0.957
			C99.999,119.04,99.919,119.04,99.84,119.04z"/>
		<path fill="#EB9B11" d="M72.96,120.48c8.08,0,16.16,0,24.24,0c-0.995,0.517-1.994,1.022-3.12,1.199
			c-1.062-0.25-2.122,0.034-3.186,0.013c-4.662-0.095-9.326,0.119-13.987-0.107c-0.274-0.015-0.551,0.062-0.827,0.096
			C74.954,121.502,73.955,120.997,72.96,120.48z"/>
		<path fill="#E9C89B" d="M68.667,94.128c0.65-0.583,1.335-1.115,2.145-1.464c0.902-0.183,1.816-0.174,2.731-0.173
			c7.37,0.003,14.739,0.001,22.109,0.001c1.233,0,2.468-0.044,3.689,0.188c0.486,0.305,0.973,0.61,1.459,0.915
			c0.076,0.417,0.557,0.414,0.744,0.716c-0.369,0.395-0.865,0.389-1.34,0.39c-10.08,0.016-20.159,0.023-30.238-0.01
			C69.489,94.69,68.886,94.803,68.667,94.128z"/>
		<path fill="#EACBA2" d="M99.342,92.681c-0.336,0.322-0.758,0.194-1.143,0.194c-8.75,0.007-17.501,0.007-26.251,0
			c-0.384,0-0.808,0.131-1.136-0.21c0.942-0.746,2.044-1.184,3.139-1.637c6.744-0.475,13.497-0.103,20.245-0.207
			c0.721-0.011,1.409,0.255,2.118,0.356C97.483,91.354,98.325,92.194,99.342,92.681z"/>
		<path fill="#EBCEAA" d="M96.313,91.177c-7.189,0.008-14.378,0.016-21.568,0.022c-0.276,0-0.564,0.044-0.794-0.172
			c0.069-0.044,0.139-0.089,0.209-0.134c6.587-2.538,13.25-2.797,19.984-0.639C94.889,90.492,95.591,90.866,96.313,91.177z"/>
		<path fill="#E7A63B" d="M64.807,113.997c-0.322-0.639-0.645-1.277-0.967-1.916c0.45-0.445,1.031-0.388,1.582-0.388
			c13.104-0.011,26.209-0.011,39.313,0c0.549,0.001,1.133-0.063,1.581,0.386c-0.32,0.689-0.651,1.373-1.194,1.922
			c-0.523,0.356-1.116,0.394-1.722,0.394c-12.219,0.002-24.438,0.002-36.656-0.004c-0.596,0-1.209,0.042-1.712-0.386
			C64.957,114.002,64.882,114,64.807,113.997z"/>
		<path fill="#E8A432" d="M65.032,114.004c13.363,0,26.727-0.002,40.09-0.004c-0.321,0.479-0.642,0.961-0.963,1.439
			c-0.157,0.082-0.315,0.164-0.472,0.246c-0.502,0.167-1.021,0.146-1.542,0.148c-11.618,0.008-23.237-0.043-34.855,0.025
			c-0.361,0.002-0.721,0.023-1.043-0.184C65.95,115.042,65.126,114.788,65.032,114.004z"/>
		<path fill="#E8A22B" d="M66.248,115.678c0.615-0.184,1.239-0.246,1.884-0.245c11.308,0.01,22.616,0.007,33.923,0.009
			c0.555,0,1.125-0.08,1.632,0.245c-0.314,0.485-0.713,0.888-1.202,1.198c-0.463,0.152-0.94,0.15-1.421,0.15
			c-10.656-0.011-21.312-0.011-31.968,0c-0.481,0-0.958,0.002-1.421-0.15C66.965,116.758,66.627,116.194,66.248,115.678z"/>
		<path fill="#E9A024" d="M67.675,116.885c0.431-0.271,0.912-0.246,1.393-0.246c10.675,0.002,21.349,0.002,32.023,0
			c0.481,0,0.962-0.025,1.393,0.246c-0.393,0.505-0.73,1.076-1.441,1.197c-0.432-0.271-0.913-0.244-1.394-0.244
			c-9.713,0.002-19.426,0.002-29.14,0c-0.48,0-0.962-0.024-1.394,0.244C68.403,117.963,68.067,117.391,67.675,116.885z"/>
		<path fill="#E7A943" d="M106.316,112.079c-14.159,0-28.318,0.002-42.477,0.002c-0.32-0.336-0.39-0.772-0.491-1.197
			c0.448-0.447,1.03-0.391,1.581-0.391c13.43-0.011,26.86-0.011,40.29,0c0.551,0,1.133-0.058,1.583,0.389
			c-0.002,0.158-0.004,0.318-0.006,0.478C106.636,111.599,106.476,111.838,106.316,112.079z"/>
		<path fill="#E7AA4A" d="M106.802,110.881c-14.484,0-28.969,0.002-43.453,0.002c-0.337-0.418-0.445-0.916-0.493-1.434
			c0.444-0.455,1.028-0.396,1.578-0.396c13.754-0.012,27.508-0.01,41.262,0.001c0.55,0,1.134-0.063,1.582,0.386
			C107.266,109.967,107.142,110.459,106.802,110.881z"/>
		<path fill="#E7AD52" d="M107.277,109.439c-14.807,0.003-29.614,0.007-44.421,0.011c-0.079-0.162-0.158-0.326-0.237-0.488
			c-0.003-0.237-0.006-0.475-0.009-0.711c0.444-0.455,1.027-0.396,1.578-0.396c13.917-0.012,27.835-0.012,41.752-0.001
			c0.551,0.001,1.133-0.058,1.583,0.39C107.546,108.663,107.517,109.073,107.277,109.439z"/>
		<path fill="#E7AF59" d="M107.523,108.241c-14.971,0.004-29.942,0.006-44.914,0.01c-0.411-0.609-0.138-1.287-0.194-1.934
			c0.457-0.422,1.032-0.385,1.586-0.386c14.051-0.009,28.102-0.009,42.152,0c0.554,0.001,1.13-0.037,1.583,0.396l0.057-0.016
			C107.639,106.945,107.991,107.65,107.523,108.241z"/>
		<path fill="#E7B364" d="M107.737,106.327c-15.107-0.004-30.214-0.007-45.321-0.01c0.003-0.641,0.006-1.279,0.009-1.92
			c0.654-0.553,1.445-0.381,2.188-0.381c13.109-0.012,26.218-0.01,39.327-0.006c1.199,0,2.397,0,3.593-0.114
			C107.99,104.674,107.679,105.516,107.737,106.327z"/>
		<path fill="#E7B56A" d="M107.532,103.896c-0.178,0.791-0.822,0.489-1.274,0.491c-8.104,0.017-16.208,0.013-24.312,0.013
			c-6.507-0.001-13.014-0.002-19.521-0.003c-0.099-0.436,0.177-0.795,0.235-1.199c0.459-0.416,1.032-0.387,1.587-0.387
			c13.887-0.008,27.773-0.008,41.66,0c0.555,0,1.129-0.032,1.586,0.387C107.507,103.431,107.52,103.665,107.532,103.896z"/>
		<path fill="#E7B771" d="M107.494,103.198c-14.944,0-29.889,0-44.833,0c-0.007-0.16-0.014-0.32-0.021-0.48
			c0.156-0.325,0.312-0.649,0.468-0.975c0.423-0.146,0.861-0.141,1.301-0.141c13.526,0.01,27.052,0.001,40.577,0.01
			c0.708,0.001,1.45-0.121,2.07,0.383C107.37,102.334,107.425,102.769,107.494,103.198z"/>
		<path fill="#E7BA78" d="M107.055,101.995c-14.237,0.002-28.474,0.006-42.711-0.002c-0.419,0-0.892,0.157-1.237-0.25
			c0.028-0.642,0.32-1.175,0.681-1.681c0.516-0.394,1.123-0.374,1.724-0.375c13.037-0.004,26.073-0.004,39.11,0.002
			c0.598,0,1.21-0.038,1.716,0.386c0.149,0.174,0.298,0.346,0.448,0.52C106.875,101.062,106.965,101.528,107.055,101.995z"/>
		<path fill="#E8C28E" d="M66.479,95.955c0.229-0.149,0.457-0.298,0.685-0.447c0.577-0.329,1.205-0.384,1.854-0.384
			c10.708,0.002,21.417,0.002,32.126,0c0.649,0,1.277,0.056,1.854,0.384c0.691,0.527,1.272,1.152,1.689,1.921
			c-0.444,0.456-1.028,0.397-1.579,0.397c-11.999,0.011-23.999,0.014-35.998-0.008c-0.582-0.001-1.318,0.197-1.603-0.636
			C65.831,96.773,66.155,96.364,66.479,95.955z"/>
		<path fill="#E7BD80" d="M106.336,100.075c-14.183-0.004-28.366-0.009-42.549-0.013c0.171-0.521,0.374-1.024,0.772-1.423
			c0.56-0.39,1.2-0.392,1.844-0.392c12.555-0.002,25.109,0.004,37.663-0.006c0.444,0,0.874,0.076,1.308,0.136
			C105.806,98.88,106.194,99.409,106.336,100.075z"/>
		<path fill="#E8BF86" d="M105.374,98.378c-0.425,0.46-0.98,0.252-1.474,0.252c-13.114,0.012-26.228,0.009-39.341,0.009
			c0.294-0.5,0.399-1.123,0.948-1.458c0.303,0.379,0.731,0.253,1.114,0.253c12.688,0.002,25.376-0.003,38.064-0.006
			C105.079,97.626,105.14,98.065,105.374,98.378z"/>
		<path fill="#E9C595" d="M102.997,95.508c-11.944,0-23.889,0-35.833,0c0.42-0.547,0.887-1.045,1.502-1.38
			c0.299,0.293,0.677,0.188,1.025,0.188c10.618,0.002,21.235-0.001,31.854-0.004C102.224,94.475,102.574,95.035,102.997,95.508z"/>
	</g>
</g>
</svg>
