<svg width="12" height="10" viewBox="0 0 12 10" fill="none" xmlns="http://www.w3.org/2000/svg">
<path d="M12 5.00004C12 4.72404 11.776 4.50004 11.5 4.50004L1.52525 4.50004L5.34475 0.862037C5.448 0.763787 5.5 0.632037 5.5 0.500037C5.5 0.376287 5.45425 0.252037 5.362 0.155287C5.1715 -0.0447132 4.855 -0.0524637 4.655 0.138037L0.293 4.29279C0.10425 4.48179 -2.30237e-07 4.73279 -2.18555e-07 5.00004C-2.06873e-07 5.26729 0.10425 5.51829 0.30175 5.71554L4.65525 9.86204C4.85525 10.0525 5.17175 10.0448 5.36225 9.84479C5.55275 9.64479 5.545 9.32804 5.345 9.13779L1.5095 5.50004L11.5 5.50004C11.776 5.50004 12 5.27604 12 5.00004Z" fill="#FFB216"/>
</svg>
