<svg width="12" height="10" viewBox="0 0 12 10" fill="none" xmlns="http://www.w3.org/2000/svg">
<path d="M-2.18555e-07 4.99996C-2.3062e-07 5.27596 0.224 5.49996 0.5 5.49996L10.4747 5.49996L6.65525 9.13796C6.552 9.23621 6.5 9.36796 6.5 9.49996C6.5 9.62371 6.54575 9.74796 6.638 9.84471C6.8285 10.0447 7.145 10.0525 7.345 9.86196L11.707 5.70721C11.8957 5.51821 12 5.26721 12 4.99996C12 4.73271 11.8957 4.48171 11.6982 4.28446L7.34475 0.137962C7.14475 -0.0525377 6.82825 -0.0447877 6.63775 0.155212C6.44725 0.355212 6.455 0.671962 6.655 0.862212L10.4905 4.49996L0.5 4.49996C0.224 4.49996 -2.06491e-07 4.72396 -2.18555e-07 4.99996Z" fill="#FFB216"/>
</svg>
