<svg xmlns="http://www.w3.org/2000/svg" width="51" height="51" viewBox="0 0 51 51">
  <g id="Group_1742" data-name="Group 1742" transform="translate(239 8869)">
    <circle id="Ellipse_293" data-name="Ellipse 293" cx="25.5" cy="25.5" r="25.5" transform="translate(-239 -8869)" fill="#fff"/>
    <g id="Group_1741" data-name="Group 1741" transform="translate(-1092 -2231)">
      <g id="cookie" transform="translate(860 -6631)">
        <path id="Path_1230" data-name="Path 1230" d="M43.332,28.194a5.807,5.807,0,0,1-.844.062,5.929,5.929,0,0,1-5.643-4.114,1.169,1.169,0,0,0-.885-.8A9.481,9.481,0,0,1,29.848,8.77a.6.6,0,0,0-.382-.918,18.383,18.383,0,1,0,14.558,21A.592.592,0,0,0,43.332,28.194Z" transform="translate(-6.948 -6.947)" fill="#f5b97d"/>
        <g id="Group_1294" data-name="Group 1294" transform="translate(8.264 10.636)">
          <circle id="Ellipse_124" data-name="Ellipse 124" cx="2.372" cy="2.372" r="2.372" fill="#cd916e"/>
          <circle id="Ellipse_125" data-name="Ellipse 125" cx="1.779" cy="1.779" r="1.779" transform="translate(1.778 12.452)" fill="#cd916e"/>
        </g>
        <g id="Group_1295" data-name="Group 1295" transform="translate(26.378 3.31)">
          <path id="Path_1231" data-name="Path 1231" d="M356.792,46.8l-.17,1.021a1.779,1.779,0,0,0,1.13,1.958l1.506.565a1.779,1.779,0,0,0,2.35-1.234l.537-2.147a1.779,1.779,0,0,0-2.237-2.135l-1.873.562A1.779,1.779,0,0,0,356.792,46.8Z" transform="translate(-356.598 -44.754)" fill="#f5b97d"/>
          <path id="Path_1232" data-name="Path 1232" d="M423.2,158.24l-.716.358a1.186,1.186,0,0,0-.56,1.528l.576,1.344a1.186,1.186,0,0,0,2,.292l.927-1.112a1.186,1.186,0,0,0-.2-1.708l-.787-.59A1.186,1.186,0,0,0,423.2,158.24Z" transform="translate(-417 -149.73)" fill="#f5b97d"/>
          <circle id="Ellipse_126" data-name="Ellipse 126" cx="1.186" cy="1.186" r="1.186" transform="translate(8.569 3.767)" fill="#f5b97d"/>
        </g>
        <g id="Group_1296" data-name="Group 1296" transform="translate(0.555 3.866)">
          <path id="Path_1233" data-name="Path 1233" d="M28.109,96.147A18.378,18.378,0,0,1,14.05,65.929,18.38,18.38,0,1,0,39.94,91.835,18.3,18.3,0,0,1,28.109,96.147Z" transform="translate(-7.504 -64.919)" fill="#e3aa75"/>
          <path id="Path_1234" data-name="Path 1234" d="M359.522,55.931a2.222,2.222,0,0,1-1.412-2.446l.2-1.216-.278.083a1.779,1.779,0,0,0-1.243,1.411l-.17,1.021a1.779,1.779,0,0,0,1.13,1.958l1.506.565a1.772,1.772,0,0,0,2.1-.688Z" transform="translate(-330.775 -52.269)" fill="#e3aa75"/>
          <path id="Path_1235" data-name="Path 1235" d="M423.762,163.184l-.653-1.523a1.332,1.332,0,0,1-.059-.871l-.571.285a1.186,1.186,0,0,0-.56,1.528l.576,1.344a1.186,1.186,0,0,0,2,.292l.23-.276A1.322,1.322,0,0,1,423.762,163.184Z" transform="translate(-391.177 -152.762)" fill="#e3aa75"/>
        </g>
        <g id="Group_1297" data-name="Group 1297" transform="translate(8.264 10.822)">
          <path id="Path_1236" data-name="Path 1236" d="M115.345,149.6a2.373,2.373,0,0,1-2.185-3.3,2.372,2.372,0,1,0,3.109,3.109A2.364,2.364,0,0,1,115.345,149.6Z" transform="translate(-111.713 -146.306)" fill="#b67f5f"/>
          <path id="Path_1237" data-name="Path 1237" d="M138.466,316.584a1.777,1.777,0,0,1-1.632-2.484,1.778,1.778,0,1,0,2.337,2.337A1.771,1.771,0,0,1,138.466,316.584Z" transform="translate(-133.982 -301.688)" fill="#b67f5f"/>
        </g>
        <circle id="Ellipse_127" data-name="Ellipse 127" cx="2.372" cy="2.372" r="2.372" transform="translate(20.716 24.274)" fill="#cd916e"/>
        <path id="Path_1238" data-name="Path 1238" d="M283.682,333.971a2.373,2.373,0,0,1-2.185-3.3,2.372,2.372,0,1,0,3.109,3.109A2.364,2.364,0,0,1,283.682,333.971Z" transform="translate(-259.334 -306.214)" fill="#b67f5f"/>
        <circle id="Ellipse_128" data-name="Ellipse 128" cx="1.186" cy="1.186" r="1.186" transform="translate(17.133 14.786)" fill="#cd916e"/>
        <path id="Path_1239" data-name="Path 1239" d="M107.14,136.275a2.927,2.927,0,1,0,2.927,2.927A2.93,2.93,0,0,0,107.14,136.275Zm0,4.744a1.817,1.817,0,1,1,1.817-1.817A1.819,1.819,0,0,1,107.14,141.019Z" transform="translate(-96.504 -126.195)"/>
        <path id="Path_1240" data-name="Path 1240" d="M272.549,323.573a2.927,2.927,0,1,0,2.927-2.927A2.93,2.93,0,0,0,272.549,323.573Zm2.927-1.817a1.817,1.817,0,1,1-1.817,1.817A1.819,1.819,0,0,1,275.476,321.755Z" transform="translate(-252.388 -296.927)"/>
        <path id="Path_1241" data-name="Path 1241" d="M130.594,304.613a2.334,2.334,0,1,0,2.334,2.334A2.336,2.336,0,0,0,130.594,304.613Zm0,3.558a1.224,1.224,0,1,1,1.224-1.224A1.225,1.225,0,0,1,130.594,308.171Z" transform="translate(-118.772 -282.08)"/>
        <path id="Path_1242" data-name="Path 1242" d="M224.454,194.129a1.741,1.741,0,1,0,1.741-1.741A1.743,1.743,0,0,0,224.454,194.129Zm1.741-.631a.631.631,0,1,1-.631.631A.632.632,0,0,1,226.195,193.5Z" transform="translate(-207.851 -178.157)"/>
        <path id="Path_1243" data-name="Path 1243" d="M385.922,306.906a.555.555,0,0,0,.5-.8l-.593-1.186a.555.555,0,0,0-.992.5l.593,1.186A.555.555,0,0,0,385.922,306.906Z" transform="translate(-356.311 -282.077)"/>
        <path id="Path_1244" data-name="Path 1244" d="M305.168,266.234a.554.554,0,0,0,.248-.059l1.186-.593a.555.555,0,0,0-.5-.992l-1.186.593a.555.555,0,0,0,.249,1.051Z" transform="translate(-282.079 -244.963)"/>
        <path id="Path_1245" data-name="Path 1245" d="M80.814,242.471a.555.555,0,0,0,.992-.5l-.593-1.186a.555.555,0,1,0-.992.5Z" transform="translate(-74.232 -222.693)"/>
        <path id="Path_1246" data-name="Path 1246" d="M193.881,392.846l-1.186.593a.555.555,0,1,0,.5.992l1.186-.593a.555.555,0,0,0-.5-.992Z" transform="translate(-178.157 -363.732)"/>
        <path id="Path_1247" data-name="Path 1247" d="M201.946,80.918l-.593-.593a.555.555,0,0,0-.785.785l.593.593a.555.555,0,1,0,.784-.785Z" transform="translate(-185.582 -74.233)"/>
        <path id="Path_1248" data-name="Path 1248" d="M184.536,264.695a.555.555,0,0,0,0,.785l.593.593a.555.555,0,1,0,.785-.785l-.593-.593A.555.555,0,0,0,184.536,264.695Z" transform="translate(-170.735 -244.964)"/>
        <path id="Path_1249" data-name="Path 1249" d="M280.566,433.425v.593a.555.555,0,1,0,1.11,0v-.593a.555.555,0,1,0-1.11,0Z" transform="translate(-259.812 -400.85)"/>
        <path id="Path_1250" data-name="Path 1250" d="M233.417,129.8l.593-.593a.555.555,0,0,0-.785-.785l-.593.593a.555.555,0,1,0,.785.785Z" transform="translate(-215.274 -118.773)"/>
        <path id="Path_1251" data-name="Path 1251" d="M350.614,43.352l1.506.565A2.334,2.334,0,0,0,355.2,42.3l.537-2.147a2.334,2.334,0,0,0-2.935-2.8l-1.873.562a2.349,2.349,0,0,0-1.631,1.852l-.17,1.021A2.338,2.338,0,0,0,350.614,43.352Zm-.388-2.386.17-1.021a1.232,1.232,0,0,1,.856-.971l1.873-.562a1.244,1.244,0,0,1,.358-.053,1.226,1.226,0,0,1,1.182,1.522l-.537,2.147a1.224,1.224,0,0,1-1.617.849L351,42.313A1.227,1.227,0,0,1,350.226,40.965Z" transform="translate(-323.276 -34.492)"/>
        <path id="Path_1252" data-name="Path 1252" d="M415.29,151.137a1.743,1.743,0,0,0-.822,2.243l.576,1.344a1.729,1.729,0,0,0,1.349,1.037,1.774,1.774,0,0,0,.256.019,1.727,1.727,0,0,0,1.332-.627l.927-1.112a1.741,1.741,0,0,0-.293-2.507l-.787-.59a1.731,1.731,0,0,0-1.823-.164Zm1.212.634a.628.628,0,0,1,.661.06l.787.59a.631.631,0,0,1,.106.909l-.927,1.112a.631.631,0,0,1-1.065-.155l-.576-1.344a.632.632,0,0,1,.3-.813l.716-.358Z" transform="translate(-383.679 -139.454)"/>
        <path id="Path_1253" data-name="Path 1253" d="M466.677,91.661a1.741,1.741,0,1,0-1.741-1.741A1.743,1.743,0,0,0,466.677,91.661Zm0-2.372a.631.631,0,1,1-.631.631A.632.632,0,0,1,466.677,89.29Z" transform="translate(-430.544 -81.657)"/>
        <path id="Path_1254" data-name="Path 1254" d="M114.688,20.7a5.282,5.282,0,0,1-.764.056,5.356,5.356,0,0,1-5.115-3.729,1.724,1.724,0,0,0-1.31-1.177,8.926,8.926,0,0,1-5.754-13.716,1.149,1.149,0,0,0-.736-1.77,19.079,19.079,0,0,0-5.756-.25,18.723,18.723,0,0,0-10.42,4.611.555.555,0,1,0,.734.832,17.618,17.618,0,0,1,9.805-4.34,17.972,17.972,0,0,1,5.422.235.042.042,0,0,1,.035.025.039.039,0,0,1-.006.04,10.035,10.035,0,0,0,6.47,15.422.616.616,0,0,1,.461.427,6.462,6.462,0,0,0,6.171,4.5,6.39,6.39,0,0,0,.925-.068.057.057,0,0,1,.063.024,17.762,17.762,0,0,1-4.2,8.879.555.555,0,0,0,.834.732A18.871,18.871,0,0,0,116.007,22a1.108,1.108,0,0,0-.308-.964A1.182,1.182,0,0,0,114.688,20.7Z" transform="translate(-78.384 -0.002)"/>
        <path id="Path_1255" data-name="Path 1255" d="M30.7,110.721A17.814,17.814,0,0,1,5.556,85.578a.555.555,0,0,0-.833-.733,18.924,18.924,0,0,0,26.709,26.708.555.555,0,1,0-.733-.833Z" transform="translate(0.001 -78.395)"/>
      </g>
    </g>
  </g>
</svg>
