<svg width="26" height="18" viewBox="0 0 26 18" fill="none" xmlns="http://www.w3.org/2000/svg">
<path fill-rule="evenodd" clip-rule="evenodd" d="M3.77202 0.825226C1.83657 0.977282 0.373665 2.55109 0.279448 4.4902C0.201823 6.08789 0.128906 7.92642 0.128906 9.19559C0.128906 10.4793 0.203501 12.3455 0.282115 13.9558C0.375573 15.8701 1.80499 17.4334 3.71346 17.6096C5.8261 17.8047 8.88285 18.001 12.6289 18.001C16.3652 18.001 19.4158 17.8057 21.5279 17.6111C23.4437 17.4346 24.876 15.8612 24.9682 13.9394C25.0495 12.244 25.1289 10.3041 25.1289 9.19559C25.1289 8.09903 25.0512 6.18873 24.9708 4.50642C24.8777 2.55981 23.4125 0.976227 21.4697 0.823949C19.3902 0.660977 16.3907 0.500977 12.6289 0.500977C8.85732 0.500977 5.85213 0.66181 3.77202 0.825226ZM10.1289 5.48514L16.5734 9.19559L10.1289 12.906V5.48514Z" fill="white"/>
</svg>
