<svg width="85" height="36" viewBox="0 0 85 36" fill="none" xmlns="http://www.w3.org/2000/svg">
<path d="M79.8195 32.5749H78.7148V25.2108H79.8047V25.7263C80.6001 25.2844 81.361 25.0635 82.0876 25.0635C83.0695 25.0635 83.7274 25.3286 84.0612 25.8588C84.4049 26.389 84.5767 27.3316 84.5767 28.6867V32.5749H83.4868V28.7161C83.4868 27.6949 83.3837 26.9978 83.1775 26.6247C82.9812 26.2417 82.554 26.0503 81.8962 26.0503C81.582 26.0503 81.2481 26.0994 80.8946 26.1976C80.551 26.2859 80.2859 26.3743 80.0993 26.4627L79.8195 26.5952V32.5749Z" fill="#727272"/>
<path d="M70.6099 28.8781C70.6099 27.5329 70.8504 26.5609 71.3316 25.9619C71.8127 25.363 72.6227 25.0635 73.7617 25.0635C74.9105 25.0635 75.7206 25.363 76.1919 25.9619C76.673 26.5609 76.9136 27.5329 76.9136 28.8781C76.9136 30.2233 76.6878 31.2003 76.2361 31.8091C75.7844 32.4178 74.9596 32.7222 73.7617 32.7222C72.5638 32.7222 71.739 32.4178 71.2874 31.8091C70.8357 31.2003 70.6099 30.2233 70.6099 28.8781ZM71.7439 28.8634C71.7439 29.9337 71.8716 30.6848 72.1269 31.1168C72.392 31.5489 72.9369 31.7649 73.7617 31.7649C74.5963 31.7649 75.1413 31.5538 75.3966 31.1316C75.6519 30.6995 75.7795 29.9435 75.7795 28.8634C75.7795 27.7833 75.6372 27.042 75.3524 26.6394C75.0677 26.227 74.5374 26.0208 73.7617 26.0208C72.9959 26.0208 72.4656 26.227 72.1711 26.6394C71.8863 27.042 71.7439 27.7833 71.7439 28.8634Z" fill="#727272"/>
<path d="M67.7119 32.575V25.2108H68.8165V32.575H67.7119ZM67.7119 23.5465V22.2651H68.8165V23.5465H67.7119Z" fill="#727272"/>
<path d="M66.3632 26.1681H64.0214V29.6881C64.0214 30.5326 64.0803 31.0873 64.1981 31.3524C64.3257 31.6176 64.6203 31.7501 65.0818 31.7501L66.3926 31.6617L66.4663 32.5749C65.8084 32.6829 65.3076 32.7369 64.964 32.7369C64.1981 32.7369 63.6679 32.5504 63.3733 32.1772C63.0787 31.8041 62.9315 31.0922 62.9315 30.0416V26.1681H61.8857V25.2107H62.9315V22.9573H64.0214V25.2107H66.3632V26.1681Z" fill="#727272"/>
<path d="M60.3687 27.4347V31.2052C60.3981 31.5685 60.6829 31.7845 61.2229 31.8533L61.1787 32.7222C60.403 32.7222 59.8188 32.5259 59.4261 32.1331C58.5423 32.5259 57.6586 32.7222 56.7749 32.7222C56.0974 32.7222 55.5819 32.5308 55.2285 32.1478C54.875 31.7649 54.6982 31.215 54.6982 30.4982C54.6982 29.7815 54.8799 29.2562 55.2432 28.9223C55.6065 28.5786 56.176 28.3675 56.9517 28.289L59.264 28.0681V27.4347C59.264 26.934 59.156 26.5756 58.94 26.3596C58.724 26.1436 58.4294 26.0355 58.0563 26.0355C57.2708 26.0355 56.4558 26.0846 55.6114 26.1828L55.1548 26.227L55.1106 25.3875C56.1907 25.1715 57.1481 25.0635 57.9827 25.0635C58.8173 25.0635 59.4211 25.2549 59.7943 25.6379C60.1772 26.0208 60.3687 26.6198 60.3687 27.4347ZM55.8323 30.4393C55.8323 31.3427 56.2054 31.7943 56.9517 31.7943C57.6194 31.7943 58.2772 31.6814 58.9253 31.4556L59.264 31.3378V28.9076L57.0842 29.1138C56.6424 29.1531 56.3233 29.2807 56.1269 29.4967C55.9305 29.7127 55.8323 30.0269 55.8323 30.4393Z" fill="#727272"/>
<path d="M50.0781 32.575V25.2108H51.168V26.2124C52.0223 25.6232 52.9207 25.2354 53.8633 25.0488V26.1682C53.4509 26.2467 53.0189 26.3695 52.5672 26.5364C52.1254 26.7033 51.7866 26.8506 51.551 26.9782L51.1828 27.1697V32.575H50.0781Z" fill="#727272"/>
<path d="M47.8985 27.4347V31.2052C47.9279 31.5685 48.2127 31.7845 48.7527 31.8533L48.7085 32.7222C47.9328 32.7222 47.3486 32.5259 46.9558 32.1331C46.0721 32.5259 45.1884 32.7222 44.3047 32.7222C43.6272 32.7222 43.1117 32.5308 42.7583 32.1478C42.4048 31.7649 42.228 31.215 42.228 30.4982C42.228 29.7815 42.4097 29.2562 42.773 28.9223C43.1363 28.5786 43.7058 28.3675 44.4815 28.289L46.7938 28.0681V27.4347C46.7938 26.934 46.6858 26.5756 46.4698 26.3596C46.2538 26.1436 45.9592 26.0355 45.5861 26.0355C44.8006 26.0355 43.9856 26.0846 43.1412 26.1828L42.6846 26.227L42.6404 25.3875C43.7205 25.1715 44.6778 25.0635 45.5125 25.0635C46.3471 25.0635 46.9509 25.2549 47.324 25.6379C47.707 26.0208 47.8985 26.6198 47.8985 27.4347ZM43.3621 30.4393C43.3621 31.3427 43.7352 31.7943 44.4815 31.7943C45.1492 31.7943 45.807 31.6814 46.4551 31.4556L46.7938 31.3378V28.9076L44.614 29.1138C44.1722 29.1531 43.8531 29.2807 43.6567 29.4967C43.4603 29.7127 43.3621 30.0269 43.3621 30.4393Z" fill="#727272"/>
<path d="M34.9326 35.8446V25.2108H36.0225V25.741C36.7688 25.2893 37.5052 25.0635 38.2318 25.0635C39.1646 25.0635 39.8421 25.363 40.2643 25.9619C40.6865 26.551 40.8976 27.528 40.8976 28.8929C40.8976 30.2577 40.6472 31.2396 40.1465 31.8385C39.6555 32.4277 38.8356 32.7222 37.6868 32.7222C37.0879 32.7222 36.538 32.6682 36.0372 32.5602V35.8446H34.9326ZM38.0698 26.0503C37.7752 26.0503 37.4561 26.0994 37.1124 26.1976C36.7786 26.2958 36.5135 26.3939 36.3171 26.4921L36.0372 26.6394V31.6029C36.7344 31.7109 37.2646 31.7649 37.6279 31.7649C38.4232 31.7649 38.978 31.5391 39.2922 31.0874C39.6162 30.6357 39.7783 29.8993 39.7783 28.8781C39.7783 27.857 39.631 27.1304 39.3364 26.6983C39.0517 26.2663 38.6294 26.0503 38.0698 26.0503Z" fill="#727272"/>
<path d="M32.504 31.6618L32.9312 31.6176L32.9606 32.4866C31.8413 32.6437 30.8839 32.7222 30.0886 32.7222C29.0281 32.7222 28.277 32.4178 27.8351 31.8091C27.3933 31.1905 27.1724 30.2331 27.1724 28.937C27.1724 26.3547 28.1984 25.0635 30.2506 25.0635C31.2423 25.0635 31.9836 25.3433 32.4746 25.903C32.9655 26.4529 33.211 27.3218 33.211 28.5099L33.1521 29.3494H28.2917C28.2917 30.1644 28.439 30.7683 28.7336 31.161C29.0281 31.5538 29.5387 31.7502 30.2653 31.7502C31.0017 31.7502 31.748 31.7207 32.504 31.6618ZM32.1064 28.4657C32.1064 27.5624 31.9591 26.9242 31.6645 26.551C31.3798 26.1779 30.9085 25.9914 30.2506 25.9914C29.6025 25.9914 29.1116 26.1877 28.7778 26.5805C28.4537 26.9733 28.2868 27.6017 28.277 28.4657H32.1064Z" fill="#727272"/>
<path d="M22.5488 32.575V25.2108H23.6387V26.2124C24.493 25.6232 25.3914 25.2354 26.334 25.0488V26.1682C25.9216 26.2467 25.4896 26.3695 25.0379 26.5364C24.5961 26.7033 24.2573 26.8506 24.0217 26.9782L23.6535 27.1697V32.575H22.5488Z" fill="#727272"/>
<path d="M17.736 29.1431H15.1439V32.5748H14.0098V22.3828H17.736C18.8456 22.3828 19.6655 22.6528 20.1957 23.1929C20.7259 23.7329 20.991 24.5577 20.991 25.6672C20.991 27.9845 19.906 29.1431 17.736 29.1431ZM15.1439 28.1416H17.7213C19.1254 28.1416 19.8275 27.3168 19.8275 25.6672C19.8275 24.8817 19.6606 24.3073 19.3267 23.944C18.9929 23.5709 18.4577 23.3843 17.7213 23.3843H15.1439V28.1416Z" fill="#727272"/>
<path d="M1.44338 24.4153C1.44338 23.7574 1.66922 23.2321 2.12089 22.8394C2.57256 22.4466 3.21079 22.2502 4.03557 22.2502C4.86036 22.2502 5.48386 22.4466 5.90608 22.8394C6.33811 23.2321 6.55413 23.7771 6.55413 24.4742C6.55413 25.1616 6.38229 25.7065 6.03863 26.1091C5.69497 26.5018 5.11074 26.8897 4.28596 27.2726L6.52467 29.4819C6.74068 28.8535 6.87815 28.0581 6.93706 27.0959L8.01223 27.1106C7.88459 28.338 7.65875 29.3591 7.33473 30.1741L9.23469 31.971L8.57191 32.7074L6.78978 31.0431C6.11227 32.1624 5.0862 32.7221 3.71155 32.7221C2.3369 32.7221 1.37465 32.457 0.824789 31.9268C0.27493 31.3966 0 30.6651 0 29.7323C0 28.7896 0.17674 28.1023 0.530221 27.6703C0.893521 27.2284 1.47775 26.875 2.2829 26.6098C1.93924 26.2171 1.7134 25.8685 1.60539 25.5641C1.49738 25.2597 1.44338 24.8768 1.44338 24.4153ZM3.53481 31.7206C4.74254 31.7206 5.57223 31.2787 6.0239 30.395L2.91622 27.3021C2.26817 27.5083 1.80668 27.7734 1.53175 28.0974C1.25682 28.4214 1.11936 28.9222 1.11936 29.5997C1.11936 31.0136 1.92451 31.7206 3.53481 31.7206ZM2.54801 24.5921C2.54801 25.191 2.76893 25.7261 3.21079 26.1974L3.63791 26.6098C4.31541 26.3153 4.78672 26.0256 5.05183 25.7409C5.31694 25.4561 5.4495 25.0634 5.4495 24.5626C5.4495 23.6593 4.96346 23.2076 3.99139 23.2076C3.02913 23.2076 2.54801 23.6691 2.54801 24.5921Z" fill="#727272"/>
<path d="M79.963 4.05028C78.8927 4.05028 78.3576 4.4234 78.3576 5.16963C78.3576 5.5133 78.4803 5.75877 78.7258 5.90605C78.9712 6.04352 79.5309 6.1908 80.4048 6.3479C81.2787 6.49519 81.8973 6.70629 82.2606 6.98122C82.6239 7.25615 82.8055 7.77165 82.8055 8.5277C82.8055 9.28376 82.5601 9.83853 82.0691 10.192C81.588 10.5455 80.881 10.7222 79.9482 10.7222C79.3395 10.7222 78.6227 10.6535 77.7979 10.516L77.356 10.4424L77.4149 9.48505C78.5343 9.65197 79.3787 9.73543 79.9482 9.73543C80.5177 9.73543 80.9498 9.64706 81.2443 9.47032C81.5487 9.28376 81.7009 8.97937 81.7009 8.55716C81.7009 8.12513 81.5733 7.83547 81.318 7.68819C81.0627 7.53108 80.503 7.3838 79.6389 7.24633C78.7749 7.10887 78.1612 6.90758 77.7979 6.64247C77.4346 6.37736 77.2529 5.88641 77.2529 5.16963C77.2529 4.45285 77.5033 3.92263 78.0041 3.57897C78.5147 3.23531 79.148 3.06348 79.904 3.06348C80.503 3.06348 81.2541 3.13221 82.1575 3.26967L82.5699 3.34332L82.5404 4.28593C81.4505 4.12883 80.5914 4.05028 79.963 4.05028Z" fill="#727272"/>
<path d="M74.4287 10.575V3.21081H75.5333V10.575H74.4287ZM74.4287 1.5465V0.265137H75.5333V1.5465H74.4287Z" fill="#727272"/>
<path d="M69.8946 4.05028C68.8243 4.05028 68.2892 4.4234 68.2892 5.16963C68.2892 5.5133 68.4119 5.75877 68.6574 5.90605C68.9029 6.04352 69.4626 6.1908 70.3364 6.3479C71.2103 6.49519 71.8289 6.70629 72.1922 6.98122C72.5555 7.25615 72.7372 7.77165 72.7372 8.5277C72.7372 9.28376 72.4917 9.83853 72.0008 10.192C71.5196 10.5455 70.8127 10.7222 69.8799 10.7222C69.2711 10.7222 68.5543 10.6535 67.7295 10.516L67.2877 10.4424L67.3466 9.48505C68.4659 9.65197 69.3104 9.73543 69.8799 9.73543C70.4494 9.73543 70.8814 9.64706 71.176 9.47032C71.4804 9.28376 71.6325 8.97937 71.6325 8.55716C71.6325 8.12513 71.5049 7.83547 71.2496 7.68819C70.9943 7.53108 70.4346 7.3838 69.5706 7.24633C68.7065 7.10887 68.0928 6.90758 67.7295 6.64247C67.3662 6.37736 67.1846 5.88641 67.1846 5.16963C67.1846 4.45285 67.435 3.92263 67.9357 3.57897C68.4463 3.23531 69.0796 3.06348 69.8357 3.06348C70.4346 3.06348 71.1858 3.13221 72.0891 3.26967L72.5015 3.34332L72.4721 4.28593C71.3822 4.12883 70.523 4.05028 69.8946 4.05028Z" fill="#727272"/>
<path d="M59.8711 3.21069H60.9757L62.8168 9.61753H63.3028L65.1586 3.21069H66.2632L63.1997 13.8446H62.0951L63.0524 10.5749H61.9625L59.8711 3.21069Z" fill="#727272"/>
<path d="M57.2432 10.575V0H58.3478V10.575H57.2432Z" fill="#727272"/>
<path d="M54.9751 5.43474V9.20521C55.0046 9.56851 55.2893 9.78452 55.8294 9.85326L55.7852 10.7222C55.0095 10.7222 54.4253 10.5259 54.0325 10.1331C53.1488 10.5259 52.2651 10.7222 51.3814 10.7222C50.7039 10.7222 50.1884 10.5308 49.8349 10.1478C49.4814 9.76489 49.3047 9.21503 49.3047 8.49825C49.3047 7.78147 49.4863 7.25615 49.8496 6.92231C50.2129 6.57865 50.7824 6.36754 51.5581 6.28899L53.8705 6.06806V5.43474C53.8705 4.93398 53.7625 4.57559 53.5465 4.35957C53.3304 4.14356 53.0359 4.03555 52.6628 4.03555C51.8772 4.03555 51.0623 4.08464 50.2178 4.18283L49.7613 4.22702L49.7171 3.3875C50.7972 3.17148 51.7545 3.06348 52.5891 3.06348C53.4237 3.06348 54.0276 3.25495 54.4007 3.63788C54.7836 4.02082 54.9751 4.61977 54.9751 5.43474ZM50.4388 8.43933C50.4388 9.34267 50.8119 9.79434 51.5581 9.79434C52.2258 9.79434 52.8837 9.68143 53.5317 9.45559L53.8705 9.33776V6.90758L51.6907 7.11378C51.2488 7.15305 50.9297 7.2807 50.7333 7.49672C50.537 7.71273 50.4388 8.02694 50.4388 8.43933Z" fill="#727272"/>
<path d="M42.9699 10.5749H41.8652V3.21076H42.9551V3.72625C43.7505 3.2844 44.5114 3.06348 45.238 3.06348C46.2199 3.06348 46.8778 3.32859 47.2116 3.85881C47.5553 4.38903 47.7271 5.33165 47.7271 6.68666V10.5749H46.6372V6.71611C46.6372 5.69495 46.5341 4.9978 46.3279 4.62468C46.1316 4.24175 45.7044 4.05028 45.0466 4.05028C44.7324 4.05028 44.3985 4.09937 44.045 4.19756C43.7014 4.28593 43.4363 4.3743 43.2497 4.46267L42.9699 4.59523V10.5749Z" fill="#727272"/>
<path d="M32.3848 10.5748L35.1832 0.382812H37.6575L40.4559 10.5748H39.3366L38.6001 7.9532H34.2405L33.5041 10.5748H32.3848ZM36.0374 1.35489L34.4909 6.93694H38.3498L36.8033 1.35489H36.0374Z" fill="#727272"/>
<path d="M27.6758 5.43474V9.20521C27.7053 9.56851 27.99 9.78452 28.53 9.85326L28.4859 10.7222C27.7102 10.7222 27.1259 10.5259 26.7332 10.1331C25.8495 10.5259 24.9658 10.7222 24.0821 10.7222C23.4046 10.7222 22.8891 10.5308 22.5356 10.1478C22.1821 9.76489 22.0054 9.21503 22.0054 8.49825C22.0054 7.78147 22.187 7.25615 22.5503 6.92231C22.9136 6.57865 23.4831 6.36754 24.2588 6.28899L26.5712 6.06806V5.43474C26.5712 4.93398 26.4632 4.57559 26.2471 4.35957C26.0311 4.14356 25.7366 4.03555 25.3634 4.03555C24.5779 4.03555 23.763 4.08464 22.9185 4.18283L22.462 4.22702L22.4178 3.3875C23.4978 3.17148 24.4552 3.06348 25.2898 3.06348C26.1244 3.06348 26.7283 3.25495 27.1014 3.63788C27.4843 4.02082 27.6758 4.61977 27.6758 5.43474ZM23.1395 8.43933C23.1395 9.34267 23.5126 9.79434 24.2588 9.79434C24.9265 9.79434 25.5844 9.68143 26.2324 9.45559L26.5712 9.33776V6.90758L24.3914 7.11378C23.9495 7.15305 23.6304 7.2807 23.434 7.49672C23.2376 7.71273 23.1395 8.02694 23.1395 8.43933Z" fill="#727272"/>
<path d="M21.1278 4.16806H18.786V7.68814C18.786 8.53257 18.8449 9.08734 18.9627 9.35245C19.0904 9.61756 19.385 9.75011 19.8464 9.75011L21.1573 9.66174L21.2309 10.5749C20.573 10.6829 20.0723 10.7369 19.7286 10.7369C18.9627 10.7369 18.4325 10.5504 18.138 10.1772C17.8434 9.80412 17.6961 9.09225 17.6961 8.04162V4.16806H16.6504V3.21072H17.6961V0.957275H18.786V3.21072H21.1278V4.16806Z" fill="#727272"/>
<path d="M15.1338 5.43474V9.20521C15.1633 9.56851 15.448 9.78452 15.988 9.85326L15.9439 10.7222C15.1682 10.7222 14.5839 10.5259 14.1912 10.1331C13.3075 10.5259 12.4238 10.7222 11.5401 10.7222C10.8626 10.7222 10.3471 10.5308 9.9936 10.1478C9.64012 9.76489 9.46338 9.21503 9.46338 8.49825C9.46338 7.78147 9.64503 7.25615 10.0083 6.92231C10.3716 6.57865 10.9411 6.36754 11.7168 6.28899L14.0292 6.06806V5.43474C14.0292 4.93398 13.9212 4.57559 13.7051 4.35957C13.4891 4.14356 13.1946 4.03555 12.8214 4.03555C12.0359 4.03555 11.221 4.08464 10.3765 4.18283L9.91996 4.22702L9.87577 3.3875C10.9559 3.17148 11.9132 3.06348 12.7478 3.06348C13.5824 3.06348 14.1863 3.25495 14.5594 3.63788C14.9423 4.02082 15.1338 4.61977 15.1338 5.43474ZM10.5975 8.43933C10.5975 9.34267 10.9706 9.79434 11.7168 9.79434C12.3845 9.79434 13.0424 9.68143 13.6904 9.45559L14.0292 9.33776V6.90758L11.8494 7.11378C11.4075 7.15305 11.0884 7.2807 10.892 7.49672C10.6957 7.71273 10.5975 8.02694 10.5975 8.43933Z" fill="#727272"/>
<path d="M4.27121 10.5748H0.633301V0.382812H4.27121C5.93061 0.382812 7.03032 1.04068 7.57036 2.35641C7.88457 3.11247 8.04167 4.10418 8.04167 5.33155C8.04167 7.89428 7.40344 9.50949 6.12698 10.1772C5.6164 10.4423 4.99781 10.5748 4.27121 10.5748ZM6.87813 5.33155C6.87813 3.37758 6.44119 2.16004 5.56731 1.67891C5.21382 1.48253 4.78179 1.38434 4.27121 1.38434H1.76739V9.57332H4.27121C6.00916 9.57332 6.87813 8.15939 6.87813 5.33155Z" fill="#727272"/>
</svg>
