<svg width="124" height="36" viewBox="0 0 124 36" fill="none" xmlns="http://www.w3.org/2000/svg">
<path d="M123.363 26.1681H121.021V29.6881C121.021 30.5326 121.08 31.0873 121.198 31.3524C121.325 31.6176 121.62 31.7501 122.081 31.7501L123.392 31.6617L123.466 32.5749C122.808 32.6829 122.307 32.7369 121.963 32.7369C121.198 32.7369 120.667 32.5504 120.373 32.1772C120.078 31.8041 119.931 31.0922 119.931 30.0416V26.1681H118.885V25.2107H119.931V22.9573H121.021V25.2107H123.363V26.1681Z" fill="#727272"/>
<path d="M112.785 32.5749H111.681V25.2108H112.771V25.7263C113.566 25.2844 114.327 25.0635 115.053 25.0635C116.035 25.0635 116.693 25.3286 117.027 25.8588C117.371 26.389 117.543 27.3316 117.543 28.6867V32.5749H116.453V28.7161C116.453 27.6949 116.35 26.9978 116.143 26.6247C115.947 26.2417 115.52 26.0503 114.862 26.0503C114.548 26.0503 114.214 26.0994 113.86 26.1976C113.517 26.2859 113.252 26.3743 113.065 26.4627L112.785 26.5952V32.5749Z" fill="#727272"/>
<path d="M109.252 31.6618L109.679 31.6176L109.709 32.4866C108.589 32.6437 107.632 32.7222 106.837 32.7222C105.776 32.7222 105.025 32.4178 104.583 31.8091C104.141 31.1905 103.92 30.2331 103.92 28.937C103.92 26.3547 104.946 25.0635 106.999 25.0635C107.99 25.0635 108.732 25.3433 109.223 25.903C109.714 26.4529 109.959 27.3218 109.959 28.5099L109.9 29.3494H105.04C105.04 30.1644 105.187 30.7683 105.482 31.161C105.776 31.5538 106.287 31.7502 107.013 31.7502C107.75 31.7502 108.496 31.7207 109.252 31.6618ZM108.854 28.4657C108.854 27.5624 108.707 26.9242 108.413 26.551C108.128 26.1779 107.657 25.9914 106.999 25.9914C106.351 25.9914 105.86 26.1877 105.526 26.5805C105.202 26.9733 105.035 27.6017 105.025 28.4657H108.854Z" fill="#727272"/>
<path d="M93.0372 32.5749H91.9326V25.2108H93.0225V25.7263C93.7589 25.2844 94.4757 25.0635 95.1729 25.0635C96.086 25.0635 96.7242 25.3139 97.0875 25.8146C97.4116 25.6182 97.8289 25.4464 98.3395 25.2991C98.8599 25.142 99.3164 25.0635 99.7092 25.0635C100.691 25.0635 101.349 25.3286 101.683 25.8588C102.026 26.3792 102.198 27.3218 102.198 28.6867V32.5749H101.094V28.7161C101.094 27.6949 100.995 26.9978 100.799 26.6247C100.603 26.2417 100.185 26.0503 99.5472 26.0503C99.2232 26.0503 98.8893 26.0994 98.5457 26.1976C98.202 26.2859 97.9369 26.3743 97.7503 26.4627L97.4705 26.5952C97.5981 26.9193 97.662 27.636 97.662 28.7456V32.5749H96.5573V28.775C96.5573 27.7146 96.4591 26.9978 96.2628 26.6247C96.0762 26.2417 95.6589 26.0503 95.0108 26.0503C94.6966 26.0503 94.3726 26.0994 94.0388 26.1976C93.7148 26.2859 93.4644 26.3743 93.2876 26.4627L93.0372 26.5952V32.5749Z" fill="#727272"/>
<path d="M84.1206 25.2107H85.2252L87.0663 31.6175H87.5523L89.4081 25.2107H90.5127L87.4492 35.8446H86.3446L87.3019 32.5749H86.212L84.1206 25.2107Z" fill="#727272"/>
<path d="M76.8516 28.8781C76.8516 27.5329 77.0921 26.5609 77.5732 25.9619C78.0544 25.363 78.8644 25.0635 80.0034 25.0635C81.1522 25.0635 81.9623 25.363 82.4336 25.9619C82.9147 26.5609 83.1553 27.5329 83.1553 28.8781C83.1553 30.2233 82.9295 31.2003 82.4778 31.8091C82.0261 32.4178 81.2013 32.7222 80.0034 32.7222C78.8055 32.7222 77.9807 32.4178 77.5291 31.8091C77.0774 31.2003 76.8516 30.2233 76.8516 28.8781ZM77.9856 28.8634C77.9856 29.9337 78.1133 30.6848 78.3686 31.1168C78.6337 31.5489 79.1786 31.7649 80.0034 31.7649C80.838 31.7649 81.383 31.5538 81.6383 31.1316C81.8936 30.6995 82.0212 29.9435 82.0212 28.8634C82.0212 27.7833 81.8788 27.042 81.5941 26.6394C81.3094 26.227 80.7791 26.0208 80.0034 26.0208C79.2376 26.0208 78.7073 26.227 78.4128 26.6394C78.128 27.042 77.9856 27.7833 77.9856 28.8634Z" fill="#727272"/>
<path d="M73.855 32.575V22H74.9596V32.575H73.855Z" fill="#727272"/>
<path d="M65.9995 35.8446V25.2108H67.0894V25.741C67.8357 25.2893 68.5721 25.0635 69.2987 25.0635C70.2315 25.0635 70.909 25.363 71.3312 25.9619C71.7534 26.551 71.9645 27.528 71.9645 28.8929C71.9645 30.2577 71.7141 31.2396 71.2134 31.8385C70.7224 32.4277 69.9025 32.7222 68.7537 32.7222C68.1548 32.7222 67.6049 32.6682 67.1041 32.5602V35.8446H65.9995ZM69.1367 26.0503C68.8421 26.0503 68.523 26.0994 68.1793 26.1976C67.8455 26.2958 67.5804 26.3939 67.384 26.4921L67.1041 26.6394V31.6029C67.8013 31.7109 68.3315 31.7649 68.6948 31.7649C69.4901 31.7649 70.0449 31.5391 70.3591 31.0874C70.6831 30.6357 70.8451 29.8993 70.8451 28.8781C70.8451 27.857 70.6979 27.1304 70.4033 26.6983C70.1185 26.2663 69.6963 26.0503 69.1367 26.0503Z" fill="#727272"/>
<path d="M63.5714 31.6618L63.9985 31.6176L64.028 32.4866C62.9086 32.6437 61.9513 32.7222 61.156 32.7222C60.0955 32.7222 59.3444 32.4178 58.9025 31.8091C58.4607 31.1905 58.2397 30.2331 58.2397 28.937C58.2397 26.3547 59.2658 25.0635 61.318 25.0635C62.3097 25.0635 63.051 25.3433 63.542 25.903C64.0329 26.4529 64.2784 27.3218 64.2784 28.5099L64.2195 29.3494H59.3591C59.3591 30.1644 59.5064 30.7683 59.801 31.161C60.0955 31.5538 60.6061 31.7502 61.3327 31.7502C62.0691 31.7502 62.8154 31.7207 63.5714 31.6618ZM63.1738 28.4657C63.1738 27.5624 63.0265 26.9242 62.7319 26.551C62.4471 26.1779 61.9758 25.9914 61.318 25.9914C60.6699 25.9914 60.179 26.1877 59.8451 26.5805C59.5211 26.9733 59.3542 27.6017 59.3444 28.4657H63.1738Z" fill="#727272"/>
<path d="M52.9001 32.5748H49.2622V22.3828H52.9001C54.5595 22.3828 55.6592 23.0407 56.1993 24.3564C56.5135 25.1125 56.6706 26.1042 56.6706 27.3315C56.6706 29.8943 56.0323 31.5095 54.7559 32.1772C54.2453 32.4423 53.6267 32.5748 52.9001 32.5748ZM55.507 27.3315C55.507 25.3776 55.0701 24.16 54.1962 23.6789C53.8427 23.4825 53.4107 23.3843 52.9001 23.3843H50.3963V31.5733H52.9001C54.6381 31.5733 55.507 30.1594 55.507 27.3315Z" fill="#727272"/>
<path d="M36.6958 24.4153C36.6958 23.7574 36.9217 23.2321 37.3733 22.8394C37.825 22.4466 38.4632 22.2502 39.288 22.2502C40.1128 22.2502 40.7363 22.4466 41.1585 22.8394C41.5906 23.2321 41.8066 23.7771 41.8066 24.4742C41.8066 25.1616 41.6347 25.7065 41.2911 26.1091C40.9474 26.5018 40.3632 26.8897 39.5384 27.2726L41.7771 29.4819C41.9931 28.8535 42.1306 28.0581 42.1895 27.0959L43.2647 27.1106C43.137 28.338 42.9112 29.3591 42.5872 30.1741L44.4871 31.971L43.8244 32.7074L42.0422 31.0431C41.3647 32.1624 40.3386 32.7221 38.964 32.7221C37.5893 32.7221 36.6271 32.457 36.0772 31.9268C35.5274 31.3966 35.2524 30.6651 35.2524 29.7323C35.2524 28.7896 35.4292 28.1023 35.7827 27.6703C36.146 27.2284 36.7302 26.875 37.5353 26.6098C37.1917 26.2171 36.9658 25.8685 36.8578 25.5641C36.7498 25.2597 36.6958 24.8768 36.6958 24.4153ZM38.7873 31.7206C39.995 31.7206 40.8247 31.2787 41.2763 30.395L38.1687 27.3021C37.5206 27.5083 37.0591 27.7734 36.7842 28.0974C36.5093 28.4214 36.3718 28.9222 36.3718 29.5997C36.3718 31.0136 37.1769 31.7206 38.7873 31.7206ZM37.8004 24.5921C37.8004 25.191 38.0214 25.7261 38.4632 26.1974L38.8904 26.6098C39.5679 26.3153 40.0392 26.0256 40.3043 25.7409C40.5694 25.4561 40.7019 25.0634 40.7019 24.5626C40.7019 23.6593 40.2159 23.2076 39.2438 23.2076C38.2816 23.2076 37.8004 23.6691 37.8004 24.5921Z" fill="#727272"/>
<path d="M123.363 4.16806H121.021V7.68814C121.021 8.53257 121.08 9.08734 121.198 9.35245C121.325 9.61756 121.62 9.75011 122.081 9.75011L123.392 9.66174L123.466 10.5749C122.808 10.6829 122.307 10.7369 121.963 10.7369C121.198 10.7369 120.667 10.5504 120.373 10.1772C120.078 9.80412 119.931 9.09225 119.931 8.04162V4.16806H118.885V3.21072H119.931V0.957275H121.021V3.21072H123.363V4.16806Z" fill="#727272"/>
<path d="M112.785 10.5749H111.681V3.21076H112.771V3.72625C113.566 3.2844 114.327 3.06348 115.053 3.06348C116.035 3.06348 116.693 3.32859 117.027 3.85881C117.371 4.38903 117.543 5.33165 117.543 6.68666V10.5749H116.453V6.71611C116.453 5.69495 116.35 4.9978 116.143 4.62468C115.947 4.24175 115.52 4.05028 114.862 4.05028C114.548 4.05028 114.214 4.09937 113.86 4.19756C113.517 4.28593 113.252 4.3743 113.065 4.46267L112.785 4.59523V10.5749Z" fill="#727272"/>
<path d="M109.252 9.66179L109.679 9.6176L109.709 10.4866C108.589 10.6437 107.632 10.7222 106.837 10.7222C105.776 10.7222 105.025 10.4178 104.583 9.80907C104.141 9.19048 103.92 8.23314 103.92 6.93704C103.92 4.35466 104.946 3.06348 106.999 3.06348C107.99 3.06348 108.732 3.34332 109.223 3.90299C109.714 4.45285 109.959 5.32183 109.959 6.50992L109.9 7.34943H105.04C105.04 8.1644 105.187 8.76827 105.482 9.16102C105.776 9.55378 106.287 9.75016 107.013 9.75016C107.75 9.75016 108.496 9.7207 109.252 9.66179ZM108.854 6.46573C108.854 5.56239 108.707 4.92416 108.413 4.55104C108.128 4.17792 107.657 3.99136 106.999 3.99136C106.351 3.99136 105.86 4.18774 105.526 4.5805C105.202 4.97326 105.035 5.60167 105.025 6.46573H108.854Z" fill="#727272"/>
<path d="M93.0372 10.5749H91.9326V3.21076H93.0225V3.72625C93.7589 3.2844 94.4757 3.06348 95.1729 3.06348C96.086 3.06348 96.7242 3.31386 97.0875 3.81462C97.4116 3.61825 97.8289 3.44641 98.3395 3.29913C98.8599 3.14203 99.3164 3.06348 99.7092 3.06348C100.691 3.06348 101.349 3.32859 101.683 3.85881C102.026 4.37921 102.198 5.32183 102.198 6.68666V10.5749H101.094V6.71611C101.094 5.69495 100.995 4.9978 100.799 4.62468C100.603 4.24175 100.185 4.05028 99.5472 4.05028C99.2232 4.05028 98.8893 4.09937 98.5457 4.19756C98.202 4.28593 97.9369 4.3743 97.7503 4.46267L97.4705 4.59523C97.5981 4.91925 97.662 5.63603 97.662 6.74557V10.5749H96.5573V6.77503C96.5573 5.71458 96.4591 4.9978 96.2628 4.62468C96.0762 4.24175 95.6589 4.05028 95.0108 4.05028C94.6966 4.05028 94.3726 4.09937 94.0388 4.19756C93.7148 4.28593 93.4644 4.3743 93.2876 4.46267L93.0372 4.59523V10.5749Z" fill="#727272"/>
<path d="M84.1655 13.8446V3.21076H85.2554V3.74098C86.0017 3.28931 86.7381 3.06348 87.4647 3.06348C88.3975 3.06348 89.075 3.36295 89.4972 3.96191C89.9194 4.55104 90.1305 5.52802 90.1305 6.89285C90.1305 8.25768 89.8801 9.23957 89.3794 9.83853C88.8884 10.4277 88.0686 10.7222 86.9197 10.7222C86.3208 10.7222 85.7709 10.6682 85.2702 10.5602V13.8446H84.1655ZM87.3027 4.05028C87.0081 4.05028 86.689 4.09937 86.3453 4.19756C86.0115 4.29575 85.7464 4.39394 85.55 4.49213L85.2702 4.63941V9.60287C85.9673 9.71088 86.4975 9.76489 86.8608 9.76489C87.6562 9.76489 88.2109 9.53905 88.5251 9.08738C88.8492 8.63571 89.0112 7.89929 89.0112 6.87813C89.0112 5.85696 88.8639 5.13036 88.5693 4.69833C88.2846 4.26629 87.8624 4.05028 87.3027 4.05028Z" fill="#727272"/>
<path d="M76.0605 6.87813C76.0605 5.53293 76.3011 4.56086 76.7822 3.96191C77.2634 3.36295 78.0734 3.06348 79.2124 3.06348C80.3612 3.06348 81.1713 3.36295 81.6426 3.96191C82.1237 4.56086 82.3643 5.53293 82.3643 6.87813C82.3643 8.22332 82.1385 9.2003 81.6868 9.80907C81.2351 10.4178 80.4103 10.7222 79.2124 10.7222C78.0145 10.7222 77.1897 10.4178 76.7381 9.80907C76.2864 9.2003 76.0605 8.22332 76.0605 6.87813ZM77.1946 6.8634C77.1946 7.93366 77.3223 8.68481 77.5776 9.11684C77.8427 9.54887 78.3876 9.76489 79.2124 9.76489C80.047 9.76489 80.592 9.55378 80.8473 9.13157C81.1026 8.69953 81.2302 7.94348 81.2302 6.8634C81.2302 5.78332 81.0878 5.04199 80.8031 4.63941C80.5183 4.22702 79.9881 4.02082 79.2124 4.02082C78.4465 4.02082 77.9163 4.22702 77.6217 4.63941C77.337 5.04199 77.1946 5.78332 77.1946 6.8634Z" fill="#727272"/>
<path d="M73.064 10.575V0H74.1686V10.575H73.064Z" fill="#727272"/>
<path d="M70.547 9.66179L70.9741 9.6176L71.0036 10.4866C69.8842 10.6437 68.9269 10.7222 68.1315 10.7222C67.0711 10.7222 66.32 10.4178 65.8781 9.80907C65.4363 9.19048 65.2153 8.23314 65.2153 6.93704C65.2153 4.35466 66.2414 3.06348 68.2936 3.06348C69.2853 3.06348 70.0266 3.34332 70.5175 3.90299C71.0085 4.45285 71.254 5.32183 71.254 6.50992L71.1951 7.34943H66.3347C66.3347 8.1644 66.482 8.76827 66.7765 9.16102C67.0711 9.55378 67.5817 9.75016 68.3083 9.75016C69.0447 9.75016 69.7909 9.7207 70.547 9.66179ZM70.1493 6.46573C70.1493 5.56239 70.002 4.92416 69.7075 4.55104C69.4227 4.17792 68.9514 3.99136 68.2936 3.99136C67.6455 3.99136 67.1546 4.18774 66.8207 4.5805C66.4967 4.97326 66.3298 5.60167 66.32 6.46573H70.1493Z" fill="#727272"/>
<path d="M57.8857 3.21069H59.064L60.7872 9.61753H61.3322L63.1143 3.21069H64.2484L62.1717 10.5749H59.9624L57.8857 3.21069Z" fill="#727272"/>
<path d="M56.2648 9.66179L56.6919 9.6176L56.7214 10.4866C55.602 10.6437 54.6447 10.7222 53.8493 10.7222C52.7889 10.7222 52.0377 10.4178 51.5959 9.80907C51.154 9.19048 50.9331 8.23314 50.9331 6.93704C50.9331 4.35466 51.9592 3.06348 54.0113 3.06348C55.003 3.06348 55.7444 3.34332 56.2353 3.90299C56.7263 4.45285 56.9717 5.32183 56.9717 6.50992L56.9128 7.34943H52.0525C52.0525 8.1644 52.1997 8.76827 52.4943 9.16102C52.7889 9.55378 53.2995 9.75016 54.0261 9.75016C54.7625 9.75016 55.5087 9.7207 56.2648 9.66179ZM55.8671 6.46573C55.8671 5.56239 55.7198 4.92416 55.4253 4.55104C55.1405 4.17792 54.6692 3.99136 54.0113 3.99136C53.3633 3.99136 52.8723 4.18774 52.5385 4.5805C52.2145 4.97326 52.0476 5.60167 52.0377 6.46573H55.8671Z" fill="#727272"/>
<path d="M45.5935 10.5748H41.9556V0.382812H45.5935C47.2529 0.382812 48.3526 1.04068 48.8926 2.35641C49.2068 3.11247 49.3639 4.10418 49.3639 5.33155C49.3639 7.89428 48.7257 9.50949 47.4492 10.1772C46.9387 10.4423 46.3201 10.5748 45.5935 10.5748ZM48.2004 5.33155C48.2004 3.37758 47.7635 2.16004 46.8896 1.67891C46.5361 1.48253 46.1041 1.38434 45.5935 1.38434H43.0897V9.57332H45.5935C47.3314 9.57332 48.2004 8.15939 48.2004 5.33155Z" fill="#727272"/>
<path d="M35.2075 10.575V0H36.3121V10.575H35.2075Z" fill="#727272"/>
<path d="M32.6906 9.66179L33.1177 9.6176L33.1471 10.4866C32.0278 10.6437 31.0704 10.7222 30.2751 10.7222C29.2147 10.7222 28.4635 10.4178 28.0217 9.80907C27.5798 9.19048 27.3589 8.23314 27.3589 6.93704C27.3589 4.35466 28.385 3.06348 30.4371 3.06348C31.4288 3.06348 32.1702 3.34332 32.6611 3.90299C33.152 4.45285 33.3975 5.32183 33.3975 6.50992L33.3386 7.34943H28.4782C28.4782 8.1644 28.6255 8.76827 28.9201 9.16102C29.2147 9.55378 29.7252 9.75016 30.4518 9.75016C31.1883 9.75016 31.9345 9.7207 32.6906 9.66179ZM32.2929 6.46573C32.2929 5.56239 32.1456 4.92416 31.851 4.55104C31.5663 4.17792 31.095 3.99136 30.4371 3.99136C29.7891 3.99136 29.2981 4.18774 28.9643 4.5805C28.6403 4.97326 28.4733 5.60167 28.4635 6.46573H32.2929Z" fill="#727272"/>
<path d="M25.5427 0V10.575H24.4528V10.0742C23.6968 10.5062 22.9505 10.7223 22.2141 10.7223C21.8213 10.7223 21.4777 10.6732 21.1831 10.575C20.8885 10.4768 20.6136 10.3 20.3583 10.0448C19.8281 9.51453 19.563 8.53755 19.563 7.1138C19.563 5.68024 19.7986 4.64926 20.27 4.02085C20.7511 3.38262 21.5415 3.0635 22.6412 3.0635C23.2107 3.0635 23.8146 3.12732 24.4528 3.25497V0H25.5427ZM21.2126 9.24942C21.3697 9.43598 21.5366 9.56362 21.7133 9.63236C21.8901 9.70109 22.1159 9.73545 22.3908 9.73545C22.6756 9.73545 22.9898 9.69127 23.3335 9.6029C23.6869 9.50471 23.9619 9.41143 24.1582 9.32306L24.4528 9.1905V4.19759C23.8244 4.07976 23.2402 4.02085 22.7001 4.02085C21.9539 4.02085 21.4335 4.26141 21.1389 4.74254C20.8444 5.21384 20.6971 5.95026 20.6971 6.95179C20.6971 8.09079 20.8689 8.85666 21.2126 9.24942Z" fill="#727272"/>
<path d="M11.7817 6.87813C11.7817 5.53293 12.0223 4.56086 12.5034 3.96191C12.9846 3.36295 13.7946 3.06348 14.9336 3.06348C16.0824 3.06348 16.8925 3.36295 17.3638 3.96191C17.8449 4.56086 18.0855 5.53293 18.0855 6.87813C18.0855 8.22332 17.8596 9.2003 17.408 9.80907C16.9563 10.4178 16.1315 10.7222 14.9336 10.7222C13.7357 10.7222 12.9109 10.4178 12.4592 9.80907C12.0076 9.2003 11.7817 8.22332 11.7817 6.87813ZM12.9158 6.8634C12.9158 7.93366 13.0435 8.68481 13.2988 9.11684C13.5639 9.54887 14.1088 9.76489 14.9336 9.76489C15.7682 9.76489 16.3132 9.55378 16.5685 9.13157C16.8238 8.69953 16.9514 7.94348 16.9514 6.8634C16.9514 5.78332 16.809 5.04199 16.5243 4.63941C16.2395 4.22702 15.7093 4.02082 14.9336 4.02082C14.1677 4.02082 13.6375 4.22702 13.3429 4.63941C13.0582 5.04199 12.9158 5.78332 12.9158 6.8634Z" fill="#727272"/>
<path d="M0 10.5748V0.382812H2.04724L4.934 8.99891L7.82077 0.382812H9.86801V10.5748H8.73392V1.59054H8.52773L5.56732 10.2066H4.30068L1.34028 1.59054H1.13408V10.5748H0Z" fill="#727272"/>
</svg>
