<svg width="160" height="37" viewBox="0 0 160 37" fill="none" xmlns="http://www.w3.org/2000/svg">
<path d="M153.249 25.6357H154.353L156.194 32.0426H156.68L158.536 25.6357H159.641L156.577 36.2696H155.473L156.43 32.9999H155.34L153.249 25.6357Z" fill="#727272"/>
<path d="M152.592 26.5931H150.25V30.1132C150.25 30.9576 150.309 31.5124 150.427 31.7775C150.554 32.0426 150.849 32.1752 151.31 32.1752L152.621 32.0868L152.695 33C152.037 33.108 151.536 33.162 151.192 33.162C150.427 33.162 149.896 32.9754 149.602 32.6023C149.307 32.2292 149.16 31.5173 149.16 30.4667V26.5931H148.114V25.6358H149.16V23.3823H150.25V25.6358H152.592V26.5931Z" fill="#727272"/>
<path d="M146.392 32.0868L146.819 32.0427L146.848 32.9116C145.729 33.0687 144.772 33.1473 143.976 33.1473C142.916 33.1473 142.165 32.8429 141.723 32.2341C141.281 31.6155 141.06 30.6582 141.06 29.3621C141.06 26.7797 142.086 25.4885 144.138 25.4885C145.13 25.4885 145.871 25.7684 146.362 26.328C146.853 26.8779 147.099 27.7469 147.099 28.935L147.04 29.7745H142.179C142.179 30.5895 142.327 31.1933 142.621 31.5861C142.916 31.9788 143.426 32.1752 144.153 32.1752C144.889 32.1752 145.636 32.1458 146.392 32.0868ZM145.994 28.8908C145.994 27.9874 145.847 27.3492 145.552 26.9761C145.267 26.603 144.796 26.4164 144.138 26.4164C143.49 26.4164 142.999 26.6128 142.665 27.0056C142.341 27.3983 142.175 28.0267 142.165 28.8908H145.994Z" fill="#727272"/>
<path d="M138.052 26.5932V33.0001H136.947V26.5932H136.019V25.6359H136.947V24.9731C136.947 23.9323 137.094 23.2254 137.389 22.8522C137.683 22.4693 138.199 22.2778 138.935 22.2778L140.423 22.3809L140.408 23.2941C139.858 23.2745 139.402 23.2646 139.038 23.2646C138.685 23.2646 138.43 23.3825 138.272 23.6181C138.125 23.8538 138.052 24.3103 138.052 24.9879V25.6359H140.187V26.5932H138.052Z" fill="#727272"/>
<path d="M134.458 27.8598V31.6303C134.488 31.9936 134.773 32.2096 135.313 32.2783L135.269 33.1473C134.493 33.1473 133.909 32.9509 133.516 32.5581C132.632 32.9509 131.748 33.1473 130.865 33.1473C130.187 33.1473 129.672 32.9558 129.318 32.5729C128.965 32.1899 128.788 31.6401 128.788 30.9233C128.788 30.2065 128.97 29.6812 129.333 29.3474C129.696 29.0037 130.266 28.7926 131.042 28.714L133.354 28.4931V27.8598C133.354 27.359 133.246 27.0006 133.03 26.7846C132.814 26.5686 132.519 26.4606 132.146 26.4606C131.361 26.4606 130.546 26.5097 129.701 26.6079L129.245 26.6521L129.2 25.8125C130.281 25.5965 131.238 25.4885 132.073 25.4885C132.907 25.4885 133.511 25.68 133.884 26.0629C134.267 26.4459 134.458 27.0448 134.458 27.8598ZM129.922 30.8644C129.922 31.7677 130.295 32.2194 131.042 32.2194C131.709 32.2194 132.367 32.1065 133.015 31.8806L133.354 31.7628V29.3326L131.174 29.5388C130.732 29.5781 130.413 29.7058 130.217 29.9218C130.02 30.1378 129.922 30.452 129.922 30.8644Z" fill="#727272"/>
<path d="M124.281 23.6475C122.809 23.6475 122.072 24.2023 122.072 25.3118C122.072 25.9304 122.239 26.3575 122.573 26.5932C122.917 26.819 123.604 27.0498 124.635 27.2854C125.676 27.5113 126.412 27.8107 126.844 28.1839C127.276 28.5472 127.492 29.151 127.492 29.9955C127.492 32.0869 126.407 33.1326 124.237 33.1326C123.52 33.1326 122.622 33.0491 121.542 32.8822L121.012 32.8086L121.13 31.866C122.465 32.0427 123.481 32.1311 124.178 32.1311C125.632 32.1311 126.358 31.4487 126.358 30.0838C126.358 29.534 126.196 29.1412 125.872 28.9056C125.558 28.6601 124.964 28.4539 124.09 28.287C122.941 28.0415 122.126 27.7273 121.645 27.3443C121.164 26.9516 120.923 26.2986 120.923 25.3855C120.923 23.5592 122.018 22.646 124.208 22.646C124.925 22.646 125.784 22.7196 126.785 22.8669L127.286 22.9406L127.183 23.8979C125.818 23.731 124.851 23.6475 124.281 23.6475Z" fill="#727272"/>
<path d="M114.607 32.9999V22.8079H115.742V32.9999H114.607Z" fill="#727272"/>
<path d="M104.935 32.9999L107.733 22.8079H110.208L113.006 32.9999H111.887L111.15 30.3782H106.791L106.054 32.9999H104.935ZM108.588 23.7799L107.041 29.362H110.9L109.354 23.7799H108.588Z" fill="#727272"/>
<path d="M100.266 22.425V33H99.1759V32.4993C98.4199 32.9313 97.6737 33.1473 96.9372 33.1473C96.5445 33.1473 96.2008 33.0982 95.9062 33C95.6117 32.9018 95.3368 32.7251 95.0815 32.4698C94.5512 31.9396 94.2861 30.9626 94.2861 29.5389C94.2861 28.1053 94.5218 27.0743 94.9931 26.4459C95.4742 25.8077 96.2646 25.4886 97.3644 25.4886C97.9339 25.4886 98.5377 25.5524 99.1759 25.68V22.425H100.266ZM95.9357 31.6745C96.0928 31.861 96.2597 31.9887 96.4365 32.0574C96.6132 32.1261 96.839 32.1605 97.114 32.1605C97.3987 32.1605 97.7129 32.1163 98.0566 32.0279C98.4101 31.9298 98.685 31.8365 98.8814 31.7481L99.1759 31.6156V26.6226C98.5475 26.5048 97.9633 26.4459 97.4233 26.4459C96.677 26.4459 96.1566 26.6865 95.8621 27.1676C95.5675 27.6389 95.4202 28.3753 95.4202 29.3768C95.4202 30.5158 95.592 31.2817 95.9357 31.6745Z" fill="#727272"/>
<path d="M87.8038 33H86.6992V25.6358H87.7891V26.1513C88.5845 25.7095 89.3454 25.4885 90.072 25.4885C91.0539 25.4885 91.7118 25.7536 92.0456 26.2839C92.3893 26.8141 92.5611 27.7567 92.5611 29.1117V33H91.4712V29.1412C91.4712 28.12 91.3681 27.4229 91.1619 27.0497C90.9655 26.6668 90.5384 26.4753 89.8805 26.4753C89.5663 26.4753 89.2325 26.5244 88.879 26.6226C88.5354 26.711 88.2702 26.7994 88.0837 26.8877L87.8038 27.0203V33Z" fill="#727272"/>
<path d="M84.52 27.8598V31.6303C84.5495 31.9936 84.8342 32.2096 85.3743 32.2783L85.3301 33.1473C84.5544 33.1473 83.9702 32.9509 83.5774 32.5581C82.6937 32.9509 81.81 33.1473 80.9263 33.1473C80.2488 33.1473 79.7333 32.9558 79.3798 32.5729C79.0263 32.1899 78.8496 31.6401 78.8496 30.9233C78.8496 30.2065 79.0313 29.6812 79.3946 29.3474C79.7579 29.0037 80.3274 28.7926 81.1031 28.714L83.4154 28.4931V27.8598C83.4154 27.359 83.3074 27.0006 83.0914 26.7846C82.8754 26.5686 82.5808 26.4606 82.2077 26.4606C81.4222 26.4606 80.6072 26.5097 79.7628 26.6079L79.3062 26.6521L79.262 25.8125C80.3421 25.5965 81.2994 25.4885 82.134 25.4885C82.9686 25.4885 83.5725 25.68 83.9456 26.0629C84.3286 26.4459 84.52 27.0448 84.52 27.8598ZM79.9837 30.8644C79.9837 31.7677 80.3568 32.2194 81.1031 32.2194C81.7707 32.2194 82.4286 32.1065 83.0767 31.8806L83.4154 31.7628V29.3326L81.2356 29.5388C80.7938 29.5781 80.4746 29.7058 80.2783 29.9218C80.0819 30.1378 79.9837 30.452 79.9837 30.8644Z" fill="#727272"/>
<path d="M72.2456 34.8116L72.9231 31.4241H74.1456L73.1588 34.8116H72.2456Z" fill="#727272"/>
<path d="M68.0821 36.4612C66.9039 36.4612 66.0791 36.2992 65.6078 35.9751C65.1463 35.6609 64.9155 35.0816 64.9155 34.2372C64.9155 33.8346 65.0039 33.5057 65.1806 33.2504C65.3574 33.0049 65.6569 32.7251 66.0791 32.4109C65.8041 32.2243 65.6667 31.8855 65.6667 31.3946C65.6667 31.2277 65.7894 30.9184 66.0349 30.4667L66.1674 30.2311C65.3917 29.8776 65.0039 29.1363 65.0039 28.0071C65.0039 26.328 65.922 25.4885 67.7581 25.4885C68.2294 25.4885 68.6663 25.5376 69.0689 25.6358L69.2899 25.68L71.4697 25.6211V26.5637L70.0705 26.5342C70.3945 26.8583 70.5565 27.3492 70.5565 28.0071C70.5565 28.9301 70.3257 29.5781 69.8643 29.9512C69.4126 30.3145 68.6958 30.4962 67.7139 30.4962C67.4488 30.4962 67.2082 30.4765 66.9922 30.4373C66.8155 30.8693 66.7271 31.1491 66.7271 31.2768C66.7271 31.5812 66.8204 31.7726 67.007 31.8512C67.1935 31.9199 67.7581 31.9543 68.7007 31.9543C69.6433 31.9543 70.3208 32.1016 70.7332 32.3961C71.1456 32.6907 71.3518 33.2651 71.3518 34.1194C71.3518 35.6806 70.2619 36.4612 68.0821 36.4612ZM66.0054 34.1488C66.0054 34.6692 66.1478 35.0276 66.4325 35.224C66.7271 35.4302 67.2622 35.5333 68.0379 35.5333C68.8235 35.5333 69.3831 35.4253 69.717 35.2093C70.0606 34.9932 70.2325 34.6299 70.2325 34.1194C70.2325 33.6186 70.1097 33.2946 69.8643 33.1473C69.6188 33 69.1377 32.9264 68.4209 32.9264L66.8302 32.8527C66.5062 33.0884 66.2853 33.2946 66.1674 33.4713C66.0594 33.648 66.0054 33.8739 66.0054 34.1488ZM66.1085 28.0071C66.1085 28.5864 66.2362 28.9988 66.4915 29.2443C66.7566 29.4897 67.1886 29.6125 67.7876 29.6125C68.3865 29.6125 68.8136 29.4897 69.0689 29.2443C69.3242 28.9988 69.4519 28.5864 69.4519 28.0071C69.4519 27.4179 69.3242 27.0006 69.0689 26.7552C68.8136 26.5097 68.3865 26.387 67.7876 26.387C67.1886 26.387 66.7566 26.5146 66.4915 26.7699C66.2362 27.0154 66.1085 27.4278 66.1085 28.0071Z" fill="#727272"/>
<path d="M58.4337 33H57.3291V25.6358H58.419V26.1513C59.2143 25.7095 59.9753 25.4885 60.7019 25.4885C61.6838 25.4885 62.3417 25.7536 62.6755 26.2839C63.0192 26.8141 63.191 27.7567 63.191 29.1117V33H62.1011V29.1412C62.1011 28.12 61.998 27.4229 61.7918 27.0497C61.5954 26.6668 61.1683 26.4753 60.5104 26.4753C60.1962 26.4753 59.8624 26.5244 59.5089 26.6226C59.1652 26.711 58.9001 26.7994 58.7136 26.8877L58.4337 27.0203V33Z" fill="#727272"/>
<path d="M54.1069 33V25.6359H55.2116V33H54.1069ZM54.1069 23.9716V22.6902H55.2116V23.9716H54.1069Z" fill="#727272"/>
<path d="M49.0156 33.0001V25.6359H50.1055V26.6374C50.9598 26.0483 51.8582 25.6604 52.8008 25.4739V26.5932C52.3884 26.6718 51.9564 26.7945 51.5047 26.9614C51.0629 27.1284 50.7241 27.2756 50.4885 27.4033L50.1203 27.5948V33.0001H49.0156Z" fill="#727272"/>
<path d="M40.9102 29.3032C40.9102 27.958 41.1507 26.9859 41.6318 26.387C42.113 25.788 42.923 25.4885 44.062 25.4885C45.2108 25.4885 46.0209 25.788 46.4922 26.387C46.9733 26.9859 47.2139 27.958 47.2139 29.3032C47.2139 30.6484 46.9881 31.6253 46.5364 32.2341C46.0847 32.8429 45.2599 33.1473 44.062 33.1473C42.8641 33.1473 42.0393 32.8429 41.5877 32.2341C41.136 31.6253 40.9102 30.6484 40.9102 29.3032ZM42.0442 29.2884C42.0442 30.3587 42.1719 31.1099 42.4272 31.5419C42.6923 31.9739 43.2372 32.1899 44.062 32.1899C44.8966 32.1899 45.4416 31.9788 45.6969 31.5566C45.9522 31.1246 46.0798 30.3685 46.0798 29.2884C46.0798 28.2084 45.9374 27.467 45.6527 27.0645C45.3679 26.6521 44.8377 26.4459 44.062 26.4459C43.2962 26.4459 42.7659 26.6521 42.4714 27.0645C42.1866 27.467 42.0442 28.2084 42.0442 29.2884Z" fill="#727272"/>
<path d="M39.8851 26.5931H37.5433V30.1132C37.5433 30.9576 37.6022 31.5124 37.7201 31.7775C37.8477 32.0426 38.1423 32.1752 38.6038 32.1752L39.9146 32.0868L39.9882 33C39.3304 33.108 38.8296 33.162 38.4859 33.162C37.7201 33.162 37.1898 32.9754 36.8953 32.6023C36.6007 32.2292 36.4534 31.5173 36.4534 30.4667V26.5931H35.4077V25.6358H36.4534V23.3823H37.5433V25.6358H39.8851V26.5931Z" fill="#727272"/>
<path d="M32.8486 33V25.6359H33.9533V33H32.8486ZM32.8486 23.9716V22.6902H33.9533V23.9716H32.8486Z" fill="#727272"/>
<path d="M26.0426 33H24.938V25.6358H26.0279V26.1513C26.8232 25.7095 27.5842 25.4885 28.3108 25.4885C29.2927 25.4885 29.9505 25.7536 30.2844 26.2839C30.628 26.8141 30.7999 27.7567 30.7999 29.1117V33H29.71V29.1412C29.71 28.12 29.6069 27.4229 29.4007 27.0497C29.2043 26.6668 28.7772 26.4753 28.1193 26.4753C27.8051 26.4753 27.4713 26.5244 27.1178 26.6226C26.7741 26.711 26.509 26.7994 26.3225 26.8877L26.0426 27.0203V33Z" fill="#727272"/>
<path d="M16.8325 29.3032C16.8325 27.958 17.0731 26.9859 17.5542 26.387C18.0353 25.788 18.8454 25.4885 19.9844 25.4885C21.1332 25.4885 21.9433 25.788 22.4146 26.387C22.8957 26.9859 23.1363 27.958 23.1363 29.3032C23.1363 30.6484 22.9104 31.6253 22.4588 32.2341C22.0071 32.8429 21.1823 33.1473 19.9844 33.1473C18.7865 33.1473 17.9617 32.8429 17.51 32.2341C17.0584 31.6253 16.8325 30.6484 16.8325 29.3032ZM17.9666 29.2884C17.9666 30.3587 18.0943 31.1099 18.3495 31.5419C18.6147 31.9739 19.1596 32.1899 19.9844 32.1899C20.819 32.1899 21.3639 31.9788 21.6192 31.5566C21.8745 31.1246 22.0022 30.3685 22.0022 29.2884C22.0022 28.2084 21.8598 27.467 21.5751 27.0645C21.2903 26.6521 20.7601 26.4459 19.9844 26.4459C19.2185 26.4459 18.6883 26.6521 18.3937 27.0645C18.109 27.467 17.9666 28.2084 17.9666 29.2884Z" fill="#727272"/>
<path d="M5.05078 32.9999V22.8079H7.09802L9.98479 31.424L12.8715 22.8079H14.9188V32.9999H13.7847V24.0156H13.5785L10.6181 32.6317H9.35147L6.39106 24.0156H6.18487V32.9999H5.05078Z" fill="#727272"/>
<path d="M157.221 12.8116L157.899 9.42407H159.121L158.134 12.8116H157.221Z" fill="#727272"/>
<path d="M156.432 4.59311H154.09V8.11319C154.09 8.95762 154.149 9.51239 154.267 9.7775C154.395 10.0426 154.689 10.1752 155.151 10.1752L156.461 10.0868L156.535 11C155.877 11.108 155.376 11.162 155.033 11.162C154.267 11.162 153.737 10.9754 153.442 10.6023C153.148 10.2292 153 9.5173 153 8.46667V4.59311H151.955V3.63577H153V1.38232H154.09V3.63577H156.432V4.59311Z" fill="#727272"/>
<path d="M145.855 11H144.75V3.63581H145.84V4.1513C146.635 3.70945 147.396 3.48853 148.123 3.48853C149.105 3.48853 149.763 3.75364 150.096 4.28386C150.44 4.81408 150.612 5.75669 150.612 7.1117V11H149.522V7.14116C149.522 6.11999 149.419 5.42285 149.213 5.04973C149.016 4.6668 148.589 4.47533 147.931 4.47533C147.617 4.47533 147.283 4.52442 146.93 4.62261C146.586 4.71098 146.321 4.79935 146.134 4.88772L145.855 5.02028V11Z" fill="#727272"/>
<path d="M142.321 10.0868L142.749 10.0427L142.778 10.9116C141.659 11.0687 140.701 11.1473 139.906 11.1473C138.846 11.1473 138.094 10.8429 137.653 10.2341C137.211 9.61553 136.99 8.65818 136.99 7.36209C136.99 4.77971 138.016 3.48853 140.068 3.48853C141.06 3.48853 141.801 3.76836 142.292 4.32804C142.783 4.8779 143.028 5.74688 143.028 6.93496L142.969 7.77448H138.109C138.109 8.58945 138.256 9.19332 138.551 9.58607C138.846 9.97883 139.356 10.1752 140.083 10.1752C140.819 10.1752 141.565 10.1457 142.321 10.0868ZM141.924 6.89078C141.924 5.98744 141.776 5.34921 141.482 4.97609C141.197 4.60297 140.726 4.41641 140.068 4.41641C139.42 4.41641 138.929 4.61279 138.595 5.00555C138.271 5.3983 138.104 6.02672 138.094 6.89078H141.924Z" fill="#727272"/>
<path d="M126.107 11H125.002V3.63581H126.092V4.1513C126.828 3.70945 127.545 3.48853 128.242 3.48853C129.155 3.48853 129.794 3.73891 130.157 4.23967C130.481 4.04329 130.898 3.87146 131.409 3.72418C131.929 3.56708 132.386 3.48853 132.779 3.48853C133.76 3.48853 134.418 3.75364 134.752 4.28386C135.096 4.80426 135.268 5.74688 135.268 7.1117V11H134.163V7.14116C134.163 6.11999 134.065 5.42285 133.868 5.04973C133.672 4.6668 133.255 4.47533 132.617 4.47533C132.293 4.47533 131.959 4.52442 131.615 4.62261C131.271 4.71098 131.006 4.79935 130.82 4.88772L130.54 5.02028C130.667 5.3443 130.731 6.06108 130.731 7.17062V11H129.627V7.20008C129.627 6.13963 129.528 5.42285 129.332 5.04973C129.146 4.6668 128.728 4.47533 128.08 4.47533C127.766 4.47533 127.442 4.52442 127.108 4.62261C126.784 4.71098 126.534 4.79935 126.357 4.88772L126.107 5.02028V11Z" fill="#727272"/>
<path d="M122.573 10.0868L123 10.0427L123.03 10.9116C121.911 11.0687 120.953 11.1473 120.158 11.1473C119.097 11.1473 118.346 10.8429 117.904 10.2341C117.463 9.61553 117.242 8.65818 117.242 7.36209C117.242 4.77971 118.268 3.48853 120.32 3.48853C121.312 3.48853 122.053 3.76836 122.544 4.32804C123.035 4.8779 123.28 5.74688 123.28 6.93496L123.221 7.77448H118.361C118.361 8.58945 118.508 9.19332 118.803 9.58607C119.097 9.97883 119.608 10.1752 120.335 10.1752C121.071 10.1752 121.817 10.1457 122.573 10.0868ZM122.176 6.89078C122.176 5.98744 122.028 5.34921 121.734 4.97609C121.449 4.60297 120.978 4.41641 120.32 4.41641C119.672 4.41641 119.181 4.61279 118.847 5.00555C118.523 5.3983 118.356 6.02672 118.346 6.89078H122.176Z" fill="#727272"/>
<path d="M109.912 3.63574H111.09L112.814 10.0426H113.359L115.141 3.63574H116.275L114.198 10.9999H111.989L109.912 3.63574Z" fill="#727272"/>
<path d="M102.628 7.30317C102.628 5.95798 102.869 4.98591 103.35 4.38696C103.831 3.788 104.641 3.48853 105.78 3.48853C106.929 3.48853 107.739 3.788 108.21 4.38696C108.692 4.98591 108.932 5.95798 108.932 7.30317C108.932 8.64837 108.706 9.62535 108.255 10.2341C107.803 10.8429 106.978 11.1473 105.78 11.1473C104.582 11.1473 103.758 10.8429 103.306 10.2341C102.854 9.62535 102.628 8.64837 102.628 7.30317ZM103.763 7.28845C103.763 8.35871 103.89 9.10985 104.145 9.54189C104.411 9.97392 104.955 10.1899 105.78 10.1899C106.615 10.1899 107.16 9.97883 107.415 9.55661C107.67 9.12458 107.798 8.36853 107.798 7.28845C107.798 6.20836 107.656 5.46704 107.371 5.06446C107.086 4.65207 106.556 4.44587 105.78 4.44587C105.014 4.44587 104.484 4.65207 104.19 5.06446C103.905 5.46704 103.763 6.20836 103.763 7.28845Z" fill="#727272"/>
<path d="M98.0044 11.0001V3.63589H99.0943V4.63742C99.9485 4.04828 100.847 3.66044 101.79 3.47388V4.59323C101.377 4.67178 100.945 4.79452 100.493 4.96144C100.052 5.12836 99.7129 5.27565 99.4772 5.40329L99.109 5.59476V11.0001H98.0044Z" fill="#727272"/>
<path d="M90.2378 14.2697V3.63581H91.3277V4.16603C92.0739 3.71436 92.8103 3.48853 93.5369 3.48853C94.4697 3.48853 95.1473 3.788 95.5695 4.38696C95.9917 4.97609 96.2028 5.95307 96.2028 7.3179C96.2028 8.68273 95.9524 9.66462 95.4516 10.2636C94.9607 10.8527 94.1408 11.1473 92.992 11.1473C92.3931 11.1473 91.8432 11.0933 91.3424 10.9853V14.2697H90.2378ZM93.3749 4.47533C93.0804 4.47533 92.7613 4.52442 92.4176 4.62261C92.0838 4.7208 91.8186 4.81899 91.6223 4.91718L91.3424 5.06446V10.0279C92.0396 10.1359 92.5698 10.1899 92.9331 10.1899C93.7284 10.1899 94.2832 9.9641 94.5974 9.51243C94.9214 9.06076 95.0834 8.32434 95.0834 7.30317C95.0834 6.28201 94.9361 5.55541 94.6416 5.12337C94.3568 4.69134 93.9346 4.47533 93.3749 4.47533Z" fill="#727272"/>
<path d="M79.0304 11H77.9258V3.63581H79.0157V4.1513C79.7521 3.70945 80.4689 3.48853 81.166 3.48853C82.0792 3.48853 82.7174 3.73891 83.0807 4.23967C83.4047 4.04329 83.822 3.87146 84.3326 3.72418C84.853 3.56708 85.3096 3.48853 85.7024 3.48853C86.6843 3.48853 87.3421 3.75364 87.676 4.28386C88.0196 4.80426 88.1915 5.74688 88.1915 7.1117V11H87.0868V7.14116C87.0868 6.11999 86.9886 5.42285 86.7923 5.04973C86.5959 4.6668 86.1786 4.47533 85.5404 4.47533C85.2163 4.47533 84.8825 4.52442 84.5388 4.62261C84.1952 4.71098 83.9301 4.79935 83.7435 4.88772L83.4637 5.02028C83.5913 5.3443 83.6551 6.06108 83.6551 7.17062V11H82.5505V7.20008C82.5505 6.13963 82.4523 5.42285 82.2559 5.04973C82.0694 4.6668 81.6521 4.47533 81.004 4.47533C80.6898 4.47533 80.3658 4.52442 80.0319 4.62261C79.7079 4.71098 79.4575 4.79935 79.2808 4.88772L79.0304 5.02028V11Z" fill="#727272"/>
<path d="M74.4927 10.9999V0.807861H75.6268V10.9999H74.4927Z" fill="#727272"/>
<path d="M66.5308 4.47533C65.4606 4.47533 64.9254 4.84845 64.9254 5.59468C64.9254 5.93834 65.0482 6.18382 65.2936 6.3311C65.5391 6.46857 66.0988 6.61585 66.9727 6.77295C67.8466 6.92024 68.4652 7.13134 68.8285 7.40627C69.1918 7.6812 69.3734 8.19669 69.3734 8.95275C69.3734 9.70881 69.1279 10.2636 68.637 10.6171C68.1559 10.9705 67.4489 11.1473 66.5161 11.1473C65.9073 11.1473 65.1905 11.0785 64.3658 10.9411L63.9239 10.8674L63.9828 9.9101C65.1022 10.077 65.9466 10.1605 66.5161 10.1605C67.0856 10.1605 67.5176 10.0721 67.8122 9.89537C68.1166 9.70881 68.2688 9.40442 68.2688 8.98221C68.2688 8.55018 68.1411 8.26052 67.8858 8.11323C67.6305 7.95613 67.0709 7.80885 66.2068 7.67138C65.3427 7.53392 64.7291 7.33263 64.3658 7.06752C64.0025 6.80241 63.8208 6.31146 63.8208 5.59468C63.8208 4.8779 64.0712 4.34768 64.572 4.00402C65.0825 3.66036 65.7159 3.48853 66.4719 3.48853C67.0709 3.48853 67.822 3.55726 68.7253 3.69472L69.1377 3.76836L69.1083 4.71098C68.0184 4.55388 67.1592 4.47533 66.5308 4.47533Z" fill="#727272"/>
<path d="M60.9892 3.63574H62.0938V10.9999H60.9892V10.4844C60.2528 10.9263 59.5262 11.1472 58.8094 11.1472C57.8079 11.1472 57.1402 10.887 56.8063 10.3666C56.4823 9.84621 56.3203 8.88395 56.3203 7.47985V3.63574H57.4249V7.46512C57.4249 8.53538 57.5182 9.25216 57.7048 9.61546C57.8913 9.97876 58.3136 10.1604 58.9714 10.1604C59.2954 10.1604 59.6244 10.1162 59.9582 10.0279C60.2921 9.92967 60.5474 9.83639 60.7241 9.74802L60.9892 9.61546V3.63574Z" fill="#727272"/>
<path d="M48.2886 7.30317C48.2886 5.95798 48.5291 4.98591 49.0103 4.38696C49.4914 3.788 50.3015 3.48853 51.4404 3.48853C52.5893 3.48853 53.3993 3.788 53.8706 4.38696C54.3518 4.98591 54.5923 5.95798 54.5923 7.30317C54.5923 8.64837 54.3665 9.62535 53.9148 10.2341C53.4631 10.8429 52.6384 11.1473 51.4404 11.1473C50.2425 11.1473 49.4177 10.8429 48.9661 10.2341C48.5144 9.62535 48.2886 8.64837 48.2886 7.30317ZM49.4227 7.28845C49.4227 8.35871 49.5503 9.10985 49.8056 9.54189C50.0707 9.97392 50.6157 10.1899 51.4404 10.1899C52.2751 10.1899 52.82 9.97883 53.0753 9.55661C53.3306 9.12458 53.4582 8.36853 53.4582 7.28845C53.4582 6.20836 53.3159 5.46704 53.0311 5.06446C52.7464 4.65207 52.2161 4.44587 51.4404 4.44587C50.6746 4.44587 50.1443 4.65207 49.8498 5.06446C49.565 5.46704 49.4227 6.20836 49.4227 7.28845Z" fill="#727272"/>
<path d="M45.3837 3.63574H46.4884V10.9999H45.3837V10.4844C44.6473 10.9263 43.9207 11.1472 43.2039 11.1472C42.2024 11.1472 41.5347 10.887 41.2009 10.3666C40.8769 9.84621 40.7148 8.88395 40.7148 7.47985V3.63574H41.8195V7.46512C41.8195 8.53538 41.9128 9.25216 42.0993 9.61546C42.2859 9.97876 42.7081 10.1604 43.366 10.1604C43.69 10.1604 44.0189 10.1162 44.3528 10.0279C44.6866 9.92967 44.9419 9.83639 45.1186 9.74802L45.3837 9.61546V3.63574Z" fill="#727272"/>
<path d="M33.9821 11H32.8774V3.63581H33.9673V4.1513C34.7627 3.70945 35.5236 3.48853 36.2502 3.48853C37.2321 3.48853 37.89 3.75364 38.2238 4.28386C38.5675 4.81408 38.7393 5.75669 38.7393 7.1117V11H37.6494V7.14116C37.6494 6.11999 37.5463 5.42285 37.3401 5.04973C37.1438 4.6668 36.7166 4.47533 36.0588 4.47533C35.7446 4.47533 35.4107 4.52442 35.0572 4.62261C34.7136 4.71098 34.4485 4.79935 34.2619 4.88772L33.9821 5.02028V11Z" fill="#727272"/>
<path d="M29.6558 11V3.63586H30.7604V11H29.6558ZM29.6558 1.97155V0.690186H30.7604V1.97155H29.6558Z" fill="#727272"/>
<path d="M28.307 4.59311H25.9652V8.11319C25.9652 8.95762 26.0241 9.51239 26.1419 9.7775C26.2696 10.0426 26.5642 10.1752 27.0256 10.1752L28.3365 10.0868L28.4101 11C27.7522 11.108 27.2515 11.162 26.9078 11.162C26.1419 11.162 25.6117 10.9754 25.3172 10.6023C25.0226 10.2292 24.8753 9.5173 24.8753 8.46667V4.59311H23.8296V3.63577H24.8753V1.38232H25.9652V3.63577H28.307V4.59311Z" fill="#727272"/>
<path d="M17.7291 11H16.6245V3.63581H17.7144V4.1513C18.5097 3.70945 19.2707 3.48853 19.9973 3.48853C20.9792 3.48853 21.6371 3.75364 21.9709 4.28386C22.3146 4.81408 22.4864 5.75669 22.4864 7.1117V11H21.3965V7.14116C21.3965 6.11999 21.2934 5.42285 21.0872 5.04973C20.8908 4.6668 20.4637 4.47533 19.8058 4.47533C19.4916 4.47533 19.1578 4.52442 18.8043 4.62261C18.4606 4.71098 18.1955 4.79935 18.009 4.88772L17.7291 5.02028V11Z" fill="#727272"/>
<path d="M8.51904 7.30317C8.51904 5.95798 8.75961 4.98591 9.24073 4.38696C9.72186 3.788 10.5319 3.48853 11.6709 3.48853C12.8197 3.48853 13.6298 3.788 14.1011 4.38696C14.5822 4.98591 14.8228 5.95798 14.8228 7.30317C14.8228 8.64837 14.597 9.62535 14.1453 10.2341C13.6936 10.8429 12.8688 11.1473 11.6709 11.1473C10.473 11.1473 9.64822 10.8429 9.19655 10.2341C8.74488 9.62535 8.51904 8.64837 8.51904 7.30317ZM9.65313 7.28845C9.65313 8.35871 9.78077 9.10985 10.0361 9.54189C10.3012 9.97392 10.8461 10.1899 11.6709 10.1899C12.5055 10.1899 13.0505 9.97883 13.3058 9.55661C13.5611 9.12458 13.6887 8.36853 13.6887 7.28845C13.6887 6.20836 13.5463 5.46704 13.2616 5.06446C12.9768 4.65207 12.4466 4.44587 11.6709 4.44587C10.905 4.44587 10.3748 4.65207 10.0803 5.06446C9.7955 5.46704 9.65313 6.20836 9.65313 7.28845Z" fill="#727272"/>
<path d="M7.32358 10.8379C6.31223 11.0441 5.40398 11.1472 4.59883 11.1472C3.79368 11.1472 3.14072 11.0392 2.63995 10.8232C2.14901 10.5974 1.76607 10.2537 1.49114 9.79224C1.22603 9.32093 1.03947 8.7858 0.931463 8.18684C0.833274 7.57807 0.78418 6.82201 0.78418 5.91867C0.78418 5.01533 0.833274 4.25928 0.931463 3.6505C1.03947 3.03191 1.22603 2.48696 1.49114 2.01566C1.76607 1.54435 2.14901 1.20068 2.63995 0.984669C3.1309 0.768653 3.76913 0.660645 4.55464 0.660645C5.34016 0.660645 6.26313 0.768653 7.32358 0.984669L7.27939 1.94201C6.28768 1.76527 5.40398 1.6769 4.62829 1.6769C3.5482 1.6769 2.83142 2.00093 2.47794 2.64897C2.13428 3.2872 1.96245 4.38201 1.96245 5.9334C1.96245 6.7091 1.99191 7.3326 2.05082 7.80391C2.11955 8.27521 2.2472 8.70234 2.43376 9.08527C2.62032 9.45839 2.89034 9.72841 3.24382 9.89533C3.60712 10.0524 4.13243 10.131 4.81975 10.131C5.5169 10.131 6.33678 10.0426 7.27939 9.86588L7.32358 10.8379Z" fill="#727272"/>
</svg>
