<svg width="124" height="34" viewBox="0 0 124 34" fill="none" xmlns="http://www.w3.org/2000/svg">
<path d="M54.7418 26.4753C53.6715 26.4753 53.1364 26.8484 53.1364 27.5947C53.1364 27.9383 53.2591 28.1838 53.5046 28.3311C53.75 28.4686 54.3097 28.6159 55.1836 28.773C56.0575 28.9202 56.6761 29.1313 57.0394 29.4063C57.4027 29.6812 57.5843 30.1967 57.5843 30.9528C57.5843 31.7088 57.3389 32.2636 56.8479 32.6171C56.3668 32.9705 55.6598 33.1473 54.727 33.1473C54.1183 33.1473 53.4015 33.0785 52.5767 32.9411L52.1348 32.8674L52.1937 31.9101C53.3131 32.077 54.1575 32.1605 54.727 32.1605C55.2965 32.1605 55.7286 32.0721 56.0231 31.8954C56.3275 31.7088 56.4797 31.4044 56.4797 30.9822C56.4797 30.5502 56.3521 30.2605 56.0968 30.1132C55.8415 29.9561 55.2818 29.8088 54.4177 29.6714C53.5537 29.5339 52.94 29.3326 52.5767 29.0675C52.2134 28.8024 52.0317 28.3115 52.0317 27.5947C52.0317 26.8779 52.2821 26.3477 52.7829 26.004C53.2935 25.6604 53.9268 25.4885 54.6828 25.4885C55.2818 25.4885 56.0329 25.5573 56.9363 25.6947L57.3487 25.7684L57.3192 26.711C56.2293 26.5539 55.3702 26.4753 54.7418 26.4753Z" fill="#727272"/>
<path d="M41.2223 33H40.1177V25.6358H41.2076V26.1513C41.944 25.7095 42.6608 25.4885 43.3579 25.4885C44.2711 25.4885 44.9093 25.7389 45.2726 26.2397C45.5966 26.0433 46.0139 25.8715 46.5245 25.7242C47.0449 25.5671 47.5015 25.4885 47.8943 25.4885C48.8761 25.4885 49.534 25.7536 49.8679 26.2839C50.2115 26.8043 50.3834 27.7469 50.3834 29.1117V33H49.2787V29.1412C49.2787 28.12 49.1805 27.4229 48.9842 27.0497C48.7878 26.6668 48.3705 26.4753 47.7322 26.4753C47.4082 26.4753 47.0744 26.5244 46.7307 26.6226C46.3871 26.711 46.1219 26.7994 45.9354 26.8877L45.6555 27.0203C45.7832 27.3443 45.847 28.0611 45.847 29.1706V33H44.7424V29.2001C44.7424 28.1396 44.6442 27.4229 44.4478 27.0497C44.2613 26.6668 43.844 26.4753 43.1959 26.4753C42.8817 26.4753 42.5577 26.5244 42.2238 26.6226C41.8998 26.711 41.6494 26.7994 41.4727 26.8877L41.2223 27.0203V33Z" fill="#727272"/>
<path d="M37.6891 32.0868L38.1162 32.0427L38.1457 32.9116C37.0263 33.0687 36.069 33.1473 35.2736 33.1473C34.2132 33.1473 33.462 32.8429 33.0202 32.2341C32.5783 31.6155 32.3574 30.6582 32.3574 29.3621C32.3574 26.7797 33.3835 25.4885 35.4356 25.4885C36.4274 25.4885 37.1687 25.7684 37.6596 26.328C38.1506 26.8779 38.3961 27.7469 38.3961 28.935L38.3371 29.7745H33.4768C33.4768 30.5895 33.6241 31.1933 33.9186 31.5861C34.2132 31.9788 34.7238 32.1752 35.4504 32.1752C36.1868 32.1752 36.933 32.1458 37.6891 32.0868ZM37.2914 28.8908C37.2914 27.9874 37.1441 27.3492 36.8496 26.9761C36.5648 26.603 36.0935 26.4164 35.4356 26.4164C34.7876 26.4164 34.2967 26.6128 33.9628 27.0056C33.6388 27.3983 33.4719 28.0267 33.462 28.8908H37.2914Z" fill="#727272"/>
<path d="M29.3608 33V22.425H30.4655V33H29.3608Z" fill="#727272"/>
<path d="M24.775 25.4886C25.7667 25.4886 26.4589 25.7733 26.8517 26.3428C27.2543 26.9025 27.4556 27.8893 27.4556 29.3032C27.4556 30.7171 27.2052 31.7137 26.7044 32.2931C26.2135 32.8626 25.3052 33.1473 23.9797 33.1473C23.5673 33.1473 22.8848 33.108 21.9324 33.0295L21.52 32.9853V22.425H22.6099V26.004C23.3562 25.6604 24.0778 25.4886 24.775 25.4886ZM23.9649 32.1605C24.9272 32.1605 25.5605 31.9445 25.8649 31.5125C26.1791 31.0706 26.3362 30.3293 26.3362 29.2885C26.3362 28.2477 26.2135 27.5211 25.968 27.1087C25.7225 26.6865 25.2856 26.4754 24.6572 26.4754C24.0877 26.4754 23.5034 26.5834 22.9045 26.7994L22.6099 26.9025V32.0869C23.2481 32.136 23.6998 32.1605 23.9649 32.1605Z" fill="#727272"/>
<path d="M13.415 29.3032C13.415 27.958 13.6556 26.9859 14.1367 26.387C14.6179 25.788 15.4279 25.4885 16.5669 25.4885C17.7157 25.4885 18.5258 25.788 18.9971 26.387C19.4782 26.9859 19.7188 27.958 19.7188 29.3032C19.7188 30.6484 19.4929 31.6253 19.0413 32.2341C18.5896 32.8429 17.7648 33.1473 16.5669 33.1473C15.369 33.1473 14.5442 32.8429 14.0925 32.2341C13.6409 31.6253 13.415 30.6484 13.415 29.3032ZM14.5491 29.2884C14.5491 30.3587 14.6768 31.1099 14.9321 31.5419C15.1972 31.9739 15.7421 32.1899 16.5669 32.1899C17.4015 32.1899 17.9465 31.9788 18.2018 31.5566C18.4571 31.1246 18.5847 30.3685 18.5847 29.2884C18.5847 28.2084 18.4423 27.467 18.1576 27.0645C17.8728 26.6521 17.3426 26.4459 16.5669 26.4459C15.801 26.4459 15.2708 26.6521 14.9762 27.0645C14.6915 27.467 14.5491 28.2084 14.5491 29.2884Z" fill="#727272"/>
<path d="M8.79102 33.0001V25.6359H9.88091V26.6374C10.7352 26.0483 11.6336 25.6604 12.5762 25.4739V26.5932C12.1638 26.6718 11.7318 26.7945 11.2801 26.9614C10.8383 27.1284 10.4995 27.2756 10.2639 27.4033L9.89564 27.5948V33.0001H8.79102Z" fill="#727272"/>
<path d="M3.97823 29.5682H1.38604V32.9999H0.251953V22.8079H3.97823C5.08777 22.8079 5.90765 23.0779 6.43787 23.6179C6.96809 24.158 7.2332 24.9828 7.2332 26.0923C7.2332 28.4096 6.14821 29.5682 3.97823 29.5682ZM1.38604 28.5667H3.9635C5.36761 28.5667 6.06966 27.7419 6.06966 26.0923C6.06966 25.3068 5.90274 24.7324 5.5689 24.3691C5.23505 23.9959 4.69992 23.8094 3.9635 23.8094H1.38604V28.5667Z" fill="#727272"/>
<path d="M120.502 4.47533C119.432 4.47533 118.897 4.84845 118.897 5.59468C118.897 5.93834 119.019 6.18382 119.265 6.3311C119.51 6.46857 120.07 6.61585 120.944 6.77295C121.818 6.92024 122.436 7.13134 122.8 7.40627C123.163 7.6812 123.345 8.19669 123.345 8.95275C123.345 9.70881 123.099 10.2636 122.608 10.6171C122.127 10.9705 121.42 11.1473 120.487 11.1473C119.879 11.1473 119.162 11.0785 118.337 10.9411L117.895 10.8674L117.954 9.9101C119.073 10.077 119.918 10.1605 120.487 10.1605C121.057 10.1605 121.489 10.0721 121.783 9.89537C122.088 9.70881 122.24 9.40442 122.24 8.98221C122.24 8.55018 122.112 8.26052 121.857 8.11323C121.602 7.95613 121.042 7.80885 120.178 7.67138C119.314 7.53392 118.7 7.33263 118.337 7.06752C117.974 6.80241 117.792 6.31146 117.792 5.59468C117.792 4.8779 118.042 4.34768 118.543 4.00402C119.054 3.66036 119.687 3.48853 120.443 3.48853C121.042 3.48853 121.793 3.55726 122.697 3.69472L123.109 3.76836L123.079 4.71098C121.99 4.55388 121.13 4.47533 120.502 4.47533Z" fill="#727272"/>
<path d="M113.655 4.47533C112.585 4.47533 112.05 4.84845 112.05 5.59468C112.05 5.93834 112.173 6.18382 112.418 6.3311C112.664 6.46857 113.223 6.61585 114.097 6.77295C114.971 6.92024 115.59 7.13134 115.953 7.40627C116.316 7.6812 116.498 8.19669 116.498 8.95275C116.498 9.70881 116.252 10.2636 115.761 10.6171C115.28 10.9705 114.573 11.1473 113.641 11.1473C113.032 11.1473 112.315 11.0785 111.49 10.9411L111.048 10.8674L111.107 9.9101C112.227 10.077 113.071 10.1605 113.641 10.1605C114.21 10.1605 114.642 10.0721 114.937 9.89537C115.241 9.70881 115.393 9.40442 115.393 8.98221C115.393 8.55018 115.266 8.26052 115.01 8.11323C114.755 7.95613 114.195 7.80885 113.331 7.67138C112.467 7.53392 111.854 7.33263 111.49 7.06752C111.127 6.80241 110.945 6.31146 110.945 5.59468C110.945 4.8779 111.196 4.34768 111.696 4.00402C112.207 3.66036 112.84 3.48853 113.596 3.48853C114.195 3.48853 114.947 3.55726 115.85 3.69472L116.262 3.76836L116.233 4.71098C115.143 4.55388 114.284 4.47533 113.655 4.47533Z" fill="#727272"/>
<path d="M108.915 10.0868L109.342 10.0427L109.371 10.9116C108.252 11.0687 107.295 11.1473 106.499 11.1473C105.439 11.1473 104.688 10.8429 104.246 10.2341C103.804 9.61553 103.583 8.65818 103.583 7.36209C103.583 4.77971 104.609 3.48853 106.661 3.48853C107.653 3.48853 108.394 3.76836 108.885 4.32804C109.376 4.8779 109.622 5.74688 109.622 6.93496L109.563 7.77448H104.702C104.702 8.58945 104.85 9.19332 105.144 9.58607C105.439 9.97883 105.949 10.1752 106.676 10.1752C107.412 10.1752 108.159 10.1457 108.915 10.0868ZM108.517 6.89078C108.517 5.98744 108.37 5.34921 108.075 4.97609C107.79 4.60297 107.319 4.41641 106.661 4.41641C106.013 4.41641 105.522 4.61279 105.188 5.00555C104.864 5.3983 104.697 6.02672 104.688 6.89078H108.517Z" fill="#727272"/>
<path d="M97.1007 11H95.9961V3.63581H97.086V4.1513C97.8813 3.70945 98.6423 3.48853 99.3689 3.48853C100.351 3.48853 101.009 3.75364 101.342 4.28386C101.686 4.81408 101.858 5.75669 101.858 7.1117V11H100.768V7.14116C100.768 6.11999 100.665 5.42285 100.459 5.04973C100.262 4.6668 99.8353 4.47533 99.1774 4.47533C98.8632 4.47533 98.5294 4.52442 98.1759 4.62261C97.8322 4.71098 97.5671 4.79935 97.3806 4.88772L97.1007 5.02028V11Z" fill="#727272"/>
<path d="M92.7744 11V3.63586H93.879V11H92.7744ZM92.7744 1.97155V0.690186H93.879V1.97155H92.7744Z" fill="#727272"/>
<path d="M88.2403 4.47533C87.17 4.47533 86.6349 4.84845 86.6349 5.59468C86.6349 5.93834 86.7576 6.18382 87.0031 6.3311C87.2486 6.46857 87.8083 6.61585 88.6822 6.77295C89.556 6.92024 90.1746 7.13134 90.5379 7.40627C90.9012 7.6812 91.0829 8.19669 91.0829 8.95275C91.0829 9.70881 90.8374 10.2636 90.3465 10.6171C89.8653 10.9705 89.1584 11.1473 88.2256 11.1473C87.6168 11.1473 86.9 11.0785 86.0752 10.9411L85.6334 10.8674L85.6923 9.9101C86.8116 10.077 87.6561 10.1605 88.2256 10.1605C88.7951 10.1605 89.2271 10.0721 89.5217 9.89537C89.8261 9.70881 89.9782 9.40442 89.9782 8.98221C89.9782 8.55018 89.8506 8.26052 89.5953 8.11323C89.34 7.95613 88.7803 7.80885 87.9163 7.67138C87.0522 7.53392 86.4385 7.33263 86.0752 7.06752C85.7119 6.80241 85.5303 6.31146 85.5303 5.59468C85.5303 4.8779 85.7807 4.34768 86.2814 4.00402C86.792 3.66036 87.4253 3.48853 88.1814 3.48853C88.7803 3.48853 89.5315 3.55726 90.4348 3.69472L90.8472 3.76836L90.8178 4.71098C89.7279 4.55388 88.8687 4.47533 88.2403 4.47533Z" fill="#727272"/>
<path d="M82.6987 3.63574H83.8033V10.9999H82.6987V10.4844C81.9623 10.9263 81.2357 11.1472 80.5189 11.1472C79.5174 11.1472 78.8497 10.887 78.5158 10.3666C78.1918 9.84621 78.0298 8.88395 78.0298 7.47985V3.63574H79.1344V7.46512C79.1344 8.53538 79.2277 9.25216 79.4143 9.61546C79.6008 9.97876 80.023 10.1604 80.6809 10.1604C81.0049 10.1604 81.3339 10.1162 81.6677 10.0279C82.0015 9.92967 82.2568 9.83639 82.4336 9.74802L82.6987 9.61546V3.63574Z" fill="#727272"/>
<path d="M69.2192 0.807861H72.9161C73.9274 0.807861 74.6835 1.01897 75.1842 1.44118C75.6948 1.85358 75.9501 2.50653 75.9501 3.40005C75.9501 4.03828 75.8372 4.53905 75.6114 4.90235C75.3953 5.25583 75.0713 5.53567 74.6393 5.74187C75.7194 6.11499 76.2594 6.91523 76.2594 8.14259C76.2594 9.16376 75.9894 9.89527 75.4493 10.3371C74.9093 10.779 74.1287 10.9999 73.1075 10.9999H69.2192V0.807861ZM72.9897 6.31627H70.3533V9.99837H73.0633C73.731 9.99837 74.2367 9.8609 74.5804 9.58597C74.9338 9.30122 75.1106 8.80537 75.1106 8.09841C75.1106 7.72529 75.0369 7.41108 74.8897 7.15579C74.7522 6.9005 74.5656 6.71885 74.33 6.61084C73.8979 6.41446 73.4512 6.31627 72.9897 6.31627ZM72.8719 1.80939H70.3533V5.32947H72.975C73.6034 5.32947 74.06 5.18219 74.3447 4.88762C74.6393 4.58323 74.7866 4.13156 74.7866 3.53261C74.7866 2.92384 74.6295 2.4869 74.3153 2.22179C74.0109 1.94686 73.5297 1.80939 72.8719 1.80939Z" fill="#727272"/>
<path d="M61.0685 14.4612C59.8902 14.4612 59.0654 14.2992 58.5941 13.9751C58.1326 13.6609 57.9019 13.0816 57.9019 12.2372C57.9019 11.8346 57.9902 11.5057 58.167 11.2504C58.3437 11.0049 58.6432 10.7251 59.0654 10.4109C58.7905 10.2243 58.653 9.88555 58.653 9.3946C58.653 9.22768 58.7757 8.91838 59.0212 8.46671L59.1538 8.23106C58.3781 7.87758 57.9902 7.13625 57.9902 6.00708C57.9902 4.32804 58.9083 3.48853 60.7444 3.48853C61.2157 3.48853 61.6527 3.53762 62.0553 3.63581L62.2762 3.67999L64.456 3.62108V4.5637L63.0568 4.53424C63.3808 4.85826 63.5428 5.34921 63.5428 6.00708C63.5428 6.93006 63.3121 7.5781 62.8506 7.95122C62.3989 8.31452 61.6821 8.49617 60.7002 8.49617C60.4351 8.49617 60.1946 8.47653 59.9786 8.43726C59.8018 8.86929 59.7134 9.14913 59.7134 9.27678C59.7134 9.58116 59.8067 9.77263 59.9933 9.85118C60.1798 9.91991 60.7444 9.95428 61.687 9.95428C62.6297 9.95428 63.3072 10.1016 63.7196 10.3961C64.132 10.6907 64.3382 11.2651 64.3382 12.1194C64.3382 13.6806 63.2483 14.4612 61.0685 14.4612ZM58.9918 12.1488C58.9918 12.6692 59.1341 13.0276 59.4189 13.224C59.7134 13.4302 60.2486 13.5333 61.0243 13.5333C61.8098 13.5333 62.3695 13.4253 62.7033 13.2093C63.047 12.9932 63.2188 12.6299 63.2188 12.1194C63.2188 11.6186 63.0961 11.2946 62.8506 11.1473C62.6051 11 62.124 10.9264 61.4072 10.9264L59.8165 10.8527C59.4925 11.0884 59.2716 11.2946 59.1538 11.4713C59.0458 11.648 58.9918 11.8739 58.9918 12.1488ZM59.0949 6.00708C59.0949 6.58639 59.2225 6.99879 59.4778 7.24426C59.7429 7.48973 60.1749 7.61247 60.7739 7.61247C61.3728 7.61247 61.8 7.48973 62.0553 7.24426C62.3105 6.99879 62.4382 6.58639 62.4382 6.00708C62.4382 5.41794 62.3105 5.00064 62.0553 4.75517C61.8 4.50969 61.3728 4.38696 60.7739 4.38696C60.1749 4.38696 59.7429 4.5146 59.4778 4.76989C59.2225 5.01537 59.0949 5.42776 59.0949 6.00708Z" fill="#727272"/>
<path d="M51.4201 11H50.3154V3.63581H51.4053V4.1513C52.2007 3.70945 52.9616 3.48853 53.6882 3.48853C54.6701 3.48853 55.328 3.75364 55.6618 4.28386C56.0055 4.81408 56.1773 5.75669 56.1773 7.1117V11H55.0874V7.14116C55.0874 6.11999 54.9843 5.42285 54.7781 5.04973C54.5817 4.6668 54.1546 4.47533 53.4968 4.47533C53.1826 4.47533 52.8487 4.52442 52.4952 4.62261C52.1516 4.71098 51.8865 4.79935 51.6999 4.88772L51.4201 5.02028V11Z" fill="#727272"/>
<path d="M47.0933 11V3.63586H48.1979V11H47.0933ZM47.0933 1.97155V0.690186H48.1979V1.97155H47.0933Z" fill="#727272"/>
<path d="M39.2817 3.63574H40.3864L42.2274 10.0426H42.7134L44.5692 3.63574H45.6739L42.6104 14.2696H41.5057L42.4631 10.9999H41.3732L39.2817 3.63574Z" fill="#727272"/>
<path d="M36.512 4.59325V11.0001H35.4074V4.59325H34.4795V3.6359H35.4074V2.97312C35.4074 1.93232 35.5547 1.22536 35.8492 0.852239C36.1438 0.469301 36.6593 0.277832 37.3957 0.277832L38.8833 0.380931L38.8685 1.29409C38.3187 1.27445 37.8621 1.26463 37.4988 1.26463C37.1453 1.26463 36.89 1.38246 36.7329 1.61811C36.5856 1.85377 36.512 2.31035 36.512 2.98785V3.6359H38.6476V4.59325H36.512Z" fill="#727272"/>
<path d="M31.876 11V3.63586H32.9806V11H31.876ZM31.876 1.97155V0.690186H32.9806V1.97155H31.876Z" fill="#727272"/>
<path d="M30.5272 4.59311H28.1854V8.11319C28.1854 8.95762 28.2443 9.51239 28.3622 9.7775C28.4898 10.0426 28.7844 10.1752 29.2459 10.1752L30.5567 10.0868L30.6303 11C29.9725 11.108 29.4717 11.162 29.128 11.162C28.3622 11.162 27.8319 10.9754 27.5374 10.6023C27.2428 10.2292 27.0955 9.5173 27.0955 8.46667V4.59311H26.0498V3.63577H27.0955V1.38232H28.1854V3.63577H30.5272V4.59311Z" fill="#727272"/>
<path d="M19.9494 11H18.8447V3.63581H19.9346V4.1513C20.73 3.70945 21.4909 3.48853 22.2175 3.48853C23.1994 3.48853 23.8573 3.75364 24.1911 4.28386C24.5348 4.81408 24.7066 5.75669 24.7066 7.1117V11H23.6167V7.14116C23.6167 6.11999 23.5136 5.42285 23.3074 5.04973C23.111 4.6668 22.6839 4.47533 22.0261 4.47533C21.7119 4.47533 21.378 4.52442 21.0245 4.62261C20.6809 4.71098 20.4158 4.79935 20.2292 4.88772L19.9494 5.02028V11Z" fill="#727272"/>
<path d="M16.4166 10.0868L16.8438 10.0427L16.8732 10.9116C15.7539 11.0687 14.7965 11.1473 14.0012 11.1473C12.9407 11.1473 12.1896 10.8429 11.7477 10.2341C11.3059 9.61553 11.085 8.65818 11.085 7.36209C11.085 4.77971 12.111 3.48853 14.1632 3.48853C15.1549 3.48853 15.8962 3.76836 16.3872 4.32804C16.8781 4.8779 17.1236 5.74688 17.1236 6.93496L17.0647 7.77448H12.2043C12.2043 8.58945 12.3516 9.19332 12.6462 9.58607C12.9407 9.97883 13.4513 10.1752 14.1779 10.1752C14.9143 10.1752 15.6606 10.1457 16.4166 10.0868ZM16.019 6.89078C16.019 5.98744 15.8717 5.34921 15.5771 4.97609C15.2924 4.60297 14.8211 4.41641 14.1632 4.41641C13.5151 4.41641 13.0242 4.61279 12.6904 5.00555C12.3663 5.3983 12.1994 6.02672 12.1896 6.89078H16.019Z" fill="#727272"/>
<path d="M9.26878 0.425049V11H8.17888V10.4993C7.42283 10.9313 6.67659 11.1473 5.94017 11.1473C5.54741 11.1473 5.20375 11.0982 4.90918 11C4.61462 10.9018 4.33969 10.7251 4.08439 10.4698C3.55417 9.93958 3.28906 8.9626 3.28906 7.53885C3.28906 6.10529 3.52472 5.07431 3.99602 4.44589C4.47715 3.80766 5.26757 3.48855 6.36729 3.48855C6.93679 3.48855 7.54065 3.55237 8.17888 3.68002V0.425049H9.26878ZM4.93864 9.67447C5.09574 9.86103 5.26266 9.98867 5.4394 10.0574C5.61615 10.1261 5.84198 10.1605 6.11691 10.1605C6.40166 10.1605 6.71586 10.1163 7.05953 10.0279C7.41301 9.92976 7.68794 9.83648 7.88432 9.74811L8.17888 9.61555V4.62264C7.55047 4.50481 6.96625 4.44589 6.42621 4.44589C5.67997 4.44589 5.15957 4.68646 4.865 5.16758C4.57043 5.63889 4.42315 6.37531 4.42315 7.37684C4.42315 8.51584 4.59498 9.28171 4.93864 9.67447Z" fill="#727272"/>
<path d="M0.251953 10.9999V0.807861H1.38604V10.9999H0.251953Z" fill="#727272"/>
</svg>
