<svg width="16" height="16" viewBox="0 0 16 16" fill="none" xmlns="http://www.w3.org/2000/svg">
<path d="M2.12893 0.928978C1.46619 0.928978 0.928932 1.46624 0.928932 2.12898L0.928932 2.2226C0.928932 2.88493 1.46554 3.42201 2.12786 3.4226L10.8019 3.43037L0.893577 13.3387C0.424948 13.8073 0.424948 14.5671 0.893577 15.0358L0.964288 15.1065C1.43292 15.5751 2.19271 15.5751 2.66134 15.1065L12.5697 5.19813L12.5619 13.87C12.5613 14.5332 13.0988 15.0711 13.7619 15.0711L13.8711 15.0711C14.5338 15.0711 15.0711 14.5339 15.0711 13.8711L15.0711 2.12898C15.0711 1.46623 14.5338 0.928978 13.8711 0.928978L2.12893 0.928978Z" fill="#192C47"/>
</svg>
