<svg width="637" height="273" viewBox="0 0 637 273" fill="none" xmlns="http://www.w3.org/2000/svg">
<g clip-path="url(#clip0_4_633)">
<g filter="url(#filter0_d_4_633)">
<path d="M384.206 6C414.842 6.0001 439.677 30.8352 439.677 61.4707V75.5371C439.677 94.0593 454.692 109.075 473.214 109.075H546.25V80.7656C546.25 79.2262 547.917 78.2636 549.25 79.0332L625 122.768C626.333 123.537 626.333 125.463 625 126.232L549.25 169.967C547.917 170.736 546.25 169.774 546.25 168.234V145.075H473.214C434.809 145.075 403.677 113.942 403.677 75.5371V61.4707C403.677 50.7175 394.959 42.0001 384.206 42C373.453 42 364.735 50.7174 364.735 61.4707V191.147C364.735 221.994 339.729 247 308.883 247C278.036 247 253.03 221.994 253.029 191.147V61.6621C253.029 50.8032 244.226 42 233.367 42C222.509 42.0002 213.706 50.8034 213.706 61.6621V75.5371C213.706 113.941 182.573 145.075 144.169 145.075H-98V109.075H144.169C162.691 109.075 177.706 94.0592 177.706 75.5371V61.6621C177.706 30.9211 202.626 6.00025 233.367 6C264.108 6 289.029 30.921 289.029 61.6621V191.147C289.03 202.112 297.918 211 308.883 211C319.847 211 328.735 202.112 328.735 191.147V61.4707C328.735 30.8351 353.571 6 384.206 6Z" fill="url(#paint0_linear_4_633)"/>
</g>
<path d="M314.947 228.542L313.956 228.672C312.618 228.846 311.259 228.952 309.883 228.986V229H307.883V228.986C306.506 228.952 305.147 228.846 303.809 228.672L302.817 228.542L303.076 226.56L304.067 226.688C305.643 226.894 307.251 227 308.883 227C310.515 227 312.122 226.894 313.697 226.688L314.688 226.56L314.947 228.542ZM286.447 219.387L286.926 219.748C289.173 221.418 291.617 222.838 294.217 223.967L294.775 224.204L295.699 224.587L294.934 226.435L294.01 226.052L293.42 225.801C290.679 224.61 288.102 223.114 285.733 221.354L285.229 220.973L284.436 220.363L285.654 218.777L286.447 219.387ZM333.329 220.363L332.536 220.973C329.863 223.027 326.914 224.742 323.755 226.052L322.831 226.435L322.065 224.587L322.989 224.204C325.985 222.962 328.781 221.336 331.317 219.387L332.11 218.777L333.329 220.363ZM274.825 204.254L275.062 204.812C276.191 207.412 277.611 209.856 279.281 212.104L279.643 212.582L280.252 213.375L278.666 214.594L278.057 213.801L277.676 213.296C275.916 210.927 274.419 208.35 273.229 205.609L272.978 205.02L272.595 204.096L274.442 203.33L274.825 204.254ZM345.17 204.096L344.787 205.02C343.477 208.179 341.762 211.128 339.708 213.801L339.099 214.594L337.513 213.375L338.122 212.582C340.071 210.046 341.697 207.249 342.939 204.254L343.322 203.33L345.17 204.096ZM270.029 190.147V184.522H272.029V190.147C272.029 191.78 272.135 193.387 272.341 194.962L272.471 195.953L270.487 196.212L270.357 195.221C270.141 193.56 270.029 191.866 270.029 190.147ZM347.407 195.221L347.277 196.212L345.294 195.953L345.424 194.962L347.407 195.221ZM345.735 190.147V184.516H347.735V190.147C347.735 191.866 347.624 193.56 347.407 195.221L345.424 194.962C345.629 193.387 345.735 191.78 345.735 190.147ZM270.029 166.024H272.029V177.273H270.029V166.024ZM345.735 165.99H347.735V177.253H345.735V165.99ZM270.029 147.526H272.029V158.775H270.029V147.526ZM345.735 147.466H347.735V158.728H345.735V147.466ZM270.029 129.029H272.029V140.278H270.029V129.029ZM345.735 128.94H347.735V140.203H345.735V128.94ZM-74.3301 125.075V127.075H-81V125.075H-74.3301ZM-55.6494 125.075V127.075H-66.9893V125.075H-55.6494ZM-36.9688 125.075V127.075H-48.3086V125.075H-36.9688ZM-18.2881 125.075V127.075H-29.6279V125.075H-18.2881ZM0.392578 125.075V127.075H-10.9473V125.075H0.392578ZM19.0742 125.075V127.075H7.7334V125.075H19.0742ZM37.7549 125.075V127.075H26.4141V125.075H37.7549ZM56.4355 125.075V127.075H45.0947V125.075H56.4355ZM75.1162 125.075V127.075H63.7754V125.075H75.1162ZM93.7969 125.075V127.075H82.4561V125.075H93.7969ZM112.478 125.075V127.075H101.137V125.075H112.478ZM131.158 125.075V127.075H119.817V125.075H131.158ZM150.314 126.729L149.319 126.825C147.625 126.99 145.906 127.075 144.169 127.075H138.498V125.075H144.169C145.841 125.075 147.495 124.994 149.125 124.835L150.12 124.738L150.314 126.729ZM468.257 124.835L469.484 124.939C470.716 125.029 471.959 125.075 473.214 125.075H478.231V127.075H473.214C471.694 127.075 470.188 127.01 468.7 126.884L468.063 126.825L467.068 126.729L467.262 124.738L468.257 124.835ZM494.304 125.075V127.075H484.268V125.075H494.304ZM510.375 125.075V127.075H500.339V125.075H510.375ZM526.446 125.075V127.075H516.41V125.075H526.446ZM538.5 125.075V127.075H532.482V125.075H538.5ZM169.821 120.408L168.939 120.88L168.373 121.179C165.532 122.656 162.539 123.881 159.424 124.825L158.467 125.115L157.887 123.201L158.844 122.911C162.039 121.943 165.102 120.667 167.995 119.117L168.877 118.645L169.821 120.408ZM449.387 119.117C452.099 120.57 454.96 121.783 457.94 122.727L458.538 122.911L459.495 123.201L458.915 125.115L457.958 124.825L457.337 124.633C454.238 123.652 451.263 122.391 448.442 120.88L447.562 120.408L448.506 118.645L449.387 119.117ZM270.029 110.531H272.029V121.78H270.029V110.531ZM345.735 110.415H347.735V121.678H345.735V110.415ZM185.416 107.095L184.781 107.868L184.369 108.363C182.292 110.83 179.991 113.103 177.499 115.15L176.727 115.785L175.456 114.24L176.229 113.605C178.787 111.504 181.135 109.155 183.236 106.598L183.871 105.825L185.416 107.095ZM434.146 106.598L434.543 107.075C436.409 109.29 438.461 111.342 440.676 113.208L441.153 113.605L441.926 114.24L440.656 115.785L439.884 115.15L439.388 114.738C437.086 112.799 434.953 110.665 433.014 108.363L432.601 107.867L431.966 107.095L433.512 105.825L434.146 106.598ZM270.029 92.0332H272.029V103.282H270.029V92.0332ZM345.735 91.8896H347.735V103.152H345.735V91.8896ZM190.511 99.3086L190.039 100.189L188.276 99.2461L188.748 98.3643L190.511 99.3086ZM424.84 89.2129L425.025 89.8105C425.969 92.7906 427.182 95.6515 428.635 98.3643L429.106 99.2461L427.344 100.189L426.871 99.3086C425.36 96.488 424.099 93.5132 423.118 90.4141L422.926 89.793L422.636 88.8359L424.55 88.2559L424.84 89.2129ZM194.746 88.8359L194.456 89.793C193.449 93.1161 192.122 96.3002 190.511 99.3086L189.63 98.8359L188.748 98.3643C190.298 95.4706 191.574 92.4085 192.542 89.2129L192.832 88.2559L194.746 88.8359ZM270.029 73.5352H272.029V84.7842H270.029V73.5352ZM345.735 73.3643H347.735V84.627H345.735V73.3643ZM194.706 74.5371V70.0684H196.706V74.5371C196.706 76.2745 196.622 77.9928 196.457 79.6875L196.359 80.6826L194.369 80.4893L194.466 79.4941L194.57 78.2666C194.66 77.0354 194.706 75.7915 194.706 74.5371ZM420.677 74.5371V70.0205H422.677V74.5371C422.677 75.7915 422.722 77.0354 422.812 78.2666L422.916 79.4941L423.014 80.4893L421.022 80.6826L420.926 79.6875L420.868 79.0508C420.742 77.5629 420.677 76.0573 420.677 74.5371ZM270.029 60.6621C270.029 59.0383 269.924 57.4392 269.72 55.8721L271.703 55.6133C271.919 57.266 272.029 58.9516 272.029 60.6621V66.2861H270.029V60.6621ZM345.735 60.4707C345.735 58.7686 345.846 57.0918 346.061 55.4473L346.189 54.4561L348.173 54.7139L348.044 55.7061L347.972 56.292C347.815 57.6629 347.735 59.0573 347.735 60.4707V66.1016H345.735V60.4707ZM194.706 60.6621C194.706 58.9516 194.817 57.266 195.032 55.6133L195.162 54.6221L197.146 54.8809L197.016 55.8721C196.811 57.4392 196.706 59.0383 196.706 60.6621V65.1309H194.706V60.6621ZM420.677 60.4707C420.677 59.0573 420.596 57.6629 420.439 56.292L420.368 55.7061L420.239 54.7139L422.222 54.4561L422.352 55.4473L422.427 56.0654C422.592 57.5113 422.677 58.9814 422.677 60.4707V64.9873H420.677V60.4707ZM271.703 55.6133L269.72 55.8721L269.59 54.8809L271.573 54.6221L271.703 55.6133ZM204.889 37.5508L204.279 38.3428C202.34 40.8658 200.723 43.6481 199.487 46.6279L199.104 47.5518L197.257 46.7861L197.64 45.8623C198.943 42.7187 200.65 39.7851 202.694 37.125L203.304 36.332L204.889 37.5508ZM264.041 37.125L264.421 37.627C266.172 39.9842 267.662 42.5479 268.847 45.2754L269.096 45.8623L269.479 46.7861L267.631 47.5518L267.248 46.6279L267.012 46.0723C265.889 43.4866 264.477 41.0552 262.815 38.8193L262.455 38.3428L261.847 37.5498L263.432 36.332L264.041 37.125ZM414.728 37.0498L415.105 37.5488C416.973 40.062 418.541 42.8115 419.757 45.7441L420.14 46.668L418.293 47.4346L417.909 46.5107C416.757 43.7316 415.271 41.1252 413.5 38.7422L413.143 38.2686L412.533 37.4756L414.118 36.2568L414.728 37.0498ZM350.502 46.5107L350.119 47.4336L348.271 46.668L348.655 45.7441L350.502 46.5107ZM355.879 37.4756L355.27 38.2686C353.341 40.7784 351.731 43.5464 350.502 46.5107L348.655 45.7441C349.952 42.6162 351.65 39.6966 353.684 37.0498L354.293 36.2568L355.879 37.4756ZM220.258 26.3984L219.334 26.7812C216.354 28.017 213.572 29.6354 211.049 31.5742L210.256 32.1836L209.037 30.5977L209.83 29.9883C212.49 27.9441 215.425 26.2372 218.568 24.9336L219.492 24.5508L220.258 26.3984ZM248.167 24.9336L248.754 25.1836C251.482 26.3681 254.046 27.8569 256.403 29.6084L256.905 29.9883L257.698 30.5977L256.479 32.1836L255.687 31.5742L255.21 31.2139C252.974 29.5527 250.543 28.1404 247.957 27.0176L247.401 26.7812L246.478 26.3984L247.243 24.5508L248.167 24.9336ZM369.862 25.8438L370.246 26.7666C367.282 27.9959 364.514 29.6055 362.004 31.5342L361.211 32.1436L359.992 30.5576L360.785 29.9482C363.432 27.9143 366.352 26.2171 369.479 24.9199L369.862 25.8438ZM398.933 24.9199L399.517 25.167C402.231 26.3456 404.781 27.8286 407.127 29.5713L407.627 29.9482L408.42 30.5576L407.201 32.1436L406.408 31.5342L405.935 31.1768C403.71 29.5242 401.292 28.119 398.72 27.002L398.166 26.7666L397.242 26.3838L398.009 24.5361L398.933 24.9199ZM371.169 26.3838L370.246 26.7666L369.479 24.9199L370.403 24.5361L371.169 26.3838ZM234.367 22V22.0146C235.523 22.044 236.666 22.1223 237.795 22.251L238.416 22.3271L239.407 22.4561L239.148 24.4395L238.157 24.3096L237.568 24.2383C236.19 24.0811 234.788 24 233.367 24C231.744 24 230.145 24.1052 228.578 24.3096L227.586 24.4395L227.328 22.4561L228.319 22.3271L228.94 22.251C230.069 22.1223 231.212 22.044 232.367 22.0146V22H234.367ZM385.206 22V22.0146C386.566 22.0494 387.908 22.1528 389.229 22.3252L390.221 22.4541L389.962 24.4375L388.971 24.3086C387.412 24.1052 385.821 24 384.206 24C382.591 24 381 24.1053 379.441 24.3086L378.449 24.4375L378.191 22.4541L379.183 22.3252L379.801 22.25C380.922 22.1221 382.058 22.044 383.206 22.0146V22H385.206Z" fill="#F2F6F9"/>
</g>
<defs>
<filter id="filter0_d_4_633" x="-101" y="6" width="727" height="250" filterUnits="userSpaceOnUse" color-interpolation-filters="sRGB">
<feFlood flood-opacity="0" result="BackgroundImageFix"/>
<feColorMatrix in="SourceAlpha" type="matrix" values="0 0 0 0 0 0 0 0 0 0 0 0 0 0 0 0 0 0 127 0" result="hardAlpha"/>
<feOffset dx="-3" dy="9"/>
<feComposite in2="hardAlpha" operator="out"/>
<feColorMatrix type="matrix" values="0 0 0 0 0.737255 0 0 0 0 0.819608 0 0 0 0 0.94902 0 0 0 0.3 0"/>
<feBlend mode="normal" in2="BackgroundImageFix" result="effect1_dropShadow_4_633"/>
<feBlend mode="normal" in="SourceGraphic" in2="effect1_dropShadow_4_633" result="shape"/>
</filter>
<linearGradient id="paint0_linear_4_633" x1="289" y1="217.112" x2="209.56" y2="-58.9415" gradientUnits="userSpaceOnUse">
<stop stop-color="#B7CEF0"/>
<stop offset="1" stop-color="#E7EEFB"/>
</linearGradient>
<clipPath id="clip0_4_633">
<rect width="637" height="273" fill="white"/>
</clipPath>
</defs>
</svg>
