<svg width="33" height="32" viewBox="0 0 33 32" fill="none" xmlns="http://www.w3.org/2000/svg">
<path d="M25.1665 17C25.0473 16.9999 24.932 16.9571 24.8415 16.8795L21.4815 14H13.1665C12.5037 13.9992 11.8683 13.7356 11.3996 13.2669C10.9309 12.7982 10.6673 12.1628 10.6665 11.5V3.5C10.6673 2.8372 10.9309 2.20178 11.3996 1.73311C11.8683 1.26444 12.5037 1.00079 13.1665 1H27.1665C27.8293 1.00079 28.4647 1.26444 28.9334 1.73311C29.4021 2.20178 29.6657 2.8372 29.6665 3.5V11.5C29.6657 12.1628 29.4021 12.7982 28.9334 13.2669C28.4647 13.7356 27.8293 13.9992 27.1665 14H25.6665V16.5C25.6665 16.6326 25.6138 16.7598 25.5201 16.8536C25.4263 16.9473 25.2991 17 25.1665 17ZM13.1665 2C12.7687 2 12.3871 2.15804 12.1058 2.43934C11.8245 2.72064 11.6665 3.10218 11.6665 3.5V11.5C11.6665 11.8978 11.8245 12.2794 12.1058 12.5607C12.3871 12.842 12.7687 13 13.1665 13H21.6665C21.7858 12.9999 21.9011 13.0426 21.9915 13.1205L24.6665 15.413V13.5C24.6665 13.3674 24.7192 13.2402 24.813 13.1464C24.9067 13.0527 25.0339 13 25.1665 13H27.1665C27.5643 13 27.9459 12.842 28.2272 12.5607C28.5085 12.2794 28.6665 11.8978 28.6665 11.5V3.5C28.6665 3.10218 28.5085 2.72064 28.2272 2.43934C27.9459 2.15804 27.5643 2 27.1665 2H13.1665Z" fill="#FFB216"/>
<path d="M20.1663 11C20.052 10.9988 19.9416 10.9582 19.8539 10.8849C19.7662 10.8116 19.7065 10.7102 19.6851 10.598C19.6636 10.4857 19.6817 10.3694 19.7362 10.269C19.7907 10.1685 19.8783 10.09 19.9841 10.0468C20.0899 10.0035 20.2074 9.99827 20.3167 10.0319C20.426 10.0654 20.5202 10.1358 20.5835 10.231C20.6468 10.3262 20.6752 10.4403 20.6638 10.5541C20.6525 10.6678 20.6021 10.7741 20.5213 10.855C20.4255 10.9464 20.2987 10.9981 20.1663 11Z" fill="#FFB216"/>
<path d="M20.1665 9.50005C20.0339 9.50005 19.9067 9.44737 19.813 9.35361C19.7192 9.25984 19.6665 9.13266 19.6665 9.00005V7.91155C19.6679 7.6925 19.7429 7.48029 19.8796 7.30913C20.0163 7.13796 20.2067 7.01781 20.42 6.96805C20.6652 6.90405 20.8769 6.74936 21.0124 6.53524C21.1479 6.32111 21.1971 6.06353 21.15 5.81455C21.1115 5.6167 21.0148 5.43485 20.8722 5.29232C20.7297 5.14979 20.5479 5.05307 20.35 5.01455C20.2054 4.98756 20.0567 4.9928 19.9143 5.02988C19.772 5.06697 19.6396 5.135 19.5266 5.22911C19.4136 5.32323 19.3227 5.44111 19.2605 5.57437C19.1982 5.70763 19.1661 5.85298 19.1665 6.00005C19.1665 6.13266 19.1138 6.25984 19.0201 6.35361C18.9263 6.44737 18.7991 6.50005 18.6665 6.50005C18.5339 6.50005 18.4067 6.44737 18.313 6.35361C18.2192 6.25984 18.1665 6.13266 18.1665 6.00005C18.1666 5.62625 18.2714 5.25994 18.4691 4.9427C18.6668 4.62545 18.9495 4.36996 19.285 4.20521C19.6206 4.04046 19.9956 3.97305 20.3675 4.01061C20.7394 4.04818 21.0934 4.18922 21.3892 4.41775C21.685 4.64627 21.9109 4.95312 22.0411 5.30349C22.1714 5.65387 22.2009 6.03374 22.1262 6.40001C22.0515 6.76628 21.8757 7.1043 21.6187 7.37571C21.3616 7.64713 21.0337 7.84107 20.672 7.93555L20.6665 9.00005C20.6665 9.13266 20.6138 9.25984 20.5201 9.35361C20.4263 9.44737 20.2991 9.50005 20.1665 9.50005Z" fill="#FFB216"/>
<path d="M8.1665 31C8.0339 31 7.90672 30.9473 7.81295 30.8536C7.71918 30.7598 7.6665 30.6326 7.6665 30.5V28H6.1665C5.50371 27.9992 4.86828 27.7356 4.39961 27.2669C3.93094 26.7982 3.6673 26.1628 3.6665 25.5V17.5C3.6673 16.8372 3.93094 16.2018 4.39961 15.7331C4.86828 15.2644 5.50371 15.0008 6.1665 15H20.1665C20.8293 15.0008 21.4647 15.2644 21.9334 15.7331C22.4021 16.2018 22.6657 16.8372 22.6665 17.5V25.5C22.6657 26.1628 22.4021 26.7982 21.9334 27.2669C21.4647 27.7356 20.8293 27.9992 20.1665 28H11.8515L8.492 30.8795C8.40137 30.9572 8.28591 31 8.1665 31ZM6.1665 16C5.76868 16 5.38715 16.158 5.10584 16.4393C4.82454 16.7206 4.6665 17.1022 4.6665 17.5V25.5C4.6665 25.8978 4.82454 26.2794 5.10584 26.5607C5.38715 26.842 5.76868 27 6.1665 27H8.1665C8.29911 27 8.42629 27.0527 8.52006 27.1464C8.61383 27.2402 8.6665 27.3674 8.6665 27.5V29.413L11.341 27.1205C11.4316 27.0428 11.5471 27 11.6665 27H20.1665C20.5643 27 20.9459 26.842 21.2272 26.5607C21.5085 26.2794 21.6665 25.8978 21.6665 25.5V17.5C21.6665 17.1022 21.5085 16.7206 21.2272 16.4393C20.9459 16.158 20.5643 16 20.1665 16H6.1665Z" fill="#FFB216"/>
<path d="M8.1665 19H7.1665C7.0339 19 6.90672 18.9473 6.81295 18.8536C6.71918 18.7598 6.6665 18.6326 6.6665 18.5C6.6665 18.3674 6.71918 18.2402 6.81295 18.1464C6.90672 18.0527 7.0339 18 7.1665 18H8.1665C8.29911 18 8.42629 18.0527 8.52006 18.1464C8.61383 18.2402 8.6665 18.3674 8.6665 18.5C8.6665 18.6326 8.61383 18.7598 8.52006 18.8536C8.42629 18.9473 8.29911 19 8.1665 19Z" fill="#FFB216"/>
<path d="M19.1665 19H10.1665C10.0339 19 9.90672 18.9473 9.81295 18.8536C9.71918 18.7598 9.6665 18.6326 9.6665 18.5C9.6665 18.3674 9.71918 18.2402 9.81295 18.1464C9.90672 18.0527 10.0339 18 10.1665 18H19.1665C19.2991 18 19.4263 18.0527 19.5201 18.1464C19.6138 18.2402 19.6665 18.3674 19.6665 18.5C19.6665 18.6326 19.6138 18.7598 19.5201 18.8536C19.4263 18.9473 19.2991 19 19.1665 19Z" fill="#FFB216"/>
<path d="M8.1665 21H7.1665C7.0339 21 6.90672 20.9473 6.81295 20.8536C6.71918 20.7598 6.6665 20.6326 6.6665 20.5C6.6665 20.3674 6.71918 20.2402 6.81295 20.1464C6.90672 20.0527 7.0339 20 7.1665 20H8.1665C8.29911 20 8.42629 20.0527 8.52006 20.1464C8.61383 20.2402 8.6665 20.3674 8.6665 20.5C8.6665 20.6326 8.61383 20.7598 8.52006 20.8536C8.42629 20.9473 8.29911 21 8.1665 21Z" fill="#FFB216"/>
<path d="M19.1665 21H10.1665C10.0339 21 9.90672 20.9473 9.81295 20.8536C9.71918 20.7598 9.6665 20.6326 9.6665 20.5C9.6665 20.3674 9.71918 20.2402 9.81295 20.1464C9.90672 20.0527 10.0339 20 10.1665 20H19.1665C19.2991 20 19.4263 20.0527 19.5201 20.1464C19.6138 20.2402 19.6665 20.3674 19.6665 20.5C19.6665 20.6326 19.6138 20.7598 19.5201 20.8536C19.4263 20.9473 19.2991 21 19.1665 21Z" fill="#FFB216"/>
<path d="M8.1665 23H7.1665C7.0339 23 6.90672 22.9473 6.81295 22.8536C6.71918 22.7598 6.6665 22.6326 6.6665 22.5C6.6665 22.3674 6.71918 22.2402 6.81295 22.1464C6.90672 22.0527 7.0339 22 7.1665 22H8.1665C8.29911 22 8.42629 22.0527 8.52006 22.1464C8.61383 22.2402 8.6665 22.3674 8.6665 22.5C8.6665 22.6326 8.61383 22.7598 8.52006 22.8536C8.42629 22.9473 8.29911 23 8.1665 23Z" fill="#FFB216"/>
<path d="M19.1665 23H10.1665C10.0339 23 9.90672 22.9473 9.81295 22.8536C9.71918 22.7598 9.6665 22.6326 9.6665 22.5C9.6665 22.3674 9.71918 22.2402 9.81295 22.1464C9.90672 22.0527 10.0339 22 10.1665 22H19.1665C19.2991 22 19.4263 22.0527 19.5201 22.1464C19.6138 22.2402 19.6665 22.3674 19.6665 22.5C19.6665 22.6326 19.6138 22.7598 19.5201 22.8536C19.4263 22.9473 19.2991 23 19.1665 23Z" fill="#FFB216"/>
<path d="M8.1665 25H7.1665C7.0339 25 6.90672 24.9473 6.81295 24.8536C6.71918 24.7598 6.6665 24.6326 6.6665 24.5C6.6665 24.3674 6.71918 24.2402 6.81295 24.1464C6.90672 24.0527 7.0339 24 7.1665 24H8.1665C8.29911 24 8.42629 24.0527 8.52006 24.1464C8.61383 24.2402 8.6665 24.3674 8.6665 24.5C8.6665 24.6326 8.61383 24.7598 8.52006 24.8536C8.42629 24.9473 8.29911 25 8.1665 25Z" fill="#FFB216"/>
<path d="M19.1665 25H10.1665C10.0339 25 9.90672 24.9473 9.81295 24.8536C9.71918 24.7598 9.6665 24.6326 9.6665 24.5C9.6665 24.3674 9.71918 24.2402 9.81295 24.1464C9.90672 24.0527 10.0339 24 10.1665 24H19.1665C19.2991 24 19.4263 24.0527 19.5201 24.1464C19.6138 24.2402 19.6665 24.3674 19.6665 24.5C19.6665 24.6326 19.6138 24.7598 19.5201 24.8536C19.4263 24.9473 19.2991 25 19.1665 25Z" fill="#FFB216"/>
</svg>
