<svg width="140" height="38" viewBox="0 0 140 38" fill="none" xmlns="http://www.w3.org/2000/svg">
<path d="M1 8C1 4.134 4.13401 1 8 1H131.566C135.432 1 138.566 4.13401 138.566 8V30.1935C138.566 34.0595 135.432 37.1935 131.566 37.1935H7.99999C4.134 37.1935 1 34.0595 1 30.1935V8Z" fill="white"/>
<path d="M1 8C1 4.134 4.13401 1 8 1H131.566C135.432 1 138.566 4.13401 138.566 8V30.1935C138.566 34.0595 135.432 37.1935 131.566 37.1935H7.99999C4.134 37.1935 1 34.0595 1 30.1935V8Z" fill="url(#paint0_linear_68_133)" fill-opacity="0.2"/>
<path d="M1 8C1 4.134 4.13401 1 8 1H131.566C135.432 1 138.566 4.13401 138.566 8V30.1935C138.566 34.0595 135.432 37.1935 131.566 37.1935H7.99999C4.134 37.1935 1 34.0595 1 30.1935V8Z" stroke="#C9D7E8" stroke-opacity="0.27" stroke-width="1.5"/>
<path d="M122.098 23.0659H120.8V19.7978L118.308 15.1274H119.757L121.437 18.5346L123.129 15.1274H124.566L122.098 19.7978V23.0659Z" fill="#21436E"/>
<path d="M115.539 23.1935C114.38 23.1935 113.592 22.8728 113.175 22.2316C112.765 21.5903 112.561 20.5357 112.561 19.0678C112.561 17.5998 112.769 16.5568 113.186 15.9387C113.604 15.3129 114.388 15 115.539 15C116.227 15 116.984 15.0966 117.81 15.2897L117.764 16.3327C117.069 16.2091 116.373 16.1473 115.678 16.1473C114.983 16.1473 114.511 16.3559 114.264 16.7731C114.017 17.1826 113.893 17.9591 113.893 19.1025C113.893 20.2383 114.013 21.0147 114.253 21.4319C114.492 21.8414 114.959 22.0462 115.655 22.0462C116.35 22.0462 117.053 21.9882 117.764 21.8723L117.799 22.9385C117.003 23.1085 116.25 23.1935 115.539 23.1935Z" fill="#21436E"/>
<path d="M104.928 23.0659V15.1274H107.176L109.587 21.9302H109.761V15.1274H111.047V23.0659H108.845L106.377 16.2516H106.215V23.0659H104.928Z" fill="#21436E"/>
<path d="M98.5229 23.0659V15.1274H103.529V16.2516H99.8093V18.4999H102.834V19.6124H99.8093V21.9302H103.529V23.0659H98.5229Z" fill="#21436E"/>
<path d="M95.4106 23.0659V15.1274H96.697V23.0659H95.4106Z" fill="#21436E"/>
<path d="M91.7723 23.1935C90.6134 23.1935 89.8254 22.8728 89.4082 22.2316C88.9987 21.5903 88.7939 20.5357 88.7939 19.0678C88.7939 17.5998 89.0025 16.5568 89.4198 15.9387C89.837 15.3129 90.6212 15 91.7723 15C92.4599 15 93.2171 15.0966 94.0438 15.2897L93.9974 16.3327C93.3021 16.2091 92.6067 16.1473 91.9114 16.1473C91.2161 16.1473 90.7448 16.3559 90.4975 16.7731C90.2503 17.1826 90.1267 17.9591 90.1267 19.1025C90.1267 20.2383 90.2464 21.0147 90.4859 21.4319C90.7255 21.8414 91.1929 22.0462 91.8882 22.0462C92.5836 22.0462 93.2866 21.9882 93.9974 21.8723L94.0322 22.9385C93.2364 23.1085 92.4831 23.1935 91.7723 23.1935Z" fill="#21436E"/>
<path d="M85.9941 23.0659V15.1274H87.2805V23.0659H85.9941Z" fill="#21436E"/>
<path d="M79.8604 23.0659V15.1274H84.7857V16.2516H81.1467V18.9287H84.1715V20.0528H81.1467V23.0659H79.8604Z" fill="#21436E"/>
<path d="M73.7261 23.0659V15.1274H78.6514V16.2516H75.0125V18.9287H78.0372V20.0528H75.0125V23.0659H73.7261Z" fill="#21436E"/>
<path d="M67.3203 23.0659V15.1274H72.3268V16.2516H68.6067V18.4999H71.6314V19.6124H68.6067V21.9302H72.3268V23.0659H67.3203Z" fill="#21436E"/>
<path d="M58.3687 23.0659V15.1274H63.3751V16.2516H59.655V18.4999H62.6798V19.6124H59.655V21.9302H63.3751V23.0659H58.3687Z" fill="#21436E"/>
<path d="M54.7303 23.1935C53.5714 23.1935 52.7834 22.8728 52.3662 22.2316C51.9567 21.5903 51.752 20.5357 51.752 19.0678C51.752 17.5998 51.9606 16.5568 52.3778 15.9387C52.795 15.3129 53.5792 15 54.7303 15C55.418 15 56.1751 15.0966 57.0018 15.2897L56.9554 16.3327C56.2601 16.2091 55.5648 16.1473 54.8694 16.1473C54.1741 16.1473 53.7028 16.3559 53.4555 16.7731C53.2083 17.1826 53.0847 17.9591 53.0847 19.1025C53.0847 20.2383 53.2045 21.0147 53.444 21.4319C53.6835 21.8414 54.1509 22.0462 54.8462 22.0462C55.5416 22.0462 56.2446 21.9882 56.9554 21.8723L56.9902 22.9385C56.1944 23.1085 55.4411 23.1935 54.7303 23.1935Z" fill="#21436E"/>
<path d="M44.1196 23.0659V15.1274H46.3679L48.7784 21.9302H48.9523V15.1274H50.2387V23.0659H48.0367L45.5683 16.2516H45.406V23.0659H44.1196Z" fill="#21436E"/>
<path d="M36.4985 23.0659L38.4571 15.1274H41.0183L42.9884 23.0659H41.6904L41.2616 21.3624H38.2137L37.7849 23.0659H36.4985ZM39.4537 16.2052L38.4687 20.2266H41.0067L40.0332 16.2052H39.4537Z" fill="#21436E"/>
<path d="M34.0673 23.0659V19.6356H30.637V23.0659H29.3506V15.1274H30.637V18.5114H34.0673V15.1274H35.3653V23.0659H34.0673Z" fill="#21436E"/>
<path d="M21.4058 23.0659V15.1274H23.654L26.0646 21.9302H26.2384V15.1274H27.5248V23.0659H25.3229L22.8544 16.2516H22.6921V23.0659H21.4058Z" fill="#21436E"/>
<path d="M15 23.0659V15.1274H20.0065V16.2516H16.2864V18.4999H19.3111V19.6124H16.2864V21.9302H20.0065V23.0659H15Z" fill="#21436E"/>
<defs>
<linearGradient id="paint0_linear_68_133" x1="24.5474" y1="-18.9596" x2="128.883" y2="93.5242" gradientUnits="userSpaceOnUse">
<stop stop-color="white" stop-opacity="0"/>
<stop offset="1" stop-color="#F7FAFB"/>
</linearGradient>
</defs>
</svg>
