<svg width="137" height="45" viewBox="0 0 137 45" fill="none" xmlns="http://www.w3.org/2000/svg">
<path d="M1 8.5C1 4.63401 4.13401 1.5 8 1.5H129C132.866 1.5 136 4.63401 136 8.5V36.5C136 40.366 132.866 43.5 129 43.5H8C4.13401 43.5 1 40.366 1 36.5V8.5Z" fill="white"/>
<path d="M1 8.5C1 4.63401 4.13401 1.5 8 1.5H129C132.866 1.5 136 4.63401 136 8.5V36.5C136 40.366 132.866 43.5 129 43.5H8C4.13401 43.5 1 40.366 1 36.5V8.5Z" fill="url(#paint0_linear_5757_4764)" fill-opacity="0.2"/>
<path d="M1 8.5C1 4.63401 4.13401 1.5 8 1.5H129C132.866 1.5 136 4.63401 136 8.5V36.5C136 40.366 132.866 43.5 129 43.5H8C4.13401 43.5 1 40.366 1 36.5V8.5Z" stroke="#C9D7E8" stroke-opacity="0.27" stroke-width="1.5"/>
<path d="M18.6621 26.5H15.9155V18.5615H18.6621C19.8829 18.5615 20.7173 18.8705 21.1654 19.4886C21.6135 20.1067 21.8375 21.0763 21.8375 22.3975C21.8375 23.0696 21.7912 23.6414 21.6985 24.1127C21.6135 24.5762 21.459 24.9973 21.2349 25.3759C20.7945 26.1253 19.9369 26.5 18.6621 26.5ZM20.5048 22.3975C20.5048 21.4394 20.3851 20.748 20.1455 20.323C19.906 19.8981 19.4116 19.6856 18.6621 19.6856H17.2019V25.3643H18.6621C19.427 25.3643 19.9369 25.0823 20.1919 24.5183C20.3155 24.2324 20.3966 23.9272 20.4353 23.6027C20.4816 23.2782 20.5048 22.8765 20.5048 22.3975ZM23.3398 26.5V18.5615H28.3463V19.6856H24.6262V21.9339H27.6509V23.0465H24.6262V25.3643H28.3463V26.5H23.3398ZM34.1957 26.5H29.7455V18.5615H31.0318V25.3527H34.1957V26.5ZM35.2457 26.5V18.5615H36.5321V26.5H35.2457ZM42.7503 18.5615H44.0946L42.1476 26.5H39.6212L37.6743 18.5615H39.0186L40.5947 25.3643H41.1742L42.7503 18.5615ZM45.239 26.5V18.5615H50.2455V19.6856H46.5254V21.9339H49.5502V23.0465H46.5254V25.3643H50.2455V26.5H45.239ZM52.9311 23.6723V26.5H51.6447V18.5615H54.6579C56.4503 18.5615 57.3465 19.4036 57.3465 21.0879C57.3465 22.2159 56.9139 22.9808 56.0485 23.3825L57.3581 26.5H55.9442L54.7969 23.6723H52.9311ZM56.0254 21.0995C56.0254 20.1492 55.5695 19.674 54.6579 19.674H52.9311V22.5597H54.681C55.1446 22.5597 55.4845 22.4284 55.7009 22.1657C55.9172 21.8953 56.0254 21.5399 56.0254 21.0995ZM62.6415 23.6723V26.5H61.3551V18.5615H64.3682C66.1607 18.5615 67.0569 19.4036 67.0569 21.0879C67.0569 22.2159 66.6242 22.9808 65.7589 23.3825L67.0685 26.5H65.6546L64.5073 23.6723H62.6415ZM65.7357 21.0995C65.7357 20.1492 65.2799 19.674 64.3682 19.674H62.6415V22.5597H64.3914C64.855 22.5597 65.1949 22.4284 65.4112 22.1657C65.6276 21.8953 65.7357 21.5399 65.7357 21.0995ZM68.519 26.5V18.5615H73.5255V19.6856H69.8054V21.9339H72.8301V23.0465H69.8054V25.3643H73.5255V26.5H68.519ZM74.2409 26.5L76.1995 18.5615H78.7607L80.7308 26.5H79.4328L79.004 24.7964H75.9561L75.5273 26.5H74.2409ZM77.1961 19.6393L76.2111 23.6607H78.7491L77.7756 19.6393H77.1961ZM86.3125 26.5H81.8623V18.5615H83.1487V25.3527H86.3125V26.5ZM94.3012 18.5615H95.6456L93.6986 26.5H91.1722L89.2252 18.5615H90.5696L92.1457 25.3643H92.7251L94.3012 18.5615ZM95.778 26.5L97.7366 18.5615H100.298L102.268 26.5H100.97L100.541 24.7964H97.4932L97.0644 26.5H95.778ZM98.7332 19.6393L97.7482 23.6607H100.286L99.3127 19.6393H98.7332ZM107.85 26.5H103.399V18.5615H104.686V25.3527H107.85V26.5ZM110.026 23.962C110.026 24.9896 110.567 25.5033 111.649 25.5033C112.73 25.5033 113.271 24.9896 113.271 23.962V18.5615H114.569V23.9388C114.569 24.8737 114.322 25.5574 113.827 25.9901C113.341 26.415 112.611 26.6275 111.637 26.6275C110.671 26.6275 109.945 26.415 109.458 25.9901C108.972 25.5574 108.728 24.8737 108.728 23.9388V18.5615H110.026V23.962ZM116.335 26.5V18.5615H121.342V19.6856H117.622V21.9339H120.646V23.0465H117.622V25.3643H121.342V26.5H116.335Z" fill="#21436E"/>
<defs>
<linearGradient id="paint0_linear_5757_4764" x1="24.1081" y1="-21.6618" x2="145.008" y2="88.5649" gradientUnits="userSpaceOnUse">
<stop stop-color="white" stop-opacity="0"/>
<stop offset="1" stop-color="#F7FAFB"/>
</linearGradient>
</defs>
</svg>
