<svg width="152" height="39" viewBox="0 0 152 39" fill="none" xmlns="http://www.w3.org/2000/svg">
<path d="M1 7.99999C1 4.134 4.13401 1 8 1H144.076C147.942 1 151.076 4.13401 151.076 8V30.9005C151.076 34.7665 147.942 37.9005 144.076 37.9005H7.99999C4.134 37.9005 1 34.7665 1 30.9005V7.99999Z" fill="white"/>
<path d="M1 7.99999C1 4.134 4.13401 1 8 1H144.076C147.942 1 151.076 4.13401 151.076 8V30.9005C151.076 34.7665 147.942 37.9005 144.076 37.9005H7.99999C4.134 37.9005 1 34.7665 1 30.9005V7.99999Z" fill="url(#paint0_linear_68_131)" fill-opacity="0.2"/>
<path d="M1 7.99999C1 4.134 4.13401 1 8 1H144.076C147.942 1 151.076 4.13401 151.076 8V30.9005C151.076 34.7665 147.942 37.9005 144.076 37.9005H7.99999C4.134 37.9005 1 34.7665 1 30.9005V7.99999Z" stroke="#C9D7E8" stroke-opacity="0.27" stroke-width="1.5"/>
<path d="M134.503 16.1357C133.522 16.1357 133.032 16.4795 133.032 17.1672C133.032 17.5226 133.147 17.7775 133.379 17.932C133.611 18.0788 134.121 18.2643 134.909 18.4883C135.705 18.7046 136.265 18.9673 136.589 19.2764C136.914 19.5777 137.076 20.0567 137.076 20.7134C137.076 21.5478 136.837 22.1736 136.358 22.5908C135.886 23.0003 135.241 23.2051 134.422 23.2051C133.765 23.2051 133.039 23.1278 132.243 22.9733L131.826 22.8922L131.954 21.8607C132.997 21.9998 133.793 22.0693 134.341 22.0693C135.299 22.0693 135.778 21.6444 135.778 20.7945C135.778 20.4623 135.67 20.2189 135.454 20.0644C135.237 19.9022 134.751 19.7283 133.993 19.5429C133.236 19.3498 132.672 19.0871 132.301 18.7549C131.931 18.4226 131.745 17.8973 131.745 17.1787C131.745 16.4602 131.977 15.9194 132.44 15.5563C132.912 15.1854 133.561 15 134.387 15C134.982 15 135.685 15.0695 136.497 15.2086L136.902 15.2781L136.798 16.3212C135.716 16.1975 134.951 16.1357 134.503 16.1357Z" fill="#21436E"/>
<path d="M125.769 23.0777V15.1392H130.775V16.2633H127.055V18.5116H130.08V19.6241H127.055V21.9419H130.775V23.0777H125.769Z" fill="#21436E"/>
<path d="M123.28 15.1392H124.624L122.677 23.0777H120.151L118.204 15.1392H119.548L121.124 21.9419H121.704L123.28 15.1392Z" fill="#21436E"/>
<path d="M115.775 23.0777V15.1392H117.061V23.0777H115.775Z" fill="#21436E"/>
<path d="M108.91 16.2865V15.1392H114.705V16.2865H112.468V23.0777H111.17V16.2865H108.91Z" fill="#21436E"/>
<path d="M106.036 23.2052C104.878 23.2052 104.09 22.8846 103.672 22.2433C103.263 21.602 103.058 20.5474 103.058 19.0795C103.058 17.6115 103.267 16.5685 103.684 15.9504C104.101 15.3246 104.885 15.0117 106.036 15.0117C106.724 15.0117 107.481 15.1083 108.308 15.3014L108.262 16.3445C107.566 16.2208 106.871 16.159 106.176 16.159C105.48 16.159 105.009 16.3676 104.762 16.7848C104.514 17.1943 104.391 17.9708 104.391 19.1142C104.391 20.25 104.511 21.0264 104.75 21.4436C104.99 21.8531 105.457 22.0579 106.152 22.0579C106.848 22.0579 107.551 21.9999 108.262 21.884L108.296 22.9502C107.501 23.1202 106.747 23.2052 106.036 23.2052Z" fill="#21436E"/>
<path d="M97.0332 23.0777V15.1392H102.04V16.2633H98.3196V18.5116H101.344V19.6241H98.3196V21.9419H102.04V23.0777H97.0332Z" fill="#21436E"/>
<path d="M92.9087 23.9005V22.7648C93.3182 22.7648 93.5963 22.703 93.7431 22.5793C93.8976 22.4557 93.9749 22.1814 93.9749 21.7565V15.1392H95.2497L95.2613 21.8492C95.2613 22.6759 95.0874 23.2245 94.7398 23.4949C94.3921 23.7653 93.7817 23.9005 92.9087 23.9005Z" fill="#21436E"/>
<path d="M86.5874 15.1392H89.6006C90.4118 15.1392 91.0183 15.3053 91.42 15.6375C91.8218 15.962 92.0227 16.4835 92.0227 17.202C92.0227 17.6733 91.9454 18.0442 91.7909 18.3146C91.6441 18.585 91.4085 18.809 91.084 18.9867C91.8411 19.2803 92.2197 19.8945 92.2197 20.8294C92.2197 22.3282 91.3776 23.0777 89.6933 23.0777H86.5874V15.1392ZM89.6006 19.6125H87.8738V21.9651H89.6237C90.0487 21.9651 90.3654 21.8763 90.574 21.6986C90.7904 21.5209 90.8985 21.2157 90.8985 20.783C90.8985 20.3504 90.7749 20.0491 90.5277 19.8791C90.2805 19.7014 89.9714 19.6125 89.6006 19.6125ZM89.531 16.2517H87.8738V18.5232H89.5774C90.3345 18.5232 90.7131 18.133 90.7131 17.3527C90.7131 16.6187 90.3191 16.2517 89.531 16.2517Z" fill="#21436E"/>
<path d="M80.361 21.3973C80.6237 21.8531 81.1259 22.081 81.8676 22.081C82.6093 22.081 83.1077 21.857 83.3626 21.4089C83.6253 20.9608 83.7566 20.2113 83.7566 19.1606C83.7566 18.1021 83.6214 17.3334 83.351 16.8544C83.0883 16.3754 82.5939 16.1359 81.8676 16.1359C81.1414 16.1359 80.6431 16.3754 80.3726 16.8544C80.1022 17.3334 79.967 18.0983 79.967 19.149C79.967 20.192 80.0984 20.9415 80.361 21.3973ZM84.3709 22.2317C83.8996 22.8807 83.0652 23.2052 81.8676 23.2052C80.6701 23.2052 79.8318 22.8807 79.3528 22.2317C78.8738 21.575 78.6343 20.5474 78.6343 19.149C78.6343 17.7506 78.8738 16.7114 79.3528 16.0316C79.8395 15.3517 80.6778 15.0117 81.8676 15.0117C83.0574 15.0117 83.8918 15.3517 84.3709 16.0316C84.8499 16.7037 85.0894 17.7429 85.0894 19.149C85.0894 20.5552 84.8499 21.5827 84.3709 22.2317Z" fill="#21436E"/>
<path d="M73.3208 23.0777V19.6473H69.8904V23.0777H68.604V15.1392H69.8904V18.5232H73.3208V15.1392H74.6187V23.0777H73.3208Z" fill="#21436E"/>
<path d="M61.7388 16.2865V15.1392H67.5333V16.2865H65.2966V23.0777H63.9986V16.2865H61.7388Z" fill="#21436E"/>
<path d="M59.3916 23.0777V15.1392H60.678V23.0777H59.3916Z" fill="#21436E"/>
<path d="M48.1948 15.1392H49.5507L50.6865 21.9651H50.9298L52.4364 15.1623H53.943L55.4496 21.9651H55.7045L56.8403 15.1392H58.1962L56.6317 23.0777H54.5572L53.1897 16.7153L51.8338 23.0777H49.7478L48.1948 15.1392Z" fill="#21436E"/>
<path d="M38.3413 23.0777V15.1392H40.5896L43.0001 21.9419H43.1739V15.1392H44.4603V23.0777H42.2584L39.7899 16.2633H39.6277V23.0777H38.3413Z" fill="#21436E"/>
<path d="M34.4669 20.0414V18.9056H36.7268V22.9386C36.5182 22.9927 36.0932 23.0507 35.452 23.1125C34.8184 23.1743 34.3587 23.2052 34.0729 23.2052C32.8676 23.2052 32.0371 22.873 31.5812 22.2085C31.1254 21.5441 30.8975 20.5049 30.8975 19.0911C30.8975 17.6695 31.1292 16.6342 31.5928 15.9852C32.0641 15.3362 32.8753 15.0117 34.0265 15.0117C34.7064 15.0117 35.4713 15.089 36.3211 15.2435L36.7268 15.3246L36.6804 16.3445C35.7456 16.2208 34.9073 16.159 34.1656 16.159C33.4239 16.159 32.914 16.3676 32.6358 16.7848C32.3654 17.2021 32.2302 17.9747 32.2302 19.1027C32.2302 20.2307 32.3577 21.011 32.6126 21.4436C32.8753 21.8686 33.4007 22.081 34.1888 22.081C34.7528 22.081 35.1738 22.0463 35.452 21.9767V20.0414H34.4669Z" fill="#21436E"/>
<path d="M28.1216 23.0777V15.1392H29.408V23.0777H28.1216Z" fill="#21436E"/>
<path d="M27.0713 23.0777H22.6211V15.1392H23.9075V21.9304H27.0713V23.0777Z" fill="#21436E"/>
<path d="M15 23.0777L16.9586 15.1392H19.5197L21.4899 23.0777H20.1919L19.7631 21.3741H16.7152L16.2864 23.0777H15ZM17.9552 16.2169L16.9701 20.2383H19.5081L18.5347 16.2169H17.9552Z" fill="#21436E"/>
<defs>
<linearGradient id="paint0_linear_68_131" x1="26.6887" y1="-19.3495" x2="132.283" y2="102.465" gradientUnits="userSpaceOnUse">
<stop stop-color="white" stop-opacity="0"/>
<stop offset="1" stop-color="#F7FAFB"/>
</linearGradient>
</defs>
</svg>
