<svg width="154" height="38" viewBox="0 0 154 38" fill="none" xmlns="http://www.w3.org/2000/svg">
<path d="M1 8C1 4.134 4.13401 1 8 1H146.052C149.918 1 153.052 4.13401 153.052 8V30.2052C153.052 34.0712 149.918 37.2052 146.052 37.2052H7.99999C4.134 37.2052 1 34.0712 1 30.2052V8Z" fill="white"/>
<path d="M1 8C1 4.134 4.13401 1 8 1H146.052C149.918 1 153.052 4.13401 153.052 8V30.2052C153.052 34.0712 149.918 37.2052 146.052 37.2052H7.99999C4.134 37.2052 1 34.0712 1 30.2052V8Z" fill="url(#paint0_linear_68_129)" fill-opacity="0.2"/>
<path d="M1 8C1 4.134 4.13401 1 8 1H146.052C149.918 1 153.052 4.13401 153.052 8V30.2052C153.052 34.0712 149.918 37.2052 146.052 37.2052H7.99999C4.134 37.2052 1 34.0712 1 30.2052V8Z" stroke="#C9D7E8" stroke-opacity="0.27" stroke-width="1.5"/>
<path d="M136.479 16.1357C135.498 16.1357 135.008 16.4795 135.008 17.1672C135.008 17.5226 135.123 17.7775 135.355 17.932C135.587 18.0788 136.097 18.2643 136.885 18.4883C137.681 18.7046 138.241 18.9673 138.565 19.2764C138.89 19.5777 139.052 20.0567 139.052 20.7134C139.052 21.5478 138.813 22.1736 138.334 22.5908C137.862 23.0003 137.217 23.2051 136.398 23.2051C135.742 23.2051 135.015 23.1278 134.22 22.9733L133.802 22.8922L133.93 21.8607C134.973 21.9998 135.769 22.0693 136.317 22.0693C137.275 22.0693 137.754 21.6444 137.754 20.7945C137.754 20.4623 137.646 20.2189 137.43 20.0644C137.213 19.9022 136.727 19.7283 135.969 19.5429C135.212 19.3498 134.648 19.0871 134.277 18.7549C133.907 18.4226 133.721 17.8973 133.721 17.1787C133.721 16.4602 133.953 15.9194 134.417 15.5563C134.888 15.1854 135.537 15 136.363 15C136.958 15 137.661 15.0695 138.473 15.2086L138.878 15.2781L138.774 16.3212C137.692 16.1975 136.927 16.1357 136.479 16.1357Z" fill="#21436E"/>
<path d="M129.472 23.0777H126.726V15.1392H129.472C130.693 15.1392 131.527 15.4482 131.975 16.0663C132.424 16.6844 132.648 17.654 132.648 18.9751C132.648 19.6473 132.601 20.219 132.509 20.6903C132.424 21.1539 132.269 21.575 132.045 21.9535C131.605 22.703 130.747 23.0777 129.472 23.0777ZM131.315 18.9751C131.315 18.0171 131.195 17.3256 130.956 16.9007C130.716 16.4758 130.222 16.2633 129.472 16.2633H128.012V21.9419H129.472C130.237 21.9419 130.747 21.6599 131.002 21.0959C131.126 20.8101 131.207 20.5049 131.245 20.1804C131.292 19.8559 131.315 19.4542 131.315 18.9751Z" fill="#21436E"/>
<path d="M120.32 23.0777V15.1392H125.327V16.2633H121.607V18.5116H124.631V19.6241H121.607V21.9419H125.327V23.0777H120.32Z" fill="#21436E"/>
<path d="M113.915 23.0777V15.1392H118.921V16.2633H115.201V18.5116H118.226V19.6241H115.201V21.9419H118.921V23.0777H113.915Z" fill="#21436E"/>
<path d="M105.97 23.0777V15.1392H108.218L110.629 21.9419H110.802V15.1392H112.089V23.0777H109.887L107.418 16.2633H107.256V23.0777H105.97Z" fill="#21436E"/>
<path d="M97.5457 20.2499V23.0777H96.2593V15.1392H99.2724C101.065 15.1392 101.961 15.9813 101.961 17.6656C101.961 18.7936 101.528 19.5585 100.663 19.9602L101.973 23.0777H100.559L99.4115 20.2499H97.5457ZM100.64 17.6772C100.64 16.7269 100.184 16.2517 99.2724 16.2517H97.5457V19.1374H99.2956C99.7592 19.1374 100.099 19.006 100.315 18.7434C100.532 18.4729 100.64 18.1175 100.64 17.6772Z" fill="#21436E"/>
<path d="M89.8535 23.0777V15.1392H94.86V16.2633H91.1399V18.5116H94.1646V19.6241H91.1399V21.9419H94.86V23.0777H89.8535Z" fill="#21436E"/>
<path d="M80.0073 23.0777V15.1392H82.244L84.0171 21.3393L85.7903 15.1392H88.0385V23.0777H86.7406V16.5646H86.5667L84.6893 22.7532H83.345L81.4675 16.5646H81.2937V23.0777H80.0073Z" fill="#21436E"/>
<path d="M73.781 21.3973C74.0437 21.8531 74.5458 22.081 75.2875 22.081C76.0292 22.081 76.5276 21.857 76.7825 21.4089C77.0452 20.9608 77.1766 20.2113 77.1766 19.1606C77.1766 18.1021 77.0414 17.3334 76.7709 16.8544C76.5083 16.3754 76.0138 16.1359 75.2875 16.1359C74.5613 16.1359 74.063 16.3754 73.7926 16.8544C73.5221 17.3334 73.3869 18.0983 73.3869 19.149C73.3869 20.192 73.5183 20.9415 73.781 21.3973ZM77.7908 22.2317C77.3195 22.8807 76.4851 23.2052 75.2875 23.2052C74.09 23.2052 73.2517 22.8807 72.7727 22.2317C72.2937 21.575 72.0542 20.5474 72.0542 19.149C72.0542 17.7506 72.2937 16.7114 72.7727 16.0316C73.2595 15.3517 74.0977 15.0117 75.2875 15.0117C76.4774 15.0117 77.3118 15.3517 77.7908 16.0316C78.2698 16.7037 78.5093 17.7429 78.5093 19.149C78.5093 20.5552 78.2698 21.5827 77.7908 22.2317Z" fill="#21436E"/>
<path d="M65.6729 16.2865V15.1392H71.4674V16.2865H69.2307V23.0777H67.9327V16.2865H65.6729Z" fill="#21436E"/>
<path d="M62.4745 16.1357C61.4933 16.1357 61.0027 16.4795 61.0027 17.1672C61.0027 17.5226 61.1186 17.7775 61.3504 17.932C61.5821 18.0788 62.0921 18.2643 62.8801 18.4883C63.6759 18.7046 64.236 18.9673 64.5605 19.2764C64.885 19.5777 65.0473 20.0567 65.0473 20.7134C65.0473 21.5478 64.8078 22.1736 64.3288 22.5908C63.8575 23.0003 63.2123 23.2051 62.3934 23.2051C61.7367 23.2051 61.0104 23.1278 60.2146 22.9733L59.7974 22.8922L59.9249 21.8607C60.9679 21.9998 61.7637 22.0693 62.3123 22.0693C63.2703 22.0693 63.7493 21.6444 63.7493 20.7945C63.7493 20.4623 63.6411 20.2189 63.4248 20.0644C63.2085 19.9022 62.7217 19.7283 61.9646 19.5429C61.2074 19.3498 60.6434 19.0871 60.2726 18.7549C59.9017 18.4226 59.7163 17.8973 59.7163 17.1787C59.7163 16.4602 59.9481 15.9194 60.4117 15.5563C60.8829 15.1854 61.5319 15 62.3586 15C62.9535 15 63.6566 15.0695 64.4678 15.2086L64.8734 15.2781L64.7691 16.3212C63.6875 16.1975 62.9226 16.1357 62.4745 16.1357Z" fill="#21436E"/>
<path d="M53.8366 20.5397C53.8366 21.5672 54.3774 22.081 55.459 22.081C56.5407 22.081 57.0815 21.5672 57.0815 20.5397V15.1392H58.3795V20.5165C58.3795 21.4513 58.1322 22.1351 57.6378 22.5677C57.151 22.9927 56.4209 23.2051 55.4474 23.2051C54.4817 23.2051 53.7554 22.9927 53.2687 22.5677C52.7819 22.1351 52.5386 21.4513 52.5386 20.5165V15.1392H53.8366V20.5397Z" fill="#21436E"/>
<path d="M48.9696 23.2052C47.8107 23.2052 47.0226 22.8846 46.6054 22.2433C46.196 21.602 45.9912 20.5474 45.9912 19.0795C45.9912 17.6115 46.1998 16.5685 46.617 15.9504C47.0342 15.3246 47.8184 15.0117 48.9696 15.0117C49.6572 15.0117 50.4144 15.1083 51.2411 15.3014L51.1947 16.3445C50.4994 16.2208 49.804 16.159 49.1087 16.159C48.4133 16.159 47.942 16.3676 47.6948 16.7848C47.4476 17.1943 47.324 17.9708 47.324 19.1142C47.324 20.25 47.4437 21.0264 47.6832 21.4436C47.9227 21.8531 48.3901 22.0579 49.0855 22.0579C49.7808 22.0579 50.4839 21.9999 51.1947 21.884L51.2295 22.9502C50.4337 23.1202 49.6804 23.2052 48.9696 23.2052Z" fill="#21436E"/>
<path d="M36.8926 16.2865V15.1392H42.6871V16.2865H40.4504V23.0777H39.1524V16.2865H36.8926Z" fill="#21436E"/>
<path d="M31.252 23.0777V15.1392H36.2584V16.2633H32.5383V18.5116H35.5631V19.6241H32.5383V21.9419H36.2584V23.0777H31.252Z" fill="#21436E"/>
<path d="M24.8462 23.0777V15.1392H29.8527V16.2633H26.1326V18.5116H29.1573V19.6241H26.1326V21.9419H29.8527V23.0777H24.8462Z" fill="#21436E"/>
<path d="M15 23.0777V15.1392H17.2367L19.0098 21.3393L20.7829 15.1392H23.0312V23.0777H21.7332V16.5646H21.5594L19.682 22.7532H18.3376L16.4602 16.5646H16.2864V23.0777H15Z" fill="#21436E"/>
<defs>
<linearGradient id="paint0_linear_68_129" x1="27.0269" y1="-18.9661" x2="130.109" y2="103.829" gradientUnits="userSpaceOnUse">
<stop stop-color="white" stop-opacity="0"/>
<stop offset="1" stop-color="#F7FAFB"/>
</linearGradient>
</defs>
</svg>
