<svg width="673" height="467" viewBox="0 0 673 467" fill="none" xmlns="http://www.w3.org/2000/svg">
<g clip-path="url(#clip0_2006_2)">
<mask id="mask0_2006_2" style="mask-type:luminance" maskUnits="userSpaceOnUse" x="0" y="0" width="673" height="467">
<path d="M673 0H0V467H673V0Z" fill="white"/>
</mask>
<g mask="url(#mask0_2006_2)">
<mask id="mask1_2006_2" style="mask-type:luminance" maskUnits="userSpaceOnUse" x="0" y="0" width="673" height="467">
<path d="M657 0H16C7.16344 0 0 7.16344 0 16V451C0 459.837 7.16344 467 16 467H657C665.837 467 673 459.837 673 451V16C673 7.16344 665.837 0 657 0Z" fill="white"/>
</mask>
<g mask="url(#mask1_2006_2)">
<path d="M394.947 343.042L393.956 343.172C392.618 343.346 391.259 343.452 389.883 343.486V343.5H387.883V343.486C386.506 343.452 385.147 343.346 383.809 343.172L382.817 343.042L383.076 341.06L384.067 341.188C385.643 341.394 387.251 341.5 388.883 341.5C390.515 341.5 392.122 341.394 393.697 341.188L394.688 341.06L394.947 343.042ZM366.447 333.887L366.926 334.248C369.173 335.918 371.617 337.338 374.217 338.467L374.775 338.704L375.699 339.087L374.934 340.935L374.01 340.552L373.42 340.301C370.679 339.11 368.102 337.614 365.733 335.854L365.229 335.473L364.436 334.863L365.654 333.277L366.447 333.887ZM413.329 334.863L412.536 335.473C409.863 337.527 406.914 339.242 403.755 340.552L402.831 340.935L402.065 339.087L402.989 338.704C405.985 337.462 408.781 335.836 411.317 333.887L412.11 333.277L413.329 334.863ZM354.825 318.754L355.062 319.312C356.191 321.912 357.611 324.356 359.281 326.604L359.643 327.082L360.252 327.875L358.666 329.094L358.057 328.301L357.676 327.796C355.916 325.427 354.419 322.85 353.229 320.109L352.978 319.52L352.595 318.596L354.442 317.83L354.825 318.754ZM425.17 318.596L424.787 319.52C423.477 322.679 421.762 325.628 419.708 328.301L419.099 329.094L417.513 327.875L418.122 327.082C420.071 324.546 421.697 321.749 422.939 318.754L423.322 317.83L425.17 318.596ZM350.029 304.647V299.022H352.029V304.647C352.029 306.28 352.135 307.887 352.341 309.462L352.471 310.453L350.487 310.712L350.357 309.721C350.141 308.06 350.029 306.366 350.029 304.647ZM427.407 309.721L427.277 310.712L425.294 310.453L425.424 309.462L427.407 309.721ZM425.735 304.647V299.016H427.735V304.647C427.735 306.366 427.624 308.06 427.407 309.721L425.424 309.462C425.629 307.887 425.735 306.28 425.735 304.647ZM350.029 280.524H352.029V291.773H350.029V280.524ZM425.735 280.49H427.735V291.753H425.735V280.49ZM350.029 262.026H352.029V273.275H350.029V262.026ZM425.735 261.966H427.735V273.228H425.735V261.966ZM350.029 243.529H352.029V254.778H350.029V243.529ZM425.735 243.44H427.735V254.703H425.735V243.44ZM5.66992 239.575V241.575H-1V239.575H5.66992ZM24.3506 239.575V241.575H13.0107V239.575H24.3506ZM43.0312 239.575V241.575H31.6914V239.575H43.0312ZM61.7119 239.575V241.575H50.3721V239.575H61.7119ZM80.3926 239.575V241.575H69.0527V239.575H80.3926ZM99.0742 239.575V241.575H87.7334V239.575H99.0742ZM117.755 239.575V241.575H106.414V239.575H117.755ZM136.436 239.575V241.575H125.095V239.575H136.436ZM155.116 239.575V241.575H143.775V239.575H155.116ZM173.797 239.575V241.575H162.456V239.575H173.797ZM192.478 239.575V241.575H181.137V239.575H192.478ZM211.158 239.575V241.575H199.817V239.575H211.158ZM230.314 241.229L229.319 241.325C227.625 241.49 225.906 241.575 224.169 241.575H218.498V239.575H224.169C225.841 239.575 227.495 239.494 229.125 239.335L230.12 239.238L230.314 241.229ZM548.257 239.335L549.484 239.439C550.716 239.529 551.959 239.575 553.214 239.575H558.231V241.575H553.214C551.694 241.575 550.188 241.51 548.7 241.384L548.063 241.325L547.068 241.229L547.262 239.238L548.257 239.335ZM574.304 239.575V241.575H564.268V239.575H574.304ZM590.375 239.575V241.575H580.339V239.575H590.375ZM606.446 239.575V241.575H596.41V239.575H606.446ZM618.5 239.575V241.575H612.482V239.575H618.5ZM249.821 234.908L248.939 235.38L248.373 235.679C245.532 237.156 242.539 238.381 239.424 239.325L238.467 239.615L237.887 237.701L238.844 237.411C242.039 236.443 245.102 235.167 247.995 233.617L248.877 233.145L249.821 234.908ZM529.387 233.617C532.099 235.07 534.96 236.283 537.94 237.227L538.538 237.411L539.495 237.701L538.915 239.615L537.958 239.325L537.337 239.133C534.238 238.152 531.263 236.891 528.442 235.38L527.562 234.908L528.506 233.145L529.387 233.617ZM350.029 225.031H352.029V236.28H350.029V225.031ZM425.735 224.915H427.735V236.178H425.735V224.915ZM265.416 221.595L264.781 222.368L264.369 222.863C262.292 225.33 259.991 227.603 257.499 229.65L256.727 230.285L255.456 228.74L256.229 228.105C258.787 226.004 261.135 223.655 263.236 221.098L263.871 220.325L265.416 221.595ZM514.146 221.098L514.543 221.575C516.409 223.79 518.461 225.842 520.676 227.708L521.153 228.105L521.926 228.74L520.656 230.285L519.884 229.65L519.388 229.238C517.086 227.299 514.953 225.165 513.014 222.863L512.601 222.367L511.966 221.595L513.512 220.325L514.146 221.098ZM350.029 206.533H352.029V217.782H350.029V206.533ZM425.735 206.39H427.735V217.652H425.735V206.39ZM270.511 213.809L270.039 214.689L268.276 213.746L268.748 212.864L270.511 213.809ZM504.84 203.713L505.025 204.311C505.969 207.291 507.182 210.151 508.635 212.864L509.106 213.746L507.344 214.689L506.871 213.809C505.36 210.988 504.099 208.013 503.118 204.914L502.926 204.293L502.636 203.336L504.55 202.756L504.84 203.713ZM274.746 203.336L274.456 204.293C273.449 207.616 272.122 210.8 270.511 213.809L269.63 213.336L268.748 212.864C270.298 209.971 271.574 206.908 272.542 203.713L272.832 202.756L274.746 203.336ZM350.029 188.035H352.029V199.284H350.029V188.035ZM425.735 187.864H427.735V199.127H425.735V187.864ZM274.706 189.037V184.568H276.706V189.037C276.706 190.775 276.622 192.493 276.457 194.188L276.359 195.183L274.369 194.989L274.466 193.994L274.57 192.767C274.66 191.535 274.706 190.292 274.706 189.037ZM500.677 189.037V184.521H502.677V189.037C502.677 190.292 502.722 191.535 502.812 192.767L502.916 193.994L503.014 194.989L501.022 195.183L500.926 194.188L500.868 193.551C500.742 192.063 500.677 190.557 500.677 189.037ZM350.029 175.162C350.029 173.538 349.924 171.939 349.72 170.372L351.703 170.113C351.919 171.766 352.029 173.452 352.029 175.162V180.786H350.029V175.162ZM425.735 174.971C425.735 173.269 425.846 171.592 426.061 169.947L426.189 168.956L428.173 169.214L428.044 170.206L427.972 170.792C427.815 172.163 427.735 173.557 427.735 174.971V180.602H425.735V174.971ZM274.706 175.162C274.706 173.452 274.817 171.766 275.032 170.113L275.162 169.122L277.146 169.381L277.016 170.372C276.811 171.939 276.706 173.538 276.706 175.162V179.631H274.706V175.162ZM500.677 174.971C500.677 173.557 500.596 172.163 500.439 170.792L500.368 170.206L500.239 169.214L502.222 168.956L502.352 169.947L502.427 170.565C502.592 172.011 502.677 173.481 502.677 174.971V179.487H500.677V174.971ZM351.703 170.113L349.72 170.372L349.59 169.381L351.573 169.122L351.703 170.113ZM284.889 152.051L284.279 152.843C282.34 155.366 280.723 158.148 279.487 161.128L279.104 162.052L277.257 161.286L277.64 160.362C278.943 157.219 280.65 154.285 282.694 151.625L283.304 150.832L284.889 152.051ZM344.041 151.625L344.421 152.127C346.172 154.484 347.662 157.048 348.847 159.775L349.096 160.362L349.479 161.286L347.631 162.052L347.248 161.128L347.012 160.572C345.889 157.987 344.477 155.555 342.815 153.319L342.455 152.843L341.847 152.05L343.432 150.832L344.041 151.625ZM494.728 151.55L495.105 152.049C496.973 154.562 498.541 157.311 499.757 160.244L500.14 161.168L498.293 161.935L497.909 161.011C496.757 158.232 495.271 155.625 493.5 153.242L493.143 152.769L492.533 151.976L494.118 150.757L494.728 151.55ZM430.502 161.011L430.119 161.934L428.271 161.168L428.655 160.244L430.502 161.011ZM435.879 151.976L435.27 152.769C433.341 155.278 431.731 158.046 430.502 161.011L428.655 160.244C429.952 157.116 431.65 154.197 433.684 151.55L434.293 150.757L435.879 151.976ZM300.258 140.898L299.334 141.281C296.354 142.517 293.572 144.135 291.049 146.074L290.256 146.684L289.037 145.098L289.83 144.488C292.49 142.444 295.425 140.737 298.568 139.434L299.492 139.051L300.258 140.898ZM328.167 139.434L328.754 139.684C331.482 140.868 334.046 142.357 336.403 144.108L336.905 144.488L337.698 145.098L336.479 146.684L335.687 146.074L335.21 145.714C332.974 144.053 330.543 142.64 327.957 141.518L327.401 141.281L326.478 140.898L327.243 139.051L328.167 139.434ZM449.862 140.344L450.246 141.267C447.282 142.496 444.514 144.105 442.004 146.034L441.211 146.644L439.992 145.058L440.785 144.448C443.432 142.414 446.352 140.717 449.479 139.42L449.862 140.344ZM478.933 139.42L479.517 139.667C482.231 140.846 484.781 142.329 487.127 144.071L487.627 144.448L488.42 145.058L487.201 146.644L486.408 146.034L485.935 145.677C483.71 144.024 481.292 142.619 478.72 141.502L478.166 141.267L477.242 140.884L478.009 139.036L478.933 139.42ZM451.169 140.884L450.246 141.267L449.479 139.42L450.403 139.036L451.169 140.884ZM314.367 136.5V136.515C315.523 136.544 316.666 136.622 317.795 136.751L318.416 136.827L319.407 136.956L319.148 138.939L318.157 138.81L317.568 138.738C316.19 138.581 314.788 138.5 313.367 138.5C311.744 138.5 310.145 138.605 308.578 138.81L307.586 138.939L307.328 136.956L308.319 136.827L308.94 136.751C310.069 136.622 311.212 136.544 312.367 136.515V136.5H314.367ZM465.206 136.5V136.515C466.566 136.549 467.908 136.653 469.229 136.825L470.221 136.954L469.962 138.938L468.971 138.809C467.412 138.605 465.821 138.5 464.206 138.5C462.591 138.5 461 138.605 459.441 138.809L458.449 138.938L458.191 136.954L459.183 136.825L459.801 136.75C460.922 136.622 462.058 136.544 463.206 136.515V136.5H465.206Z" fill="#F2F6F9"/>
<g filter="url(#filter0_d_2006_2)">
<path d="M450.333 106.5C480.115 106.5 504.259 130.644 504.259 160.426V178.95C504.259 199.633 521.026 216.401 541.709 216.401H575.25V188.766C575.25 187.226 576.917 186.264 578.25 187.033L654 230.768C655.333 231.537 655.333 233.463 654 234.232L578.25 277.967C576.917 278.736 575.25 277.774 575.25 276.234V251.401H541.709C501.696 251.401 469.259 218.963 469.259 178.95V160.426C469.259 149.974 460.785 141.5 450.333 141.5C439.881 141.5 431.407 149.974 431.407 160.426V306.896C431.407 336.396 407.493 360.31 377.994 360.31C348.495 360.309 324.581 336.395 324.581 306.896V159.905C324.581 149.74 316.341 141.5 306.176 141.5C296.011 141.5 287.771 149.741 287.771 159.905V306.896C287.771 336.395 263.857 360.309 234.358 360.31C204.859 360.31 180.946 336.396 180.945 306.896V288.106C180.945 267.56 164.288 250.904 143.742 250.904H-37V215.904H143.742C183.618 215.904 215.945 248.23 215.945 288.106V306.896C215.946 317.066 224.189 325.31 234.358 325.31C244.527 325.309 252.771 317.065 252.771 306.896V159.905C252.771 130.411 276.681 106.5 306.176 106.5C335.671 106.5 359.581 130.41 359.581 159.905V306.896C359.581 317.065 367.825 325.309 377.994 325.31C388.163 325.31 396.407 317.066 396.407 306.896V160.426C396.407 130.644 420.551 106.5 450.333 106.5Z" fill="url(#paint0_linear_2006_2)"/>
</g>
<path d="M240.17 342.868L239.178 342.997L238.585 343.069C237.522 343.191 236.446 343.265 235.358 343.294V343.31H233.358V343.294C232.27 343.265 231.194 343.191 230.131 343.069L229.538 342.997L228.547 342.868L228.805 340.885L229.797 341.014L230.357 341.083C231.67 341.233 233.005 341.31 234.358 341.31C235.905 341.31 237.427 341.208 238.919 341.014L239.911 340.885L240.17 342.868ZM383.806 342.868L382.814 342.997L382.222 343.069C381.159 343.191 380.082 343.265 378.994 343.294V343.31H376.994V343.294C375.906 343.265 374.83 343.191 373.768 343.069L373.175 342.997L372.183 342.868L372.441 340.885L373.434 341.014L373.994 341.083C375.306 341.233 376.641 341.31 377.994 341.31C379.541 341.31 381.063 341.208 382.556 341.014L383.547 340.885L383.806 342.868ZM213.104 334.097L213.558 334.439C215.687 336.021 218.002 337.366 220.464 338.436L220.994 338.66L221.918 339.043L221.151 340.891L220.228 340.508L219.667 340.27C217.063 339.139 214.615 337.717 212.364 336.045L211.886 335.683L211.093 335.073L212.311 333.487L213.104 334.097ZM257.624 335.073L256.831 335.683C254.291 337.634 251.49 339.263 248.488 340.508L247.564 340.891L246.798 339.043L247.722 338.66C250.559 337.483 253.21 335.943 255.612 334.097L256.405 333.487L257.624 335.073ZM356.74 334.097L357.194 334.439C359.475 336.134 361.971 337.557 364.631 338.66L365.554 339.043L364.788 340.891L363.864 340.508C361.05 339.341 358.412 337.837 356.001 336.045L355.521 335.683L354.729 335.073L355.947 333.487L356.74 334.097ZM401.26 335.073L400.467 335.683C397.927 337.634 395.126 339.263 392.125 340.508L391.201 340.891L390.435 339.043L391.358 338.66L391.889 338.436C394.527 337.29 396.996 335.828 399.248 334.097L400.041 333.487L401.26 335.073ZM268.853 319.603L268.47 320.526C267.225 323.528 265.596 326.329 263.645 328.869L263.035 329.662L261.449 328.443L262.059 327.65C263.905 325.248 265.445 322.598 266.622 319.76L267.005 318.836L268.853 319.603ZM412.489 319.603L412.106 320.526C410.862 323.528 409.233 326.329 407.281 328.869L406.672 329.662L405.086 328.443L405.695 327.65C407.542 325.248 409.082 322.598 410.259 319.76L410.642 318.836L412.489 319.603ZM202.094 319.76C203.197 322.42 204.62 324.915 206.314 327.196L206.657 327.65L207.267 328.443L205.681 329.661L205.071 328.869L204.709 328.39C202.917 325.978 201.413 323.34 200.246 320.526L202.094 319.76ZM345.73 319.76C346.834 322.42 348.256 324.915 349.951 327.196L350.294 327.65L350.903 328.443L349.317 329.661L348.708 328.869L348.346 328.39C346.554 325.978 345.05 323.34 343.883 320.526L345.73 319.76ZM202.094 319.76L200.246 320.526L199.863 319.603L201.711 318.836L202.094 319.76ZM345.73 319.76L343.883 320.526L343.5 319.603L345.347 318.836L345.73 319.76ZM197.445 306.396V300.699H199.445V306.396C199.445 307.75 199.522 309.084 199.672 310.396L199.74 310.957L199.869 311.949L197.886 312.208L197.757 311.216L197.685 310.623C197.526 309.236 197.445 307.825 197.445 306.396ZM269.271 306.396V300.803H271.271V306.396C271.271 308.029 271.165 309.638 270.959 311.216L270.83 312.208L268.847 311.949L268.976 310.957L269.045 310.396C269.195 309.084 269.271 307.75 269.271 306.396ZM341.081 306.396V300.803H343.081V306.396C343.081 307.75 343.158 309.084 343.308 310.396L343.377 310.957L343.506 311.949L341.522 312.208L341.394 311.216L341.321 310.623C341.163 309.236 341.081 307.825 341.081 306.396ZM412.907 306.396V300.818H414.907V306.396C414.907 308.029 414.802 309.638 414.596 311.216L414.467 312.208L412.483 311.949L412.612 310.957L412.681 310.396C412.83 309.084 412.907 307.75 412.907 306.396ZM412.907 282.51H414.907V293.664H412.907V282.51ZM269.271 282.429H271.271V293.615H269.271V282.429ZM341.081 282.429H343.081V293.615H341.081V282.429ZM197.445 287.606C197.445 286.542 197.414 285.484 197.353 284.435L197.281 283.389L197.204 282.392L199.198 282.236L199.275 283.233L199.35 284.318C199.413 285.406 199.445 286.503 199.445 287.606V293.304H197.445V287.606ZM195.218 266.284C196.326 268.957 197.233 271.735 197.918 274.599L198.15 275.571L196.205 276.036L195.973 275.064C195.312 272.304 194.438 269.627 193.37 267.051L195.218 266.284ZM412.907 264.201H414.907V275.355H412.907V264.201ZM269.271 264.055H271.271V275.242H269.271V264.055ZM341.081 264.055H343.081V275.242H341.081V264.055ZM195.218 266.284L193.37 267.051L192.987 266.127L194.835 265.36L195.218 266.284ZM186.1 251.431L186.801 252.268C188.418 254.236 189.904 256.317 191.243 258.498L191.767 259.351L190.062 260.397L189.539 259.545C188.248 257.442 186.816 255.435 185.256 253.537L184.579 252.73L183.93 251.97L185.45 250.67L186.1 251.431ZM412.907 245.893H414.907V257.047H412.907V245.893ZM269.271 245.681H271.271V256.868H269.271V245.681ZM341.081 245.681H343.081V256.868H341.081V245.681ZM172.851 240.106C175.032 241.446 177.113 242.931 179.082 244.549L179.919 245.25L180.679 245.899L179.38 247.42L178.619 246.771L177.812 246.094C175.914 244.534 173.907 243.102 171.805 241.811L170.952 241.287L171.999 239.583L172.851 240.106ZM412.907 227.584H414.907V238.738H412.907V227.584ZM269.271 227.307H271.271V238.494H269.271V227.307ZM341.081 227.307H343.081V238.494H341.081V227.307ZM156.751 233.432L157.82 233.699C160.307 234.347 162.727 235.162 165.065 236.132L165.988 236.515L165.223 238.362L164.299 237.979C162.045 237.045 159.713 236.259 157.316 235.635L156.285 235.377L155.312 235.145L155.778 233.199L156.751 233.432ZM537.471 232.237C538.869 232.346 540.283 232.401 541.709 232.401H546.933V234.401H541.709C540.231 234.401 538.766 234.343 537.316 234.23L536.319 234.153L536.474 232.159L537.471 232.237ZM563.828 232.401V234.401H553.381V232.401H563.828ZM576.5 232.401V234.401H570.276V232.401H576.5ZM143.742 231.904C144.846 231.904 145.943 231.937 147.031 232L148.116 232.074L149.113 232.151L148.958 234.146L147.961 234.067L146.915 233.997C145.865 233.936 144.807 233.904 143.742 233.904H138.224V231.904H143.742ZM-31.4814 231.904V233.904H-38V231.904H-31.4814ZM-13.4072 231.904V233.904H-24.4443V231.904H-13.4072ZM4.66699 231.904V233.904H-6.37012V231.904H4.66699ZM22.7412 231.904V233.904H11.7041V231.904H22.7412ZM40.8154 231.904V233.904H29.7783V231.904H40.8154ZM58.8896 231.904V233.904H47.8525V231.904H58.8896ZM76.9639 231.904V233.904H65.9268V231.904H76.9639ZM95.0381 231.904V233.904H84.001V231.904H95.0381ZM113.112 231.904V233.904H102.075V231.904H113.112ZM131.187 231.904V233.904H120.149V231.904H131.187ZM521.058 228.308L522.033 228.701C523.993 229.469 526.009 230.126 528.072 230.663L529.108 230.922L530.081 231.154L529.615 233.1L528.643 232.867L527.568 232.599C525.427 232.041 523.337 231.359 521.304 230.562L520.292 230.155L519.368 229.771L520.134 227.925L521.058 228.308ZM506.671 219.476C508.546 221.079 510.533 222.556 512.618 223.894L513.518 224.458L514.37 224.981L513.323 226.686L512.471 226.163L511.538 225.577C509.376 224.19 507.316 222.659 505.371 220.996L506.021 220.236L506.671 219.476ZM506.671 219.476L505.371 220.996L504.611 220.347L505.911 218.826L506.671 219.476ZM412.907 209.274H414.907V220.429H412.907V209.274ZM269.271 208.934H271.271V220.12H269.271V208.934ZM341.081 208.934H343.081V220.12H341.081V208.934ZM495.701 206.642L496.266 207.541C497.412 209.328 498.661 211.043 500.004 212.678L500.684 213.488L501.333 214.249L499.813 215.548L499.163 214.788L498.459 213.947C497.066 212.252 495.771 210.474 494.582 208.621L493.997 207.688L493.474 206.837L495.178 205.79L495.701 206.642ZM412.907 190.966H414.907V202.12H412.907V190.966ZM269.271 190.56H271.271V201.746H269.271V190.56ZM341.081 190.56H343.081V201.746H341.081V190.56ZM489.238 191.051C489.902 193.824 490.779 196.514 491.853 199.102L492.235 200.025L490.388 200.792L490.005 199.868C488.892 197.184 487.981 194.393 487.293 191.517L489.238 191.051ZM489.238 191.051L487.293 191.517L487.061 190.544L489.005 190.079L489.238 191.051ZM485.759 178.45V172.819H487.759V178.45C487.759 179.877 487.814 181.29 487.923 182.688L488 183.686L486.006 183.841L485.929 182.844C485.816 181.394 485.759 179.928 485.759 178.45ZM412.907 172.657H414.907V183.812H412.907V172.657ZM269.271 172.186H271.271V183.372H269.271V172.186ZM341.081 172.186H343.081V183.372H341.081V172.186ZM485.759 159.926C485.759 158.357 485.657 156.811 485.459 155.297L485.33 154.306L487.313 154.047L487.442 155.039C487.651 156.639 487.759 158.27 487.759 159.926V165.557H485.759V159.926ZM412.907 159.926C412.907 158.27 413.015 156.639 413.224 155.039L413.354 154.047L415.337 154.306L415.207 155.298L415.138 155.866C414.986 157.198 414.907 158.553 414.907 159.926V165.503H412.907V159.926ZM269.271 159.405C269.271 157.772 269.377 156.164 269.583 154.586L269.712 153.595L271.695 153.854L271.566 154.845C271.372 156.337 271.271 157.859 271.271 159.405V164.999H269.271V159.405ZM341.081 159.405C341.081 157.859 340.981 156.337 340.786 154.845L341.778 154.716L342.77 154.586C342.975 156.164 343.081 157.772 343.081 159.405V164.999H341.081V159.405ZM342.77 154.586L340.786 154.845L340.657 153.854L342.64 153.595L342.77 154.586ZM422.835 137.566L422.227 138.359C420.353 140.797 418.79 143.486 417.596 146.365L417.212 147.289L415.365 146.523L415.748 145.6C417.01 142.556 418.662 139.716 420.641 137.141L421.25 136.348L422.835 137.566ZM480.026 137.141L480.394 137.627C482.089 139.909 483.53 142.391 484.677 145.031L484.918 145.6L485.302 146.522L483.454 147.289L483.071 146.365L482.843 145.828C481.758 143.33 480.393 140.98 478.788 138.819L478.44 138.359L477.831 137.566L479.417 136.348L480.026 137.141ZM273.919 146.044L273.536 146.968L271.688 146.202L272.072 145.278L273.919 146.044ZM335.456 136.938L335.818 137.416C337.61 139.827 339.114 142.465 340.28 145.278L340.664 146.202L338.816 146.968L338.434 146.044C337.331 143.384 335.907 140.89 334.213 138.609L333.87 138.156L333.261 137.363L334.847 136.145L335.456 136.938ZM279.092 137.363L278.482 138.156C276.636 140.558 275.095 143.207 273.919 146.044L272.072 145.278C273.317 142.277 274.945 139.477 276.896 136.938L277.506 136.145L279.092 137.363ZM437.696 126.805L436.773 127.188C433.894 128.382 431.206 129.945 428.768 131.818L427.975 132.428L426.756 130.842L427.549 130.232L428.034 129.865C430.479 128.049 433.154 126.523 436.007 125.34L436.931 124.957L437.696 126.805ZM464.659 125.34L465.228 125.581C467.868 126.728 470.35 128.17 472.632 129.865L473.118 130.232L473.911 130.842L472.692 132.428L471.899 131.818L471.439 131.471C469.279 129.865 466.929 128.501 464.431 127.416L463.894 127.188L462.97 126.805L463.735 124.957L464.659 125.34ZM293.739 126.766L292.815 127.148L292.285 127.373C289.648 128.518 287.179 129.98 284.927 131.711L284.134 132.32L282.915 130.734L283.708 130.125C286.247 128.174 289.048 126.545 292.049 125.301L292.973 124.918L293.739 126.766ZM320.304 125.301L320.863 125.539C323.467 126.67 325.915 128.091 328.165 129.763L328.644 130.125L329.437 130.734L328.219 132.32L327.426 131.711L326.972 131.368C324.843 129.787 322.529 128.442 320.067 127.373L319.537 127.148L318.613 126.766L319.38 124.918L320.304 125.301ZM451.333 122.5V122.515C452.441 122.544 453.536 122.62 454.618 122.743L455.22 122.816L456.212 122.945L455.953 124.929L454.961 124.8L454.392 124.729C453.06 124.578 451.706 124.5 450.333 124.5C448.764 124.5 447.219 124.602 445.705 124.8L444.714 124.929L444.455 122.945L445.446 122.816L446.048 122.743C447.13 122.62 448.226 122.544 449.333 122.515V122.5H451.333ZM307.176 122.5V122.515C308.263 122.544 309.34 122.618 310.402 122.739L310.995 122.812L311.986 122.941L311.729 124.925L310.736 124.795L310.176 124.727C308.864 124.577 307.529 124.5 306.176 124.5C304.63 124.5 303.108 124.6 301.616 124.795L300.624 124.925L300.366 122.941L301.357 122.812L301.95 122.739C303.013 122.618 304.088 122.544 305.176 122.515V122.5H307.176Z" fill="#F2F6F9"/>
</g>
</g>
</g>
<defs>
<filter id="filter0_d_2006_2" x="-40" y="106.5" width="695" height="262.81" filterUnits="userSpaceOnUse" color-interpolation-filters="sRGB">
<feFlood flood-opacity="0" result="BackgroundImageFix"/>
<feColorMatrix in="SourceAlpha" type="matrix" values="0 0 0 0 0 0 0 0 0 0 0 0 0 0 0 0 0 0 127 0" result="hardAlpha"/>
<feOffset dx="-3" dy="9"/>
<feComposite in2="hardAlpha" operator="out"/>
<feColorMatrix type="matrix" values="0 0 0 0 0.737255 0 0 0 0 0.819608 0 0 0 0 0.94902 0 0 0 0.3 0"/>
<feBlend mode="normal" in2="BackgroundImageFix" result="effect1_dropShadow_2006_2"/>
<feBlend mode="normal" in="SourceGraphic" in2="effect1_dropShadow_2006_2" result="shape"/>
</filter>
<linearGradient id="paint0_linear_2006_2" x1="332.895" y1="328.833" x2="242.196" y2="42.79" gradientUnits="userSpaceOnUse">
<stop stop-color="#B7CEF0"/>
<stop offset="1" stop-color="#E7EEFB"/>
</linearGradient>
<clipPath id="clip0_2006_2">
<rect width="673" height="467" fill="white"/>
</clipPath>
</defs>
</svg>
