<svg width="129" height="31" viewBox="0 0 129 31" fill="none" xmlns="http://www.w3.org/2000/svg">
<path d="M1 8C1 4.13401 4.13401 1 8 1H120.47C124.336 1 127.47 4.13401 127.47 8V23C127.47 26.866 124.336 30 120.47 30H8C4.13401 30 1 26.866 1 23V8Z" fill="white"/>
<path d="M1 8C1 4.13401 4.13401 1 8 1H120.47C124.336 1 127.47 4.13401 127.47 8V23C127.47 26.866 124.336 30 120.47 30H8C4.13401 30 1 26.866 1 23V8Z" fill="url(#paint0_linear_6_363)" fill-opacity="0.2"/>
<path d="M1 8C1 4.13401 4.13401 1 8 1H120.47C124.336 1 127.47 4.13401 127.47 8V23C127.47 26.866 124.336 30 120.47 30H8C4.13401 30 1 26.866 1 23V8Z" stroke="#F0F4FC" stroke-width="2"/>
<path d="M116.47 12.56C116.47 12.9933 116.41 13.3233 116.29 13.55C116.177 13.77 115.94 14.03 115.58 14.33C115.227 14.6233 114.984 14.86 114.85 15.04C114.717 15.2133 114.65 15.4066 114.65 15.62V15.97H114.02C113.934 15.79 113.89 15.5866 113.89 15.36C113.89 15.1333 113.967 14.9233 114.12 14.73C114.274 14.53 114.52 14.2833 114.86 13.99C115.2 13.6966 115.427 13.4633 115.54 13.29C115.654 13.1166 115.71 12.8766 115.71 12.57C115.71 12.2566 115.604 12.0233 115.39 11.87C115.177 11.7166 114.84 11.64 114.38 11.64C114.087 11.64 113.657 11.7 113.09 11.82L112.83 11.87L112.78 11.26C113.454 11.06 114.01 10.96 114.45 10.96C115.137 10.96 115.644 11.0866 115.97 11.34C116.304 11.5866 116.47 11.9933 116.47 12.56ZM113.91 17.97V16.85H114.73V17.97H113.91Z" fill="#21436E"/>
<path d="M111.677 10.8V17.98H110.937V17.64C110.424 17.9334 109.917 18.08 109.417 18.08C109.151 18.08 108.917 18.0467 108.717 17.98C108.517 17.9134 108.331 17.7934 108.157 17.62C107.797 17.26 107.617 16.5967 107.617 15.63C107.617 14.6567 107.777 13.9567 108.097 13.53C108.424 13.0967 108.961 12.88 109.707 12.88C110.094 12.88 110.504 12.9234 110.937 13.01V10.8H111.677ZM108.737 17.08C108.844 17.2067 108.957 17.2934 109.077 17.34C109.197 17.3867 109.351 17.41 109.537 17.41C109.731 17.41 109.944 17.38 110.177 17.32C110.417 17.2534 110.604 17.19 110.737 17.13L110.937 17.04V13.65C110.511 13.57 110.114 13.53 109.747 13.53C109.241 13.53 108.887 13.6934 108.687 14.02C108.487 14.34 108.387 14.84 108.387 15.52C108.387 16.2934 108.504 16.8134 108.737 17.08Z" fill="#21436E"/>
<path d="M103.216 17.9799H102.466V12.9799H103.206V13.3299C103.746 13.0299 104.262 12.8799 104.756 12.8799C105.422 12.8799 105.869 13.0599 106.096 13.4199C106.329 13.7799 106.446 14.4199 106.446 15.3399V17.9799H105.706V15.3599C105.706 14.6665 105.636 14.1932 105.496 13.9399C105.362 13.6799 105.072 13.5499 104.626 13.5499C104.412 13.5499 104.186 13.5832 103.946 13.6499C103.712 13.7099 103.532 13.7699 103.406 13.8299L103.216 13.9199V17.9799Z" fill="#21436E"/>
<path d="M96.9629 15.4699C96.9629 14.5565 97.1262 13.8965 97.4529 13.4899C97.7796 13.0832 98.3296 12.8799 99.1029 12.8799C99.8829 12.8799 100.433 13.0832 100.753 13.4899C101.08 13.8965 101.243 14.5565 101.243 15.4699C101.243 16.3832 101.09 17.0465 100.783 17.4599C100.476 17.8732 99.9162 18.0799 99.1029 18.0799C98.2896 18.0799 97.7296 17.8732 97.4229 17.4599C97.1162 17.0465 96.9629 16.3832 96.9629 15.4699ZM97.7329 15.4599C97.7329 16.1865 97.8196 16.6966 97.9929 16.9899C98.1729 17.2832 98.5429 17.4299 99.1029 17.4299C99.6696 17.4299 100.04 17.2865 100.213 16.9999C100.386 16.7065 100.473 16.1932 100.473 15.4599C100.473 14.7265 100.376 14.2232 100.183 13.9499C99.9896 13.6699 99.6296 13.5299 99.1029 13.5299C98.5829 13.5299 98.2229 13.6699 98.0229 13.9499C97.8296 14.2232 97.7329 14.7265 97.7329 15.4599Z" fill="#21436E"/>
<path d="M91.9092 20.1999V12.9799H92.6492V13.3399C93.1558 13.0332 93.6558 12.8799 94.1492 12.8799C94.7825 12.8799 95.2425 13.0832 95.5292 13.4899C95.8158 13.8899 95.9592 14.5532 95.9592 15.4799C95.9592 16.4065 95.7892 17.0732 95.4492 17.4799C95.1158 17.8799 94.5592 18.0799 93.7792 18.0799C93.3725 18.0799 92.9992 18.0432 92.6592 17.9699V20.1999H91.9092ZM94.0392 13.5499C93.8392 13.5499 93.6225 13.5832 93.3892 13.6499C93.1625 13.7165 92.9825 13.7832 92.8492 13.8499L92.6592 13.9499V17.3199C93.1325 17.3932 93.4925 17.4299 93.7392 17.4299C94.2792 17.4299 94.6558 17.2765 94.8692 16.9699C95.0892 16.6632 95.1992 16.1632 95.1992 15.4699C95.1992 14.7765 95.0992 14.2832 94.8992 13.9899C94.7058 13.6965 94.4192 13.5499 94.0392 13.5499Z" fill="#21436E"/>
<path d="M88.8312 13.5499C88.1045 13.5499 87.7412 13.8032 87.7412 14.3099C87.7412 14.5432 87.8245 14.7099 87.9912 14.8099C88.1579 14.9032 88.5379 15.0032 89.1312 15.1099C89.7245 15.2099 90.1445 15.3532 90.3912 15.5399C90.6379 15.7265 90.7612 16.0765 90.7612 16.5899C90.7612 17.1032 90.5945 17.4799 90.2612 17.7199C89.9345 17.9599 89.4545 18.0799 88.8212 18.0799C88.4079 18.0799 87.9212 18.0332 87.3612 17.9399L87.0612 17.8899L87.1012 17.2399C87.8612 17.3532 88.4345 17.4099 88.8212 17.4099C89.2079 17.4099 89.5012 17.3499 89.7012 17.2299C89.9079 17.1032 90.0112 16.8965 90.0112 16.6099C90.0112 16.3165 89.9245 16.1199 89.7512 16.0199C89.5779 15.9132 89.1979 15.8132 88.6112 15.7199C88.0245 15.6265 87.6079 15.4899 87.3612 15.3099C87.1145 15.1299 86.9912 14.7965 86.9912 14.3099C86.9912 13.8232 87.1612 13.4632 87.5012 13.2299C87.8479 12.9965 88.2779 12.8799 88.7912 12.8799C89.1979 12.8799 89.7079 12.9265 90.3212 13.0199L90.6012 13.0699L90.5812 13.7099C89.8412 13.6032 89.2579 13.5499 88.8312 13.5499Z" fill="#21436E"/>
<path d="M85.6122 17.3599L85.9022 17.3299L85.9222 17.9199C85.1622 18.0265 84.5122 18.0799 83.9722 18.0799C83.2522 18.0799 82.7422 17.8732 82.4422 17.4599C82.1422 17.0399 81.9922 16.3899 81.9922 15.5099C81.9922 13.7565 82.6889 12.8799 84.0822 12.8799C84.7555 12.8799 85.2589 13.0699 85.5922 13.4499C85.9255 13.8232 86.0922 14.4132 86.0922 15.2199L86.0522 15.7899H82.7522C82.7522 16.3432 82.8522 16.7532 83.0522 17.0199C83.2522 17.2865 83.5989 17.4199 84.0922 17.4199C84.5922 17.4199 85.0989 17.3999 85.6122 17.3599ZM85.3422 15.1899C85.3422 14.5765 85.2422 14.1432 85.0422 13.8899C84.8489 13.6365 84.5289 13.5099 84.0822 13.5099C83.6422 13.5099 83.3089 13.6432 83.0822 13.9099C82.8622 14.1765 82.7489 14.6032 82.7422 15.1899H85.3422Z" fill="#21436E"/>
<path d="M78.8525 17.9799V12.9799H79.5925V13.6599C80.1725 13.2599 80.7825 12.9965 81.4225 12.8699V13.6299C81.1425 13.6832 80.8492 13.7665 80.5425 13.8799C80.2425 13.9932 80.0125 14.0932 79.8525 14.1799L79.6025 14.3099V17.9799H78.8525Z" fill="#21436E"/>
<path d="M75.0067 17.3599L75.2967 17.3299L75.3167 17.9199C74.5567 18.0265 73.9067 18.0799 73.3667 18.0799C72.6467 18.0799 72.1367 17.8732 71.8367 17.4599C71.5367 17.0399 71.3867 16.3899 71.3867 15.5099C71.3867 13.7565 72.0834 12.8799 73.4767 12.8799C74.1501 12.8799 74.6534 13.0699 74.9867 13.4499C75.3201 13.8232 75.4867 14.4132 75.4867 15.2199L75.4467 15.7899H72.1467C72.1467 16.3432 72.2467 16.7532 72.4467 17.0199C72.6467 17.2865 72.9934 17.4199 73.4867 17.4199C73.9867 17.4199 74.4934 17.3999 75.0067 17.3599ZM74.7367 15.1899C74.7367 14.5765 74.6367 14.1432 74.4367 13.8899C74.2434 13.6365 73.9234 13.5099 73.4767 13.5099C73.0367 13.5099 72.7034 13.6432 72.4767 13.9099C72.2567 14.1765 72.1434 14.6032 72.1367 15.1899H74.7367Z" fill="#21436E"/>
<path d="M63.6279 12.98H64.3779L65.3879 17.33H65.5479L66.7379 13.08H67.5179L68.7079 17.33H68.8779L69.8779 12.98H70.6279L69.4379 17.98H68.1879L67.1279 14.07L66.0679 17.98H64.8179L63.6279 12.98Z" fill="#21436E"/>
<path d="M60.3881 10.8V17.98H59.6481V17.64C59.1348 17.9334 58.6281 18.08 58.1281 18.08C57.8615 18.08 57.6281 18.0467 57.4281 17.98C57.2281 17.9134 57.0415 17.7934 56.8681 17.62C56.5081 17.26 56.3281 16.5967 56.3281 15.63C56.3281 14.6567 56.4881 13.9567 56.8081 13.53C57.1348 13.0967 57.6715 12.88 58.4181 12.88C58.8048 12.88 59.2148 12.9234 59.6481 13.01V10.8H60.3881ZM57.4481 17.08C57.5548 17.2067 57.6681 17.2934 57.7881 17.34C57.9081 17.3867 58.0615 17.41 58.2481 17.41C58.4415 17.41 58.6548 17.38 58.8881 17.32C59.1281 17.2534 59.3148 17.19 59.4481 17.13L59.6481 17.04V13.65C59.2215 13.57 58.8248 13.53 58.4581 13.53C57.9515 13.53 57.5981 13.6934 57.3981 14.02C57.1981 14.34 57.0981 14.84 57.0981 15.52C57.0981 16.2934 57.2148 16.8134 57.4481 17.08Z" fill="#21436E"/>
<path d="M54.2939 17.98V10.8H55.0439V17.98H54.2939Z" fill="#21436E"/>
<path d="M52.0411 12.98H52.7911V17.98H52.0411V17.63C51.5411 17.93 51.0478 18.08 50.5611 18.08C49.8811 18.08 49.4278 17.9033 49.2011 17.55C48.9811 17.1966 48.8711 16.5433 48.8711 15.59V12.98H49.6211V15.58C49.6211 16.3066 49.6844 16.7933 49.8111 17.04C49.9378 17.2866 50.2244 17.41 50.6711 17.41C50.8911 17.41 51.1144 17.38 51.3411 17.32C51.5678 17.2533 51.7411 17.19 51.8611 17.13L52.0411 17.04V12.98Z" fill="#21436E"/>
<path d="M43.418 15.4699C43.418 14.5565 43.5813 13.8965 43.908 13.4899C44.2346 13.0832 44.7846 12.8799 45.558 12.8799C46.338 12.8799 46.888 13.0832 47.208 13.4899C47.5346 13.8965 47.698 14.5565 47.698 15.4699C47.698 16.3832 47.5446 17.0465 47.238 17.4599C46.9313 17.8732 46.3713 18.0799 45.558 18.0799C44.7446 18.0799 44.1846 17.8732 43.878 17.4599C43.5713 17.0465 43.418 16.3832 43.418 15.4699ZM44.188 15.4599C44.188 16.1865 44.2746 16.6966 44.448 16.9899C44.628 17.2832 44.998 17.4299 45.558 17.4299C46.1246 17.4299 46.4946 17.2865 46.668 16.9999C46.8413 16.7065 46.928 16.1932 46.928 15.4599C46.928 14.7265 46.8313 14.2232 46.638 13.9499C46.4446 13.6699 46.0846 13.5299 45.558 13.5299C45.038 13.5299 44.678 13.6699 44.478 13.9499C44.2846 14.2232 44.188 14.7265 44.188 15.4599Z" fill="#21436E"/>
<path d="M39.0166 17.98H38.2666V10.8H39.0166V13.26C39.5499 13.0067 40.0633 12.88 40.5566 12.88C41.2233 12.88 41.6699 13.06 41.8966 13.42C42.1299 13.78 42.2466 14.42 42.2466 15.34V17.98H41.4966V15.36C41.4966 14.6667 41.4266 14.1934 41.2866 13.94C41.1533 13.68 40.8666 13.55 40.4266 13.55C40.0066 13.55 39.5999 13.6267 39.2066 13.78L39.0166 13.85V17.98Z" fill="#21436E"/>
<path d="M35.1886 13.5499C34.462 13.5499 34.0986 13.8032 34.0986 14.3099C34.0986 14.5432 34.182 14.7099 34.3486 14.8099C34.5153 14.9032 34.8953 15.0032 35.4886 15.1099C36.082 15.2099 36.502 15.3532 36.7486 15.5399C36.9953 15.7265 37.1186 16.0765 37.1186 16.5899C37.1186 17.1032 36.952 17.4799 36.6186 17.7199C36.292 17.9599 35.812 18.0799 35.1786 18.0799C34.7653 18.0799 34.2786 18.0332 33.7186 17.9399L33.4186 17.8899L33.4586 17.2399C34.2186 17.3532 34.792 17.4099 35.1786 17.4099C35.5653 17.4099 35.8586 17.3499 36.0586 17.2299C36.2653 17.1032 36.3686 16.8965 36.3686 16.6099C36.3686 16.3165 36.282 16.1199 36.1086 16.0199C35.9353 15.9132 35.5553 15.8132 34.9686 15.7199C34.382 15.6265 33.9653 15.4899 33.7186 15.3099C33.472 15.1299 33.3486 14.7965 33.3486 14.3099C33.3486 13.8232 33.5186 13.4632 33.8586 13.2299C34.2053 12.9965 34.6353 12.8799 35.1486 12.8799C35.5553 12.8799 36.0653 12.9265 36.6786 13.0199L36.9586 13.0699L36.9386 13.7099C36.1986 13.6032 35.6153 13.5499 35.1886 13.5499Z" fill="#21436E"/>
<path d="M23.3936 12.98H24.1436L25.1536 17.33H25.3136L26.5036 13.08H27.2836L28.4736 17.33H28.6436L29.6436 12.98H30.3936L29.2036 17.98H27.9536L26.8936 14.07L25.8336 17.98H24.5836L23.3936 12.98Z" fill="#21436E"/>
<path d="M18.3496 15.4699C18.3496 14.5565 18.5129 13.8965 18.8396 13.4899C19.1663 13.0832 19.7163 12.8799 20.4896 12.8799C21.2696 12.8799 21.8196 13.0832 22.1396 13.4899C22.4663 13.8965 22.6296 14.5565 22.6296 15.4699C22.6296 16.3832 22.4763 17.0465 22.1696 17.4599C21.8629 17.8732 21.3029 18.0799 20.4896 18.0799C19.6763 18.0799 19.1163 17.8732 18.8096 17.4599C18.5029 17.0465 18.3496 16.3832 18.3496 15.4699ZM19.1196 15.4599C19.1196 16.1865 19.2063 16.6966 19.3796 16.9899C19.5596 17.2832 19.9296 17.4299 20.4896 17.4299C21.0563 17.4299 21.4263 17.2865 21.5996 16.9999C21.7729 16.7065 21.8596 16.1932 21.8596 15.4599C21.8596 14.7265 21.7629 14.2232 21.5696 13.9499C21.3763 13.6699 21.0163 13.5299 20.4896 13.5299C19.9696 13.5299 19.6096 13.6699 19.4096 13.9499C19.2163 14.2232 19.1196 14.7265 19.1196 15.4599Z" fill="#21436E"/>
<path d="M16.29 17.9801V14.8501H12.77L12.77 17.9801H12L12 11.0601H12.77V14.1601H16.29V11.0601H17.05V17.9801H16.29Z" fill="#21436E"/>
<defs>
<linearGradient id="paint0_linear_6_363" x1="22.6481" y1="-14.9926" x2="104.622" y2="86.4088" gradientUnits="userSpaceOnUse">
<stop stop-color="white" stop-opacity="0"/>
<stop offset="1" stop-color="#F7FAFB"/>
</linearGradient>
</defs>
</svg>
