<svg width="596" height="322" viewBox="0 0 596 322" fill="none" xmlns="http://www.w3.org/2000/svg">
<path d="M21 300L19 300L19 -8.16393e-08L21 0L21 300Z" fill="#C9D7E8"/>
<path d="M20.5 300L20.5 301L19 301L19 300L20.5 300ZM26.5 300L26.5 301L23.5 301L23.5 300L26.5 300ZM32.5 300L32.5 301L29.5 301L29.5 300L32.5 300ZM38.5 300L38.5 301L35.5 301L35.5 300L38.5 300ZM44.5 300L44.5 301L41.5 301L41.5 300L44.5 300ZM50.5 300L50.5 301L47.5 301L47.5 300L50.5 300ZM56.5 300L56.5 301L53.5 301L53.5 300L56.5 300ZM62.5 300L62.5 301L59.5 301L59.5 300L62.5 300ZM68.5 300L68.5 301L65.5 301L65.5 300L68.5 300ZM74.5 300L74.5 301L71.5 301L71.5 300L74.5 300ZM80.5 300L80.5 301L77.5 301L77.5 300L80.5 300ZM86.5 300L86.5 301L83.5 301L83.5 300L86.5 300ZM92.5 300L92.5 301L89.5 301L89.5 300L92.5 300ZM98.5 300L98.5 301L95.5 301L95.5 300L98.5 300ZM104.5 300L104.5 301L101.5 301L101.5 300L104.5 300ZM110.5 300L110.5 301L107.5 301L107.5 300L110.5 300ZM116.5 300L116.5 301L113.5 301L113.5 300L116.5 300ZM122.5 300L122.5 301L119.5 301L119.5 300L122.5 300ZM128.5 300L128.5 301L125.5 301L125.5 300L128.5 300ZM134.5 300L134.5 301L131.5 301L131.5 300L134.5 300ZM140.5 300L140.5 301L137.5 301L137.5 300L140.5 300ZM146.5 300L146.5 301L143.5 301L143.5 300L146.5 300ZM152.5 300L152.5 301L149.5 301L149.5 300L152.5 300ZM158.5 300L158.5 301L155.5 301L155.5 300L158.5 300ZM164.5 300L164.5 301L161.5 301L161.5 300L164.5 300ZM170.5 300L170.5 301L167.5 301L167.5 300L170.5 300ZM176.5 300L176.5 301L173.5 301L173.5 300L176.5 300ZM182.5 300L182.5 301L179.5 301L179.5 300L182.5 300ZM188.5 300L188.5 301L185.5 301L185.5 300L188.5 300ZM194.5 300L194.5 301L191.5 301L191.5 300L194.5 300ZM200.5 300L200.5 301L197.5 301L197.5 300L200.5 300ZM206.5 300L206.5 301L203.5 301L203.5 300L206.5 300ZM212.5 300L212.5 301L209.5 301L209.5 300L212.5 300ZM218.5 300L218.5 301L215.5 301L215.5 300L218.5 300ZM224.5 300L224.5 301L221.5 301L221.5 300L224.5 300ZM230.5 300L230.5 301L227.5 301L227.5 300L230.5 300ZM236.5 300L236.5 301L233.5 301L233.5 300L236.5 300ZM242.5 300L242.5 301L239.5 301L239.5 300L242.5 300ZM248.5 300L248.5 301L245.5 301L245.5 300L248.5 300ZM254.5 300L254.5 301L251.5 301L251.5 300L254.5 300ZM260.5 300L260.5 301L257.5 301L257.5 300L260.5 300ZM266.5 300L266.5 301L263.5 301L263.5 300L266.5 300ZM272.5 300L272.5 301L269.5 301L269.5 300L272.5 300ZM278.5 300L278.5 301L275.5 301L275.5 300L278.5 300ZM284.5 300L284.5 301L281.5 301L281.5 300L284.5 300ZM290.5 300L290.5 301L287.5 301L287.5 300L290.5 300ZM296.5 300L296.5 301L293.5 301L293.5 300L296.5 300ZM302.5 300L302.5 301L299.5 301L299.5 300L302.5 300ZM308.5 300L308.5 301L305.5 301L305.5 300L308.5 300ZM314.5 300L314.5 301L311.5 301L311.5 300L314.5 300ZM320.5 300L320.5 301L317.5 301L317.5 300L320.5 300ZM326.5 300L326.5 301L323.5 301L323.5 300L326.5 300ZM332.5 300L332.5 301L329.5 301L329.5 300L332.5 300ZM338.5 300L338.5 301L335.5 301L335.5 300L338.5 300ZM344.5 300L344.5 301L341.5 301L341.5 300L344.5 300ZM350.5 300L350.5 301L347.5 301L347.5 300L350.5 300ZM356.5 300L356.5 301L353.5 301L353.5 300L356.5 300ZM362.5 300L362.5 301L359.5 301L359.5 300L362.5 300ZM368.5 300L368.5 301L365.5 301L365.5 300L368.5 300ZM374.5 300L374.5 301L371.5 301L371.5 300L374.5 300ZM380.5 300L380.5 301L377.5 301L377.5 300L380.5 300ZM386.5 300L386.5 301L383.5 301L383.5 300L386.5 300ZM392.5 300L392.5 301L389.5 301L389.5 300L392.5 300ZM398.5 300L398.5 301L395.5 301L395.5 300L398.5 300ZM404.5 300L404.5 301L401.5 301L401.5 300L404.5 300ZM410.5 300L410.5 301L407.5 301L407.5 300L410.5 300ZM416.5 300L416.5 301L413.5 301L413.5 300L416.5 300ZM422.5 300L422.5 301L419.5 301L419.5 300L422.5 300ZM428.5 300L428.5 301L425.5 301L425.5 300L428.5 300ZM434.5 300L434.5 301L431.5 301L431.5 300L434.5 300ZM440.5 300L440.5 301L437.5 301L437.5 300L440.5 300ZM446.5 300L446.5 301L443.5 301L443.5 300L446.5 300ZM452.5 300L452.5 301L449.5 301L449.5 300L452.5 300ZM458.5 300L458.5 301L455.5 301L455.5 300L458.5 300ZM464.5 300L464.5 301L461.5 301L461.5 300L464.5 300ZM470.5 300L470.5 301L467.5 301L467.5 300L470.5 300ZM476.5 300L476.5 301L473.5 301L473.5 300L476.5 300ZM482.5 300L482.5 301L479.5 301L479.5 300L482.5 300ZM488.5 300L488.5 301L485.5 301L485.5 300L488.5 300ZM494.5 300L494.5 301L491.5 301L491.5 300L494.5 300ZM500.5 300L500.5 301L497.5 301L497.5 300L500.5 300ZM506.5 300L506.5 301L503.5 301L503.5 300L506.5 300ZM512.5 300L512.5 301L509.5 301L509.5 300L512.5 300ZM518.5 300L518.5 301L515.5 301L515.5 300L518.5 300ZM524.5 300L524.5 301L521.5 301L521.5 300L524.5 300ZM530.5 300L530.5 301L527.5 301L527.5 300L530.5 300ZM535 300L535 301L533.5 301L533.5 300L535 300Z" fill="#C9D7E8" fill-opacity="0.41"/>
<path d="M596 299.002L596 301.002L19 301.002L19 299.002L596 299.002Z" fill="#C9D7E8"/>
<path d="M7.93658 92.6808L7.90113 92.3499L8.85844 92.3262C9.03966 93.2244 9.13027 94.0202 9.13027 94.7136C9.13027 95.5882 8.88995 96.2185 8.40933 96.6046C7.9287 96.9828 7.16049 97.1719 6.10469 97.1719C4.00886 97.1719 2.96094 96.317 2.96094 94.6072C2.96094 92.9526 3.86309 92.1253 5.66741 92.1253L6.58926 92.208L6.58926 95.8718C7.07776 95.8639 7.43626 95.7576 7.66476 95.5527C7.89325 95.3479 8.0075 94.9657 8.0075 94.4063C8.0075 93.8469 7.98386 93.2717 7.93658 92.6808ZM5.59649 93.3899C5.01344 93.3899 4.60767 93.4845 4.37917 93.6736C4.1428 93.8548 4.02461 94.166 4.02461 94.6072C4.02461 95.0485 4.14674 95.3715 4.39099 95.5764C4.63524 95.7733 5.03708 95.8758 5.59649 95.8836L5.59649 93.3899Z" fill="#21436E"/>
<path d="M9.80383 97.9344C11.096 97.9344 11.7421 98.8681 11.7421 100.735C11.7421 101.634 11.62 102.299 11.3757 102.733C11.1315 103.166 10.6863 103.383 10.0402 103.383C9.74867 103.383 9.49654 103.312 9.28381 103.17C9.07895 103.028 8.8544 102.8 8.61015 102.485C8.43681 102.745 8.14922 102.875 7.74739 102.875C7.5898 102.875 7.33373 102.768 6.97917 102.556L6.8019 102.449C6.46309 103.016 5.87216 103.3 5.0291 103.3C4.31998 103.3 3.79996 103.087 3.46904 102.662C3.13812 102.236 2.97266 101.661 2.97266 100.936C2.97266 100.59 3.01205 100.247 3.09084 99.9081L3.1263 99.7309L3.07902 97.899L4.11906 97.899L4.05997 98.8799C4.33574 98.6672 4.65878 98.5608 5.0291 98.5608C5.80125 98.5608 6.33703 98.7578 6.63643 99.1517C6.92796 99.5378 7.07372 100.145 7.07372 100.972C7.07372 101.177 7.05797 101.35 7.02645 101.492C7.29434 101.602 7.50313 101.657 7.65284 101.657C7.79466 101.657 7.89315 101.586 7.9483 101.445C8.00346 101.295 8.03497 100.94 8.04285 100.381C8.05073 99.4433 8.1768 98.8011 8.42105 98.4544C8.6653 98.1078 9.12623 97.9344 9.80383 97.9344ZM9.92202 102.118C10.1978 102.118 10.3948 102.008 10.5129 101.787C10.6311 101.567 10.6902 101.188 10.6902 100.653C10.6902 99.6993 10.4184 99.2227 9.87474 99.2227C9.56746 99.2227 9.37048 99.3093 9.28381 99.4827C9.20502 99.6481 9.16168 99.983 9.1538 100.487L9.08289 101.645C9.22472 101.819 9.35472 101.941 9.47291 102.012C9.59897 102.083 9.74868 102.118 9.92202 102.118ZM5.0291 102.024C5.39154 102.024 5.65943 101.937 5.83277 101.764C5.99823 101.59 6.08096 101.311 6.08096 100.925C6.08096 100.538 5.99823 100.263 5.83277 100.097C5.65943 99.9239 5.39154 99.8372 5.0291 99.8372C4.66666 99.8372 4.40271 99.9239 4.23725 100.097C4.06391 100.271 3.97724 100.55 3.97724 100.936C3.97724 101.661 4.32786 102.024 5.0291 102.024Z" fill="#21436E"/>
<path d="M4.91101 104.716L7.60566 104.716C7.779 104.708 7.90901 104.664 7.99568 104.586C8.07447 104.499 8.12568 104.369 8.14932 104.196L9.13027 104.231C9.13027 104.909 8.9845 105.433 8.69298 105.803C8.9845 106.433 9.13027 107.068 9.13027 107.706C9.13027 108.88 8.50388 109.467 7.2511 109.467C6.65229 109.467 6.21894 109.309 5.95105 108.994C5.68316 108.671 5.52164 108.179 5.46649 107.517L5.33648 105.992L4.91101 105.992C4.59585 105.992 4.37523 106.063 4.24917 106.205C4.1231 106.339 4.06007 106.54 4.06007 106.808C4.06007 107.312 4.09159 107.942 4.15462 108.699L4.17826 109.077L3.26822 109.124C3.06337 108.265 2.96094 107.477 2.96094 106.76C2.96094 106.035 3.11852 105.515 3.43368 105.2C3.74097 104.877 4.23341 104.716 4.91101 104.716ZM6.37652 107.363C6.4238 107.907 6.71926 108.179 7.26292 108.179C7.80658 108.179 8.07841 107.938 8.07841 107.458C8.07841 107.064 8.01537 106.646 7.88931 106.205L7.8184 105.992L6.24652 105.992L6.37652 107.363Z" fill="#21436E"/>
<path d="M4.18979 110.145L4.18979 111.776L6.78989 111.776C7.27051 111.776 7.58962 111.74 7.7472 111.669C7.90478 111.599 7.98357 111.417 7.98357 111.126L7.94811 110.157L8.97634 110.098C9.07876 110.625 9.12998 111.027 9.12998 111.303C9.12998 111.973 8.97634 112.434 8.66905 112.686C8.36177 112.93 7.78265 113.052 6.93171 113.052L4.18979 113.052L4.18979 113.809L3.09066 113.809L3.09066 113.052L1.37695 113.052L1.37695 111.776L3.09066 111.776L3.09066 110.145L4.18979 110.145Z" fill="#21436E"/>
<path d="M9.00026 118.487L9.00026 119.775L3.09094 119.775L3.09094 118.499L3.45732 118.499C3.1264 117.924 2.96094 117.38 2.96094 116.868C2.96094 116.08 3.18549 115.544 3.6346 115.261C4.07583 114.969 4.80858 114.823 5.83287 114.823L9.00026 114.823L9.00026 116.1L5.86832 116.1C5.23012 116.1 4.77707 116.171 4.50918 116.313C4.24129 116.446 4.10734 116.726 4.10734 117.152C4.10735 117.553 4.18614 117.94 4.34372 118.31L4.41463 118.487L9.00026 118.487Z" fill="#21436E"/>
<path d="M4.91101 121.393L7.60566 121.393C7.779 121.386 7.90901 121.342 7.99568 121.263C8.07447 121.177 8.12568 121.047 8.14932 120.873L9.13027 120.909C9.13027 121.586 8.9845 122.11 8.69298 122.481C8.9845 123.111 9.13027 123.745 9.13027 124.384C9.13027 125.558 8.50388 126.145 7.2511 126.145C6.65229 126.145 6.21894 125.987 5.95105 125.672C5.68316 125.349 5.52164 124.856 5.46649 124.194L5.33648 122.67L4.91101 122.67C4.59585 122.67 4.37523 122.741 4.24917 122.883C4.1231 123.017 4.06007 123.217 4.06007 123.485C4.06007 123.99 4.09159 124.62 4.15462 125.376L4.17826 125.755L3.26822 125.802C3.06337 124.943 2.96094 124.155 2.96094 123.438C2.96094 122.713 3.11852 122.193 3.43368 121.878C3.74097 121.555 4.23341 121.393 4.91101 121.393ZM6.37652 124.041C6.4238 124.584 6.71926 124.856 7.26292 124.856C7.80658 124.856 8.07841 124.616 8.07841 124.135C8.07841 123.741 8.01537 123.324 7.88931 122.883L7.8184 122.67L6.24652 122.67L6.37652 124.041Z" fill="#21436E"/>
<path d="M3.08984 132.047L3.08984 130.7L7.90003 129.565L7.90003 129.187L3.08984 128.005L3.08984 126.693L8.99916 128.229L8.99916 130.522L3.08984 132.047Z" fill="#21436E"/>
<path d="M0.632812 133.051L9.00041 133.051L9.00041 134.327L8.69312 134.327C8.98465 134.902 9.13041 135.43 9.13041 135.911C9.13041 136.683 8.89798 137.25 8.43311 137.613C7.96825 137.967 7.18822 138.145 6.09302 138.145C4.99783 138.145 4.20204 137.948 3.70566 137.554C3.20927 137.152 2.96108 136.529 2.96108 135.686C2.96108 135.403 3.0123 134.953 3.11473 134.339L0.632812 134.339L0.632812 133.051ZM7.77127 134.54L7.68854 134.339L4.19022 134.339C4.11143 134.812 4.07204 135.249 4.07204 135.651C4.07204 136.447 4.73388 136.844 6.05757 136.844C6.78244 136.844 7.2867 136.754 7.57035 136.573C7.84612 136.384 7.984 136.088 7.984 135.686C7.984 135.284 7.91309 134.902 7.77127 134.54Z" fill="#21436E"/>
<path d="M9.00006 145.434L0.904297 143.436L0.904297 140.824L9.00006 138.815L9.00006 140.139L7.26272 140.576L7.26272 143.684L9.00006 144.122L9.00006 145.434ZM2.00343 142.42L6.1045 143.424L6.1045 140.836L2.00343 141.829L2.00343 142.42Z" fill="#21436E"/>
<path d="M7.93658 149.282L7.90113 148.951L8.85844 148.928C9.03966 149.826 9.13027 150.622 9.13027 151.315C9.13027 152.19 8.88995 152.82 8.40933 153.206C7.9287 153.584 7.16049 153.773 6.10469 153.773C4.00886 153.773 2.96094 152.919 2.96094 151.209C2.96094 149.554 3.86309 148.727 5.66741 148.727L6.58926 148.81L6.58926 152.473C7.07776 152.466 7.43626 152.359 7.66476 152.154C7.89325 151.949 8.0075 151.567 8.0075 151.008C8.0075 150.448 7.98386 149.873 7.93658 149.282ZM5.59649 149.991C5.01344 149.991 4.60767 150.086 4.37917 150.275C4.1428 150.456 4.02461 150.768 4.02461 151.209C4.02461 151.65 4.14674 151.973 4.39099 152.178C4.63524 152.375 5.03708 152.477 5.59649 152.485L5.59649 149.991Z" fill="#21436E"/>
<path d="M3.08984 159.758L3.08984 158.41L7.90003 157.276L7.90003 156.898L3.08984 155.716L3.08984 154.404L8.99916 155.94L8.99916 158.233L3.08984 159.758Z" fill="#21436E"/>
<path d="M8.99961 162.053L3.09029 162.053L3.09029 160.765L8.99961 160.765L8.99961 162.053ZM2.08571 162.053L0.726562 162.053L0.726562 160.765L2.08571 160.765L2.08571 162.053Z" fill="#21436E"/>
<path d="M4.18979 163.11L4.18979 164.741L6.78989 164.741C7.27051 164.741 7.58962 164.705 7.7472 164.634C7.90478 164.563 7.98357 164.382 7.98357 164.091L7.94811 163.121L8.97634 163.062C9.07876 163.59 9.12998 163.992 9.12998 164.268C9.12998 164.938 8.97634 165.399 8.66905 165.651C8.36177 165.895 7.78265 166.017 6.93171 166.017L4.18979 166.017L4.18979 166.773L3.09066 166.773L3.09066 166.017L1.37695 166.017L1.37695 164.741L3.09066 164.741L3.09066 163.11L4.18979 163.11Z" fill="#21436E"/>
<path d="M8.99961 169.141L3.09029 169.141L3.09029 167.852L8.99961 167.852L8.99961 169.141ZM2.08571 169.141L0.726562 169.141L0.726562 167.852L2.08571 167.852L2.08571 169.141Z" fill="#21436E"/>
<path d="M4.18979 170.196L4.18979 171.827L6.78989 171.827C7.27051 171.827 7.58962 171.791 7.7472 171.72C7.90478 171.649 7.98357 171.468 7.98357 171.177L7.94811 170.207L8.97634 170.148C9.07876 170.676 9.12998 171.078 9.12998 171.354C9.12998 172.024 8.97634 172.484 8.66905 172.737C8.36177 172.981 7.78265 173.103 6.93171 173.103L4.18979 173.103L4.18979 173.859L3.09066 173.859L3.09066 173.103L1.37695 173.103L1.37695 171.827L3.09066 171.827L3.09066 170.196L4.18979 170.196Z" fill="#21436E"/>
<path d="M7.93658 175.169L7.90113 174.838L8.85844 174.815C9.03966 175.713 9.13027 176.509 9.13027 177.202C9.13027 178.076 8.88995 178.707 8.40933 179.093C7.9287 179.471 7.16049 179.66 6.10469 179.66C4.00886 179.66 2.96094 178.805 2.96094 177.096C2.96094 175.441 3.86309 174.614 5.66741 174.614L6.58926 174.696L6.58926 178.36C7.07776 178.352 7.43626 178.246 7.66476 178.041C7.89325 177.836 8.0075 177.454 8.0075 176.895C8.0075 176.335 7.98386 175.76 7.93658 175.169ZM5.59649 175.878C5.01344 175.878 4.60767 175.973 4.37917 176.162C4.1428 176.343 4.02461 176.654 4.02461 177.096C4.02461 177.537 4.14674 177.86 4.39099 178.065C4.63524 178.262 5.03708 178.364 5.59649 178.372L5.59649 175.878Z" fill="#21436E"/>
<path d="M11.5413 185.725L3.09094 185.725L3.09094 184.448L3.45732 184.448C3.1264 183.905 2.96094 183.396 2.96094 182.924C2.96094 182.144 3.20125 181.572 3.68187 181.21C4.15462 180.847 4.95435 180.666 6.08106 180.666C7.19989 180.666 7.9878 180.875 8.44478 181.293C8.90177 181.702 9.13027 182.376 9.13027 183.314C9.13027 183.637 9.09481 184.011 9.0239 184.436L11.5413 184.436L11.5413 185.725ZM4.10734 183.148C4.10735 183.518 4.19008 183.889 4.35554 184.259L4.43827 184.436L7.92477 184.436C7.9878 184.121 8.01931 183.775 8.01931 183.396C8.01931 182.861 7.86567 182.49 7.55839 182.285C7.2511 182.081 6.72714 181.978 5.98651 181.978C4.73373 181.978 4.10734 182.368 4.10734 183.148Z" fill="#21436E"/>
<path d="M9.00026 194.339L9.00026 195.627L3.09094 195.627L3.09094 194.351L3.45732 194.351C3.1264 193.791 2.96094 193.279 2.96094 192.814C2.96094 192.129 3.15398 191.628 3.54005 191.313C3.15398 190.596 2.96094 189.883 2.96094 189.174C2.96094 188.465 3.18155 187.965 3.62278 187.673C4.05613 187.381 4.79283 187.236 5.83287 187.236L9.00026 187.236L9.00026 188.512L5.86832 188.512C5.23012 188.512 4.77707 188.579 4.50918 188.713C4.24129 188.839 4.10734 189.107 4.10734 189.517C4.10734 189.871 4.18614 190.253 4.34372 190.663L4.42645 190.864C4.58403 190.801 5.08829 190.769 5.93923 190.769L9.00026 190.769L9.00026 192.046L5.96287 192.046C5.26163 192.046 4.77707 192.109 4.50918 192.235C4.24129 192.361 4.10734 192.637 4.10734 193.062C4.10735 193.456 4.18614 193.823 4.34372 194.161L4.41463 194.339L9.00026 194.339Z" fill="#21436E"/>
<path d="M3.72915 201.575C3.21701 201.165 2.96094 200.488 2.96094 199.542C2.96094 198.597 3.21701 197.923 3.72915 197.521C4.24129 197.111 5.0095 196.907 6.03378 196.907C7.05807 196.907 7.83022 197.104 8.35024 197.498C8.87026 197.892 9.13027 198.573 9.13027 199.542C9.13027 200.511 8.87026 201.193 8.35024 201.587C7.83022 201.981 7.05807 202.178 6.03378 202.178C5.0095 202.178 4.24129 201.977 3.72915 201.575ZM7.57021 200.606C7.88537 200.425 8.04295 200.07 8.04295 199.542C8.04295 199.014 7.88537 198.66 7.57021 198.479C7.25504 198.297 6.73896 198.207 6.02196 198.207C5.30497 198.207 4.79677 198.305 4.49736 198.502C4.19795 198.691 4.04825 199.038 4.04825 199.542C4.04825 200.046 4.19796 200.397 4.49736 200.594C4.79677 200.783 5.30497 200.878 6.02196 200.878C6.73896 200.878 7.25504 200.787 7.57021 200.606Z" fill="#21436E"/>
<path d="M9.12921 205.347C9.12921 206.529 8.80223 207.333 8.14827 207.758C7.4943 208.176 6.41881 208.385 4.92178 208.385C3.42475 208.385 2.36107 208.172 1.73075 207.747C1.09254 207.321 0.773437 206.521 0.773437 205.347C0.773437 204.646 0.871926 203.874 1.0689 203.031L2.13258 203.078C2.00652 203.787 1.94348 204.496 1.94348 205.206C1.94348 205.915 2.15622 206.395 2.58169 206.647C2.99928 206.9 3.79113 207.026 4.95724 207.026C6.11546 207.026 6.90731 206.903 7.33278 206.659C7.75037 206.415 7.95917 205.938 7.95917 205.229C7.95917 204.52 7.90008 203.803 7.78189 203.078L8.8692 203.043C9.04254 203.854 9.12921 204.622 9.12921 205.347Z" fill="#21436E"/>
<path d="M347.719 313.133H348.983L350.236 317.943H350.555L351.808 313.133H353.084L350.839 321.583H349.574L350.283 319.042H349.267L347.719 313.133Z" fill="#21436E"/>
<path d="M347.205 314.233H345.574V316.833C345.574 317.313 345.609 317.633 345.68 317.79C345.751 317.948 345.932 318.027 346.224 318.027L347.193 317.991L347.252 319.019C346.724 319.122 346.322 319.173 346.047 319.173C345.377 319.173 344.916 319.019 344.664 318.712C344.42 318.405 344.297 317.826 344.297 316.975V314.233H343.541V313.134H344.297V311.42H345.574V313.134H347.205V314.233Z" fill="#21436E"/>
<path d="M341.176 319.043V313.133H342.464V319.043H341.176ZM341.176 312.129V310.77H342.464V312.129H341.176Z" fill="#21436E"/>
<path d="M336.904 319.043V313.134H338.181V313.843C338.85 313.41 339.52 313.13 340.19 313.004V314.292C339.512 314.426 338.933 314.599 338.453 314.812L338.193 314.919V319.043H336.904Z" fill="#21436E"/>
<path d="M334.068 313.133H335.344V319.042H334.068V318.676C333.493 319.007 332.961 319.172 332.472 319.172C331.661 319.172 331.117 318.955 330.841 318.522C330.566 318.081 330.428 317.313 330.428 316.217V313.133H331.716V316.229C331.716 316.938 331.775 317.415 331.893 317.659C332.011 317.904 332.287 318.026 332.721 318.026C333.146 318.026 333.536 317.947 333.891 317.789L334.068 317.718V313.133Z" fill="#21436E"/>
<path d="M329.431 314.233H327.8V316.833C327.8 317.313 327.836 317.633 327.907 317.79C327.978 317.948 328.159 318.027 328.45 318.027L329.42 317.991L329.479 319.019C328.951 319.122 328.549 319.173 328.273 319.173C327.603 319.173 327.142 319.019 326.89 318.712C326.646 318.405 326.524 317.826 326.524 316.975V314.233H325.768V313.134H326.524V311.42H327.8V313.134H329.431V314.233Z" fill="#21436E"/>
<path d="M324.634 314.954V317.649C324.642 317.822 324.685 317.952 324.764 318.039C324.851 318.117 324.981 318.169 325.154 318.192L325.118 319.173C324.441 319.173 323.917 319.027 323.547 318.736C322.916 319.027 322.282 319.173 321.644 319.173C320.47 319.173 319.883 318.547 319.883 317.294C319.883 316.695 320.04 316.262 320.356 315.994C320.679 315.726 321.171 315.565 321.833 315.509L323.357 315.379V314.954C323.357 314.639 323.287 314.418 323.145 314.292C323.011 314.166 322.81 314.103 322.542 314.103C322.038 314.103 321.407 314.135 320.651 314.198L320.273 314.221L320.226 313.311C321.084 313.106 321.872 313.004 322.589 313.004C323.314 313.004 323.834 313.161 324.149 313.477C324.472 313.784 324.634 314.276 324.634 314.954ZM321.987 316.419C321.443 316.467 321.171 316.762 321.171 317.306C321.171 317.85 321.411 318.121 321.892 318.121C322.286 318.121 322.704 318.058 323.145 317.932L323.357 317.861V316.289L321.987 316.419Z" fill="#21436E"/>
<path d="M310.373 319.043V310.947H312.654L314.462 317.27L316.271 310.947H318.563V319.043H317.24V312.401H317.062L315.148 318.712H313.777L311.862 312.401H311.685V319.043H310.373Z" fill="#21436E"/>
<path d="M304.604 319.043V310.947H305.915V319.043H304.604Z" fill="#21436E"/>
<path d="M296.83 319.043L298.827 310.947H301.439L303.449 319.043H302.125L301.688 317.306H298.579L298.142 319.043H296.83ZM299.844 312.046L298.839 316.147H301.428L300.435 312.046H299.844Z" fill="#21436E"/>
<path d="M287.998 316.657V315.498H290.102V313.383H291.26V315.498H293.387V316.657H291.26V318.796H290.102V316.657H287.998Z" fill="#21436E"/>
<path d="M283.95 314.954V317.649C283.958 317.822 284.002 317.952 284.08 318.039C284.167 318.117 284.297 318.169 284.47 318.192L284.435 319.173C283.757 319.173 283.233 319.027 282.863 318.736C282.233 319.027 281.598 319.173 280.96 319.173C279.786 319.173 279.199 318.547 279.199 317.294C279.199 316.695 279.357 316.262 279.672 315.994C279.995 315.726 280.487 315.565 281.149 315.509L282.674 315.379V314.954C282.674 314.639 282.603 314.418 282.461 314.292C282.327 314.166 282.126 314.103 281.858 314.103C281.354 314.103 280.724 314.135 279.967 314.198L279.589 314.221L279.542 313.311C280.401 313.106 281.189 313.004 281.906 313.004C282.631 313.004 283.151 313.161 283.466 313.477C283.789 313.784 283.95 314.276 283.95 314.954ZM281.303 316.419C280.759 316.467 280.487 316.762 280.487 317.306C280.487 317.85 280.728 318.121 281.208 318.121C281.602 318.121 282.02 318.058 282.461 317.932L282.674 317.861V316.289L281.303 316.419Z" fill="#21436E"/>
<path d="M278.521 314.233H276.89V316.833C276.89 317.313 276.926 317.633 276.997 317.79C277.068 317.948 277.249 318.027 277.54 318.027L278.509 317.991L278.568 319.019C278.041 319.122 277.639 319.173 277.363 319.173C276.693 319.173 276.232 319.019 275.98 318.712C275.736 318.405 275.614 317.826 275.614 316.975V314.233H274.857V313.134H275.614V311.42H276.89V313.134H278.521V314.233Z" fill="#21436E"/>
<path d="M273.724 314.954V317.649C273.732 317.822 273.775 317.952 273.854 318.039C273.94 318.117 274.07 318.169 274.244 318.192L274.208 319.173C273.531 319.173 273.007 319.027 272.636 318.736C272.006 319.027 271.372 319.173 270.734 319.173C269.56 319.173 268.973 318.547 268.973 317.294C268.973 316.695 269.13 316.262 269.445 315.994C269.768 315.726 270.261 315.565 270.923 315.509L272.447 315.379V314.954C272.447 314.639 272.376 314.418 272.235 314.292C272.101 314.166 271.9 314.103 271.632 314.103C271.128 314.103 270.497 314.135 269.741 314.198L269.363 314.221L269.315 313.311C270.174 313.106 270.962 313.004 271.679 313.004C272.404 313.004 272.924 313.161 273.239 313.477C273.562 313.784 273.724 314.276 273.724 314.954ZM271.076 316.419C270.533 316.467 270.261 316.762 270.261 317.306C270.261 317.85 270.501 318.121 270.982 318.121C271.376 318.121 271.793 318.058 272.235 317.932L272.447 317.861V316.289L271.076 316.419Z" fill="#21436E"/>
<path d="M264.735 319.043H261.934V310.947H264.735C265.98 310.947 266.83 311.262 267.287 311.893C267.744 312.523 267.973 313.512 267.973 314.859C267.973 315.545 267.926 316.128 267.831 316.608C267.744 317.081 267.587 317.511 267.358 317.897C266.909 318.661 266.035 319.043 264.735 319.043ZM266.614 314.859C266.614 313.882 266.492 313.177 266.247 312.744C266.003 312.31 265.499 312.094 264.735 312.094H263.245V317.885H264.735C265.515 317.885 266.035 317.597 266.295 317.022C266.421 316.731 266.503 316.419 266.543 316.088C266.59 315.757 266.614 315.348 266.614 314.859Z" fill="#21436E"/>
</svg>
