<svg width="188" height="31" viewBox="0 0 188 31" fill="none" xmlns="http://www.w3.org/2000/svg">
<path d="M1 8C1 4.13401 4.13401 1 8 1H180C183.866 1 187 4.13401 187 8V23C187 26.866 183.866 30 180 30H8C4.13401 30 1 26.866 1 23V8Z" fill="white"/>
<path d="M1 8C1 4.13401 4.13401 1 8 1H180C183.866 1 187 4.13401 187 8V23C187 26.866 183.866 30 180 30H8C4.13401 30 1 26.866 1 23V8Z" fill="url(#paint0_linear_6_367)" fill-opacity="0.2"/>
<path d="M1 8C1 4.13401 4.13401 1 8 1H180C183.866 1 187 4.13401 187 8V23C187 26.866 183.866 30 180 30H8C4.13401 30 1 26.866 1 23V8Z" stroke="#F0F4FC" stroke-width="2"/>
<path d="M168.605 17.9799H167.855V12.9799H168.595V13.3299C169.135 13.0299 169.652 12.8799 170.145 12.8799C170.812 12.8799 171.259 13.0599 171.485 13.4199C171.719 13.7799 171.835 14.4199 171.835 15.3399V17.9799H171.095V15.3599C171.095 14.6665 171.025 14.1932 170.885 13.9399C170.752 13.6799 170.462 13.5499 170.015 13.5499C169.802 13.5499 169.575 13.5832 169.335 13.6499C169.102 13.7099 168.922 13.7699 168.795 13.8299L168.605 13.9199V17.9799Z" fill="#21436E"/>
<path d="M162.353 15.4699C162.353 14.5565 162.516 13.8965 162.843 13.4899C163.169 13.0832 163.719 12.8799 164.493 12.8799C165.273 12.8799 165.823 13.0832 166.143 13.4899C166.469 13.8965 166.633 14.5565 166.633 15.4699C166.633 16.3832 166.479 17.0465 166.173 17.4599C165.866 17.8732 165.306 18.0799 164.493 18.0799C163.679 18.0799 163.119 17.8732 162.813 17.4599C162.506 17.0465 162.353 16.3832 162.353 15.4699ZM163.123 15.4599C163.123 16.1865 163.209 16.6966 163.383 16.9899C163.563 17.2832 163.933 17.4299 164.493 17.4299C165.059 17.4299 165.429 17.2865 165.603 16.9999C165.776 16.7065 165.863 16.1932 165.863 15.4599C165.863 14.7265 165.766 14.2232 165.573 13.9499C165.379 13.6699 165.019 13.5299 164.493 13.5299C163.973 13.5299 163.613 13.6699 163.413 13.9499C163.219 14.2232 163.123 14.7265 163.123 15.4599Z" fill="#21436E"/>
<path d="M160.385 17.98V12.98H161.135V17.98H160.385ZM160.385 11.85V10.98H161.135V11.85H160.385Z" fill="#21436E"/>
<path d="M157.307 13.5499C156.58 13.5499 156.217 13.8032 156.217 14.3099C156.217 14.5432 156.3 14.7099 156.467 14.8099C156.633 14.9032 157.013 15.0032 157.607 15.1099C158.2 15.2099 158.62 15.3532 158.867 15.5399C159.113 15.7265 159.237 16.0765 159.237 16.5899C159.237 17.1032 159.07 17.4799 158.737 17.7199C158.41 17.9599 157.93 18.0799 157.297 18.0799C156.883 18.0799 156.397 18.0332 155.837 17.9399L155.537 17.8899L155.577 17.2399C156.337 17.3532 156.91 17.4099 157.297 17.4099C157.683 17.4099 157.977 17.3499 158.177 17.2299C158.383 17.1032 158.487 16.8965 158.487 16.6099C158.487 16.3165 158.4 16.1199 158.227 16.0199C158.053 15.9132 157.673 15.8132 157.087 15.7199C156.5 15.6265 156.083 15.4899 155.837 15.3099C155.59 15.1299 155.467 14.7965 155.467 14.3099C155.467 13.8232 155.637 13.4632 155.977 13.2299C156.323 12.9965 156.753 12.8799 157.267 12.8799C157.673 12.8799 158.183 12.9265 158.797 13.0199L159.077 13.0699L159.057 13.7099C158.317 13.6032 157.733 13.5499 157.307 13.5499Z" fill="#21436E"/>
<path d="M153.549 17.98V12.98H154.299V17.98H153.549ZM153.549 11.85V10.98H154.299V11.85H153.549Z" fill="#21436E"/>
<path d="M151.063 12.8799C151.283 12.8799 151.657 12.9199 152.183 12.9999L152.423 13.0299L152.393 13.6399C151.86 13.5799 151.467 13.5499 151.213 13.5499C150.647 13.5499 150.26 13.6865 150.053 13.9599C149.853 14.2265 149.753 14.7265 149.753 15.4599C149.753 16.1865 149.847 16.6932 150.033 16.9799C150.227 17.2665 150.623 17.4099 151.223 17.4099L152.403 17.3199L152.433 17.9399C151.813 18.0332 151.35 18.0799 151.043 18.0799C150.263 18.0799 149.723 17.8799 149.423 17.4799C149.13 17.0799 148.983 16.4065 148.983 15.4599C148.983 14.5065 149.143 13.8399 149.463 13.4599C149.783 13.0732 150.317 12.8799 151.063 12.8799Z" fill="#21436E"/>
<path d="M147.545 17.3599L147.835 17.3299L147.855 17.9199C147.095 18.0265 146.445 18.0799 145.905 18.0799C145.185 18.0799 144.675 17.8732 144.375 17.4599C144.075 17.0399 143.925 16.3899 143.925 15.5099C143.925 13.7565 144.621 12.8799 146.015 12.8799C146.688 12.8799 147.191 13.0699 147.525 13.4499C147.858 13.8232 148.025 14.4132 148.025 15.2199L147.985 15.7899H144.685C144.685 16.3432 144.785 16.7532 144.985 17.0199C145.185 17.2865 145.531 17.4199 146.025 17.4199C146.525 17.4199 147.031 17.3999 147.545 17.3599ZM147.275 15.1899C147.275 14.5765 147.175 14.1432 146.975 13.8899C146.781 13.6365 146.461 13.5099 146.015 13.5099C145.575 13.5099 145.241 13.6432 145.015 13.9099C144.795 14.1765 144.681 14.6032 144.675 15.1899H147.275Z" fill="#21436E"/>
<path d="M142.692 10.8V17.98H141.952V17.64C141.439 17.9334 140.932 18.08 140.432 18.08C140.165 18.08 139.932 18.0467 139.732 17.98C139.532 17.9134 139.345 17.7934 139.172 17.62C138.812 17.26 138.632 16.5967 138.632 15.63C138.632 14.6567 138.792 13.9567 139.112 13.53C139.439 13.0967 139.975 12.88 140.722 12.88C141.108 12.88 141.519 12.9234 141.952 13.01V10.8H142.692ZM139.752 17.08C139.859 17.2067 139.972 17.2934 140.092 17.34C140.212 17.3867 140.365 17.41 140.552 17.41C140.745 17.41 140.959 17.38 141.192 17.32C141.432 17.2534 141.619 17.19 141.752 17.13L141.952 17.04V13.65C141.525 13.57 141.128 13.53 140.762 13.53C140.255 13.53 139.902 13.6934 139.702 14.02C139.502 14.34 139.402 14.84 139.402 15.52C139.402 16.2934 139.519 16.8134 139.752 17.08Z" fill="#21436E"/>
<path d="M135.738 13.63H134.148V16.02C134.148 16.5933 134.188 16.97 134.268 17.15C134.355 17.33 134.555 17.42 134.868 17.42L135.758 17.36L135.808 17.98C135.362 18.0533 135.022 18.09 134.788 18.09C134.268 18.09 133.908 17.9633 133.708 17.71C133.508 17.4566 133.408 16.9733 133.408 16.26V13.63H132.698V12.98H133.408V11.45H134.148V12.98H135.738V13.63Z" fill="#21436E"/>
<path d="M130.07 13.5499C129.344 13.5499 128.98 13.8032 128.98 14.3099C128.98 14.5432 129.064 14.7099 129.23 14.8099C129.397 14.9032 129.777 15.0032 130.37 15.1099C130.964 15.2099 131.384 15.3532 131.63 15.5399C131.877 15.7265 132 16.0765 132 16.5899C132 17.1032 131.834 17.4799 131.5 17.7199C131.174 17.9599 130.694 18.0799 130.06 18.0799C129.647 18.0799 129.16 18.0332 128.6 17.9399L128.3 17.8899L128.34 17.2399C129.1 17.3532 129.674 17.4099 130.06 17.4099C130.447 17.4099 130.74 17.3499 130.94 17.2299C131.147 17.1032 131.25 16.8965 131.25 16.6099C131.25 16.3165 131.164 16.1199 130.99 16.0199C130.817 15.9132 130.437 15.8132 129.85 15.7199C129.264 15.6265 128.847 15.4899 128.6 15.3099C128.354 15.1299 128.23 14.7965 128.23 14.3099C128.23 13.8232 128.4 13.4632 128.74 13.2299C129.087 12.9965 129.517 12.8799 130.03 12.8799C130.437 12.8799 130.947 12.9265 131.56 13.0199L131.84 13.0699L131.82 13.7099C131.08 13.6032 130.497 13.5499 130.07 13.5499Z" fill="#21436E"/>
<path d="M126.851 17.3599L127.141 17.3299L127.161 17.9199C126.401 18.0265 125.751 18.0799 125.211 18.0799C124.491 18.0799 123.981 17.8732 123.681 17.4599C123.381 17.0399 123.231 16.3899 123.231 15.5099C123.231 13.7565 123.928 12.8799 125.321 12.8799C125.995 12.8799 126.498 13.0699 126.831 13.4499C127.165 13.8232 127.331 14.4132 127.331 15.2199L127.291 15.7899H123.991C123.991 16.3432 124.091 16.7532 124.291 17.0199C124.491 17.2865 124.838 17.4199 125.331 17.4199C125.831 17.4199 126.338 17.3999 126.851 17.3599ZM126.581 15.1899C126.581 14.5765 126.481 14.1432 126.281 13.8899C126.088 13.6365 125.768 13.5099 125.321 13.5099C124.881 13.5099 124.548 13.6432 124.321 13.9099C124.101 14.1765 123.988 14.6032 123.981 15.1899H126.581Z" fill="#21436E"/>
<path d="M120.397 12.88C121.071 12.88 121.541 13.0734 121.807 13.46C122.081 13.84 122.217 14.51 122.217 15.47C122.217 16.43 122.047 17.1067 121.707 17.5C121.374 17.8867 120.757 18.08 119.857 18.08C119.577 18.08 119.114 18.0534 118.467 18L118.188 17.97V10.8H118.927V13.23C119.434 12.9967 119.924 12.88 120.397 12.88ZM119.847 17.41C120.501 17.41 120.931 17.2634 121.137 16.97C121.351 16.67 121.457 16.1667 121.457 15.46C121.457 14.7534 121.374 14.26 121.207 13.98C121.041 13.6934 120.744 13.55 120.317 13.55C119.931 13.55 119.534 13.6234 119.128 13.77L118.927 13.84V17.36C119.361 17.3934 119.667 17.41 119.847 17.41Z" fill="#21436E"/>
<path d="M114.342 17.3599L114.632 17.3299L114.652 17.9199C113.892 18.0265 113.242 18.0799 112.702 18.0799C111.982 18.0799 111.472 17.8732 111.172 17.4599C110.872 17.0399 110.722 16.3899 110.722 15.5099C110.722 13.7565 111.418 12.8799 112.812 12.8799C113.485 12.8799 113.988 13.0699 114.322 13.4499C114.655 13.8232 114.822 14.4132 114.822 15.2199L114.782 15.7899H111.482C111.482 16.3432 111.582 16.7532 111.782 17.0199C111.982 17.2865 112.328 17.4199 112.822 17.4199C113.322 17.4199 113.828 17.3999 114.342 17.3599ZM114.072 15.1899C114.072 14.5765 113.972 14.1432 113.772 13.8899C113.578 13.6365 113.258 13.5099 112.812 13.5099C112.372 13.5099 112.038 13.6432 111.812 13.9099C111.592 14.1765 111.478 14.6032 111.472 15.1899H114.072Z" fill="#21436E"/>
<path d="M106.32 17.98H105.57V10.8H106.32V13.26C106.854 13.0067 107.367 12.88 107.86 12.88C108.527 12.88 108.974 13.06 109.2 13.42C109.434 13.78 109.55 14.42 109.55 15.34V17.98H108.8V15.36C108.8 14.6667 108.73 14.1934 108.59 13.94C108.457 13.68 108.17 13.55 107.73 13.55C107.31 13.55 106.904 13.6267 106.51 13.78L106.32 13.85V17.98Z" fill="#21436E"/>
<path d="M104.654 13.63H103.064V16.02C103.064 16.5933 103.104 16.97 103.184 17.15C103.271 17.33 103.471 17.42 103.784 17.42L104.674 17.36L104.724 17.98C104.278 18.0533 103.938 18.09 103.704 18.09C103.184 18.09 102.824 17.9633 102.624 17.71C102.424 17.4566 102.324 16.9733 102.324 16.26V13.63H101.614V12.98H102.324V11.45H103.064V12.98H104.654V13.63Z" fill="#21436E"/>
<path d="M98.2186 17.3599L98.5086 17.3299L98.5286 17.9199C97.7686 18.0265 97.1186 18.0799 96.5786 18.0799C95.8586 18.0799 95.3486 17.8732 95.0486 17.4599C94.7486 17.0399 94.5986 16.3899 94.5986 15.5099C94.5986 13.7565 95.2953 12.8799 96.6886 12.8799C97.362 12.8799 97.8653 13.0699 98.1986 13.4499C98.532 13.8232 98.6986 14.4132 98.6986 15.2199L98.6586 15.7899H95.3586C95.3586 16.3432 95.4586 16.7532 95.6586 17.0199C95.8586 17.2865 96.2053 17.4199 96.6986 17.4199C97.1986 17.4199 97.7053 17.3999 98.2186 17.3599ZM97.9486 15.1899C97.9486 14.5765 97.8486 14.1432 97.6486 13.8899C97.4553 13.6365 97.1353 13.5099 96.6886 13.5099C96.2486 13.5099 95.9153 13.6432 95.6886 13.9099C95.4686 14.1765 95.3553 14.6032 95.3486 15.1899H97.9486Z" fill="#21436E"/>
<path d="M90.9102 17.98H90.1602V10.8H90.9102V15.04L91.6902 15L93.1202 12.98H93.9702L92.3402 15.28L94.0402 17.98H93.1902L91.7002 15.66L90.9102 15.69V17.98Z" fill="#21436E"/>
<path d="M88.6811 14.4899V17.0499C88.7011 17.2965 88.8944 17.4432 89.2611 17.4899L89.2311 18.0799C88.7044 18.0799 88.3077 17.9465 88.0411 17.6799C87.4411 17.9465 86.8411 18.0799 86.2411 18.0799C85.7811 18.0799 85.4311 17.9499 85.1911 17.6899C84.9511 17.4299 84.8311 17.0565 84.8311 16.5699C84.8311 16.0832 84.9544 15.7265 85.201 15.4999C85.4477 15.2665 85.8344 15.1232 86.3611 15.0699L87.9311 14.9199V14.4899C87.9311 14.1499 87.8577 13.9065 87.7111 13.7599C87.5644 13.6132 87.3644 13.5399 87.1111 13.5399C86.5777 13.5399 86.0244 13.5732 85.451 13.6399L85.1411 13.6699L85.1111 13.0999C85.8444 12.9532 86.4944 12.8799 87.0611 12.8799C87.6277 12.8799 88.0377 13.0099 88.2911 13.2699C88.5511 13.5299 88.6811 13.9365 88.6811 14.4899ZM85.6011 16.5299C85.6011 17.1432 85.8544 17.4499 86.3611 17.4499C86.8144 17.4499 87.261 17.3732 87.701 17.2199L87.9311 17.1399V15.4899L86.451 15.6299C86.151 15.6565 85.9344 15.7432 85.8011 15.8899C85.6677 16.0365 85.6011 16.2499 85.6011 16.5299Z" fill="#21436E"/>
<path d="M77.541 17.9799H76.791V12.9799H77.531V13.3299C78.031 13.0299 78.5177 12.8799 78.991 12.8799C79.611 12.8799 80.0443 13.0499 80.291 13.3899C80.511 13.2565 80.7943 13.1399 81.141 13.0399C81.4943 12.9332 81.8043 12.8799 82.071 12.8799C82.7377 12.8799 83.1844 13.0599 83.411 13.4199C83.6444 13.7732 83.761 14.4132 83.761 15.3399V17.9799H83.011V15.3599C83.011 14.6665 82.9443 14.1932 82.811 13.9399C82.6777 13.6799 82.3943 13.5499 81.961 13.5499C81.741 13.5499 81.5143 13.5832 81.281 13.6499C81.0477 13.7099 80.8677 13.7699 80.741 13.8299L80.551 13.9199C80.6377 14.1399 80.681 14.6265 80.681 15.3799V17.9799H79.931V15.3999C79.931 14.6799 79.8643 14.1932 79.731 13.9399C79.6043 13.6799 79.321 13.5499 78.881 13.5499C78.6677 13.5499 78.4477 13.5832 78.221 13.6499C78.001 13.7099 77.831 13.7699 77.711 13.8299L77.541 13.9199V17.9799Z" fill="#21436E"/>
<path d="M69.29 12.98H70.04L71.29 17.33H71.62L72.88 12.98H73.63L71.55 20.2H70.8L71.45 17.98H70.71L69.29 12.98Z" fill="#21436E"/>
<path d="M67.5059 17.98V10.8H68.2559V17.98H67.5059Z" fill="#21436E"/>
<path d="M65.1914 17.98V10.8H65.9414V17.98H65.1914Z" fill="#21436E"/>
<path d="M63.6518 14.4899V17.0499C63.6718 17.2965 63.8651 17.4432 64.2318 17.4899L64.2018 18.0799C63.6751 18.0799 63.2784 17.9465 63.0118 17.6799C62.4118 17.9465 61.8118 18.0799 61.2118 18.0799C60.7518 18.0799 60.4018 17.9499 60.1618 17.6899C59.9218 17.4299 59.8018 17.0565 59.8018 16.5699C59.8018 16.0832 59.9251 15.7265 60.1718 15.4999C60.4184 15.2665 60.8051 15.1232 61.3318 15.0699L62.9018 14.9199V14.4899C62.9018 14.1499 62.8284 13.9065 62.6818 13.7599C62.5351 13.6132 62.3351 13.5399 62.0818 13.5399C61.5484 13.5399 60.9951 13.5732 60.4218 13.6399L60.1118 13.6699L60.0818 13.0999C60.8151 12.9532 61.4651 12.8799 62.0318 12.8799C62.5984 12.8799 63.0084 13.0099 63.2618 13.2699C63.5218 13.5299 63.6518 13.9365 63.6518 14.4899ZM60.5718 16.5299C60.5718 17.1432 60.8251 17.4499 61.3318 17.4499C61.7851 17.4499 62.2318 17.3732 62.6718 17.2199L62.9018 17.1399V15.4899L61.4218 15.6299C61.1218 15.6565 60.9051 15.7432 60.7718 15.8899C60.6384 16.0365 60.5718 16.2499 60.5718 16.5299Z" fill="#21436E"/>
<path d="M57.6357 12.8799C57.8557 12.8799 58.229 12.9199 58.7557 12.9999L58.9957 13.0299L58.9657 13.6399C58.4323 13.5799 58.039 13.5499 57.7857 13.5499C57.219 13.5499 56.8323 13.6865 56.6257 13.9599C56.4257 14.2265 56.3257 14.7265 56.3257 15.4599C56.3257 16.1865 56.419 16.6932 56.6057 16.9799C56.799 17.2665 57.1957 17.4099 57.7957 17.4099L58.9757 17.3199L59.0057 17.9399C58.3857 18.0332 57.9223 18.0799 57.6157 18.0799C56.8357 18.0799 56.2957 17.8799 55.9957 17.4799C55.7023 17.0799 55.5557 16.4065 55.5557 15.4599C55.5557 14.5065 55.7157 13.8399 56.0357 13.4599C56.3557 13.0732 56.889 12.8799 57.6357 12.8799Z" fill="#21436E"/>
<path d="M53.5781 17.98V12.98H54.3281V17.98H53.5781ZM53.5781 11.85V10.98H54.3281V11.85H53.5781Z" fill="#21436E"/>
<path d="M52.6621 13.63H51.0721V16.02C51.0721 16.5933 51.1121 16.97 51.1921 17.15C51.2787 17.33 51.4787 17.42 51.7921 17.42L52.6821 17.36L52.7321 17.98C52.2854 18.0533 51.9454 18.09 51.7121 18.09C51.1921 18.09 50.8321 17.9633 50.6321 17.71C50.4321 17.4566 50.3321 16.9733 50.3321 16.26V13.63H49.6221V12.98H50.3321V11.45H51.0721V12.98H52.6621V13.63Z" fill="#21436E"/>
<path d="M48.5932 14.4899V17.0499C48.6132 17.2965 48.8065 17.4432 49.1732 17.4899L49.1432 18.0799C48.6165 18.0799 48.2198 17.9465 47.9532 17.6799C47.3532 17.9465 46.7532 18.0799 46.1532 18.0799C45.6932 18.0799 45.3432 17.9499 45.1032 17.6899C44.8632 17.4299 44.7432 17.0565 44.7432 16.5699C44.7432 16.0832 44.8665 15.7265 45.1132 15.4999C45.3598 15.2665 45.7465 15.1232 46.2732 15.0699L47.8432 14.9199V14.4899C47.8432 14.1499 47.7698 13.9065 47.6232 13.7599C47.4765 13.6132 47.2765 13.5399 47.0232 13.5399C46.4898 13.5399 45.9365 13.5732 45.3632 13.6399L45.0532 13.6699L45.0232 13.0999C45.7565 12.9532 46.4065 12.8799 46.9732 12.8799C47.5398 12.8799 47.9498 13.0099 48.2032 13.2699C48.4632 13.5299 48.5932 13.9365 48.5932 14.4899ZM45.5132 16.5299C45.5132 17.1432 45.7665 17.4499 46.2732 17.4499C46.7265 17.4499 47.1732 17.3732 47.6132 17.2199L47.8432 17.1399V15.4899L46.3632 15.6299C46.0632 15.6565 45.8465 15.7432 45.7132 15.8899C45.5798 16.0365 45.5132 16.2499 45.5132 16.5299Z" fill="#21436E"/>
<path d="M37.4531 17.9799H36.7031V12.9799H37.4431V13.3299C37.9431 13.0299 38.4298 12.8799 38.9031 12.8799C39.5231 12.8799 39.9565 13.0499 40.2031 13.3899C40.4231 13.2565 40.7065 13.1399 41.0531 13.0399C41.4065 12.9332 41.7165 12.8799 41.9831 12.8799C42.6498 12.8799 43.0965 13.0599 43.3231 13.4199C43.5565 13.7732 43.6731 14.4132 43.6731 15.3399V17.9799H42.9231V15.3599C42.9231 14.6665 42.8565 14.1932 42.7231 13.9399C42.5898 13.6799 42.3065 13.5499 41.8731 13.5499C41.6531 13.5499 41.4265 13.5832 41.1931 13.6499C40.9598 13.7099 40.7798 13.7699 40.6531 13.8299L40.4631 13.9199C40.5498 14.1399 40.5931 14.6265 40.5931 15.3799V17.9799H39.8431V15.3999C39.8431 14.6799 39.7765 14.1932 39.6431 13.9399C39.5165 13.6799 39.2331 13.5499 38.7931 13.5499C38.5798 13.5499 38.3598 13.5832 38.1331 13.6499C37.9131 13.7099 37.7431 13.7699 37.6231 13.8299L37.4531 13.9199V17.9799Z" fill="#21436E"/>
<path d="M31.2002 15.4699C31.2002 14.5565 31.3635 13.8965 31.6902 13.4899C32.0169 13.0832 32.5669 12.8799 33.3402 12.8799C34.1202 12.8799 34.6702 13.0832 34.9902 13.4899C35.3169 13.8965 35.4802 14.5565 35.4802 15.4699C35.4802 16.3832 35.3269 17.0465 35.0202 17.4599C34.7135 17.8732 34.1535 18.0799 33.3402 18.0799C32.5269 18.0799 31.9669 17.8732 31.6602 17.4599C31.3535 17.0465 31.2002 16.3832 31.2002 15.4699ZM31.9702 15.4599C31.9702 16.1865 32.0569 16.6966 32.2302 16.9899C32.4102 17.2832 32.7802 17.4299 33.3402 17.4299C33.9069 17.4299 34.2769 17.2865 34.4502 16.9999C34.6235 16.7065 34.7102 16.1932 34.7102 15.4599C34.7102 14.7265 34.6135 14.2232 34.4202 13.9499C34.2269 13.6699 33.8669 13.5299 33.3402 13.5299C32.8202 13.5299 32.4602 13.6699 32.2602 13.9499C32.0669 14.2232 31.9702 14.7265 31.9702 15.4599Z" fill="#21436E"/>
<path d="M30.5039 13.63H28.9139V16.02C28.9139 16.5933 28.9539 16.97 29.0339 17.15C29.1205 17.33 29.3205 17.42 29.6339 17.42L30.5239 17.36L30.5739 17.98C30.1272 18.0533 29.7872 18.09 29.5539 18.09C29.0339 18.09 28.6739 17.9633 28.4739 17.71C28.2739 17.4566 28.1739 16.9733 28.1739 16.26V13.63H27.4639V12.98H28.1739V11.45H28.9139V12.98H30.5039V13.63Z" fill="#21436E"/>
<path d="M25.7218 12.98H26.4718V17.98H25.7218V17.63C25.2218 17.93 24.7284 18.08 24.2418 18.08C23.5618 18.08 23.1084 17.9033 22.8818 17.55C22.6618 17.1966 22.5518 16.5433 22.5518 15.59V12.98H23.3018V15.58C23.3018 16.3066 23.3651 16.7933 23.4918 17.04C23.6184 17.2866 23.9051 17.41 24.3518 17.41C24.5718 17.41 24.7951 17.38 25.0218 17.32C25.2484 17.2533 25.4218 17.19 25.5418 17.13L25.7218 17.04V12.98Z" fill="#21436E"/>
<path d="M16.165 17.9801L18.065 11.0601H19.745L21.645 17.9801H20.885L20.385 16.2001H17.425L16.925 17.9801H16.165ZM18.645 11.7201L17.595 15.5101H20.215L19.165 11.7201H18.645Z" fill="#21436E"/>
<defs>
<linearGradient id="paint0_linear_6_367" x1="32.8378" y1="-14.9926" x2="103.617" y2="113.772" gradientUnits="userSpaceOnUse">
<stop stop-color="white" stop-opacity="0"/>
<stop offset="1" stop-color="#F7FAFB"/>
</linearGradient>
</defs>
</svg>
