<svg width="95" height="31" viewBox="0 0 95 31" fill="none" xmlns="http://www.w3.org/2000/svg">
<path d="M1 8C1 4.13401 4.13401 1 8 1H86.3912C90.2572 1 93.3912 4.13401 93.3912 8V23C93.3912 26.866 90.2572 30 86.3912 30H8C4.13401 30 1 26.866 1 23V8Z" fill="white"/>
<path d="M1 8C1 4.13401 4.13401 1 8 1H86.3912C90.2572 1 93.3912 4.13401 93.3912 8V23C93.3912 26.866 90.2572 30 86.3912 30H8C4.13401 30 1 26.866 1 23V8Z" fill="url(#paint0_linear_6_365)" fill-opacity="0.2"/>
<path d="M1 8C1 4.13401 4.13401 1 8 1H86.3912C90.2572 1 93.3912 4.13401 93.3912 8V23C93.3912 26.866 90.2572 30 86.3912 30H8C4.13401 30 1 26.866 1 23V8Z" stroke="#F0F4FC" stroke-width="2"/>
<path d="M82.3912 12.56C82.3912 12.9933 82.3312 13.3233 82.2112 13.55C82.0978 13.77 81.8612 14.03 81.5012 14.33C81.1478 14.6233 80.9045 14.86 80.7712 15.04C80.6378 15.2133 80.5712 15.4066 80.5712 15.62V15.97H79.9412C79.8545 15.79 79.8112 15.5866 79.8112 15.36C79.8112 15.1333 79.8878 14.9233 80.0412 14.73C80.1945 14.53 80.4412 14.2833 80.7812 13.99C81.1212 13.6966 81.3478 13.4633 81.4612 13.29C81.5745 13.1166 81.6312 12.8766 81.6312 12.57C81.6312 12.2566 81.5245 12.0233 81.3112 11.87C81.0978 11.7166 80.7612 11.64 80.3012 11.64C80.0078 11.64 79.5778 11.7 79.0112 11.82L78.7512 11.87L78.7012 11.26C79.3745 11.06 79.9312 10.96 80.3712 10.96C81.0578 10.96 81.5645 11.0866 81.8912 11.34C82.2245 11.5866 82.3912 11.9933 82.3912 12.56ZM79.8312 17.97V16.85H80.6512V17.97H79.8312Z" fill="#21436E"/>
<path d="M77.5981 10.8V17.98H76.8581V17.64C76.3448 17.9334 75.8381 18.08 75.3381 18.08C75.0714 18.08 74.8381 18.0467 74.6381 17.98C74.4381 17.9134 74.2514 17.7934 74.0781 17.62C73.7181 17.26 73.5381 16.5967 73.5381 15.63C73.5381 14.6567 73.6981 13.9567 74.0181 13.53C74.3448 13.0967 74.8814 12.88 75.6281 12.88C76.0147 12.88 76.4248 12.9234 76.8581 13.01V10.8H77.5981ZM74.6581 17.08C74.7648 17.2067 74.8781 17.2934 74.9981 17.34C75.1181 17.3867 75.2714 17.41 75.4581 17.41C75.6514 17.41 75.8648 17.38 76.0981 17.32C76.3381 17.2534 76.5248 17.19 76.6581 17.13L76.8581 17.04V13.65C76.4314 13.57 76.0347 13.53 75.6681 13.53C75.1614 13.53 74.8081 13.6934 74.6081 14.02C74.4081 14.34 74.3081 14.84 74.3081 15.52C74.3081 16.2934 74.4248 16.8134 74.6581 17.08Z" fill="#21436E"/>
<path d="M72.1093 17.3599L72.3993 17.3299L72.4193 17.9199C71.6593 18.0265 71.0093 18.0799 70.4693 18.0799C69.7493 18.0799 69.2393 17.8732 68.9393 17.4599C68.6393 17.0399 68.4893 16.3899 68.4893 15.5099C68.4893 13.7565 69.1859 12.8799 70.5793 12.8799C71.2526 12.8799 71.7559 13.0699 72.0893 13.4499C72.4226 13.8232 72.5893 14.4132 72.5893 15.2199L72.5493 15.7899H69.2493C69.2493 16.3432 69.3493 16.7532 69.5493 17.0199C69.7493 17.2865 70.0959 17.4199 70.5893 17.4199C71.0893 17.4199 71.5959 17.3999 72.1093 17.3599ZM71.8393 15.1899C71.8393 14.5765 71.7393 14.1432 71.5393 13.8899C71.3459 13.6365 71.0259 13.5099 70.5793 13.5099C70.1393 13.5099 69.8059 13.6432 69.5793 13.9099C69.3593 14.1765 69.2459 14.6032 69.2393 15.1899H71.8393Z" fill="#21436E"/>
<path d="M64.0879 17.9799H63.3379V12.9799H64.0779V13.3299C64.6179 13.0299 65.1346 12.8799 65.6279 12.8799C66.2946 12.8799 66.7412 13.0599 66.9679 13.4199C67.2012 13.7799 67.3179 14.4199 67.3179 15.3399V17.9799H66.5779V15.3599C66.5779 14.6665 66.5079 14.1932 66.3679 13.9399C66.2346 13.6799 65.9446 13.5499 65.4979 13.5499C65.2846 13.5499 65.0579 13.5832 64.8179 13.6499C64.5846 13.7099 64.4046 13.7699 64.2779 13.8299L64.0879 13.9199V17.9799Z" fill="#21436E"/>
<path d="M61.6893 17.3599L61.9793 17.3299L61.9993 17.9199C61.2393 18.0265 60.5893 18.0799 60.0493 18.0799C59.3293 18.0799 58.8193 17.8732 58.5193 17.4599C58.2193 17.0399 58.0693 16.3899 58.0693 15.5099C58.0693 13.7565 58.766 12.8799 60.1593 12.8799C60.8327 12.8799 61.336 13.0699 61.6693 13.4499C62.0027 13.8232 62.1693 14.4132 62.1693 15.2199L62.1293 15.7899H58.8293C58.8293 16.3432 58.9293 16.7532 59.1293 17.0199C59.3293 17.2865 59.676 17.4199 60.1693 17.4199C60.6693 17.4199 61.176 17.3999 61.6893 17.3599ZM61.4193 15.1899C61.4193 14.5765 61.3193 14.1432 61.1193 13.8899C60.926 13.6365 60.606 13.5099 60.1593 13.5099C59.7193 13.5099 59.386 13.6432 59.1593 13.9099C58.9393 14.1765 58.826 14.6032 58.8193 15.1899H61.4193Z" fill="#21436E"/>
<path d="M53.0156 20.1999V12.9799H53.7556V13.3399C54.2623 13.0332 54.7623 12.8799 55.2556 12.8799C55.889 12.8799 56.349 13.0832 56.6356 13.4899C56.9223 13.8899 57.0656 14.5532 57.0656 15.4799C57.0656 16.4065 56.8956 17.0732 56.5556 17.4799C56.2223 17.8799 55.6656 18.0799 54.8856 18.0799C54.479 18.0799 54.1056 18.0432 53.7656 17.9699V20.1999H53.0156ZM55.1456 13.5499C54.9456 13.5499 54.729 13.5832 54.4956 13.6499C54.269 13.7165 54.089 13.7832 53.9556 13.8499L53.7656 13.9499V17.3199C54.239 17.3932 54.599 17.4299 54.8456 17.4299C55.3856 17.4299 55.7623 17.2765 55.9756 16.9699C56.1956 16.6632 56.3056 16.1632 56.3056 15.4699C56.3056 14.7765 56.2056 14.2832 56.0056 13.9899C55.8123 13.6965 55.5256 13.5499 55.1456 13.5499Z" fill="#21436E"/>
<path d="M47.7422 20.1999V12.9799H48.4822V13.3399C48.9889 13.0332 49.4889 12.8799 49.9822 12.8799C50.6155 12.8799 51.0755 13.0832 51.3622 13.4899C51.6489 13.8899 51.7922 14.5532 51.7922 15.4799C51.7922 16.4065 51.6222 17.0732 51.2822 17.4799C50.9489 17.8799 50.3922 18.0799 49.6122 18.0799C49.2055 18.0799 48.8322 18.0432 48.4922 17.9699V20.1999H47.7422ZM49.8722 13.5499C49.6722 13.5499 49.4555 13.5832 49.2222 13.6499C48.9955 13.7165 48.8155 13.7832 48.6822 13.8499L48.4922 13.9499V17.3199C48.9655 17.3932 49.3255 17.4299 49.5722 17.4299C50.1122 17.4299 50.4889 17.2765 50.7022 16.9699C50.9222 16.6632 51.0322 16.1632 51.0322 15.4699C51.0322 14.7765 50.9322 14.2832 50.7322 13.9899C50.5389 13.6965 50.2522 13.5499 49.8722 13.5499Z" fill="#21436E"/>
<path d="M46.2631 14.4899V17.0499C46.2831 17.2965 46.4764 17.4432 46.8431 17.4899L46.8131 18.0799C46.2864 18.0799 45.8898 17.9465 45.6231 17.6799C45.0231 17.9465 44.4231 18.0799 43.8231 18.0799C43.3631 18.0799 43.0131 17.9499 42.7731 17.6899C42.5331 17.4299 42.4131 17.0565 42.4131 16.5699C42.4131 16.0832 42.5364 15.7265 42.7831 15.4999C43.0298 15.2665 43.4164 15.1232 43.9431 15.0699L45.5131 14.9199V14.4899C45.5131 14.1499 45.4398 13.9065 45.2931 13.7599C45.1464 13.6132 44.9464 13.5399 44.6931 13.5399C44.1598 13.5399 43.6064 13.5732 43.0331 13.6399L42.7231 13.6699L42.6931 13.0999C43.4264 12.9532 44.0764 12.8799 44.6431 12.8799C45.2098 12.8799 45.6198 13.0099 45.8731 13.2699C46.1331 13.5299 46.2631 13.9365 46.2631 14.4899ZM43.1831 16.5299C43.1831 17.1432 43.4364 17.4499 43.9431 17.4499C44.3964 17.4499 44.8431 17.3732 45.2831 17.2199L45.5131 17.1399V15.4899L44.0331 15.6299C43.7331 15.6565 43.5164 15.7432 43.3831 15.8899C43.2498 16.0365 43.1831 16.2499 43.1831 16.5299Z" fill="#21436E"/>
<path d="M38.1113 17.98H37.3613V10.8H38.1113V13.26C38.6447 13.0067 39.158 12.88 39.6513 12.88C40.318 12.88 40.7647 13.06 40.9913 13.42C41.2247 13.78 41.3413 14.42 41.3413 15.34V17.98H40.5913V15.36C40.5913 14.6667 40.5213 14.1934 40.3813 13.94C40.248 13.68 39.9613 13.55 39.5213 13.55C39.1013 13.55 38.6947 13.6267 38.3013 13.78L38.1113 13.85V17.98Z" fill="#21436E"/>
<path d="M34.248 13.63H32.658V16.02C32.658 16.5933 32.698 16.97 32.778 17.15C32.8647 17.33 33.0647 17.42 33.378 17.42L34.268 17.36L34.318 17.98C33.8713 18.0533 33.5313 18.09 33.298 18.09C32.778 18.09 32.418 17.9633 32.218 17.71C32.018 17.4566 31.918 16.9733 31.918 16.26V13.63H31.208V12.98H31.918V11.45H32.658V12.98H34.248V13.63Z" fill="#21436E"/>
<path d="M30.1791 14.4899V17.0499C30.1991 17.2965 30.3924 17.4432 30.7591 17.4899L30.7291 18.0799C30.2024 18.0799 29.8058 17.9465 29.5391 17.6799C28.9391 17.9465 28.3391 18.0799 27.7391 18.0799C27.2791 18.0799 26.9291 17.9499 26.6891 17.6899C26.4491 17.4299 26.3291 17.0565 26.3291 16.5699C26.3291 16.0832 26.4524 15.7265 26.6991 15.4999C26.9458 15.2665 27.3324 15.1232 27.8591 15.0699L29.4291 14.9199V14.4899C29.4291 14.1499 29.3558 13.9065 29.2091 13.7599C29.0624 13.6132 28.8624 13.5399 28.6091 13.5399C28.0758 13.5399 27.5224 13.5732 26.9491 13.6399L26.6391 13.6699L26.6091 13.0999C27.3424 12.9532 27.9924 12.8799 28.5591 12.8799C29.1258 12.8799 29.5358 13.0099 29.7891 13.2699C30.0491 13.5299 30.1791 13.9365 30.1791 14.4899ZM27.0991 16.5299C27.0991 17.1432 27.3524 17.4499 27.8591 17.4499C28.3124 17.4499 28.7591 17.3732 29.1991 17.2199L29.4291 17.1399V15.4899L27.9491 15.6299C27.6491 15.6565 27.4324 15.7432 27.2991 15.8899C27.1658 16.0365 27.0991 16.2499 27.0991 16.5299Z" fill="#21436E"/>
<path d="M22.0273 17.98H21.2773V10.8H22.0273V13.26C22.5607 13.0067 23.074 12.88 23.5673 12.88C24.234 12.88 24.6807 13.06 24.9073 13.42C25.1407 13.78 25.2573 14.42 25.2573 15.34V17.98H24.5073V15.36C24.5073 14.6667 24.4373 14.1934 24.2973 13.94C24.164 13.68 23.8773 13.55 23.4373 13.55C23.0173 13.55 22.6107 13.6267 22.2173 13.78L22.0273 13.85V17.98Z" fill="#21436E"/>
<path d="M12 11.0601H12.8L13.98 17.3001H14.27L15.68 11.1201H16.58L17.99 17.3001H18.28L19.46 11.0601H20.25L18.85 17.9801H17.44L16.13 12.0701L14.82 17.9801H13.41L12 11.0601Z" fill="#21436E"/>
<defs>
<linearGradient id="paint0_linear_6_365" x1="16.8147" y1="-14.9926" x2="100.222" y2="60.3796" gradientUnits="userSpaceOnUse">
<stop stop-color="white" stop-opacity="0"/>
<stop offset="1" stop-color="#F7FAFB"/>
</linearGradient>
</defs>
</svg>
