<svg width="101" height="31" viewBox="0 0 101 31" fill="none" xmlns="http://www.w3.org/2000/svg">
<path d="M1 8C1 4.13401 4.13401 1 8 1H92.4556C96.3216 1 99.4556 4.13401 99.4556 8V23C99.4556 26.866 96.3216 30 92.4556 30H8.00001C4.13401 30 1 26.866 1 23V8Z" fill="white"/>
<path d="M1 8C1 4.13401 4.13401 1 8 1H92.4556C96.3216 1 99.4556 4.13401 99.4556 8V23C99.4556 26.866 96.3216 30 92.4556 30H8.00001C4.13401 30 1 26.866 1 23V8Z" fill="url(#paint0_linear_6_361)" fill-opacity="0.2"/>
<path d="M1 8C1 4.13401 4.13401 1 8 1H92.4556C96.3216 1 99.4556 4.13401 99.4556 8V23C99.4556 26.866 96.3216 30 92.4556 30H8.00001C4.13401 30 1 26.866 1 23V8Z" stroke="#F0F4FC" stroke-width="2"/>
<path d="M88.4556 12.56C88.4556 12.9933 88.3956 13.3233 88.2756 13.55C88.1623 13.77 87.9256 14.03 87.5656 14.33C87.2123 14.6233 86.969 14.86 86.8356 15.04C86.7023 15.2133 86.6356 15.4066 86.6356 15.62V15.97H86.0056C85.919 15.79 85.8756 15.5866 85.8756 15.36C85.8756 15.1333 85.9523 14.9233 86.1056 14.73C86.259 14.53 86.5056 14.2833 86.8456 13.99C87.1856 13.6966 87.4123 13.4633 87.5256 13.29C87.639 13.1166 87.6956 12.8766 87.6956 12.57C87.6956 12.2566 87.589 12.0233 87.3756 11.87C87.1623 11.7166 86.8256 11.64 86.3656 11.64C86.0723 11.64 85.6423 11.7 85.0756 11.82L84.8156 11.87L84.7656 11.26C85.439 11.06 85.9956 10.96 86.4356 10.96C87.1223 10.96 87.629 11.0866 87.9556 11.34C88.289 11.5866 88.4556 11.9933 88.4556 12.56ZM85.8956 17.97V16.85H86.7156V17.97H85.8956Z" fill="#21436E"/>
<path d="M80.7188 17.9799H79.9688V12.9799H80.7087V13.3299C81.2487 13.0299 81.7654 12.8799 82.2588 12.8799C82.9254 12.8799 83.3721 13.0599 83.5987 13.4199C83.8321 13.7799 83.9487 14.4199 83.9487 15.3399V17.9799H83.2087V15.3599C83.2087 14.6665 83.1387 14.1932 82.9987 13.9399C82.8654 13.6799 82.5754 13.5499 82.1287 13.5499C81.9154 13.5499 81.6887 13.5832 81.4487 13.6499C81.2154 13.7099 81.0354 13.7699 80.9088 13.8299L80.7188 13.9199V17.9799Z" fill="#21436E"/>
<path d="M78.3202 17.3599L78.6102 17.3299L78.6302 17.9199C77.8702 18.0265 77.2202 18.0799 76.6802 18.0799C75.9602 18.0799 75.4502 17.8732 75.1502 17.4599C74.8502 17.0399 74.7002 16.3899 74.7002 15.5099C74.7002 13.7565 75.3969 12.8799 76.7902 12.8799C77.4635 12.8799 77.9669 13.0699 78.3002 13.4499C78.6335 13.8232 78.8002 14.4132 78.8002 15.2199L78.7602 15.7899H75.4602C75.4602 16.3432 75.5602 16.7532 75.7602 17.0199C75.9602 17.2865 76.3069 17.4199 76.8002 17.4199C77.3002 17.4199 77.8069 17.3999 78.3202 17.3599ZM78.0502 15.1899C78.0502 14.5765 77.9502 14.1432 77.7502 13.8899C77.5569 13.6365 77.2369 13.5099 76.7902 13.5099C76.3502 13.5099 76.0169 13.6432 75.7902 13.9099C75.5702 14.1765 75.4569 14.6032 75.4502 15.1899H78.0502Z" fill="#21436E"/>
<path d="M69.6465 20.1999V12.9799H70.3865V13.3399C70.8931 13.0332 71.3931 12.8799 71.8865 12.8799C72.5198 12.8799 72.9798 13.0832 73.2665 13.4899C73.5532 13.8899 73.6965 14.5532 73.6965 15.4799C73.6965 16.4065 73.5265 17.0732 73.1865 17.4799C72.8532 17.8799 72.2965 18.0799 71.5165 18.0799C71.1098 18.0799 70.7365 18.0432 70.3965 17.9699V20.1999H69.6465ZM71.7765 13.5499C71.5765 13.5499 71.3598 13.5832 71.1265 13.6499C70.8998 13.7165 70.7198 13.7832 70.5865 13.8499L70.3965 13.9499V17.3199C70.8698 17.3932 71.2298 17.4299 71.4765 17.4299C72.0165 17.4299 72.3932 17.2765 72.6065 16.9699C72.8265 16.6632 72.9365 16.1632 72.9365 15.4699C72.9365 14.7765 72.8365 14.2832 72.6365 13.9899C72.4431 13.6965 72.1565 13.5499 71.7765 13.5499Z" fill="#21436E"/>
<path d="M64.373 20.1999V12.9799H65.113V13.3399C65.6197 13.0332 66.1197 12.8799 66.613 12.8799C67.2464 12.8799 67.7064 13.0832 67.993 13.4899C68.2797 13.8899 68.423 14.5532 68.423 15.4799C68.423 16.4065 68.253 17.0732 67.913 17.4799C67.5797 17.8799 67.023 18.0799 66.243 18.0799C65.8364 18.0799 65.463 18.0432 65.123 17.9699V20.1999H64.373ZM66.503 13.5499C66.303 13.5499 66.0864 13.5832 65.853 13.6499C65.6264 13.7165 65.4464 13.7832 65.313 13.8499L65.123 13.9499V17.3199C65.5964 17.3932 65.9564 17.4299 66.203 17.4299C66.743 17.4299 67.1197 17.2765 67.333 16.9699C67.553 16.6632 67.663 16.1632 67.663 15.4699C67.663 14.7765 67.563 14.2832 67.363 13.9899C67.1697 13.6965 66.883 13.5499 66.503 13.5499Z" fill="#21436E"/>
<path d="M62.8939 14.4899V17.0499C62.9139 17.2965 63.1073 17.4432 63.4739 17.4899L63.4439 18.0799C62.9173 18.0799 62.5206 17.9465 62.2539 17.6799C61.6539 17.9465 61.0539 18.0799 60.4539 18.0799C59.9939 18.0799 59.6439 17.9499 59.4039 17.6899C59.1639 17.4299 59.0439 17.0565 59.0439 16.5699C59.0439 16.0832 59.1673 15.7265 59.4139 15.4999C59.6606 15.2665 60.0473 15.1232 60.5739 15.0699L62.1439 14.9199V14.4899C62.1439 14.1499 62.0706 13.9065 61.9239 13.7599C61.7773 13.6132 61.5773 13.5399 61.3239 13.5399C60.7906 13.5399 60.2373 13.5732 59.6639 13.6399L59.3539 13.6699L59.3239 13.0999C60.0573 12.9532 60.7073 12.8799 61.2739 12.8799C61.8406 12.8799 62.2506 13.0099 62.5039 13.2699C62.7639 13.5299 62.8939 13.9365 62.8939 14.4899ZM59.8139 16.5299C59.8139 17.1432 60.0673 17.4499 60.5739 17.4499C61.0273 17.4499 61.4739 17.3732 61.9139 17.2199L62.1439 17.1399V15.4899L60.6639 15.6299C60.3639 15.6565 60.1473 15.7432 60.0139 15.8899C59.8806 16.0365 59.8139 16.2499 59.8139 16.5299Z" fill="#21436E"/>
<path d="M54.7422 17.98H53.9922V10.8H54.7422V13.26C55.2755 13.0067 55.7889 12.88 56.2822 12.88C56.9489 12.88 57.3955 13.06 57.6222 13.42C57.8555 13.78 57.9722 14.42 57.9722 15.34V17.98H57.2222V15.36C57.2222 14.6667 57.1522 14.1934 57.0122 13.94C56.8789 13.68 56.5922 13.55 56.1522 13.55C55.7322 13.55 55.3255 13.6267 54.9322 13.78L54.7422 13.85V17.98Z" fill="#21436E"/>
<path d="M49.541 17.98V10.8H50.291V17.98H49.541Z" fill="#21436E"/>
<path d="M47.2266 17.98V10.8H47.9766V17.98H47.2266Z" fill="#21436E"/>
<path d="M44.9785 17.98V12.98H45.7285V17.98H44.9785ZM44.9785 11.85V10.98H45.7285V11.85H44.9785Z" fill="#21436E"/>
<path d="M36.9512 12.98H37.7012L38.7112 17.33H38.8712L40.0612 13.08H40.8412L42.0312 17.33H42.2012L43.2012 12.98H43.9512L42.7612 17.98H41.5112L40.4512 14.07L39.3912 17.98H38.1412L36.9512 12.98Z" fill="#21436E"/>
<path d="M34.248 13.63H32.658V16.02C32.658 16.5933 32.698 16.97 32.778 17.15C32.8647 17.33 33.0647 17.42 33.378 17.42L34.268 17.36L34.318 17.98C33.8713 18.0533 33.5313 18.09 33.298 18.09C32.778 18.09 32.418 17.9633 32.218 17.71C32.018 17.4566 31.918 16.9733 31.918 16.26V13.63H31.208V12.98H31.918V11.45H32.658V12.98H34.248V13.63Z" fill="#21436E"/>
<path d="M30.1791 14.4899V17.0499C30.1991 17.2965 30.3924 17.4432 30.7591 17.4899L30.7291 18.0799C30.2024 18.0799 29.8058 17.9465 29.5391 17.6799C28.9391 17.9465 28.3391 18.0799 27.7391 18.0799C27.2791 18.0799 26.9291 17.9499 26.6891 17.6899C26.4491 17.4299 26.3291 17.0565 26.3291 16.5699C26.3291 16.0832 26.4524 15.7265 26.6991 15.4999C26.9458 15.2665 27.3324 15.1232 27.8591 15.0699L29.4291 14.9199V14.4899C29.4291 14.1499 29.3558 13.9065 29.2091 13.7599C29.0624 13.6132 28.8624 13.5399 28.6091 13.5399C28.0758 13.5399 27.5224 13.5732 26.9491 13.6399L26.6391 13.6699L26.6091 13.0999C27.3424 12.9532 27.9924 12.8799 28.5591 12.8799C29.1258 12.8799 29.5358 13.0099 29.7891 13.2699C30.0491 13.5299 30.1791 13.9365 30.1791 14.4899ZM27.0991 16.5299C27.0991 17.1432 27.3524 17.4499 27.8591 17.4499C28.3124 17.4499 28.7591 17.3732 29.1991 17.2199L29.4291 17.1399V15.4899L27.9491 15.6299C27.6491 15.6565 27.4324 15.7432 27.2991 15.8899C27.1658 16.0365 27.0991 16.2499 27.0991 16.5299Z" fill="#21436E"/>
<path d="M22.0273 17.98H21.2773V10.8H22.0273V13.26C22.5607 13.0067 23.074 12.88 23.5673 12.88C24.234 12.88 24.6807 13.06 24.9073 13.42C25.1407 13.78 25.2573 14.42 25.2573 15.34V17.98H24.5073V15.36C24.5073 14.6667 24.4373 14.1934 24.2973 13.94C24.164 13.68 23.8773 13.55 23.4373 13.55C23.0173 13.55 22.6107 13.6267 22.2173 13.78L22.0273 13.85V17.98Z" fill="#21436E"/>
<path d="M12 11.0601H12.8L13.98 17.3001H14.27L15.68 11.1201H16.58L17.99 17.3001H18.28L19.46 11.0601H20.25L18.85 17.9801H17.44L16.13 12.0701L14.82 17.9801H13.41L12 11.0601Z" fill="#21436E"/>
<defs>
<linearGradient id="paint0_linear_6_361" x1="17.8528" y1="-14.9926" x2="101.628" y2="65.6819" gradientUnits="userSpaceOnUse">
<stop stop-color="white" stop-opacity="0"/>
<stop offset="1" stop-color="#F7FAFB"/>
</linearGradient>
</defs>
</svg>
