<svg width="32" height="32" viewBox="0 0 32 32" fill="none" xmlns="http://www.w3.org/2000/svg">
<path d="M7.17651 13.5331C7.15426 13.6357 7.09245 13.7259 7.00469 13.7827C6.91569 13.8395 6.80815 13.8581 6.70555 13.8346C5.81061 13.648 4.93542 13.3738 4.09365 13.0167C3.89711 12.9265 3.80934 12.6955 3.89711 12.4978C3.98364 12.3001 4.21355 12.2087 4.41256 12.2927C5.20614 12.63 6.03188 12.887 6.87615 13.0624C7.08876 13.1094 7.22349 13.3206 7.17651 13.5331ZM6.87614 18.4025C6.03186 18.227 5.20616 17.9688 4.41255 17.6327C4.2123 17.5438 3.97867 17.6352 3.89092 17.8341C3.80316 18.0343 3.8934 18.2678 4.09364 18.3555C4.93545 18.7138 5.81061 18.9881 6.70555 19.1747C6.91939 19.2216 7.12952 19.0869 7.17651 18.8732C7.22348 18.6607 7.08875 18.4494 6.87614 18.4025ZM6.87614 23.6868C6.03186 23.5113 5.20616 23.2531 4.41255 22.9158C4.31613 22.8726 4.20612 22.8676 4.10723 22.9059C4.00834 22.943 3.92799 23.0184 3.88597 23.116C3.8427 23.2124 3.84023 23.3223 3.87979 23.4212C3.91934 23.52 3.99598 23.5978 4.09363 23.6398C4.93544 23.9981 5.8106 24.2724 6.70554 24.459C6.80937 24.4837 6.91815 24.4664 7.00838 24.4096C7.09862 24.354 7.1629 24.2638 7.18515 24.1587C7.20863 24.055 7.18885 23.9462 7.13076 23.8573C7.07142 23.7683 6.97997 23.7066 6.87614 23.6868ZM25.9866 22.2462C25.9866 23.2581 25.3772 24.1699 24.4427 24.5578C23.5069 24.9446 22.4315 24.7308 21.7158 24.0154C21.0001 23.3001 20.7862 22.2239 21.1732 21.2899C21.5601 20.3546 22.4723 19.7455 23.4847 19.7455C24.8654 19.7467 25.9853 20.8661 25.9866 22.2462ZM25.1955 22.2462C25.1955 21.5555 24.7789 20.9316 24.1398 20.6672C23.4995 20.4015 22.764 20.5486 22.2745 21.0378C21.785 21.5271 21.6392 22.2622 21.9037 22.901C22.1682 23.5397 22.7925 23.9573 23.4847 23.9573C24.4291 23.9561 25.1942 23.1901 25.1955 22.2462ZM30.2079 23.1098C30.2079 23.3063 30.0621 23.473 29.8668 23.5002L28.5713 23.6782L28.5701 23.6794C28.4588 24.0735 28.3006 24.4541 28.1004 24.8124L28.8915 25.8564C29.0101 26.0145 28.9953 26.2357 28.8556 26.3753L27.6232 27.6083C27.4835 27.7479 27.2623 27.7628 27.1041 27.6442L26.0595 26.8534H26.0608C25.7023 27.0536 25.3216 27.2117 24.926 27.3229L24.748 28.6178L24.7468 28.619C24.7208 28.8142 24.5527 28.96 24.3562 28.96H22.6133C22.4155 28.96 22.2486 28.8142 22.2214 28.619L22.0434 27.3217C21.6479 27.2105 21.2672 27.0536 20.9087 26.8534L19.8642 27.6442C19.7072 27.7628 19.4859 27.7479 19.3462 27.6083L18.6281 26.8905C16.5304 27.4279 14.3735 27.6899 12.209 27.6689C9.47225 27.6689 6.8924 27.3007 4.94817 26.631C2.8715 25.9144 1.72803 24.91 1.72803 23.8005V7.86593C1.72803 6.75643 2.87144 5.75195 4.94943 5.03782C6.89506 4.36817 9.47491 4 12.2103 4C14.9456 4 17.5268 4.3682 19.4711 5.03782C21.5477 5.75195 22.6925 6.75643 22.6925 7.86593V15.5199H24.3575H24.3563C24.5541 15.5199 24.7209 15.6657 24.7481 15.8609L24.9261 17.1557C25.3229 17.2669 25.7036 17.4251 26.0621 17.6253L27.1066 16.8345C27.2648 16.7147 27.4861 16.7295 27.6258 16.8691L28.8582 18.1022V18.1034C28.9979 18.243 29.0127 18.4642 28.894 18.6211L28.1029 19.6639C28.3032 20.0222 28.4614 20.4027 28.5726 20.7981L29.8681 20.976C30.0634 21.0044 30.208 21.1699 30.208 21.3664L30.2079 23.1098ZM18.1137 18.1023L19.3461 16.8692H19.3474C19.4871 16.7296 19.7083 16.7148 19.8653 16.8334L20.9098 17.6241C21.225 17.4474 21.5576 17.3041 21.9024 17.1966V14.7132C21.162 15.3137 20.309 15.7622 19.3943 16.0315C17.4586 16.6839 14.9072 17.0434 12.2114 17.0434C9.52652 17.0434 6.9837 16.6863 5.05053 16.0389C4.12715 15.7696 3.26683 15.3186 2.51898 14.712V18.4901C2.51898 19.9456 6.49922 21.5653 12.2101 21.5653V21.5641C13.7515 21.569 15.2917 21.4393 16.8109 21.1761C16.8715 21.0674 16.979 20.992 17.1026 20.976L18.4005 20.7981V20.7968C18.5118 20.4015 18.67 20.0209 18.8703 19.6626L18.0792 18.6198V18.6211C17.9605 18.4642 17.9753 18.2431 18.1137 18.1023ZM21.9 9.39058C21.1843 9.97993 20.3586 10.4222 19.471 10.6941C17.5254 11.3637 14.9456 11.7319 12.2102 11.7319C9.47487 11.7319 6.89363 11.3637 4.9494 10.6941C4.06186 10.4222 3.23613 9.97993 2.5192 9.39058V13.2244C2.5192 13.2318 2.52167 13.238 2.52167 13.2454C2.581 13.962 3.61935 14.7268 5.30043 15.2902C7.15461 15.9091 9.60693 16.2526 12.2103 16.2526C14.8235 16.2526 17.2845 15.9079 19.1398 15.2828C20.8222 14.7156 21.8543 13.9484 21.8988 13.2305C21.8988 13.2256 21.8988 13.2207 21.9001 13.2157L21.9 9.39058ZM2.51904 7.86595C2.51904 9.32141 6.49928 10.9412 12.2102 10.9412C17.921 10.9412 21.9013 9.32018 21.9013 7.86595C21.9013 6.41173 17.9223 4.79073 12.2102 4.79073C6.49801 4.79073 2.51904 6.4105 2.51904 7.86595ZM12.2102 26.8758C14.1669 26.8906 16.1189 26.6744 18.0248 26.2296C17.9779 26.1036 17.9989 25.9628 18.0804 25.8553L18.8716 24.8112V24.8125C18.6701 24.4542 18.5119 24.0737 18.4006 23.6783L17.1027 23.5004L17.1039 23.4991C16.9074 23.4732 16.7615 23.3052 16.7615 23.1087V21.9881C15.2572 22.2364 13.7355 22.36 12.2101 22.355C9.47335 22.355 6.8935 21.9868 4.94927 21.3172C4.06173 21.0466 3.236 20.6031 2.51907 20.0137V23.8007C2.51907 25.2562 6.49928 26.8758 12.2102 26.8758ZM29.4168 21.7126L28.1992 21.5446C28.0361 21.5224 27.9038 21.4013 27.8667 21.2407C27.7555 20.7465 27.5602 20.2757 27.2895 19.8483C27.2017 19.7099 27.2091 19.5307 27.3092 19.3985L28.0522 18.4175L27.3068 17.6725L26.3253 18.415V18.4163C26.1943 18.5164 26.015 18.5238 25.8753 18.436C25.4476 18.1655 24.9767 17.9702 24.4835 17.8591C24.3228 17.822 24.2017 17.6898 24.1794 17.5267L24.0113 16.3097H22.9581L22.79 17.5267C22.7678 17.6898 22.6466 17.8208 22.4872 17.8578C21.9927 17.9703 21.5218 18.1655 21.0941 18.436C20.9544 18.5238 20.7752 18.5151 20.6441 18.4163L19.6627 17.6737L18.9173 18.4187L19.6602 19.3998L19.6614 19.3985C19.7603 19.5295 19.7677 19.7086 19.68 19.8483C19.4105 20.2758 19.2152 20.7465 19.1027 21.2407C19.0669 21.4013 18.9346 21.5224 18.7714 21.5446L17.5538 21.7126V22.7653L18.7714 22.9333V22.9321C18.9346 22.9556 19.0669 23.0767 19.1027 23.2373C19.2152 23.7302 19.4105 24.201 19.68 24.6285C19.7677 24.7681 19.7603 24.9472 19.6614 25.0782L18.9185 26.0592L19.6639 26.8042L20.6454 26.0617L20.6441 26.0604C20.7752 25.9616 20.9544 25.9529 21.0941 26.0407C21.5218 26.3113 21.9927 26.5065 22.4872 26.6189C22.6479 26.6547 22.769 26.7869 22.7913 26.95L22.9594 28.167H24.0125L24.1806 26.95H24.1794C24.2029 26.7869 24.324 26.6547 24.4847 26.6189C24.9779 26.5065 25.4489 26.3112 25.8766 26.0407C26.0163 25.9529 26.1955 25.9616 26.3265 26.0604L27.308 26.803L28.0534 26.058L27.3105 25.077V25.0782C27.2104 24.9472 27.2029 24.7681 27.2907 24.6285C27.5614 24.201 27.7567 23.7302 27.868 23.236C27.905 23.0767 28.0361 22.9543 28.1992 22.9321L29.4168 22.7641L29.4168 21.7126Z" fill="#FFB216"/>
</svg>
