<svg width="32" height="32" viewBox="0 0 32 32" fill="none" xmlns="http://www.w3.org/2000/svg">
<path d="M21.0039 21.4896V17.9984C21.0034 17.9351 20.9907 17.8723 20.9668 17.8138L18.9668 12.8128C18.8591 12.5436 18.7366 12.2503 18.5156 11.9856C18.3275 11.7603 18.0505 11.5492 17.6905 11.5158L17.9746 10.6575C18.1509 10.1283 18.3544 9.69298 19.1348 9.23853L23.6807 6.36842C23.9485 6.19948 23.9688 5.88503 23.8312 5.67568C23.6946 5.46784 23.4018 5.36382 23.1485 5.52371L18.6241 8.37924C17.6456 8.94868 17.2368 9.70704 17.0254 10.3411L16.6397 11.4984H12.708L13.3604 9.6683C13.6805 8.76972 14.3208 7.84268 15.1988 7.45881L24.2276 3.76492C24.2382 3.80007 24.2461 3.83525 24.2588 3.8704L28.4376 15.4172L24.1006 21.1985C23.8526 21.5278 24.0872 21.9987 24.4991 21.9993H27.5C29.4303 21.9993 30.9981 20.4306 30.9981 18.5003V17.5003C30.9981 16.8334 29.998 16.8334 29.998 17.5003V18.5003C29.998 19.8939 28.8936 20.9993 27.5 20.9993H25.5029L29.249 16.0003L30.501 15.9993C30.8143 15.9988 31.0499 15.7133 30.9912 15.4055L28.6035 2.70147C28.3961 1.59841 27.3077 0.835185 26.0908 1.02174C25.0451 1.18199 24.4148 1.92872 24.2158 2.68976L14.8047 6.53936C13.5601 7.08257 12.8044 8.25053 12.419 9.33231L11.6475 11.4983H11.503C10.5963 11.4983 10.1889 12.2137 10.0137 12.9104L9.11133 16.4993H2.50098C1.67863 16.4993 0.999026 17.176 0.999026 17.9984V21.5013C0.999026 22.3236 1.67863 22.9993 2.50098 22.9993H3.99903V24.0403C2.30613 24.2849 0.998047 25.7399 0.998047 27.4993C0.998047 29.4296 2.57064 30.9973 4.50098 30.9973H20C21.9304 30.9973 23.4981 29.4296 23.4981 27.4993C23.4981 25.569 21.9304 23.9993 20 23.9993H19.501L19.5015 22.9993C20.3244 22.9993 21.0224 22.325 21.0039 21.4896ZM27.6182 2.88607L29.8965 14.9993L29.3506 15.0003L25.1992 3.52968C24.9778 2.91768 25.4269 2.15661 26.2231 2.01939C26.9043 1.90204 27.512 2.32173 27.6182 2.88607ZM26.5 2.99928C26.2239 2.99928 26 3.22316 26 3.49929C26 3.77542 26.2239 3.99924 26.5 3.99924C26.7761 3.99924 27 3.77544 27 3.49929C27 3.22314 26.7761 2.99928 26.5 2.99928ZM19.501 21.9993H2.50096C2.21531 21.9993 1.99901 21.7869 1.99901 21.5012V17.9983C1.99901 17.7127 2.21531 17.5003 2.50096 17.5003H9.50292C9.73315 17.5007 9.93392 17.3438 9.98925 17.1204L10.9936 13.0881C11.0878 12.71 11.2195 12.4993 11.5029 12.4993H17.5049C17.6358 12.4993 17.6588 12.5214 17.748 12.6281C17.8372 12.7349 17.9419 12.9405 18.04 13.1858L20.0029 18.094V21.5066C20.0086 21.7843 19.7866 21.9993 19.501 21.9993ZM12.5029 13.4993C12.276 13.4993 12.0776 13.6519 12.0195 13.8713L11.2187 16.8684C11.1317 17.187 11.3719 17.5009 11.7021 17.5003H14.0019V18.9983C14.0022 19.0971 14.0318 19.1936 14.0869 19.2756L15.0869 20.7776C15.1801 20.9167 15.3366 20.9998 15.5039 20.9993H18.5049C18.7795 20.9983 19.0018 20.7758 19.0029 20.5012V18.5003C19.0025 18.433 18.9886 18.3666 18.9619 18.3049L17.0684 13.8049C16.9902 13.6195 16.8086 13.4992 16.6074 13.4993H12.5029ZM12.8867 14.4993H14.0019V16.4993H12.3515L12.8867 14.4993ZM15.0019 14.4993H16.2754L18.0029 18.5999V19.9993H15.7695L15.0019 18.847V16.9983V14.4993ZM3.49315 18.4924C3.21702 18.4962 2.99578 18.7222 2.99901 18.9983V20.5012C2.98371 21.183 4.01432 21.183 3.99901 20.5012V18.9983C4.0026 18.7176 3.77388 18.4892 3.49315 18.4924ZM5.49413 18.4924C5.21799 18.4962 4.99676 18.7222 4.99999 18.9983V20.5012C4.98525 21.1824 6.0147 21.1824 5.99999 20.5012V18.9983C6.0036 18.7176 5.77485 18.4892 5.49413 18.4924ZM7.4912 18.4924C7.21621 18.4981 6.99675 18.7233 6.99999 18.9983V20.5012C7.01473 21.1531 7.98535 21.1531 7.99999 20.5012V18.9983C8.00358 18.7164 7.77307 18.4875 7.4912 18.4924ZM4.99999 22.9992H18.501V23.9993H15.998C15.3307 23.9993 15.3307 25.0003 15.998 25.0003H20C21.3936 25.0003 22.498 26.1056 22.498 27.4993C22.498 28.8929 21.3936 29.9973 20 29.9973H4.50096C3.10734 29.9973 1.99901 28.8929 1.99901 27.4993C1.99901 26.1056 3.10734 25.0003 4.50096 25.0003H14.0019C14.6693 25.0003 14.6693 23.9993 14.0019 23.9993H4.99999V22.9992ZM5.50194 26.0002C4.67946 26.0002 3.99901 26.6768 3.99901 27.4993C3.99901 28.3218 4.67944 29.0012 5.50194 29.0012C6.32446 29.0012 6.99999 28.3218 6.99999 27.4993C6.99997 26.6768 6.32444 26.0002 5.50194 26.0002ZM10.001 26.0002C9.17846 26.0002 8.49803 26.6768 8.49803 27.4993C8.49803 28.3218 9.17844 29.0012 10.001 29.0012C10.8235 29.0012 11.499 28.3218 11.499 27.4993C11.499 26.6768 10.8235 26.0002 10.001 26.0002ZM14.5 26.0002C13.6775 26.0002 13.002 26.6768 13.0019 27.4993C13.0019 28.3218 13.6775 29.0012 14.5 29.0012C15.3225 29.0012 15.998 28.3218 15.998 27.4993C15.998 26.6768 15.3225 26.0002 14.5 26.0002ZM18.999 26.0002C18.1765 26.0002 17.501 26.6768 17.501 27.4993C17.501 28.3218 18.1765 29.0012 18.999 29.0012C19.8215 29.0012 20.5019 28.3218 20.5019 27.4993C20.5019 26.6768 19.8215 26.0002 18.999 26.0002ZM5.50194 27.0002C5.78401 27.0002 5.99999 27.2172 5.99999 27.4993C5.99999 27.7813 5.78401 28.0012 5.50194 28.0012C5.21987 28.0012 4.99999 27.7813 4.99999 27.4993C4.99999 27.2172 5.21987 27.0002 5.50194 27.0002ZM10.001 27.0002C10.283 27.0002 10.499 27.2172 10.499 27.4993C10.499 27.7813 10.283 28.0012 10.001 28.0012C9.7189 28.0012 9.49899 27.7813 9.49901 27.4993C9.49901 27.2172 9.7189 27.0002 10.001 27.0002ZM14.5 27.0002C14.7821 27.0002 14.998 27.2172 14.998 27.4993C14.998 27.7813 14.7821 28.0012 14.5 28.0012C14.2179 28.0012 14.0019 27.7813 14.0019 27.4993C14.0019 27.2172 14.2179 27.0002 14.5 27.0002ZM18.999 27.0002C19.2811 27.0002 19.501 27.2172 19.501 27.4993C19.501 27.7813 19.2811 28.0012 18.999 28.0012C18.7169 28.0012 18.501 27.7813 18.501 27.4993C18.501 27.2172 18.7169 27.0002 18.999 27.0002Z" fill="#FFB216"/>
</svg>
