<svg width="41" height="42" viewBox="0 0 41 42" fill="none" xmlns="http://www.w3.org/2000/svg">
<g clip-path="url(#clip0_5747_16583)">
<path d="M40.1 31.1V23.7L39.3 23.2L20.1 33.7L1.9 23.7V19.4L20.1 29.3L40.2 18.4V11.1L39.4 10.6L20.1 21.2L2.6 11.6L20.1 2L34.2 9.7L35.3 9.1V8.3L20.1 0L0 10.9V12L20.1 23L38.3 13V17.4L20.1 27.4L0.8 16.8L0 17.3V24.7L20.1 35.6L38.3 25.7V30L20.1 40L0.8 29.5L0 30V31.1L20.1 42L40.1 31.1Z" fill="#FF3621"/>
</g>
<defs>
<clipPath id="clip0_5747_16583">
<rect width="40.1" height="42" fill="white"/>
</clipPath>
</defs>
</svg>
