<svg width="40" height="24" viewBox="0 0 40 24" fill="none" xmlns="http://www.w3.org/2000/svg">
<g clip-path="url(#clip0_5747_16613)">
<path d="M11.2625 8.71673C11.2625 9.21507 11.3289 9.61374 11.3954 9.91275C11.495 10.2117 11.6279 10.5108 11.8272 10.8762C11.8937 10.9759 11.9269 11.0755 11.9269 11.1752C11.9269 11.3081 11.8605 11.441 11.6611 11.5739L10.8306 12.1387C10.6977 12.2051 10.598 12.2716 10.4983 12.2716C10.3655 12.2716 10.2326 12.2051 10.0997 12.0722C9.90034 11.8729 9.76745 11.6735 9.63455 11.441C9.50166 11.2084 9.36877 10.9759 9.23588 10.6436C8.20598 11.8729 6.9103 12.4709 5.31562 12.4709C4.18605 12.4709 3.32226 12.1387 2.65781 11.5074C1.99336 10.8762 1.66113 10.0124 1.66113 8.94929C1.66113 7.81972 2.0598 6.88949 2.85715 6.22504C3.65449 5.56059 4.75083 5.19514 6.11296 5.19514C6.57808 5.19514 7.04319 5.22836 7.50831 5.2948C8.00665 5.36125 8.50499 5.46092 9.03655 5.59381V4.63035C9.03655 3.63368 8.83721 2.90278 8.40532 2.50411C7.97342 2.10544 7.27575 1.9061 6.24585 1.9061C5.78073 1.9061 5.31562 1.97255 4.81728 2.07221C4.31894 2.2051 3.85382 2.33799 3.38871 2.53733C3.18937 2.60377 3.02326 2.67022 2.92359 2.70344C2.82392 2.70344 2.75748 2.73667 2.72426 2.73667C2.52492 2.73667 2.45848 2.60377 2.45848 2.33799V1.67354C2.45848 1.47421 2.4917 1.30809 2.55814 1.20843C2.62459 1.10876 2.75748 1.00909 2.92359 0.942645C3.38871 0.710087 3.95349 0.510751 4.58472 0.344638C5.24917 0.178525 5.91362 0.0788574 6.64452 0.0788574C8.23921 0.0788574 9.36877 0.444306 10.1329 1.14198C10.8638 1.87288 11.2292 2.936 11.2292 4.43102L11.2625 8.71673ZM5.8804 10.7433C6.3123 10.7433 6.77741 10.6769 7.24253 10.5108C7.70764 10.3446 8.13954 10.0456 8.50499 9.64696C8.70432 9.38118 8.87044 9.1154 8.9701 8.78318C9.03655 8.45095 9.10299 8.0855 9.10299 7.62039V7.0556C8.70432 6.95593 8.30565 6.88949 7.87376 6.82304C7.44186 6.7566 7.04319 6.7566 6.6113 6.7566C5.71429 6.7566 5.08306 6.92271 4.61794 7.28816C4.18605 7.65361 3.95349 8.15195 3.95349 8.8164C3.95349 9.44763 4.1196 9.91275 4.45183 10.2117C4.78406 10.6104 5.24917 10.7433 5.8804 10.7433ZM16.5449 12.2051C16.3123 12.2051 16.1462 12.1719 16.0465 12.0722C15.9468 12.0058 15.8472 11.8064 15.7807 11.5407L12.6578 1.24165C12.5914 0.975867 12.5249 0.809754 12.5249 0.710087C12.5249 0.510751 12.6246 0.377861 12.8571 0.377861H14.1528C14.4186 0.377861 14.5847 0.411083 14.6844 0.510751C14.7841 0.577196 14.8837 0.776532 14.9502 1.04231L17.1761 9.8463L19.2359 1.04231C19.3023 0.776532 19.3688 0.610419 19.5017 0.510751C19.6013 0.444306 19.8007 0.377861 20.0332 0.377861H21.0963C21.3621 0.377861 21.5282 0.411083 21.6279 0.510751C21.7276 0.577196 21.8272 0.776532 21.8937 1.04231L23.9867 9.94597L26.2791 1.04231C26.3455 0.776532 26.4452 0.610419 26.5449 0.510751C26.6445 0.444306 26.8106 0.377861 27.0764 0.377861H28.3057C28.505 0.377861 28.6379 0.477529 28.6379 0.710087C28.6379 0.776532 28.6379 0.842977 28.6047 0.909422C28.6047 0.975868 28.5714 1.10876 28.505 1.24165L25.2824 11.5407C25.216 11.8064 25.1163 11.9725 25.0166 12.0722C24.9169 12.1387 24.7508 12.2051 24.5183 12.2051H23.3887C23.1229 12.2051 22.9568 12.1719 22.8571 12.0722C22.7575 11.9725 22.6578 11.8064 22.5914 11.5407L20.5316 2.96922L18.4718 11.5407C18.4053 11.8064 18.3389 11.9725 18.206 12.0722C18.1063 12.1719 17.907 12.2051 17.6744 12.2051H16.5449ZM33.6545 12.5373C32.9568 12.5373 32.2591 12.4709 31.5947 12.3048C30.9302 12.1387 30.3987 11.9725 30.0664 11.7732C29.8671 11.6403 29.701 11.5074 29.6678 11.4078C29.6346 11.3081 29.5681 11.142 29.5681 11.0423V10.3779C29.5681 10.1121 29.6678 9.97919 29.8671 9.97919C29.9336 9.97919 30.0332 9.97919 30.0997 10.0124C30.1661 10.0456 30.299 10.0789 30.4319 10.1453C30.897 10.3446 31.3621 10.5108 31.8937 10.6104C32.4253 10.7101 32.9568 10.7765 33.4884 10.7765C34.3189 10.7765 34.9834 10.6436 35.4153 10.3446C35.8804 10.0456 36.113 9.61374 36.113 9.08218C36.113 8.71673 35.9801 8.41773 35.7475 8.15195C35.515 7.88617 35.0498 7.68683 34.4186 7.45427L32.4917 6.85627C31.5282 6.55726 30.7973 6.09215 30.3655 5.49414C29.9336 4.89613 29.701 4.2649 29.701 3.56723C29.701 3.00245 29.8339 2.50411 30.0664 2.10544C30.299 1.70676 30.6312 1.30809 31.0299 1.00909C31.4286 0.710087 31.8937 0.477529 32.4253 0.311416C32.9568 0.145303 33.5216 0.0788574 34.0864 0.0788574C34.3854 0.0788574 34.6844 0.0788574 34.9834 0.145303C35.2824 0.178525 35.5814 0.24497 35.8472 0.278193C36.113 0.344638 36.3787 0.411083 36.6113 0.477529C36.8439 0.543974 37.0432 0.643642 37.1761 0.710087C37.3754 0.809754 37.5083 0.909422 37.5748 1.04231C37.6412 1.14198 37.7076 1.30809 37.7076 1.47421V2.10544C37.7076 2.37122 37.608 2.53733 37.4086 2.53733C37.309 2.53733 37.1429 2.47088 36.9103 2.37122C36.1462 2.03899 35.3156 1.83966 34.3522 1.83966C33.588 1.83966 32.99 1.97255 32.5914 2.2051C32.1927 2.43766 31.9601 2.83633 31.9601 3.40112C31.9601 3.76657 32.093 4.09879 32.3588 4.33135C32.6246 4.59713 33.1229 4.82969 33.8206 5.06225L35.7143 5.66025C36.6777 5.95926 37.3754 6.39115 37.7741 6.92271C38.1728 7.45427 38.3721 8.0855 38.3721 8.78318C38.3721 9.34796 38.2392 9.87952 38.0399 10.3114C37.8073 10.7765 37.4751 11.1752 37.0764 11.4742C36.6777 11.8064 36.1794 12.039 35.6146 12.2051C34.9502 12.4709 34.3189 12.5373 33.6545 12.5373Z" fill="white"/>
<path fill-rule="evenodd" clip-rule="evenodd" d="M36.1794 19.0073C31.794 22.2299 25.4153 23.9574 19.9668 23.9574C12.2924 23.9574 5.38208 21.1335 0.166129 16.4159C-0.232543 16.0504 0.132906 15.5521 0.631245 15.8179C6.27909 19.1069 13.2226 21.0671 20.4319 21.0671C25.2824 21.0671 30.6312 20.0704 35.5482 17.9774C36.2459 17.6784 36.8771 18.4757 36.1794 19.0073Z" fill="#FF9900"/>
<path fill-rule="evenodd" clip-rule="evenodd" d="M37.9734 16.9515C37.4086 16.2206 34.2856 16.6193 32.8571 16.7854C32.4252 16.8518 32.3587 16.4531 32.7574 16.1874C35.2491 14.4266 39.3687 14.9249 39.8338 15.5229C40.2989 16.1209 39.7009 20.2405 37.3753 22.2007C37.0099 22.4997 36.6777 22.3335 36.8438 21.9349C37.3753 20.606 38.5381 17.6492 37.9734 16.9515Z" fill="#FF9900"/>
<path d="M11.2625 8.71673C11.2625 9.21507 11.3289 9.61374 11.3954 9.91275C11.495 10.2117 11.6279 10.5108 11.8272 10.8762C11.8937 10.9759 11.9269 11.0755 11.9269 11.1752C11.9269 11.3081 11.8605 11.441 11.6611 11.5739L10.8306 12.1387C10.6977 12.2051 10.598 12.2716 10.4983 12.2716C10.3655 12.2716 10.2326 12.2051 10.0997 12.0722C9.90034 11.8729 9.76745 11.6735 9.63455 11.441C9.50166 11.2084 9.36877 10.9759 9.23588 10.6436C8.20598 11.8729 6.9103 12.4709 5.31562 12.4709C4.18605 12.4709 3.32226 12.1387 2.65781 11.5074C1.99336 10.8762 1.66113 10.0124 1.66113 8.94929C1.66113 7.81972 2.0598 6.88949 2.85715 6.22504C3.65449 5.56059 4.75083 5.19514 6.11296 5.19514C6.57808 5.19514 7.04319 5.22836 7.50831 5.2948C8.00665 5.36125 8.50499 5.46092 9.03655 5.59381V4.63035C9.03655 3.63368 8.83721 2.90278 8.40532 2.50411C7.97342 2.10544 7.27575 1.9061 6.24585 1.9061C5.78073 1.9061 5.31562 1.97255 4.81728 2.07221C4.31894 2.2051 3.85382 2.33799 3.38871 2.53733C3.18937 2.60377 3.02326 2.67022 2.92359 2.70344C2.82392 2.70344 2.75748 2.73667 2.72426 2.73667C2.52492 2.73667 2.45848 2.60377 2.45848 2.33799V1.67354C2.45848 1.47421 2.4917 1.30809 2.55814 1.20843C2.62459 1.10876 2.75748 1.00909 2.92359 0.942645C3.38871 0.710087 3.95349 0.510751 4.58472 0.344638C5.24917 0.178525 5.91362 0.0788574 6.64452 0.0788574C8.23921 0.0788574 9.36877 0.444306 10.1329 1.14198C10.8638 1.87288 11.2292 2.936 11.2292 4.43102L11.2625 8.71673ZM5.8804 10.7433C6.3123 10.7433 6.77741 10.6769 7.24253 10.5108C7.70764 10.3446 8.13954 10.0456 8.50499 9.64696C8.70432 9.38118 8.87044 9.1154 8.9701 8.78318C9.03655 8.45095 9.10299 8.0855 9.10299 7.62039V7.0556C8.70432 6.95593 8.30565 6.88949 7.87376 6.82304C7.44186 6.7566 7.04319 6.7566 6.6113 6.7566C5.71429 6.7566 5.08306 6.92271 4.61794 7.28816C4.18605 7.65361 3.95349 8.15195 3.95349 8.8164C3.95349 9.44763 4.1196 9.91275 4.45183 10.2117C4.78406 10.6104 5.24917 10.7433 5.8804 10.7433ZM16.5449 12.2051C16.3123 12.2051 16.1462 12.1719 16.0465 12.0722C15.9468 12.0058 15.8472 11.8064 15.7807 11.5407L12.6578 1.24165C12.5914 0.975867 12.5249 0.809754 12.5249 0.710087C12.5249 0.510751 12.6246 0.377861 12.8571 0.377861H14.1528C14.4186 0.377861 14.5847 0.411083 14.6844 0.510751C14.7841 0.577196 14.8837 0.776532 14.9502 1.04231L17.1761 9.8463L19.2359 1.04231C19.3023 0.776532 19.3688 0.610419 19.5017 0.510751C19.6013 0.444306 19.8007 0.377861 20.0332 0.377861H21.0963C21.3621 0.377861 21.5282 0.411083 21.6279 0.510751C21.7276 0.577196 21.8272 0.776532 21.8937 1.04231L23.9867 9.94597L26.2791 1.04231C26.3455 0.776532 26.4452 0.610419 26.5449 0.510751C26.6445 0.444306 26.8106 0.377861 27.0764 0.377861H28.3057C28.505 0.377861 28.6379 0.477529 28.6379 0.710087C28.6379 0.776532 28.6379 0.842977 28.6047 0.909422C28.6047 0.975868 28.5714 1.10876 28.505 1.24165L25.2824 11.5407C25.216 11.8064 25.1163 11.9725 25.0166 12.0722C24.9169 12.1387 24.7508 12.2051 24.5183 12.2051H23.3887C23.1229 12.2051 22.9568 12.1719 22.8571 12.0722C22.7575 11.9725 22.6578 11.8064 22.5914 11.5407L20.5316 2.96922L18.4718 11.5407C18.4053 11.8064 18.3389 11.9725 18.206 12.0722C18.1063 12.1719 17.907 12.2051 17.6744 12.2051H16.5449ZM33.6545 12.5373C32.9568 12.5373 32.2591 12.4709 31.5947 12.3048C30.9302 12.1387 30.3987 11.9725 30.0664 11.7732C29.8671 11.6403 29.701 11.5074 29.6678 11.4078C29.6346 11.3081 29.5681 11.142 29.5681 11.0423V10.3779C29.5681 10.1121 29.6678 9.97919 29.8671 9.97919C29.9336 9.97919 30.0332 9.97919 30.0997 10.0124C30.1661 10.0456 30.299 10.0789 30.4319 10.1453C30.897 10.3446 31.3621 10.5108 31.8937 10.6104C32.4253 10.7101 32.9568 10.7765 33.4884 10.7765C34.3189 10.7765 34.9834 10.6436 35.4153 10.3446C35.8804 10.0456 36.113 9.61374 36.113 9.08218C36.113 8.71673 35.9801 8.41773 35.7475 8.15195C35.515 7.88617 35.0498 7.68683 34.4186 7.45427L32.4917 6.85627C31.5282 6.55726 30.7973 6.09215 30.3655 5.49414C29.9336 4.89613 29.701 4.2649 29.701 3.56723C29.701 3.00245 29.8339 2.50411 30.0664 2.10544C30.299 1.70676 30.6312 1.30809 31.0299 1.00909C31.4286 0.710087 31.8937 0.477529 32.4253 0.311416C32.9568 0.145303 33.5216 0.0788574 34.0864 0.0788574C34.3854 0.0788574 34.6844 0.0788574 34.9834 0.145303C35.2824 0.178525 35.5814 0.24497 35.8472 0.278193C36.113 0.344638 36.3787 0.411083 36.6113 0.477529C36.8439 0.543974 37.0432 0.643642 37.1761 0.710087C37.3754 0.809754 37.5083 0.909422 37.5748 1.04231C37.6412 1.14198 37.7076 1.30809 37.7076 1.47421V2.10544C37.7076 2.37122 37.608 2.53733 37.4086 2.53733C37.309 2.53733 37.1429 2.47088 36.9103 2.37122C36.1462 2.03899 35.3156 1.83966 34.3522 1.83966C33.588 1.83966 32.99 1.97255 32.5914 2.2051C32.1927 2.43766 31.9601 2.83633 31.9601 3.40112C31.9601 3.76657 32.093 4.09879 32.3588 4.33135C32.6246 4.59713 33.1229 4.82969 33.8206 5.06225L35.7143 5.66025C36.6777 5.95926 37.3754 6.39115 37.7741 6.92271C38.1728 7.45427 38.3721 8.0855 38.3721 8.78318C38.3721 9.34796 38.2392 9.87952 38.0399 10.3114C37.8073 10.7765 37.4751 11.1752 37.0764 11.4742C36.6777 11.8064 36.1794 12.039 35.6146 12.2051C34.9502 12.4709 34.3189 12.5373 33.6545 12.5373Z" fill="white"/>
<path fill-rule="evenodd" clip-rule="evenodd" d="M36.1794 19.0073C31.794 22.2299 25.4153 23.9574 19.9668 23.9574C12.2924 23.9574 5.38208 21.1335 0.166129 16.4159C-0.232543 16.0504 0.132906 15.5521 0.631245 15.8179C6.27909 19.1069 13.2226 21.0671 20.4319 21.0671C25.2824 21.0671 30.6312 20.0704 35.5482 17.9774C36.2459 17.6784 36.8771 18.4757 36.1794 19.0073Z" fill="#FF9900"/>
<path fill-rule="evenodd" clip-rule="evenodd" d="M37.9734 16.9515C37.4086 16.2206 34.2856 16.6193 32.8571 16.7854C32.4252 16.8518 32.3587 16.4531 32.7574 16.1874C35.2491 14.4266 39.3687 14.9249 39.8338 15.5229C40.2989 16.1209 39.7009 20.2405 37.3753 22.2007C37.0099 22.4997 36.6777 22.3335 36.8438 21.9349C37.3753 20.606 38.5381 17.6492 37.9734 16.9515Z" fill="#FF9900"/>
</g>
<defs>
<clipPath id="clip0_5747_16613">
<rect width="40" height="23.9203" fill="white" transform="translate(0 0.0397949)"/>
</clipPath>
</defs>
</svg>
