<svg width="32" height="32" viewBox="0 0 32 32" fill="none" xmlns="http://www.w3.org/2000/svg">
<g clip-path="url(#clip0_5690_822)">
<path d="M26.6668 21.8775H26.2741C26.0414 21.8775 25.8474 22.0665 25.8474 22.3041C25.8474 22.5417 26.0365 22.7308 26.2741 22.7308H26.6668C29.3092 22.7308 31.4571 20.5829 31.4571 17.9405C31.4571 16.0059 30.2935 14.275 28.5335 13.5332C28.5432 13.3829 28.548 13.2326 28.548 13.092C28.548 9.38291 25.5323 6.3623 21.8183 6.3623C19.5589 6.3623 17.4935 7.47261 16.2377 9.34412C15.9953 9.29564 15.7529 9.2714 15.5153 9.2714C13.4111 9.2714 11.6947 10.9829 11.6947 13.092C11.6947 13.1162 11.6947 13.1453 11.6947 13.1696C9.25106 13.3829 7.33105 15.4435 7.33105 17.9405C7.33105 20.5829 9.47893 22.7308 12.1214 22.7308H18.9723V24.3065H11.6365C11.4038 24.3065 11.2098 24.4956 11.2098 24.7332V26.7356H9.69712C9.46439 26.7356 9.27045 26.9247 9.27045 27.1623V31.0411C9.27045 31.2738 9.45954 31.4678 9.69712 31.4678H13.5759C13.8086 31.4678 14.0026 31.2787 14.0026 31.0411V27.1623C14.0026 26.9296 13.8135 26.7356 13.5759 26.7356H12.0583V25.1599H18.9674V26.7356H17.4547C17.222 26.7356 17.028 26.9247 17.028 27.1623V31.0411C17.028 31.2738 17.2171 31.4678 17.4547 31.4678H21.3335C21.5662 31.4678 21.7601 31.2787 21.7601 31.0411V27.1623C21.7601 26.9296 21.5711 26.7356 21.3335 26.7356H19.8159V25.1599H26.725V26.7356H25.2123C24.9795 26.7356 24.7856 26.9247 24.7856 27.1623V31.0411C24.7856 31.2738 24.9747 31.4678 25.2123 31.4678H29.0911C29.3238 31.4678 29.5177 31.2787 29.5177 31.0411V27.1623C29.5177 26.9296 29.3286 26.7356 29.0911 26.7356H27.5735V24.7235C27.5735 24.4908 27.3844 24.2969 27.1468 24.2969H19.8208V22.7211H24.5917C24.8244 22.7211 25.0183 22.532 25.0183 22.2944C25.0183 22.0569 24.8292 21.8678 24.5917 21.8678H12.1214C9.94924 21.8678 8.17954 20.0981 8.17954 17.9259C8.17954 15.7538 9.94439 13.9841 12.1068 13.9841C12.2426 13.9938 12.388 13.9405 12.4753 13.8387C12.5577 13.7465 12.5917 13.6205 12.5771 13.4993C12.5529 13.3344 12.5432 13.1987 12.5432 13.0726C12.5432 11.4338 13.8765 10.1005 15.5153 10.1005C15.782 10.1005 16.0535 10.1393 16.3201 10.212C16.5044 10.2653 16.6983 10.1878 16.7953 10.0229C17.8717 8.24837 19.7529 7.18655 21.8183 7.18655C25.062 7.18655 27.6995 9.82412 27.6995 13.0678C27.6995 13.2762 27.685 13.4993 27.6608 13.7417C27.6365 13.9405 27.7577 14.1247 27.9468 14.1926C29.542 14.7356 30.6135 16.2338 30.6135 17.9162C30.6086 20.1078 28.8389 21.8775 26.6668 21.8775ZM13.1541 30.6047H10.1238V27.5744H13.1541V30.6047ZM20.9117 30.6047H17.8814V27.5744H20.9117V30.6047ZM28.6692 30.6047H25.6389V27.5744H28.6692V30.6047Z" fill="#FFB216"/>
<path d="M24.3446 16.8943C24.5337 16.8458 24.6646 16.6761 24.6646 16.4822V14.5428C24.6646 14.3488 24.5337 14.1791 24.3446 14.1306L23.3749 13.8882C23.37 13.8737 23.3652 13.8591 23.3555 13.8446L23.8694 12.9864C23.9712 12.8215 23.9421 12.6034 23.8064 12.4676L22.4343 11.0955C22.2937 10.9597 22.0803 10.9306 21.9155 11.0325L21.0573 11.5464C21.0427 11.5415 21.0282 11.5318 21.0137 11.527L20.7712 10.5573C20.7227 10.3682 20.553 10.2373 20.3591 10.2373H18.4197C18.2258 10.2373 18.0561 10.3682 18.0076 10.5573L17.7652 11.527C17.7506 11.5318 17.7361 11.5367 17.7215 11.5464L16.8633 11.0325C16.6985 10.9355 16.4852 10.9597 16.3446 11.0955L14.9724 12.4676C14.8367 12.6034 14.8076 12.8167 14.9094 12.9864L15.4233 13.8446C15.4185 13.8591 15.4088 13.8737 15.404 13.8882L14.4343 14.1306C14.2452 14.1791 14.1143 14.3488 14.1143 14.5428V16.4822C14.1143 16.6761 14.2452 16.8458 14.4343 16.8943L15.404 17.1367C15.4088 17.1512 15.4185 17.1658 15.4233 17.1803L14.9094 18.0385C14.8076 18.2034 14.8367 18.4215 14.9724 18.5573L16.3446 19.9294C16.4852 20.0652 16.6985 20.0943 16.8633 19.9925L17.7215 19.4785C17.7361 19.4834 17.7506 19.4882 17.7652 19.4979L18.0076 20.4676C18.0561 20.6567 18.2258 20.7876 18.4197 20.7876H20.3591C20.553 20.7876 20.7227 20.6567 20.7712 20.4676L21.0137 19.4979C21.0282 19.4931 21.0427 19.4882 21.0573 19.4785L21.9155 19.9925C22.0803 20.0943 22.2937 20.0652 22.4343 19.9294L23.8064 18.5573C23.9421 18.4215 23.9712 18.2082 23.8694 18.0385L23.3555 17.1803C23.3603 17.1658 23.37 17.1512 23.3749 17.1367L24.3446 16.8943ZM22.5167 17.4228L22.9773 18.1888L22.0755 19.0906L21.3094 18.63C21.1882 18.5573 21.033 18.5476 20.907 18.6106C20.7858 18.6688 20.6549 18.7222 20.524 18.7706C20.3882 18.8191 20.2864 18.9306 20.2524 19.0664L20.0343 19.9294H18.7591L18.5409 19.0664C18.507 18.9258 18.4052 18.8143 18.2694 18.7658C18.1385 18.7222 18.0124 18.6688 17.8864 18.6058C17.7555 18.5428 17.6052 18.5476 17.484 18.6252L16.7179 19.0858L15.8161 18.184L16.2767 17.4179C16.3494 17.2967 16.3591 17.1415 16.2961 17.0155C16.2379 16.8943 16.1846 16.7682 16.1361 16.6373C16.0876 16.5015 15.9761 16.3997 15.8355 16.3658L14.9724 16.1525V14.8773L15.8355 14.6591C15.9761 14.6252 16.0876 14.5234 16.1361 14.3876C16.1797 14.2567 16.233 14.1306 16.2961 14.0094C16.3591 13.8785 16.3543 13.7282 16.2767 13.607L15.8161 12.8409L16.7179 11.9391L17.484 12.3997C17.6052 12.4725 17.7603 12.4822 17.8864 12.4191C18.0076 12.3609 18.1385 12.3076 18.2694 12.2591C18.4052 12.2106 18.507 12.0991 18.5409 11.9585L18.7591 11.0955H20.0343L20.2524 11.9585C20.2864 12.0991 20.3882 12.2106 20.524 12.2543C20.6549 12.2979 20.7809 12.3512 20.907 12.4143C21.0379 12.4773 21.1882 12.4676 21.3094 12.3949L22.0755 11.9343L22.9773 12.8361L22.5167 13.6022C22.444 13.7234 22.4343 13.8785 22.4973 14.0046C22.5555 14.1258 22.6088 14.2567 22.6573 14.3876C22.7058 14.5234 22.8173 14.6252 22.9579 14.6591L23.8209 14.8773V16.1525L22.9579 16.3658C22.8173 16.3997 22.7058 16.5015 22.6573 16.6373C22.6137 16.7682 22.5603 16.8943 22.4973 17.0203C22.4343 17.1512 22.444 17.3015 22.5167 17.4228Z" fill="#FFB216"/>
<path d="M19.3944 13.1562C18.0901 13.1562 17.0283 14.2181 17.0283 15.5223C17.0283 16.8266 18.0901 17.8884 19.3944 17.8884C20.6986 17.8884 21.7604 16.8266 21.7604 15.5223C21.7604 14.2181 20.6986 13.1562 19.3944 13.1562ZM19.3944 17.035C18.5604 17.035 17.8768 16.3563 17.8768 15.5175C17.8768 14.6787 18.5556 13.9999 19.3944 13.9999C20.2332 13.9999 20.912 14.6787 20.912 15.5175C20.912 16.3563 20.2283 17.035 19.3944 17.035Z" fill="#FFB216"/>
<path d="M7.32118 15.1389C7.04967 14.5425 6.83149 13.8492 6.65694 13.088C7.45209 12.7389 8.31512 12.5401 9.21209 12.5401C9.69209 12.5401 10.1721 12.5934 10.6424 12.7001C10.8654 12.7486 11.0982 12.608 11.1515 12.3801C11.2048 12.1522 11.0594 11.9243 10.8315 11.871C10.4388 11.7837 10.0412 11.7353 9.63876 11.711V9.62617H12.5527C12.7951 9.66011 13.0327 9.45647 13.0327 9.1995C13.0327 7.98253 12.926 6.83344 12.7369 5.79586C13.5757 5.33041 14.3272 4.69041 14.9285 3.90011C15.743 4.77768 16.3685 5.8395 16.7127 7.03708C16.766 7.22132 16.9357 7.34253 17.12 7.34253C17.1588 7.34253 17.1975 7.33768 17.2363 7.32799C17.4594 7.26496 17.5903 7.02738 17.5272 6.80435C17.1006 5.33041 16.2957 4.03586 15.2388 3.01283C15.2097 2.96435 15.166 2.92071 15.1175 2.88677C15.1127 2.88193 15.1079 2.88193 15.0982 2.88193C13.5321 1.42738 11.4424 0.549805 9.21209 0.549805C6.08482 0.549805 3.18543 2.24677 1.65331 4.97647C1.53694 5.18011 1.60967 5.43708 1.81331 5.55344C2.01694 5.6698 2.27876 5.59708 2.39028 5.39344C2.69573 4.84556 3.06906 4.35102 3.48603 3.90011C4.09209 4.68556 4.84846 5.33041 5.69209 5.80556C5.5224 6.72677 5.41573 7.72556 5.39634 8.78738H1.41088C1.45452 7.98738 1.60967 7.20193 1.89088 6.45041C1.97331 6.23223 1.86179 5.98496 1.64361 5.90253C1.42543 5.82011 1.17815 5.93162 1.09573 6.1498C0.732094 7.1292 0.547852 8.15708 0.547852 9.2092C0.547852 12.831 2.83634 16.1037 6.24482 17.345C6.29331 17.3643 6.34179 17.3692 6.39028 17.3692C6.56482 17.3692 6.72482 17.2625 6.78785 17.088C6.87028 16.8698 6.75391 16.6225 6.53573 16.545C5.63391 16.2153 4.81937 15.7256 4.11634 15.1195C4.60603 14.4601 5.2024 13.9171 5.88118 13.4953C6.06058 14.2274 6.28361 14.9013 6.55028 15.4831C6.623 15.6383 6.77331 15.7304 6.93815 15.7304C6.99634 15.7304 7.05452 15.7207 7.1127 15.6916C7.32118 15.5995 7.41815 15.3522 7.32118 15.1389ZM8.79028 11.7062C7.99028 11.7547 7.21452 11.934 6.49209 12.2298C6.35634 11.4104 6.26906 10.5328 6.24967 9.63586H8.79028V11.7062ZM12.1794 8.78738H9.63876V6.71223C10.4388 6.66374 11.2145 6.48435 11.9369 6.18859C12.0679 6.98374 12.1551 7.85162 12.1794 8.78738ZM11.7672 5.33041C11.0982 5.62617 10.3806 5.80071 9.63876 5.8492V1.49526C10.4679 1.8589 11.2872 3.25526 11.7672 5.33041ZM8.79028 1.49526V5.85405C8.04361 5.80556 7.32603 5.62617 6.66179 5.33526C7.13209 3.25526 7.95634 1.8589 8.79028 1.49526ZM12.543 4.91829C12.1988 3.53162 11.6945 2.38738 11.0836 1.62132C12.2812 1.92193 13.3866 2.50374 14.3079 3.2989C13.8182 3.95829 13.2218 4.50132 12.543 4.91829ZM4.11149 3.2892C5.0424 2.4892 6.14785 1.91708 7.34543 1.62132C6.72967 2.38738 6.22543 3.52677 5.88118 4.91829C5.2024 4.50132 4.60118 3.95344 4.11149 3.2892ZM8.79028 6.71223V8.78738H6.24967C6.26906 7.85162 6.35634 6.98374 6.49209 6.18859C7.21452 6.48435 7.98543 6.66374 8.79028 6.71223ZM3.49088 14.5231C2.26906 13.2043 1.5127 11.4831 1.41088 9.63586H5.39634C5.41573 10.6686 5.5224 11.6771 5.69209 12.6128C4.84846 13.088 4.09694 13.7328 3.49088 14.5231Z" fill="#FFB216"/>
</g>
<defs>
<clipPath id="clip0_5690_822">
<rect width="32" height="32" fill="white"/>
</clipPath>
</defs>
</svg>
