<svg width="32" height="32" viewBox="0 0 32 32" fill="none" xmlns="http://www.w3.org/2000/svg">
<g clip-path="url(#clip0_5690_827)">
<path d="M31.1084 13.4365L29.1203 12.7915C29.0203 12.759 28.959 12.694 28.9328 12.5909C28.6259 11.4278 28.1621 10.3096 27.554 9.2659C27.5009 9.17465 27.4984 9.08465 27.5471 8.98902L28.4953 7.12715C28.7528 6.62152 28.6603 6.03402 28.2596 5.63027L26.3684 3.74152C25.9728 3.3434 25.3709 3.24715 24.8721 3.50277L23.0078 4.45277C22.9146 4.50027 22.824 4.49777 22.7328 4.44465C21.6896 3.83652 20.5715 3.37277 19.4059 3.06527C19.3053 3.03902 19.2403 2.97777 19.2071 2.8759L18.5609 0.892148C18.3897 0.357773 17.8965 -0.000976562 17.3346 -0.000976562H14.6621C14.1003 -0.000976562 13.6078 0.357773 13.4371 0.890273L12.7903 2.87777C12.7578 2.9784 12.6934 3.03965 12.5921 3.0659C12.5915 3.0659 12.5903 3.06652 12.5896 3.06652C11.4265 3.37277 10.3084 3.83715 9.2659 4.44465C9.17465 4.49777 9.08402 4.5009 8.99027 4.45277L7.12777 3.50277C6.62652 3.24777 6.02465 3.34402 5.6309 3.74027L3.74027 5.63027C3.33777 6.03215 3.24465 6.61965 3.50277 7.12777L4.45152 8.98777C4.49965 9.0834 4.49715 9.17465 4.4434 9.26715C3.83402 10.3121 3.3709 11.4303 3.06652 12.5909C3.03902 12.694 2.97715 12.7596 2.87652 12.7921L0.887148 13.4371C0.355898 13.6115 -0.000976562 14.1046 -0.000976562 14.664V17.3371C-0.000976562 17.904 0.347773 18.3853 0.889023 18.5628L2.87402 19.2065C2.97652 19.2403 3.03965 19.3071 3.06652 19.4078C3.3709 20.569 3.83402 21.6878 4.44402 22.7334C4.49777 22.8259 4.5009 22.9159 4.4534 23.0096L3.5034 24.8721C3.24527 25.379 3.3384 25.9665 3.7409 26.369L5.63027 28.2584C6.02527 28.6565 6.62715 28.7521 7.12902 28.4971L8.99152 27.5471C9.08527 27.499 9.17527 27.5021 9.2659 27.5546C10.309 28.1646 11.4278 28.629 12.5903 28.9334C12.6934 28.9609 12.759 29.0228 12.7915 29.1234L13.4378 31.1071C13.609 31.6415 14.1021 32.0003 14.664 32.0003H17.3371C17.899 32.0003 18.3915 31.6415 18.5621 31.109L19.209 29.1221C19.2415 29.0215 19.3071 28.9596 19.409 28.9328C20.5728 28.6278 21.6915 28.164 22.7321 27.5553C22.8253 27.5015 22.9153 27.4984 23.009 27.5465L24.8721 28.4959C25.3721 28.7515 25.974 28.6559 26.3678 28.259L28.2615 26.3671C28.6615 25.9646 28.7534 25.3778 28.4959 24.8715L27.5478 23.009C27.4996 22.9146 27.5021 22.824 27.5559 22.7321C28.1653 21.6871 28.6284 20.569 28.9321 19.4096C28.9597 19.3071 29.0228 19.2403 29.1221 19.2078L31.1109 18.5628C31.6521 18.3859 32.0015 17.9053 32.0015 17.3378V14.6646C32.0003 14.104 31.6421 13.6109 31.1084 13.4365ZM30.9996 17.3371C30.9996 17.4678 30.9246 17.5696 30.8003 17.6103L28.8096 18.2559C28.3865 18.3959 28.079 18.7221 27.964 19.1534C27.6828 20.2271 27.254 21.2615 26.6909 22.2271C26.4646 22.614 26.4515 23.0646 26.6553 23.4634L27.6028 25.3253C27.6628 25.4428 27.6428 25.5684 27.5515 25.6603L25.6578 27.5521C25.5678 27.6428 25.4409 27.6628 25.3259 27.604L23.4628 26.6546C23.0665 26.4522 22.6171 26.4646 22.2278 26.6896C21.2634 27.254 20.229 27.6828 19.1528 27.9646C18.7203 28.079 18.3934 28.3884 18.2559 28.8128L17.6084 30.8009C17.5684 30.9247 17.4665 30.999 17.3353 30.999H14.6621C14.5309 30.999 14.429 30.9253 14.3884 30.799L13.7421 28.8134C13.6046 28.3884 13.2771 28.0796 12.8434 27.9646C11.7684 27.6828 10.734 27.254 9.7684 26.689C9.56465 26.5703 9.34277 26.5109 9.1209 26.5109C8.92215 26.5109 8.72215 26.559 8.53465 26.6546L6.6734 27.604C6.5559 27.664 6.4309 27.6446 6.3384 27.5509L4.44777 25.6603C4.35527 25.5678 4.33527 25.4421 4.39465 25.3259L5.34402 23.464C5.54777 23.0653 5.53402 22.6146 5.30777 22.2278C4.74402 21.2615 4.3159 20.2271 4.03402 19.1515C3.91965 18.7228 3.61152 18.3965 3.1859 18.2553L1.19965 17.6109C1.07465 17.5696 1.00027 17.4678 1.00027 17.3371V14.664C1.00027 14.5321 1.07465 14.4296 1.1984 14.389L3.1859 13.744C3.6109 13.6065 3.91965 13.279 4.03465 12.8453C4.3159 11.7715 4.74465 10.7371 5.30777 9.77152C5.5334 9.38652 5.54715 8.93652 5.34465 8.53465L4.39527 6.67277C4.3359 6.5559 4.35527 6.43027 4.4484 6.33777L6.34027 4.4459C6.43215 4.35402 6.55652 4.33402 6.6734 4.39402L8.53527 5.3434C8.93277 5.54652 9.38277 5.53402 9.76965 5.30902C10.7346 4.74652 11.769 4.31715 12.8446 4.03402C13.2778 3.92152 13.6053 3.61152 13.7421 3.1859L14.3896 1.19777C14.4296 1.07402 14.5315 0.999648 14.6628 0.999648H17.3359C17.4671 0.999648 17.569 1.0734 17.6096 1.19965L18.2559 3.18402C18.394 3.61215 18.7221 3.92215 19.154 4.0334C20.2296 4.31715 21.264 4.7459 22.2309 5.30965C22.6184 5.5334 23.0672 5.5459 23.4634 5.3434L25.3278 4.3934C25.4421 4.33527 25.569 4.35527 25.6603 4.44715L27.5509 6.3359C27.6434 6.42902 27.6634 6.55465 27.6034 6.67215L26.6559 8.5334C26.4515 8.93277 26.4646 9.3834 26.6903 9.76965C27.2528 10.7346 27.6821 11.769 27.9653 12.8421C28.0772 13.2759 28.3859 13.604 28.8128 13.7421L30.7996 14.3865C30.9253 14.4271 31.0003 14.5303 31.0003 14.6621V17.3371H30.9996ZM15.9996 7.69527C11.4203 7.69527 7.69527 11.4209 7.69527 15.9996C7.69527 20.5784 11.4203 24.304 15.9996 24.304C20.579 24.304 24.304 20.579 24.304 15.9996C24.304 11.4203 20.579 7.69527 15.9996 7.69527ZM15.9996 23.3034C11.9721 23.3034 8.6959 20.0271 8.6959 15.9996C8.6959 11.9721 11.9721 8.6959 15.9996 8.6959C20.0271 8.6959 23.3034 11.9721 23.3034 15.9996C23.3034 20.0271 20.0271 23.3034 15.9996 23.3034ZM19.3046 11.0053C18.4115 10.579 17.2378 10.344 15.9996 10.344C14.7609 10.344 13.5865 10.579 12.6934 11.0053C11.6821 11.4878 11.1253 12.1728 11.1253 12.9334V19.0684C11.1253 20.5446 13.2209 21.6578 16.0003 21.6578C18.7784 21.6578 20.8734 20.5446 20.8734 19.0684V12.9334C20.8728 12.1728 20.3159 11.4878 19.3046 11.0053ZM19.8715 16.014C19.8715 16.764 18.2159 17.6021 15.9996 17.6021C13.7828 17.6021 12.1259 16.7634 12.1259 16.014V14.5353C12.2953 14.6515 12.484 14.7603 12.6934 14.8603C13.5871 15.2871 14.7615 15.5221 15.9996 15.5221C17.2371 15.5221 18.4109 15.2871 19.3046 14.8603C19.514 14.7603 19.7022 14.6515 19.8715 14.5353V16.014ZM15.9996 11.3446C18.2159 11.3446 19.8715 12.1834 19.8715 12.9328C19.8715 13.6821 18.2159 14.5209 15.9996 14.5209C13.7828 14.5209 12.1259 13.6821 12.1259 12.9328C12.1259 12.1834 13.7828 11.3446 15.9996 11.3446ZM15.9996 20.6565C13.7828 20.6565 12.1259 19.8178 12.1259 19.0684V17.6228C13.0021 18.2271 14.3853 18.6034 15.9996 18.6034C17.6134 18.6034 18.9959 18.2271 19.8715 17.6228V19.0684C19.8715 19.8178 18.2159 20.6565 15.9996 20.6565Z" fill="#FFB216"/>
</g>
<defs>
<clipPath id="clip0_5690_827">
<rect width="32" height="32" fill="white"/>
</clipPath>
</defs>
</svg>
