<svg width="32" height="32" viewBox="0 0 32 32" fill="none" xmlns="http://www.w3.org/2000/svg">
<path d="M15.2637 5.7942C14.5773 5.7942 14.0183 6.3533 14.0183 7.03964C14.0183 7.72601 14.5774 8.28508 15.2637 8.28508C15.95 8.28508 16.5091 7.72598 16.5091 7.03964C16.5091 6.35327 15.9512 5.7942 15.2637 5.7942ZM15.2637 7.57715C14.9671 7.57715 14.7262 7.33624 14.7262 7.03964C14.7262 6.74306 14.9671 6.50212 15.2637 6.50212C15.5603 6.50212 15.8012 6.74303 15.8012 7.03964C15.8023 7.33622 15.5603 7.57715 15.2637 7.57715ZM12.3773 5.7942C11.691 5.7942 11.1319 6.3533 11.1319 7.03964C11.1319 7.72601 11.691 8.28508 12.3773 8.28508C13.0637 8.28508 13.6228 7.72598 13.6228 7.03964C13.6228 6.35327 13.0648 5.7942 12.3773 5.7942ZM12.3773 7.57715C12.0807 7.57715 11.8398 7.33624 11.8398 7.03964C11.8398 6.74306 12.0807 6.50212 12.3773 6.50212C12.6739 6.50212 12.9148 6.74303 12.9148 7.03964C12.916 7.33622 12.6739 7.57715 12.3773 7.57715ZM8.60918 6.37488C8.60918 6.57034 8.45123 6.72828 8.25578 6.72828H4.51818C4.32273 6.72828 4.16479 6.57032 4.16479 6.37488C4.16479 6.17944 4.32274 6.02148 4.51818 6.02148H8.25578C8.45124 6.02148 8.60918 6.17944 8.60918 6.37488ZM8.60918 7.70442C8.60918 7.89988 8.45123 8.05782 8.25578 8.05782H4.51818C4.32273 8.05782 4.16479 7.89986 4.16479 7.70442C4.16479 7.50898 4.32274 7.35103 4.51818 7.35103H8.25578C8.45124 7.35103 8.60918 7.50898 8.60918 7.70442ZM17.7501 16.3238V12.1236C17.7501 11.6873 17.3956 11.3327 16.9592 11.3327H15.9922V9.93043H16.9592C17.3956 9.93043 17.7501 9.57587 17.7501 9.13951V4.93936C17.7501 4.503 17.3956 4.14844 16.9592 4.14844H3.15469C2.71833 4.14844 2.36377 4.503 2.36377 4.93936V9.13951C2.36377 9.57587 2.71833 9.93043 3.15469 9.93043H4.12173V11.3327H3.15469C2.71833 11.3327 2.36377 11.6873 2.36377 12.1236V16.3238C2.36377 16.7601 2.71833 17.1147 3.15469 17.1147H16.9592C17.3956 17.1147 17.7501 16.7601 17.7501 16.3238ZM3.07056 9.13977V4.93962C3.07056 4.89417 3.1092 4.85667 3.15352 4.85667H16.958C17.0035 4.85667 17.041 4.8953 17.041 4.93962V9.13977C17.041 9.18522 17.0023 9.22272 16.958 9.22272H3.15468C3.10923 9.22272 3.07056 9.18522 3.07056 9.13977ZM4.82853 9.93069H15.2853V11.333H4.82853V9.93069ZM3.07056 16.324V12.1239C3.07056 12.0784 3.1092 12.0409 3.15352 12.0409H16.958C17.0035 12.0409 17.041 12.0795 17.041 12.1239V16.324C17.041 16.3695 17.0023 16.407 16.958 16.407H3.15468C3.10923 16.407 3.07056 16.3695 3.07056 16.324ZM15.2637 12.9785C14.5774 12.9785 14.0183 13.5376 14.0183 14.224C14.0183 14.9103 14.5774 15.4694 15.2637 15.4694C15.9501 15.4694 16.5092 14.9103 16.5092 14.224C16.5092 13.5376 15.9512 12.9785 15.2637 12.9785ZM15.2637 14.7615C14.9671 14.7615 14.7262 14.5206 14.7262 14.224C14.7262 13.9274 14.9671 13.6865 15.2637 13.6865C15.5603 13.6865 15.8012 13.9274 15.8012 14.224C15.8024 14.5206 15.5603 14.7615 15.2637 14.7615ZM12.3774 12.9785C11.691 12.9785 11.1319 13.5376 11.1319 14.224C11.1319 14.9103 11.691 15.4694 12.3774 15.4694C13.0637 15.4694 13.6228 14.9103 13.6228 14.224C13.6228 13.5376 13.0648 12.9785 12.3774 12.9785ZM12.3774 14.7615C12.0808 14.7615 11.8398 14.5206 11.8398 14.224C11.8398 13.9274 12.0807 13.6865 12.3774 13.6865C12.674 13.6865 12.9149 13.9274 12.9149 14.224C12.916 14.5206 12.674 14.7615 12.3774 14.7615ZM8.60921 13.5592C8.60921 13.7547 8.45125 13.9126 8.25581 13.9126H4.51821C4.32276 13.9126 4.16482 13.7547 4.16482 13.5592C4.16482 13.3638 4.32277 13.2058 4.51821 13.2058H8.25581C8.45127 13.2058 8.60921 13.3638 8.60921 13.5592ZM8.60921 14.8888C8.60921 15.0842 8.45125 15.2422 8.25581 15.2422H4.51821C4.32276 15.2422 4.16482 15.0842 4.16482 14.8888C4.16482 14.6933 4.32277 14.5354 4.51821 14.5354H8.25581C8.45127 14.5354 8.60921 14.6933 8.60921 14.8888ZM27.0866 24.5854C27.0343 24.449 26.9025 24.3592 26.757 24.3592L15.4401 24.3581C15.3231 24.3581 15.214 24.416 15.1481 24.5115C15.0822 24.6081 15.0674 24.7297 15.1094 24.8388L17.4185 30.8263C17.4708 30.9626 17.6026 31.0524 17.7481 31.0524H29.065C29.182 31.0524 29.2911 30.9944 29.357 30.899C29.423 30.8024 29.4377 30.6808 29.3957 30.5717L27.0866 24.5854ZM17.991 30.3468L15.9547 25.0662H26.5126L28.549 30.3468H17.991ZM29.4194 21.216V27.4944C29.4194 27.6899 29.2614 27.8478 29.066 27.8478C28.8705 27.8478 28.7126 27.6899 28.7126 27.4944L28.7115 21.216C28.7115 21.1274 28.6365 21.0524 28.5478 21.0524H23.5899L22.3228 22.849C22.2569 22.9433 22.1489 22.999 22.0342 22.999H18.1022V23.8501C18.1022 24.0456 17.9443 24.2035 17.7488 24.2035C17.5534 24.2035 17.3954 24.0456 17.3954 23.8501V22.6456C17.3954 22.4502 17.5534 22.2922 17.7488 22.2922H21.8512L23.1183 20.4956C23.1842 20.4013 23.2922 20.3456 23.4069 20.3456H28.5479C29.0286 20.3445 29.4194 20.7353 29.4194 21.216ZM29.6046 11.9957C29.5478 11.8695 29.4217 11.7877 29.283 11.7877H27.8864C27.7023 8.41842 24.9023 5.73333 21.4864 5.73333C21.3251 5.73333 21.1841 5.84242 21.1444 5.9981C21.1046 6.15378 21.1739 6.31743 21.3148 6.39583C23.2751 7.4822 24.3999 9.57431 24.2399 11.7878H22.8195C22.6808 11.7878 22.5547 11.8685 22.4979 11.9958C22.441 12.1219 22.4626 12.2708 22.5535 12.3753L25.7853 16.0696C25.8523 16.1457 25.95 16.19 26.0512 16.19C26.1534 16.19 26.25 16.1457 26.3171 16.0696L29.5488 12.3753C29.6397 12.2708 29.6626 12.123 29.6046 11.9957ZM26.0512 15.3001L23.5989 12.4967H24.5603C24.7387 12.4967 24.8887 12.3638 24.9114 12.1876C25.0693 10.9319 24.8546 9.66602 24.2887 8.5274C23.9216 7.78989 23.4227 7.13764 22.8159 6.59786C25.3205 7.199 27.1874 9.45695 27.1874 12.1423C27.1874 12.3378 27.3454 12.4957 27.5408 12.4957H28.5022L26.0512 15.3001ZM11.9011 28.9298C9.94082 27.8434 8.81596 25.7513 8.97596 23.5378H10.3964C10.5351 23.5378 10.6612 23.4571 10.718 23.3298C10.7748 23.2037 10.7532 23.0548 10.6623 22.9503L7.43179 19.256C7.36474 19.1799 7.26701 19.1356 7.16588 19.1356C7.06361 19.1356 6.96702 19.1799 6.89997 19.256L3.66826 22.9503C3.57735 23.0548 3.55576 23.2026 3.61258 23.3298C3.6694 23.456 3.79553 23.5378 3.93418 23.5378H5.33077C5.51486 26.9071 8.31492 29.5922 11.7296 29.5922C11.891 29.5922 12.0319 29.4831 12.0717 29.3274C12.1126 29.1706 12.0431 29.0071 11.9011 28.9298ZM6.02818 23.1832C6.02818 22.9877 5.87023 22.8298 5.67479 22.8298H4.71342L7.1657 20.0264L9.61797 22.8298H8.6566C8.4782 22.8298 8.3282 22.9627 8.30548 23.1389C8.14752 24.3945 8.36229 25.6605 8.9282 26.7991C9.29524 27.5366 9.79412 28.1888 10.4009 28.7286C7.89637 28.1275 6.02818 25.8694 6.02818 23.1832Z" fill="#FFB216"/>
</svg>
