<svg width="32" height="32" viewBox="0 0 32 32" fill="none" xmlns="http://www.w3.org/2000/svg">
<g clip-path="url(#clip0_5690_813)">
<path d="M21.7538 11.5088C19.7273 11.5088 17.7463 12.1097 16.0614 13.2356C14.3764 14.3615 13.0632 15.9617 12.2877 17.834C11.5122 19.7062 11.3093 21.7664 11.7047 23.7539C12.1001 25.7415 13.076 27.5671 14.509 29C15.942 30.4329 17.7678 31.4087 19.7553 31.804C21.7429 32.1993 23.8031 31.9963 25.6753 31.2207C27.5475 30.4451 29.1476 29.1317 30.2734 27.4467C31.3991 25.7616 31.9999 23.7806 31.9998 21.7541C31.9968 19.0377 30.9163 16.4334 28.9955 14.5127C27.0746 12.5919 24.4702 11.5116 21.7538 11.5088ZM21.7538 30.6668C19.9911 30.6668 18.2679 30.1441 16.8022 29.1647C15.3365 28.1854 14.1942 26.7934 13.5196 25.1649C12.845 23.5363 12.6685 21.7442 13.0124 20.0153C13.3563 18.2865 14.2052 16.6984 15.4516 15.4519C16.6981 14.2055 18.2862 13.3566 20.015 13.0127C21.7439 12.6688 23.536 12.8453 25.1645 13.5199C26.7931 14.1945 28.1851 15.3368 29.1644 16.8025C30.1438 18.2682 30.6665 19.9914 30.6665 21.7541C30.6638 24.1171 29.724 26.3825 28.0531 28.0534C26.3822 29.7243 24.1168 30.6641 21.7538 30.6668Z" fill="#FFB216"/>
<path d="M20.6305 18.5101H22.6125C22.9545 18.5102 23.2824 18.6462 23.5242 18.8881C23.766 19.13 23.9018 19.4581 23.9018 19.8001C23.9018 19.9769 23.9721 20.1465 24.0971 20.2715C24.2221 20.3965 24.3917 20.4667 24.5685 20.4667C24.7453 20.4667 24.9149 20.3965 25.0399 20.2715C25.1649 20.1465 25.2351 19.9769 25.2351 19.8001C25.2343 19.1048 24.9576 18.4383 24.466 17.9468C23.9743 17.4552 23.3077 17.1788 22.6125 17.1781H22.2885V15.5387C22.2885 15.3619 22.2182 15.1924 22.0932 15.0673C21.9682 14.9423 21.7986 14.8721 21.6218 14.8721C21.445 14.8721 21.2754 14.9423 21.1504 15.0673C21.0254 15.1924 20.9551 15.3619 20.9551 15.5387V17.1767H20.6305C19.9351 17.1767 19.2682 17.453 18.7764 17.9447C18.2847 18.4364 18.0085 19.1033 18.0085 19.7987C18.0085 20.4941 18.2847 21.161 18.7764 21.6528C19.2682 22.1445 19.9351 22.4207 20.6305 22.4207H22.6125C22.7842 22.4168 22.955 22.4473 23.1148 22.5103C23.2746 22.5733 23.4202 22.6677 23.5431 22.7877C23.6659 22.9078 23.7635 23.0512 23.8302 23.2096C23.8968 23.3679 23.9311 23.538 23.9311 23.7097C23.9311 23.8815 23.8968 24.0516 23.8302 24.2099C23.7635 24.3682 23.6659 24.5117 23.5431 24.6317C23.4202 24.7518 23.2746 24.8461 23.1148 24.9092C22.955 24.9722 22.7842 25.0026 22.6125 24.9987H20.6305C20.2887 24.9986 19.961 24.8628 19.7192 24.6211C19.4775 24.3795 19.3415 24.0519 19.3411 23.7101C19.3411 23.5333 19.2709 23.3637 19.1459 23.2387C19.0209 23.1136 18.8513 23.0434 18.6745 23.0434C18.4977 23.0434 18.3281 23.1136 18.2031 23.2387C18.0781 23.3637 18.0078 23.5333 18.0078 23.7101C18.0083 24.4055 18.2848 25.0724 18.7765 25.5642C19.2682 26.0561 19.935 26.3327 20.6305 26.3334H20.9551V27.9714C20.9551 28.1482 21.0254 28.3178 21.1504 28.4428C21.2754 28.5678 21.445 28.6381 21.6218 28.6381C21.7986 28.6381 21.9682 28.5678 22.0932 28.4428C22.2182 28.3178 22.2885 28.1482 22.2885 27.9714V26.3334H22.6125C22.9604 26.339 23.3059 26.2752 23.6289 26.1459C23.9519 26.0166 24.246 25.8244 24.494 25.5803C24.7419 25.3362 24.9389 25.0453 25.0733 24.7244C25.2077 24.4035 25.277 24.059 25.277 23.7111C25.277 23.3631 25.2077 23.0187 25.0733 22.6978C24.9389 22.3769 24.7419 22.0859 24.494 21.8418C24.246 21.5978 23.9519 21.4055 23.6289 21.2762C23.3059 21.1469 22.9604 21.0832 22.6125 21.0887H20.6305C20.2887 21.0887 19.9609 20.953 19.7193 20.7113C19.4776 20.4696 19.3418 20.1418 19.3418 19.8001C19.3418 19.4583 19.4776 19.1305 19.7193 18.8888C19.9609 18.6472 20.2887 18.5114 20.6305 18.5114V18.5101Z" fill="#FFB216"/>
<path d="M10.318 18.2933H10.702C10.7895 18.2924 10.8761 18.2742 10.9566 18.2398C11.0371 18.2054 11.11 18.1555 11.1713 18.0929C11.2325 18.0303 11.2808 17.9563 11.3134 17.875C11.346 17.7938 11.3623 17.7069 11.3613 17.6193C11.3538 17.4445 11.28 17.2791 11.1549 17.1566C11.0299 17.0342 10.863 16.9639 10.688 16.96H10.318C4.74467 16.96 1.33333 15.5927 1.33333 14.848V13.8073C3.23 14.9207 6.86667 15.4433 10.318 15.4433C10.9573 15.4433 11.5947 15.4253 12.2127 15.3907C12.3895 15.3808 12.5551 15.301 12.6731 15.169C12.7912 15.037 12.8519 14.8635 12.842 14.6867C12.8321 14.5099 12.7524 14.3442 12.6203 14.2262C12.4883 14.1082 12.3148 14.0474 12.138 14.0573C11.544 14.0907 10.932 14.108 10.318 14.108C4.74467 14.11 1.33333 12.742 1.33333 12V10.9567C3.23 12.07 6.86667 12.5927 10.318 12.5927C15.2873 12.5927 20.636 11.514 20.636 9.14667V3.44533C20.636 1.078 15.2873 0 10.318 0C5.34867 0 0 1.078 0 3.44533V20.6207C0 22.988 5.348 24.0667 10.318 24.0667H10.5907C10.7675 24.0667 10.937 23.9964 11.0621 23.8714C11.1871 23.7464 11.2573 23.5768 11.2573 23.4C11.2573 23.2232 11.1871 23.0536 11.0621 22.9286C10.937 22.8036 10.7675 22.7333 10.5907 22.7333H10.318C4.74467 22.7333 1.33333 21.3653 1.33333 20.6207V19.5087C3.23 20.6213 6.86667 21.144 10.318 21.144C10.4948 21.144 10.6644 21.0738 10.7894 20.9487C10.9144 20.8237 10.9847 20.6541 10.9847 20.4773C10.9847 20.3005 10.9144 20.131 10.7894 20.0059C10.6644 19.8809 10.4948 19.8107 10.318 19.8107C4.74467 19.8107 1.33333 18.4433 1.33333 17.6987V16.658C3.23 17.7713 6.86667 18.2933 10.318 18.2933ZM19.3027 6.29333C19.3027 7.03867 15.8913 8.406 10.318 8.406C4.74467 8.406 1.33333 7.04133 1.33333 6.296V5.256C3.23 6.36867 6.86667 6.89133 10.318 6.89133C13.7693 6.89133 17.4053 6.36867 19.3027 5.25533V6.29333ZM10.318 11.2593C4.74467 11.2593 1.33333 9.89133 1.33333 9.14667V8.106C3.23 9.21933 6.86667 9.742 10.318 9.742C13.7693 9.742 17.4053 9.21933 19.3027 8.106V9.14667C19.3027 9.89133 15.8913 11.2593 10.318 11.2593ZM10.318 1.33333C15.8913 1.33333 19.3027 2.70067 19.3027 3.44533C19.3027 4.19 15.8913 5.558 10.318 5.558C4.74467 5.558 1.33333 4.19067 1.33333 3.44533C1.33333 2.7 4.74467 1.33333 10.318 1.33333Z" fill="#FFB216"/>
</g>
<defs>
<clipPath id="clip0_5690_813">
<rect width="32" height="32" fill="white"/>
</clipPath>
</defs>
</svg>
