<svg width="32" height="32" viewBox="0 0 32 32" fill="none" xmlns="http://www.w3.org/2000/svg">
<g clip-path="url(#clip0_5690_820)">
<path d="M31.6409 17.906C31.3887 17.635 31.0315 17.4795 30.6611 17.4795H28.0666V17.2253C28.0666 14.6343 25.9587 12.5264 23.3677 12.5264C20.7768 12.5264 18.6689 14.6343 18.6689 17.2253V17.4795H16.0745C15.7041 17.4795 15.3469 17.635 15.0947 17.906C14.8423 18.177 14.7126 18.5442 14.739 18.9136L15.2524 26.1238H0.937499V9.6643C0.937499 9.27929 1.25073 8.9663 1.63574 8.9663H4.33935V10.572C4.33935 10.9656 4.65942 11.2856 5.05298 11.2856H6.37426C6.76782 11.2856 7.08813 10.9656 7.08813 10.572V8.9663H14.5825V10.572C14.5825 10.9656 14.9026 11.2856 15.2961 11.2856H16.6177C17.0112 11.2856 17.3313 10.9656 17.3313 10.572V8.9663H20.0351C20.4199 8.9663 20.7334 9.27929 20.7334 9.6643V11.6418C20.7334 11.9006 20.9431 12.1106 21.2021 12.1106C21.4609 12.1106 21.6709 11.9006 21.6709 11.6418V9.6643C21.6709 8.76245 20.937 8.0288 20.0351 8.0288H17.3313V3.59424C17.3313 1.85351 15.9153 0.4375 14.1746 0.4375H7.49585C5.75537 0.4375 4.33935 1.85351 4.33935 3.59424V5.86157C4.33935 6.1206 4.54907 6.33032 4.8081 6.33032C5.06689 6.33032 5.27685 6.1206 5.27685 5.86157V3.59424C5.27685 2.3706 6.27221 1.375 7.49585 1.375H14.1746C15.3982 1.375 16.3938 2.3706 16.3938 3.59424V10.3481H15.52V8.50707C15.52 8.5039 15.52 8.50073 15.52 8.49731C15.52 8.49413 15.52 8.49096 15.52 8.48779V3.98047C15.52 3.02563 14.7429 2.24878 13.7881 2.24878H7.88232C6.92749 2.24878 6.15039 3.02563 6.15039 3.98047V10.3481H5.27685V8.50707C5.27685 8.5039 5.27685 8.50073 5.27685 8.49731C5.27685 8.49413 5.27685 8.49096 5.27685 8.48779V7.73657C5.27685 7.47778 5.06689 7.26782 4.8081 7.26782C4.54907 7.26782 4.33935 7.47778 4.33935 7.73657V8.02856H1.63574C0.733642 8.02856 0 8.76245 0 9.6643V28.2124C0 29.1142 0.733642 29.8481 1.63574 29.8481H15.5176L15.5415 30.1843C15.5957 30.9438 16.2344 31.5386 16.9956 31.5386H29.74C30.5012 31.5386 31.1399 30.9438 31.1941 30.1843L31.4538 26.5351C31.4724 26.2771 31.2778 26.0527 31.0195 26.0344C30.7629 26.0159 30.5371 26.2104 30.5188 26.4685L30.259 30.1179C30.2395 30.3889 30.0117 30.6011 29.74 30.6011H16.9956C16.7241 30.6011 16.4961 30.3889 16.4768 30.1179L16.4226 29.3564C16.4224 29.3493 16.4216 29.3423 16.4211 29.3352L16.2248 26.5793C16.2244 26.5657 16.2234 26.552 16.2219 26.5386L15.6743 18.8467C15.6663 18.7344 15.7041 18.6272 15.781 18.5447C15.8577 18.4624 15.9619 18.417 16.0747 18.417H18.6689V19.2019C18.0134 19.4028 17.5354 20.0139 17.5354 20.7344C17.5354 21.6181 18.2541 22.3369 19.1377 22.3369C20.0215 22.3369 20.7402 21.6181 20.7402 20.7344C20.7402 20.0139 20.2622 19.4028 19.6064 19.2019V18.417H27.1291V19.2019C26.4736 19.4028 25.9956 20.0139 25.9956 20.7344C25.9956 21.6181 26.7143 22.3369 27.5979 22.3369C28.4817 22.3369 29.2004 21.6181 29.2004 20.7344C29.2004 20.0139 28.7224 19.4028 28.0666 19.2019V18.417H30.6611C30.7739 18.417 30.8782 18.4624 30.9548 18.5447C31.0317 18.6272 31.0696 18.7344 31.0615 18.8469L30.6516 24.603C30.6333 24.8613 30.8276 25.0857 31.0859 25.104C31.3435 25.1233 31.5683 24.928 31.5869 24.6697L31.9966 18.9136C32.0229 18.5442 31.8933 18.1767 31.6409 17.906ZM7.88232 3.18628H13.7881C14.2261 3.18628 14.5825 3.54248 14.5825 3.98047V8.0288H7.08789V3.98047C7.08789 3.54248 7.44433 3.18628 7.88232 3.18628ZM1.63574 28.9106C1.25073 28.9106 0.937499 28.5974 0.937499 28.2124V27.0613H15.3193L15.4509 28.9106H1.63574ZM19.8027 20.7344C19.8027 21.1011 19.5044 21.3994 19.1377 21.3994C18.771 21.3994 18.4729 21.1011 18.4729 20.7344C18.4729 20.5224 18.5725 20.3332 18.7275 20.2114C18.8074 20.3557 18.9612 20.4531 19.1377 20.4531C19.3142 20.4531 19.468 20.3557 19.5478 20.2114C19.7029 20.3332 19.8027 20.5224 19.8027 20.7344ZM28.2629 20.7344C28.2629 21.1011 27.9646 21.3994 27.5979 21.3994C27.2312 21.3994 26.9328 21.1011 26.9328 20.7344C26.9328 20.5224 27.0327 20.3332 27.1877 20.2114C27.2676 20.3557 27.4214 20.4531 27.5979 20.4531C27.7744 20.4531 27.9282 20.3557 28.008 20.2114C28.1631 20.3332 28.2629 20.5224 28.2629 20.7344ZM21.6706 17.4795V15.7876C21.6706 15.5286 21.4609 15.3188 21.2019 15.3188C20.9429 15.3188 20.7331 15.5286 20.7331 15.7876V17.4795H19.6064V17.2253C19.6064 15.1514 21.2937 13.4639 23.3679 13.4639C25.4419 13.4639 27.1291 15.1514 27.1291 17.2253V17.4795H21.6706Z" fill="#FFB216"/>
</g>
<defs>
<clipPath id="clip0_5690_820">
<rect width="32" height="32" fill="white"/>
</clipPath>
</defs>
</svg>
