<svg width="32" height="32" viewBox="0 0 32 32" fill="none" xmlns="http://www.w3.org/2000/svg">
<g clip-path="url(#clip0_5690_829)">
<path d="M10.5433 9.1499C6.92715 9.1499 3.99561 12.0814 3.99561 15.6976C3.99561 19.3138 6.92715 22.2454 10.5433 22.2454C14.1595 22.2454 17.0911 19.3138 17.0911 15.6976C17.0911 12.0814 14.1595 9.1499 10.5433 9.1499ZM15.3891 13.2422H13.0294C12.8037 12.1114 12.4512 11.1974 12.0913 10.4922C13.5333 10.9225 14.717 11.9224 15.3891 13.2422ZM12.1803 15.6976C12.1803 16.1848 12.1438 16.6323 12.0936 17.0617H8.99323C8.94289 16.6323 8.90634 16.1847 8.90634 15.6976C8.90634 15.2103 8.94228 14.7629 8.99214 14.3335H12.0947C12.1443 14.7629 12.1803 15.2104 12.1803 15.6976ZM10.3846 10.2572C10.4384 10.2556 10.489 10.2412 10.5433 10.2412C10.5982 10.2412 10.6491 10.2559 10.7037 10.2574C11.1132 10.8857 11.6112 11.8795 11.9127 13.2422H9.17411C9.47708 11.8748 9.97689 10.8814 10.3846 10.2572ZM8.99541 10.4922C8.63679 11.1959 8.28403 12.1109 8.05813 13.2422H5.69754C6.36977 11.9224 7.55348 10.9228 8.99541 10.4922ZM5.08689 15.6976C5.08689 15.2239 5.16656 14.7721 5.2806 14.3335H7.89239C7.84683 14.7657 7.81512 15.2151 7.81512 15.6976C7.81512 16.1804 7.84765 16.6293 7.89396 17.0617H5.2806C5.16656 16.6232 5.08689 16.1714 5.08689 15.6976ZM5.69754 18.153H8.06079C8.28887 19.2864 8.64184 20.2083 8.99384 20.9026C7.55266 20.472 6.3695 19.4724 5.69754 18.153ZM10.7018 21.1381C10.648 21.1398 10.5977 21.1541 10.5433 21.1541C10.489 21.1541 10.4386 21.1397 10.3846 21.1381C9.99346 20.5365 9.48404 19.5405 9.17554 18.153H11.9113C11.6032 19.5396 11.0943 20.5352 10.7018 21.1381ZM12.0934 20.9026C12.4459 20.2076 12.7986 19.2865 13.0262 18.153H15.3891C14.7172 19.4723 13.5342 20.4718 12.0934 20.9026ZM13.193 17.0617C13.2391 16.6293 13.2716 16.1804 13.2716 15.6976C13.2716 15.2151 13.2401 14.7657 13.1946 14.3335H15.8061C15.9201 14.7721 15.9998 15.2239 15.9998 15.6976C15.9998 16.1714 15.9201 16.6232 15.8061 17.0617H13.193Z" fill="#FFB216"/>
<path d="M15.9998 25.519H5.08691V26.6103H15.9998V25.519Z" fill="#FFB216"/>
<path d="M23.5973 17.658L23.0322 19.7661L24.0863 20.0486L24.6514 17.9405L23.5973 17.658Z" fill="#FFB216"/>
<path d="M22.4672 21.8726L20.4902 29.251L21.5443 29.5334L23.5212 22.1551L22.4672 21.8726Z" fill="#FFB216"/>
<path d="M29.6599 3.4643L17.0108 0.0748897C16.8216 0.024213 16.6316 0 16.4446 0C15.481 6.82056e-05 14.5991 0.643178 14.3378 1.61824L13.197 5.87604H1.81346C1.21079 5.87604 0.722168 6.3646 0.722168 6.96733V28.7931C0.722168 29.3958 1.21079 29.8844 1.81346 29.8844H14.4179L22.034 31.9251C22.2232 31.9758 22.4131 32 22.6002 32C23.5639 32 24.4457 31.3568 24.7071 30.3818L31.2034 6.13734C31.5154 4.97307 30.8243 3.77627 29.6599 3.4643ZM1.81346 28.7931V6.96733H18.1828C18.7846 6.96733 19.2741 7.45691 19.2741 8.05862V27.7018C19.2741 28.3035 18.7846 28.7931 18.1828 28.7931H1.81346ZM30.1494 5.8549L23.6531 30.0993C23.5252 30.5759 23.0923 30.9088 22.6001 30.9088C22.5053 30.9088 22.4099 30.8961 22.3164 30.871L18.511 29.8513C19.5593 29.6921 20.3653 28.7948 20.3653 27.7019V19.0504L20.9242 19.2002L21.4893 17.092L20.4351 16.8095L20.3653 17.0703V8.39808C20.7055 8.48927 21.0982 8.59451 21.479 8.69655L22.7695 12.9159L23.673 13.158L23.5875 9.26149C24.1808 9.42055 24.7867 9.58281 25.1836 9.68921L25.8851 10.9263L26.4875 11.0876L26.3839 9.36524L27.3348 7.92535L26.7324 7.76397L25.5066 8.48457C25.1093 8.37823 24.5037 8.2159 23.9101 8.05685L25.9326 4.72528L25.0291 4.48315L21.8018 7.49197C21.1672 7.32193 20.4748 7.13628 20.0996 7.03588C19.732 6.34878 19.0161 5.87611 18.1827 5.87611H14.3264L15.3916 1.90082C15.5195 1.42427 15.9525 1.09143 16.4446 1.09136C16.5394 1.09136 16.6348 1.10404 16.7283 1.12914L29.3775 4.51855C29.6591 4.59399 29.8944 4.77459 30.0401 5.02702C30.1859 5.27938 30.2248 5.57342 30.1494 5.8549Z" fill="#FFB216"/>
<path d="M23.3133 14.7742L23.0342 15.8291L24.0712 16.1035L24.3503 15.0486L23.3133 14.7742Z" fill="#FFB216"/>
<path d="M25.3846 15.324L25.1055 16.3789L26.1425 16.6533L26.4216 15.5984L25.3846 15.324Z" fill="#FFB216"/>
<path d="M21.242 14.2249L20.9629 15.2798L21.9999 15.5542L22.279 14.4993L21.242 14.2249Z" fill="#FFB216"/>
</g>
<defs>
<clipPath id="clip0_5690_829">
<rect width="32" height="32" fill="white"/>
</clipPath>
</defs>
</svg>
