<svg width="248" height="98" viewBox="0 0 248 98" fill="none" xmlns="http://www.w3.org/2000/svg">
<rect x="1" y="1" width="246" height="96" rx="15" fill="white"/>
<rect x="1" y="1" width="246" height="96" rx="15" fill="url(#paint0_linear_77_1901)" fill-opacity="0.2"/>
<rect x="1" y="1" width="246" height="96" rx="15" stroke="#C9D7E8" stroke-opacity="0.27" stroke-width="1.5"/>
<path d="M16.708 25.132C15.508 25.132 14.692 24.8 14.26 24.136C13.836 23.472 13.624 22.38 13.624 20.86C13.624 19.34 13.84 18.26 14.272 17.62C14.704 16.972 15.516 16.648 16.708 16.648C17.42 16.648 18.204 16.748 19.06 16.948L19.012 18.028C18.292 17.9 17.572 17.836 16.852 17.836C16.132 17.836 15.644 18.052 15.388 18.484C15.132 18.908 15.004 19.712 15.004 20.896C15.004 22.072 15.128 22.876 15.376 23.308C15.624 23.732 16.108 23.944 16.828 23.944C17.548 23.944 18.276 23.884 19.012 23.764L19.048 24.868C18.224 25.044 17.444 25.132 16.708 25.132ZM20.3193 25V19H21.6153V19.72C22.2953 19.28 22.9753 18.996 23.6553 18.868V20.176C22.9673 20.312 22.3793 20.488 21.8913 20.704L21.6273 20.812V25H20.3193ZM24.9324 19.648C25.3484 19.128 26.0364 18.868 26.9964 18.868C27.9564 18.868 28.6404 19.128 29.0484 19.648C29.4644 20.168 29.6724 20.948 29.6724 21.988C29.6724 23.028 29.4724 23.812 29.0724 24.34C28.6724 24.868 27.9804 25.132 26.9964 25.132C26.0124 25.132 25.3204 24.868 24.9204 24.34C24.5204 23.812 24.3204 23.028 24.3204 21.988C24.3204 20.948 24.5244 20.168 24.9324 19.648ZM25.9164 23.548C26.1004 23.868 26.4604 24.028 26.9964 24.028C27.5324 24.028 27.8924 23.868 28.0764 23.548C28.2604 23.228 28.3524 22.704 28.3524 21.976C28.3524 21.248 28.2524 20.732 28.0524 20.428C27.8604 20.124 27.5084 19.972 26.9964 19.972C26.4844 19.972 26.1284 20.124 25.9284 20.428C25.7364 20.732 25.6404 21.248 25.6404 21.976C25.6404 22.704 25.7324 23.228 25.9164 23.548ZM35.1357 20.236C34.1917 20.108 33.5077 20.044 33.0837 20.044C32.6597 20.044 32.3637 20.096 32.1957 20.2C32.0357 20.296 31.9557 20.452 31.9557 20.668C31.9557 20.884 32.0437 21.036 32.2197 21.124C32.4037 21.212 32.8277 21.316 33.4917 21.436C34.1637 21.548 34.6397 21.728 34.9197 21.976C35.1997 22.224 35.3397 22.664 35.3397 23.296C35.3397 23.928 35.1357 24.392 34.7277 24.688C34.3277 24.984 33.7397 25.132 32.9637 25.132C32.4757 25.132 31.8597 25.064 31.1157 24.928L30.7437 24.868L30.7917 23.776C31.7517 23.904 32.4437 23.968 32.8677 23.968C33.2917 23.968 33.5917 23.916 33.7677 23.812C33.9517 23.708 34.0437 23.536 34.0437 23.296C34.0437 23.056 33.9557 22.892 33.7797 22.804C33.6117 22.708 33.1997 22.608 32.5437 22.504C31.8957 22.392 31.4197 22.22 31.1157 21.988C30.8117 21.756 30.6597 21.332 30.6597 20.716C30.6597 20.1 30.8677 19.64 31.2837 19.336C31.7077 19.032 32.2477 18.88 32.9037 18.88C33.4157 18.88 34.0437 18.944 34.7877 19.072L35.1597 19.144L35.1357 20.236ZM40.7607 20.236C39.8167 20.108 39.1327 20.044 38.7087 20.044C38.2847 20.044 37.9887 20.096 37.8207 20.2C37.6607 20.296 37.5807 20.452 37.5807 20.668C37.5807 20.884 37.6687 21.036 37.8447 21.124C38.0287 21.212 38.4527 21.316 39.1167 21.436C39.7887 21.548 40.2647 21.728 40.5447 21.976C40.8247 22.224 40.9647 22.664 40.9647 23.296C40.9647 23.928 40.7607 24.392 40.3527 24.688C39.9527 24.984 39.3647 25.132 38.5887 25.132C38.1007 25.132 37.4847 25.064 36.7407 24.928L36.3687 24.868L36.4167 23.776C37.3767 23.904 38.0687 23.968 38.4927 23.968C38.9167 23.968 39.2167 23.916 39.3927 23.812C39.5767 23.708 39.6687 23.536 39.6687 23.296C39.6687 23.056 39.5807 22.892 39.4047 22.804C39.2367 22.708 38.8247 22.608 38.1687 22.504C37.5207 22.392 37.0447 22.22 36.7407 21.988C36.4367 21.756 36.2847 21.332 36.2847 20.716C36.2847 20.1 36.4927 19.64 36.9087 19.336C37.3327 19.032 37.8727 18.88 38.5287 18.88C39.0407 18.88 39.6687 18.944 40.4127 19.072L40.7847 19.144L40.7607 20.236ZM42.1148 22.36V21.172H45.7028V22.36H42.1148ZM47.3816 25V16.78H52.4816V17.944H48.7136V20.716H51.8456V21.88H48.7136V25H47.3816ZM57.7242 20.848V23.584C57.7322 23.76 57.7762 23.892 57.8562 23.98C57.9442 24.06 58.0762 24.112 58.2522 24.136L58.2162 25.132C57.5282 25.132 56.9962 24.984 56.6202 24.688C55.9802 24.984 55.3362 25.132 54.6882 25.132C53.4962 25.132 52.9002 24.496 52.9002 23.224C52.9002 22.616 53.0602 22.176 53.3802 21.904C53.7082 21.632 54.2082 21.468 54.8802 21.412L56.4282 21.28V20.848C56.4282 20.528 56.3562 20.304 56.2122 20.176C56.0762 20.048 55.8722 19.984 55.6002 19.984C55.0882 19.984 54.4482 20.016 53.6802 20.08L53.2962 20.104L53.2482 19.18C54.1202 18.972 54.9202 18.868 55.6482 18.868C56.3842 18.868 56.9122 19.028 57.2322 19.348C57.5602 19.66 57.7242 20.16 57.7242 20.848ZM55.0362 22.336C54.4842 22.384 54.2082 22.684 54.2082 23.236C54.2082 23.788 54.4522 24.064 54.9402 24.064C55.3402 24.064 55.7642 24 56.2122 23.872L56.4282 23.8V22.204L55.0362 22.336ZM61.6102 18.868C62.0342 18.868 62.5342 18.924 63.1102 19.036L63.4102 19.096L63.3622 20.128C62.7302 20.064 62.2622 20.032 61.9582 20.032C61.3502 20.032 60.9422 20.168 60.7342 20.44C60.5262 20.712 60.4222 21.224 60.4222 21.976C60.4222 22.728 60.5222 23.248 60.7222 23.536C60.9222 23.824 61.3382 23.968 61.9702 23.968L63.3742 23.872L63.4102 24.916C62.6022 25.06 61.9942 25.132 61.5862 25.132C60.6742 25.132 60.0302 24.888 59.6542 24.4C59.2862 23.904 59.1022 23.096 59.1022 21.976C59.1022 20.856 59.2982 20.06 59.6902 19.588C60.0822 19.108 60.7222 18.868 61.6102 18.868ZM64.6748 25V19H65.9828V25H64.6748ZM64.6748 17.98V16.6H65.9828V17.98H64.6748ZM67.6413 25V16.504H68.9493V25H67.6413ZM70.6045 25V19H71.9125V25H70.6045ZM70.6045 17.98V16.6H71.9125V17.98H70.6045ZM76.727 20.116H75.071V22.756C75.071 23.244 75.107 23.568 75.179 23.728C75.251 23.888 75.435 23.968 75.731 23.968L76.715 23.932L76.775 24.976C76.239 25.08 75.831 25.132 75.551 25.132C74.871 25.132 74.403 24.976 74.147 24.664C73.899 24.352 73.775 23.764 73.775 22.9V20.116H73.007V19H73.775V17.26H75.071V19H76.727V20.116ZM77.2478 19H78.5318L79.8038 23.884H80.1278L81.3998 19H82.6958L80.4158 27.58H79.1318L79.8518 25H78.8198L77.2478 19ZM18.496 31.78H19.888L17.872 40H15.256L13.24 31.78H14.632L16.264 38.824H16.864L18.496 31.78ZM20.917 40V34H22.225V40H20.917ZM20.917 32.98V31.6H22.225V32.98H20.917ZM27.9755 35.236C27.0315 35.108 26.3475 35.044 25.9235 35.044C25.4995 35.044 25.2035 35.096 25.0355 35.2C24.8755 35.296 24.7955 35.452 24.7955 35.668C24.7955 35.884 24.8835 36.036 25.0595 36.124C25.2435 36.212 25.6675 36.316 26.3315 36.436C27.0035 36.548 27.4795 36.728 27.7595 36.976C28.0395 37.224 28.1795 37.664 28.1795 38.296C28.1795 38.928 27.9755 39.392 27.5675 39.688C27.1675 39.984 26.5795 40.132 25.8035 40.132C25.3155 40.132 24.6995 40.064 23.9555 39.928L23.5835 39.868L23.6315 38.776C24.5915 38.904 25.2835 38.968 25.7075 38.968C26.1315 38.968 26.4315 38.916 26.6075 38.812C26.7915 38.708 26.8835 38.536 26.8835 38.296C26.8835 38.056 26.7955 37.892 26.6195 37.804C26.4515 37.708 26.0395 37.608 25.3835 37.504C24.7355 37.392 24.2595 37.22 23.9555 36.988C23.6515 36.756 23.4995 36.332 23.4995 35.716C23.4995 35.1 23.7075 34.64 24.1235 34.336C24.5475 34.032 25.0875 33.88 25.7435 33.88C26.2555 33.88 26.8835 33.944 27.6275 34.072L27.9995 34.144L27.9755 35.236ZM29.4365 40V34H30.7445V40H29.4365ZM29.4365 32.98V31.6H30.7445V32.98H29.4365ZM35.1271 33.868C35.9511 33.868 36.5431 34.1 36.9031 34.564C37.2711 35.02 37.4551 35.832 37.4551 37C37.4551 38.168 37.2391 38.984 36.8071 39.448C36.3751 39.904 35.6151 40.132 34.5271 40.132C34.1511 40.132 33.5551 40.096 32.7391 40.024L32.3311 39.988V31.504H33.6271V34.228C34.1791 33.988 34.6791 33.868 35.1271 33.868ZM34.5271 38.968C35.1671 38.968 35.5911 38.82 35.7991 38.524C36.0151 38.22 36.1231 37.708 36.1231 36.988C36.1231 36.268 36.0311 35.764 35.8471 35.476C35.6711 35.18 35.3791 35.032 34.9711 35.032C34.5871 35.032 34.2031 35.092 33.8191 35.212L33.6271 35.272V38.92C34.0671 38.952 34.3671 38.968 34.5271 38.968ZM38.7647 40V34H40.0727V40H38.7647ZM38.7647 32.98V31.6H40.0727V32.98H38.7647ZM41.7312 40V31.504H43.0392V40H41.7312ZM44.6943 40V34H46.0023V40H44.6943ZM44.6943 32.98V31.6H46.0023V32.98H44.6943ZM50.8169 35.116H49.1609V37.756C49.1609 38.244 49.1969 38.568 49.2689 38.728C49.3409 38.888 49.5249 38.968 49.8209 38.968L50.8049 38.932L50.8649 39.976C50.3289 40.08 49.9209 40.132 49.6409 40.132C48.9609 40.132 48.4929 39.976 48.2369 39.664C47.9889 39.352 47.8649 38.764 47.8649 37.9V35.116H47.0969V34H47.8649V32.26H49.1609V34H50.8169V35.116ZM51.3377 34H52.6217L53.8937 38.884H54.2177L55.4897 34H56.7857L54.5057 42.58H53.2217L53.9417 40H52.9097L51.3377 34Z" fill="#21436E"/>
<path d="M212.289 42.3794C203.368 42.4978 196.097 49.5866 196.001 58.2535C195.971 60.904 196.605 63.4073 197.751 65.6197C197.801 65.7178 197.853 65.8159 197.906 65.9123C198.501 67.0067 199.223 68.0283 200.054 68.9535C201.044 70.058 201.967 71.2184 202.867 72.3939L210.928 82.9254C211.729 83.9712 213.304 83.9712 214.105 82.9254L221.917 72.7187C222.983 71.3266 224.111 69.9819 225.249 68.644C225.967 67.8017 226.597 66.8866 227.128 65.9106C227.18 65.8142 227.232 65.7161 227.283 65.618C228.402 63.4547 229.032 61.0105 229.032 58.4243C229.032 49.4902 221.515 42.2593 212.289 42.3794Z" fill="url(#paint1_linear_77_1901)"/>
<ellipse cx="213.049" cy="58.894" rx="10.6556" ry="10.1228" fill="white"/>
<path d="M218.117 54.2293L214.374 56.4915V51.9679H211.723V56.4915L207.98 54.2293L206.655 56.6322L210.398 58.8937L206.655 61.1551L207.98 63.558L211.723 61.2966V65.8201H214.374V61.2966L218.117 63.558L219.442 61.1551L215.7 58.8937L219.442 56.6322L218.117 54.2293Z" fill="url(#paint2_linear_77_1901)"/>
<path d="M226.901 83.9346H199.197" stroke="#8DA8CE" stroke-width="3" stroke-linecap="square"/>
<defs>
<linearGradient id="paint0_linear_77_1901" x1="43.1081" y1="-51.9412" x2="307.082" y2="139.927" gradientUnits="userSpaceOnUse">
<stop stop-color="white" stop-opacity="0"/>
<stop offset="1" stop-color="#F7FAFB"/>
</linearGradient>
<linearGradient id="paint1_linear_77_1901" x1="212.742" y1="15.3414" x2="212.619" y2="84.9999" gradientUnits="userSpaceOnUse">
<stop stop-color="white"/>
<stop offset="1" stop-color="#D6E2F8" stop-opacity="0.8"/>
</linearGradient>
<linearGradient id="paint2_linear_77_1901" x1="202.926" y1="58.894" x2="219.442" y2="58.894" gradientUnits="userSpaceOnUse">
<stop stop-color="#DFE9F9"/>
<stop offset="1" stop-color="#21436E"/>
</linearGradient>
</defs>
</svg>
