<?xml version="1.0" encoding="UTF-8"?>
<svg width="1200pt" height="1200pt" version="1.1" viewBox="0 0 1200 1200" xmlns="http://www.w3.org/2000/svg">
 <path d="m365.99 143.71c-9.6484 0-18.75 4.4883-24.621 12.145-5.875 7.6562-7.8516 17.609-5.3516 26.93 2.4961 9.3203 9.1914 16.945 18.105 20.637 8.9141 3.6914 19.039 3.0234 27.395-1.8047 8.3555-4.8242 13.992-13.266 15.246-22.832 1.2578-9.5664-2.0078-19.172-8.832-25.992-5.8164-5.8281-13.711-9.0938-21.941-9.082zm234.01 171.42c65.902 0.003907 129.77 22.855 180.71 64.668 50.941 41.809 85.809 99.988 98.664 164.62 12.852 64.637 2.8984 131.73-28.168 189.85-31.07 58.121-81.328 103.67-142.21 128.89-60.887 25.219-128.63 28.547-191.7 9.4141-63.066-19.133-117.54-59.539-154.16-114.33-36.613-54.797-53.094-120.59-46.633-186.18 6.4609-65.586 35.461-126.9 82.059-173.5 26.43-26.48 57.832-47.477 92.402-61.781 34.566-14.309 71.621-21.645 109.04-21.586zm182.59 102.32c-42.242-42.238-97.824-68.523-157.28-74.371-59.449-5.8516-119.09 9.0898-168.75 42.285-49.668 33.191-86.289 82.578-103.62 139.75-17.336 57.164-14.312 118.57 8.5547 173.76 22.867 55.188 64.16 100.74 116.85 128.89 52.688 28.152 113.5 37.168 172.09 25.508 58.586-11.664 111.32-43.277 149.21-89.461s58.594-104.07 58.586-163.81c0.042969-33.918-6.6172-67.508-19.598-98.844-12.98-31.332-32.023-59.793-56.039-83.746zm-323.08 50.285c0 5.4805 13.555 12.074 35.367 18.328 34.336 8.7773 69.688 12.941 105.12 12.391 35.434 0.55078 70.785-3.6133 105.12-12.391 21.816-6.2539 35.367-12.848 35.367-18.328s-13.555-12.09-35.367-18.34c-34.34-8.7578-69.688-12.91-105.12-12.344-35.434-0.54688-70.785 3.6172-105.12 12.395-21.816 6.3164-35.367 12.859-35.367 18.34zm0 33.082v55.125c0 5.4805 13.527 12.09 35.367 18.355v-0.003906c34.336 8.7734 69.688 12.934 105.12 12.379 35.434 0.55469 70.785-3.6055 105.12-12.379 21.816-6.3164 35.367-12.871 35.367-18.34v-55.137c-8.9609 4.5859-18.371 8.2461-28.078 10.914-36.711 9.457-74.52 13.973-112.42 13.426-37.906 0.54688-75.711-3.9688-112.42-13.426-9.707-2.668-19.117-6.3281-28.082-10.914zm0 88.168v55.102c0 5.4805 13.516 12.102 35.367 18.367v-0.003906c34.336 8.7734 69.688 12.934 105.12 12.379 35.434 0.55469 70.785-3.6055 105.12-12.379 21.828-6.3164 35.367-12.871 35.367-18.355v-55.109c-8.9648 4.582-18.371 8.2383-28.078 10.902-36.711 9.4609-74.52 13.98-112.42 13.441-37.906 0.53906-75.715-3.9805-112.42-13.441-9.707-2.6641-19.117-6.3203-28.082-10.902zm0 88.156v55.238c0 9.7773 26.273 17.316 55.312 22.625 27.746 4.7617 55.805 7.4492 83.949 8.0312h1.2617c3.9531 0-2.25 0.074219 1.2617 0h0.003906c28.145-0.58594 56.207-3.2695 83.949-8.0312 29.051-5.3047 55.312-12.848 55.312-22.625v-55.238c-8.957 4.5898-18.367 8.2422-28.078 10.902-36.707 9.4648-74.516 13.984-112.42 13.438-37.906 0.54688-75.711-3.9727-112.42-13.438-9.707-2.6602-19.117-6.3125-28.078-10.902zm307.62-209.52c-0.10156-18.797-20.992-34.168-54.719-43.832-36.711-9.457-74.52-13.973-112.42-13.426-37.906-0.54688-75.711 3.9688-112.42 13.426-33.727 9.6641-54.617 25.035-54.734 43.832v264.76c0 27.031 36.719 41.344 77.281 48.746 29.223 5.0117 58.777 7.8398 88.422 8.4492h1.4258c0.39062 0 0.26562 0 0 0-0.55469 0-1.7422 0 0 0 1.7422 0 0.55469 0 0 0-0.26563 0-0.39063 0 0 0h1.4297c29.641-0.60938 59.199-3.4375 88.418-8.4492 40.559-7.4023 77.281-21.715 77.281-48.746v-264.76zm-650.07-101.63c0.011718-14.512 5.4961-28.484 15.355-39.129 9.8633-10.645 23.375-17.18 37.84-18.297 14.469-1.1211 28.824 3.2539 40.207 12.254 11.383 8.9961 18.953 21.957 21.203 36.293 2.2461 14.336-0.99609 28.992-9.0781 41.043-8.082 12.051-20.41 20.609-34.527 23.969v44.641c0.019531 2.4336 1.9883 4.4023 4.4219 4.4219h102.12c33.668-79.566 96.992-142.9 176.55-176.58v-102.12c-0.011719-2.4375-1.9844-4.4062-4.418-4.4219h-44.629c-4.3906 18.496-17.613 33.637-35.348 40.48-17.734 6.8398-37.703 4.5039-53.375-6.25-15.676-10.754-25.043-28.543-25.043-47.551 0-19.008 9.3672-36.797 25.043-47.547 15.672-10.754 35.641-13.094 53.375-6.25 17.734 6.8398 30.957 21.984 35.348 40.477h44.652c8.2344 0.011719 16.129 3.2852 21.953 9.1094 5.8242 5.8242 9.0977 13.719 9.1094 21.953v92.211c28.754-9.3008 58.648-14.613 88.848-15.789v-114.53c-20.102-4.418-36.707-18.52-44.332-37.641-7.6211-19.117-5.2695-40.773 6.2812-57.812 11.551-17.039 30.793-27.242 51.379-27.242s39.828 10.203 51.379 27.242c11.551 17.039 13.902 38.695 6.2812 57.812-7.625 19.121-24.23 33.223-44.332 37.641v114.52-0.003906c30.199 1.1797 60.094 6.4922 88.848 15.793v-92.211c0.011719-8.2344 3.2852-16.133 9.1094-21.953 5.8242-5.8242 13.719-9.0977 21.953-9.1094h44.641c4.3906-18.484 17.609-33.617 35.336-40.457 17.727-6.8359 37.684-4.5 53.348 6.25 15.668 10.75 25.031 28.527 25.031 47.527s-9.3633 36.777-25.031 47.527c-15.664 10.75-35.621 13.086-53.348 6.25-17.727-6.8398-30.945-21.973-35.336-40.457h-44.641c-2.4375 0.011719-4.4062 1.9844-4.4219 4.4219v102.12c79.566 33.672 142.9 97 176.58 176.56h102.12c2.4297-0.03125 4.3867-1.9922 4.4219-4.418v-44.617c-18.484-4.3906-33.621-17.609-40.457-35.336-6.8359-17.727-4.5-37.684 6.25-53.348 10.75-15.668 28.527-25.031 47.527-25.031s36.777 9.3633 47.527 25.031c10.746 15.664 13.086 35.621 6.25 53.348-6.8398 17.727-21.973 30.945-40.457 35.336v44.641c-0.011719 8.2344-3.2852 16.129-9.1094 21.953-5.8242 5.8242-13.719 9.0977-21.953 9.1094h-92.211c9.2969 28.758 14.609 58.652 15.789 88.848h114.52c4.3086-20.227 18.41-36.98 37.602-44.68 19.195-7.7031 40.965-5.3398 58.059 6.3008 17.098 11.637 27.273 31.027 27.145 51.707-0.011719 20.594-10.227 39.848-27.277 51.398-17.051 11.555-38.715 13.906-57.848 6.2773-19.133-7.625-33.238-24.234-37.668-44.348h-114.52c-1.1797 30.199-6.4922 60.094-15.793 88.848h92.211c8.2344 0.011719 16.133 3.2852 21.953 9.1094 5.8242 5.8242 9.0977 13.719 9.1094 21.953v44.652c18.484 4.3906 33.617 17.609 40.457 35.336 6.8359 17.727 4.5 37.684-6.25 53.352-10.75 15.664-28.527 25.027-47.527 25.027s-36.777-9.3633-47.527-25.027c-10.75-15.668-13.086-35.625-6.25-53.352 6.8398-17.727 21.973-30.945 40.457-35.336v-44.652c-0.019531-2.4336-1.9883-4.4023-4.4219-4.4219h-102.14c-33.668 79.566-96.992 142.9-176.55 176.58v102.12c0.011719 2.4375 1.9844 4.4062 4.418 4.4219h44.641c4.3906-18.484 17.609-33.621 35.336-40.457 17.727-6.8359 37.684-4.5 53.352 6.25 15.664 10.75 25.027 28.527 25.027 47.527s-9.3633 36.777-25.027 47.527c-15.668 10.746-35.625 13.086-53.352 6.25-17.727-6.8398-30.945-21.973-35.336-40.457h-44.664c-8.2344-0.011719-16.129-3.2852-21.953-9.1094-5.8242-5.8242-9.0977-13.719-9.1094-21.953v-92.211c-28.754 9.3008-58.648 14.613-88.848 15.789v114.52c20.227 4.3086 36.98 18.41 44.68 37.602 7.7031 19.195 5.3398 40.965-6.3008 58.059-11.637 17.098-31.027 27.273-51.707 27.145-20.594-0.011719-39.848-10.227-51.398-27.277-11.555-17.051-13.906-38.715-6.2773-57.848 7.625-19.133 24.234-33.238 44.348-37.668v-114.52c-30.199-1.1797-60.094-6.4922-88.848-15.793v92.211c-0.011719 8.2344-3.2852 16.133-9.1094 21.953-5.8242 5.8242-13.719 9.0977-21.953 9.1094h-44.652c-4.3906 18.496-17.613 33.637-35.348 40.477-17.734 6.8438-37.703 4.5039-53.375-6.2461-15.676-10.754-25.043-28.543-25.043-47.551 0-19.008 9.3672-36.797 25.043-47.551 15.672-10.75 35.641-13.09 53.375-6.2461 17.734 6.8398 30.957 21.984 35.348 40.477h44.652c2.4375-0.011719 4.4062-1.9844 4.4219-4.4219v-102.14c-79.566-33.668-142.9-96.992-176.58-176.55h-102.12c-2.4375 0.011719-4.4062 1.9844-4.4219 4.418v44.652c18.484 4.3906 33.621 17.609 40.457 35.336s4.5 37.684-6.25 53.352c-10.75 15.668-28.527 25.031-47.527 25.031s-36.777-9.3633-47.527-25.031c-10.746-15.668-13.086-35.625-6.25-53.352 6.8398-17.727 21.973-30.945 40.457-35.336v-44.676c0.011719-8.2344 3.2852-16.129 9.1094-21.953 5.8242-5.8242 13.719-9.0977 21.953-9.1094h92.211c-9.2969-28.758-14.609-58.652-15.789-88.848h-114.53c-3.3477 15.355-12.391 28.875-25.309 37.832-12.918 8.957-28.75 12.684-44.305 10.438-15.559-2.25-29.684-10.312-39.535-22.559-9.8516-12.25-14.695-27.777-13.559-43.453 1.1406-15.676 8.1758-30.34 19.695-41.035 11.52-10.699 26.66-16.633 42.379-16.609 14.152 0.015625 27.871 4.8555 38.898 13.727 11.023 8.8711 18.691 21.238 21.734 35.055h114.52-0.003906c1.1797-30.199 6.4922-60.094 15.793-88.848h-92.211c-8.2344-0.011719-16.133-3.2852-21.953-9.1094-5.8242-5.8242-9.0977-13.719-9.1094-21.953v-44.691c-12.625-3.0117-23.871-10.188-31.918-20.371s-12.434-22.781-12.445-35.762zm35.785-21.941c-6.8164 6.8203-10.074 16.426-8.8125 25.984 1.2617 9.5625 6.8945 17.992 15.25 22.812 8.3516 4.8203 18.469 5.4844 27.379 1.793 8.9102-3.6914 15.598-11.316 18.094-20.629 2.4961-9.3164 0.51953-19.262-5.3516-26.914-5.8672-7.6523-14.965-12.141-24.605-12.141-8.2383-0.011719-16.141 3.2578-21.953 9.0938zm-9.082 489.96c0 9.6484 4.4883 18.75 12.145 24.621 7.6562 5.875 17.609 7.8516 26.93 5.3516 9.3164-2.4961 16.945-9.1914 20.637-18.105 3.6914-8.9141 3.0234-19.039-1.8047-27.395-4.8242-8.3555-13.266-13.992-22.832-15.246-9.5664-1.2578-19.172 2.0078-25.992 8.832-5.8281 5.8164-9.0977 13.711-9.082 21.941zm-85.531-234.01c0 9.4062 3.7383 18.43 10.391 25.082 6.6523 6.6523 15.676 10.387 25.086 10.387 9.4062 0 18.43-3.7383 25.078-10.391 6.6523-6.6562 10.387-15.68 10.387-25.086-0.003906-9.4102-3.7422-18.43-10.398-25.082-6.6523-6.6484-15.676-10.383-25.086-10.379-9.3984 0.019531-18.406 3.7617-25.055 10.41-6.6445 6.6484-10.383 15.66-10.402 25.059zm285.82 447.16c6.8203 6.8164 16.426 10.074 25.984 8.8125 9.5625-1.2617 17.992-6.8945 22.812-15.25 4.8203-8.3516 5.4844-18.469 1.793-27.379-3.6914-8.9102-11.316-15.598-20.629-18.094-9.3164-2.4961-19.262-0.51953-26.914 5.3516-7.6523 5.8672-12.141 14.965-12.141 24.605-0.011719 8.2383 3.2578 16.141 9.0938 21.953zm489.96 9.082c9.6484 0 18.75-4.4883 24.621-12.145 5.875-7.6562 7.8516-17.609 5.3516-26.93-2.4961-9.3164-9.1914-16.945-18.105-20.637-8.9141-3.6914-19.039-3.0234-27.395 1.8047-8.3555 4.8242-13.992 13.266-15.246 22.832-1.2578 9.5664 2.0078 19.172 8.832 25.992 5.8164 5.8281 13.711 9.0977 21.941 9.082zm-259.1 75.148c6.6445 6.6641 15.672 10.406 25.086 10.395 11.059 0.027344 21.496-5.0898 28.25-13.848 6.75-8.7578 9.043-20.156 6.2031-30.844-2.8398-10.684-10.488-19.441-20.695-23.691-10.207-4.25-21.812-3.5117-31.398 2-9.582 5.5117-16.059 15.172-17.52 26.133-1.457 10.961 2.2656 21.977 10.074 29.805zm472.29-275.37v-0.003906c6.8359-6.8242 10.105-16.438 8.8516-26.012-1.2539-9.5781-6.8906-18.023-15.254-22.859-8.3594-4.832-18.492-5.5-27.418-1.8086-8.9258 3.6914-15.625 11.324-18.125 20.652-2.5039 9.3281-0.52734 19.289 5.3516 26.953 5.875 7.6602 14.984 12.156 24.641 12.156 8.2344 0.011719 16.133-3.2578 21.953-9.082zm9.082-489.98c0-9.6484-4.4883-18.75-12.145-24.621-7.6562-5.875-17.609-7.8516-26.93-5.3516-9.3203 2.4961-16.945 9.1875-20.637 18.105-3.6914 8.9141-3.0234 19.039 1.8047 27.395 4.8242 8.3555 13.266 13.988 22.832 15.246s19.172-2.0078 25.992-8.832c5.8281-5.8164 9.0938-13.711 9.082-21.941zm75.094 259.09h0.003907c6.6602-6.6445 10.402-15.668 10.395-25.074 0.035156-11.066-5.082-21.52-13.844-28.281s-20.168-9.0625-30.867-6.2227c-10.695 2.8359-19.461 10.492-23.719 20.707-4.2578 10.215-3.5156 21.832 2 31.426 5.5195 9.5938 15.184 16.074 26.156 17.531 10.969 1.4609 21.992-2.2695 29.828-10.086zm-275.43-472.28c-6.8203-6.8164-16.426-10.074-25.984-8.8125-9.5625 1.2617-17.992 6.8945-22.812 15.25-4.8203 8.3516-5.4844 18.469-1.793 27.379 3.6914 8.9102 11.316 15.598 20.629 18.094 9.3164 2.4961 19.262 0.51953 26.914-5.3516 7.6523-5.8672 12.141-14.965 12.141-24.605 0.011719-8.2383-3.2578-16.141-9.0938-21.953zm-230.87-84.23c-7.7969-7.8008-18.781-11.535-29.719-10.098-10.941 1.4375-20.586 7.8789-26.105 17.434-5.5156 9.5508-6.2773 21.129-2.0586 31.32 4.2227 10.195 12.945 17.844 23.602 20.699s22.035 0.58984 30.785-6.125c8.7539-6.7188 13.883-17.125 13.879-28.156 0.011719-9.4062-3.7266-18.43-10.383-25.074zm190.39 315.91c-49.852-49.867-115.46-80.902-185.63-87.82-70.172-6.9219-140.57 10.707-199.2 49.879-58.633 39.168-101.87 97.457-122.34 164.93-20.473 67.473-16.918 139.96 10.062 205.11 26.98 65.148 75.715 118.93 137.9 152.17 62.184 33.242 133.97 43.891 203.13 30.137 69.156-13.754 131.41-51.062 176.14-105.57 44.73-54.508 69.184-122.84 69.18-193.35 0.054688-40.023-7.8047-79.668-23.117-116.64-15.316-36.98-37.789-70.57-66.125-98.836z" fill-rule="evenodd"/>
</svg>
