<svg width="33" height="32" viewBox="0 0 33 32" fill="none" xmlns="http://www.w3.org/2000/svg">
<path d="M20.1685 12H12.4985C12.0571 12.0005 11.6339 12.1761 11.3217 12.4883C11.0096 12.8004 10.834 13.2236 10.8335 13.665V15.5H5.6105C5.13937 15.5005 4.68769 15.6879 4.35455 16.0211C4.02141 16.3542 3.83403 16.8059 3.8335 17.277V25.223C3.83403 25.6941 4.02141 26.1458 4.35455 26.4789C4.68769 26.8121 5.13937 26.9995 5.6105 27H8.1865L7.0075 28.179C6.91642 28.2733 6.86602 28.3996 6.86716 28.5307C6.8683 28.6618 6.92088 28.7872 7.01359 28.8799C7.10629 28.9726 7.2317 29.0252 7.3628 29.0263C7.49389 29.0275 7.6202 28.9771 7.7145 28.886L10.1395 26.461L7.7935 24.115C7.6992 24.0239 7.57289 23.9735 7.4418 23.9747C7.3107 23.9758 7.18529 24.0284 7.09259 24.1211C6.99988 24.2138 6.9473 24.3392 6.94616 24.4703C6.94502 24.6014 6.99542 24.7277 7.0865 24.822L8.2645 26H5.6105C5.4045 25.9997 5.20703 25.9178 5.06137 25.7721C4.91571 25.6265 4.83376 25.429 4.8335 25.223V17.277C4.83376 17.071 4.91571 16.8735 5.06137 16.7279C5.20703 16.5822 5.4045 16.5003 5.6105 16.5H10.8335V18.335C10.834 18.7764 11.0096 19.1996 11.3217 19.5117C11.6339 19.8239 12.0571 19.9995 12.4985 20H20.1685C20.6099 19.9995 21.0331 19.8239 21.3452 19.5117C21.6574 19.1996 21.833 18.7764 21.8335 18.335V13.665C21.833 13.2236 21.6574 12.8004 21.3452 12.4883C21.0331 12.1761 20.6099 12.0005 20.1685 12ZM20.8335 18.335C20.833 18.5112 20.7627 18.68 20.6381 18.8046C20.5135 18.9292 20.3447 18.9995 20.1685 19H12.4985C12.3223 18.9995 12.1535 18.9292 12.0289 18.8046C11.9043 18.68 11.834 18.5112 11.8335 18.335V13.665C11.834 13.4888 11.9043 13.32 12.0289 13.1954C12.1535 13.0708 12.3223 13.0005 12.4985 13H20.1685C20.3447 13.0005 20.5135 13.0708 20.6381 13.1954C20.7627 13.32 20.833 13.4888 20.8335 13.665V18.335Z" fill="#FFB216"/>
<path d="M20.1685 22.5H12.4985C12.0571 22.5005 11.6339 22.6761 11.3217 22.9883C11.0096 23.3004 10.834 23.7236 10.8335 24.165V28.835C10.834 29.2764 11.0096 29.6996 11.3217 30.0117C11.6339 30.3239 12.0571 30.4995 12.4985 30.5H20.1685C20.6099 30.4995 21.0331 30.3239 21.3452 30.0117C21.6574 29.6996 21.833 29.2764 21.8335 28.835V24.165C21.833 23.7236 21.6574 23.3004 21.3452 22.9883C21.0331 22.6761 20.6099 22.5005 20.1685 22.5ZM20.8335 28.835C20.833 29.0112 20.7627 29.18 20.6381 29.3046C20.5135 29.4292 20.3447 29.4995 20.1685 29.5H12.4985C12.3223 29.4995 12.1535 29.4292 12.0289 29.3046C11.9043 29.18 11.834 29.0112 11.8335 28.835V24.165C11.834 23.9888 11.9043 23.82 12.0289 23.6954C12.1535 23.5708 12.3223 23.5005 12.4985 23.5H20.1685C20.3447 23.5005 20.5135 23.5708 20.6381 23.6954C20.7627 23.82 20.833 23.9888 20.8335 24.165V28.835Z" fill="#FFB216"/>
<path d="M27.0565 5H21.8335V3.165C21.833 2.72358 21.6574 2.30039 21.3452 1.98825C21.0331 1.67612 20.6099 1.50053 20.1685 1.5H12.4985C12.0571 1.50053 11.6339 1.67612 11.3217 1.98825C11.0096 2.30039 10.834 2.72358 10.8335 3.165V7.835C10.834 8.27642 11.0096 8.69962 11.3217 9.01175C11.6339 9.32388 12.0571 9.49947 12.4985 9.5H20.1685C20.6099 9.49947 21.0331 9.32388 21.3452 9.01175C21.6574 8.69962 21.833 8.27642 21.8335 7.835V6H27.0565C27.2625 6.00026 27.46 6.08221 27.6056 6.22787C27.7513 6.37353 27.8332 6.57101 27.8335 6.777V14.723C27.8332 14.929 27.7513 15.1265 27.6056 15.2721C27.46 15.4178 27.2625 15.4997 27.0565 15.5H24.4025L25.5805 14.322C25.6283 14.2759 25.6663 14.2207 25.6925 14.1597C25.7188 14.0987 25.7325 14.0331 25.7331 13.9667C25.7337 13.9003 25.721 13.8345 25.6959 13.773C25.6708 13.7116 25.6336 13.6557 25.5867 13.6088C25.5397 13.5619 25.4839 13.5247 25.4225 13.4996C25.361 13.4744 25.2952 13.4618 25.2288 13.4624C25.1624 13.463 25.0968 13.4767 25.0358 13.5029C24.9748 13.5292 24.9196 13.5672 24.8735 13.615L22.5275 15.961L24.9525 18.386C25.0468 18.4771 25.1731 18.5275 25.3042 18.5263C25.4353 18.5252 25.5607 18.4726 25.6534 18.3799C25.7461 18.2872 25.7987 18.1618 25.7998 18.0307C25.801 17.8996 25.7506 17.7733 25.6595 17.679L24.4805 16.5H27.0565C27.5276 16.4995 27.9793 16.3121 28.3124 15.9789C28.6456 15.6458 28.833 15.1941 28.8335 14.723V6.777C28.833 6.30587 28.6456 5.85419 28.3124 5.52106C27.9793 5.18792 27.5276 5.00053 27.0565 5ZM20.8335 7.835C20.833 8.01121 20.7627 8.18005 20.6381 8.30464C20.5135 8.42924 20.3447 8.49947 20.1685 8.5H12.4985C12.3223 8.49947 12.1535 8.42924 12.0289 8.30464C11.9043 8.18005 11.834 8.01121 11.8335 7.835V3.165C11.834 2.98879 11.9043 2.81995 12.0289 2.69536C12.1535 2.57076 12.3223 2.50053 12.4985 2.5H20.1685C20.3447 2.50053 20.5135 2.57076 20.6381 2.69536C20.7627 2.81995 20.833 2.98879 20.8335 3.165V7.835Z" fill="#FFB216"/>
</svg>
