<svg width="32" height="32" viewBox="0 0 32 32" fill="none" xmlns="http://www.w3.org/2000/svg">
<g clip-path="url(#clip0_5690_11427)">
<path d="M26.6671 21.8745H26.2743C26.0416 21.8745 25.8477 22.0636 25.8477 22.3012C25.8477 22.5388 26.0368 22.7279 26.2743 22.7279H26.6671C29.3095 22.7279 31.4574 20.58 31.4574 17.9376C31.4574 16.003 30.2937 14.2721 28.5337 13.5303C28.5434 13.38 28.5483 13.2297 28.5483 13.0891C28.5483 9.37998 25.5325 6.35938 21.8186 6.35938C19.5592 6.35938 17.4937 7.46968 16.238 9.34119C15.9955 9.29271 15.7531 9.26847 15.5155 9.26847C13.4113 9.26847 11.6949 10.98 11.6949 13.0891C11.6949 13.1133 11.6949 13.1424 11.6949 13.1666C9.2513 13.38 7.3313 15.4406 7.3313 17.9376C7.3313 20.58 9.47918 22.7279 12.1216 22.7279H18.9725V24.3036H11.6368C11.404 24.3036 11.2101 24.4927 11.2101 24.7303V26.7327H9.69736C9.46463 26.7327 9.27069 26.9218 9.27069 27.1594V31.0382C9.27069 31.2709 9.45978 31.4648 9.69736 31.4648H13.5761C13.8089 31.4648 14.0028 31.2757 14.0028 31.0382V27.1594C14.0028 26.9266 13.8137 26.7327 13.5761 26.7327H12.0586V25.157H18.9677V26.7327H17.4549C17.2222 26.7327 17.0283 26.9218 17.0283 27.1594V31.0382C17.0283 31.2709 17.2174 31.4648 17.4549 31.4648H21.3337C21.5665 31.4648 21.7604 31.2757 21.7604 31.0382V27.1594C21.7604 26.9266 21.5713 26.7327 21.3337 26.7327H19.8161V25.157H26.7252V26.7327H25.2125C24.9798 26.7327 24.7858 26.9218 24.7858 27.1594V31.0382C24.7858 31.2709 24.9749 31.4648 25.2125 31.4648H29.0913C29.324 31.4648 29.518 31.2757 29.518 31.0382V27.1594C29.518 26.9266 29.3289 26.7327 29.0913 26.7327H27.5737V24.7206C27.5737 24.4879 27.3846 24.2939 27.1471 24.2939H19.821V22.7182H24.5919C24.8246 22.7182 25.0186 22.5291 25.0186 22.2915C25.0186 22.0539 24.8295 21.8648 24.5919 21.8648H12.1216C9.94948 21.8648 8.17978 20.0951 8.17978 17.923C8.17978 15.7509 9.94463 13.9812 12.1071 13.9812C12.2428 13.9909 12.3883 13.9376 12.4755 13.8357C12.558 13.7436 12.5919 13.6176 12.5774 13.4963C12.5531 13.3315 12.5434 13.1957 12.5434 13.0697C12.5434 11.4309 13.8768 10.0976 15.5155 10.0976C15.7822 10.0976 16.0537 10.1363 16.3204 10.2091C16.5046 10.2624 16.6986 10.1848 16.7955 10.02C17.8719 8.24544 19.7531 7.18362 21.8186 7.18362C25.0622 7.18362 27.6998 9.82119 27.6998 13.0648C27.6998 13.2733 27.6852 13.4963 27.661 13.7388C27.6368 13.9376 27.758 14.1218 27.9471 14.1897C29.5422 14.7327 30.6137 16.2309 30.6137 17.9133C30.6089 20.1048 28.8392 21.8745 26.6671 21.8745ZM13.1543 30.6018H10.124V27.5715H13.1543V30.6018ZM20.9119 30.6018H17.8816V27.5715H20.9119V30.6018ZM28.6695 30.6018H25.6392V27.5715H28.6695V30.6018Z" fill="#FFB216"/>
<path d="M24.3443 16.8913C24.5334 16.8429 24.6643 16.6732 24.6643 16.4792V14.5398C24.6643 14.3459 24.5334 14.1762 24.3443 14.1277L23.3746 13.8853C23.3698 13.8707 23.3649 13.8562 23.3552 13.8416L23.8692 12.9835C23.971 12.8186 23.9419 12.6004 23.8061 12.4647L22.434 11.0926C22.2934 10.9568 22.0801 10.9277 21.9152 11.0295L21.057 11.5435C21.0425 11.5386 21.028 11.5289 21.0134 11.5241L20.771 10.5544C20.7225 10.3653 20.5528 10.2344 20.3589 10.2344H18.4195C18.2255 10.2344 18.0558 10.3653 18.0073 10.5544L17.7649 11.5241C17.7504 11.5289 17.7358 11.5338 17.7213 11.5435L16.8631 11.0295C16.6983 10.9326 16.4849 10.9568 16.3443 11.0926L14.9722 12.4647C14.8364 12.6004 14.8073 12.8138 14.9092 12.9835L15.4231 13.8416C15.4183 13.8562 15.4086 13.8707 15.4037 13.8853L14.434 14.1277C14.2449 14.1762 14.114 14.3459 14.114 14.5398V16.4792C14.114 16.6732 14.2449 16.8429 14.434 16.8913L15.4037 17.1338C15.4086 17.1483 15.4183 17.1629 15.4231 17.1774L14.9092 18.0356C14.8073 18.2004 14.8364 18.4186 14.9722 18.5544L16.3443 19.9265C16.4849 20.0623 16.6983 20.0913 16.8631 19.9895L17.7213 19.4756C17.7358 19.4804 17.7504 19.4853 17.7649 19.495L18.0073 20.4647C18.0558 20.6538 18.2255 20.7847 18.4195 20.7847H20.3589C20.5528 20.7847 20.7225 20.6538 20.771 20.4647L21.0134 19.495C21.028 19.4901 21.0425 19.4853 21.057 19.4756L21.9152 19.9895C22.0801 20.0913 22.2934 20.0623 22.434 19.9265L23.8061 18.5544C23.9419 18.4186 23.971 18.2053 23.8692 18.0356L23.3552 17.1774C23.3601 17.1629 23.3698 17.1483 23.3746 17.1338L24.3443 16.8913ZM22.5164 17.4198L22.977 18.1859L22.0752 19.0877L21.3092 18.6271C21.188 18.5544 21.0328 18.5447 20.9067 18.6077C20.7855 18.6659 20.6546 18.7192 20.5237 18.7677C20.388 18.8162 20.2861 18.9277 20.2522 19.0635L20.034 19.9265H18.7589L18.5407 19.0635C18.5067 18.9229 18.4049 18.8113 18.2692 18.7629C18.1383 18.7192 18.0122 18.6659 17.8861 18.6029C17.7552 18.5398 17.6049 18.5447 17.4837 18.6223L16.7176 19.0829L15.8158 18.181L16.2764 17.415C16.3492 17.2938 16.3589 17.1386 16.2958 17.0126C16.2377 16.8913 16.1843 16.7653 16.1358 16.6344C16.0873 16.4986 15.9758 16.3968 15.8352 16.3629L14.9722 16.1495V14.8744L15.8352 14.6562C15.9758 14.6223 16.0873 14.5204 16.1358 14.3847C16.1795 14.2538 16.2328 14.1277 16.2958 14.0065C16.3589 13.8756 16.354 13.7253 16.2764 13.6041L15.8158 12.838L16.7176 11.9362L17.4837 12.3968C17.6049 12.4695 17.7601 12.4792 17.8861 12.4162C18.0073 12.358 18.1383 12.3047 18.2692 12.2562C18.4049 12.2077 18.5067 12.0962 18.5407 11.9556L18.7589 11.0926H20.034L20.2522 11.9556C20.2861 12.0962 20.388 12.2077 20.5237 12.2513C20.6546 12.295 20.7807 12.3483 20.9067 12.4113C21.0376 12.4744 21.188 12.4647 21.3092 12.392L22.0752 11.9313L22.977 12.8332L22.5164 13.5992C22.4437 13.7204 22.434 13.8756 22.497 14.0016C22.5552 14.1229 22.6086 14.2538 22.657 14.3847C22.7055 14.5204 22.817 14.6223 22.9576 14.6562L23.8207 14.8744V16.1495L22.9576 16.3629C22.817 16.3968 22.7055 16.4986 22.657 16.6344C22.6134 16.7653 22.5601 16.8913 22.497 17.0174C22.434 17.1483 22.4437 17.2986 22.5164 17.4198Z" fill="#FFB216"/>
<path d="M19.3941 13.1562C18.0899 13.1562 17.0281 14.2181 17.0281 15.5223C17.0281 16.8266 18.0899 17.8884 19.3941 17.8884C20.6984 17.8884 21.7602 16.8266 21.7602 15.5223C21.7602 14.2181 20.6984 13.1562 19.3941 13.1562ZM19.3941 17.035C18.5602 17.035 17.8766 16.3563 17.8766 15.5175C17.8766 14.6787 18.5553 13.9999 19.3941 13.9999C20.2329 13.9999 20.9117 14.6787 20.9117 15.5175C20.9117 16.3563 20.2281 17.035 19.3941 17.035Z" fill="#FFB216"/>
<path d="M7.32094 15.136C7.04943 14.5396 6.83124 13.8463 6.6567 13.0851C7.45185 12.736 8.31488 12.5372 9.21185 12.5372C9.69185 12.5372 10.1719 12.5905 10.6422 12.6972C10.8652 12.7457 11.0979 12.6051 11.1512 12.3772C11.2046 12.1493 11.0591 11.9214 10.8312 11.8681C10.4385 11.7808 10.0409 11.7323 9.63852 11.7081V9.62324H12.5525C12.7949 9.65718 13.0325 9.45354 13.0325 9.19657C13.0325 7.9796 12.9258 6.83051 12.7367 5.79293C13.5755 5.32748 14.327 4.68748 14.9282 3.89718C15.7428 4.77475 16.3682 5.83657 16.7125 7.03415C16.7658 7.21839 16.9355 7.3396 17.1197 7.3396C17.1585 7.3396 17.1973 7.33475 17.2361 7.32506C17.4591 7.26203 17.59 7.02445 17.527 6.80142C17.1003 5.32748 16.2955 4.03294 15.2385 3.00991C15.2094 2.96142 15.1658 2.91778 15.1173 2.88384C15.1125 2.879 15.1076 2.879 15.0979 2.879C13.5318 1.42445 11.4422 0.546875 9.21185 0.546875C6.08458 0.546875 3.18518 2.24384 1.65306 4.97354C1.5367 5.17718 1.60943 5.43415 1.81306 5.55051C2.0167 5.66687 2.27852 5.59415 2.39003 5.39051C2.69549 4.84263 3.06882 4.34809 3.48579 3.89718C4.09185 4.68263 4.84821 5.32748 5.69185 5.80263C5.52215 6.72384 5.41549 7.72263 5.39609 8.78445H1.41064C1.45427 7.98445 1.60943 7.199 1.89064 6.44748C1.97306 6.2293 1.86155 5.98203 1.64337 5.8996C1.42518 5.81718 1.17791 5.92869 1.09549 6.14687C0.73185 7.12627 0.547607 8.15415 0.547607 9.20627C0.547607 12.8281 2.83609 16.1008 6.24458 17.342C6.29306 17.3614 6.34155 17.3663 6.39003 17.3663C6.56458 17.3663 6.72458 17.2596 6.78761 17.0851C6.87003 16.8669 6.75367 16.6196 6.53549 16.542C5.63367 16.2123 4.81912 15.7226 4.11609 15.1166C4.60579 14.4572 5.20215 13.9141 5.88094 13.4923C6.06033 14.2245 6.28336 14.8984 6.55003 15.4802C6.62276 15.6354 6.77306 15.7275 6.93791 15.7275C6.99609 15.7275 7.05427 15.7178 7.11246 15.6887C7.32094 15.5966 7.41791 15.3493 7.32094 15.136ZM8.79003 11.7032C7.99003 11.7517 7.21427 11.9311 6.49185 12.2269C6.35609 11.4075 6.26882 10.5299 6.24943 9.63293H8.79003V11.7032ZM12.1791 8.78445H9.63852V6.7093C10.4385 6.66081 11.2143 6.48142 11.9367 6.18566C12.0676 6.98081 12.1549 7.84869 12.1791 8.78445ZM11.767 5.32748C11.0979 5.62324 10.3803 5.79778 9.63852 5.84627V1.49233C10.4676 1.85597 11.287 3.25233 11.767 5.32748ZM8.79003 1.49233V5.85112C8.04337 5.80263 7.32579 5.62324 6.66155 5.33233C7.13185 3.25233 7.95609 1.85597 8.79003 1.49233ZM12.5428 4.91536C12.1985 3.52869 11.6943 2.38445 11.0834 1.61839C12.2809 1.919 13.3864 2.50081 14.3076 3.29597C13.8179 3.95536 13.2215 4.49839 12.5428 4.91536ZM4.11124 3.28627C5.04215 2.48627 6.14761 1.91415 7.34518 1.61839C6.72942 2.38445 6.22518 3.52384 5.88094 4.91536C5.20215 4.49839 4.60094 3.95051 4.11124 3.28627ZM8.79003 6.7093V8.78445H6.24943C6.26882 7.84869 6.35609 6.98081 6.49185 6.18566C7.21427 6.48142 7.98518 6.66081 8.79003 6.7093ZM3.49064 14.5202C2.26882 13.2014 1.51246 11.4802 1.41064 9.63293H5.39609C5.41549 10.6657 5.52215 11.6741 5.69185 12.6099C4.84821 13.0851 4.0967 13.7299 3.49064 14.5202Z" fill="#FFB216"/>
</g>
<defs>
<clipPath id="clip0_5690_11427">
<rect width="32" height="32" fill="white"/>
</clipPath>
</defs>
</svg>
