<svg width="673" height="467" viewBox="0 0 673 467" fill="none" xmlns="http://www.w3.org/2000/svg">
<g clip-path="url(#clip0_5757_4731)">
<rect width="673" height="467" rx="16" fill="url(#paint0_linear_5757_4731)"/>
<path d="M0 240.575H224.169C252.632 240.575 275.706 217.501 275.706 189.037V175.162C275.706 154.362 292.568 137.5 313.368 137.5V137.5C334.168 137.5 351.029 154.362 351.029 175.162V304.647C351.029 325.553 367.977 342.5 388.882 342.5V342.5C409.788 342.5 426.735 325.553 426.735 304.647V174.971C426.735 154.276 443.511 137.5 464.206 137.5V137.5C484.9 137.5 501.676 154.276 501.676 174.971V189.037C501.676 217.501 524.751 240.575 553.214 240.575H617.5" stroke="#F2F6F9" stroke-width="2" stroke-linecap="square" stroke-dasharray="9 9"/>
<g filter="url(#filter0_d_5757_4731)">
<path fill-rule="evenodd" clip-rule="evenodd" d="M287.771 159.905C287.771 149.74 296.011 141.5 306.176 141.5C316.341 141.5 324.581 149.74 324.581 159.905V306.896C324.581 336.395 348.495 360.309 377.995 360.309C407.494 360.309 431.408 336.395 431.408 306.896V160.426C431.408 149.973 439.881 141.5 450.333 141.5C460.785 141.5 469.259 149.973 469.259 160.425V178.95C469.259 218.964 501.696 251.401 541.709 251.401H575.25V276.234C575.25 277.774 576.917 278.736 578.25 277.966L654 234.232C655.333 233.462 655.333 231.538 654 230.768L578.25 187.034C576.917 186.264 575.25 187.226 575.25 188.766V216.401H541.709C521.026 216.401 504.259 199.634 504.259 178.95V160.425C504.259 130.643 480.115 106.5 450.333 106.5C420.551 106.5 396.408 130.643 396.408 160.426V306.896C396.408 317.065 388.164 325.309 377.995 325.309C367.825 325.309 359.581 317.065 359.581 306.896V159.905C359.581 130.41 335.671 106.5 306.176 106.5C276.681 106.5 252.771 130.41 252.771 159.905V306.896C252.771 317.065 244.527 325.309 234.358 325.309C224.189 325.309 215.945 317.065 215.945 306.896V288.107C215.945 248.231 183.619 215.905 143.743 215.905H-37V250.905H143.743C164.289 250.905 180.945 267.561 180.945 288.107V306.896C180.945 336.395 204.859 360.309 234.358 360.309C263.857 360.309 287.771 336.395 287.771 306.896V159.905Z" fill="url(#paint1_linear_5757_4731)"/>
</g>
<path d="M-37 232.905H143.743C173.954 232.905 198.445 257.396 198.445 287.607V306.396C198.445 326.23 214.524 342.309 234.358 342.309V342.309C254.192 342.309 270.271 326.23 270.271 306.396V159.405C270.271 139.575 286.346 123.5 306.176 123.5V123.5C326.006 123.5 342.081 139.575 342.081 159.405V306.396C342.081 326.23 358.16 342.309 377.995 342.309V342.309C397.829 342.309 413.908 326.23 413.908 306.396V159.926C413.908 139.808 430.216 123.5 450.333 123.5V123.5C470.45 123.5 486.759 139.808 486.759 159.926V178.45C486.759 208.799 511.361 233.401 541.709 233.401H575.5" stroke="#F2F6F9" stroke-width="2" stroke-linecap="square" stroke-dasharray="9 9"/>
<path d="M238.5 343.5V356.5C238.5 369.755 227.755 380.5 214.5 380.5H174.5" stroke="url(#paint2_linear_5757_4731)" stroke-width="3" stroke-linecap="round"/>
<circle cx="5" cy="5" r="5" transform="matrix(1 0 0 -1 233 348)" fill="#FFB216"/>
<path d="M377.5 344V357C377.5 370.255 388.245 381 401.5 381H441.5" stroke="url(#paint3_linear_5757_4731)" stroke-width="3" stroke-linecap="round"/>
<circle cx="378" cy="343.5" r="5" transform="rotate(180 378 343.5)" fill="#FFB216"/>
<path d="M448.5 120.5V107.5C448.5 94.2452 459.245 83.5 472.5 83.5H512.5" stroke="url(#paint4_linear_5757_4731)" stroke-width="3" stroke-linecap="round"/>
<circle cx="5" cy="5" r="5" transform="matrix(-1 0 0 1 454 116)" fill="#FFB216"/>
<path d="M307 120.5V107.5C307 94.2452 296.255 83.5 283 83.5H243" stroke="url(#paint5_linear_5757_4731)" stroke-width="3" stroke-linecap="round"/>
<circle cx="306.5" cy="121" r="5" fill="#FFB216"/>
<path d="M99 70.5C99 66.634 102.134 63.5 106 63.5H246C249.866 63.5 253 66.634 253 70.5V98.5C253 102.366 249.866 105.5 246 105.5H106C102.134 105.5 99 102.366 99 98.5V70.5Z" fill="white"/>
<path d="M99 70.5C99 66.634 102.134 63.5 106 63.5H246C249.866 63.5 253 66.634 253 70.5V98.5C253 102.366 249.866 105.5 246 105.5H106C102.134 105.5 99 102.366 99 98.5V70.5Z" fill="url(#paint6_linear_5757_4731)" fill-opacity="0.2"/>
<path d="M99 70.5C99 66.634 102.134 63.5 106 63.5H246C249.866 63.5 253 66.634 253 70.5V98.5C253 102.366 249.866 105.5 246 105.5H106C102.134 105.5 99 102.366 99 98.5V70.5Z" stroke="#C9D7E8" stroke-opacity="0.27" stroke-width="1.5"/>
<path d="M113.916 88.5V80.5615H116.152L117.925 86.7616L119.698 80.5615H121.947V88.5H120.649V81.9869H120.475L118.598 88.1755H117.253L115.376 81.9869H115.202V88.5H113.916ZM123.762 88.5V80.5615H128.768V81.6856H125.048V83.9339H128.073V85.0465H125.048V87.3643H128.768V88.5H123.762ZM130.167 88.5V80.5615H135.174V81.6856H131.454V83.9339H134.479V85.0465H131.454V87.3643H135.174V88.5H130.167ZM135.808 81.7088V80.5615H141.603V81.7088H139.366V88.5H138.068V81.7088H135.808ZM147.885 88.6275C146.726 88.6275 145.938 88.3068 145.521 87.6656C145.111 87.0243 144.907 85.9697 144.907 84.5018C144.907 83.0338 145.115 81.9908 145.532 81.3727C145.95 80.7469 146.734 80.434 147.885 80.434C148.573 80.434 149.33 80.5306 150.157 80.7237L150.11 81.7668C149.415 81.6431 148.719 81.5813 148.024 81.5813C147.329 81.5813 146.858 81.7899 146.61 82.2071C146.363 82.6166 146.239 83.3931 146.239 84.5365C146.239 85.6723 146.359 86.4487 146.599 86.8659C146.838 87.2754 147.306 87.4802 148.001 87.4802C148.696 87.4802 149.399 87.4222 150.11 87.3063L150.145 88.3725C149.349 88.5425 148.596 88.6275 147.885 88.6275ZM152.752 85.962C152.752 86.9896 153.293 87.5033 154.374 87.5033C155.456 87.5033 155.997 86.9896 155.997 85.962V80.5615H157.295V85.9388C157.295 86.8737 157.048 87.5574 156.553 87.9901C156.066 88.415 155.336 88.6275 154.363 88.6275C153.397 88.6275 152.671 88.415 152.184 87.9901C151.697 87.5574 151.454 86.8737 151.454 85.9388V80.5615H152.752V85.962ZM161.39 81.5582C160.409 81.5582 159.918 81.902 159.918 82.5896C159.918 82.945 160.034 83.1999 160.266 83.3545C160.498 83.5013 161.008 83.6867 161.796 83.9107C162.592 84.1271 163.152 84.3897 163.476 84.6988C163.801 85.0001 163.963 85.4791 163.963 86.1358C163.963 86.9702 163.723 87.5961 163.244 88.0133C162.773 88.4227 162.128 88.6275 161.309 88.6275C160.652 88.6275 159.926 88.5502 159.13 88.3957L158.713 88.3146L158.841 87.2831C159.884 87.4222 160.679 87.4918 161.228 87.4918C162.186 87.4918 162.665 87.0668 162.665 86.217C162.665 85.8847 162.557 85.6414 162.341 85.4868C162.124 85.3246 161.637 85.1508 160.88 84.9653C160.123 84.7722 159.559 84.5095 159.188 84.1773C158.817 83.8451 158.632 83.3197 158.632 82.6012C158.632 81.8826 158.864 81.3418 159.327 80.9787C159.799 80.6078 160.448 80.4224 161.274 80.4224C161.869 80.4224 162.572 80.492 163.384 80.631L163.789 80.7006L163.685 81.7436C162.603 81.62 161.838 81.5582 161.39 81.5582ZM164.588 81.7088V80.5615H170.383V81.7088H168.146V88.5H166.848V81.7088H164.588ZM172.697 86.8196C172.959 87.2754 173.462 87.5033 174.203 87.5033C174.945 87.5033 175.443 87.2793 175.698 86.8312C175.961 86.3831 176.092 85.6336 176.092 84.5829C176.092 83.5244 175.957 82.7557 175.687 82.2767C175.424 81.7977 174.93 81.5582 174.203 81.5582C173.477 81.5582 172.979 81.7977 172.708 82.2767C172.438 82.7557 172.303 83.5206 172.303 84.5713C172.303 85.6143 172.434 86.3637 172.697 86.8196ZM176.707 87.654C176.235 88.303 175.401 88.6275 174.203 88.6275C173.006 88.6275 172.167 88.303 171.688 87.654C171.209 86.9973 170.97 85.9697 170.97 84.5713C170.97 83.1729 171.209 82.1337 171.688 81.4538C172.175 80.774 173.013 80.434 174.203 80.434C175.393 80.434 176.228 80.774 176.707 81.4538C177.186 82.126 177.425 83.1652 177.425 84.5713C177.425 85.9774 177.186 87.005 176.707 87.654ZM178.923 88.5V80.5615H181.16L182.933 86.7616L184.706 80.5615H186.954V88.5H185.656V81.9869H185.482L183.605 88.1755H182.261L180.383 81.9869H180.209V88.5H178.923ZM188.769 88.5V80.5615H193.776V81.6856H190.055V83.9339H193.08V85.0465H190.055V87.3643H193.776V88.5H188.769ZM196.461 85.6723V88.5H195.175V80.5615H198.188C199.98 80.5615 200.877 81.4036 200.877 83.0879C200.877 84.2159 200.444 84.9808 199.579 85.3825L200.888 88.5H199.474L198.327 85.6723H196.461ZM199.555 83.0995C199.555 82.1492 199.1 81.674 198.188 81.674H196.461V84.5597H198.211C198.675 84.5597 199.015 84.4284 199.231 84.1657C199.447 83.8953 199.555 83.5399 199.555 83.0995ZM204.885 88.5V80.5615H207.133L209.544 87.3643H209.718V80.5615H211.004V88.5H208.802L206.334 81.6856H206.172V88.5H204.885ZM212.83 88.5V80.5615H217.836V81.6856H214.116V83.9339H217.141V85.0465H214.116V87.3643H217.836V88.5H212.83ZM219.236 88.5V80.5615H224.242V81.6856H220.522V83.9339H223.547V85.0465H220.522V87.3643H224.242V88.5H219.236ZM228.388 88.5H225.641V80.5615H228.388C229.609 80.5615 230.443 80.8705 230.891 81.4886C231.339 82.1067 231.563 83.0763 231.563 84.3975C231.563 85.0696 231.517 85.6414 231.424 86.1127C231.339 86.5762 231.185 86.9973 230.961 87.3759C230.52 88.1253 229.663 88.5 228.388 88.5ZM230.231 84.3975C230.231 83.4394 230.111 82.748 229.871 82.323C229.632 81.8981 229.137 81.6856 228.388 81.6856H226.928V87.3643H228.388C229.153 87.3643 229.663 87.0823 229.918 86.5183C230.041 86.2324 230.122 85.9272 230.161 85.6027C230.207 85.2782 230.231 84.8765 230.231 84.3975ZM235.395 81.5582C234.414 81.5582 233.923 81.902 233.923 82.5896C233.923 82.945 234.039 83.1999 234.271 83.3545C234.503 83.5013 235.013 83.6867 235.801 83.9107C236.596 84.1271 237.157 84.3897 237.481 84.6988C237.806 85.0001 237.968 85.4791 237.968 86.1358C237.968 86.9702 237.728 87.5961 237.249 88.0133C236.778 88.4227 236.133 88.6275 235.314 88.6275C234.657 88.6275 233.931 88.5502 233.135 88.3957L232.718 88.3146L232.845 87.2831C233.888 87.4222 234.684 87.4918 235.233 87.4918C236.191 87.4918 236.67 87.0668 236.67 86.217C236.67 85.8847 236.562 85.6414 236.345 85.4868C236.129 85.3246 235.642 85.1508 234.885 84.9653C234.128 84.7722 233.564 84.5095 233.193 84.1773C232.822 83.8451 232.637 83.3197 232.637 82.6012C232.637 81.8826 232.869 81.3418 233.332 80.9787C233.803 80.6078 234.452 80.4224 235.279 80.4224C235.874 80.4224 236.577 80.492 237.388 80.631L237.794 80.7006L237.69 81.7436C236.608 81.62 235.843 81.5582 235.395 81.5582Z" fill="#21436E"/>
<path d="M33 367C33 363.134 36.134 360 40 360H177C180.866 360 184 363.134 184 367V395C184 398.866 180.866 402 177 402H40C36.134 402 33 398.866 33 395V367Z" fill="white"/>
<path d="M33 367C33 363.134 36.134 360 40 360H177C180.866 360 184 363.134 184 367V395C184 398.866 180.866 402 177 402H40C36.134 402 33 398.866 33 395V367Z" fill="url(#paint7_linear_5757_4731)" fill-opacity="0.2"/>
<path d="M33 367C33 363.134 36.134 360 40 360H177C180.866 360 184 363.134 184 367V395C184 398.866 180.866 402 177 402H40C36.134 402 33 398.866 33 395V367Z" stroke="#C9D7E8" stroke-opacity="0.27" stroke-width="1.5"/>
<path d="M47.2318 385L49.1903 377.061H51.7515L53.7217 385H52.4237L51.9949 383.296H48.947L48.5182 385H47.2318ZM50.187 378.139L49.2019 382.161H51.7399L50.7664 378.139H50.187ZM59.3033 385H54.8531V377.061H56.1395V383.853H59.3033V385ZM60.3534 385V377.061H61.6398V385H60.3534ZM66.6991 381.964V380.828H68.9589V384.861C68.7503 384.915 68.3254 384.973 67.6841 385.035C67.0506 385.097 66.5909 385.127 66.305 385.127C65.0998 385.127 64.2692 384.795 63.8134 384.131C63.3575 383.466 63.1296 382.427 63.1296 381.013C63.1296 379.592 63.3614 378.556 63.825 377.907C64.2963 377.259 65.1075 376.934 66.2587 376.934C66.9386 376.934 67.7034 377.011 68.5533 377.166L68.9589 377.247L68.9126 378.267C67.9777 378.143 67.1394 378.081 66.3977 378.081C65.656 378.081 65.1461 378.29 64.868 378.707C64.5976 379.124 64.4624 379.897 64.4624 381.025C64.4624 382.153 64.5898 382.933 64.8448 383.366C65.1075 383.791 65.6329 384.003 66.4209 384.003C66.9849 384.003 67.406 383.969 67.6841 383.899V381.964H66.6991ZM70.5731 385V377.061H72.8213L75.2319 383.864H75.4057V377.061H76.6921V385H74.4902L72.0217 378.186H71.8594V385H70.5731ZM80.4269 377.061H81.7829L82.9186 383.887H83.1619L84.6685 377.085H86.1751L87.6817 383.887H87.9366L89.0724 377.061H90.4283L88.8638 385H86.7893L85.4218 378.638L84.0659 385H81.9799L80.4269 377.061ZM91.6235 385V377.061H92.9099V385H91.6235ZM93.9709 378.209V377.061H99.7655V378.209H97.5288V385H96.2308V378.209H93.9709ZM105.553 385V381.57H102.122V385H100.836V377.061H102.122V380.445H105.553V377.061H106.851V385H105.553ZM112.593 383.32C112.856 383.775 113.358 384.003 114.1 384.003C114.841 384.003 115.34 383.779 115.595 383.331C115.857 382.883 115.989 382.134 115.989 381.083C115.989 380.024 115.853 379.256 115.583 378.777C115.32 378.298 114.826 378.058 114.1 378.058C113.373 378.058 112.875 378.298 112.605 378.777C112.334 379.256 112.199 380.021 112.199 381.071C112.199 382.114 112.33 382.864 112.593 383.32ZM116.603 384.154C116.132 384.803 115.297 385.127 114.1 385.127C112.902 385.127 112.064 384.803 111.585 384.154C111.106 383.497 110.866 382.47 110.866 381.071C110.866 379.673 111.106 378.634 111.585 377.954C112.072 377.274 112.91 376.934 114.1 376.934C115.289 376.934 116.124 377.274 116.603 377.954C117.082 378.626 117.321 379.665 117.321 381.071C117.321 382.477 117.082 383.505 116.603 384.154ZM118.819 377.061H121.832C122.644 377.061 123.25 377.228 123.652 377.56C124.054 377.884 124.255 378.406 124.255 379.124C124.255 379.596 124.177 379.966 124.023 380.237C123.876 380.507 123.64 380.731 123.316 380.909C124.073 381.203 124.452 381.817 124.452 382.752C124.452 384.251 123.609 385 121.925 385H118.819V377.061ZM121.832 381.535H120.106V383.887H121.856C122.281 383.887 122.597 383.799 122.806 383.621C123.022 383.443 123.13 383.138 123.13 382.705C123.13 382.273 123.007 381.971 122.76 381.801C122.512 381.624 122.203 381.535 121.832 381.535ZM121.763 378.174H120.106V380.445H121.809C122.566 380.445 122.945 380.055 122.945 379.275C122.945 378.541 122.551 378.174 121.763 378.174ZM125.141 385.823V384.687C125.55 384.687 125.828 384.625 125.975 384.502C126.13 384.378 126.207 384.104 126.207 383.679V377.061H127.482L127.493 383.772C127.493 384.598 127.32 385.147 126.972 385.417C126.624 385.688 126.014 385.823 125.141 385.823ZM129.265 385V377.061H134.272V378.186H130.552V380.434H133.576V381.546H130.552V383.864H134.272V385H129.265ZM138.269 385.127C137.11 385.127 136.322 384.807 135.904 384.166C135.495 383.524 135.29 382.47 135.29 381.002C135.29 379.534 135.499 378.491 135.916 377.873C136.333 377.247 137.117 376.934 138.269 376.934C138.956 376.934 139.713 377.031 140.54 377.224L140.494 378.267C139.798 378.143 139.103 378.081 138.408 378.081C137.712 378.081 137.241 378.29 136.994 378.707C136.747 379.117 136.623 379.893 136.623 381.037C136.623 382.172 136.743 382.949 136.982 383.366C137.222 383.775 137.689 383.98 138.384 383.98C139.08 383.98 139.783 383.922 140.494 383.806L140.528 384.873C139.733 385.042 138.979 385.127 138.269 385.127ZM141.142 378.209V377.061H146.937V378.209H144.7V385H143.402V378.209H141.142ZM148.007 385V377.061H149.293V385H148.007ZM155.512 377.061H156.856L154.909 385H152.383L150.436 377.061H151.78L153.356 383.864H153.935L155.512 377.061ZM158 385V377.061H163.007V378.186H159.287V380.434H162.311V381.546H159.287V383.864H163.007V385H158ZM166.735 378.058C165.754 378.058 165.264 378.402 165.264 379.09C165.264 379.445 165.379 379.7 165.611 379.854C165.843 380.001 166.353 380.187 167.141 380.411C167.937 380.627 168.497 380.89 168.821 381.199C169.146 381.5 169.308 381.979 169.308 382.636C169.308 383.47 169.069 384.096 168.59 384.513C168.118 384.923 167.473 385.127 166.654 385.127C165.998 385.127 165.271 385.05 164.476 384.896L164.058 384.815L164.186 383.783C165.229 383.922 166.025 383.992 166.573 383.992C167.531 383.992 168.01 383.567 168.01 382.717C168.01 382.385 167.902 382.141 167.686 381.987C167.469 381.825 166.983 381.651 166.225 381.465C165.468 381.272 164.904 381.009 164.533 380.677C164.163 380.345 163.977 379.82 163.977 379.101C163.977 378.383 164.209 377.842 164.673 377.479C165.144 377.108 165.793 376.922 166.619 376.922C167.214 376.922 167.917 376.992 168.729 377.131L169.134 377.201L169.03 378.244C167.948 378.12 167.183 378.058 166.735 378.058Z" fill="#21436E"/>
<path d="M432 367.5C432 363.634 435.134 360.5 439 360.5H564C567.866 360.5 571 363.634 571 367.5V395.5C571 399.366 567.866 402.5 564 402.5H439C435.134 402.5 432 399.366 432 395.5V367.5Z" fill="white"/>
<path d="M432 367.5C432 363.634 435.134 360.5 439 360.5H564C567.866 360.5 571 363.634 571 367.5V395.5C571 399.366 567.866 402.5 564 402.5H439C435.134 402.5 432 399.366 432 395.5V367.5Z" fill="url(#paint8_linear_5757_4731)" fill-opacity="0.2"/>
<path d="M432 367.5C432 363.634 435.134 360.5 439 360.5H564C567.866 360.5 571 363.634 571 367.5V395.5C571 399.366 567.866 402.5 564 402.5H439C435.134 402.5 432 399.366 432 395.5V367.5Z" stroke="#C9D7E8" stroke-opacity="0.27" stroke-width="1.5"/>
<path d="M446.916 385.5V377.561H451.922V378.686H448.202V380.934H451.227V382.046H448.202V384.364H451.922V385.5H446.916ZM453.321 385.5V377.561H455.569L457.98 384.364H458.154V377.561H459.44V385.5H457.238L454.77 378.686H454.608V385.5H453.321ZM465.983 385.5V382.07H462.552V385.5H461.266V377.561H462.552V380.945H465.983V377.561H467.281V385.5H465.983ZM468.414 385.5L470.373 377.561H472.934L474.904 385.5H473.606L473.177 383.796H470.129L469.7 385.5H468.414ZM471.369 378.639L470.384 382.661H472.922L471.949 378.639H471.369ZM476.035 385.5V377.561H478.284L480.694 384.364H480.868V377.561H482.154V385.5H479.952L477.484 378.686H477.322V385.5H476.035ZM486.646 385.627C485.487 385.627 484.699 385.307 484.281 384.666C483.872 384.024 483.667 382.97 483.667 381.502C483.667 380.034 483.876 378.991 484.293 378.373C484.71 377.747 485.494 377.434 486.646 377.434C487.333 377.434 488.09 377.531 488.917 377.724L488.871 378.767C488.175 378.643 487.48 378.581 486.785 378.581C486.089 378.581 485.618 378.79 485.371 379.207C485.124 379.617 485 380.393 485 381.537C485 382.672 485.12 383.449 485.359 383.866C485.599 384.275 486.066 384.48 486.762 384.48C487.457 384.48 488.16 384.422 488.871 384.306L488.906 385.373C488.11 385.542 487.356 385.627 486.646 385.627ZM490.284 385.5V377.561H495.29V378.686H491.57V380.934H494.595V382.046H491.57V384.364H495.29V385.5H490.284ZM499.236 385.5V377.561H504.243V378.686H500.522V380.934H503.547V382.046H500.522V384.364H504.243V385.5H499.236ZM505.642 385.5V377.561H510.567V378.686H506.928V381.363H509.953V382.487H506.928V385.5H505.642ZM511.776 385.5V377.561H516.701V378.686H513.062V381.363H516.087V382.487H513.062V385.5H511.776ZM517.91 385.5V377.561H519.196V385.5H517.91ZM523.688 385.627C522.529 385.627 521.741 385.307 521.323 384.666C520.914 384.024 520.709 382.97 520.709 381.502C520.709 380.034 520.918 378.991 521.335 378.373C521.752 377.747 522.536 377.434 523.688 377.434C524.375 377.434 525.132 377.531 525.959 377.724L525.913 378.767C525.217 378.643 524.522 378.581 523.827 378.581C523.131 378.581 522.66 378.79 522.413 379.207C522.166 379.617 522.042 380.393 522.042 381.537C522.042 382.672 522.162 383.449 522.401 383.866C522.641 384.275 523.108 384.48 523.804 384.48C524.499 384.48 525.202 384.422 525.913 384.306L525.948 385.373C525.152 385.542 524.398 385.627 523.688 385.627ZM527.326 385.5V377.561H528.612V385.5H527.326ZM530.438 385.5V377.561H535.445V378.686H531.725V380.934H534.749V382.046H531.725V384.364H535.445V385.5H530.438ZM536.844 385.5V377.561H539.092L541.503 384.364H541.677V377.561H542.963V385.5H540.761L538.293 378.686H538.13V385.5H536.844ZM547.454 385.627C546.295 385.627 545.507 385.307 545.09 384.666C544.681 384.024 544.476 382.97 544.476 381.502C544.476 380.034 544.684 378.991 545.102 378.373C545.519 377.747 546.303 377.434 547.454 377.434C548.142 377.434 548.899 377.531 549.726 377.724L549.679 378.767C548.984 378.643 548.289 378.581 547.593 378.581C546.898 378.581 546.427 378.79 546.179 379.207C545.932 379.617 545.809 380.393 545.809 381.537C545.809 382.672 545.928 383.449 546.168 383.866C546.407 384.275 546.875 384.48 547.57 384.48C548.266 384.48 548.969 384.422 549.679 384.306L549.714 385.373C548.918 385.542 548.165 385.627 547.454 385.627ZM554.013 385.5H552.715V382.232L550.223 377.561H551.672L553.352 380.969L555.044 377.561H556.482L554.013 382.232V385.5Z" fill="#21436E"/>
<path d="M504 70.5C504 66.634 507.134 63.5 511 63.5H638C641.866 63.5 645 66.634 645 70.5V98.5C645 102.366 641.866 105.5 638 105.5H511C507.134 105.5 504 102.366 504 98.5V70.5Z" fill="white"/>
<path d="M504 70.5C504 66.634 507.134 63.5 511 63.5H638C641.866 63.5 645 66.634 645 70.5V98.5C645 102.366 641.866 105.5 638 105.5H511C507.134 105.5 504 102.366 504 98.5V70.5Z" fill="url(#paint9_linear_5757_4731)" fill-opacity="0.2"/>
<path d="M504 70.5C504 66.634 507.134 63.5 511 63.5H638C641.866 63.5 645 66.634 645 70.5V98.5C645 102.366 641.866 105.5 638 105.5H511C507.134 105.5 504 102.366 504 98.5V70.5Z" stroke="#C9D7E8" stroke-opacity="0.27" stroke-width="1.5"/>
<path d="M521.662 88.5H518.916V80.5615H521.662C522.883 80.5615 523.717 80.8705 524.165 81.4886C524.613 82.1067 524.838 83.0763 524.838 84.3975C524.838 85.0696 524.791 85.6414 524.698 86.1127C524.613 86.5762 524.459 86.9973 524.235 87.3759C523.795 88.1253 522.937 88.5 521.662 88.5ZM523.505 84.3975C523.505 83.4394 523.385 82.748 523.146 82.323C522.906 81.8981 522.412 81.6856 521.662 81.6856H520.202V87.3643H521.662C522.427 87.3643 522.937 87.0823 523.192 86.5183C523.316 86.2324 523.397 85.9272 523.435 85.6027C523.482 85.2782 523.505 84.8765 523.505 84.3975ZM526.34 88.5V80.5615H531.346V81.6856H527.626V83.9339H530.651V85.0465H527.626V87.3643H531.346V88.5H526.34ZM537.196 88.5H532.745V80.5615H534.032V87.3527H537.196V88.5ZM538.246 88.5V80.5615H539.532V88.5H538.246ZM545.75 80.5615H547.095L545.148 88.5H542.621L540.674 80.5615H542.019L543.595 87.3643H544.174L545.75 80.5615ZM548.239 88.5V80.5615H553.246V81.6856H549.525V83.9339H552.55V85.0465H549.525V87.3643H553.246V88.5H548.239ZM555.931 85.6723V88.5H554.645V80.5615H557.658C559.45 80.5615 560.347 81.4036 560.347 83.0879C560.347 84.2159 559.914 84.9808 559.049 85.3825L560.358 88.5H558.944L557.797 85.6723H555.931ZM559.025 83.0995C559.025 82.1492 558.57 81.674 557.658 81.674H555.931V84.5597H557.681C558.145 84.5597 558.485 84.4284 558.701 84.1657C558.917 83.8953 559.025 83.5399 559.025 83.0995ZM564.469 88.5H563.171V85.2319L560.679 80.5615H562.128L563.808 83.9687L565.5 80.5615H566.937L564.469 85.2319V88.5ZM571.742 85.6723V88.5H570.455V80.5615H573.468C575.261 80.5615 576.157 81.4036 576.157 83.0879C576.157 84.2159 575.724 84.9808 574.859 85.3825L576.169 88.5H574.755L573.607 85.6723H571.742ZM574.836 83.0995C574.836 82.1492 574.38 81.674 573.468 81.674H571.742V84.5597H573.492C573.955 84.5597 574.295 84.4284 574.511 84.1657C574.728 83.8953 574.836 83.5399 574.836 83.0995ZM577.619 88.5V80.5615H582.626V81.6856H578.906V83.9339H581.93V85.0465H578.906V87.3643H582.626V88.5H577.619ZM583.341 88.5L585.3 80.5615H587.861L589.831 88.5H588.533L588.104 86.7964H585.056L584.627 88.5H583.341ZM586.296 81.6393L585.311 85.6607H587.849L586.876 81.6393H586.296ZM595.413 88.5H590.962V80.5615H592.249V87.3527H595.413V88.5ZM603.401 80.5615H604.746L602.799 88.5H600.272L598.325 80.5615H599.67L601.246 87.3643H601.825L603.401 80.5615ZM604.878 88.5L606.837 80.5615H609.398L611.368 88.5H610.07L609.641 86.7964H606.593L606.165 88.5H604.878ZM607.833 81.6393L606.848 85.6607H609.386L608.413 81.6393H607.833ZM616.95 88.5H612.499V80.5615H613.786V87.3527H616.95V88.5ZM619.126 85.962C619.126 86.9896 619.667 87.5033 620.749 87.5033C621.83 87.5033 622.371 86.9896 622.371 85.962V80.5615H623.669V85.9388C623.669 86.8737 623.422 87.5574 622.928 87.9901C622.441 88.415 621.711 88.6275 620.737 88.6275C619.771 88.6275 619.045 88.415 618.558 87.9901C618.072 87.5574 617.828 86.8737 617.828 85.9388V80.5615H619.126V85.962ZM625.435 88.5V80.5615H630.442V81.6856H626.722V83.9339H629.746V85.0465H626.722V87.3643H630.442V88.5H625.435Z" fill="#21436E"/>
</g>
<defs>
<filter id="filter0_d_5757_4731" x="-40" y="106.5" width="695" height="262.812" filterUnits="userSpaceOnUse" color-interpolation-filters="sRGB">
<feFlood flood-opacity="0" result="BackgroundImageFix"/>
<feColorMatrix in="SourceAlpha" type="matrix" values="0 0 0 0 0 0 0 0 0 0 0 0 0 0 0 0 0 0 127 0" result="hardAlpha"/>
<feOffset dx="-3" dy="9"/>
<feComposite in2="hardAlpha" operator="out"/>
<feColorMatrix type="matrix" values="0 0 0 0 0.737255 0 0 0 0 0.819608 0 0 0 0 0.94902 0 0 0 0.3 0"/>
<feBlend mode="normal" in2="BackgroundImageFix" result="effect1_dropShadow_5757_4731"/>
<feBlend mode="normal" in="SourceGraphic" in2="effect1_dropShadow_5757_4731" result="shape"/>
</filter>
<linearGradient id="paint0_linear_5757_4731" x1="107.644" y1="182.108" x2="-45.6424" y2="495.51" gradientUnits="userSpaceOnUse">
<stop stop-color="#F6F9FD"/>
<stop offset="1" stop-color="white"/>
</linearGradient>
<linearGradient id="paint1_linear_5757_4731" x1="332.895" y1="328.833" x2="242.197" y2="42.79" gradientUnits="userSpaceOnUse">
<stop stop-color="#B7CEF0"/>
<stop offset="1" stop-color="#E7EEFB"/>
</linearGradient>
<linearGradient id="paint2_linear_5757_4731" x1="239.208" y1="190.36" x2="170.8" y2="189.548" gradientUnits="userSpaceOnUse">
<stop stop-color="#FFB216"/>
<stop offset="1" stop-color="#FFB216" stop-opacity="0.14"/>
</linearGradient>
<linearGradient id="paint3_linear_5757_4731" x1="376.792" y1="190.86" x2="445.2" y2="190.048" gradientUnits="userSpaceOnUse">
<stop stop-color="#FFB216"/>
<stop offset="1" stop-color="#FFB216" stop-opacity="0.14"/>
</linearGradient>
<linearGradient id="paint4_linear_5757_4731" x1="447.792" y1="273.64" x2="516.2" y2="274.452" gradientUnits="userSpaceOnUse">
<stop stop-color="#FFB216"/>
<stop offset="1" stop-color="#FFB216" stop-opacity="0.14"/>
</linearGradient>
<linearGradient id="paint5_linear_5757_4731" x1="307.708" y1="273.64" x2="239.3" y2="274.452" gradientUnits="userSpaceOnUse">
<stop stop-color="#FFB216"/>
<stop offset="1" stop-color="#FFB216" stop-opacity="0.14"/>
</linearGradient>
<linearGradient id="paint6_linear_5757_4731" x1="125.36" y1="40.3382" x2="246.683" y2="166.518" gradientUnits="userSpaceOnUse">
<stop stop-color="white" stop-opacity="0"/>
<stop offset="1" stop-color="#F7FAFB"/>
</linearGradient>
<linearGradient id="paint7_linear_5757_4731" x1="58.8468" y1="336.838" x2="180.24" y2="460.632" gradientUnits="userSpaceOnUse">
<stop stop-color="white" stop-opacity="0"/>
<stop offset="1" stop-color="#F7FAFB"/>
</linearGradient>
<linearGradient id="paint8_linear_5757_4731" x1="455.793" y1="337.338" x2="576.967" y2="451.089" gradientUnits="userSpaceOnUse">
<stop stop-color="white" stop-opacity="0"/>
<stop offset="1" stop-color="#F7FAFB"/>
</linearGradient>
<linearGradient id="paint9_linear_5757_4731" x1="528.135" y1="40.3382" x2="649.406" y2="155.818" gradientUnits="userSpaceOnUse">
<stop stop-color="white" stop-opacity="0"/>
<stop offset="1" stop-color="#F7FAFB"/>
</linearGradient>
<clipPath id="clip0_5757_4731">
<rect width="673" height="467" rx="16" fill="white"/>
</clipPath>
</defs>
</svg>
