<svg width="32" height="32" viewBox="0 0 32 32" fill="none" xmlns="http://www.w3.org/2000/svg">
<path fill-rule="evenodd" clip-rule="evenodd" d="M6.34537 15.2438C6.895 15.2438 7.34229 15.6937 7.34229 16.2459C7.34229 16.7982 6.895 17.2477 6.34537 17.2477C5.79581 17.2477 5.34892 16.7983 5.34892 16.2459C5.34892 15.6936 5.79581 15.2438 6.34537 15.2438ZM12.772 8.8685C13.3215 8.8685 13.7685 9.31798 13.7685 9.87023C13.7685 10.4225 13.3216 10.8724 12.772 10.8724C12.222 10.8724 11.7751 10.4225 11.7751 9.87023C11.7751 9.31798 12.222 8.8685 12.772 8.8685ZM19.2062 15.2438C19.7557 15.2438 20.203 15.6937 20.203 16.2459C20.203 16.7982 19.7557 17.2477 19.2062 17.2477C18.6566 17.2477 18.2093 16.7983 18.2093 16.2459C18.2093 15.6936 18.6566 15.2438 19.2062 15.2438ZM25.632 8.8685C26.1815 8.8685 26.6288 9.31798 26.6288 9.87023C26.6288 10.4225 26.1815 10.8724 25.632 10.8724C25.0824 10.8724 24.6351 10.4225 24.6351 9.87023C24.6351 9.31798 25.0824 8.8685 25.632 8.8685ZM6.34537 18.1735C7.83977 18.1735 8.74826 16.5295 7.99371 15.2609L11.7707 11.5134C12.3849 11.8932 13.1596 11.8935 13.7737 11.513L17.557 15.2622C16.8042 16.5337 17.7146 18.1735 19.2062 18.1735C20.696 18.1735 21.6107 16.5358 20.8541 15.2609L24.6307 11.5134C25.8995 12.2968 27.5497 11.3783 27.5497 9.87016C27.5497 8.80762 26.6893 7.94302 25.632 7.94302C24.1425 7.94302 23.2273 9.58018 23.984 10.8552L20.207 14.6027C19.593 14.2225 18.8177 14.2231 18.2037 14.6031L14.4204 10.8539C15.1748 9.58275 14.2635 7.94302 12.772 7.94302C11.2832 7.94302 10.3677 9.57828 11.1237 10.8552L7.34668 14.6027C6.08095 13.8201 4.42768 14.7356 4.42768 16.2459C4.42762 17.3085 5.28801 18.1735 6.34537 18.1735ZM24.1333 27.5425V14.7271H27.1557V27.5425H24.1333ZM17.7035 27.5425V20.6285H20.7256V27.5425L17.7035 27.5425ZM11.2733 27.5425V15.8472H14.2962V27.5425H11.2733ZM4.84388 27.5425V22.007H7.86595V27.5425H4.84388ZM8.78725 25.6481H10.352V27.5425H8.78725V25.6481ZM15.2174 25.6481H16.7822V27.5425H15.2174V25.6481ZM21.6469 25.6481H23.212V27.5425H21.6469V25.6481ZM3.223 24.7224H3.92258V21.5443C3.92258 21.2888 4.12913 21.0812 4.38303 21.0812H8.3268C8.5807 21.0812 8.78725 21.2888 8.78725 21.5443V24.7224H10.352V15.3845C10.352 15.1282 10.5586 14.9214 10.8129 14.9214H14.7566C15.0109 14.9214 15.2175 15.1282 15.2175 15.3845V24.7223H16.7823V20.1654C16.7823 19.9098 16.9884 19.7027 17.2427 19.7027H21.1861C21.4412 19.7027 21.6469 19.9098 21.6469 20.1654V24.7223H23.2121V14.2644C23.2121 14.0088 23.4186 13.8017 23.6729 13.8017H27.6163C27.8706 13.8017 28.0772 14.0088 28.0772 14.2644V24.7223H28.7764C29.433 24.7223 29.9675 24.1857 29.9675 23.5254V6.12271C29.9675 5.46322 29.433 4.92575 28.7764 4.92575H3.223C2.56673 4.92575 2.03154 5.46322 2.03154 6.12271V23.5254C2.03154 24.1857 2.56673 24.7224 3.223 24.7224ZM30.7394 27.5425H28.077V25.6481H28.7763C29.9407 25.6481 30.8886 24.696 30.8886 23.5254V6.12271C30.8886 4.95218 29.9407 4 28.7763 4H3.223C2.05859 4 1.11064 4.95218 1.11064 6.12271V23.5254C1.11064 24.696 2.05859 25.6481 3.223 25.6481H3.92258V27.5425H1.26025C1.00595 27.5425 0.799805 27.7496 0.799805 28.0052C0.799805 28.2611 1.00595 28.4683 1.26025 28.4683H30.7394C30.9933 28.4683 31.1998 28.2611 31.1998 28.0052C31.1999 27.7496 30.9933 27.5425 30.7394 27.5425Z" fill="#FFB216"/>
</svg>
