<svg width="192" height="42" viewBox="0 0 192 42" fill="none" xmlns="http://www.w3.org/2000/svg">
<path d="M56.5642 6.15869C60.7963 6.15869 63.0656 7.74946 63.0656 11.7123C63.0656 14.3015 62.2557 15.582 60.546 16.5184C62.3823 17.2348 63.5943 18.5464 63.5943 21.4797C63.5943 25.8487 60.9481 27.5325 56.8117 27.5325H48.474V6.15869H56.5642ZM51.9272 9.15408V15.2718H56.4995C58.6142 15.2718 59.5478 14.2113 59.5478 12.1213C59.5478 10.0313 58.4904 9.1569 56.373 9.1569H51.9243L51.9272 9.15408ZM51.9272 18.2051V24.54H56.6261C58.7716 24.54 60.0483 23.8546 60.0483 21.2936C60.0483 18.7325 58.243 18.2051 56.5642 18.2051H51.9272Z" fill="#F2F6F9"/>
<path d="M65.7427 5.43945H69.134V27.5325H65.7427V5.43945Z" fill="#F2F6F9"/>
<path d="M84.6592 11.9321V27.5352H81.2988V26.5678C81.2988 26.5678 79.0267 27.8793 77.0976 27.8793C72.649 27.8793 71.7154 25.5693 71.7154 20.0778V11.9321H75.1067V20.1088C75.1067 23.5724 75.3261 24.8529 77.7528 24.8529C79.62 24.8529 81.2988 24.0406 81.2988 24.0406V11.9321H84.6592Z" fill="#F2F6F9"/>
<path d="M99.1552 24.6333L99.2171 27.1604C99.2171 27.1604 95.6711 27.8768 92.9322 27.8768C88.2642 27.8768 86.4617 25.3807 86.4617 19.8891C86.4617 14.3976 88.9194 11.5884 93.2134 11.5884C97.5074 11.5884 99.7457 13.8674 99.7457 18.7356L99.5292 21.1697H89.8839C89.9149 23.6658 90.8485 24.9153 93.4299 24.9153C96.0114 24.9153 99.1552 24.6333 99.1552 24.6333ZM96.4191 18.5466C96.4191 15.4271 95.4855 14.3948 93.2134 14.3948C90.9413 14.3948 89.8839 15.5484 89.853 18.5466H96.4163H96.4191Z" fill="#F2F6F9"/>
<path d="M102.732 16.4872C102.732 9.34004 104.754 5.34619 111.413 5.34619C118.072 5.34619 120.063 9.30901 120.063 16.4872C120.063 23.6654 118.072 27.4082 111.413 27.4082C104.754 27.4082 102.732 23.6936 102.732 16.4872ZM116.483 16.4872C116.483 11.1818 115.518 8.3726 111.41 8.3726C107.302 8.3726 106.309 11.1818 106.309 16.4872C106.309 21.7926 107.274 24.3818 111.41 24.3818C115.547 24.3818 116.483 21.9167 116.483 16.4872Z" fill="#F2F6F9"/>
<path d="M122.363 11.4637H125.723V13.3366C125.723 13.3366 128.367 11.6217 131.013 11.1196V14.5212C128.181 15.0824 125.754 16.174 125.754 16.174V27.064H122.363V11.4609V11.4637Z" fill="#F2F6F9"/>
<path d="M143.799 23.386C143.861 24.3224 144.266 24.6976 145.168 24.8217L145.076 27.4109C143.178 27.4109 142.089 27.1627 140.936 26.2573C140.936 26.2573 138.448 27.4109 135.928 27.4109C132.849 27.4109 131.291 25.696 131.291 22.4496C131.291 19.2032 133.096 18.0186 136.426 17.7366L140.439 17.3925V16.2699C140.439 14.555 139.691 14.0219 138.167 14.0219C136.083 14.0219 132.317 14.335 132.317 14.335L132.194 11.9319C132.194 11.9319 135.585 11.1196 138.448 11.1196C142.244 11.1196 143.799 12.7104 143.799 16.2699V23.386ZM136.828 20.1396C135.397 20.2637 134.682 20.9519 134.682 22.3566C134.682 23.7612 135.273 24.6355 136.581 24.6355C138.355 24.6355 140.439 23.9501 140.439 23.9501V19.8012L136.831 20.1453L136.828 20.1396Z" fill="#F2F6F9"/>
<path d="M146.752 27.0668V11.4637H150.112V12.4312C150.112 12.4312 152.384 11.1196 154.406 11.1196C158.731 11.1196 159.788 13.5848 159.788 18.704V27.0668H156.428V18.7971C156.428 15.6776 156.023 14.146 153.658 14.146C151.853 14.146 150.143 14.9583 150.143 14.9583V27.0668H146.752Z" fill="#F2F6F9"/>
<path d="M161.686 29.8142C161.686 28.2234 162.465 27.256 164.051 26.0375C163.399 25.6004 163.025 24.726 163.025 23.7586C163.025 23.0422 164.144 21.2624 164.144 21.2624C162.994 20.577 161.903 19.3896 161.903 16.5804C161.903 12.6486 164.546 11.1509 168.126 11.1509C169.557 11.1509 171.301 11.557 171.301 11.557L176.123 11.4329V14.1801L173.542 14.025C173.947 14.5552 174.383 15.3675 174.383 16.5832C174.383 20.8281 172.172 21.9816 168.036 21.9816C167.724 21.9816 166.948 21.9196 166.666 21.8575C166.666 21.8575 166.231 22.9181 166.231 23.3242C166.231 24.3227 166.574 24.5088 169.591 24.5427C174.506 24.5737 176.03 25.6032 176.03 29.1937C176.03 32.7842 173.013 34.3129 168.843 34.3129C164.144 34.3129 161.686 33.3765 161.686 29.8199V29.8142ZM166.259 27.287C165.387 28.0034 165.013 28.5365 165.013 29.504C165.013 30.9396 166.039 31.5319 168.871 31.5319C171.391 31.5319 172.636 30.9086 172.636 29.3799C172.636 27.696 171.826 27.507 169.307 27.476C168.342 27.476 166.259 27.2899 166.259 27.2899V27.287ZM171.019 16.5832C171.019 14.7104 170.21 13.805 168.126 13.805C166.042 13.805 165.263 14.7104 165.263 16.5832C165.263 18.456 166.135 19.3614 168.126 19.3614C170.117 19.3614 171.019 18.487 171.019 16.5832Z" fill="#F2F6F9"/>
<path d="M189.407 24.1645L189.469 26.6917C189.469 26.6917 185.923 27.4081 183.184 27.4081C178.516 27.4081 176.714 24.9119 176.714 19.4204C176.714 13.9289 179.172 11.1196 183.465 11.1196C187.759 11.1196 189.998 13.3986 189.998 18.2668L189.781 20.7009H180.136C180.167 23.1971 181.101 24.4466 183.682 24.4466C186.263 24.4466 189.407 24.1645 189.407 24.1645ZM186.668 18.0807C186.668 14.9612 185.735 13.9317 183.463 13.9317C181.191 13.9317 180.133 15.0853 180.102 18.0807H186.666H186.668Z" fill="#F2F6F9"/>
<g filter="url(#filter0_d_48_43)">
<path opacity="0.84" d="M38.0498 6.33056L27.26 3.10107L15.9978 10.0734L18.9336 22.8024L28.5395 28.3954L40.7437 20.1595L38.0498 6.33056Z" fill="url(#paint0_linear_48_43)"/>
<path opacity="0.6" d="M35.9492 4.88941L24.9289 3.63428L18.3346 12.5809L22.7608 22.7827L33.7811 24.0379L40.3782 15.0912L35.9492 4.88941Z" fill="url(#paint1_linear_48_43)"/>
<path opacity="0.74" d="M37.6308 7.59679L28.981 3.4873L21.6697 10.1014L20.7108 20.9435L34.366 24.7455L39.1521 16.8396L37.6308 7.59679Z" fill="url(#paint2_linear_48_43)"/>
<path opacity="0.65" d="M39.214 7.12308L29.5856 2.89795L19.3892 6.97077L19.631 20.1933L27.8927 26.4718L39.0171 19.8887L39.214 7.12308Z" fill="url(#paint3_linear_48_43)"/>
<path opacity="0.4" d="M25.5138 9.86166L36.0786 18.7745L37.2821 7.81396L25.5138 9.86166Z" fill="white"/>
<g opacity="0.89">
<g opacity="0.92">
<path d="M17.9494 8.73338L18.0563 19.1382L26.9535 23.2308L36.1292 18.8167L37.2821 7.81389L27.0379 3.37158L17.9494 8.73338Z" stroke="white" stroke-width="0.19" stroke-miterlimit="10"/>
<path d="M25.5419 9.91517L27.0379 3.37158C27.0379 3.37158 37.2962 7.81107 37.2793 7.81389L25.5391 9.91517H25.5419Z" stroke="white" stroke-width="0.19" stroke-miterlimit="10"/>
<path d="M17.9494 8.73345L25.5419 9.91525L18.0563 19.1383L23.1123 26.844L26.9535 23.2309L25.5419 9.91525L36.1292 18.8168L34.9987 25.3999V25.5183L41.1233 16.2445L37.2821 7.81396L41.1233 16.2445L36.0786 18.7745L26.9535 23.2309L34.9987 25.6396L23.1123 26.844" stroke="white" stroke-width="0.19" stroke-miterlimit="10"/>
</g>
<path d="M25.5953 10.5049C25.8314 10.5049 26.0227 10.313 26.0227 10.0762C26.0227 9.8394 25.8314 9.64746 25.5953 9.64746C25.3592 9.64746 25.1679 9.8394 25.1679 10.0762C25.1679 10.313 25.3592 10.5049 25.5953 10.5049Z" fill="white"/>
<path d="M37.2427 8.21437C37.4788 8.21437 37.6702 8.02243 37.6702 7.78565C37.6702 7.54888 37.4788 7.35693 37.2427 7.35693C37.0067 7.35693 36.8153 7.54888 36.8153 7.78565C36.8153 8.02243 37.0067 8.21437 37.2427 8.21437Z" fill="white"/>
<path d="M41.084 16.648C41.32 16.648 41.5114 16.456 41.5114 16.2192C41.5114 15.9825 41.32 15.7905 41.084 15.7905C40.8479 15.7905 40.6565 15.9825 40.6565 16.2192C40.6565 16.456 40.8479 16.648 41.084 16.648Z" fill="white"/>
<path d="M34.9622 25.9219C35.1982 25.9219 35.3896 25.7299 35.3896 25.4932C35.3896 25.2564 35.1982 25.0645 34.9622 25.0645C34.7261 25.0645 34.5347 25.2564 34.5347 25.4932C34.5347 25.7299 34.7261 25.9219 34.9622 25.9219Z" fill="white"/>
<path d="M36.1629 19.1748C36.399 19.1748 36.5903 18.9829 36.5903 18.7461C36.5903 18.5093 36.399 18.3174 36.1629 18.3174C35.9269 18.3174 35.7355 18.5093 35.7355 18.7461C35.7355 18.9829 35.9269 19.1748 36.1629 19.1748Z" fill="white"/>
<path d="M26.917 23.6314C27.153 23.6314 27.3444 23.4394 27.3444 23.2026C27.3444 22.9659 27.153 22.7739 26.917 22.7739C26.6809 22.7739 26.4895 22.9659 26.4895 23.2026C26.4895 23.4394 26.6809 23.6314 26.917 23.6314Z" fill="white"/>
<path d="M23.0729 27.2446C23.309 27.2446 23.5003 27.0527 23.5003 26.8159C23.5003 26.5792 23.309 26.3872 23.0729 26.3872C22.8369 26.3872 22.6455 26.5792 22.6455 26.8159C22.6455 27.0527 22.8369 27.2446 23.0729 27.2446Z" fill="white"/>
<path d="M18.149 19.4175C18.3851 19.4175 18.5765 19.2256 18.5765 18.9888C18.5765 18.752 18.3851 18.5601 18.149 18.5601C17.913 18.5601 17.7216 18.752 17.7216 18.9888C17.7216 19.2256 17.913 19.4175 18.149 19.4175Z" fill="white"/>
<path d="M27.0913 3.85402C27.3274 3.85402 27.5187 3.66207 27.5187 3.4253C27.5187 3.18853 27.3274 2.99658 27.0913 2.99658C26.8552 2.99658 26.6639 3.18853 26.6639 3.4253C26.6639 3.66207 26.8552 3.85402 27.0913 3.85402Z" fill="white"/>
<path d="M17.896 9.21583C18.132 9.21583 18.3234 9.02389 18.3234 8.78712C18.3234 8.55034 18.132 8.3584 17.896 8.3584C17.6599 8.3584 17.4685 8.55034 17.4685 8.78712C17.4685 9.02389 17.6599 9.21583 17.896 9.21583Z" fill="white"/>
</g>
</g>
<defs>
<filter id="filter0_d_48_43" x="0.157848" y="0.517949" width="41.3535" height="41.3376" filterUnits="userSpaceOnUse" color-interpolation-filters="sRGB">
<feFlood flood-opacity="0" result="BackgroundImageFix"/>
<feColorMatrix in="SourceAlpha" type="matrix" values="0 0 0 0 0 0 0 0 0 0 0 0 0 0 0 0 0 0 127 0" result="hardAlpha"/>
<feOffset dx="-7.92" dy="5.54"/>
<feGaussianBlur stdDeviation="3.96"/>
<feColorMatrix type="matrix" values="0 0 0 0 0.419608 0 0 0 0 0.419608 0 0 0 0 0.419608 0 0 0 0.76 0"/>
<feBlend mode="normal" in2="BackgroundImageFix" result="effect1_dropShadow_48_43"/>
<feBlend mode="normal" in="SourceGraphic" in2="effect1_dropShadow_48_43" result="shape"/>
</filter>
<linearGradient id="paint0_linear_48_43" x1="15.9759" y1="10.1236" x2="40.585" y2="20.5279" gradientUnits="userSpaceOnUse">
<stop stop-color="#F76D00"/>
<stop offset="0.11" stop-color="#F77D08"/>
<stop offset="0.33" stop-color="#F99916"/>
<stop offset="0.56" stop-color="#FAAD20"/>
<stop offset="0.78" stop-color="#FAB926"/>
<stop offset="1" stop-color="#FBBE29"/>
</linearGradient>
<linearGradient id="paint1_linear_48_43" x1="18.3323" y1="12.5829" x2="40.3791" y2="15.0795" gradientUnits="userSpaceOnUse">
<stop stop-color="#F7931E"/>
<stop offset="0.26" stop-color="#F89F2A"/>
<stop offset="0.63" stop-color="#FAAB36"/>
<stop offset="1" stop-color="#FBB03B"/>
</linearGradient>
<linearGradient id="paint2_linear_48_43" x1="21.2842" y1="12.1265" x2="39.3938" y2="15.574" gradientUnits="userSpaceOnUse">
<stop stop-color="#FCEE21"/>
<stop offset="0.26" stop-color="#FBEA22"/>
<stop offset="0.51" stop-color="#FBDE27"/>
<stop offset="0.76" stop-color="#FBCA2F"/>
<stop offset="1" stop-color="#FBB03B"/>
</linearGradient>
<linearGradient id="paint3_linear_48_43" x1="18.624" y1="8.29991" x2="38.9551" y2="20.0028" gradientUnits="userSpaceOnUse">
<stop stop-color="#F7931E"/>
<stop offset="0.26" stop-color="#F89F2A"/>
<stop offset="0.63" stop-color="#FAAB36"/>
<stop offset="1" stop-color="#FBB03B"/>
</linearGradient>
</defs>
</svg>
