<svg width="24" height="25" viewBox="0 0 24 25" fill="none" xmlns="http://www.w3.org/2000/svg">
<g clip-path="url(#clip0_48_31)">
<path d="M5.58661 8.05762H0.768566C0.554734 8.05762 0.38147 8.23096 0.38147 8.44471V23.923C0.38147 24.1368 0.554734 24.3101 0.768566 24.3101H5.58661C5.80044 24.3101 5.9737 24.1368 5.9737 23.923V8.44471C5.9737 8.23096 5.80044 8.05762 5.58661 8.05762Z" fill="#FFB216"/>
<path d="M3.1793 0.362793C1.42622 0.362793 0 1.78746 0 3.53861C0 5.29053 1.42622 6.71575 3.1793 6.71575C4.93099 6.71575 6.35605 5.29046 6.35605 3.53861C6.35613 1.78746 4.93099 0.362793 3.1793 0.362793Z" fill="#FFB216"/>
<path d="M17.8416 7.67285C15.9065 7.67285 14.476 8.50472 13.6084 9.44994V8.44465C13.6084 8.23089 13.4351 8.05755 13.2213 8.05755H8.60719C8.39336 8.05755 8.22009 8.23089 8.22009 8.44465V23.9229C8.22009 24.1368 8.39336 24.31 8.60719 24.31H13.4147C13.6285 24.31 13.8018 24.1368 13.8018 23.9229V16.2648C13.8018 13.6842 14.5028 12.6788 16.3017 12.6788C18.2608 12.6788 18.4165 14.2905 18.4165 16.3975V23.923C18.4165 24.1369 18.5898 24.3101 18.8036 24.3101H23.6129C23.8268 24.3101 24 24.1369 24 23.923V15.4329C24 11.5956 23.2683 7.67285 17.8416 7.67285Z" fill="#FFB216"/>
</g>
<defs>
<clipPath id="clip0_48_31">
<rect width="24" height="24" fill="white" transform="translate(0 0.336426)"/>
</clipPath>
</defs>
</svg>
