<svg width="33" height="32" viewBox="0 0 33 32" fill="none" xmlns="http://www.w3.org/2000/svg">
<path d="M8.44039 24.9967C8.67773 24.9967 8.87006 25.1891 8.87006 25.4264C8.87006 25.6638 8.67773 25.8561 8.44039 25.8561H5.34473C5.10739 25.8561 4.91506 25.6638 4.91506 25.4264C4.91506 25.1891 5.10739 24.9967 5.34473 24.9967H8.44039ZM8.44039 26.6217H5.34473C5.10739 26.6217 4.91506 26.8141 4.91506 27.0514C4.91506 27.2888 5.10739 27.4811 5.34473 27.4811H8.44039C8.67773 27.4811 8.87006 27.2888 8.87006 27.0514C8.87006 26.8141 8.67773 26.6217 8.44039 26.6217ZM8.44039 28.2467H5.34473C5.10739 28.2467 4.91506 28.4391 4.91506 28.6764C4.91506 28.9138 5.10739 29.1061 5.34473 29.1061H8.44039C8.67773 29.1061 8.87006 28.9138 8.87006 28.6764C8.87006 28.4391 8.67773 28.2467 8.44039 28.2467ZM14.9081 24.9967C14.6707 24.9967 14.4784 25.1891 14.4784 25.4264C14.4784 25.6638 14.6707 25.8561 14.9081 25.8561H18.0037C18.2411 25.8561 18.4334 25.6638 18.4334 25.4264C18.4334 25.1891 18.2411 24.9967 18.0037 24.9967H14.9081ZM18.0037 26.6217H14.9081C14.6707 26.6217 14.4784 26.8141 14.4784 27.0514C14.4784 27.2888 14.6707 27.4811 14.9081 27.4811H18.0037C18.2411 27.4811 18.4334 27.2888 18.4334 27.0514C18.4334 26.8141 18.2411 26.6217 18.0037 26.6217ZM18.0037 28.2467H14.9081C14.6707 28.2467 14.4784 28.4391 14.4784 28.6764C14.4784 28.9138 14.6707 29.1061 14.9081 29.1061H18.0037C18.2411 29.1061 18.4334 28.9138 18.4334 28.6764C18.4334 28.4391 18.2411 28.2467 18.0037 28.2467ZM29.3304 22.0584V30.2981C29.3304 30.7244 28.9837 31.0711 28.5574 31.0711H22.9251C22.4987 31.0711 22.1521 30.7244 22.1521 30.2981V23.5881C22.1521 23.3787 22.2304 23.1894 22.3784 23.0414L23.9084 21.5118C24.0564 21.3638 24.2454 21.2854 24.4551 21.2854H26.0924V20.1651H18.4777C18.3484 20.5274 18.0614 20.8148 17.6991 20.9438V21.3764H19.3051C19.7314 21.3764 20.0781 21.7231 20.0781 22.1494V30.3891C20.0781 30.8154 19.7314 31.1621 19.3051 31.1621H13.6724C13.2461 31.1621 12.8994 30.8154 12.8994 30.3891V23.6791C12.8994 23.4694 12.9777 23.2804 13.1261 23.1324L14.6557 21.6028C14.8037 21.4548 14.9927 21.3764 15.2024 21.3764H16.8397V20.9438C16.4774 20.8144 16.1901 20.5274 16.0611 20.1651H8.13573V21.3768H9.74173C10.1681 21.3768 10.5147 21.7234 10.5147 22.1498V30.3894C10.5147 30.8158 10.1681 31.1624 9.74173 31.1624H4.10906C3.68273 31.1624 3.33606 30.8158 3.33606 30.3894V23.6794C3.33606 23.4701 3.41439 23.2811 3.56239 23.1331L5.09239 21.6031C5.24039 21.4551 5.42939 21.3768 5.63906 21.3768H7.27639V19.7358C7.27639 19.4984 7.46873 19.3061 7.70606 19.3061H16.0607C16.1901 18.9438 16.4771 18.6564 16.8397 18.5271V17.8238H16.3421C16.1314 17.8238 15.9517 17.6708 15.9181 17.4628L15.6207 15.6231C15.0471 15.4734 14.5004 15.2468 13.9884 14.9464L12.4771 16.0374C12.3061 16.1608 12.0711 16.1421 11.9217 15.9928L10.6104 14.6814C10.4614 14.5324 10.4424 14.2971 10.5657 14.1261L11.6567 12.6147C11.3564 12.1027 11.1297 11.5557 10.9801 10.9824L9.14039 10.6851C8.93239 10.6514 8.77939 10.4718 8.77939 10.2611V8.40608C8.77939 8.19508 8.93239 8.01575 9.14039 7.98208L10.9801 7.68508C11.1297 7.11142 11.3564 6.56442 11.6567 6.05275L10.5657 4.54142C10.4424 4.37042 10.4614 4.13542 10.6104 3.98608L11.9217 2.67475C12.0707 2.52575 12.3061 2.50675 12.4771 2.63008L13.9884 3.72108C14.5004 3.42075 15.0474 3.19408 15.6207 3.04442L15.9181 1.20475C15.9517 0.99675 16.1314 0.84375 16.3421 0.84375H18.1967C18.4074 0.84375 18.5874 0.99675 18.6207 1.20475L18.9177 3.04442C19.4911 3.19408 20.0381 3.42075 20.5501 3.72108L22.0614 2.63008C22.2324 2.50675 22.4674 2.52542 22.6167 2.67475L23.9281 3.98608C24.0771 4.13508 24.0961 4.37042 23.9727 4.54142L22.8817 6.05275C23.1817 6.56475 23.4087 7.11175 23.5584 7.68508L25.3981 7.98208C25.6061 8.01575 25.7591 8.19542 25.7591 8.40608V10.2607C25.7591 10.4714 25.6061 10.6511 25.3981 10.6848L23.5584 10.9821C23.4087 11.5557 23.1821 12.1024 22.8817 12.6144L23.9727 14.1258C24.0961 14.2968 24.0771 14.5318 23.9281 14.6811L22.6167 15.9924C22.4677 16.1414 22.2324 16.1604 22.0614 16.0371L20.5501 14.9461C20.0377 15.2464 19.4911 15.4731 18.9177 15.6228L18.6207 17.4624C18.5871 17.6704 18.4074 17.8234 18.1967 17.8234H17.6991V18.5268C18.0614 18.6561 18.3487 18.9431 18.4781 19.3058H26.5224C26.7597 19.3058 26.9521 19.4981 26.9521 19.7354V21.2854H28.5581C28.9837 21.2854 29.3304 21.6321 29.3304 22.0584ZM16.7077 16.9641H17.8307L18.1154 15.2024C18.1437 15.0274 18.2767 14.8878 18.4501 14.8507C19.1224 14.7078 19.7567 14.4448 20.3354 14.0694C20.4841 13.9731 20.6767 13.9778 20.8207 14.0814L22.2681 15.1261L23.0621 14.3321L22.0171 12.8848C21.9134 12.7411 21.9084 12.5481 22.0051 12.3994C22.3801 11.8214 22.6431 11.1871 22.7864 10.5144C22.8234 10.3411 22.9631 10.2081 23.1381 10.1798L24.9001 9.89508V8.77208L23.1381 8.48742C22.9631 8.45908 22.8234 8.32642 22.7864 8.15275C22.6431 7.48008 22.3804 6.84575 22.0051 6.26775C21.9084 6.11908 21.9134 5.92608 22.0171 5.78242L23.0621 4.33508L22.2681 3.54108L20.8207 4.58575C20.6771 4.68942 20.4841 4.69442 20.3354 4.59775C19.7571 4.22242 19.1227 3.95975 18.4501 3.81642C18.2767 3.77942 18.1437 3.63975 18.1154 3.46475L17.8307 1.70275H16.7077L16.4231 3.46442C16.3947 3.63942 16.2617 3.77908 16.0884 3.81608C15.4161 3.95908 14.7817 4.22208 14.2034 4.59742C14.0547 4.69408 13.8617 4.68908 13.7181 4.58542L12.2707 3.54075L11.4767 4.33475L12.5217 5.78208C12.6254 5.92575 12.6304 6.11875 12.5337 6.26742C12.1587 6.84542 11.8957 7.47975 11.7524 8.15242C11.7154 8.32575 11.5757 8.45875 11.4007 8.48708L9.63906 8.77175V9.89475L11.4007 10.1794C11.5757 10.2078 11.7154 10.3407 11.7524 10.5141C11.8957 11.1864 12.1584 11.8208 12.5337 12.3994C12.6301 12.5481 12.6254 12.7411 12.5217 12.8848L11.4767 14.3321L12.2707 15.1261L13.7181 14.0814C13.8617 13.9778 14.0547 13.9731 14.2034 14.0694C14.7814 14.4444 15.4157 14.7074 16.0884 14.8507C16.2617 14.8878 16.3947 15.0274 16.4231 15.2024L16.7077 16.9641ZM4.80306 23.1074H5.06739V22.8431L4.80306 23.1074ZM9.65539 22.2357H5.92639V23.1937C5.92639 23.6201 5.57973 23.9667 5.15339 23.9667H4.19539V30.3027H9.65539V22.2357ZM14.3661 23.1074H14.6304V22.8431L14.3661 23.1074ZM19.2187 22.2357H15.4897V23.1937C15.4897 23.6201 15.1431 23.9667 14.7167 23.9667H13.7587V30.3027H19.2187V22.2357ZM17.6941 19.7354C17.6941 19.5011 17.5034 19.3108 17.2694 19.3108C17.0354 19.3108 16.8447 19.5014 16.8447 19.7354C16.8447 19.9694 17.0354 20.1601 17.2694 20.1601C17.5034 20.1601 17.6941 19.9694 17.6941 19.7354ZM23.6187 23.0164H23.8831V22.7521L23.6187 23.0164ZM28.4714 22.1448H24.7424V23.1028C24.7424 23.5291 24.3957 23.8758 23.9694 23.8758H23.0114V30.2118H28.4714V22.1448ZM24.1607 24.9058C23.9234 24.9058 23.7311 25.0981 23.7311 25.3354C23.7311 25.5728 23.9234 25.7651 24.1607 25.7651H27.2564C27.4937 25.7651 27.6861 25.5728 27.6861 25.3354C27.6861 25.0981 27.4937 24.9058 27.2564 24.9058H24.1607ZM27.2564 26.5308H24.1607C23.9234 26.5308 23.7311 26.7231 23.7311 26.9604C23.7311 27.1978 23.9234 27.3901 24.1607 27.3901H27.2564C27.4937 27.3901 27.6861 27.1978 27.6861 26.9604C27.6861 26.7231 27.4937 26.5308 27.2564 26.5308ZM27.2564 28.1558H24.1607C23.9234 28.1558 23.7311 28.3481 23.7311 28.5854C23.7311 28.8228 23.9234 29.0151 24.1607 29.0151H27.2564C27.4937 29.0151 27.6861 28.8228 27.6861 28.5854C27.6861 28.3481 27.4937 28.1558 27.2564 28.1558ZM17.2691 13.6601C14.8834 13.6601 12.9424 11.7191 12.9424 9.33342C12.9424 6.94775 14.8834 5.00675 17.2691 5.00675C19.6547 5.00675 21.5957 6.94775 21.5957 9.33342C21.5957 11.7191 19.6551 13.6601 17.2691 13.6601ZM18.5744 6.12175L17.8291 8.90375H20.7091C20.5524 7.64075 19.7141 6.58675 18.5744 6.12175ZM17.2691 12.8011C17.4304 12.8011 17.5891 12.7891 17.7444 12.7677L16.8541 9.44475C16.8527 9.44042 16.8524 9.43575 16.8514 9.43142C16.8494 9.42308 16.8477 9.41475 16.8464 9.40642C16.8451 9.39842 16.8441 9.39042 16.8431 9.38242C16.8421 9.37408 16.8414 9.36608 16.8407 9.35775C16.8404 9.34975 16.8401 9.34142 16.8401 9.33342C16.8401 9.32542 16.8404 9.31708 16.8407 9.30908C16.8411 9.30075 16.8421 9.29275 16.8431 9.28442C16.8441 9.27642 16.8451 9.26842 16.8464 9.26042C16.8477 9.25208 16.8497 9.24375 16.8514 9.23542C16.8524 9.23108 16.8531 9.22642 16.8541 9.22208L17.7444 5.89908C17.5887 5.87775 17.4304 5.86575 17.2691 5.86575C15.3571 5.86575 13.8014 7.42142 13.8014 9.33342C13.8014 11.2454 15.3571 12.8011 17.2691 12.8011ZM20.7091 9.76308H17.8291L18.5744 12.5451C19.7141 12.0801 20.5524 11.0261 20.7091 9.76308Z" fill="#FFB216"/>
</svg>
