<svg width="32" height="32" viewBox="0 0 32 32" fill="none" xmlns="http://www.w3.org/2000/svg">
<path d="M19.9409 9.71875H12.1708C10.7741 9.71875 9.6377 10.8551 9.6377 12.2519V19.75C9.6377 21.1468 10.7741 22.2831 12.1708 22.2831H19.9409C21.3377 22.2831 22.4741 21.1468 22.4741 19.75V12.2519C22.4741 10.8551 21.3377 9.71875 19.9409 9.71875ZM21.5141 19.75C21.5141 20.6174 20.8084 21.3231 19.9409 21.3231H12.1708C11.3034 21.3231 10.5977 20.6174 10.5977 19.75V12.2519C10.5977 11.3844 11.3034 10.6787 12.1708 10.6787H19.9409C20.8084 10.6787 21.5141 11.3844 21.5141 12.2519V19.75Z" fill="#FFB216"/>
<path d="M12.6442 6.1751V7.99485C12.6442 8.25994 12.859 8.47485 13.1242 8.47485C13.3893 8.47485 13.6042 8.25994 13.6042 7.99485V6.1751C14.4585 5.96023 15.093 5.18578 15.093 4.26572C15.093 3.18009 14.2098 2.29688 13.1242 2.29688C12.0385 2.29688 11.1553 3.18009 11.1553 4.26572C11.1553 5.18578 11.7898 5.96023 12.6442 6.1751ZM13.1242 3.25688C13.6804 3.25688 14.133 3.70944 14.133 4.26572C14.133 4.82197 13.6804 5.27453 13.1242 5.27453C12.5678 5.27453 12.1153 4.82197 12.1153 4.26572C12.1153 3.70944 12.5678 3.25688 13.1242 3.25688Z" fill="#FFB216"/>
<path d="M18.2848 6.1751V7.99485C18.2848 8.25994 18.4996 8.47485 18.7648 8.47485C19.0299 8.47485 19.2448 8.25994 19.2448 7.99485V6.1751C20.0991 5.96023 20.7336 5.18578 20.7336 4.26572C20.7336 3.18009 19.8504 2.29688 18.7648 2.29688C17.6791 2.29688 16.7959 3.18009 16.7959 4.26572C16.7959 5.18578 17.4304 5.96023 18.2848 6.1751ZM18.7648 3.25688C19.321 3.25688 19.7736 3.70944 19.7736 4.26572C19.7736 4.82197 19.321 5.27453 18.7648 5.27453C18.2085 5.27453 17.7559 4.82197 17.7559 4.26572C17.7559 3.70944 18.2085 3.25688 18.7648 3.25688Z" fill="#FFB216"/>
<path d="M19.3559 25.831V24.0113C19.3559 23.7462 19.1411 23.5312 18.8759 23.5312C18.6108 23.5312 18.3959 23.7462 18.3959 24.0113V25.831C17.5416 26.0459 16.9071 26.8203 16.9071 27.7404C16.9071 28.826 17.7903 29.7092 18.8759 29.7092C19.9616 29.7092 20.8448 28.826 20.8448 27.7404C20.8448 26.8203 20.2103 26.0459 19.3559 25.831ZM18.8759 28.7492C18.3197 28.7492 17.8671 28.2967 17.8671 27.7404C17.8671 27.1841 18.3197 26.7316 18.8759 26.7316C19.4323 26.7316 19.8848 27.1841 19.8848 27.7404C19.8848 28.2967 19.4323 28.7492 18.8759 28.7492Z" fill="#FFB216"/>
<path d="M13.7155 25.831V24.0113C13.7155 23.7462 13.5006 23.5312 13.2355 23.5312C12.9704 23.5312 12.7555 23.7462 12.7555 24.0113V25.831C11.9012 26.0459 11.2667 26.8203 11.2667 27.7404C11.2667 28.826 12.1499 29.7092 13.2355 29.7092C14.3211 29.7092 15.2044 28.826 15.2044 27.7404C15.2044 26.8203 14.5699 26.0459 13.7155 25.831ZM13.2355 28.7492C12.6793 28.7492 12.2267 28.2967 12.2267 27.7404C12.2267 27.1841 12.6793 26.7316 13.2355 26.7316C13.7918 26.7316 14.2444 27.1841 14.2444 27.7404C14.2444 28.2967 13.7918 28.7492 13.2355 28.7492Z" fill="#FFB216"/>
<path d="M24.0083 13.6051H25.8281C26.0429 14.4594 26.8174 15.0939 27.7375 15.0939C28.8231 15.0939 29.7063 14.2107 29.7063 13.1251C29.7063 12.0395 28.8231 11.1562 27.7375 11.1562C26.8174 11.1562 26.043 11.7907 25.8281 12.6451H24.0083C23.7432 12.6451 23.5283 12.86 23.5283 13.1251C23.5283 13.3902 23.7432 13.6051 24.0083 13.6051ZM27.7375 12.1162C28.2938 12.1162 28.7463 12.5688 28.7463 13.1251C28.7463 13.6813 28.2938 14.1339 27.7375 14.1339C27.1812 14.1339 26.7286 13.6813 26.7286 13.1251C26.7286 12.5688 27.1812 12.1162 27.7375 12.1162Z" fill="#FFB216"/>
<path d="M27.7375 16.7969C26.8174 16.7969 26.043 17.4314 25.8281 18.2857H24.0083C23.7432 18.2857 23.5283 18.5006 23.5283 18.7657C23.5283 19.0308 23.7432 19.2457 24.0083 19.2457H25.8281C26.0429 20.1001 26.8174 20.7346 27.7375 20.7346C28.8231 20.7346 29.7063 19.8513 29.7063 18.7657C29.7063 17.6801 28.8231 16.7969 27.7375 16.7969ZM27.7375 19.7746C27.1812 19.7746 26.7286 19.322 26.7286 18.7657C26.7286 18.2094 27.1812 17.7569 27.7375 17.7569C28.2938 17.7569 28.7463 18.2094 28.7463 18.7657C28.7463 19.322 28.2938 19.7746 27.7375 19.7746Z" fill="#FFB216"/>
<path d="M7.99195 18.3951H6.1722C5.95732 17.5407 5.18285 16.9062 4.26276 16.9062C3.17713 16.9062 2.29395 17.7895 2.29395 18.8751C2.29395 19.9607 3.17713 20.8439 4.26276 20.8439C5.18282 20.8439 5.95732 20.2094 6.1722 19.3551H7.99195C8.25707 19.3551 8.47195 19.1402 8.47195 18.8751C8.47195 18.61 8.25707 18.3951 7.99195 18.3951ZM4.26276 19.8839C3.70651 19.8839 3.25395 19.4313 3.25395 18.8751C3.25395 18.3188 3.70651 17.8663 4.26276 17.8663C4.81907 17.8663 5.27163 18.3188 5.27163 18.8751C5.27163 19.4313 4.81907 19.8839 4.26276 19.8839Z" fill="#FFB216"/>
<path d="M7.99195 12.7623H6.1722C5.95732 11.9079 5.18285 11.2734 4.26276 11.2734C3.17713 11.2734 2.29395 12.1567 2.29395 13.2423C2.29395 14.3279 3.17713 15.2111 4.26276 15.2111C5.18285 15.2111 5.95732 14.5766 6.1722 13.7223H7.99195C8.25707 13.7223 8.47195 13.5074 8.47195 13.2423C8.47195 12.9772 8.25707 12.7623 7.99195 12.7623ZM4.26276 14.2511C3.70651 14.2511 3.25395 13.7986 3.25395 13.2423C3.25395 12.686 3.70651 12.2334 4.26276 12.2334C4.81907 12.2334 5.27163 12.686 5.27163 13.2423C5.27163 13.7986 4.81907 14.2511 4.26276 14.2511Z" fill="#FFB216"/>
</svg>
