<svg width="64" height="64" viewBox="0 0 64 64" fill="none" xmlns="http://www.w3.org/2000/svg">
<path d="M47 23C40.54 23 34 24.7173 34 28V52C34.05 58.6459 59.9502 58.6469 60 51.9999V28C60 24.7173 53.46 23 47 23ZM58 52C58 53.0181 54.1172 55 47 55C39.8828 55 36 53.0181 36 52V46.783C38.4265 48.2433 42.7247 49 47 49C49.4325 49.0187 51.859 48.7579 54.2319 48.2227C54.4897 48.1609 54.7124 47.9994 54.8511 47.7736C54.9898 47.5478 55.0332 47.2761 54.9717 47.0183C54.9102 46.7605 54.7489 46.5377 54.5232 46.3987C54.2975 46.2598 54.0259 46.2161 53.7681 46.2773C51.5471 46.7762 49.2762 47.0187 47 47C39.8828 47 36 45.0181 36 44V38.783C40.868 41.7311 53.132 41.731 58 38.7829V52ZM58 36C58 37.0181 54.1172 39 47 39C39.8828 39 36 37.0181 36 36V30.783C40.868 33.7311 53.132 33.731 58 30.7829V36ZM47 31C39.8828 31 36 29.0181 36 28C36 26.9819 39.8828 25 47 25C54.1172 25 58 26.9819 58 28C58 29.0181 54.1172 31 47 31Z" fill="#FFB216"/>
<path d="M17 57C23.46 57 30 55.2827 30 52V28C29.95 21.354 4.0498 21.353 4 28V52C4 55.2827 10.54 57 17 57ZM17 25C24.1172 25 28 26.9819 28 28C28 29.0181 24.1172 31 17 31C9.88281 31 6 29.0181 6 28C6 26.9819 9.88281 25 17 25ZM6 30.783C10.868 33.7311 23.132 33.731 28 30.7829V36C27.3459 38.7363 15.5402 39.8188 10.2319 38.2771C9.97393 38.2156 9.70207 38.2591 9.47614 38.398C9.25021 38.5369 9.08873 38.7599 9.02722 39.0179C8.96571 39.2759 9.00921 39.5478 9.14814 39.7737C9.28708 39.9997 9.51007 40.1611 9.76807 40.2226C12.141 40.7579 14.5675 41.0187 17 41C21.2753 41 25.5735 40.2433 28 38.783V44C28 45.0181 24.1172 47 17 47C9.88281 47 6 45.0181 6 44V30.783ZM6 46.783C10.868 49.7311 23.132 49.731 28 46.7829V52C28 53.0181 24.1172 55 17 55C9.88281 55 6 53.0181 6 52V46.783Z" fill="#FFB216"/>
<path d="M16.2927 19.7067C16.4813 19.8924 16.7353 19.9965 17 19.9965C17.2647 19.9965 17.5188 19.8924 17.7073 19.7067L21.707 15.707C21.8881 15.5182 21.9879 15.2659 21.9852 15.0043C21.9824 14.7427 21.8773 14.4926 21.6923 14.3076C21.5073 14.1226 21.2572 14.0175 20.9956 14.0148C20.734 14.012 20.4817 14.1119 20.2929 14.293L18 16.5859V10C18.0003 9.73489 18.1058 9.48073 18.2933 9.29327C18.4807 9.10581 18.7349 9.00034 19 9H45C45.2651 9.00034 45.5193 9.10581 45.7067 9.29327C45.8942 9.48073 45.9997 9.73489 46 10V19C46 19.2652 46.1054 19.5196 46.2929 19.7071C46.4804 19.8946 46.7348 20 47 20C47.2652 20 47.5196 19.8946 47.7071 19.7071C47.8946 19.5196 48 19.2652 48 19V10C47.9991 9.20462 47.6828 8.44206 47.1204 7.87964C46.5579 7.31722 45.7954 7.00087 45 7H19C18.2046 7.00087 17.4421 7.31722 16.8796 7.87964C16.3172 8.44206 16.0009 9.20462 16 10V16.5859L13.707 14.2929C13.5182 14.1117 13.2659 14.0117 13.0042 14.0144C12.7425 14.0171 12.4923 14.1223 12.3073 14.3073C12.1223 14.4924 12.0171 14.7426 12.0145 15.0042C12.0118 15.2659 12.1118 15.5182 12.293 15.707L16.2927 19.7067Z" fill="#FFB216"/>
</svg>
