<svg width="64" height="64" viewBox="0 0 64 64" fill="none" xmlns="http://www.w3.org/2000/svg">
<path d="M39.67 24H24.33C23.4472 24.0011 22.6008 24.3522 21.9765 24.9765C21.3522 25.6008 21.0011 26.4472 21 27.33V31H10.554C9.61175 31.0011 8.70839 31.3758 8.04211 32.0421C7.37584 32.7084 7.00106 33.6117 7 34.554V50.446C7.00106 51.3883 7.37584 52.2916 8.04211 52.9579C8.70839 53.6242 9.61175 53.9989 10.554 54H15.706L13.348 56.358C13.1658 56.5466 13.065 56.7992 13.0673 57.0614C13.0696 57.3236 13.1748 57.5744 13.3602 57.7598C13.5456 57.9452 13.7964 58.0504 14.0586 58.0527C14.3208 58.055 14.5734 57.9542 14.762 57.772L19.612 52.922L14.92 48.23C14.7314 48.0478 14.4788 47.947 14.2166 47.9493C13.9544 47.9516 13.7036 48.0568 13.5182 48.2422C13.3328 48.4276 13.2276 48.6784 13.2253 48.9406C13.223 49.2028 13.3238 49.4554 13.506 49.644L15.862 52H10.554C10.142 51.9995 9.74706 51.8356 9.45574 51.5443C9.16442 51.2529 9.00053 50.858 9 50.446V34.554C9.00053 34.142 9.16442 33.7471 9.45574 33.4557C9.74706 33.1644 10.142 33.0005 10.554 33H21V36.67C21.0011 37.5528 21.3522 38.3992 21.9765 39.0235C22.6008 39.6478 23.4472 39.9989 24.33 40H39.67C40.5528 39.9989 41.3992 39.6478 42.0235 39.0235C42.6478 38.3992 42.9989 37.5528 43 36.67V27.33C42.9989 26.4472 42.6478 25.6008 42.0235 24.9765C41.3992 24.3522 40.5528 24.0011 39.67 24ZM41 36.67C40.9989 37.0224 40.8585 37.3601 40.6093 37.6093C40.3601 37.8585 40.0224 37.9989 39.67 38H24.33C23.9776 37.9989 23.6399 37.8585 23.3907 37.6093C23.1415 37.3601 23.0011 37.0224 23 36.67V27.33C23.0011 26.9776 23.1415 26.6399 23.3907 26.3907C23.6399 26.1415 23.9776 26.0011 24.33 26H39.67C40.0224 26.0011 40.3601 26.1415 40.6093 26.3907C40.8585 26.6399 40.9989 26.9776 41 27.33V36.67Z" fill="#060520"/>
<path d="M39.67 45H24.33C23.4472 45.0011 22.6008 45.3522 21.9765 45.9765C21.3522 46.6008 21.0011 47.4472 21 48.33V57.67C21.0011 58.5528 21.3522 59.3992 21.9765 60.0235C22.6008 60.6478 23.4472 60.9989 24.33 61H39.67C40.5528 60.9989 41.3992 60.6478 42.0235 60.0235C42.6478 59.3992 42.9989 58.5528 43 57.67V48.33C42.9989 47.4472 42.6478 46.6008 42.0235 45.9765C41.3992 45.3522 40.5528 45.0011 39.67 45ZM41 57.67C40.9989 58.0224 40.8585 58.3601 40.6093 58.6093C40.3601 58.8585 40.0224 58.9989 39.67 59H24.33C23.9776 58.9989 23.6399 58.8585 23.3907 58.6093C23.1415 58.3601 23.0011 58.0224 23 57.67V48.33C23.0011 47.9776 23.1415 47.6399 23.3907 47.3907C23.6399 47.1415 23.9776 47.0011 24.33 47H39.67C40.0224 47.0011 40.3601 47.1415 40.6093 47.3907C40.8585 47.6399 40.9989 47.9776 41 48.33V57.67Z" fill="#060520"/>
<path d="M53.446 10H43V6.33C42.9989 5.44715 42.6478 4.60077 42.0235 3.9765C41.3992 3.35224 40.5528 3.00106 39.67 3H24.33C23.4472 3.00106 22.6008 3.35224 21.9765 3.9765C21.3522 4.60077 21.0011 5.44715 21 6.33V15.67C21.0011 16.5528 21.3522 17.3992 21.9765 18.0235C22.6008 18.6478 23.4472 18.9989 24.33 19H39.67C40.5528 18.9989 41.3992 18.6478 42.0235 18.0235C42.6478 17.3992 42.9989 16.5528 43 15.67V12H53.446C53.858 12.0005 54.2529 12.1644 54.5443 12.4557C54.8356 12.7471 54.9995 13.142 55 13.554V29.446C54.9995 29.858 54.8356 30.2529 54.5443 30.5443C54.2529 30.8356 53.858 30.9995 53.446 31H48.138L50.494 28.644C50.5895 28.5518 50.6657 28.4414 50.7181 28.3194C50.7705 28.1974 50.7981 28.0662 50.7993 27.9334C50.8004 27.8006 50.7751 27.6689 50.7248 27.546C50.6745 27.4231 50.6003 27.3115 50.5064 27.2176C50.4125 27.1237 50.3009 27.0495 50.178 26.9992C50.0551 26.9489 49.9234 26.9236 49.7906 26.9247C49.6578 26.9259 49.5266 26.9535 49.4046 27.0059C49.2826 27.0583 49.1722 27.1345 49.08 27.23L44.388 31.922L49.238 36.772C49.4266 36.9542 49.6792 37.055 49.9414 37.0527C50.2036 37.0504 50.4544 36.9452 50.6398 36.7598C50.8252 36.5744 50.9304 36.3236 50.9327 36.0614C50.935 35.7992 50.8342 35.5466 50.652 35.358L48.294 33H53.446C54.3883 32.9989 55.2916 32.6242 55.9579 31.9579C56.6242 31.2916 56.9989 30.3883 57 29.446V13.554C56.9989 12.6117 56.6242 11.7084 55.9579 11.0421C55.2916 10.3758 54.3883 10.0011 53.446 10ZM41 15.67C40.9989 16.0224 40.8585 16.3601 40.6093 16.6093C40.3601 16.8585 40.0224 16.9989 39.67 17H24.33C23.9776 16.9989 23.6399 16.8585 23.3907 16.6093C23.1415 16.3601 23.0011 16.0224 23 15.67V6.33C23.0011 5.97759 23.1415 5.63991 23.3907 5.39071C23.6399 5.14152 23.9776 5.00106 24.33 5H39.67C40.0224 5.00106 40.3601 5.14152 40.6093 5.39071C40.8585 5.63991 40.9989 5.97759 41 6.33V15.67Z" fill="#060520"/>
</svg>
