<svg width="36" height="36" viewBox="0 0 36 36" fill="none" xmlns="http://www.w3.org/2000/svg">
<g clip-path="url(#clip0_5_313)">
<path d="M35.596 20.1442C35.3122 19.8394 34.9104 19.6644 34.4938 19.6644H31.575V19.3785C31.575 16.4636 29.2036 14.0922 26.2886 14.0922C23.3739 14.0922 21.0026 16.4636 21.0026 19.3785V19.6644H18.0838C17.6671 19.6644 17.2653 19.8394 16.9816 20.1442C16.6976 20.4491 16.5517 20.8622 16.5814 21.2778L17.159 29.3892H1.05469V10.8723C1.05469 10.4392 1.40707 10.0871 1.84021 10.0871H4.88177V11.8935C4.88177 12.3363 5.24185 12.6963 5.6846 12.6963H7.17105C7.6138 12.6963 7.97415 12.3363 7.97415 11.8935V10.0871H16.4053V11.8935C16.4053 12.3363 16.7654 12.6963 17.2081 12.6963H18.6949C19.1376 12.6963 19.4977 12.3363 19.4977 11.8935V10.0871H22.5395C22.9724 10.0871 23.3251 10.4392 23.3251 10.8723V13.0971C23.3251 13.3882 23.561 13.6244 23.8524 13.6244C24.1435 13.6244 24.3797 13.3882 24.3797 13.0971V10.8723C24.3797 9.85775 23.5541 9.0324 22.5395 9.0324H19.4977V4.04352C19.4977 2.0852 17.9047 0.492188 15.9464 0.492188H8.43283C6.47479 0.492188 4.88177 2.0852 4.88177 4.04352V6.59426C4.88177 6.88568 5.1177 7.12161 5.40912 7.12161C5.70025 7.12161 5.93646 6.88568 5.93646 6.59426V4.04352C5.93646 2.66693 7.05624 1.54687 8.43283 1.54687H15.9464C17.323 1.54687 18.443 2.66693 18.443 4.04352V11.6417H17.46V9.57046C17.46 9.56689 17.46 9.56332 17.46 9.55947C17.46 9.5559 17.46 9.55233 17.46 9.54876V4.47802C17.46 3.40384 16.5858 2.52988 15.5116 2.52988H8.86761C7.79342 2.52988 6.91919 3.40384 6.91919 4.47802V11.6417H5.93646V9.57046C5.93646 9.56689 5.93646 9.56332 5.93646 9.55947C5.93646 9.5559 5.93646 9.55233 5.93646 9.54876V8.70364C5.93646 8.4125 5.70025 8.17629 5.40912 8.17629C5.1177 8.17629 4.88177 8.4125 4.88177 8.70364V9.03213H1.84021C0.825347 9.03213 0 9.85775 0 10.8723V31.7389C0 32.7535 0.825347 33.5791 1.84021 33.5791H17.4573L17.4842 33.9573C17.5452 34.8118 18.2637 35.4809 19.12 35.4809H33.4575C34.3139 35.4809 35.0324 34.8118 35.0933 33.9573L35.3856 29.852C35.4064 29.5617 35.1875 29.3093 34.897 29.2887C34.6083 29.2678 34.3542 29.4867 34.3336 29.777L34.0414 33.8826C34.0194 34.1875 33.7632 34.4262 33.4575 34.4262H19.12C18.8146 34.4262 18.5581 34.1875 18.5364 33.8826L18.4754 33.026C18.4751 33.018 18.4743 33.01 18.4738 33.0021L18.2529 29.9017C18.2524 29.8864 18.2513 29.871 18.2497 29.8559L17.6336 21.2025C17.6245 21.0762 17.6671 20.9556 17.7536 20.8627C17.8399 20.7702 17.9571 20.7191 18.084 20.7191H21.0026V21.6021C20.2651 21.8282 19.7273 22.5156 19.7273 23.3262C19.7273 24.3204 20.5359 25.129 21.5299 25.129C22.5242 25.129 23.3327 24.3204 23.3327 23.3262C23.3327 22.5156 22.795 21.8282 22.0572 21.6021V20.7191H30.5203V21.6021C29.7828 21.8282 29.245 22.5156 29.245 23.3262C29.245 24.3204 30.0536 25.129 31.0476 25.129C32.0419 25.129 32.8505 24.3204 32.8505 23.3262C32.8505 22.5156 32.3127 21.8282 31.575 21.6021V20.7191H34.4938C34.6206 20.7191 34.7379 20.7702 34.8242 20.8627C34.9107 20.9556 34.9533 21.0762 34.9442 21.2028L34.483 27.6784C34.4624 27.969 34.6811 28.2214 34.9717 28.242C35.2614 28.2637 35.5144 28.044 35.5353 27.7534L35.9961 21.2778C36.0258 20.8622 35.88 20.4488 35.596 20.1442ZM8.86761 3.58456H15.5116C16.0043 3.58456 16.4053 3.98529 16.4053 4.47802V9.0324H7.97387V4.47802C7.97387 3.98529 8.37487 3.58456 8.86761 3.58456ZM1.84021 32.5245C1.40707 32.5245 1.05469 32.1721 1.05469 31.7389V30.4439H17.2342L17.3823 32.5245H1.84021ZM22.2781 23.3262C22.2781 23.7387 21.9424 24.0743 21.5299 24.0743C21.1174 24.0743 20.782 23.7387 20.782 23.3262C20.782 23.0878 20.8941 22.8749 21.0685 22.7378C21.1583 22.9002 21.3313 23.0097 21.5299 23.0097C21.7285 23.0097 21.9015 22.9002 21.9913 22.7378C22.1657 22.8749 22.2781 23.0878 22.2781 23.3262ZM31.7958 23.3262C31.7958 23.7387 31.4602 24.0743 31.0476 24.0743C30.6351 24.0743 30.2994 23.7387 30.2994 23.3262C30.2994 23.0878 30.4118 22.8749 30.5862 22.7378C30.676 22.9002 30.849 23.0097 31.0476 23.0097C31.2462 23.0097 31.4192 22.9002 31.509 22.7378C31.6835 22.8749 31.7958 23.0878 31.7958 23.3262ZM24.3795 19.6644V17.761C24.3795 17.4696 24.1435 17.2337 23.8521 17.2337C23.5607 17.2337 23.3248 17.4696 23.3248 17.761V19.6644H22.0572V19.3785C22.0572 17.0453 23.9554 15.1468 26.2889 15.1468C28.6221 15.1468 30.5203 17.0453 30.5203 19.3785V19.6644H24.3795Z" fill="#FFB216"/>
</g>
<defs>
<clipPath id="clip0_5_313">
<rect width="36" height="36" fill="white"/>
</clipPath>
</defs>
</svg>
