<svg width="36" height="36" viewBox="0 0 36 36" fill="none" xmlns="http://www.w3.org/2000/svg">
<g clip-path="url(#clip0_5_297)">
<path d="M24.4733 12.9473C22.1935 12.9473 19.9649 13.6233 18.0693 14.8899C16.1737 16.1565 14.6963 17.9568 13.8239 20.0631C12.9515 22.1694 12.7233 24.4871 13.1681 26.723C13.6129 28.959 14.7108 31.0129 16.3229 32.6249C17.935 34.2369 19.989 35.3347 22.225 35.7794C24.461 36.2241 26.7787 35.9957 28.8849 35.1231C30.9911 34.2506 32.7913 32.7731 34.0578 30.8774C35.3243 28.9817 36.0002 26.7531 36 24.4733C35.9967 21.4173 34.7811 18.4875 32.6202 16.3266C30.4592 14.1658 27.5293 12.9504 24.4733 12.9473ZM24.4733 34.5C22.4902 34.5 20.5516 33.912 18.9027 32.8102C17.2538 31.7085 15.9687 30.1425 15.2098 28.3103C14.4509 26.4782 14.2523 24.4621 14.6392 22.5171C15.0261 20.5721 15.981 18.7855 17.3833 17.3833C18.7856 15.981 20.5722 15.0261 22.5172 14.6392C24.4622 14.2523 26.4782 14.4509 28.3104 15.2098C30.1425 15.9687 31.7085 17.2538 32.8102 18.9027C33.912 20.5516 34.5 22.4902 34.5 24.4733C34.4971 27.1316 33.4397 29.6802 31.56 31.56C29.6802 33.4397 27.1316 34.497 24.4733 34.5Z" fill="#FFB216"/>
<path d="M23.2095 20.8237H25.4393C25.824 20.8239 26.193 20.9769 26.465 21.249C26.737 21.5212 26.8898 21.8902 26.8898 22.275C26.8898 22.4739 26.9688 22.6646 27.1095 22.8053C27.2501 22.9459 27.4409 23.025 27.6398 23.025C27.8387 23.025 28.0295 22.9459 28.1701 22.8053C28.3108 22.6646 28.3898 22.4739 28.3898 22.275C28.3888 21.4928 28.0776 20.743 27.5245 20.19C26.9713 19.637 26.2214 19.326 25.4393 19.3252H25.0748V17.481C25.0748 17.282 24.9958 17.0913 24.8551 16.9506C24.7145 16.81 24.5237 16.731 24.3248 16.731C24.1259 16.731 23.9351 16.81 23.7945 16.9506C23.6538 17.0913 23.5748 17.282 23.5748 17.481V19.3237H23.2095C22.4272 19.3237 21.6769 19.6345 21.1237 20.1877C20.5706 20.7409 20.2598 21.4911 20.2598 22.2735C20.2598 23.0558 20.5706 23.8061 21.1237 24.3592C21.6769 24.9124 22.4272 25.2232 23.2095 25.2232H25.4393C25.6325 25.2188 25.8246 25.2531 26.0044 25.324C26.1842 25.3949 26.348 25.501 26.4862 25.6361C26.6244 25.7712 26.7342 25.9325 26.8092 26.1106C26.8841 26.2888 26.9228 26.4801 26.9228 26.6733C26.9228 26.8666 26.8841 27.0579 26.8092 27.236C26.7342 27.4141 26.6244 27.5755 26.4862 27.7106C26.348 27.8457 26.1842 27.9518 26.0044 28.0227C25.8246 28.0936 25.6325 28.1279 25.4393 28.1235H23.2095C22.825 28.1233 22.4563 27.9705 22.1844 27.6987C21.9124 27.4268 21.7594 27.0582 21.759 26.6737C21.759 26.4748 21.68 26.284 21.5394 26.1434C21.3987 26.0027 21.2079 25.9237 21.009 25.9237C20.8101 25.9237 20.6194 26.0027 20.4787 26.1434C20.3381 26.284 20.259 26.4748 20.259 26.6737C20.2596 27.4561 20.5707 28.2063 21.1238 28.7596C21.677 29.3129 22.4271 29.6242 23.2095 29.625H23.5748V31.4677C23.5748 31.6666 23.6538 31.8574 23.7945 31.998C23.9351 32.1387 24.1259 32.2177 24.3248 32.2177C24.5237 32.2177 24.7145 32.1387 24.8551 31.998C24.9958 31.8574 25.0748 31.6666 25.0748 31.4677V29.625H25.4393C25.8307 29.6312 26.2194 29.5595 26.5828 29.414C26.9461 29.2686 27.277 29.0523 27.5559 28.7777C27.8349 28.5032 28.0565 28.1758 28.2077 27.8148C28.3589 27.4538 28.4368 27.0663 28.4368 26.6748C28.4368 26.2834 28.3589 25.8959 28.2077 25.5349C28.0565 25.1738 27.8349 24.8465 27.5559 24.5719C27.277 24.2974 26.9461 24.0811 26.5828 23.9356C26.2194 23.7902 25.8307 23.7185 25.4393 23.7247H23.2095C22.825 23.7247 22.4563 23.572 22.1844 23.3001C21.9125 23.0282 21.7598 22.6595 21.7598 22.275C21.7598 21.8905 21.9125 21.5217 22.1844 21.2498C22.4563 20.9779 22.825 20.8252 23.2095 20.8252V20.8237Z" fill="#FFB216"/>
<path d="M11.6078 20.58H12.0398C12.1382 20.5789 12.2356 20.5585 12.3261 20.5198C12.4167 20.4811 12.4988 20.4249 12.5677 20.3545C12.6366 20.2841 12.6909 20.2008 12.7276 20.1094C12.7643 20.018 12.7826 19.9202 12.7815 19.8218C12.773 19.6251 12.69 19.439 12.5493 19.3012C12.4086 19.1635 12.2208 19.0844 12.024 19.08H11.6078C5.33775 19.08 1.5 17.5417 1.5 16.704V15.5333C3.63375 16.7858 7.725 17.3738 11.6078 17.3738C12.327 17.3738 13.044 17.3535 13.7393 17.3145C13.9382 17.3034 14.1245 17.2137 14.2573 17.0651C14.3901 16.9166 14.4584 16.7214 14.4473 16.5225C14.4361 16.3236 14.3464 16.1372 14.1979 16.0045C14.0494 15.8717 13.8542 15.8034 13.6553 15.8145C12.987 15.852 12.2985 15.8715 11.6078 15.8715C5.33775 15.8738 1.5 14.3348 1.5 13.5V12.3262C3.63375 13.5787 7.725 14.1667 11.6078 14.1667C17.1983 14.1667 23.2155 12.9533 23.2155 10.29V3.876C23.2155 1.21275 17.1983 0 11.6078 0C6.01725 0 0 1.21275 0 3.876V23.1982C0 25.8615 6.0165 27.075 11.6078 27.075H11.9145C12.1134 27.075 12.3042 26.996 12.4448 26.8553C12.5855 26.7147 12.6645 26.5239 12.6645 26.325C12.6645 26.1261 12.5855 25.9353 12.4448 25.7947C12.3042 25.654 12.1134 25.575 11.9145 25.575H11.6078C5.33775 25.575 1.5 24.036 1.5 23.1982V21.9473C3.63375 23.199 7.725 23.787 11.6078 23.787C11.8067 23.787 11.9974 23.708 12.1381 23.5673C12.2787 23.4267 12.3578 23.2359 12.3578 23.037C12.3578 22.8381 12.2787 22.6473 12.1381 22.5067C11.9974 22.366 11.8067 22.287 11.6078 22.287C5.33775 22.287 1.5 20.7488 1.5 19.911V18.7402C3.63375 19.9927 7.725 20.58 11.6078 20.58ZM21.7155 7.08C21.7155 7.9185 17.8778 9.45675 11.6078 9.45675C5.33775 9.45675 1.5 7.9215 1.5 7.083V5.913C3.63375 7.16475 7.725 7.75275 11.6078 7.75275C15.4905 7.75275 19.581 7.16475 21.7155 5.91225V7.08ZM11.6078 12.6667C5.33775 12.6667 1.5 11.1278 1.5 10.29V9.11925C3.63375 10.3718 7.725 10.9597 11.6078 10.9597C15.4905 10.9597 19.581 10.3718 21.7155 9.11925V10.29C21.7155 11.1278 17.8778 12.6667 11.6078 12.6667ZM11.6078 1.5C17.8778 1.5 21.7155 3.03825 21.7155 3.876C21.7155 4.71375 17.8778 6.25275 11.6078 6.25275C5.33775 6.25275 1.5 4.7145 1.5 3.876C1.5 3.0375 5.33775 1.5 11.6078 1.5Z" fill="#FFB216"/>
</g>
<defs>
<clipPath id="clip0_5_297">
<rect width="36" height="36" fill="white"/>
</clipPath>
</defs>
</svg>
