<svg width="32" height="32" viewBox="0 0 32 32" fill="none" xmlns="http://www.w3.org/2000/svg">
<path d="M26.2353 19.751V17.1178C26.7296 16.9415 27.0869 16.4732 27.0869 15.9188C27.0869 15.3644 26.7296 14.896 26.2353 14.7197V11.6607H28.7901V3.99617H22.8288V11.6607H25.3837V14.7197C24.8893 14.896 24.532 15.3644 24.532 15.9188C24.532 16.4732 24.8893 16.9415 25.3837 17.1178V19.751H22.403V23.1575H21.5297C21.3219 20.4451 19.1541 18.2773 16.4417 18.0695V13.7897H20.6998C21.4041 13.7897 21.9772 13.2166 21.9772 12.5123V10.8091C21.9772 10.4808 21.849 10.184 21.6451 9.95746C21.8495 9.73093 21.9772 9.43414 21.9772 9.10585V7.40262C21.9772 7.07432 21.849 6.77754 21.6451 6.55101C21.849 6.32448 21.9772 6.02769 21.9772 5.6994V3.99617C21.9772 3.29189 21.4041 2.71875 20.6998 2.71875H11.332C10.6278 2.71875 10.0546 3.29189 10.0546 3.99617V5.6994C10.0546 6.02769 10.1828 6.32448 10.3868 6.55101C10.1828 6.77754 10.0546 7.07432 10.0546 7.40262V9.10585C10.0546 9.43414 10.1828 9.73093 10.3868 9.95746C10.1824 10.184 10.0546 10.4808 10.0546 10.8091V12.5123C10.0546 13.2166 10.6278 13.7897 11.332 13.7897H15.5901V18.0695C12.8777 18.2773 10.7099 20.4451 10.5022 23.1575H9.62882V19.751H6.64818V17.1178C7.14254 16.9415 7.49979 16.4732 7.49979 15.9188C7.49979 15.3644 7.14254 14.896 6.64818 14.7197V11.6607H9.20302V3.99617H3.24172V11.6607H5.79656V14.7197C5.3022 14.896 4.94495 15.3644 4.94495 15.9188C4.94495 16.4732 5.3022 16.9415 5.79656 17.1178V19.751H2.81592V27.4155H9.62882V24.0091H10.5022C10.721 26.8624 13.1072 29.1188 16.0159 29.1188C18.9246 29.1188 21.3108 26.8624 21.5297 24.0091H22.403V27.4155H29.2159V19.751H26.2353ZM23.6804 4.84778H27.9385V10.8091H23.6804V4.84778ZM25.8095 15.4929C26.0441 15.4929 26.2353 15.6837 26.2353 15.9188C26.2353 16.1538 26.0441 16.3446 25.8095 16.3446C25.5749 16.3446 25.3837 16.1538 25.3837 15.9188C25.3837 15.6837 25.5749 15.4929 25.8095 15.4929ZM10.9062 9.10585V7.40262C10.9062 7.16758 11.0974 6.97681 11.332 6.97681H20.6998C20.9344 6.97681 21.1256 7.16758 21.1256 7.40262V9.10585C21.1256 9.34089 20.9344 9.53165 20.6998 9.53165H11.332C11.0974 9.53165 10.9062 9.34089 10.9062 9.10585ZM10.9062 3.99617C10.9062 3.76112 11.0974 3.57036 11.332 3.57036H20.6998C20.9344 3.57036 21.1256 3.76112 21.1256 3.99617V5.6994C21.1256 5.93444 20.9344 6.1252 20.6998 6.1252H11.332C11.0974 6.1252 10.9062 5.93444 10.9062 5.6994V3.99617ZM10.9062 12.5123V10.8091C10.9062 10.574 11.0974 10.3833 11.332 10.3833H20.6998C20.9344 10.3833 21.1256 10.574 21.1256 10.8091V12.5123C21.1256 12.7473 20.9344 12.9381 20.6998 12.9381H11.332C11.0974 12.9381 10.9062 12.7473 10.9062 12.5123ZM4.09334 4.84778H8.3514V10.8091H4.09334V4.84778ZM6.22237 15.4929C6.45699 15.4929 6.64818 15.6837 6.64818 15.9188C6.64818 16.1538 6.45699 16.3446 6.22237 16.3446C5.98775 16.3446 5.79656 16.1538 5.79656 15.9188C5.79656 15.6837 5.98775 15.4929 6.22237 15.4929ZM8.77721 20.6026V21.4542H3.66753V20.6026H8.77721ZM3.66753 26.5639V22.3058H8.77721V26.5639H3.66753ZM16.0159 28.2671C15.5582 28.2671 15.0706 27.6169 14.7347 26.5639H17.2972C16.9612 27.6169 16.4737 28.2671 16.0159 28.2671ZM14.5175 25.7123C14.4136 25.1975 14.3438 24.6252 14.3216 24.0091H17.7102C17.6881 24.6252 17.6178 25.1975 17.5143 25.7123H14.5175ZM11.3538 24.0091H13.4704C13.49 24.6133 13.5488 25.1856 13.6446 25.7123H11.849C11.5824 25.1924 11.4087 24.618 11.3538 24.0091ZM16.0159 18.8994C16.4737 18.8994 16.9612 19.5496 17.2972 20.6026H14.7347C15.0706 19.5496 15.5582 18.8994 16.0159 18.8994ZM17.5143 21.4542C17.6182 21.969 17.6881 22.5413 17.7102 23.1575H14.3216C14.3438 22.5413 14.414 21.969 14.5175 21.4542H17.5143ZM13.4704 23.1575H11.3538C11.4091 22.5486 11.5824 21.9741 11.8494 21.4542H13.645C13.5488 21.981 13.4896 22.5532 13.4704 23.1575ZM18.5614 24.0091H20.6781C20.6227 24.618 20.4494 25.1924 20.1824 25.7123H18.3868C18.483 25.1856 18.5422 24.6133 18.5614 24.0091ZM18.5614 23.1575C18.5418 22.5532 18.483 21.981 18.3872 21.4542H20.1829C20.4494 21.9741 20.6231 22.5486 20.6785 23.1575H18.5614ZM19.6263 20.6026H18.1897C18.033 20.0512 17.8328 19.5713 17.5974 19.18C18.3953 19.4674 19.0954 19.9609 19.6263 20.6026ZM14.4345 19.18C14.199 19.5713 13.9989 20.0512 13.8422 20.6026H12.4055C12.9365 19.9609 13.6365 19.4674 14.4345 19.18ZM12.4055 26.5639H13.8422C13.9989 27.1153 14.199 27.5952 14.4345 27.9865C13.6365 27.6991 12.9365 27.2056 12.4055 26.5639ZM17.5974 27.9865C17.8328 27.5952 18.033 27.1153 18.1897 26.5639H19.6263C19.0954 27.2056 18.3953 27.6991 17.5974 27.9865ZM28.3643 20.6026V21.4542H23.2546V20.6026H28.3643ZM23.2546 26.5639V22.3058H28.3643V26.5639H23.2546Z" fill="#FFB216"/>
<path d="M27.5127 23.1562H24.1062V24.0079H27.5127V23.1562Z" fill="#FFB216"/>
<path d="M27.5127 24.8594H24.1062V25.711H27.5127V24.8594Z" fill="#FFB216"/>
<path d="M7.92549 23.1562H4.51904V24.0079H7.92549V23.1562Z" fill="#FFB216"/>
<path d="M7.92549 24.8594H4.51904V25.711H7.92549V24.8594Z" fill="#FFB216"/>
<path d="M27.0871 5.69531H24.5322V6.54693H27.0871V5.69531Z" fill="#FFB216"/>
<path d="M27.0871 7.40625H24.5322V8.25786H27.0871V7.40625Z" fill="#FFB216"/>
<path d="M27.0871 9.10938H24.5322V9.96099H27.0871V9.10938Z" fill="#FFB216"/>
<path d="M7.49966 5.69531H4.94482V6.54693H7.49966V5.69531Z" fill="#FFB216"/>
<path d="M7.49966 7.40625H4.94482V8.25786H7.49966V7.40625Z" fill="#FFB216"/>
<path d="M7.49966 9.10938H4.94482V9.96099H7.49966V9.10938Z" fill="#FFB216"/>
</svg>
