<svg width="64" height="64" viewBox="0 0 64 64" fill="none" xmlns="http://www.w3.org/2000/svg">
<g clip-path="url(#clip0_1177_1333)">
<path d="M62.2175 26.8738L58.2412 25.5838C58.0412 25.5188 57.9187 25.3888 57.8662 25.1825C57.2525 22.8563 56.325 20.62 55.1087 18.5325C55.0025 18.35 54.9975 18.17 55.095 17.9788L56.9912 14.255C57.5062 13.2438 57.3213 12.0688 56.52 11.2613L52.7375 7.48378C51.9462 6.68753 50.7425 6.49503 49.745 7.00628L46.0163 8.90628C45.83 9.00128 45.6488 8.99628 45.4663 8.89003C43.38 7.67378 41.1437 6.74628 38.8125 6.13128C38.6112 6.07878 38.4813 5.95628 38.415 5.75253L37.1225 1.78503C36.78 0.716279 35.7937 -0.0012207 34.67 -0.0012207H29.325C28.2012 -0.0012207 27.2162 0.716279 26.875 1.78128L25.5812 5.75628C25.5162 5.95753 25.3875 6.08003 25.185 6.13253C25.1837 6.13253 25.1812 6.13378 25.18 6.13378C22.8537 6.74628 20.6175 7.67503 18.5325 8.89003C18.35 8.99628 18.1687 9.00253 17.9812 8.90628L14.2562 7.00628C13.2537 6.49628 12.05 6.68878 11.2625 7.48128L7.48125 11.2613C6.67625 12.065 6.49 13.24 7.00625 14.2563L8.90375 17.9763C9 18.1675 8.995 18.35 8.8875 18.535C7.66875 20.625 6.7425 22.8613 6.13375 25.1825C6.07875 25.3888 5.955 25.52 5.75375 25.585L1.775 26.875C0.712499 27.2238 -0.00125122 28.21 -0.00125122 29.3288V34.675C-0.00125122 35.8088 0.696249 36.7713 1.77875 37.1263L5.74875 38.4138C5.95375 38.4813 6.08 38.615 6.13375 38.8163C6.7425 41.1388 7.66875 43.3763 8.88875 45.4675C8.99625 45.6525 9.0025 45.8325 8.9075 46.02L7.0075 49.745C6.49125 50.7588 6.6775 51.9338 7.4825 52.7388L11.2612 56.5175C12.0512 57.3138 13.255 57.505 14.2587 56.995L17.9837 55.095C18.1712 54.9988 18.3512 55.005 18.5325 55.11C20.6187 56.33 22.8562 57.2588 25.1812 57.8675C25.3875 57.9225 25.5187 58.0463 25.5837 58.2475L26.8762 62.215C27.2187 63.2838 28.205 64.0013 29.3287 64.0013H34.675C35.7987 64.0013 36.7837 63.2838 37.125 62.2188L38.4188 58.245C38.4838 58.0438 38.615 57.92 38.8187 57.8663C41.1462 57.2563 43.3838 56.3288 45.465 55.1113C45.6513 55.0038 45.8312 54.9975 46.0187 55.0938L49.745 56.9925C50.745 57.5038 51.9488 57.3125 52.7363 56.5188L56.5238 52.735C57.3238 51.93 57.5075 50.7563 56.9925 49.7438L55.0962 46.0188C55 45.83 55.005 45.6488 55.1125 45.465C56.3312 43.375 57.2575 41.1388 57.865 38.82C57.92 38.615 58.0462 38.4813 58.245 38.4163L62.2225 37.1263C63.305 36.7725 64.0038 35.8113 64.0038 34.6763V29.33C64.0013 28.2088 63.285 27.2225 62.2175 26.8738ZM62 34.675C62 34.9363 61.85 35.14 61.6012 35.2213L57.62 36.5125C56.7737 36.7925 56.1587 37.445 55.9287 38.3075C55.3662 40.455 54.5087 42.5238 53.3825 44.455C52.93 45.2288 52.9037 46.13 53.3112 46.9275L55.2062 50.6513C55.3262 50.8863 55.2862 51.1375 55.1037 51.3213L51.3162 55.105C51.1362 55.2863 50.8825 55.3263 50.6525 55.2088L46.9263 53.31C46.1338 52.905 45.235 52.93 44.4562 53.38C42.5275 54.5088 40.4588 55.3663 38.3063 55.93C37.4413 56.1588 36.7875 56.7775 36.5125 57.6263L35.2175 61.6025C35.1375 61.85 34.9337 61.9988 34.6712 61.9988H29.325C29.0625 61.9988 28.8587 61.8513 28.7775 61.5988L27.485 57.6275C27.21 56.7775 26.555 56.16 25.6875 55.93C23.5375 55.3663 21.4687 54.5088 19.5375 53.3788C19.13 53.1413 18.6862 53.0225 18.2425 53.0225C17.845 53.0225 17.445 53.1188 17.07 53.31L13.3475 55.2088C13.1125 55.3288 12.8625 55.29 12.6775 55.1025L8.89625 51.3213C8.71125 51.1363 8.67125 50.885 8.79 50.6525L10.6887 46.9288C11.0962 46.1313 11.0687 45.23 10.6162 44.4563C9.48875 42.5238 8.6325 40.455 8.06875 38.3038C7.84 37.4463 7.22375 36.7938 6.3725 36.5113L2.4 35.2225C2.15 35.14 2.00125 34.9363 2.00125 34.675V29.3288C2.00125 29.065 2.15 28.86 2.3975 28.7788L6.3725 27.4888C7.2225 27.2138 7.84 26.5588 8.07 25.6913C8.6325 23.5438 9.49 21.475 10.6162 19.5438C11.0675 18.7738 11.095 17.8738 10.69 17.07L8.79125 13.3463C8.6725 13.1125 8.71125 12.8613 8.8975 12.6763L12.6812 8.89253C12.865 8.70878 13.1137 8.66878 13.3475 8.78878L17.0712 10.6875C17.8662 11.0938 18.7662 11.0688 19.54 10.6188C21.47 9.49378 23.5387 8.63503 25.69 8.06878C26.5562 7.84378 27.2112 7.22378 27.485 6.37253L28.78 2.39628C28.86 2.14878 29.0637 2.00003 29.3262 2.00003H34.6725C34.935 2.00003 35.1388 2.14753 35.22 2.40003L36.5125 6.36878C36.7888 7.22503 37.445 7.84503 38.3088 8.06753C40.46 8.63503 42.5288 9.49253 44.4625 10.62C45.2375 11.0675 46.135 11.0925 46.9275 10.6875L50.6562 8.78753C50.885 8.67128 51.1388 8.71128 51.3213 8.89503L55.1025 12.6725C55.2875 12.8588 55.3275 13.11 55.2075 13.345L53.3125 17.0675C52.9038 17.8663 52.93 18.7675 53.3812 19.54C54.5062 21.47 55.365 23.5388 55.9313 25.685C56.155 26.5525 56.7725 27.2088 57.6263 27.485L61.6 28.7738C61.8512 28.855 62.0013 29.0613 62.0013 29.325V34.675H62ZM32 15.3913C22.8413 15.3913 15.3912 22.8425 15.3912 32C15.3912 41.1575 22.8413 48.6088 32 48.6088C41.1587 48.6088 48.6087 41.1588 48.6087 32C48.6087 22.8413 41.1587 15.3913 32 15.3913ZM32 46.6075C23.945 46.6075 17.3925 40.055 17.3925 32C17.3925 23.945 23.945 17.3925 32 17.3925C40.055 17.3925 46.6075 23.945 46.6075 32C46.6075 40.055 40.055 46.6075 32 46.6075ZM38.61 22.0113C36.8238 21.1588 34.4762 20.6888 32 20.6888C29.5225 20.6888 27.1737 21.1588 25.3875 22.0113C23.365 22.9763 22.2512 24.3463 22.2512 25.8675V38.1375C22.2512 41.09 26.4425 43.3163 32.0013 43.3163C37.5575 43.3163 41.7475 41.09 41.7475 38.1375V25.8675C41.7463 24.3463 40.6325 22.9763 38.61 22.0113ZM39.7438 32.0288C39.7438 33.5288 36.4325 35.205 32 35.205C27.5662 35.205 24.2525 33.5275 24.2525 32.0288V29.0713C24.5912 29.3038 24.9687 29.5213 25.3875 29.7213C27.175 30.575 29.5238 31.045 32 31.045C34.475 31.045 36.8225 30.575 38.61 29.7213C39.0288 29.5213 39.405 29.3038 39.7438 29.0713V32.0288ZM32 22.69C36.4325 22.69 39.7438 24.3675 39.7438 25.8663C39.7438 27.365 36.4325 29.0425 32 29.0425C27.5662 29.0425 24.2525 27.365 24.2525 25.8663C24.2525 24.3675 27.5662 22.69 32 22.69ZM32 41.3138C27.5662 41.3138 24.2525 39.6363 24.2525 38.1375V35.2463C26.005 36.455 28.7713 37.2075 32 37.2075C35.2275 37.2075 37.9925 36.455 39.7438 35.2463V38.1375C39.7438 39.6363 36.4325 41.3138 32 41.3138Z" fill="#060520"/>
</g>
<defs>
<clipPath id="clip0_1177_1333">
<rect width="64" height="64" fill="white"/>
</clipPath>
</defs>
</svg>
