<svg width="64" height="64" viewBox="0 0 64 64" fill="none" xmlns="http://www.w3.org/2000/svg">
<path fill-rule="evenodd" clip-rule="evenodd" d="M13.6801 30.1299C14.7231 30.1299 15.5718 30.9795 15.5718 32.0223C15.5718 33.0651 14.7231 33.914 13.6801 33.914C12.6373 33.914 11.7893 33.0652 11.7893 32.0223C11.7893 30.9793 12.6373 30.1299 13.6801 30.1299ZM25.8749 18.0914C26.9177 18.0914 27.7659 18.9402 27.7659 19.983C27.7659 21.0259 26.9179 21.8755 25.8749 21.8755C24.8313 21.8755 23.9833 21.0259 23.9833 19.983C23.9833 18.9402 24.8313 18.0914 25.8749 18.0914ZM38.0842 30.1299C39.127 30.1299 39.9758 30.9795 39.9758 32.0223C39.9758 33.0651 39.127 33.914 38.0842 33.914C37.0413 33.914 36.1925 33.0652 36.1925 32.0223C36.1925 30.9793 37.0413 30.1299 38.0842 30.1299ZM50.2775 18.0914C51.3203 18.0914 52.1691 18.9402 52.1691 19.983C52.1691 21.0259 51.3203 21.8755 50.2775 21.8755C49.2347 21.8755 48.3858 21.0259 48.3858 19.983C48.3859 18.9402 49.2347 18.0914 50.2775 18.0914ZM13.6801 35.6621C16.5158 35.6621 18.2397 32.5577 16.8079 30.1623L23.975 23.0858C25.1405 23.8029 26.6105 23.8035 27.7757 23.0851L34.9549 30.1646C33.5263 32.5656 35.2539 35.6621 38.0842 35.6621C40.9112 35.6621 42.6469 32.5696 41.2113 30.1623L48.3776 23.0858C50.7851 24.565 53.9165 22.8306 53.9165 19.9829C53.9165 17.9765 52.2839 16.3438 50.2775 16.3438C47.4511 16.3438 45.7145 19.4353 47.1505 21.8428L39.9833 28.9193C38.8182 28.2014 37.3471 28.2025 36.182 28.9201L29.0029 21.8405C30.4344 19.4401 28.7051 16.3438 25.8751 16.3438C23.0498 16.3438 21.3126 19.4317 22.7472 21.8428L15.5801 28.9193C13.1784 27.4416 10.0412 29.1703 10.0412 32.0222C10.0411 34.0287 11.6737 35.6621 13.6801 35.6621ZM47.4336 53.3536V29.1542H53.1689V53.3536H47.4336ZM35.2328 53.3536V40.298H40.9673V53.3537L35.2328 53.3536ZM23.0312 53.3536V31.2694H28.7672V53.3536H23.0312ZM10.831 53.3536V42.9009H16.5655V53.3536H10.831ZM18.3137 49.7765H21.2829V53.3536H18.3137V49.7765ZM30.5153 49.7765H33.4845V53.3536H30.5153V49.7765ZM42.7155 49.7765H45.6855V53.3536H42.7155V49.7765ZM7.75525 48.0284H9.08274V42.0273C9.08274 41.5447 9.47467 41.1528 9.95647 41.1528H17.44C17.9218 41.1528 18.3137 41.5447 18.3137 42.0273V48.0284H21.2829V30.3957C21.2829 29.9116 21.6749 29.5212 22.1574 29.5212H29.6409C30.1235 29.5212 30.5154 29.9116 30.5154 30.3957V48.0283H33.4847V39.4234C33.4847 38.9408 33.8758 38.5496 34.3584 38.5496H41.8411C42.3252 38.5496 42.7156 38.9408 42.7156 39.4234V48.0283H45.6856V28.2805C45.6856 27.7979 46.0776 27.4067 46.5601 27.4067H54.0429C54.5254 27.4067 54.9174 27.7979 54.9174 28.2805V48.0283H56.2442C57.4902 48.0283 58.5043 47.0149 58.5043 45.7682V12.9065C58.5043 11.6612 57.4902 10.6463 56.2442 10.6463H7.75525C6.50994 10.6463 5.49438 11.6612 5.49438 12.9065V45.7682C5.49438 47.0149 6.50994 48.0284 7.75525 48.0284ZM59.9691 53.3536H54.9171V49.7765H56.244C58.4535 49.7765 60.2523 47.9785 60.2523 45.7682V12.9065C60.2523 10.6962 58.4535 8.89819 56.244 8.89819H7.75525C5.54571 8.89819 3.74693 10.6962 3.74693 12.9065V45.7682C3.74693 47.9785 5.54571 49.7765 7.75525 49.7765H9.08274V53.3536H4.03083C3.54827 53.3536 3.1571 53.7448 3.1571 54.2273C3.1571 54.7107 3.54827 55.1018 4.03083 55.1018H59.969C60.4508 55.1018 60.8427 54.7107 60.8427 54.2273C60.8429 53.7448 60.4508 53.3536 59.9691 53.3536Z" fill="#060520"/>
</svg>
