<svg width="36" height="36" viewBox="0 0 36 36" fill="none" xmlns="http://www.w3.org/2000/svg">
<path d="M32.4844 2.8125H21.1735C20.7852 2.8125 20.4704 3.12729 20.4704 3.51562C20.4704 3.90396 20.7852 4.21875 21.1735 4.21875H32.4844C33.6475 4.21875 34.5938 5.16502 34.5938 6.32812V23.3438H1.40625V6.32812C1.40625 5.16502 2.35252 4.21875 3.51562 4.21875H14.8454C15.2336 4.21875 15.5485 3.90396 15.5485 3.51562C15.5485 3.12729 15.2336 2.8125 14.8454 2.8125H3.51562C1.57711 2.8125 0 4.38961 0 6.32812V29.6719C0 31.6104 1.57711 33.1875 3.51562 33.1875H32.4844C34.4229 33.1875 36 31.6104 36 29.6719V6.32812C36 4.38961 34.4229 2.8125 32.4844 2.8125ZM32.4844 31.7812H3.51562C2.35252 31.7812 1.40625 30.835 1.40625 29.6719V24.75H34.5938V29.6719C34.5938 30.835 33.6475 31.7812 32.4844 31.7812Z" fill="#FFB216"/>
<path d="M7.02588 26.1562C5.86277 26.1562 4.9165 27.1025 4.9165 28.2656C4.9165 29.4287 5.86277 30.375 7.02588 30.375C8.18899 30.375 9.13525 29.4287 9.13525 28.2656C9.13525 27.1025 8.18899 26.1562 7.02588 26.1562ZM7.02588 28.9688C6.63818 28.9688 6.32275 28.6533 6.32275 28.2656C6.32275 27.8779 6.63818 27.5625 7.02588 27.5625C7.41358 27.5625 7.729 27.8779 7.729 28.2656C7.729 28.6533 7.41351 28.9688 7.02588 28.9688Z" fill="#FFB216"/>
<path d="M30.3803 27.5625H12.8665C12.4781 27.5625 12.1633 27.8773 12.1633 28.2656C12.1633 28.654 12.4781 28.9688 12.8665 28.9688H30.3803C30.7686 28.9688 31.0834 28.654 31.0834 28.2656C31.0834 27.8773 30.7687 27.5625 30.3803 27.5625Z" fill="#FFB216"/>
<path d="M14.406 11.6491V15.9133C14.406 16.6383 14.7808 17.2875 15.4087 17.6499C15.7226 17.8312 16.067 17.9218 16.4114 17.9218C16.7557 17.9218 17.1001 17.8312 17.414 17.6499L21.1069 15.5179C21.7347 15.1554 22.1095 14.5061 22.1095 13.7812C22.1095 13.0563 21.7347 12.407 21.1069 12.0446L17.414 9.91247C16.7863 9.55001 16.0367 9.55001 15.4087 9.91247C14.7808 10.2749 14.406 10.9242 14.406 11.6491ZM15.8123 11.6491C15.8123 11.3369 16.0218 11.1823 16.1118 11.1303C16.1666 11.0987 16.2761 11.0479 16.4144 11.0479C16.5036 11.0479 16.6049 11.0691 16.7109 11.1303L20.4037 13.2624C20.6741 13.4185 20.7033 13.6772 20.7033 13.7812C20.7033 13.8852 20.6741 14.1439 20.4037 14.3L16.7109 16.4321C16.4405 16.5881 16.2019 16.4841 16.1119 16.4321C16.0219 16.3801 15.8123 16.2255 15.8123 15.9133V11.6491H15.8123Z" fill="#FFB216"/>
<path d="M18.009 4.21875C18.194 4.21875 18.3754 4.14352 18.5061 4.01273C18.6369 3.88195 18.7122 3.70055 18.7122 3.51562C18.7122 3.3307 18.6369 3.1493 18.5061 3.01852C18.3754 2.88773 18.194 2.8125 18.009 2.8125C17.8241 2.8125 17.6427 2.88773 17.5112 3.01852C17.3804 3.1493 17.3059 3.3307 17.3059 3.51562C17.3059 3.70055 17.3804 3.88195 17.5112 4.01273C17.6427 4.14352 17.8241 4.21875 18.009 4.21875Z" fill="#FFB216"/>
</svg>
