<svg width="64" height="64" viewBox="0 0 64 64" fill="none" xmlns="http://www.w3.org/2000/svg">
<path d="M39.8814 19.4355H24.3412C21.5477 19.4355 19.2749 21.7082 19.2749 24.5018V39.498C19.2749 42.2916 21.5477 44.5643 24.3412 44.5643H39.8814C42.6749 44.5643 44.9477 42.2916 44.9477 39.498V24.5018C44.9477 21.7082 42.6749 19.4355 39.8814 19.4355ZM43.0277 39.498C43.0277 41.2329 41.6163 42.6443 39.8814 42.6443H24.3412C22.6063 42.6443 21.1949 41.2329 21.1949 39.498V24.5018C21.1949 22.7669 22.6063 21.3555 24.3412 21.3555H39.8814C41.6163 21.3555 43.0277 22.7669 43.0277 24.5018V39.498Z" fill="#060520"/>
<path d="M25.2884 12.3441V15.9836C25.2884 16.5138 25.7182 16.9436 26.2484 16.9436C26.7787 16.9436 27.2084 16.5138 27.2084 15.9836V12.3441C28.9171 11.9144 30.186 10.3655 30.186 8.52534C30.186 6.35408 28.4197 4.58765 26.2484 4.58765C24.0772 4.58765 22.3107 6.35408 22.3107 8.52534C22.3107 10.3655 23.5797 11.9144 25.2884 12.3441ZM26.2484 6.50765C27.3609 6.50765 28.266 7.41277 28.266 8.52534C28.266 9.63783 27.3609 10.543 26.2484 10.543C25.1358 10.543 24.2307 9.63783 24.2307 8.52534C24.2307 7.41277 25.1358 6.50765 26.2484 6.50765Z" fill="#060520"/>
<path d="M36.5693 12.3441V15.9836C36.5693 16.5138 36.9991 16.9436 37.5293 16.9436C38.0596 16.9436 38.4893 16.5138 38.4893 15.9836V12.3441C40.198 11.9144 41.4669 10.3655 41.4669 8.52534C41.4669 6.35408 39.7006 4.58765 37.5293 4.58765C35.3581 4.58765 33.5916 6.35408 33.5916 8.52534C33.5916 10.3655 34.8606 11.9144 36.5693 12.3441ZM37.5293 6.50765C38.6418 6.50765 39.5469 7.41277 39.5469 8.52534C39.5469 9.63783 38.6418 10.543 37.5293 10.543C36.4167 10.543 35.5116 9.63783 35.5116 8.52534C35.5116 7.41277 36.4167 6.50765 37.5293 6.50765Z" fill="#060520"/>
<path d="M38.7117 51.6559V48.0164C38.7117 47.4862 38.2819 47.0564 37.7517 47.0564C37.2214 47.0564 36.7917 47.4862 36.7917 48.0164V51.6559C35.083 52.0856 33.814 53.6345 33.814 55.4747C33.814 57.6459 35.5804 59.4123 37.7517 59.4123C39.9229 59.4123 41.6894 57.6459 41.6894 55.4747C41.6894 53.6345 40.4204 52.0856 38.7117 51.6559ZM37.7517 57.4923C36.6392 57.4923 35.734 56.5872 35.734 55.4747C35.734 54.3622 36.6392 53.457 37.7517 53.457C38.8643 53.457 39.7694 54.3622 39.7694 55.4747C39.7694 56.5872 38.8643 57.4923 37.7517 57.4923Z" fill="#060520"/>
<path d="M27.4308 51.6559V48.0164C27.4308 47.4862 27.001 47.0564 26.4708 47.0564C25.9405 47.0564 25.5108 47.4862 25.5108 48.0164V51.6559C23.8021 52.0856 22.5331 53.6345 22.5331 55.4747C22.5331 57.6459 24.2995 59.4123 26.4708 59.4123C28.642 59.4123 30.4085 57.6459 30.4085 55.4747C30.4085 53.6345 29.1395 52.0856 27.4308 51.6559ZM26.4708 57.4923C25.3583 57.4923 24.4531 56.5872 24.4531 55.4747C24.4531 54.3622 25.3583 53.457 26.4708 53.457C27.5834 53.457 28.4885 54.3622 28.4885 55.4747C28.4885 56.5872 27.5834 57.4923 26.4708 57.4923Z" fill="#060520"/>
<path d="M48.0164 27.2084H51.6559C52.0856 28.9171 53.6346 30.1861 55.4748 30.1861C57.646 30.1861 59.4124 28.4197 59.4124 26.2484C59.4124 24.0772 57.646 22.3108 55.4748 22.3108C53.6347 22.3108 52.0857 23.5798 51.6559 25.2884H48.0164C47.4861 25.2884 47.0564 25.7182 47.0564 26.2484C47.0564 26.7786 47.4862 27.2084 48.0164 27.2084ZM55.4748 24.2308C56.5873 24.2308 57.4924 25.1359 57.4924 26.2484C57.4924 27.361 56.5873 28.2661 55.4748 28.2661C54.3622 28.2661 53.457 27.361 53.457 26.2484C53.457 25.1359 54.3622 24.2308 55.4748 24.2308Z" fill="#060520"/>
<path d="M55.4748 33.5916C53.6346 33.5916 52.0857 34.8605 51.6559 36.5692H48.0164C47.4861 36.5692 47.0564 36.9991 47.0564 37.5292C47.0564 38.0594 47.4861 38.4892 48.0164 38.4892H51.6559C52.0856 40.1979 53.6346 41.4669 55.4748 41.4669C57.646 41.4669 59.4124 39.7005 59.4124 37.5292C59.4124 35.358 57.646 33.5916 55.4748 33.5916ZM55.4748 39.5469C54.3622 39.5469 53.457 38.6418 53.457 37.5292C53.457 36.4167 54.3622 35.5116 55.4748 35.5116C56.5873 35.5116 57.4924 36.4167 57.4924 37.5292C57.4924 38.6418 56.5873 39.5469 55.4748 39.5469Z" fill="#060520"/>
<path d="M15.9837 36.7917H12.3442C11.9144 35.083 10.3655 33.814 8.52527 33.814C6.35402 33.814 4.58765 35.5804 4.58765 37.7517C4.58765 39.9228 6.35402 41.6893 8.52527 41.6893C10.3654 41.6893 11.9144 40.4203 12.3442 38.7117H15.9837C16.5139 38.7117 16.9437 38.2818 16.9437 37.7517C16.9437 37.2215 16.5139 36.7917 15.9837 36.7917ZM8.52527 39.7693C7.41277 39.7693 6.50765 38.8642 6.50765 37.7517C6.50765 36.6391 7.41277 35.734 8.52527 35.734C9.6379 35.734 10.543 36.6391 10.543 37.7517C10.543 38.8642 9.6379 39.7693 8.52527 39.7693Z" fill="#060520"/>
<path d="M15.9837 25.5109H12.3442C11.9144 23.8022 10.3655 22.5332 8.52527 22.5332C6.35402 22.5332 4.58765 24.2996 4.58765 26.4709C4.58765 28.6421 6.35402 30.4086 8.52527 30.4086C10.3655 30.4086 11.9144 29.1396 12.3442 27.4309H15.9837C16.5139 27.4309 16.9437 27.0011 16.9437 26.4709C16.9437 25.9407 16.5139 25.5109 15.9837 25.5109ZM8.52527 28.4886C7.41277 28.4886 6.50765 27.5835 6.50765 26.4709C6.50765 25.3583 7.41277 24.4532 8.52527 24.4532C9.6379 24.4532 10.543 25.3583 10.543 26.4709C10.543 27.5835 9.6379 28.4886 8.52527 28.4886Z" fill="#060520"/>
</svg>
