<svg width="298" height="53" viewBox="0 0 298 53" fill="none" xmlns="http://www.w3.org/2000/svg">
<g clip-path="url(#clip0_48_419)">
<path d="M82.1718 6.07203C88.916 6.07203 92.5324 8.59943 92.5324 14.8955C92.5324 19.0093 91.2418 21.0437 88.5172 22.5315C91.4434 23.6697 93.3748 25.7535 93.3748 30.4139C93.3748 37.3553 89.158 40.0306 82.5662 40.0306H69.2794V6.07203H82.1718ZM74.7823 10.8311V20.5508H82.0688C85.4386 20.5508 86.9264 18.8659 86.9264 15.5453C86.9264 12.2247 85.2414 10.8355 81.8671 10.8355H74.7778L74.7823 10.8311ZM74.7823 25.2112V35.276H82.2704C85.6896 35.276 87.724 34.1871 87.724 30.1182C87.724 26.0492 84.8471 25.2112 82.1718 25.2112H74.7823Z" fill="#21436E"/>
<path d="M96.7985 4.92932H102.203V40.0306H96.7985V4.92932Z" fill="#21436E"/>
<path d="M126.944 15.2451V40.0351H121.588V38.498C121.588 38.498 117.968 40.5818 114.894 40.5818C107.804 40.5818 106.317 36.9117 106.317 28.1868V15.2451H111.721V28.2361C111.721 33.739 112.07 35.7734 115.938 35.7734C118.913 35.7734 121.588 34.4829 121.588 34.4829V15.2451H126.944Z" fill="#21436E"/>
<path d="M150.044 35.4239L150.143 39.4391C150.143 39.4391 144.492 40.5773 140.127 40.5773C132.688 40.5773 129.816 36.6114 129.816 27.8865C129.816 19.1616 133.733 14.6983 140.575 14.6983C147.418 14.6983 150.985 18.3192 150.985 26.0537L150.64 29.921H135.27C135.319 33.8869 136.807 35.872 140.92 35.872C145.034 35.872 150.044 35.4239 150.044 35.4239ZM145.684 25.7535C145.684 20.7973 144.196 19.1571 140.575 19.1571C136.955 19.1571 135.27 20.99 135.22 25.7535H145.679H145.684Z" fill="#21436E"/>
<path d="M155.744 22.4822C155.744 11.1268 158.966 4.78144 169.578 4.78144C180.189 4.78144 183.362 11.0775 183.362 22.4822C183.362 33.8869 180.189 39.8334 169.578 39.8334C158.966 39.8334 155.744 33.9317 155.744 22.4822ZM177.657 22.4822C177.657 14.0531 176.12 9.58977 169.573 9.58977C163.026 9.58977 161.444 14.0531 161.444 22.4822C161.444 30.9113 162.981 35.0251 169.573 35.0251C176.165 35.0251 177.657 31.1085 177.657 22.4822Z" fill="#21436E"/>
<path d="M187.027 14.5012H192.383V17.4767C192.383 17.4767 196.595 14.7521 200.812 13.9545V19.3588C196.299 20.2506 192.432 21.9848 192.432 21.9848V39.2867H187.027V14.4967V14.5012Z" fill="#21436E"/>
<path d="M221.188 33.4432C221.286 34.931 221.932 35.527 223.37 35.7241L223.222 39.8379C220.197 39.8379 218.463 39.4435 216.626 38.0051C216.626 38.0051 212.66 39.8379 208.645 39.8379C203.738 39.8379 201.255 37.1133 201.255 31.9555C201.255 26.7976 204.132 24.9155 209.438 24.4674L215.833 23.9207V22.1371C215.833 19.4126 214.641 18.5656 212.212 18.5656C208.891 18.5656 202.891 19.063 202.891 19.063L202.694 15.2451C202.694 15.2451 208.098 13.9545 212.66 13.9545C218.71 13.9545 221.188 16.4819 221.188 22.1371V33.4432ZM210.079 28.2854C207.798 28.4825 206.66 29.5759 206.66 31.8076C206.66 34.0392 207.601 35.4284 209.684 35.4284C212.512 35.4284 215.833 34.3395 215.833 34.3395V27.7476L210.083 28.2943L210.079 28.2854Z" fill="#21436E"/>
<path d="M225.893 39.2912V14.5012H231.248V16.0382C231.248 16.0382 234.869 13.9545 238.091 13.9545C244.983 13.9545 246.668 17.871 246.668 26.0044V39.2912H241.313V26.1523C241.313 21.1961 240.668 18.7628 236.899 18.7628C234.022 18.7628 231.297 20.0534 231.297 20.0534V39.2912H225.893Z" fill="#21436E"/>
<path d="M249.693 43.6559C249.693 41.1285 250.934 39.5914 253.461 37.6555C252.422 36.961 251.826 35.5718 251.826 34.0347C251.826 32.8965 253.609 30.0689 253.609 30.0689C251.776 28.9799 250.038 27.0934 250.038 22.6301C250.038 16.3833 254.25 14.0038 259.955 14.0038C262.235 14.0038 265.014 14.6491 265.014 14.6491L272.699 14.4519V18.8166L268.585 18.5701C269.231 19.4126 269.925 20.7032 269.925 22.6346C269.925 29.3788 266.403 31.2116 259.811 31.2116C259.314 31.2116 258.077 31.113 257.629 31.0144C257.629 31.0144 256.934 32.6993 256.934 33.3446C256.934 34.931 257.481 35.2267 262.289 35.2805C270.122 35.3298 272.551 36.9654 272.551 42.67C272.551 48.3746 267.743 50.8034 261.097 50.8034C253.609 50.8034 249.693 49.3156 249.693 43.6648V43.6559ZM256.979 39.6407C255.59 40.7789 254.994 41.6259 254.994 43.1629C254.994 45.4439 256.63 46.3849 261.142 46.3849C265.157 46.3849 267.142 45.3946 267.142 42.9658C267.142 40.2905 265.852 39.9903 261.837 39.941C260.3 39.941 256.979 39.6452 256.979 39.6452V39.6407ZM264.566 22.6346C264.566 19.659 263.275 18.2206 259.955 18.2206C256.634 18.2206 255.393 19.659 255.393 22.6346C255.393 25.6101 256.782 27.0485 259.955 27.0485C263.127 27.0485 264.566 25.6594 264.566 22.6346Z" fill="#21436E"/>
<path d="M293.868 34.68L293.967 38.6952C293.967 38.6952 288.316 39.8334 283.951 39.8334C276.513 39.8334 273.64 35.8675 273.64 27.1426C273.64 18.4177 277.557 13.9545 284.4 13.9545C291.242 13.9545 294.809 17.5753 294.809 25.3098L294.464 29.1771H279.094C279.143 33.143 280.631 35.1281 284.745 35.1281C288.858 35.1281 293.868 34.68 293.868 34.68ZM289.504 25.0141C289.504 20.0579 288.016 18.4222 284.395 18.4222C280.774 18.4222 279.089 20.255 279.04 25.0141H289.499H289.504Z" fill="#21436E"/>
<g filter="url(#filter0_d_48_419)">
<path opacity="0.84" d="M52.6676 6.34538L35.4732 1.21441L17.526 12.2919L22.2044 32.5156L37.5121 41.4018L56.9606 28.3167L52.6676 6.34538Z" fill="url(#paint0_linear_48_419)"/>
<path opacity="0.6" d="M49.3201 4.05549L31.7583 2.06135L21.2499 16.2757L28.3033 32.4842L45.8651 34.4784L56.378 20.264L49.3201 4.05549Z" fill="url(#paint1_linear_48_419)"/>
<path opacity="0.74" d="M51.9999 8.35744L38.2157 1.82833L26.5646 12.3368L25.0365 29.5625L46.7972 35.6032L54.4242 23.0423L51.9999 8.35744Z" fill="url(#paint2_linear_48_419)"/>
<path opacity="0.65" d="M54.5228 7.6046L39.1792 0.891758L22.9303 7.36262L23.3157 28.3705L36.4815 38.3457L54.2091 27.8865L54.5228 7.6046Z" fill="url(#paint3_linear_48_419)"/>
<path opacity="0.4" d="M32.6904 11.9558L49.5263 26.1165L51.4442 8.7025L32.6904 11.9558Z" fill="white"/>
<g opacity="0.89">
<g opacity="0.92">
<path d="M20.6359 10.1634L20.8062 26.6945L34.9848 33.1968L49.6069 26.1837L51.4442 8.70249L35.1192 1.6446L20.6359 10.1634Z" stroke="white" stroke-width="0.19" stroke-miterlimit="10"/>
<path d="M32.7352 12.041L35.1192 1.6446C35.1192 1.6446 51.4666 8.69801 51.4397 8.7025L32.7307 12.041H32.7352Z" stroke="white" stroke-width="0.19" stroke-miterlimit="10"/>
<path d="M20.6359 10.1634L32.7352 12.041L20.8062 26.6945L28.8634 38.9372L34.9848 33.1968L32.7352 12.041L49.6069 26.1837L47.8055 36.6428V36.831L57.5655 22.0968L51.4442 8.7025L57.5655 22.0968L49.5263 26.1165L34.9848 33.1968L47.8055 37.0237L28.8634 38.9372" stroke="white" stroke-width="0.19" stroke-miterlimit="10"/>
</g>
<path d="M32.8203 12.9776C33.1965 12.9776 33.5015 12.6726 33.5015 12.2964C33.5015 11.9202 33.1965 11.6153 32.8203 11.6153C32.4441 11.6153 32.1392 11.9202 32.1392 12.2964C32.1392 12.6726 32.4441 12.9776 32.8203 12.9776Z" fill="white"/>
<path d="M51.3815 9.33883C51.7577 9.33883 52.0626 9.03387 52.0626 8.65768C52.0626 8.2815 51.7577 7.97654 51.3815 7.97654C51.0053 7.97654 50.7003 8.2815 50.7003 8.65768C50.7003 9.03387 51.0053 9.33883 51.3815 9.33883Z" fill="white"/>
<path d="M57.5028 22.7376C57.879 22.7376 58.1839 22.4327 58.1839 22.0565C58.1839 21.6803 57.879 21.3753 57.5028 21.3753C57.1266 21.3753 56.8217 21.6803 56.8217 22.0565C56.8217 22.4327 57.1266 22.7376 57.5028 22.7376Z" fill="white"/>
<path d="M47.7472 37.4718C48.1234 37.4718 48.4284 37.1669 48.4284 36.7907C48.4284 36.4145 48.1234 36.1095 47.7472 36.1095C47.371 36.1095 47.0661 36.4145 47.0661 36.7907C47.0661 37.1669 47.371 37.4718 47.7472 37.4718Z" fill="white"/>
<path d="M49.6607 26.7528C50.0369 26.7528 50.3418 26.4478 50.3418 26.0716C50.3418 25.6955 50.0369 25.3905 49.6607 25.3905C49.2845 25.3905 48.9796 25.6955 48.9796 26.0716C48.9796 26.4478 49.2845 26.7528 49.6607 26.7528Z" fill="white"/>
<path d="M34.9265 33.8331C35.3027 33.8331 35.6076 33.5281 35.6076 33.1519C35.6076 32.7758 35.3027 32.4708 34.9265 32.4708C34.5503 32.4708 34.2453 32.7758 34.2453 33.1519C34.2453 33.5281 34.5503 33.8331 34.9265 33.8331Z" fill="white"/>
<path d="M28.8007 39.5735C29.1769 39.5735 29.4818 39.2685 29.4818 38.8924C29.4818 38.5162 29.1769 38.2112 28.8007 38.2112C28.4245 38.2112 28.1195 38.5162 28.1195 38.8924C28.1195 39.2685 28.4245 39.5735 28.8007 39.5735Z" fill="white"/>
<path d="M20.9541 27.1382C21.3303 27.1382 21.6352 26.8332 21.6352 26.457C21.6352 26.0808 21.3303 25.7759 20.9541 25.7759C20.5779 25.7759 20.273 26.0808 20.273 26.457C20.273 26.8332 20.5779 27.1382 20.9541 27.1382Z" fill="white"/>
<path d="M35.2043 2.41089C35.5805 2.41089 35.8855 2.10593 35.8855 1.72974C35.8855 1.35356 35.5805 1.0486 35.2043 1.0486C34.8281 1.0486 34.5232 1.35356 34.5232 1.72974C34.5232 2.10593 34.8281 2.41089 35.2043 2.41089Z" fill="white"/>
<path d="M20.5508 10.9297C20.927 10.9297 21.2319 10.6247 21.2319 10.2485C21.2319 9.87233 20.927 9.56737 20.5508 9.56737C20.1746 9.56737 19.8697 9.87233 19.8697 10.2485C19.8697 10.6247 20.1746 10.9297 20.5508 10.9297Z" fill="white"/>
</g>
</g>
</g>
<defs>
<filter id="filter0_d_48_419" x="1.68599" y="-1.48824" width="56.498" height="56.3501" filterUnits="userSpaceOnUse" color-interpolation-filters="sRGB">
<feFlood flood-opacity="0" result="BackgroundImageFix"/>
<feColorMatrix in="SourceAlpha" type="matrix" values="0 0 0 0 0 0 0 0 0 0 0 0 0 0 0 0 0 0 127 0" result="hardAlpha"/>
<feOffset dx="-7.92" dy="5.54"/>
<feGaussianBlur stdDeviation="3.96"/>
<feColorMatrix type="matrix" values="0 0 0 0 0.419608 0 0 0 0 0.419608 0 0 0 0 0.419608 0 0 0 0.76 0"/>
<feBlend mode="normal" in2="BackgroundImageFix" result="effect1_dropShadow_48_419"/>
<feBlend mode="normal" in="SourceGraphic" in2="effect1_dropShadow_48_419" result="shape"/>
</filter>
<linearGradient id="paint0_linear_48_419" x1="17.4911" y1="12.3717" x2="56.6717" y2="28.9867" gradientUnits="userSpaceOnUse">
<stop stop-color="#F76D00"/>
<stop offset="0.11" stop-color="#F77D08"/>
<stop offset="0.33" stop-color="#F99916"/>
<stop offset="0.56" stop-color="#FAAD20"/>
<stop offset="0.78" stop-color="#FAB926"/>
<stop offset="1" stop-color="#FBBE29"/>
</linearGradient>
<linearGradient id="paint1_linear_48_419" x1="21.246" y1="16.2789" x2="56.3769" y2="20.2691" gradientUnits="userSpaceOnUse">
<stop stop-color="#F7931E"/>
<stop offset="0.26" stop-color="#F89F2A"/>
<stop offset="0.63" stop-color="#FAAB36"/>
<stop offset="1" stop-color="#FBB03B"/>
</linearGradient>
<linearGradient id="paint2_linear_48_419" x1="25.9502" y1="15.5543" x2="54.8032" y2="21.0635" gradientUnits="userSpaceOnUse">
<stop stop-color="#FCEE21"/>
<stop offset="0.26" stop-color="#FBEA22"/>
<stop offset="0.51" stop-color="#FBDE27"/>
<stop offset="0.76" stop-color="#FBCA2F"/>
<stop offset="1" stop-color="#FBB03B"/>
</linearGradient>
<linearGradient id="paint3_linear_48_419" x1="21.7111" y1="9.47434" x2="54.0617" y2="28.152" gradientUnits="userSpaceOnUse">
<stop stop-color="#F7931E"/>
<stop offset="0.26" stop-color="#F89F2A"/>
<stop offset="0.63" stop-color="#FAAB36"/>
<stop offset="1" stop-color="#FBB03B"/>
</linearGradient>
<clipPath id="clip0_48_419">
<rect width="298" height="52.4301" fill="white"/>
</clipPath>
</defs>
</svg>
