<svg width="245" height="242" viewBox="0 0 245 242" fill="none" xmlns="http://www.w3.org/2000/svg">
<ellipse cx="122.5" cy="127" rx="122.5" ry="115" fill="#FFB216"/>
<mask id="mask0_178_871" style="mask-type:alpha" maskUnits="userSpaceOnUse" x="0" y="12" width="245" height="230">
<ellipse cx="122.5" cy="127" rx="122.5" ry="115" fill="#FFB216"/>
</mask>
<g mask="url(#mask0_178_871)">
<path d="M189.156 129.712H146.273C145.411 126.055 144.98 122.183 144.765 119.387C162.004 109.276 163.943 89.9164 163.943 89.9164V55.7138H136.145L126.018 43.8827L115.89 55.2836C115.89 55.2836 86.1522 55.0684 85.5057 55.2836V89.9164C85.5057 89.9164 87.4451 108.201 103.391 118.526C103.176 121.538 102.529 125.625 101.667 129.712H60.0781C60.0781 129.712 67.6202 68.6204 75.1623 33.9876C82.0579 2.15111 118.26 0.215111 124.294 0C124.294 0 124.509 0 124.725 0C124.94 0 125.156 0 125.156 0C130.974 0.215111 167.176 2.15111 174.287 33.9876C181.613 68.4053 189.156 129.712 189.156 129.712Z" fill="#5B5B5B"/>
<path d="M95.6328 144.124C95.2018 144.124 94.7708 144.339 94.3398 144.339C94.7708 144.124 95.4173 144.124 95.6328 144.124Z" fill="#5B5B5B"/>
<path d="M251 242L232.684 188.653C226.865 171.874 213.29 158.967 196.266 154.02C184.199 150.578 171.7 147.781 162.865 146.061C160.064 172.304 143.256 220.704 123.215 220.704C103.175 220.704 86.5825 172.519 83.5657 146.276C74.5152 147.997 62.0168 150.793 49.9495 154.02C32.7104 158.752 19.1347 171.874 13.3165 188.653L-5 242H251Z" fill="#5B5B5B"/>
<path d="M166.312 147.351L164.373 152.084L151.013 146.706L150.582 146.276C145.195 141.113 143.04 127.991 142.178 120.677C143.902 119.817 145.626 118.741 146.918 117.881C147.78 126.916 149.935 138.316 153.814 142.404L166.312 147.351Z" fill="#5B5B5B"/>
<path d="M145.196 120.677C143.903 121.322 143.688 118.741 144.55 116.59H144.334C138.947 120.032 132.482 121.968 124.725 122.828H124.509C116.321 122.183 109.856 119.817 104.9 116.59H103.391C103.391 117.45 103.176 118.311 103.176 119.386H102.96L95.2028 144.554L83.5664 146.275L83.7819 169.937C83.7819 169.937 110.933 161.333 115.459 135.735C136.577 135.52 145.196 120.677 145.196 120.677Z" fill="#5B5B5B"/>
<path d="M85.29 86.2599C77.5325 85.8297 76.6705 82.1728 76.6705 78.0857C76.886 73.7835 75.3776 69.4812 72.7917 59.371C70.2059 49.2608 83.9971 54.4234 83.9971 54.4234L85.0745 57.435L85.29 86.2599Z" fill="#5B5B5B"/>
<path d="M174.933 59.3708C172.347 69.481 170.838 73.7833 171.054 78.0855C171.269 81.9575 170.407 85.3993 163.943 86.2597V55.2837C163.943 55.2837 163.727 55.0686 163.512 54.8535L163.727 54.4233C163.727 54.6384 177.518 49.4757 174.933 59.3708Z" fill="#5B5B5B"/>
<path d="M124.94 127.776H124.294C104.684 126.055 94.5563 115.945 89.3846 107.771C83.7819 98.9512 82.9199 90.5619 82.9199 90.1316V89.9165V53.1325L85.0748 52.7023C85.2903 52.7023 85.9368 52.4872 114.812 52.7023L126.233 40.0107L137.654 53.1325H166.745V90.3467C166.745 90.777 165.883 99.1663 160.28 107.986C154.677 115.945 144.55 126.055 124.94 127.776ZM124.509 122.613C138.516 121.323 149.075 115.515 155.539 104.974C160.065 97.6605 161.142 90.5618 161.358 89.7014V58.0801H135.068L126.018 47.5396L116.967 57.6498H115.89C106.624 57.6498 93.2634 57.6498 88.0916 57.6498V89.7014C88.0916 92.0676 92.1859 119.817 124.509 122.613Z" fill="#5B5B5B"/>
<path d="M144.118 116.59C138.731 120.032 132.266 121.968 124.508 122.828H124.293C116.104 122.183 109.64 119.817 104.684 116.59H103.175C103.175 117.881 102.96 119.386 102.744 121.322C108.131 124.549 115.027 127.13 123.862 127.776H124.508H124.724C130.327 127.345 135.067 126.27 139.162 124.549C141.317 122.398 143.04 119.817 144.118 116.59Z" fill="#5B5B5B"/>
</g>
<path d="M189.077 129.712H146.195C145.333 126.055 144.902 122.183 144.687 119.387C161.926 109.276 163.865 89.9164 163.865 89.9164V55.7138H136.067L125.939 43.8827L115.811 55.2836C115.811 55.2836 86.0741 55.0684 85.4276 55.2836V89.9164C85.4276 89.9164 87.367 108.201 103.313 118.526C103.098 121.538 102.451 125.625 101.589 129.712H60C60 129.712 67.5421 68.6204 75.0842 33.9876C81.9798 2.15111 118.182 0.215111 124.215 0C124.215 0 124.431 0 124.646 0C124.862 0 125.077 0 125.077 0C130.896 0.215111 167.098 2.15111 174.209 33.9876C181.535 68.4053 189.077 129.712 189.077 129.712Z" fill="#5B5B5B"/>
<path d="M95.5547 144.124C95.1237 144.124 94.6927 144.339 94.2617 144.339C94.6927 144.124 95.3392 144.124 95.5547 144.124Z" fill="#5B5B5B"/>
<path d="M166.236 147.351L164.297 152.084L150.937 146.706L150.506 146.276C145.118 141.113 142.964 127.991 142.102 120.677C143.825 119.817 145.549 118.741 146.842 117.881C147.704 126.916 149.859 138.316 153.738 142.404L166.236 147.351Z" fill="#5B5B5B"/>
<path d="M145.118 120.677C143.825 121.322 143.61 118.741 144.471 116.59H144.256C138.869 120.032 132.404 121.968 124.647 122.828H124.431C116.242 122.183 109.778 119.817 104.822 116.59H103.313C103.313 117.45 103.098 118.311 103.098 119.386H102.882L95.1246 144.554L83.4883 146.275L83.7038 169.937C83.7038 169.937 110.855 161.333 115.381 135.735C136.498 135.52 145.118 120.677 145.118 120.677Z" fill="#5B5B5B"/>
<path d="M85.2119 86.2599C77.4543 85.8297 76.5924 82.1728 76.5924 78.0857C76.8079 73.7835 75.2995 69.4812 72.7136 59.371C70.1277 49.2608 83.919 54.4234 83.919 54.4234L84.9964 57.435L85.2119 86.2599Z" fill="#5B5B5B"/>
<path d="M174.854 59.3708C172.269 69.481 170.76 73.7833 170.976 78.0855C171.191 81.9575 170.329 85.3993 163.865 86.2597V55.2837C163.865 55.2837 163.649 55.0686 163.434 54.8535L163.649 54.4233C163.649 54.6384 177.44 49.4757 174.854 59.3708Z" fill="#5B5B5B"/>
<path d="M124.862 127.776H124.216C104.606 126.055 94.4782 115.945 89.3064 107.771C83.7037 98.9512 82.8418 90.5619 82.8418 90.1316V89.9165V53.1325L84.9967 52.7023C85.2122 52.7023 85.8586 52.4872 114.734 52.7023L126.155 40.0107L137.576 53.1325H166.667V90.3467C166.667 90.777 165.805 99.1663 160.202 107.986C154.599 115.945 144.471 126.055 124.862 127.776ZM124.431 122.613C138.438 121.323 148.997 115.515 155.461 104.974C159.987 97.6605 161.064 90.5618 161.279 89.7014V58.0801H134.99L125.939 47.5396L116.889 57.6498H115.811C106.545 57.6498 93.1852 57.6498 88.0135 57.6498V89.7014C88.0135 92.0676 92.1078 119.817 124.431 122.613Z" fill="#5B5B5B"/>
<path d="M144.04 116.59C138.653 120.032 132.188 121.968 124.43 122.828H124.215C116.026 122.183 109.562 119.817 104.605 116.59H103.097C103.097 117.881 102.882 119.386 102.666 121.322C108.053 124.549 114.949 127.13 123.784 127.776H124.43H124.646C130.249 127.345 134.989 126.27 139.084 124.549C141.238 122.398 142.962 119.817 144.04 116.59Z" fill="#5B5B5B"/>
</svg>
