<svg width="373" height="279" viewBox="0 0 373 279" fill="none" xmlns="http://www.w3.org/2000/svg">
<path d="M222.468 121.045C221.288 120.885 220.433 120.805 219.903 120.805C219.373 120.805 219.003 120.87 218.793 121C218.593 121.12 218.493 121.315 218.493 121.585C218.493 121.855 218.603 122.045 218.823 122.155C219.053 122.265 219.583 122.395 220.413 122.545C221.253 122.685 221.848 122.91 222.198 123.22C222.548 123.53 222.723 124.08 222.723 124.87C222.723 125.66 222.468 126.24 221.958 126.61C221.458 126.98 220.723 127.165 219.753 127.165C219.143 127.165 218.373 127.08 217.443 126.91L216.978 126.835L217.038 125.47C218.238 125.63 219.103 125.71 219.633 125.71C220.163 125.71 220.538 125.645 220.758 125.515C220.988 125.385 221.103 125.17 221.103 124.87C221.103 124.57 220.993 124.365 220.773 124.255C220.563 124.135 220.048 124.01 219.228 123.88C218.418 123.74 217.823 123.525 217.443 123.235C217.063 122.945 216.873 122.415 216.873 121.645C216.873 120.875 217.133 120.3 217.653 119.92C218.183 119.54 218.858 119.35 219.678 119.35C220.318 119.35 221.103 119.43 222.033 119.59L222.498 119.68L222.468 121.045Z" fill="#454545"/>
<path d="M213.432 119.335C213.962 119.335 214.587 119.405 215.307 119.545L215.682 119.62L215.622 120.91C214.832 120.83 214.247 120.79 213.867 120.79C213.107 120.79 212.597 120.96 212.337 121.3C212.077 121.64 211.947 122.28 211.947 123.22C211.947 124.16 212.072 124.81 212.322 125.17C212.572 125.53 213.092 125.71 213.882 125.71L215.637 125.59L215.682 126.895C214.672 127.075 213.912 127.165 213.402 127.165C212.262 127.165 211.457 126.86 210.987 126.25C210.527 125.63 210.297 124.62 210.297 123.22C210.297 121.82 210.542 120.825 211.032 120.235C211.522 119.635 212.322 119.335 213.432 119.335Z" fill="#454545"/>
<path d="M207.01 127V119.5H208.645V127H207.01ZM207.01 118.225V116.5H208.645V118.225H207.01Z" fill="#454545"/>
<path d="M205.668 120.895H203.598V124.195C203.598 124.805 203.643 125.21 203.733 125.41C203.823 125.61 204.053 125.71 204.423 125.71L205.653 125.665L205.728 126.97C205.058 127.1 204.548 127.165 204.198 127.165C203.348 127.165 202.763 126.97 202.443 126.58C202.133 126.19 201.978 125.455 201.978 124.375V120.895H201.018V119.5H201.978V117.325H203.598V119.5H205.668V120.895Z" fill="#454545"/>
<path d="M193.561 119.5H195.166L196.756 125.605H197.161L198.751 119.5H200.371L197.521 130.225H195.916L196.816 127H195.526L193.561 119.5Z" fill="#454545"/>
<path d="M190.547 127V116.38H192.182V127H190.547Z" fill="#454545"/>
<path d="M188.403 121.81V125.23C188.413 125.45 188.468 125.615 188.568 125.725C188.678 125.825 188.843 125.89 189.063 125.92L189.018 127.165C188.158 127.165 187.493 126.98 187.023 126.61C186.223 126.98 185.418 127.165 184.608 127.165C183.118 127.165 182.373 126.37 182.373 124.78C182.373 124.02 182.573 123.47 182.973 123.13C183.383 122.79 184.008 122.585 184.848 122.515L186.783 122.35V121.81C186.783 121.41 186.693 121.13 186.513 120.97C186.343 120.81 186.088 120.73 185.748 120.73C185.108 120.73 184.308 120.77 183.348 120.85L182.868 120.88L182.808 119.725C183.898 119.465 184.898 119.335 185.808 119.335C186.728 119.335 187.388 119.535 187.788 119.935C188.198 120.325 188.403 120.95 188.403 121.81ZM185.043 123.67C184.353 123.73 184.008 124.105 184.008 124.795C184.008 125.485 184.313 125.83 184.923 125.83C185.423 125.83 185.953 125.75 186.513 125.59L186.783 125.5V123.505L185.043 123.67Z" fill="#454545"/>
<path d="M176.301 127H174.666V119.5H176.286V119.965C177.016 119.545 177.706 119.335 178.356 119.335C179.356 119.335 180.036 119.62 180.396 120.19C180.766 120.75 180.951 121.68 180.951 122.98V127H179.331V123.025C179.331 122.215 179.241 121.64 179.061 121.3C178.891 120.96 178.536 120.79 177.996 120.79C177.486 120.79 176.996 120.89 176.526 121.09L176.301 121.18V127Z" fill="#454545"/>
<path d="M164.996 127L167.531 116.725H170.846L173.396 127H171.716L171.161 124.795H167.216L166.661 127H164.996ZM168.821 118.12L167.546 123.325H170.831L169.571 118.12H168.821Z" fill="#454545"/>
<path d="M224.182 99.3799V110H222.562V109.61C221.832 109.98 221.162 110.165 220.552 110.165C219.572 110.165 218.852 109.87 218.392 109.28C217.942 108.69 217.717 107.7 217.717 106.31C217.717 104.92 217.967 103.91 218.467 103.28C218.977 102.65 219.767 102.335 220.837 102.335C221.197 102.335 221.767 102.4 222.547 102.53V99.3799H224.182ZM222.292 108.44L222.547 108.335V103.895C221.947 103.795 221.392 103.745 220.882 103.745C219.872 103.745 219.367 104.585 219.367 106.265C219.367 107.185 219.482 107.825 219.712 108.185C219.952 108.535 220.327 108.71 220.837 108.71C221.347 108.71 221.832 108.62 222.292 108.44Z" fill="#454545"/>
<path d="M215.784 108.65L216.204 108.605L216.234 109.82C215.094 110.05 214.084 110.165 213.204 110.165C212.094 110.165 211.294 109.86 210.804 109.25C210.324 108.64 210.084 107.665 210.084 106.325C210.084 103.665 211.169 102.335 213.339 102.335C215.439 102.335 216.489 103.48 216.489 105.77L216.384 106.94H211.734C211.744 107.56 211.879 108.015 212.139 108.305C212.399 108.595 212.884 108.74 213.594 108.74C214.304 108.74 215.034 108.71 215.784 108.65ZM214.884 105.68C214.884 104.94 214.764 104.425 214.524 104.135C214.294 103.835 213.899 103.685 213.339 103.685C212.779 103.685 212.369 103.84 212.109 104.15C211.859 104.46 211.729 104.97 211.719 105.68H214.884Z" fill="#454545"/>
<path d="M206.686 102.335C207.216 102.335 207.841 102.405 208.561 102.545L208.936 102.62L208.876 103.91C208.086 103.83 207.501 103.79 207.121 103.79C206.361 103.79 205.851 103.96 205.591 104.3C205.331 104.64 205.201 105.28 205.201 106.22C205.201 107.16 205.326 107.81 205.576 108.17C205.826 108.53 206.346 108.71 207.136 108.71L208.891 108.59L208.936 109.895C207.926 110.075 207.166 110.165 206.656 110.165C205.516 110.165 204.711 109.86 204.241 109.25C203.781 108.63 203.551 107.62 203.551 106.22C203.551 104.82 203.796 103.825 204.286 103.235C204.776 102.635 205.576 102.335 206.686 102.335Z" fill="#454545"/>
<path d="M197.328 110H195.693V102.5H197.313V102.965C198.043 102.545 198.733 102.335 199.383 102.335C200.383 102.335 201.063 102.62 201.423 103.19C201.793 103.75 201.978 104.68 201.978 105.98V110H200.358V106.025C200.358 105.215 200.268 104.64 200.088 104.3C199.918 103.96 199.563 103.79 199.023 103.79C198.513 103.79 198.023 103.89 197.553 104.09L197.328 104.18V110Z" fill="#454545"/>
<path d="M193.641 104.81V108.23C193.651 108.45 193.706 108.615 193.806 108.725C193.916 108.825 194.081 108.89 194.301 108.92L194.256 110.165C193.396 110.165 192.731 109.98 192.261 109.61C191.461 109.98 190.656 110.165 189.846 110.165C188.356 110.165 187.611 109.37 187.611 107.78C187.611 107.02 187.811 106.47 188.211 106.13C188.621 105.79 189.246 105.585 190.086 105.515L192.021 105.35V104.81C192.021 104.41 191.931 104.13 191.751 103.97C191.581 103.81 191.326 103.73 190.986 103.73C190.346 103.73 189.546 103.77 188.586 103.85L188.106 103.88L188.046 102.725C189.136 102.465 190.136 102.335 191.046 102.335C191.966 102.335 192.626 102.535 193.026 102.935C193.436 103.325 193.641 103.95 193.641 104.81ZM190.281 106.67C189.591 106.73 189.246 107.105 189.246 107.795C189.246 108.485 189.551 108.83 190.161 108.83C190.661 108.83 191.191 108.75 191.751 108.59L192.021 108.5V106.505L190.281 106.67Z" fill="#454545"/>
<path d="M180.119 102.5H181.829L183.269 108.605H183.749L185.249 102.5H186.914L184.964 110H182.054L180.119 102.5Z" fill="#454545"/>
<path d="M178.844 99.3799V110H177.224V109.61C176.494 109.98 175.824 110.165 175.214 110.165C174.234 110.165 173.514 109.87 173.054 109.28C172.604 108.69 172.379 107.7 172.379 106.31C172.379 104.92 172.629 103.91 173.129 103.28C173.639 102.65 174.429 102.335 175.499 102.335C175.859 102.335 176.429 102.4 177.209 102.53V99.3799H178.844ZM176.954 108.44L177.209 108.335V103.895C176.609 103.795 176.054 103.745 175.544 103.745C174.534 103.745 174.029 104.585 174.029 106.265C174.029 107.185 174.144 107.825 174.374 108.185C174.614 108.535 174.989 108.71 175.499 108.71C176.009 108.71 176.494 108.62 176.954 108.44Z" fill="#454545"/>
<path d="M163.129 110L165.664 99.7246H168.979L171.529 110H169.849L169.294 107.795H165.349L164.794 110H163.129ZM166.954 101.12L165.679 106.325H168.964L167.704 101.12H166.954Z" fill="#454545"/>
<path d="M247.198 182.65L247.618 182.605L247.648 183.82C246.508 184.05 245.498 184.165 244.618 184.165C243.508 184.165 242.708 183.86 242.218 183.25C241.738 182.64 241.498 181.665 241.498 180.325C241.498 177.665 242.583 176.335 244.753 176.335C246.853 176.335 247.903 177.48 247.903 179.77L247.798 180.94H243.148C243.158 181.56 243.293 182.015 243.553 182.305C243.813 182.595 244.298 182.74 245.008 182.74C245.718 182.74 246.448 182.71 247.198 182.65ZM246.298 179.68C246.298 178.94 246.178 178.425 245.938 178.135C245.708 177.835 245.313 177.685 244.753 177.685C244.193 177.685 243.783 177.84 243.523 178.15C243.273 178.46 243.143 178.97 243.133 179.68H246.298Z" fill="#454545"/>
<path d="M238.1 176.335C238.63 176.335 239.255 176.405 239.975 176.545L240.35 176.62L240.29 177.91C239.5 177.83 238.915 177.79 238.535 177.79C237.775 177.79 237.265 177.96 237.005 178.3C236.745 178.64 236.615 179.28 236.615 180.22C236.615 181.16 236.74 181.81 236.99 182.17C237.24 182.53 237.76 182.71 238.55 182.71L240.305 182.59L240.35 183.895C239.34 184.075 238.58 184.165 238.07 184.165C236.93 184.165 236.125 183.86 235.655 183.25C235.195 182.63 234.965 181.62 234.965 180.22C234.965 178.82 235.21 177.825 235.7 177.235C236.19 176.635 236.99 176.335 238.1 176.335Z" fill="#454545"/>
<path d="M228.742 184H227.107V176.5H228.727V176.965C229.457 176.545 230.147 176.335 230.797 176.335C231.797 176.335 232.477 176.62 232.837 177.19C233.207 177.75 233.392 178.68 233.392 179.98V184H231.772V180.025C231.772 179.215 231.682 178.64 231.502 178.3C231.332 177.96 230.977 177.79 230.437 177.79C229.927 177.79 229.437 177.89 228.967 178.09L228.742 178.18V184Z" fill="#454545"/>
<path d="M225.053 178.81V182.23C225.063 182.45 225.118 182.615 225.218 182.725C225.328 182.825 225.493 182.89 225.713 182.92L225.668 184.165C224.808 184.165 224.143 183.98 223.673 183.61C222.873 183.98 222.068 184.165 221.258 184.165C219.768 184.165 219.023 183.37 219.023 181.78C219.023 181.02 219.223 180.47 219.623 180.13C220.033 179.79 220.658 179.585 221.498 179.515L223.433 179.35V178.81C223.433 178.41 223.343 178.13 223.163 177.97C222.993 177.81 222.738 177.73 222.398 177.73C221.758 177.73 220.958 177.77 219.998 177.85L219.518 177.88L219.458 176.725C220.548 176.465 221.548 176.335 222.458 176.335C223.378 176.335 224.038 176.535 224.438 176.935C224.848 177.325 225.053 177.95 225.053 178.81ZM221.693 180.67C221.003 180.73 220.658 181.105 220.658 181.795C220.658 182.485 220.963 182.83 221.573 182.83C222.073 182.83 222.603 182.75 223.163 182.59L223.433 182.5V180.505L221.693 180.67Z" fill="#454545"/>
<path d="M212.951 184H211.316V176.5H212.936V176.965C213.666 176.545 214.356 176.335 215.006 176.335C216.006 176.335 216.686 176.62 217.046 177.19C217.416 177.75 217.601 178.68 217.601 179.98V184H215.981V180.025C215.981 179.215 215.891 178.64 215.711 178.3C215.541 177.96 215.186 177.79 214.646 177.79C214.136 177.79 213.646 177.89 213.176 178.09L212.951 178.18V184Z" fill="#454545"/>
<path d="M205.896 184V176.5H207.516V177.4C208.366 176.85 209.216 176.495 210.066 176.335V177.97C209.206 178.14 208.471 178.36 207.861 178.63L207.531 178.765V184H205.896Z" fill="#454545"/>
<path d="M203.618 182.65L204.038 182.605L204.068 183.82C202.928 184.05 201.918 184.165 201.038 184.165C199.928 184.165 199.128 183.86 198.638 183.25C198.158 182.64 197.918 181.665 197.918 180.325C197.918 177.665 199.003 176.335 201.173 176.335C203.273 176.335 204.323 177.48 204.323 179.77L204.218 180.94H199.568C199.578 181.56 199.713 182.015 199.973 182.305C200.233 182.595 200.718 182.74 201.428 182.74C202.138 182.74 202.868 182.71 203.618 182.65ZM202.718 179.68C202.718 178.94 202.598 178.425 202.358 178.135C202.128 177.835 201.733 177.685 201.173 177.685C200.613 177.685 200.203 177.84 199.943 178.15C199.693 178.46 199.563 178.97 199.553 179.68H202.718Z" fill="#454545"/>
<path d="M190.322 176.5H192.032L193.472 182.605H193.952L195.452 176.5H197.117L195.167 184H192.257L190.322 176.5Z" fill="#454545"/>
<path d="M183.595 177.31C184.115 176.66 184.975 176.335 186.175 176.335C187.375 176.335 188.23 176.66 188.74 177.31C189.26 177.96 189.52 178.935 189.52 180.235C189.52 181.535 189.27 182.515 188.77 183.175C188.27 183.835 187.405 184.165 186.175 184.165C184.945 184.165 184.08 183.835 183.58 183.175C183.08 182.515 182.83 181.535 182.83 180.235C182.83 178.935 183.085 177.96 183.595 177.31ZM184.825 182.185C185.055 182.585 185.505 182.785 186.175 182.785C186.845 182.785 187.295 182.585 187.525 182.185C187.755 181.785 187.87 181.13 187.87 180.22C187.87 179.31 187.745 178.665 187.495 178.285C187.255 177.905 186.815 177.715 186.175 177.715C185.535 177.715 185.09 177.905 184.84 178.285C184.6 178.665 184.48 179.31 184.48 180.22C184.48 181.13 184.595 181.785 184.825 182.185Z" fill="#454545"/>
<path d="M178.372 180.07V178.6H181.297V183.82C181.027 183.89 180.477 183.965 179.647 184.045C178.827 184.125 178.232 184.165 177.862 184.165C176.302 184.165 175.227 183.735 174.637 182.875C174.047 182.015 173.752 180.67 173.752 178.84C173.752 177 174.052 175.66 174.652 174.82C175.262 173.98 176.312 173.56 177.802 173.56C178.682 173.56 179.672 173.66 180.772 173.86L181.297 173.965L181.237 175.285C180.027 175.125 178.942 175.045 177.982 175.045C177.022 175.045 176.362 175.315 176.002 175.855C175.652 176.395 175.477 177.395 175.477 178.855C175.477 180.315 175.642 181.325 175.972 181.885C176.312 182.435 176.992 182.71 178.012 182.71C178.742 182.71 179.287 182.665 179.647 182.575V180.07H178.372Z" fill="#454545"/>
<path d="M168.643 178.81V182.23C168.653 182.45 168.708 182.615 168.808 182.725C168.918 182.825 169.083 182.89 169.303 182.92L169.258 184.165C168.398 184.165 167.733 183.98 167.263 183.61C166.463 183.98 165.658 184.165 164.848 184.165C163.358 184.165 162.613 183.37 162.613 181.78C162.613 181.02 162.813 180.47 163.213 180.13C163.623 179.79 164.248 179.585 165.088 179.515L167.023 179.35V178.81C167.023 178.41 166.933 178.13 166.753 177.97C166.583 177.81 166.328 177.73 165.988 177.73C165.348 177.73 164.548 177.77 163.588 177.85L163.108 177.88L163.048 176.725C164.138 176.465 165.138 176.335 166.048 176.335C166.968 176.335 167.628 176.535 168.028 176.935C168.438 177.325 168.643 177.95 168.643 178.81ZM165.283 180.67C164.593 180.73 164.248 181.105 164.248 181.795C164.248 182.485 164.553 182.83 165.163 182.83C165.663 182.83 166.193 182.75 166.753 182.59L167.023 182.5V180.505L165.283 180.67Z" fill="#454545"/>
<path d="M161.752 177.895H159.682V181.195C159.682 181.805 159.727 182.21 159.817 182.41C159.907 182.61 160.137 182.71 160.507 182.71L161.737 182.665L161.812 183.97C161.142 184.1 160.632 184.165 160.282 184.165C159.432 184.165 158.847 183.97 158.527 183.58C158.217 183.19 158.062 182.455 158.062 181.375V177.895H157.102V176.5H158.062V174.325H159.682V176.5H161.752V177.895Z" fill="#454545"/>
<path d="M155.665 178.81V182.23C155.675 182.45 155.73 182.615 155.83 182.725C155.94 182.825 156.105 182.89 156.325 182.92L156.28 184.165C155.42 184.165 154.755 183.98 154.285 183.61C153.485 183.98 152.68 184.165 151.87 184.165C150.38 184.165 149.635 183.37 149.635 181.78C149.635 181.02 149.835 180.47 150.235 180.13C150.645 179.79 151.27 179.585 152.11 179.515L154.045 179.35V178.81C154.045 178.41 153.955 178.13 153.775 177.97C153.605 177.81 153.35 177.73 153.01 177.73C152.37 177.73 151.57 177.77 150.61 177.85L150.13 177.88L150.07 176.725C151.16 176.465 152.16 176.335 153.07 176.335C153.99 176.335 154.65 176.535 155.05 176.935C155.46 177.325 155.665 177.95 155.665 178.81ZM152.305 180.67C151.615 180.73 151.27 181.105 151.27 181.795C151.27 182.485 151.575 182.83 152.185 182.83C152.685 182.83 153.215 182.75 153.775 182.59L154.045 182.5V180.505L152.305 180.67Z" fill="#454545"/>
<path d="M144.254 184H140.699V173.725H144.254C145.834 173.725 146.914 174.125 147.494 174.925C148.074 175.725 148.364 176.98 148.364 178.69C148.364 179.56 148.304 180.3 148.184 180.91C148.074 181.51 147.874 182.055 147.584 182.545C147.014 183.515 145.904 184 144.254 184ZM146.639 178.69C146.639 177.45 146.484 176.555 146.174 176.005C145.864 175.455 145.224 175.18 144.254 175.18H142.364V182.53H144.254C145.244 182.53 145.904 182.165 146.234 181.435C146.394 181.065 146.499 180.67 146.549 180.25C146.609 179.83 146.639 179.31 146.639 178.69Z" fill="#454545"/>
<path d="M245.766 245.81V249.23C245.776 249.45 245.831 249.615 245.931 249.725C246.041 249.825 246.206 249.89 246.426 249.92L246.381 251.165C245.521 251.165 244.856 250.98 244.386 250.61C243.586 250.98 242.781 251.165 241.971 251.165C240.481 251.165 239.736 250.37 239.736 248.78C239.736 248.02 239.936 247.47 240.336 247.13C240.746 246.79 241.371 246.585 242.211 246.515L244.146 246.35V245.81C244.146 245.41 244.056 245.13 243.876 244.97C243.706 244.81 243.451 244.73 243.111 244.73C242.471 244.73 241.671 244.77 240.711 244.85L240.231 244.88L240.171 243.725C241.261 243.465 242.261 243.335 243.171 243.335C244.091 243.335 244.751 243.535 245.151 243.935C245.561 244.325 245.766 244.95 245.766 245.81ZM242.406 247.67C241.716 247.73 241.371 248.105 241.371 248.795C241.371 249.485 241.676 249.83 242.286 249.83C242.786 249.83 243.316 249.75 243.876 249.59L244.146 249.5V247.505L242.406 247.67Z" fill="#454545"/>
<path d="M238.877 244.895H236.807V248.195C236.807 248.805 236.852 249.21 236.942 249.41C237.032 249.61 237.262 249.71 237.632 249.71L238.862 249.665L238.937 250.97C238.267 251.1 237.757 251.165 237.407 251.165C236.557 251.165 235.972 250.97 235.652 250.58C235.342 250.19 235.187 249.455 235.187 248.375V244.895H234.227V243.5H235.187V241.325H236.807V243.5H238.877V244.895Z" fill="#454545"/>
<path d="M232.788 245.81V249.23C232.798 249.45 232.853 249.615 232.953 249.725C233.063 249.825 233.228 249.89 233.448 249.92L233.403 251.165C232.543 251.165 231.878 250.98 231.408 250.61C230.608 250.98 229.803 251.165 228.993 251.165C227.503 251.165 226.758 250.37 226.758 248.78C226.758 248.02 226.958 247.47 227.358 247.13C227.768 246.79 228.393 246.585 229.233 246.515L231.168 246.35V245.81C231.168 245.41 231.078 245.13 230.898 244.97C230.728 244.81 230.473 244.73 230.133 244.73C229.493 244.73 228.693 244.77 227.733 244.85L227.253 244.88L227.193 243.725C228.283 243.465 229.283 243.335 230.193 243.335C231.113 243.335 231.773 243.535 232.173 243.935C232.583 244.325 232.788 244.95 232.788 245.81ZM229.428 247.67C228.738 247.73 228.393 248.105 228.393 248.795C228.393 249.485 228.698 249.83 229.308 249.83C229.808 249.83 230.338 249.75 230.898 249.59L231.168 249.5V247.505L229.428 247.67Z" fill="#454545"/>
<path d="M221.379 251H217.824V240.725H221.379C222.959 240.725 224.039 241.125 224.619 241.925C225.199 242.725 225.489 243.98 225.489 245.69C225.489 246.56 225.429 247.3 225.309 247.91C225.199 248.51 224.999 249.055 224.709 249.545C224.139 250.515 223.029 251 221.379 251ZM223.764 245.69C223.764 244.45 223.609 243.555 223.299 243.005C222.989 242.455 222.349 242.18 221.379 242.18H219.489V249.53H221.379C222.369 249.53 223.029 249.165 223.359 248.435C223.519 248.065 223.624 247.67 223.674 247.25C223.734 246.83 223.764 246.31 223.764 245.69Z" fill="#454545"/>
<path d="M212.352 240.38V251H210.732V250.61C210.002 250.98 209.332 251.165 208.722 251.165C207.742 251.165 207.022 250.87 206.562 250.28C206.112 249.69 205.887 248.7 205.887 247.31C205.887 245.92 206.137 244.91 206.637 244.28C207.147 243.65 207.937 243.335 209.007 243.335C209.367 243.335 209.937 243.4 210.717 243.53V240.38H212.352ZM210.462 249.44L210.717 249.335V244.895C210.117 244.795 209.562 244.745 209.052 244.745C208.042 244.745 207.537 245.585 207.537 247.265C207.537 248.185 207.652 248.825 207.882 249.185C208.122 249.535 208.497 249.71 209.007 249.71C209.517 249.71 210.002 249.62 210.462 249.44Z" fill="#454545"/>
<path d="M203.956 249.65L204.376 249.605L204.406 250.82C203.266 251.05 202.256 251.165 201.376 251.165C200.266 251.165 199.466 250.86 198.976 250.25C198.496 249.64 198.256 248.665 198.256 247.325C198.256 244.665 199.341 243.335 201.511 243.335C203.611 243.335 204.661 244.48 204.661 246.77L204.556 247.94H199.906C199.916 248.56 200.051 249.015 200.311 249.305C200.571 249.595 201.056 249.74 201.766 249.74C202.476 249.74 203.206 249.71 203.956 249.65ZM203.056 246.68C203.056 245.94 202.936 245.425 202.696 245.135C202.466 244.835 202.071 244.685 201.511 244.685C200.951 244.685 200.541 244.84 200.281 245.15C200.031 245.46 199.901 245.97 199.891 246.68H203.056Z" fill="#454545"/>
<path d="M191.43 244.955V243.5H196.995V244.955L193.395 249.545H196.995V251H191.43V249.545L195.045 244.955H191.43Z" fill="#454545"/>
<path d="M188.186 251V243.5H189.821V251H188.186ZM188.186 242.225V240.5H189.821V242.225H188.186Z" fill="#454545"/>
<path d="M184.482 251V240.38H186.117V251H184.482Z" fill="#454545"/>
<path d="M182.339 245.81V249.23C182.349 249.45 182.404 249.615 182.504 249.725C182.614 249.825 182.779 249.89 182.999 249.92L182.954 251.165C182.094 251.165 181.429 250.98 180.959 250.61C180.159 250.98 179.354 251.165 178.544 251.165C177.054 251.165 176.309 250.37 176.309 248.78C176.309 248.02 176.509 247.47 176.909 247.13C177.319 246.79 177.944 246.585 178.784 246.515L180.719 246.35V245.81C180.719 245.41 180.629 245.13 180.449 244.97C180.279 244.81 180.024 244.73 179.684 244.73C179.044 244.73 178.244 244.77 177.284 244.85L176.804 244.88L176.744 243.725C177.834 243.465 178.834 243.335 179.744 243.335C180.664 243.335 181.324 243.535 181.724 243.935C182.134 244.325 182.339 244.95 182.339 245.81ZM178.979 247.67C178.289 247.73 177.944 248.105 177.944 248.795C177.944 249.485 178.249 249.83 178.859 249.83C179.359 249.83 179.889 249.75 180.449 249.59L180.719 249.5V247.505L178.979 247.67Z" fill="#454545"/>
<path d="M171.369 251V243.5H172.989V244.4C173.839 243.85 174.689 243.495 175.539 243.335V244.97C174.679 245.14 173.944 245.36 173.334 245.63L173.004 245.765V251H171.369Z" fill="#454545"/>
<path d="M170.029 244.895H167.959V248.195C167.959 248.805 168.004 249.21 168.094 249.41C168.184 249.61 168.414 249.71 168.784 249.71L170.014 249.665L170.089 250.97C169.419 251.1 168.909 251.165 168.559 251.165C167.709 251.165 167.124 250.97 166.804 250.58C166.494 250.19 166.339 249.455 166.339 248.375V244.895H165.379V243.5H166.339V241.325H167.959V243.5H170.029V244.895Z" fill="#454545"/>
<path d="M159.44 251H157.805V243.5H159.425V243.965C160.155 243.545 160.845 243.335 161.495 243.335C162.495 243.335 163.175 243.62 163.535 244.19C163.905 244.75 164.09 245.68 164.09 246.98V251H162.47V247.025C162.47 246.215 162.38 245.64 162.2 245.3C162.03 244.96 161.675 244.79 161.135 244.79C160.625 244.79 160.135 244.89 159.665 245.09L159.44 245.18V251Z" fill="#454545"/>
<path d="M155.528 249.65L155.948 249.605L155.978 250.82C154.838 251.05 153.828 251.165 152.948 251.165C151.838 251.165 151.038 250.86 150.548 250.25C150.068 249.64 149.828 248.665 149.828 247.325C149.828 244.665 150.913 243.335 153.083 243.335C155.183 243.335 156.233 244.48 156.233 246.77L156.128 247.94H151.478C151.488 248.56 151.623 249.015 151.883 249.305C152.143 249.595 152.628 249.74 153.338 249.74C154.048 249.74 154.778 249.71 155.528 249.65ZM154.628 246.68C154.628 245.94 154.508 245.425 154.268 245.135C154.038 244.835 153.643 244.685 153.083 244.685C152.523 244.685 152.113 244.84 151.853 245.15C151.603 245.46 151.473 245.97 151.463 246.68H154.628Z" fill="#454545"/>
<path d="M145.806 251.165C144.306 251.165 143.286 250.75 142.746 249.92C142.216 249.09 141.951 247.725 141.951 245.825C141.951 243.925 142.221 242.575 142.761 241.775C143.301 240.965 144.316 240.56 145.806 240.56C146.696 240.56 147.676 240.685 148.746 240.935L148.686 242.285C147.786 242.125 146.886 242.045 145.986 242.045C145.086 242.045 144.476 242.315 144.156 242.855C143.836 243.385 143.676 244.39 143.676 245.87C143.676 247.34 143.831 248.345 144.141 248.885C144.451 249.415 145.056 249.68 145.956 249.68C146.856 249.68 147.766 249.605 148.686 249.455L148.731 250.835C147.701 251.055 146.726 251.165 145.806 251.165Z" fill="#454545"/>
<path d="M39.5 277L3 249.5L45.9209 192M39.5 277H369.5L326.814 212.912M39.5 277L74 212.912M187 3L88.8418 134.5M187 3L108.405 149M187 3L284.245 149M45.9209 192L74 212.912M45.9209 192L88.8418 134.5M74 212.912L108.405 149M74 212.912H326.814M326.814 212.912L284.245 149M88.8418 134.5L108.405 149M108.405 149H284.245" stroke="#454545" stroke-width="3"/>
</svg>
