<svg width="40" height="40" viewBox="0 0 40 40" fill="none" xmlns="http://www.w3.org/2000/svg">
<g clip-path="url(#clip0_174_51)">
<path fill-rule="evenodd" clip-rule="evenodd" d="M22.0958 17.9156L22.9892 2.67993L10.543 19.3563L10.5397 19.3606C9.70265 20.4706 10.4945 22.0844 11.9073 22.0844H18.2759L17.3824 37.3201L29.8286 20.6437L29.8319 20.6394C30.669 19.5294 29.8771 17.9156 28.4643 17.9156H22.0958ZM18.6902 39.2322C17.5106 40.7489 15.0249 39.8642 15.1513 37.9262L15.9518 24.2762H11.9073C8.70547 24.2762 6.85178 20.6109 8.78974 18.041L21.6814 0.767789C22.8611 -0.748881 25.3467 0.135859 25.2203 2.07382L24.4199 15.7238H28.4643C31.6661 15.7238 33.5199 19.3891 31.5819 21.959L18.6902 39.2322Z" fill="#FFB216"/>
</g>
<defs>
<clipPath id="clip0_174_51">
<rect width="40" height="40" fill="white"/>
</clipPath>
</defs>
</svg>
