<svg width="40" height="40" viewBox="0 0 40 40" fill="none" xmlns="http://www.w3.org/2000/svg">
<path fill-rule="evenodd" clip-rule="evenodd" d="M36 6.667C36 5.931 35.4027 5.33367 34.6667 5.33367C29.6813 5.33367 24.6813 4.12967 20.9427 0.391C20.4227 -0.130333 19.5773 -0.130333 19.0573 0.391C15.3187 4.12967 11.564 5.33367 5.33333 5.33367C4.59733 5.33367 4 5.931 4 6.667V22.667C4 31.2897 12.5533 38.5377 19.7387 39.975C19.8973 40.0057 20.06 40.0084 20.2187 39.9817C28.8547 38.543 36 31.3017 36 22.667V6.667ZM33.3333 7.97234V22.667C33.3333 29.951 27.2827 35.9897 20.024 37.3097C13.9213 35.9724 6.66667 29.9497 6.66667 22.667V7.98167C12.4893 7.815 16.3227 6.495 20.0107 3.16434C23.7947 6.44034 28.52 7.771 33.3333 7.97234Z" fill="#FFB216"/>
</svg>
