<svg width="40" height="40" viewBox="0 0 40 40" fill="none" xmlns="http://www.w3.org/2000/svg">
<g clip-path="url(#clip0_174_53)">
<mask id="mask0_174_53" style="mask-type:luminance" maskUnits="userSpaceOnUse" x="0" y="0" width="40" height="40">
<path d="M40 0H0V40H40V0Z" fill="white"/>
</mask>
<g mask="url(#mask0_174_53)">
<path d="M20 40C8.97311 40 0 31.0269 0 20C0 8.97311 8.97311 0 20 0C31.0269 0 40 8.97311 40 20C40 31.0269 31.0269 40 20 40ZM20 3.29946C10.792 3.29946 3.29894 10.792 3.29894 20.0005C3.29894 29.209 10.7915 36.7016 20 36.7016C29.2085 36.7016 36.7011 29.209 36.7011 20.0005C36.7011 10.792 29.2085 3.29946 20 3.29946ZM20 34.0725C12.2414 34.0725 5.92806 27.7591 5.92806 20.0005C5.92806 12.242 12.2414 5.92858 20 5.92858C27.7586 5.92858 34.0719 12.242 34.0719 20.0005C34.0719 27.7591 27.7586 34.0725 20 34.0725ZM20 9.22752C14.0598 9.22752 9.22699 14.0604 9.22699 20.0005C9.22699 25.9406 14.0599 30.7735 20 30.7735C25.9401 30.7735 30.773 25.9406 30.773 20.0005C30.773 14.0604 25.9401 9.22752 20 9.22752ZM20 28.2727C15.4392 28.2727 11.7278 24.5614 11.7278 20.0005C11.7278 15.4397 15.4391 11.7284 20 11.7284C24.5609 11.7284 28.2721 15.4397 28.2721 20.0005C28.2721 24.5614 24.5609 28.2727 20 28.2727ZM20 15.0273C17.2578 15.0273 15.0268 17.2582 15.0268 20.0005C15.0268 22.7427 17.2578 24.9736 20 24.9736C22.7422 24.9736 24.9732 22.7427 24.9732 20.0005C24.9732 17.2582 22.7422 15.0273 20 15.0273Z" fill="#FFB216"/>
</g>
</g>
<defs>
<clipPath id="clip0_174_53">
<rect width="40" height="40" fill="white"/>
</clipPath>
</defs>
</svg>
