<svg width="40" height="40" viewBox="0 0 40 40" fill="none" xmlns="http://www.w3.org/2000/svg">
<path d="M39.0989 36.5907H30.9387C30.388 36.5907 29.9875 36.1402 29.9875 35.6396C29.9875 35.1389 30.438 34.6884 30.9387 34.6884H38.0976C38.0476 32.0851 37.8974 29.2816 37.7472 28.781C37.3467 28.0801 36.0451 27.4794 33.6421 26.4781C31.0889 25.4268 29.637 24.2753 29.637 21.622C29.637 20.771 29.9875 20.3204 30.1877 20.02C30.388 19.7697 30.5882 19.4693 30.7384 18.5181C30.8886 17.7171 31.3892 17.4168 31.5895 17.3166C31.5895 17.3166 31.6395 17.7171 31.6896 16.5657C31.6896 16.4656 31.6896 16.4155 31.6395 16.3655C31.3892 16.1652 31.239 15.8148 31.2891 15.4643C31.2891 15.4643 31.4894 14.3129 31.5394 13.4118C31.5895 12.9111 31.3892 11.96 30.7384 11.2591C30.1877 10.6583 29.3867 10.3579 28.3354 10.3579C27.2841 10.3579 26.4831 10.6583 25.9324 11.2591C25.2816 11.96 25.1314 12.9111 25.1815 13.4118C25.2315 14.3129 25.4318 15.4643 25.4318 15.4643C25.4819 15.8148 25.3317 16.1652 25.0814 16.3655C25.0814 16.4155 25.0313 16.4656 25.0313 16.6158C25.0814 17.1665 25.1815 17.3166 25.1815 17.3166C25.3817 17.4168 25.8824 17.6671 26.0325 18.4681C26.1827 19.4193 26.383 19.6696 26.5832 19.97C26.8335 20.2703 27.1339 20.7209 27.1339 21.572C27.1339 23.224 26.8335 23.6746 25.5319 24.6258C25.0814 24.9262 24.4806 24.826 24.1802 24.3755C23.8798 23.9249 23.98 23.3242 24.4305 23.0238C25.2315 22.4731 25.2315 22.4731 25.2315 21.572C25.2315 21.3717 25.2315 21.3717 25.0814 21.1715C24.781 20.821 24.3805 20.2703 24.1302 18.9186C23.4793 18.5181 23.229 17.8673 23.1289 16.6658C23.1289 16.0651 23.2791 15.6145 23.4293 15.3141C23.3792 14.8636 23.2791 14.1627 23.229 13.562C23.1289 12.6108 23.4293 11.1089 24.5307 9.90738C25.1815 9.20651 26.383 8.35544 28.3855 8.35544C30.388 8.35544 31.5895 9.20651 32.2403 9.85732C33.2916 11.0088 33.592 12.5607 33.5419 13.5119C33.4919 14.1126 33.3917 14.8135 33.3417 15.2641C33.5419 15.5645 33.6421 15.965 33.6421 16.5657C33.5419 17.8173 33.2916 18.4681 32.6408 18.8686C32.3905 20.2203 31.99 20.7209 31.6896 21.1214C31.5394 21.3217 31.5394 21.3217 31.5394 21.572C31.5394 22.8736 31.7897 23.5745 34.3429 24.6258C37.2466 25.8273 38.6483 26.5782 39.3992 27.8298C39.5494 28.03 39.9499 28.7309 40 35.5895C40 35.8398 39.8999 36.0901 39.6996 36.2904C39.6496 36.4906 39.3992 36.5907 39.0989 36.5907ZM24.4305 36.5907H0.951189C0.400501 36.5907 0 36.1402 0 35.6396V29.2816C0 27.0788 2.15269 26.1777 3.35419 25.7272C7.15895 24.1252 8.81101 23.1239 8.81101 21.2716C8.81101 20.8711 8.76095 20.821 8.51064 20.5207C8.11014 20.02 7.60951 19.3191 7.30914 17.5169C6.60826 17.1164 6.10763 16.5156 6.00751 14.7134C6.00751 13.9124 6.20776 13.3617 6.45807 13.0113C6.35795 12.4105 6.20776 11.4093 6.1577 10.5582C6.05757 9.60701 6.30788 7.55444 7.7597 5.95244C8.91114 4.70088 10.6133 4 12.6658 4C14.7184 4 16.3705 4.65081 17.572 5.95244C19.0238 7.50438 19.2741 9.60701 19.174 10.5582C19.1239 11.4093 18.9737 12.4105 18.8736 13.0113C19.1239 13.3617 19.3242 13.8623 19.3242 14.6633C19.224 16.5156 18.7234 17.1665 18.0225 17.567C17.7722 19.219 17.3217 19.9199 16.821 20.5707C16.5707 20.8711 16.5207 20.9712 16.5207 21.3217C16.5207 23.3242 17.1214 24.2753 20.4756 25.6771C23.8798 27.1289 25.4318 28.7309 25.4318 30.9337V35.6896C25.3817 36.1402 24.9312 36.5907 24.4305 36.5907ZM1.95244 34.6383H23.4793V30.8335C23.4793 30.2829 23.4793 28.9812 19.7247 27.3792C16.3705 26.0275 14.5682 24.6258 14.5682 21.2716C14.5682 20.2203 14.9687 19.7196 15.2691 19.3191C15.5695 18.9687 15.8698 18.5181 16.1201 17.2165C16.2703 16.4155 16.6708 16.0651 17.0713 15.8148C17.1715 15.7647 17.3217 15.5645 17.3717 14.5632C17.3717 14.2128 17.2716 14.0626 17.2716 14.0626C16.9212 13.8623 16.821 13.562 16.8711 13.1114C16.8711 13.1114 17.1214 11.5594 17.2215 10.3579C17.2716 9.7572 17.1214 8.30538 16.1201 7.25407C15.3191 6.403 14.1677 5.95244 12.6658 5.95244C11.164 5.95244 10.0125 6.403 9.21151 7.25407C8.21026 8.35544 8.06008 9.7572 8.11014 10.3579C8.21026 11.5594 8.46058 13.1114 8.46058 13.1114C8.51064 13.5119 8.36045 13.9124 8.01001 14.1126C8.11014 14.1126 7.95995 14.2628 7.95995 14.6133C8.01001 15.5645 8.21026 15.7647 8.21026 15.7647C8.71089 16.0651 9.11139 16.3655 9.26158 17.2165C9.46183 18.5181 9.81227 18.9687 10.1126 19.3191C10.413 19.7196 10.8135 20.2203 10.8135 21.2716C10.8135 24.7259 7.3592 26.1277 4.35544 27.4293L4.15519 27.5294C3.00375 27.98 2.0025 28.4806 2.0025 29.3317V34.6383H1.95244Z" fill="#FFB216"/>
</svg>
